999
dxfrw 0.6.3
  0
SECTION
  2
HEADER
  9
$ACADVER
  1
AC1021
  9
$DWGCODEPAGE
  3
ANSI_1252
  9
$INSBASE
 10
0
 20
0
 30
0
  9
$EXTMIN
 10
-7.454660215267637
 20
-60.69758598490556
 30
0
  9
$EXTMAX
 10
340.697928030639
 20
81.04660830996247
 30
0
  9
$LIMMIN
 10
0
 20
0
  9
$LIMMAX
 10
420
 20
297
  9
$ORTHOMODE
 70
    0
  9
$REGENMODE
 70
    1
  9
$FILLMODE
 70
    1
  9
$QTEXTMODE
 70
    0
  9
$MIRRTEXT
 70
    0
  9
$LTSCALE
 40
1
  9
$ATTMODE
 70
    0
  9
$TEXTSIZE
 40
2.5
  9
$TRACEWID
 40
15.68
  9
$TEXTSTYLE
  7
STANDARD
  9
$CLAYER
  8
0
  9
$CELTYPE
  6
BYLAYER
  9
$CECOLOR
 62
  256
  9
$CELTSCALE
 40
1
  9
$DISPSILH
 70
    0
  9
$DIMSCALE
 40
1
  9
$DIMASZ
 40
2.5
  9
$DIMEXO
 40
0.625
  9
$DIMDLI
 40
3.75
  9
$DIMRND
 40
0
  9
$DIMDLE
 40
0
  9
$DIMEXE
 40
1.25
  9
$DIMTP
 40
0
  9
$DIMTM
 40
0
  9
$DIMTXT
 40
2.5
  9
$DIMCEN
 40
2.5
  9
$DIMTSZ
 40
0
  9
$DIMTOL
 70
    0
  9
$DIMLIM
 70
    0
  9
$DIMTIH
 70
    0
  9
$DIMTOH
 70
    0
  9
$DIMSE1
 70
    0
  9
$DIMSE2
 70
    0
  9
$DIMTAD
 70
    1
  9
$DIMZIN
 70
    8
  9
$DIMBLK
  1

  9
$DIMASO
 70
    1
  9
$DIMSHO
 70
    1
  9
$DIMPOST
  1

  9
$DIMAPOST
  1

  9
$DIMALT
 70
    0
  9
$DIMALTD
 70
    3
  9
$DIMALTF
 40
0.03937
  9
$DIMLFAC
 40
1
  9
$DIMTOFL
 70
    1
  9
$DIMTVP
 40
0
  9
$DIMTIX
 70
    0
  9
$DIMSOXD
 70
    0
  9
$DIMSAH
 70
    0
  9
$DIMBLK1
  1

  9
$DIMBLK2
  1

  9
$DIMSTYLE
  2
STANDARD
  9
$DIMCLRD
 70
    0
  9
$DIMCLRE
 70
    0
  9
$DIMCLRT
 70
    0
  9
$DIMTFAC
 40
1
  9
$DIMGAP
 40
0.625
  9
$DIMJUST
 70
    0
  9
$DIMSD1
 70
    0
  9
$DIMSD2
 70
    0
  9
$DIMTOLJ
 70
    0
  9
$DIMTZIN
 70
    8
  9
$DIMALTZ
 70
    0
  9
$DIMALTTZ
 70
    0
  9
$DIMUPT
 70
    0
  9
$DIMDEC
 70
    2
  9
$DIMTDEC
 70
    2
  9
$DIMALTU
 70
    2
  9
$DIMALTTD
 70
    3
  9
$DIMTXSTY
  7
STANDARD
  9
$DIMAUNIT
 70
    0
  9
$DIMADEC
 70
    0
  9
$DIMALTRND
 40
0
  9
$DIMAZIN
 70
    0
  9
$DIMDSEP
 70
   44
  9
$DIMATFIT
 70
    3
  9
$DIMFRAC
 70
    0
  9
$DIMLDRBLK
  1
STANDARD
  9
$DIMLUNIT
 70
    2
  9
$DIMLWD
 70
   -2
  9
$DIMLWE
 70
   -2
  9
$DIMTMOVE
 70
    0
  9
$DIMFXL
 40
1
  9
$DIMFXLON
 70
    0
  9
$DIMJOGANG
 40
0.7854
  9
$DIMTFILL
 70
    0
  9
$DIMTFILLCLR
 70
    0
  9
$DIMARCSYM
 70
    0
  9
$DIMLTYPE
  6

  9
$DIMLTEX1
  6

  9
$DIMLTEX2
  6

  9
$LUNITS
 70
    2
  9
$LUPREC
 70
    4
  9
$SKETCHINC
 40
1
  9
$FILLETRAD
 40
0
  9
$AUNITS
 70
    0
  9
$AUPREC
 70
    2
  9
$MENU
  1
.
  9
$ELEVATION
 40
0
  9
$PELEVATION
 40
0
  9
$THICKNESS
 40
0
  9
$LIMCHECK
 70
    0
  9
$CHAMFERA
 40
0
  9
$CHAMFERB
 40
0
  9
$CHAMFERC
 40
0
  9
$CHAMFERD
 40
0
  9
$SKPOLY
 70
    0
  9
$USRTIMER
 70
    1
  9
$ANGBASE
 50
0
  9
$ANGDIR
 70
    0
  9
$PDMODE
 70
   34
  9
$PDSIZE
 40
0
  9
$PLINEWID
 40
0
  9
$SPLFRAME
 70
    0
  9
$SPLINETYPE
 70
    2
  9
$SPLINESEGS
 70
    8
  9
$HANDSEED
  5
20000
  9
$SURFTAB1
 70
    6
  9
$SURFTAB2
 70
    6
  9
$SURFTYPE
 70
    6
  9
$SURFU
 70
    6
  9
$SURFV
 70
    6
  9
$UCSBASE
  2

  9
$UCSNAME
  2

  9
$UCSORG
 10
0
 20
0
 30
0
  9
$UCSXDIR
 10
1
 20
0
 30
0
  9
$UCSYDIR
 10
0
 20
1
 30
0
  9
$UCSORTHOREF
  2

  9
$UCSORTHOVIEW
 70
    0
  9
$UCSORGTOP
 10
0
 20
0
 30
0
  9
$UCSORGBOTTOM
 10
0
 20
0
 30
0
  9
$UCSORGLEFT
 10
0
 20
0
 30
0
  9
$UCSORGRIGHT
 10
0
 20
0
 30
0
  9
$UCSORGFRONT
 10
0
 20
0
 30
0
  9
$UCSORGBACK
 10
0
 20
0
 30
0
  9
$PUCSBASE
  2

  9
$PUCSNAME
  2

  9
$PUCSORG
 10
0
 20
0
 30
0
  9
$PUCSXDIR
 10
1
 20
0
 30
0
  9
$PUCSYDIR
 10
0
 20
1
 30
0
  9
$PUCSORTHOREF
  2

  9
$PUCSORTHOVIEW
 70
    0
  9
$PUCSORGTOP
 10
0
 20
0
 30
0
  9
$PUCSORGBOTTOM
 10
0
 20
0
 30
0
  9
$PUCSORGLEFT
 10
0
 20
0
 30
0
  9
$PUCSORGRIGHT
 10
0
 20
0
 30
0
  9
$PUCSORGFRONT
 10
0
 20
0
 30
0
  9
$PUCSORGBACK
 10
0
 20
0
 30
0
  9
$USERI1
 70
    0
  9
$USERI2
 70
    0
  9
$USERI3
 70
    0
  9
$USERI4
 70
    0
  9
$USERI5
 70
    0
  9
$USERR1
 40
0
  9
$USERR2
 40
0
  9
$USERR3
 40
0
  9
$USERR4
 40
0
  9
$USERR5
 40
0
  9
$WORLDVIEW
 70
    1
  9
$SHADEDGE
 70
    3
  9
$SHADEDIF
 70
   70
  9
$TILEMODE
 70
    1
  9
$MAXACTVP
 70
   64
  9
$PINSBASE
 10
0
 20
0
 30
0
  9
$PLIMCHECK
 70
    0
  9
$PEXTMIN
 10
0
 20
0
 30
0
  9
$PEXTMAX
 10
0
 20
0
 30
0
  9
$GRIDMODE
 70
    1
  9
$SNAPSTYLE
 70
    0
  9
$PLIMMIN
 10
0
 20
0
  9
$PLIMMAX
 10
355.6
 20
215.9
  9
$UNITMODE
 70
    0
  9
$VISRETAIN
 70
    1
  9
$PLINEGEN
 70
    0
  9
$PSLTSCALE
 70
    1
  9
$TREEDEPTH
 70
 3020
  9
$CMLSTYLE
  2
Standard
  9
$CMLJUST
 70
    0
  9
$CMLSCALE
 40
20
  9
$PROXYGRAPHICS
 70
    1
  9
$MEASUREMENT
 70
    1
  9
$CELWEIGHT
370
   -1
  9
$ENDCAPS
280
    0
  9
$JOINSTYLE
280
    0
  9
$LWDISPLAY
290
    0
  9
$INSUNITS
 70
    4
  9
$HYPERLINKBASE
  1

  9
$STYLESHEET
  1

  9
$XEDIT
290
    1
  9
$CEPSNTYPE
380
    0
  9
$PSTYLEMODE
290
    1
  9
$EXTNAMES
290
    1
  9
$PSVPSCALE
 40
1
  9
$OLESTARTUP
290
    0
  9
$SORTENTS
280
  127
  9
$INDEXCTL
280
    0
  9
$HIDETEXT
280
    1
  9
$XCLIPFRAME
290
    0
  9
$HALOGAP
280
    0
  9
$OBSCOLOR
 70
  257
  9
$OBSLTYPE
280
    0
  9
$INTERSECTIONDISPLAY
280
    0
  9
$INTERSECTIONCOLOR
 70
  257
  9
$DIMASSOC
280
    1
  9
$PROJECTNAME
  1

  9
$CAMERADISPLAY
290
    0
  9
$LENSLENGTH
 40
50
  9
$CAMERAHEIGHT
 40
0
  9
$STEPSPERSEC
 40
2
  9
$STEPSIZE
 40
50
  9
$3DDWFPREC
 40
2
  9
$PSOLWIDTH
 40
5
  9
$PSOLHEIGHT
 40
80
  9
$LOFTANG1
 40
1.570796326794897
  9
$LOFTANG2
 40
1.570796326794897
  9
$LOFTMAG1
 40
0
  9
$LOFTMAG2
 40
0
  9
$LOFTPARAM
 70
    7
  9
$LOFTNORMALS
280
    1
  9
$LATITUDE
 40
1
  9
$LONGITUDE
 40
1
  9
$NORTHDIRECTION
 40
0
  9
$TIMEZONE
 70
-8000
  9
$LIGHTGLYPHDISPLAY
280
    1
  9
$TILEMODELIGHTSYNCH
280
    1
  9
$SOLIDHIST
280
    1
  9
$SHOWHIST
280
    1
  9
$DWFFRAME
280
    2
  9
$DGNFRAME
280
    0
  9
$REALWORLDSCALE
290
    1
  9
$INTERFERECOLOR
 62
    1
  9
$CSHADOW
280
    0
  9
$SHADOWPLANELOCATION
 40
0
  0
ENDSEC
  0
SECTION
  2
CLASSES
  0
ENDSEC
  0
SECTION
  2
TABLES
  0
TABLE
  2
VPORT
  5
8
330
0
100
AcDbSymbolTable
 70
    1
  0
VPORT
  5
31
330
2
100
AcDbSymbolTableRecord
100
AcDbViewportTableRecord
  2
*ACTIVE
 70
    0
 10
0
 20
0
 11
1
 21
1
 12
90.50712325458186
 22
-0.579087399100789
 13
0
 23
0
 14
10
 24
10
 15
10
 25
10
 16
0
 26
0
 36
1
 17
0
 27
0
 37
0
 40
21.8923285025908
 41
2.00258064516129
 42
50
 43
0
 44
0
 50
0
 51
0
 71
    0
 72
  100
 73
    1
 74
    3
 75
    0
 76
    1
 77
    0
 78
    0
281
    0
 65
    1
110
0
120
0
130
0
111
1
121
0
131
0
112
0
122
1
132
0
 79
    0
146
0
348
10020
 60
    7
 61
    5
292
1
282
    1
141
0
142
0
 63
  250
421
3358443
  0
ENDTAB
  0
TABLE
  2
LTYPE
  5
5
330
0
100
AcDbSymbolTable
 70
    4
  0
LTYPE
  5
14
330
5
100
AcDbSymbolTableRecord
100
AcDbLinetypeTableRecord
  2
ByBlock
 70
    0
  3

 72
   65
 73
    0
 40
0
  0
LTYPE
  5
15
330
5
100
AcDbSymbolTableRecord
100
AcDbLinetypeTableRecord
  2
ByLayer
 70
    0
  3

 72
   65
 73
    0
 40
0
  0
LTYPE
  5
16
330
5
100
AcDbSymbolTableRecord
100
AcDbLinetypeTableRecord
  2
Continuous
 70
    0
  3
Solid line
 72
   65
 73
    0
 40
0
  0
LTYPE
  5
32
330
5
100
AcDbSymbolTableRecord
100
AcDbLinetypeTableRecord
  2
DOT
 70
    0
  3
Dot . . . . . . . . . . . . . . . . . . . . . .
 72
   65
 73
    2
 40
6.35
 49
0
 74
    0
 49
-6.35
 74
    0
  0
LTYPE
  5
33
330
5
100
AcDbSymbolTableRecord
100
AcDbLinetypeTableRecord
  2
DOTTINY
 70
    0
  3
Dot (.15x) .....................................
 72
   65
 73
    2
 40
0.9525
 49
0
 74
    0
 49
-0.9525
 74
    0
  0
LTYPE
  5
34
330
5
100
AcDbSymbolTableRecord
100
AcDbLinetypeTableRecord
  2
DOT2
 70
    0
  3
Dot (.5x) .....................................
 72
   65
 73
    2
 40
3.175
 49
0
 74
    0
 49
-3.175
 74
    0
  0
LTYPE
  5
35
330
5
100
AcDbSymbolTableRecord
100
AcDbLinetypeTableRecord
  2
DOTX2
 70
    0
  3
Dot (2x) .  .  .  .  .  .  .  .  .  .  .  .  .
 72
   65
 73
    2
 40
12.7
 49
0
 74
    0
 49
-12.7
 74
    0
  0
LTYPE
  5
36
330
5
100
AcDbSymbolTableRecord
100
AcDbLinetypeTableRecord
  2
DASHED
 70
    0
  3
Dashed _ _ _ _ _ _ _ _ _ _ _ _ _ _ _ _ _
 72
   65
 73
    2
 40
19.05
 49
12.7
 74
    0
 49
-6.35
 74
    0
  0
LTYPE
  5
37
330
5
100
AcDbSymbolTableRecord
100
AcDbLinetypeTableRecord
  2
DASHEDTINY
 70
    0
  3
Dashed (.15x) _ _ _ _ _ _ _ _ _ _ _ _ _ _ _ _ _
 72
   65
 73
    2
 40
2.8575
 49
1.905
 74
    0
 49
-0.9525
 74
    0
  0
LTYPE
  5
38
330
5
100
AcDbSymbolTableRecord
100
AcDbLinetypeTableRecord
  2
DASHED2
 70
    0
  3
Dashed (.5x) _ _ _ _ _ _ _ _ _ _ _ _ _ _ _ _ _
 72
   65
 73
    2
 40
9.524999999999999
 49
6.35
 74
    0
 49
-3.175
 74
    0
  0
LTYPE
  5
39
330
5
100
AcDbSymbolTableRecord
100
AcDbLinetypeTableRecord
  2
DASHEDX2
 70
    0
  3
Dashed (2x) ____  ____  ____  ____  ____  ___
 72
   65
 73
    2
 40
38.09999999999999
 49
25.4
 74
    0
 49
-12.7
 74
    0
  0
LTYPE
  5
3A
330
5
100
AcDbSymbolTableRecord
100
AcDbLinetypeTableRecord
  2
DASHDOT
 70
    0
  3
Dash dot __ . __ . __ . __ . __ . __ . __ . __
 72
   65
 73
    4
 40
25.4
 49
12.7
 74
    0
 49
-6.35
 74
    0
 49
0
 74
    0
 49
-6.35
 74
    0
  0
LTYPE
  5
3B
330
5
100
AcDbSymbolTableRecord
100
AcDbLinetypeTableRecord
  2
DASHDOTTINY
 70
    0
  3
Dash dot (.15x) _._._._._._._._._._._._._._._.
 72
   65
 73
    4
 40
3.81
 49
1.905
 74
    0
 49
-0.9525
 74
    0
 49
0
 74
    0
 49
-0.9525
 74
    0
  0
LTYPE
  5
3C
330
5
100
AcDbSymbolTableRecord
100
AcDbLinetypeTableRecord
  2
DASHDOT2
 70
    0
  3
Dash dot (.5x) _._._._._._._._._._._._._._._.
 72
   65
 73
    4
 40
12.7
 49
6.35
 74
    0
 49
-3.175
 74
    0
 49
0
 74
    0
 49
-3.175
 74
    0
  0
LTYPE
  5
3D
330
5
100
AcDbSymbolTableRecord
100
AcDbLinetypeTableRecord
  2
DASHDOTX2
 70
    0
  3
Dash dot (2x) ____  .  ____  .  ____  .  ___
 72
   65
 73
    4
 40
50.8
 49
25.4
 74
    0
 49
-12.7
 74
    0
 49
0
 74
    0
 49
-12.7
 74
    0
  0
LTYPE
  5
3E
330
5
100
AcDbSymbolTableRecord
100
AcDbLinetypeTableRecord
  2
DIVIDE
 70
    0
  3
Divide ____ . . ____ . . ____ . . ____ . . ____
 72
   65
 73
    6
 40
31.75
 49
12.7
 74
    0
 49
-6.35
 74
    0
 49
0
 74
    0
 49
-6.35
 74
    0
 49
0
 74
    0
 49
-6.35
 74
    0
  0
LTYPE
  5
3F
330
5
100
AcDbSymbolTableRecord
100
AcDbLinetypeTableRecord
  2
DIVIDETINY
 70
    0
  3
Divide (.15x) __..__..__..__..__..__..__..__.._
 72
   65
 73
    6
 40
4.7625
 49
1.905
 74
    0
 49
-0.9525
 74
    0
 49
0
 74
    0
 49
-0.9525
 74
    0
 49
0
 74
    0
 49
-0.9525
 74
    0
  0
LTYPE
  5
40
330
5
100
AcDbSymbolTableRecord
100
AcDbLinetypeTableRecord
  2
DIVIDE2
 70
    0
  3
Divide (.5x) __..__..__..__..__..__..__..__.._
 72
   65
 73
    6
 40
15.875
 49
6.35
 74
    0
 49
-3.175
 74
    0
 49
0
 74
    0
 49
-3.175
 74
    0
 49
0
 74
    0
 49
-3.175
 74
    0
  0
LTYPE
  5
41
330
5
100
AcDbSymbolTableRecord
100
AcDbLinetypeTableRecord
  2
DIVIDEX2
 70
    0
  3
Divide (2x) ________  .  .  ________  .  .  _
 72
   65
 73
    6
 40
63.5
 49
25.4
 74
    0
 49
-12.7
 74
    0
 49
0
 74
    0
 49
-12.7
 74
    0
 49
0
 74
    0
 49
-12.7
 74
    0
  0
LTYPE
  5
42
330
5
100
AcDbSymbolTableRecord
100
AcDbLinetypeTableRecord
  2
BORDER
 70
    0
  3
Border __ __ . __ __ . __ __ . __ __ . __ __ .
 72
   65
 73
    6
 40
44.45
 49
12.7
 74
    0
 49
-6.35
 74
    0
 49
12.7
 74
    0
 49
-6.35
 74
    0
 49
0
 74
    0
 49
-6.35
 74
    0
  0
LTYPE
  5
43
330
5
100
AcDbSymbolTableRecord
100
AcDbLinetypeTableRecord
  2
BORDERTINY
 70
    0
  3
Border (.15x) __.__.__.__.__.__.__.__.__.__.__.
 72
   65
 73
    6
 40
6.6675
 49
1.905
 74
    0
 49
-0.9525
 74
    0
 49
1.905
 74
    0
 49
-0.9525
 74
    0
 49
0
 74
    0
 49
-0.9525
 74
    0
  0
LTYPE
  5
44
330
5
100
AcDbSymbolTableRecord
100
AcDbLinetypeTableRecord
  2
BORDER2
 70
    0
  3
Border (.5x) __.__.__.__.__.__.__.__.__.__.__.
 72
   65
 73
    6
 40
22.225
 49
6.35
 74
    0
 49
-3.175
 74
    0
 49
6.35
 74
    0
 49
-3.175
 74
    0
 49
0
 74
    0
 49
-3.175
 74
    0
  0
LTYPE
  5
45
330
5
100
AcDbSymbolTableRecord
100
AcDbLinetypeTableRecord
  2
BORDERX2
 70
    0
  3
Border (2x) ____  ____  .  ____  ____  .  ___
 72
   65
 73
    6
 40
88.89999999999999
 49
25.4
 74
    0
 49
-12.7
 74
    0
 49
25.4
 74
    0
 49
-12.7
 74
    0
 49
0
 74
    0
 49
-12.7
 74
    0
  0
LTYPE
  5
46
330
5
100
AcDbSymbolTableRecord
100
AcDbLinetypeTableRecord
  2
CENTER
 70
    0
  3
Center ____ _ ____ _ ____ _ ____ _ ____ _ ____
 72
   65
 73
    4
 40
50.8
 49
31.75
 74
    0
 49
-6.35
 74
    0
 49
6.35
 74
    0
 49
-6.35
 74
    0
  0
LTYPE
  5
47
330
5
100
AcDbSymbolTableRecord
100
AcDbLinetypeTableRecord
  2
CENTERTINY
 70
    0
  3
Center (.15x) ___ _ ___ _ ___ _ ___ _ ___ _ ___
 72
   65
 73
    4
 40
7.62
 49
4.7625
 74
    0
 49
-0.9525
 74
    0
 49
0.9525
 74
    0
 49
-0.9525
 74
    0
  0
LTYPE
  5
48
330
5
100
AcDbSymbolTableRecord
100
AcDbLinetypeTableRecord
  2
CENTER2
 70
    0
  3
Center (.5x) ___ _ ___ _ ___ _ ___ _ ___ _ ___
 72
   65
 73
    4
 40
28.575
 49
19.05
 74
    0
 49
-3.175
 74
    0
 49
3.175
 74
    0
 49
-3.175
 74
    0
  0
LTYPE
  5
49
330
5
100
AcDbSymbolTableRecord
100
AcDbLinetypeTableRecord
  2
CENTERX2
 70
    0
  3
Center (2x) ________  __  ________  __  _____
 72
   65
 73
    4
 40
101.6
 49
63.5
 74
    0
 49
-12.7
 74
    0
 49
12.7
 74
    0
 49
-12.7
 74
    0
  0
ENDTAB
  0
TABLE
  2
LAYER
  5
2
330
0
100
AcDbSymbolTable
 70
    1
  0
LAYER
  5
10
330
2
100
AcDbSymbolTableRecord
100
AcDbLayerTableRecord
  2
0
 70
    0
 62
    3
  6
CONTINUOUS
370
    0
390
F
  0
LAYER
  5
4A
330
2
100
AcDbSymbolTableRecord
100
AcDbLayerTableRecord
  2
Construction
 70
    1
 62
  216
420
8388736
  6
CONTINUOUS
290
0
370
    0
390
F
  0
LAYER
  5
4B
330
2
100
AcDbSymbolTableRecord
100
AcDbLayerTableRecord
  2
I2C_Module
 70
    1
 62
    6
  6
CONTINUOUS
370
    0
390
F
  0
LAYER
  5
4C
330
2
100
AcDbSymbolTableRecord
100
AcDbLayerTableRecord
  2
PCB_Hand
 70
    5
 62
    4
  6
CONTINUOUS
370
    0
390
F
  0
LAYER
  5
4D
330
2
100
AcDbSymbolTableRecord
100
AcDbLayerTableRecord
  2
PCB_Main
 70
    4
 62
    2
  6
CONTINUOUS
370
    0
390
F
  0
LAYER
  5
4E
330
2
100
AcDbSymbolTableRecord
100
AcDbLayerTableRecord
  2
Part Placement Guide
 70
    1
 62
    1
  6
CONTINUOUS
370
    0
390
F
  0
ENDTAB
  0
TABLE
  2
STYLE
  5
3
330
0
100
AcDbSymbolTable
 70
    3
  0
STYLE
  5
4F
330
2
100
AcDbSymbolTableRecord
100
AcDbTextStyleTableRecord
  2
cursive
 70
    0
 40
0
 41
1
 50
0
 71
    0
 42
1
  3
cursive
  4

  0
STYLE
  5
50
330
2
100
AcDbSymbolTableRecord
100
AcDbTextStyleTableRecord
  2
Standard
 70
    0
 40
0
 41
1
 50
0
 71
    0
 42
1
  3
txt
  4

  0
ENDTAB
  0
TABLE
  2
VIEW
  5
6
330
0
100
AcDbSymbolTable
 70
    0
  0
ENDTAB
  0
TABLE
  2
UCS
  5
7
330
0
100
AcDbSymbolTable
 70
    0
  0
ENDTAB
  0
TABLE
  2
APPID
  5
9
330
0
100
AcDbSymbolTable
 70
    1
  0
APPID
  5
12
330
9
100
AcDbSymbolTableRecord
100
AcDbRegAppTableRecord
  2
ACAD
 70
    0
  0
APPID
  5
51
330
9
100
AcDbSymbolTableRecord
100
AcDbRegAppTableRecord
  2
LibreCad
 70
    0
  0
ENDTAB
  0
TABLE
  2
DIMSTYLE
  5
A
330
0
100
AcDbSymbolTable
 70
    1
100
AcDbDimStyleTable
 71
    1
  0
DIMSTYLE
105
52
330
A
100
AcDbSymbolTableRecord
100
AcDbDimStyleTableRecord
  2
Standard
 70
    0
 40
1
 41
2.5
 42
0.625
 43
0.38
 44
1.25
 45
0
 46
0
 47
0
 48
0
 49
1
140
2.5
141
0.09
142
0
143
25.4
144
1
145
0
146
1
147
0.625
148
0
 71
    0
 72
    0
 73
    0
 74
    1
 75
    0
 76
    0
 77
    0
 78
    8
 79
    0
170
    0
171
    2
172
    0
173
    0
174
    0
175
    0
176
    0
177
    0
178
    0
179
    0
271
    2
272
    4
273
    2
274
    2
275
    0
276
    0
277
    2
278
   44
279
    0
280
    0
281
    0
282
    0
283
    1
284
    0
285
    0
286
    0
288
    0
289
    3
340
STANDARD
341

371
   -2
372
   -2
  0
ENDTAB
  0
TABLE
  2
BLOCK_RECORD
  5
1
330
0
100
AcDbSymbolTable
 70
    2
  0
BLOCK_RECORD
  5
1F
330
1
100
AcDbSymbolTableRecord
100
AcDbBlockTableRecord
  2
*Model_Space
 70
    0
280
    1
281
    0
  0
BLOCK_RECORD
  5
1E
330
1
100
AcDbSymbolTableRecord
100
AcDbBlockTableRecord
  2
*Paper_Space
 70
    0
280
    1
281
    0
  0
ENDTAB
  0
ENDSEC
  0
SECTION
  2
BLOCKS
  0
BLOCK
  5
20
330
1F
100
AcDbEntity
  8
0
100
AcDbBlockBegin
  2
*Model_Space
 70
    0
 10
0
 20
0
 30
0
  3
*Model_Space
  1

  0
ENDBLK
  5
21
330
1F
100
AcDbEntity
  8
0
100
AcDbBlockEnd
  0
BLOCK
  5
1C
330
1B
100
AcDbEntity
  8
0
100
AcDbBlockBegin
  2
*Paper_Space
 70
    0
 10
0
 20
0
 30
0
  3
*Paper_Space
  1

  0
ENDBLK
  5
1D
330
1F
100
AcDbEntity
  8
0
100
AcDbBlockEnd
  0
ENDSEC
  0
SECTION
  2
ENTITIES
  0
LINE
  5
53
100
AcDbEntity
  8
Construction
  6
ByLayer
 62
  256
370
   -1
100
AcDbLine
 10
111.3547405800201
 20
-12.88348750752029
 11
105.1173898554873
 21
-42.22791552953446
  0
LINE
  5
54
100
AcDbEntity
  8
Construction
  6
ByLayer
 62
  256
370
   -1
100
AcDbLine
 10
118.0874113279509
 20
52.69986514084587
 11
115.1558564874205
 21
38.90798397049922
  0
LINE
  5
55
100
AcDbEntity
  8
Construction
  6
ByLayer
 62
  256
370
   -1
100
AcDbLine
 10
109.7256933225123
 20
47.26970197593774
 11
123.517574492859
 21
44.33814713540734
  0
LINE
  5
56
100
AcDbEntity
  8
Construction
  6
ByLayer
 62
  256
370
   -1
100
AcDbLine
 10
116.6216339076857
 20
45.80392455567254
 11
166.6216339076857
 21
45.80392455567254
  0
LINE
  5
57
100
AcDbEntity
  8
Construction
  6
ByLayer
 62
  256
370
   -1
100
AcDbLine
 10
166.6216339076857
 20
45.80392455567254
 11
166.6216339076857
 21
95.80392455567254
  0
CIRCLE
  5
58
100
AcDbEntity
  8
Part Placement Guide
  6
ByLayer
 62
  256
370
   -1
100
AcDbCircle
 10
20.52455191827745
 20
62.65179780783576
 40
1
  0
CIRCLE
  5
59
100
AcDbEntity
  8
Part Placement Guide
  6
ByLayer
 62
  256
370
   -1
100
AcDbCircle
 10
16.47027394733115
 20
43.57791959352654
 40
1
  0
CIRCLE
  5
5A
100
AcDbEntity
  8
Part Placement Guide
  6
ByLayer
 62
  256
370
   -1
100
AcDbCircle
 10
12.41599597638484
 20
24.50404137921733
 40
1
  0
CIRCLE
  5
5B
100
AcDbEntity
  8
Part Placement Guide
  6
ByLayer
 62
  256
370
   -1
100
AcDbCircle
 10
8.361718005438536
 20
5.430163164908123
 40
1
  0
CIRCLE
  5
5C
100
AcDbEntity
  8
Part Placement Guide
  6
ByLayer
 62
  256
370
   -1
100
AcDbCircle
 10
39.59843013258666
 20
58.59751983688943
 40
1
  0
CIRCLE
  5
5D
100
AcDbEntity
  8
Part Placement Guide
  6
ByLayer
 62
  256
370
   -1
100
AcDbCircle
 10
35.54415216164035
 20
39.52364162258021
 40
1
  0
CIRCLE
  5
5E
100
AcDbEntity
  8
Part Placement Guide
  6
ByLayer
 62
  256
370
   -1
100
AcDbCircle
 10
31.48987419069405
 20
20.449763408271
 40
1
  0
CIRCLE
  5
5F
100
AcDbEntity
  8
Part Placement Guide
  6
ByLayer
 62
  256
370
   -1
100
AcDbCircle
 10
27.43559621974774
 20
1.375885193961793
 40
1
  0
CIRCLE
  5
60
100
AcDbEntity
  8
Part Placement Guide
  6
ByLayer
 62
  256
370
   -1
100
AcDbCircle
 10
59.39999926475803
 20
57.96675846851144
 40
1
  0
CIRCLE
  5
61
100
AcDbEntity
  8
Part Placement Guide
  6
ByLayer
 62
  256
370
   -1
100
AcDbCircle
 10
55.34572129381173
 20
38.89288025420223
 40
1
  0
CIRCLE
  5
62
100
AcDbEntity
  8
Part Placement Guide
  6
ByLayer
 62
  256
370
   -1
100
AcDbCircle
 10
51.29144332286542
 20
19.81900203989302
 40
1
  0
CIRCLE
  5
63
100
AcDbEntity
  8
Part Placement Guide
  6
ByLayer
 62
  256
370
   -1
100
AcDbCircle
 10
47.23716535191912
 20
0.7451238255838106
 40
1
  0
CIRCLE
  5
64
100
AcDbEntity
  8
Part Placement Guide
  6
ByLayer
 62
  256
370
   -1
100
AcDbCircle
 10
79.20156839692939
 20
57.33599710013345
 40
1
  0
CIRCLE
  5
65
100
AcDbEntity
  8
Part Placement Guide
  6
ByLayer
 62
  256
370
   -1
100
AcDbCircle
 10
75.1472904259831
 20
38.26211888582424
 40
1
  0
CIRCLE
  5
66
100
AcDbEntity
  8
Part Placement Guide
  6
ByLayer
 62
  256
370
   -1
100
AcDbCircle
 10
71.09301245503679
 20
19.18824067151503
 40
1
  0
CIRCLE
  5
67
100
AcDbEntity
  8
Part Placement Guide
  6
ByLayer
 62
  256
370
   -1
100
AcDbCircle
 10
67.03873448409048
 20
0.1143624572058144
 40
1
  0
CIRCLE
  5
68
100
AcDbEntity
  8
Part Placement Guide
  6
ByLayer
 62
  256
370
   -1
100
AcDbCircle
 10
97.54775569337643
 20
49.85820252661881
 40
1
  0
CIRCLE
  5
69
100
AcDbEntity
  8
Part Placement Guide
  6
ByLayer
 62
  256
370
   -1
100
AcDbCircle
 10
93.49347772243014
 20
30.7843243123096
 40
1
  0
CIRCLE
  5
6A
100
AcDbEntity
  8
Part Placement Guide
  6
ByLayer
 62
  256
370
   -1
100
AcDbCircle
 10
89.43919975148383
 20
11.71044609800039
 40
1
  0
CIRCLE
  5
6B
100
AcDbEntity
  8
Part Placement Guide
  6
ByLayer
 62
  256
370
   -1
100
AcDbCircle
 10
85.38492178053752
 20
-7.363432116308822
 40
1
  0
CIRCLE
  5
6C
100
AcDbEntity
  8
Part Placement Guide
  6
ByLayer
 62
  256
370
   -1
100
AcDbCircle
 10
116.6216339076856
 20
45.80392455567251
 40
1
  0
CIRCLE
  5
6D
100
AcDbEntity
  8
Part Placement Guide
  6
ByLayer
 62
  256
370
   -1
100
AcDbCircle
 10
112.5673559367394
 20
26.7300463413633
 40
1
  0
CIRCLE
  5
6E
100
AcDbEntity
  8
Part Placement Guide
  6
ByLayer
 62
  256
370
   -1
100
AcDbCircle
 10
108.513077965793
 20
7.656168127054087
 40
1
  0
CIRCLE
  5
6F
100
AcDbEntity
  8
Part Placement Guide
  6
ByLayer
 62
  256
370
   -1
100
AcDbCircle
 10
104.4587999948467
 20
-11.41771008725512
 40
1
  0
CIRCLE
  5
70
100
AcDbEntity
  8
Part Placement Guide
  6
ByLayer
 62
  256
370
   -1
100
AcDbCircle
 10
130.670882564959
 20
-7.605321600902053
 40
1
  0
CIRCLE
  5
71
100
AcDbEntity
  8
Part Placement Guide
  6
ByLayer
 62
  256
370
   -1
100
AcDbCircle
 10
148.0455097866322
 20
-16.45813634582321
 40
1
  0
CIRCLE
  5
72
100
AcDbEntity
  8
Part Placement Guide
  6
ByLayer
 62
  256
370
   -1
100
AcDbCircle
 10
139.1926950417111
 20
-33.83276356749639
 40
1
  0
CIRCLE
  5
73
100
AcDbEntity
  8
Part Placement Guide
  6
ByLayer
 62
  256
370
   -1
100
AcDbCircle
 10
121.8180678200379
 20
-24.97994882257522
 40
1
  0
CIRCLE
  5
74
100
AcDbEntity
  8
Part Placement Guide
  6
ByLayer
 62
  256
370
   -1
100
AcDbCircle
 10
312.7187158970938
 20
62.65179780783559
 40
1
  0
CIRCLE
  5
75
100
AcDbEntity
  8
Part Placement Guide
  6
ByLayer
 62
  256
370
   -1
100
AcDbCircle
 10
316.7729938680401
 20
43.57791959352637
 40
1
  0
CIRCLE
  5
76
100
AcDbEntity
  8
Part Placement Guide
  6
ByLayer
 62
  256
370
   -1
100
AcDbCircle
 10
320.8272718389864
 20
24.50404137921716
 40
1
  0
CIRCLE
  5
77
100
AcDbEntity
  8
Part Placement Guide
  6
ByLayer
 62
  256
370
   -1
100
AcDbCircle
 10
324.8815498099327
 20
5.430163164907938
 40
1
  0
CIRCLE
  5
78
100
AcDbEntity
  8
Part Placement Guide
  6
ByLayer
 62
  256
370
   -1
100
AcDbCircle
 10
293.6448376827846
 20
58.59751983688928
 40
1
  0
CIRCLE
  5
79
100
AcDbEntity
  8
Part Placement Guide
  6
ByLayer
 62
  256
370
   -1
100
AcDbCircle
 10
297.6991156537309
 20
39.52364162258007
 40
1
  0
CIRCLE
  5
7A
100
AcDbEntity
  8
Part Placement Guide
  6
ByLayer
 62
  256
370
   -1
100
AcDbCircle
 10
301.7533936246772
 20
20.44976340827085
 40
1
  0
CIRCLE
  5
7B
100
AcDbEntity
  8
Part Placement Guide
  6
ByLayer
 62
  256
370
   -1
100
AcDbCircle
 10
305.8076715956234
 20
1.375885193961636
 40
1
  0
CIRCLE
  5
7C
100
AcDbEntity
  8
Part Placement Guide
  6
ByLayer
 62
  256
370
   -1
100
AcDbCircle
 10
273.8432685506132
 20
57.96675846851132
 40
1
  0
CIRCLE
  5
7D
100
AcDbEntity
  8
Part Placement Guide
  6
ByLayer
 62
  256
370
   -1
100
AcDbCircle
 10
277.8975465215595
 20
38.8928802542021
 40
1
  0
CIRCLE
  5
7E
100
AcDbEntity
  8
Part Placement Guide
  6
ByLayer
 62
  256
370
   -1
100
AcDbCircle
 10
281.9518244925058
 20
19.81900203989289
 40
1
  0
CIRCLE
  5
7F
100
AcDbEntity
  8
Part Placement Guide
  6
ByLayer
 62
  256
370
   -1
100
AcDbCircle
 10
286.0061024634521
 20
0.7451238255836685
 40
1
  0
CIRCLE
  5
80
100
AcDbEntity
  8
Part Placement Guide
  6
ByLayer
 62
  256
370
   -1
100
AcDbCircle
 10
254.0416994184419
 20
57.33599710013335
 40
1
  0
CIRCLE
  5
81
100
AcDbEntity
  8
Part Placement Guide
  6
ByLayer
 62
  256
370
   -1
100
AcDbCircle
 10
258.0959773893882
 20
38.26211888582414
 40
1
  0
CIRCLE
  5
82
100
AcDbEntity
  8
Part Placement Guide
  6
ByLayer
 62
  256
370
   -1
100
AcDbCircle
 10
262.1502553603344
 20
19.18824067151492
 40
1
  0
CIRCLE
  5
83
100
AcDbEntity
  8
Part Placement Guide
  6
ByLayer
 62
  256
370
   -1
100
AcDbCircle
 10
266.2045333312807
 20
0.1143624572057007
 40
1
  0
CIRCLE
  5
84
100
AcDbEntity
  8
Part Placement Guide
  6
ByLayer
 62
  256
370
   -1
100
AcDbCircle
 10
235.6955121219949
 20
49.85820252661873
 40
1
  0
CIRCLE
  5
85
100
AcDbEntity
  8
Part Placement Guide
  6
ByLayer
 62
  256
370
   -1
100
AcDbCircle
 10
239.7497900929411
 20
30.78432431230951
 40
1
  0
CIRCLE
  5
86
100
AcDbEntity
  8
Part Placement Guide
  6
ByLayer
 62
  256
370
   -1
100
AcDbCircle
 10
243.8040680638874
 20
11.7104460980003
 40
1
  0
CIRCLE
  5
87
100
AcDbEntity
  8
Part Placement Guide
  6
ByLayer
 62
  256
370
   -1
100
AcDbCircle
 10
247.8583460348337
 20
-7.363432116308921
 40
1
  0
CIRCLE
  5
88
100
AcDbEntity
  8
Part Placement Guide
  6
ByLayer
 62
  256
370
   -1
100
AcDbCircle
 10
216.6216339076856
 20
45.80392455567245
 40
1
  0
CIRCLE
  5
89
100
AcDbEntity
  8
Part Placement Guide
  6
ByLayer
 62
  256
370
   -1
100
AcDbCircle
 10
220.6759118786319
 20
26.73004634136323
 40
1
  0
CIRCLE
  5
8A
100
AcDbEntity
  8
Part Placement Guide
  6
ByLayer
 62
  256
370
   -1
100
AcDbCircle
 10
224.7301898495782
 20
7.656168127054016
 40
1
  0
CIRCLE
  5
8B
100
AcDbEntity
  8
Part Placement Guide
  6
ByLayer
 62
  256
370
   -1
100
AcDbCircle
 10
228.7844678205245
 20
-11.41771008725519
 40
1
  0
CIRCLE
  5
8C
100
AcDbEntity
  8
Part Placement Guide
  6
ByLayer
 62
  256
370
   -1
100
AcDbCircle
 10
202.5723852504122
 20
-7.605321600902093
 40
1
  0
CIRCLE
  5
8D
100
AcDbEntity
  8
Part Placement Guide
  6
ByLayer
 62
  256
370
   -1
100
AcDbCircle
 10
185.197758028739
 20
-16.45813634582323
 40
1
  0
CIRCLE
  5
8E
100
AcDbEntity
  8
Part Placement Guide
  6
ByLayer
 62
  256
370
   -1
100
AcDbCircle
 10
194.0505727736601
 20
-33.83276356749641
 40
1
  0
CIRCLE
  5
8F
100
AcDbEntity
  8
Part Placement Guide
  6
ByLayer
 62
  256
370
   -1
100
AcDbCircle
 10
211.4251999953333
 20
-24.97994882257528
 40
1
  0
LINE
  5
90
100
AcDbEntity
  8
Construction
  6
ByLayer
 62
  256
370
   -1
100
AcDbLine
 10
315.4168597459687
 20
-9.923163575349129
 11
301.624978575622
 21
-12.85471841587954
  0
LINE
  5
91
100
AcDbEntity
  8
Construction
  6
ByLayer
 62
  256
370
   -1
100
AcDbLine
 10
223.6313720124625
 20
-33.40695094006963
 11
211.0681800214065
 21
-39.80821698639723
  0
LINE
  5
92
100
AcDbEntity
  8
Construction
  6
ByLayer
 62
  256
370
   -1
100
AcDbLine
 10
226.0863239716498
 20
61.1572512959298
 11
239.8782051419964
 21
64.08880613646021
  0
LINE
  5
93
100
AcDbEntity
  8
Construction
  6
ByLayer
 62
  256
370
   -1
100
AcDbLine
 10
244.4325112680968
 20
68.63504586944444
 11
258.2243924384435
 21
71.56660070997484
  0
LINE
  5
94
100
AcDbEntity
  8
Construction
  6
ByLayer
 62
  256
370
   -1
100
AcDbLine
 10
264.2340804002682
 20
69.26580723782243
 11
278.0259615706149
 21
72.19736207835282
  0
LINE
  5
95
100
AcDbEntity
  8
Construction
  6
ByLayer
 62
  256
370
   -1
100
AcDbLine
 10
284.0356495324395
 20
69.8965686062004
 11
297.8275307027862
 21
72.82812344673081
  0
LINE
  5
96
100
AcDbEntity
  8
Construction
  6
ByLayer
 62
  256
370
   -1
100
AcDbLine
 10
321.0833218642034
 20
71.63725088572755
 11
324.0148767047338
 21
57.84536971538091
  0
LINE
  5
97
100
AcDbEntity
  8
Construction
  6
ByLayer
 62
  256
370
   -1
100
AcDbLine
 10
325.1375998351497
 20
52.56337267141836
 11
328.0691546756801
 21
38.7714915010717
  0
LINE
  5
98
100
AcDbEntity
  8
Construction
  6
ByLayer
 62
  256
370
   -1
100
AcDbLine
 10
329.191877806096
 20
33.48949445710915
 11
332.1234326466264
 21
19.69761328676248
  0
LINE
  5
99
100
AcDbEntity
  8
Construction
  6
ByLayer
 62
  256
370
   -1
100
AcDbLine
 10
188.296590228731
 20
-44.67696408540682
 11
181.8953241824034
 21
-32.11377209435084
  0
LINE
  5
9A
100
AcDbEntity
  8
Construction
  6
ByLayer
 62
  256
370
   -1
100
AcDbLine
 10
179.4437754838098
 20
-27.30233686373364
 11
173.0425094374822
 21
-14.73914487267765
  0
LINE
  5
9B
100
AcDbEntity
  8
Construction
  6
ByLayer
 62
  256
370
   -1
100
AcDbLine
 10
212.3113059115225
 20
17.74459326347153
 11
209.379751070992
 21
31.53647443381818
  0
LINE
  5
9C
100
AcDbEntity
  8
Construction
  6
ByLayer
 62
  256
370
   -1
100
AcDbLine
 10
208.2570279405761
 20
36.81847147778073
 11
205.3254731000457
 21
50.61035264812739
  0
LINE
  5
9D
100
AcDbEntity
  8
Construction
  6
ByLayer
 62
  256
370
   -1
100
AcDbLine
 10
257.4675341851789
 20
-18.66248088561976
 11
243.6756530148322
 21
-21.59403572615015
  0
LINE
  5
9E
100
AcDbEntity
  8
Construction
  6
ByLayer
 62
  256
370
   -1
100
AcDbLine
 10
238.3936559708697
 20
-22.71675885656606
 11
224.601774800523
 21
-25.64831369709646
  0
LINE
  5
9F
100
AcDbEntity
  8
Construction
  6
ByLayer
 62
  256
370
   -1
100
AcDbLine
 10
275.8137214816259
 20
-11.18468631210511
 11
262.0218403112793
 21
-14.11624115263551
  0
LINE
  5
A0
100
AcDbEntity
  8
Construction
  6
ByLayer
 62
  256
370
   -1
100
AcDbLine
 10
334.4907379602779
 20
-5.868885604402832
 11
320.6988567899313
 21
-8.800440444933246
  0
LINE
  5
A1
100
AcDbEntity
  8
Construction
  6
ByLayer
 62
  256
370
   -1
100
AcDbLine
 10
303.1095277467488
 20
73.95084657714672
 11
316.9014089170954
 21
76.88240141767712
  0
LINE
  5
A2
100
AcDbEntity
  8
Construction
  6
ByLayer
 62
  256
370
   -1
100
AcDbLine
 10
207.0124457573406
 20
57.1029733249835
 11
220.8043269276872
 21
60.0345281655139
  0
LINE
  5
A3
100
AcDbEntity
  8
Construction
  6
ByLayer
 62
  256
370
   -1
100
AcDbLine
 10
206.2567447907894
 20
-42.25976568499079
 11
193.6935527997334
 21
-48.6610317313184
  0
LINE
  5
A4
100
AcDbEntity
  8
Construction
  6
ByLayer
 62
  256
370
   -1
100
AcDbLine
 10
188.003227374147
 20
-0.3823209154329916
 11
206.5754767690379
 21
9.080712805621454
  0
LINE
  5
A5
100
AcDbEntity
  8
Construction
  6
ByLayer
 62
  256
370
   -1
100
AcDbLine
 10
295.6152906137973
 20
-10.55392494372714
 11
284.0913520204021
 21
-13.00341370803569
  0
LINE
  5
A6
100
AcDbEntity
  8
Construction
  6
ByLayer
 62
  256
370
   -1
100
AcDbLine
 10
217.4854190512136
 20
-21.02689823760018
 11
214.5538642106832
 21
-7.235017067253518
  0
LINE
  5
A7
100
AcDbEntity
  8
Construction
  6
ByLayer
 62
  256
370
   -1
100
AcDbLine
 10
219.8522021128279
 20
-12.77377680544614
 11
224.4375061601973
 21
-21.77294269974866
  0
LINE
  5
A8
100
AcDbEntity
  8
Construction
  6
ByLayer
 62
  256
370
   -1
100
AcDbLine
 10
208.0727067897475
 20
-45.82379178174426
 11
201.7465604680101
 21
-49.04712432989504
  0
LINE
  5
A9
100
AcDbEntity
  8
Construction
  6
ByLayer
 62
  256
370
   -1
100
AcDbLine
 10
177.4126696819704
 20
-1.289174633398508
 11
183.7388160037078
 21
1.934157914752272
  0
LINE
  5
AA
100
AcDbEntity
  8
Construction
  6
ByLayer
 62
  256
370
   -1
100
AcDbLine
 10
302.2778809834778
 20
77.86343698008194
 11
309.2227289486878
 21
79.33960998488803
  0
LINE
  5
AB
100
AcDbEntity
  8
Construction
  6
ByLayer
 62
  256
370
   -1
100
AcDbLine
 10
333.2461557770424
 20
14.41561624279993
 11
336.1777106175728
 21
0.6237350724532718
  0
LINE
  5
AC
100
AcDbEntity
  8
Construction
  6
ByLayer
 62
  256
370
   -1
100
AcDbLine
 10
328.4753515184123
 20
-11.23685784306237
 11
321.5305035532023
 21
-12.71303084786847
  0
LINE
  5
AD
100
AcDbEntity
  8
Construction
  6
ByLayer
 62
  256
370
   -1
100
AcDbLine
 10
207.0124457573406
 20
57.1029733249835
 11
220.8043269276872
 21
60.0345281655139
  0
LINE
  5
AE
100
AcDbEntity
  8
Construction
  6
ByLayer
 62
  256
370
   -1
100
AcDbLine
 10
213.0278321992062
 20
62.47094556364303
 11
219.9726801644162
 21
63.94711856844913
  0
CIRCLE
  5
AF
100
AcDbEntity
  8
Construction
  6
ByLayer
 62
  256
370
   -1
100
AcDbCircle
 10
318.148879062002
 20
71.01351581327428
 40
3
  0
CIRCLE
  5
B0
100
AcDbEntity
  8
Construction
  6
ByLayer
 62
  256
370
   -1
100
AcDbCircle
 10
279.2734317155214
 20
66.32847647394999
 40
3
  0
CIRCLE
  5
B1
100
AcDbEntity
  8
Construction
  6
ByLayer
 62
  256
370
   -1
100
AcDbCircle
 10
259.4718625833501
 20
65.697715105572
 40
3
  0
CIRCLE
  5
B2
100
AcDbEntity
  8
Construction
  6
ByLayer
 62
  256
370
   -1
100
AcDbCircle
 10
245.6799814130034
 20
62.7661602650416
 40
3
  0
CIRCLE
  5
B3
100
AcDbEntity
  8
Construction
  6
ByLayer
 62
  256
370
   -1
100
AcDbCircle
 10
208.2599159022471
 20
51.23408772058067
 40
3
  0
CIRCLE
  5
B4
100
AcDbEntity
  8
Construction
  6
ByLayer
 62
  256
370
   -1
100
AcDbCircle
 10
333.2432678153713
 20
-6.39254219778523e-016
 40
3
  0
CIRCLE
  5
B5
100
AcDbEntity
  8
Construction
  6
ByLayer
 62
  256
370
   -1
100
AcDbCircle
 10
300.3775084307155
 20
-6.985832811476717
 40
3
  0
CIRCLE
  5
B6
100
AcDbEntity
  8
Construction
  6
ByLayer
 62
  256
370
   -1
100
AcDbCircle
 10
280.5759392985441
 20
-7.616594179854704
 40
3
  0
CIRCLE
  5
B7
100
AcDbEntity
  8
Construction
  6
ByLayer
 62
  256
370
   -1
100
AcDbCircle
 10
256.2200640402723
 20
-12.79359528121693
 40
3
  0
CIRCLE
  5
B8
100
AcDbEntity
  8
Construction
  6
ByLayer
 62
  256
370
   -1
100
AcDbCircle
 10
267.670310751546
 20
-6.781578127967479
 40
3
  0
CIRCLE
  5
B9
100
AcDbEntity
  8
Construction
  6
ByLayer
 62
  256
370
   -1
100
AcDbCircle
 10
220.9074290140253
 20
-28.06091179493941
 40
3
  0
CIRCLE
  5
BA
100
AcDbEntity
  8
Construction
  6
ByLayer
 62
  256
370
   -1
100
AcDbCircle
 10
190.9696098012961
 20
-43.31499258618818
 40
3
  0
LWPOLYLINE
  5
BB
100
AcDbEntity
  8
Part Placement Guide
  6
ByLayer
 62
  256
370
   -1
100
AcDbPolyline
 90
    4
 70
    1
 43
0
 10
161.9716339076856
 20
48
 10
171.2716339076856
 20
48
 10
171.2716339076856
 20
57
 10
161.9716339076856
 20
57
  0
CIRCLE
  5
BC
100
AcDbEntity
  8
Part Placement Guide
  6
ByLayer
 62
  256
370
   -1
100
AcDbCircle
 10
166.6216339076856
 20
52.49999999999999
 40
1
  0
CIRCLE
  5
BD
100
AcDbEntity
  8
Part Placement Guide
  6
ByLayer
 62
  256
370
   -1
100
AcDbCircle
 10
166.6216339076861
 20
45.80392455567254
 40
1
  0
MTEXT
  5
BE
100
AcDbEntity
  8
Part Placement Guide
  6
ByLayer
 62
  256
370
   -1
100
AcDbMText
 10
164
 20
50
 30
0
 40
1.5
 41
6.961402387441767
 71
    1
 72
    1
  1
USB-C
  7
cursive
210
0
220
0
230
1
 50
0
 73
    2
 44
1
  0
LWPOLYLINE
  5
BF
100
AcDbEntity
  8
Part Placement Guide
  6
ByLayer
 62
  256
370
   -1
100
AcDbPolyline
 90
    4
 70
    1
 43
0
 10
136.6216339076861
 20
37.80392455567254
 10
196.6216339076861
 20
37.80392455567254
 10
196.6216339076861
 20
53.80392455567254
 10
136.6216339076861
 20
53.80392455567254
  0
LWPOLYLINE
  5
C0
100
AcDbEntity
  8
Part Placement Guide
  6
ByLayer
 62
  256
370
   -1
100
AcDbPolyline
 90
    4
 70
    1
 43
0
 10
131.6216339076861
 20
42.30392455567254
 10
136.6216339076861
 20
42.30392455567254
 10
136.6216339076861
 20
49.30392455567254
 10
131.6216339076861
 20
49.30392455567254
  0
LWPOLYLINE
  5
C1
100
AcDbEntity
  8
Part Placement Guide
  6
ByLayer
 62
  256
370
   -1
100
AcDbPolyline
 90
    4
 70
    1
 43
0
 10
201.6216339076853
 20
42.30392455567254
 10
196.6216339076853
 20
42.30392455567254
 10
196.6216339076853
 20
49.30392455567254
 10
201.6216339076853
 20
49.30392455567254
  0
MTEXT
  5
C2
100
AcDbEntity
  8
Part Placement Guide
  6
ByLayer
 62
  256
370
   -1
100
AcDbMText
 10
175
 20
52
 30
0
 40
1.5
 41
17.82420634050532
 71
    1
 72
    1
  1
Battery Holder
  7
cursive
210
0
220
0
230
1
 50
0
 73
    2
 44
1
  0
LWPOLYLINE
  5
C3
100
AcDbEntity
  8
Part Placement Guide
  6
ByLayer
 62
  256
370
   -1
100
AcDbPolyline
 90
    4
 70
    1
 43
0
 10
127.2432678153713
 20
13.50000000000001
 10
127.2432678153713
 20
36.5
 10
153.2432678153713
 20
36.50000000000001
 10
153.2432678153713
 20
13.50000000000001
  0
CIRCLE
  5
C4
100
AcDbEntity
  8
Part Placement Guide
  6
ByLayer
 62
  256
370
   -1
100
AcDbCircle
 10
140.2432678153713
 20
25
 40
1
  0
MTEXT
  5
C5
100
AcDbEntity
  8
Part Placement Guide
  6
ByLayer
 62
  256
370
   -1
100
AcDbMText
 10
150.2432678153713
 20
15.99999999999999
 30
0
 40
1.5
 41
15.23303993099339
 71
    3
 72
    1
  1
Adafruit BLE
  7
cursive
210
0
220
0
230
1
 50
360
 73
    2
 44
1
  0
LINE
  5
C6
100
AcDbEntity
  8
Part Placement Guide
  6
ByLayer
 62
  256
370
   -1
100
AcDbLine
 10
184.9830539305976
 20
-5.849317978528859
 11
182.7131014318999
 21
-1.394285357587005
  0
CIRCLE
  5
C7
100
AcDbEntity
  8
Part Placement Guide
  6
ByLayer
 62
  256
370
   -1
100
AcDbCircle
 10
213.9083863425139
 20
58.56875074524871
 40
1
  0
MTEXT
  5
C8
100
AcDbEntity
  8
Part Placement Guide
  6
ByLayer
 62
  256
370
   -1
100
AcDbMText
 10
216
 20
59
 30
0
 40
1.25
 41
15.98642057993017
 71
    1
 72
    1
  1
2mm radius hole
  7
cursive
210
0
220
0
230
1
 50
0
 73
    2
 44
1
  0
CIRCLE
  5
C9
100
AcDbEntity
  8
Part Placement Guide
  6
ByLayer
 62
  256
370
   -1
100
AcDbCircle
 10
179.273182007138
 20
-4.830501205165007
 40
1
  0
MTEXT
  5
CA
100
AcDbEntity
  8
Part Placement Guide
  6
ByLayer
 62
  256
370
   -1
100
AcDbMText
 10
181.3647956646241
 20
-4.399251950413714
 30
0
 40
1.25
 41
15.98642057993017
 71
    1
 72
    1
  1
2mm radius hole
  7
cursive
210
0
220
0
230
1
 50
0
 73
    2
 44
1
  0
MTEXT
  5
CB
100
AcDbEntity
  8
Part Placement Guide
  6
ByLayer
 62
  256
370
   -1
100
AcDbMText
 10
179.273182007138
 20
-6.455501205165003
 30
0
 40
1.25
 41
15.98642057993017
 71
    1
 72
    1
  1
2mm radius hole
  7
cursive
210
0
220
0
230
1
 50
0
 73
    2
 44
1
  0
LINE
  5
CC
100
AcDbEntity
  8
PCB_Main
  6
ByLayer
 62
  256
370
   -1
100
AcDbLine
 10
145.6216339076857
 20
56.96831205289712
 11
203.4830979190403
 21
56.96831205289712
  0
ARC
  5
CD
100
AcDbEntity
  8
PCB_Main
  6
ByLayer
 62
  256
370
   -1
100
AcDbCircle
 10
203.4830979190403
 20
54.46831205289712
 40
2.5
100
AcDbArc
 50
12.00000000000011
 51
90
  0
LINE
  5
CE
100
AcDbEntity
  8
PCB_Main
  6
ByLayer
 62
  256
370
   -1
100
AcDbLine
 10
138.1216339076857
 20
56.96831205289712
 11
129.7601698963311
 21
56.96831205289712
  0
ARC
  5
CF
100
AcDbEntity
  8
PCB_Main
  6
ByLayer
 62
  256
370
   -1
100
AcDbCircle
 10
129.7601698963311
 20
54.46831205289712
 40
2.5
100
AcDbArc
 50
90
 51
168.0000000000001
  0
LINE
  5
D0
100
AcDbEntity
  8
PCB_Main
  6
ByLayer
 62
  256
370
   -1
100
AcDbLine
 10
117.8774343085657
 20
10.58877228558512
 11
127.3148008944966
 21
54.98809127994151
  0
ARC
  5
D1
100
AcDbEntity
  8
PCB_Main
  6
ByLayer
 62
  256
370
   -1
100
AcDbCircle
 10
120.3228033104002
 20
10.06899305854073
 40
2.5
100
AcDbArc
 50
168
 51
243.0000000000001
  0
LINE
  5
D2
100
AcDbEntity
  8
PCB_Main
  6
ByLayer
 62
  256
370
   -1
100
AcDbLine
 10
159.0104549895674
 20
-12.44916564725673
 11
119.1878270610513
 21
7.841476748069804
  0
ARC
  5
D3
100
AcDbEntity
  8
PCB_Main
  6
ByLayer
 62
  256
370
   -1
100
AcDbCircle
 10
160.1454312389162
 20
-10.22164933678581
 40
2.5
100
AcDbArc
 50
242.9999999999997
 51
270
  0
LINE
  5
D4
100
AcDbEntity
  8
PCB_Main
  6
ByLayer
 62
  256
370
   -1
100
AcDbLine
 10
160.1454312389162
 20
-12.72164933678581
 11
173.0978365764551
 21
-12.7216493367858
  0
ARC
  5
D5
100
AcDbEntity
  8
PCB_Main
  6
ByLayer
 62
  256
370
   -1
100
AcDbCircle
 10
173.0978365764551
 20
-10.2216493367858
 40
2.5
100
AcDbArc
 50
270
 51
297.0000000000002
  0
LINE
  5
D6
100
AcDbEntity
  8
PCB_Main
  6
ByLayer
 62
  256
370
   -1
100
AcDbLine
 10
174.232812825804
 20
-12.44916564725672
 11
214.05544075432
 21
7.841476748069805
  0
LINE
  5
D7
100
AcDbEntity
  8
PCB_Main
  6
ByLayer
 62
  256
370
   -1
100
AcDbLine
 10
215.3658335068057
 20
10.58877228558512
 11
205.9284669208748
 21
54.98809127994151
  0
ARC
  5
D8
100
AcDbEntity
  8
PCB_Main
  6
ByLayer
 62
  256
370
   -1
100
AcDbCircle
 10
212.9204645049712
 20
10.06899305854072
 40
2.5
100
AcDbArc
 50
297.0000000000003
 51
11.99999999999999
  0
ARC
  5
D9
100
AcDbEntity
  8
PCB_Hand
  6
ByLayer
 62
  256
370
   -1
100
AcDbCircle
 10
255.6008499099846
 20
-13.43638360512089
 40
2.5
100
AcDbArc
 50
282.0000000000002
 51
314.9492299081085
  0
LINE
  5
DA
100
AcDbEntity
  8
PCB_Hand
  6
ByLayer
 62
  256
370
   -1
100
AcDbLine
 10
257.3670497415417
 20
-15.20571629147683
 11
260.8748575976724
 21
-11.70411950732835
  0
ARC
  5
DB
100
AcDbEntity
  8
PCB_Hand
  6
ByLayer
 62
  256
370
   -1
100
AcDbCircle
 10
262.6410574292295
 20
-13.47345219368429
 40
2.5
100
AcDbArc
 50
102.0000000000002
 51
134.9492299081085
  0
LINE
  5
DC
100
AcDbEntity
  8
PCB_Hand
  6
ByLayer
 62
  256
370
   -1
100
AcDbLine
 10
262.1212782021851
 20
-11.02808319184978
 11
274.4668141693629
 21
-8.403958514692849
  0
ARC
  5
DD
100
AcDbEntity
  8
PCB_Hand
  6
ByLayer
 62
  256
370
   -1
100
AcDbCircle
 10
274.9865933964073
 20
-10.84932751652737
 40
2.5
100
AcDbArc
 50
69.05080127104311
 51
102.0000000000002
  0
LINE
  5
DE
100
AcDbEntity
  8
PCB_Hand
  6
ByLayer
 62
  256
370
   -1
100
AcDbLine
 10
275.8804435219643
 20
-8.51458300094502
 11
280.5092205682619
 21
-10.28669678744058
  0
ARC
  5
DF
100
AcDbEntity
  8
PCB_Hand
  6
ByLayer
 62
  256
370
   -1
100
AcDbCircle
 10
281.4030706938189
 20
-7.951952271858251
 40
2.5
100
AcDbArc
 50
249.0508012710429
 51
282.0000000000002
  0
LINE
  5
E0
100
AcDbEntity
  8
PCB_Hand
  6
ByLayer
 62
  256
370
   -1
100
AcDbLine
 10
281.9228499208633
 20
-10.39732127369278
 11
294.2683833522933
 21
-7.773197135525709
  0
ARC
  5
E1
100
AcDbEntity
  8
PCB_Hand
  6
ByLayer
 62
  256
370
   -1
100
AcDbCircle
 10
294.7881625793377
 20
-10.21856613736023
 40
2.5
100
AcDbArc
 50
69.05080345834746
 51
102.0000000000002
  0
LINE
  5
E2
100
AcDbEntity
  8
PCB_Hand
  6
ByLayer
 62
  256
370
   -1
100
AcDbLine
 10
295.6820126157643
 20
-7.883821587654573
 11
300.3107901806076
 21
-9.655935370066985
  0
ARC
  5
E3
100
AcDbEntity
  8
PCB_Hand
  6
ByLayer
 62
  256
370
   -1
100
AcDbCircle
 10
301.2046402170342
 20
-7.321190820361324
 40
2.5
100
AcDbArc
 50
249.0508034583475
 51
282.0000000000002
  0
LINE
  5
E4
100
AcDbEntity
  8
PCB_Hand
  6
ByLayer
 62
  256
370
   -1
100
AcDbLine
 10
301.7244194440786
 20
-9.766559822195847
 11
334.3560766881916
 21
-2.830486956792529
  0
ARC
  5
E5
100
AcDbEntity
  8
PCB_Hand
  6
ByLayer
 62
  256
370
   -1
100
AcDbCircle
 10
333.8362974611472
 20
-0.3851179549580092
 40
2.5
100
AcDbArc
 50
282.0000000000002
 51
12.00000000000007
  0
LINE
  5
E6
100
AcDbEntity
  8
PCB_Hand
  6
ByLayer
 62
  256
370
   -1
100
AcDbLine
 10
336.2816664629817
 20
0.1346612720863969
 11
320.9793660187946
 21
72.12632468609445
  0
ARC
  5
E7
100
AcDbEntity
  8
PCB_Hand
  6
ByLayer
 62
  256
370
   -1
100
AcDbCircle
 10
318.53399701696
 20
71.60654545905004
 40
2.5
100
AcDbArc
 50
11.99999999999988
 51
102.0000000000002
  0
LINE
  5
E8
100
AcDbEntity
  8
PCB_Hand
  6
ByLayer
 62
  256
370
   -1
100
AcDbLine
 10
318.0142177899156
 20
74.05191446088457
 11
285.3825568404164
 21
67.11584080787709
  0
ARC
  5
E9
100
AcDbEntity
  8
PCB_Hand
  6
ByLayer
 62
  256
370
   -1
100
AcDbCircle
 10
284.862777613372
 20
69.56120980971161
 40
2.5
100
AcDbArc
 50
249.0508014557406
 51
282.0000000000002
  0
LINE
  5
EA
100
AcDbEntity
  8
PCB_Hand
  6
ByLayer
 62
  256
370
   -1
100
AcDbLine
 10
283.9689274953413
 20
67.22646529124788
 11
279.3401504052573
 21
68.99857907739865
  0
ARC
  5
EB
100
AcDbEntity
  8
PCB_Hand
  6
ByLayer
 62
  256
370
   -1
100
AcDbCircle
 10
278.4463002872266
 20
66.66383455893492
 40
2.5
100
AcDbArc
 50
69.05080145574051
 51
102.0000000000002
  0
LINE
  5
EC
100
AcDbEntity
  8
PCB_Hand
  6
ByLayer
 62
  256
370
   -1
100
AcDbLine
 10
277.9265210601822
 20
69.10920356076944
 11
265.5809877350379
 21
66.48507944519412
  0
ARC
  5
ED
100
AcDbEntity
  8
PCB_Hand
  6
ByLayer
 62
  256
370
   -1
100
AcDbCircle
 10
265.0612085079935
 20
68.93044844702864
 40
2.5
100
AcDbArc
 50
249.0508003011834
 51
282.0000000000002
  0
LINE
  5
EE
100
AcDbEntity
  8
PCB_Hand
  6
ByLayer
 62
  256
370
   -1
100
AcDbLine
 10
264.1673583429157
 20
66.59570394657673
 11
259.5385815265435
 21
68.36781773488273
  0
ARC
  5
EF
100
AcDbEntity
  8
PCB_Hand
  6
ByLayer
 62
  256
370
   -1
100
AcDbCircle
 10
258.6447313614657
 20
66.03307323443084
 40
2.5
100
AcDbArc
 50
69.05080030118326
 51
102.0000000000002
  0
LINE
  5
F0
100
AcDbEntity
  8
PCB_Hand
  6
ByLayer
 62
  256
370
   -1
100
AcDbLine
 10
258.1249521344213
 20
68.47844223626537
 11
206.4194161115648
 21
57.48809127994151
  0
ARC
  5
F1
100
AcDbEntity
  8
PCB_Hand
  6
ByLayer
 62
  256
370
   -1
100
AcDbCircle
 10
206.9391953386092
 20
55.042722278107
 40
2.5
100
AcDbArc
 50
102.0000000000003
 51
192.0000000000001
  0
LINE
  5
F2
100
AcDbEntity
  8
PCB_Hand
  6
ByLayer
 62
  256
370
   -1
100
AcDbLine
 10
204.4938263367747
 20
54.5229430510626
 11
211.5493716561072
 21
21.32921210294155
  0
ARC
  5
F3
100
AcDbEntity
  8
PCB_Hand
  6
ByLayer
 62
  256
370
   -1
100
AcDbCircle
 10
209.1040026542726
 20
20.80943287589714
 40
2.5
100
AcDbArc
 50
334.5000000000001
 51
12.00000000000013
  0
LINE
  5
F4
100
AcDbEntity
  8
PCB_Hand
  6
ByLayer
 62
  256
370
   -1
100
AcDbLine
 10
211.3604658651473
 20
19.7331551338764
 11
208.3178159779312
 21
13.35410698856705
  0
ARC
  5
F5
100
AcDbEntity
  8
PCB_Hand
  6
ByLayer
 62
  256
370
   -1
100
AcDbCircle
 10
206.0613527670565
 20
14.43038473058779
 40
2.5
100
AcDbArc
 50
297.0000000000002
 51
334.4999999999998
  0
ARC
  5
F6
100
AcDbEntity
  8
PCB_Hand
  6
ByLayer
 62
  256
370
   -1
100
AcDbCircle
 10
231.5084789668651
 20
-23.22057017142303
 40
2.5
100
AcDbArc
 50
296.9999999999997
 51
327.0000000000001
  0
LINE
  5
F7
100
AcDbEntity
  8
PCB_Hand
  6
ByLayer
 62
  256
370
   -1
100
AcDbLine
 10
235.9904427044839
 20
-20.90914738971789
 11
233.6051553867286
 21
-24.58216775896059
  0
LINE
  5
F8
100
AcDbEntity
  8
PCB_Hand
  6
ByLayer
 62
  256
370
   -1
100
AcDbLine
 10
237.5673398973031
 20
-19.82537597542095
 11
256.120629137029
 21
-15.88175260695541
  0
ARC
  5
F9
100
AcDbEntity
  8
PCB_Hand
  6
ByLayer
 62
  256
370
   -1
100
AcDbCircle
 10
238.0871191243475
 20
-22.27074497725546
 40
2.5
100
AcDbArc
 50
102.0000000000003
 51
147.0000000000002
  0
LINE
  5
FA
100
AcDbEntity
  8
Part Placement Guide
  6
ByLayer
 62
  256
370
   -1
100
AcDbLine
 10
210.1884724627986
 20
12.60511541695781
 11
212.4584249614963
 21
8.150082796015957
  0
LINE
  5
FB
100
AcDbEntity
  8
Part Placement Guide
  6
ByLayer
 62
  256
370
   -1
100
AcDbLine
 10
211.3234487121474
 20
10.37759910648689
 11
183.8480776812488
 21
-3.621801668057953
  0
LINE
  5
FC
100
AcDbEntity
  8
Part Placement Guide
  6
ByLayer
 62
  256
370
   -1
100
AcDbLine
 10
182.7131014318999
 20
-1.394285357587017
 11
210.1884724627986
 21
12.60511541695781
  0
LINE
  5
FD
100
AcDbEntity
  8
Part Placement Guide
  6
ByLayer
 62
  256
370
   -1
100
AcDbLine
 10
184.9830539305976
 20
-5.849317978528876
 11
212.4584249614963
 21
8.150082796015965
  0
MTEXT
  5
FE
100
AcDbEntity
  8
Part Placement Guide
  6
ByLayer
 62
  256
370
   -1
100
AcDbMText
 10
184
 20
0
 30
0
 40
1.25
 41
21.59467997327715
 71
    1
 72
    1
  1
PCB Interface Header
  7
cursive
210
0
220
0
230
1
 50
27
 73
    2
 44
1
  0
LINE
  5
FF
100
AcDbEntity
  8
Part Placement Guide
  6
ByLayer
 62
  256
370
   -1
100
AcDbLine
 10
183.8480776812488
 20
-3.621801668057932
 11
186.1112342526872
 21
-2.468665798719483
  0
CIRCLE
  5
100
100
AcDbEntity
  8
Part Placement Guide
  6
ByLayer
 62
  256
370
   -1
100
AcDbCircle
 10
186.1112342526872
 20
-2.468665798719483
 40
0.75
  0
CIRCLE
  5
101
100
AcDbEntity
  8
Part Placement Guide
  6
ByLayer
 62
  256
370
   -1
100
AcDbCircle
 10
188.3743908241257
 20
-1.315529929381034
 40
0.75
  0
CIRCLE
  5
102
100
AcDbEntity
  8
Part Placement Guide
  6
ByLayer
 62
  256
370
   -1
100
AcDbCircle
 10
190.6375473955641
 20
-0.1623940600425851
 40
0.75
  0
CIRCLE
  5
103
100
AcDbEntity
  8
Part Placement Guide
  6
ByLayer
 62
  256
370
   -1
100
AcDbCircle
 10
192.9007039670026
 20
0.990741809295864
 40
0.75
  0
CIRCLE
  5
104
100
AcDbEntity
  8
Part Placement Guide
  6
ByLayer
 62
  256
370
   -1
100
AcDbCircle
 10
195.163860538441
 20
2.143877678634313
 40
0.75
  0
CIRCLE
  5
105
100
AcDbEntity
  8
Part Placement Guide
  6
ByLayer
 62
  256
370
   -1
100
AcDbCircle
 10
197.4270171098795
 20
3.297013547972762
 40
0.75
  0
CIRCLE
  5
106
100
AcDbEntity
  8
Part Placement Guide
  6
ByLayer
 62
  256
370
   -1
100
AcDbCircle
 10
199.690173681318
 20
4.450149417311211
 40
0.75
  0
CIRCLE
  5
107
100
AcDbEntity
  8
Part Placement Guide
  6
ByLayer
 62
  256
370
   -1
100
AcDbCircle
 10
201.9533302527564
 20
5.60328528664966
 40
0.75
  0
CIRCLE
  5
108
100
AcDbEntity
  8
Part Placement Guide
  6
ByLayer
 62
  256
370
   -1
100
AcDbCircle
 10
204.2164868241949
 20
6.756421155988109
 40
0.75
  0
CIRCLE
  5
109
100
AcDbEntity
  8
Part Placement Guide
  6
ByLayer
 62
  256
370
   -1
100
AcDbCircle
 10
206.4796433956333
 20
7.909557025326558
 40
0.75
  0
CIRCLE
  5
10A
100
AcDbEntity
  8
Part Placement Guide
  6
ByLayer
 62
  256
370
   -1
100
AcDbCircle
 10
208.7427999670718
 20
9.062692894665007
 40
0.75
  0
CIRCLE
  5
10B
100
AcDbEntity
  8
Part Placement Guide
  6
ByLayer
 62
  256
370
   -1
100
AcDbCircle
 10
211.0059565385102
 20
10.21582876400346
 40
0.75
  0
LINE
  5
10C
100
AcDbEntity
  8
PCB_Hand
  6
ByLayer
 62
  256
370
   -1
100
AcDbLine
 10
171.411106500167
 20
-6.030613167727682
 11
207.1963290164054
 21
12.20286842011686
  0
ARC
  5
10D
100
AcDbEntity
  8
PCB_Hand
  6
ByLayer
 62
  256
370
   -1
100
AcDbCircle
 10
172.5460827495158
 20
-8.25812947819859
 40
2.5
100
AcDbArc
 50
116.9999999999998
 51
207.0000000000001
  0
LINE
  5
10E
100
AcDbEntity
  8
PCB_Hand
  6
ByLayer
 62
  256
370
   -1
100
AcDbLine
 10
170.3185664390449
 20
-9.393105727547459
 11
188.5235854786008
 21
-45.12246734750101
  0
LINE
  5
10F
100
AcDbEntity
  8
PCB_Hand
  6
ByLayer
 62
  256
370
   -1
100
AcDbLine
 10
191.8860780384205
 20
-46.21500740862304
 11
232.6434552162139
 21
-25.44808648189395
  0
ARC
  5
110
100
AcDbEntity
  8
PCB_Hand
  6
ByLayer
 62
  256
370
   -1
100
AcDbCircle
 10
190.7511017890717
 20
-43.98749109815213
 40
2.5
100
AcDbArc
 50
207.0000000000003
 51
296.9999999999998
  0
LINE
  5
111
100
AcDbEntity
  8
PCB_Main
  6
ByLayer
 62
  256
370
   -1
100
AcDbLine
 10
138.1216339076857
 20
56.96831205289712
 11
145.6216339076857
 21
56.96831205289712
  0
CIRCLE
  5
112
100
AcDbEntity
  8
Part Placement Guide
  6
ByLayer
 62
  256
370
   -1
100
AcDbCircle
 10
130.5516339076861
 20
54.44832455567254
 40
1
  0
CIRCLE
  5
113
100
AcDbEntity
  8
Part Placement Guide
  6
ByLayer
 62
  256
370
   -1
100
AcDbCircle
 10
133.0916339076861
 20
54.44832455567254
 40
1
  0
CIRCLE
  5
114
100
AcDbEntity
  8
Part Placement Guide
  6
ByLayer
 62
  256
370
   -1
100
AcDbCircle
 10
135.6316339076861
 20
54.44832455567254
 40
1
  0
LINE
  5
115
100
AcDbEntity
  8
I2C_Module
  6
ByLayer
 62
  256
370
   -1
100
AcDbLine
 10
128.6416339076861
 20
52.53832455567254
 11
137.5316339076861
 21
52.53832455567254
  0
ARC
  5
116
100
AcDbEntity
  8
I2C_Module
  6
ByLayer
 62
  256
370
   -1
100
AcDbCircle
 10
140.1816339076861
 20
55.07832455567254
 40
2.539999999999992
100
AcDbArc
 50
90
 51
180
  0
LINE
  5
117
100
AcDbEntity
  8
I2C_Module
  6
ByLayer
 62
  256
370
   -1
100
AcDbLine
 10
131.1816339076861
 20
83.01832455567251
 11
157.8516339076861
 21
83.01832455567251
  0
ARC
  5
118
100
AcDbEntity
  8
I2C_Module
  6
ByLayer
 62
  256
370
   -1
100
AcDbCircle
 10
157.8516339076861
 20
80.47832455567251
 40
2.539999999999992
100
AcDbArc
 50
0
 51
90
  0
ARC
  5
119
100
AcDbEntity
  8
I2C_Module
  6
ByLayer
 62
  256
370
   -1
100
AcDbCircle
 10
131.1816339076861
 20
80.47832455567251
 40
2.539999999999992
100
AcDbArc
 50
90
 51
180
  0
LINE
  5
11A
100
AcDbEntity
  8
I2C_Module
  6
ByLayer
 62
  256
370
   -1
100
AcDbLine
 10
128.6416339076861
 20
60.15832455567252
 11
128.6416339076861
 21
80.47832455567251
  0
LINE
  5
11B
100
AcDbEntity
  8
I2C_Module
  6
ByLayer
 62
  256
370
   -1
100
AcDbLine
 10
160.3916339076861
 20
60.15832455567252
 11
160.3916339076861
 21
80.47832455567251
  0
LINE
  5
11C
100
AcDbEntity
  8
I2C_Module
  6
ByLayer
 62
  256
370
   -1
100
AcDbLine
 10
157.9616339076861
 20
57.61832455567253
 11
146.5316339076861
 21
57.61832455567253
  0
ARC
  5
11D
100
AcDbEntity
  8
I2C_Module
  6
ByLayer
 62
  256
370
   -1
100
AcDbCircle
 10
157.8516339076861
 20
60.15832455567252
 40
2.539999999999992
100
AcDbArc
 50
270
 51
360
  0
LINE
  5
11E
100
AcDbEntity
  8
I2C_Module
  6
ByLayer
 62
  256
370
   -1
100
AcDbLine
 10
128.6416339076861
 20
55.07832455567254
 11
128.6416339076861
 21
60.15832455567252
  0
LINE
  5
11F
100
AcDbEntity
  8
I2C_Module
  6
ByLayer
 62
  256
370
   -1
100
AcDbLine
 10
140.1816339076861
 20
57.61832455567253
 11
146.5316339076861
 21
57.61832455567253
  0
LINE
  5
120
100
AcDbEntity
  8
I2C_Module
  6
ByLayer
 62
  256
370
   -1
100
AcDbLine
 10
128.6416339076861
 20
55.07832455567254
 11
128.6416339076861
 21
52.53832455567254
  0
LINE
  5
121
100
AcDbEntity
  8
I2C_Module
  6
ByLayer
 62
  256
370
   -1
100
AcDbLine
 10
137.6416339076861
 20
55.07832455567254
 11
137.5316339076861
 21
52.53832455567254
  0
LWPOLYLINE
  5
122
100
AcDbEntity
  8
0
  6
ByLayer
 62
  256
370
   -1
100
AcDbPolyline
 90
    4
 70
    1
 43
0
 10
336.0564869033631
 20
-7.800550705470906
 10
322.2646057330164
 20
-10.73210554600132
 10
319.333050892486
 20
3.059775624345344
 10
333.1249320628326
 20
5.991330464875745
  0
LWPOLYLINE
  5
123
100
AcDbEntity
  8
0
  6
ByLayer
 62
  256
370
   -1
100
AcDbPolyline
 90
    4
 70
    1
 43
0
 10
316.9826086890538
 20
-11.8548286764172
 10
303.1907275187073
 20
-14.78638351694762
 10
300.2591726781768
 20
-0.9945023466009637
 10
314.0510538485235
 20
1.93705249392945
  0
LWPOLYLINE
  5
124
100
AcDbEntity
  8
0
  6
ByLayer
 62
  256
370
   -1
100
AcDbPolyline
 90
    4
 70
    1
 43
0
 10
332.0022089324167
 20
11.27332750883829
 10
318.2103277620702
 20
8.341772668307895
 10
315.2787729215397
 20
22.13365383865455
 10
329.0706540918864
 20
25.06520867918496
  0
LWPOLYLINE
  5
125
100
AcDbEntity
  8
0
  6
ByLayer
 62
  256
370
   -1
100
AcDbPolyline
 90
    4
 70
    1
 43
0
 10
312.9283307181075
 20
7.219049537891994
 10
299.1364495477608
 20
4.287494697361595
 10
296.2048947072306
 20
18.07937586770825
 10
309.9967758775771
 20
21.01093070823865
  0
LWPOLYLINE
  5
126
100
AcDbEntity
  8
0
  6
ByLayer
 62
  256
370
   -1
100
AcDbPolyline
 90
    4
 70
    1
 43
0
 10
327.9479309614704
 20
30.34720572314752
 10
314.1560497911238
 20
27.41565088261711
 10
311.2244949505935
 20
41.20753205296376
 10
325.01637612094
 20
44.13908689349417
  0
LWPOLYLINE
  5
127
100
AcDbEntity
  8
0
  6
ByLayer
 62
  256
370
   -1
100
AcDbPolyline
 90
    4
 70
    1
 43
0
 10
308.8740527471612
 20
26.29292775220121
 10
295.0821715768145
 20
23.36137291167081
 10
292.1506167362841
 20
37.15325408201747
 10
305.9424979066308
 20
40.08480892254788
  0
LWPOLYLINE
  5
128
100
AcDbEntity
  8
0
  6
ByLayer
 62
  256
370
   -1
100
AcDbPolyline
 90
    4
 70
    1
 43
0
 10
323.8936529905241
 20
49.42108393745673
 10
310.1017718201774
 20
46.48952909692632
 10
307.170216979647
 20
60.28141026727298
 10
320.9620981499937
 20
63.21296510780338
  0
LWPOLYLINE
  5
129
100
AcDbEntity
  8
0
  6
ByLayer
 62
  256
370
   -1
100
AcDbPolyline
 90
    4
 70
    1
 43
0
 10
304.8197747762149
 20
45.36680596651041
 10
291.0278936058683
 20
42.43525112598002
 10
288.0963387653378
 20
56.22713229632667
 10
301.8882199356846
 20
59.15868713685708
  0
LWPOLYLINE
  5
12A
100
AcDbEntity
  8
0
  6
ByLayer
 62
  256
370
   -1
100
AcDbPolyline
 90
    4
 70
    1
 43
0
 10
297.1810395568824
 20
-12.48559004479521
 10
283.3891583865358
 20
-15.41714488532561
 10
280.4576035460054
 20
-1.625263714978942
 10
294.249484716352
 20
1.306291125551457
  0
LWPOLYLINE
  5
12B
100
AcDbEntity
  8
0
  6
ByLayer
 62
  256
370
   -1
100
AcDbPolyline
 90
    4
 70
    1
 43
0
 10
259.033283128264
 20
-20.59414598668783
 10
245.2414019579173
 20
-23.52570082721822
 10
242.309847117387
 20
-9.733819656871566
 10
256.1017282877336
 20
-6.802264816341151
  0
LWPOLYLINE
  5
12C
100
AcDbEntity
  8
0
  6
ByLayer
 62
  256
370
   -1
100
AcDbPolyline
 90
    4
 70
    1
 43
0
 10
239.9594049139548
 20
-24.64842395763413
 10
226.1675237436082
 20
-27.57997879816453
 10
223.2359689030777
 20
-13.78809762781786
 10
237.0278500734244
 20
-10.85654278728745
  0
LWPOLYLINE
  5
12D
100
AcDbEntity
  8
0
  6
ByLayer
 62
  256
370
   -1
100
AcDbPolyline
 90
    4
 70
    1
 43
0
 10
293.1267615859363
 20
6.588288169514014
 10
279.3348804155895
 20
3.656733328983604
 10
276.4033255750591
 20
17.44861449933026
 10
290.1952067454057
 20
20.38016933986067
  0
LWPOLYLINE
  5
12E
100
AcDbEntity
  8
0
  6
ByLayer
 62
  256
370
   -1
100
AcDbPolyline
 90
    4
 70
    1
 43
0
 10
254.9790051573177
 20
-1.520267772378604
 10
241.1871239869711
 20
-4.451822612909005
 10
238.2555691464406
 20
9.340058557437652
 10
252.0474503167873
 20
12.27161339796806
  0
LWPOLYLINE
  5
12F
100
AcDbEntity
  8
0
  6
ByLayer
 62
  256
370
   -1
100
AcDbPolyline
 90
    4
 70
    1
 43
0
 10
235.9051269430085
 20
-5.574545743324915
 10
222.1132457726619
 20
-8.506100583855316
 10
219.1816909321314
 20
5.285780586491343
 10
232.9735721024781
 20
8.217335427021753
  0
LWPOLYLINE
  5
130
100
AcDbEntity
  8
0
  6
ByLayer
 62
  256
370
   -1
100
AcDbPolyline
 90
    4
 70
    1
 43
0
 10
289.0724836149899
 20
25.66216638382323
 10
275.2806024446433
 20
22.73061154329282
 10
272.3490476041128
 20
36.52249271363947
 10
286.1409287744596
 20
39.45404755416988
  0
LWPOLYLINE
  5
131
100
AcDbEntity
  8
0
  6
ByLayer
 62
  256
370
   -1
100
AcDbPolyline
 90
    4
 70
    1
 43
0
 10
250.9247271863714
 20
17.5536104419306
 10
237.1328460160248
 20
14.6220556014002
 10
234.2012911754943
 20
28.41393677174687
 10
247.993172345841
 20
31.34549161227728
  0
LWPOLYLINE
  5
132
100
AcDbEntity
  8
0
  6
ByLayer
 62
  256
370
   -1
100
AcDbPolyline
 90
    4
 70
    1
 43
0
 10
231.8508489720622
 20
13.4993324709843
 10
218.0589678017156
 20
10.56777763045391
 10
215.1274129611851
 20
24.35965880080055
 10
228.9192941315318
 20
27.29121364133096
  0
LWPOLYLINE
  5
133
100
AcDbEntity
  8
0
  6
ByLayer
 62
  256
370
   -1
100
AcDbPolyline
 90
    4
 70
    1
 43
0
 10
285.0182056440435
 20
44.73604459813244
 10
271.2263244736969
 20
41.80448975760203
 10
268.2947696331664
 20
55.59637092794868
 10
282.0866508035131
 20
58.52792576847909
  0
LWPOLYLINE
  5
134
100
AcDbEntity
  8
0
  6
ByLayer
 62
  256
370
   -1
100
AcDbPolyline
 90
    4
 70
    1
 43
0
 10
246.8704492154251
 20
36.62748865623981
 10
233.0785680450785
 20
33.69593381570942
 10
230.1470132045481
 20
47.48781498605607
 10
243.9388943748947
 20
50.41936982658648
  0
LWPOLYLINE
  5
135
100
AcDbEntity
  8
0
  6
ByLayer
 62
  256
370
   -1
100
AcDbPolyline
 90
    4
 70
    1
 43
0
 10
227.7965710011159
 20
32.5732106852935
 10
214.0046898307692
 20
29.64165584476311
 10
211.0731349902388
 20
43.43353701510976
 10
224.8650161605855
 20
46.36509185564017
  0
LWPOLYLINE
  5
136
100
AcDbEntity
  8
0
  6
ByLayer
 62
  256
370
   -1
100
AcDbPolyline
 90
    4
 70
    1
 43
0
 10
277.379470424711
 20
-13.11635141317318
 10
263.5875892543644
 20
-16.04790625370359
 10
260.656034413834
 20
-2.256025083356935
 10
274.4479155841807
 20
0.6755297571734662
  0
LWPOLYLINE
  5
137
100
AcDbEntity
  8
0
  6
ByLayer
 62
  256
370
   -1
100
AcDbPolyline
 90
    4
 70
    1
 43
0
 10
273.3251924537648
 20
5.957526801136025
 10
259.5333112834181
 20
3.025971960605624
 10
256.6017564428877
 20
16.81785313095227
 10
270.3936376132343
 20
19.74940797148268
  0
LWPOLYLINE
  5
138
100
AcDbEntity
  8
0
  6
ByLayer
 62
  256
370
   -1
100
AcDbPolyline
 90
    4
 70
    1
 43
0
 10
269.2709144828185
 20
25.03140501544524
 10
255.4790333124718
 20
22.09985017491483
 10
252.5474784719414
 20
35.89173134526148
 10
266.3393596422881
 20
38.82328618579189
  0
LWPOLYLINE
  5
139
100
AcDbEntity
  8
0
  6
ByLayer
 62
  256
370
   -1
100
AcDbPolyline
 90
    4
 70
    1
 43
0
 10
265.2166365118723
 20
44.10528322975445
 10
251.4247553415255
 20
41.17372838922404
 10
248.4932005009951
 20
54.96560955957069
 10
262.2850816713418
 20
57.8971644001011
  0
LWPOLYLINE
  5
13A
100
AcDbEntity
  8
0
  6
ByLayer
 62
  256
370
   -1
100
AcDbPolyline
 90
    4
 70
    1
 43
0
 10
223.7206481020169
 20
-35.86146250041033
 10
211.157456110961
 20
-42.26272854673793
 10
204.7561900646333
 20
-29.69953655568195
 10
217.3193820556893
 20
-23.29827050935432
  0
LWPOLYLINE
  5
13B
100
AcDbEntity
  8
0
  6
ByLayer
 62
  256
370
   -1
100
AcDbPolyline
 90
    4
 70
    1
 43
0
 10
206.3460208803438
 20
-44.71427724533149
 10
193.7828288892878
 20
-51.11554329165909
 10
187.3815628429602
 20
-38.55235130060311
 10
199.9447548340161
 20
-32.15108525427549
  0
LWPOLYLINE
  5
13C
100
AcDbEntity
  8
0
  6
ByLayer
 62
  256
370
   -1
100
AcDbPolyline
 90
    4
 70
    1
 43
0
 10
214.8678333570958
 20
-18.48683527873715
 10
202.3046413660398
 20
-24.88810132506475
 10
195.9033753197122
 20
-12.32490933400876
 10
208.4665673107682
 20
-5.923643287681151
  0
LWPOLYLINE
  5
13D
100
AcDbEntity
  8
0
  6
ByLayer
 62
  256
370
   -1
100
AcDbPolyline
 90
    4
 70
    1
 43
0
 10
197.4932061354226
 20
-27.33965002365831
 10
184.9300141443666
 20
-33.74091606998591
 10
178.528748098039
 20
-21.17772407892992
 10
191.091940089095
 20
-14.77645803260231
  0
CIRCLE
  5
13E
100
AcDbEntity
  8
0
  6
ByLayer
 62
  256
370
   -1
100
AcDbCircle
 10
312.8186874199138
 20
67.61607329194101
 40
1.625
  0
CIRCLE
  5
13F
100
AcDbEntity
  8
0
  6
ByLayer
 62
  256
370
   -1
100
AcDbCircle
 10
330.4080164630963
 20
-15.13521373013895
 40
1.625
  0
CIRCLE
  5
140
100
AcDbEntity
  8
0
  6
ByLayer
 62
  256
370
   -1
100
AcDbCircle
 10
271.7309999844443
 20
-20.45101443784122
 40
1.625
  0
CIRCLE
  5
141
100
AcDbEntity
  8
0
  6
ByLayer
 62
  256
370
   -1
100
AcDbCircle
 10
202.7883678832531
 20
-53.2609494136255
 40
1.625
  0
CIRCLE
  5
142
100
AcDbEntity
  8
0
  6
ByLayer
 62
  256
370
   -1
100
AcDbCircle
 10
182.0864010951297
 20
-12.63105191063591
 40
1.625
  0
CIRCLE
  5
143
100
AcDbEntity
  8
0
  6
ByLayer
 62
  256
370
   -1
100
AcDbCircle
 10
216.7216054305056
 20
50.7682000397778
 40
1.625
  0
LINE
  5
144
100
AcDbEntity
  8
0
  6
ByLayer
 62
  256
370
   -1
100
AcDbLine
 10
261.0376115264352
 20
63.76605000450393
 11
267.0472994882599
 21
61.46525653235152
  0
LINE
  5
145
100
AcDbEntity
  8
0
  6
ByLayer
 62
  256
370
   -1
100
AcDbLine
 10
267.0472994882599
 20
61.46525653235152
 11
280.8391806586067
 21
64.39681137288191
  0
LINE
  5
146
100
AcDbEntity
  8
0
  6
ByLayer
 62
  256
370
   -1
100
AcDbLine
 10
280.8391806586067
 20
64.39681137288191
 11
286.8488686204312
 21
62.0960179007295
  0
LINE
  5
147
100
AcDbEntity
  8
0
  6
ByLayer
 62
  256
370
   -1
100
AcDbLine
 10
286.8488686204312
 20
62.0960179007295
 11
300.6407497907779
 21
65.0275727412599
  0
LINE
  5
148
100
AcDbEntity
  8
0
  6
ByLayer
 62
  256
370
   -1
100
AcDbLine
 10
300.6407497907779
 20
65.0275727412599
 11
305.0911000714696
 21
70.06288627461103
  0
LINE
  5
149
100
AcDbEntity
  8
0
  6
ByLayer
 62
  256
370
   -1
100
AcDbLine
 10
324.3437226411941
 20
-20.51358155333938
 11
318.2300788339604
 21
-17.72371428082003
  0
LINE
  5
14A
100
AcDbEntity
  8
0
  6
ByLayer
 62
  256
370
   -1
100
AcDbLine
 10
318.2300788339604
 20
-17.72371428082003
 11
304.4381976636137
 21
-20.65526912135045
  0
LINE
  5
14B
100
AcDbEntity
  8
0
  6
ByLayer
 62
  256
370
   -1
100
AcDbLine
 10
304.4381976636137
 20
-20.65526912135045
 11
298.428509701789
 21
-18.35447564919804
  0
LINE
  5
14C
100
AcDbEntity
  8
0
  6
ByLayer
 62
  256
370
   -1
100
AcDbLine
 10
298.428509701789
 20
-18.35447564919804
 11
241.2068750588613
 21
-30.51730956203696
  0
LINE
  5
14D
100
AcDbEntity
  8
0
  6
ByLayer
 62
  256
370
   -1
100
AcDbLine
 10
241.2068750588614
 20
-30.51730956203696
 11
233.7746281556433
 21
-41.96196617072196
  0
LINE
  5
14E
100
AcDbEntity
  8
0
  6
ByLayer
 62
  256
370
   -1
100
AcDbLine
 10
214.0267335668384
 20
15.1087451860946
 11
209.6310183140985
 21
5.892936509548584
  0
LINE
  5
14F
100
AcDbEntity
  8
0
  6
ByLayer
 62
  256
370
   -1
100
AcDbLine
 10
339.1137514122745
 20
-17.37411502199117
 11
324.3437226411941
 21
-20.51358155333938
  0
ARC
  5
150
100
AcDbEntity
  8
0
  6
ByLayer
 62
  256
370
   -1
100
AcDbCircle
 10
338.697928030639
 20
-15.41781982052358
 40
2
100
AcDbArc
 50
281.9999999999997
 51
11.99999999999994
  0
LINE
  5
151
100
AcDbEntity
  8
0
  6
ByLayer
 62
  256
370
   -1
100
AcDbLine
 10
322.233247425653
 20
71.66188098612707
 11
340.6542232321065
 21
-15.00199643888807
  0
LINE
  5
152
100
AcDbEntity
  8
0
  6
ByLayer
 62
  256
370
   -1
100
AcDbLine
 10
305.0911000714696
 20
70.06288627461103
 11
319.8611288425499
 21
73.20235280595918
  0
ARC
  5
153
100
AcDbEntity
  8
0
  6
ByLayer
 62
  256
370
   -1
100
AcDbCircle
 10
320.2769522241855
 20
71.24605760449155
 40
2
100
AcDbArc
 50
12.00000000000018
 51
101.9999999999995
  0
LINE
  5
154
100
AcDbEntity
  8
0
  6
ByLayer
 62
  256
370
   -1
100
AcDbLine
 10
173.0978365764552
 20
-12.7216493367858
 11
209.6310183140985
 21
5.892936509548594
  0
ARC
  5
155
100
AcDbEntity
  8
0
  6
ByLayer
 62
  256
370
   -1
100
AcDbCircle
 10
174.0058175759342
 20
-14.50366238516254
 40
2
100
AcDbArc
 50
117
 51
206.9999999999999
  0
LINE
  5
156
100
AcDbEntity
  8
0
  6
ByLayer
 62
  256
370
   -1
100
AcDbLine
 10
172.2238045275575
 20
-15.41164338464163
 11
194.7417333146391
 21
-59.60556698438464
  0
LINE
  5
157
100
AcDbEntity
  8
0
  6
ByLayer
 62
  256
370
   -1
100
AcDbLine
 10
233.7746281556433
 20
-41.96196617072197
 11
197.4317273624949
 21
-60.47959903328229
  0
ARC
  5
158
100
AcDbEntity
  8
0
  6
ByLayer
 62
  256
370
   -1
100
AcDbCircle
 10
196.5237463630158
 20
-58.69758598490554
 40
2
100
AcDbArc
 50
207.0000000000001
 51
296.9999999999998
  0
LINE
  5
159
100
AcDbEntity
  8
0
  6
ByLayer
 62
  256
370
   -1
100
AcDbLine
 10
261.0376115264352
 20
63.76605000450393
 11
208.1198263267363
 21
52.51802753126312
  0
LINE
  5
15A
100
AcDbEntity
  8
0
  6
ByLayer
 62
  256
370
   -1
100
AcDbLine
 10
206.5793545069042
 20
50.14590894816001
 11
214.0267335668384
 21
15.10874518609461
  0
ARC
  5
15B
100
AcDbEntity
  8
0
  6
ByLayer
 62
  256
370
   -1
100
AcDbCircle
 10
208.5356497083718
 20
50.56173232979553
 40
2
100
AcDbArc
 50
101.9999999999997
 51
192.0000000000002
  0
LWPOLYLINE
  5
15C
100
AcDbEntity
  8
0
  6
ByLayer
 62
  256
370
   -1
100
AcDbPolyline
 90
    4
 70
    1
 43
0
 10
-2.813219087991712
 20
-7.800550705470913
 10
10.97866208235495
 20
-10.73210554600132
 10
13.91021692288536
 20
3.059775624345336
 10
0.118335752538695
 20
5.991330464875746
  0
LWPOLYLINE
  5
15D
100
AcDbEntity
  8
0
  6
ByLayer
 62
  256
370
   -1
100
AcDbPolyline
 90
    4
 70
    1
 43
0
 10
16.2606591263175
 20
-11.85482867641722
 10
30.05254029666416
 20
-14.78638351694763
 10
32.98409513719456
 20
-0.9945023466009673
 10
19.19221396684791
 20
1.937052493929439
  0
LWPOLYLINE
  5
15E
100
AcDbEntity
  8
0
  6
ByLayer
 62
  256
370
   -1
100
AcDbPolyline
 90
    4
 70
    1
 43
0
 10
1.241058882954595
 20
11.2733275088383
 10
15.03294005330126
 20
8.341772668307888
 10
17.96449489383166
 20
22.13365383865456
 10
4.172613723485004
 20
25.06520867918496
  0
LWPOLYLINE
  5
15F
100
AcDbEntity
  8
0
  6
ByLayer
 62
  256
370
   -1
100
AcDbPolyline
 90
    4
 70
    1
 43
0
 10
20.31493709726381
 20
7.219049537891987
 10
34.10681826761047
 20
4.287494697361588
 10
37.03837310814088
 20
18.07937586770824
 10
23.24649193779422
 20
21.01093070823865
  0
LWPOLYLINE
  5
160
100
AcDbEntity
  8
0
  6
ByLayer
 62
  256
370
   -1
100
AcDbPolyline
 90
    4
 70
    1
 43
0
 10
5.295336853900903
 20
30.34720572314751
 10
19.08721802424756
 20
27.4156508826171
 10
22.01877286477797
 20
41.20753205296376
 10
8.226891694431307
 20
44.13908689349417
  0
LWPOLYLINE
  5
161
100
AcDbEntity
  8
0
  6
ByLayer
 62
  256
370
   -1
100
AcDbPolyline
 90
    4
 70
    1
 43
0
 10
24.36921506821012
 20
26.2929277522012
 10
38.16109623855677
 20
23.3613729116708
 10
41.09265107908718
 20
37.15325408201746
 10
27.30076990874052
 20
40.08480892254787
  0
LWPOLYLINE
  5
162
100
AcDbEntity
  8
0
  6
ByLayer
 62
  256
370
   -1
100
AcDbPolyline
 90
    4
 70
    1
 43
0
 10
9.349614824847208
 20
49.42108393745672
 10
23.14149599519387
 20
46.48952909692631
 10
26.07305083572428
 20
60.28141026727297
 10
12.28116966537762
 20
63.21296510780337
  0
LWPOLYLINE
  5
163
100
AcDbEntity
  8
0
  6
ByLayer
 62
  256
370
   -1
100
AcDbPolyline
 90
    4
 70
    1
 43
0
 10
28.42349303915642
 20
45.36680596651041
 10
42.21537420950308
 20
42.43525112598001
 10
45.14692905003348
 20
56.22713229632666
 10
31.35504787968683
 20
59.15868713685707
  0
LWPOLYLINE
  5
164
100
AcDbEntity
  8
0
  6
ByLayer
 62
  256
370
   -1
100
AcDbPolyline
 90
    4
 70
    1
 43
0
 10
36.06222825848887
 20
-12.48559004479521
 10
49.85410942883553
 20
-15.41714488532562
 10
52.78566426936594
 20
-1.625263714978953
 10
38.99378309901928
 20
1.306291125551454
  0
LWPOLYLINE
  5
165
100
AcDbEntity
  8
0
  6
ByLayer
 62
  256
370
   -1
100
AcDbPolyline
 90
    4
 70
    1
 43
0
 10
74.20998468710729
 20
-20.59414598668782
 10
88.00186585745395
 20
-23.52570082721822
 10
90.93342069798435
 20
-9.733819656871566
 10
77.14153952763769
 20
-6.80226481634116
  0
LWPOLYLINE
  5
166
100
AcDbEntity
  8
0
  6
ByLayer
 62
  256
370
   -1
100
AcDbPolyline
 90
    4
 70
    1
 43
0
 10
93.2838629014165
 20
-24.64842395763412
 10
107.0757440717632
 20
-27.57997879816453
 10
110.0072989122936
 20
-13.78809762781787
 10
96.21541774194691
 20
-10.85654278728747
  0
LWPOLYLINE
  5
167
100
AcDbEntity
  8
0
  6
ByLayer
 62
  256
370
   -1
100
AcDbPolyline
 90
    4
 70
    1
 43
0
 10
40.11650622943518
 20
6.588288169514007
 10
53.90838739978184
 20
3.656733328983597
 10
56.83994224031224
 20
17.44861449933025
 10
43.04806106996559
 20
20.38016933986066
  0
LWPOLYLINE
  5
168
100
AcDbEntity
  8
0
  6
ByLayer
 62
  256
370
   -1
100
AcDbPolyline
 90
    4
 70
    1
 43
0
 10
78.2642626580536
 20
-1.520267772378611
 10
92.05614382840025
 20
-4.451822612909016
 10
94.98769866893066
 20
9.340058557437645
 10
81.19581749858401
 20
12.27161339796805
  0
LWPOLYLINE
  5
169
100
AcDbEntity
  8
0
  6
ByLayer
 62
  256
370
   -1
100
AcDbPolyline
 90
    4
 70
    1
 43
0
 10
97.33814087236279
 20
-5.574545743324919
 10
111.1300220427095
 20
-8.506100583855323
 10
114.0615768832399
 20
5.285780586491336
 10
100.2696957128932
 20
8.217335427021746
  0
LWPOLYLINE
  5
16A
100
AcDbEntity
  8
0
  6
ByLayer
 62
  256
370
   -1
100
AcDbPolyline
 90
    4
 70
    1
 43
0
 10
44.17078420038149
 20
25.66216638382322
 10
57.96266537072815
 20
22.73061154329281
 10
60.89422021125855
 20
36.52249271363947
 10
47.10233904091189
 20
39.45404755416988
  0
LWPOLYLINE
  5
16B
100
AcDbEntity
  8
0
  6
ByLayer
 62
  256
370
   -1
100
AcDbPolyline
 90
    4
 70
    1
 43
0
 10
82.3185406289999
 20
17.55361044193059
 10
96.11042179934655
 20
14.6220556014002
 10
99.04197663987699
 20
28.41393677174686
 10
85.25009546953031
 20
31.34549161227727
  0
LWPOLYLINE
  5
16C
100
AcDbEntity
  8
0
  6
ByLayer
 62
  256
370
   -1
100
AcDbPolyline
 90
    4
 70
    1
 43
0
 10
101.3924188433091
 20
13.4993324709843
 10
115.1843000136558
 20
10.56777763045389
 10
118.1158548541862
 20
24.35965880080055
 10
104.3239736838395
 20
27.29121364133096
  0
LWPOLYLINE
  5
16D
100
AcDbEntity
  8
0
  6
ByLayer
 62
  256
370
   -1
100
AcDbPolyline
 90
    4
 70
    1
 43
0
 10
48.22506217132779
 20
44.73604459813243
 10
62.01694334167445
 20
41.80448975760202
 10
64.94849818220486
 20
55.59637092794868
 10
51.1566170118582
 20
58.52792576847908
  0
LWPOLYLINE
  5
16E
100
AcDbEntity
  8
0
  6
ByLayer
 62
  256
370
   -1
100
AcDbPolyline
 90
    4
 70
    1
 43
0
 10
86.37281859994621
 20
36.62748865623981
 10
100.1646997702929
 20
33.69593381570941
 10
103.0962546108233
 20
47.48781498605606
 10
89.30437344047661
 20
50.41936982658647
  0
LWPOLYLINE
  5
16F
100
AcDbEntity
  8
0
  6
ByLayer
 62
  256
370
   -1
100
AcDbPolyline
 90
    4
 70
    1
 43
0
 10
105.4466968142554
 20
32.5732106852935
 10
119.2385779846021
 20
29.6416558447631
 10
122.1701328251325
 20
43.43353701510976
 10
108.3782516547858
 20
46.36509185564016
  0
LWPOLYLINE
  5
170
100
AcDbEntity
  8
0
  6
ByLayer
 62
  256
370
   -1
100
AcDbPolyline
 90
    4
 70
    1
 43
0
 10
55.86379739066024
 20
-13.1163514131732
 10
69.65567856100689
 20
-16.0479062537036
 10
72.5872334015373
 20
-2.256025083356938
 10
58.79535223119064
 20
0.6755297571734662
  0
LWPOLYLINE
  5
171
100
AcDbEntity
  8
0
  6
ByLayer
 62
  256
370
   -1
100
AcDbPolyline
 90
    4
 70
    1
 43
0
 10
59.91807536160654
 20
5.957526801136018
 10
73.7099565319532
 20
3.025971960605608
 10
76.64151137248361
 20
16.81785313095227
 10
62.84963020213695
 20
19.74940797148268
  0
LWPOLYLINE
  5
172
100
AcDbEntity
  8
0
  6
ByLayer
 62
  256
370
   -1
100
AcDbPolyline
 90
    4
 70
    1
 43
0
 10
63.97235333255286
 20
25.03140501544523
 10
77.76423450289951
 20
22.09985017491483
 10
80.69578934342991
 20
35.89173134526148
 10
66.90390817308325
 20
38.82328618579189
  0
LWPOLYLINE
  5
173
100
AcDbEntity
  8
0
  6
ByLayer
 62
  256
370
   -1
100
AcDbPolyline
 90
    4
 70
    1
 43
0
 10
68.02663130349916
 20
44.10528322975444
 10
81.81851247384581
 20
41.17372838922403
 10
84.75006731437622
 20
54.96560955957069
 10
70.95818614402957
 20
57.89716440010109
  0
LWPOLYLINE
  5
174
100
AcDbEntity
  8
0
  6
ByLayer
 62
  256
370
   -1
100
AcDbPolyline
 90
    4
 70
    1
 43
0
 10
109.5226197133544
 20
-35.86146250041033
 10
122.0858117044104
 20
-42.26272854673793
 10
128.487077750738
 20
-29.69953655568195
 10
115.923885759682
 20
-23.29827050935433
  0
LWPOLYLINE
  5
175
100
AcDbEntity
  8
0
  6
ByLayer
 62
  256
370
   -1
100
AcDbPolyline
 90
    4
 70
    1
 43
0
 10
126.8972469350276
 20
-44.71427724533149
 10
139.4604389260835
 20
-51.11554329165909
 10
145.8617049724111
 20
-38.55235130060311
 10
133.2985129813552
 20
-32.1510852542755
  0
LWPOLYLINE
  5
176
100
AcDbEntity
  8
0
  6
ByLayer
 62
  256
370
   -1
100
AcDbPolyline
 90
    4
 70
    1
 43
0
 10
118.3754344582755
 20
-18.48683527873715
 10
130.9386264493315
 20
-24.88810132506475
 10
137.3398924956591
 20
-12.32490933400877
 10
124.7767005046032
 20
-5.923643287681163
  0
LWPOLYLINE
  5
177
100
AcDbEntity
  8
0
  6
ByLayer
 62
  256
370
   -1
100
AcDbPolyline
 90
    4
 70
    1
 43
0
 10
135.7500616799487
 20
-27.33965002365832
 10
148.3132536710047
 20
-33.74091606998592
 10
154.7145197173323
 20
-21.17772407892993
 10
142.1513277262763
 20
-14.77645803260232
  0
ARC
  5
178
100
AcDbEntity
  8
0
  6
ByLayer
 62
  256
370
   -1
100
AcDbCircle
 10
-2.813219087991712
 20
-7.800550705470913
 40
0
100
AcDbArc
 50
0
 51
0
  0
ARC
  5
179
100
AcDbEntity
  8
0
  6
ByLayer
 62
  256
370
   -1
100
AcDbCircle
 10
-2.813219087991712
 20
-7.800550705470913
 40
0
100
AcDbArc
 50
0
 51
0
  0
CIRCLE
  5
17A
100
AcDbEntity
  8
0
  6
ByLayer
 62
  256
370
   -1
100
AcDbCircle
 10
20.42458039545753
 20
67.61607329194101
 40
1.625
  0
CIRCLE
  5
17B
100
AcDbEntity
  8
0
  6
ByLayer
 62
  256
370
   -1
100
AcDbCircle
 10
2.835251352275037
 20
-15.13521373013895
 40
1.625
  0
CIRCLE
  5
17C
100
AcDbEntity
  8
0
  6
ByLayer
 62
  256
370
   -1
100
AcDbCircle
 10
61.51226783092702
 20
-20.45101443784123
 40
1.625
  0
CIRCLE
  5
17D
100
AcDbEntity
  8
0
  6
ByLayer
 62
  256
370
   -1
100
AcDbCircle
 10
130.4548999321183
 20
-53.26094941362549
 40
1.625
  0
CIRCLE
  5
17E
100
AcDbEntity
  8
0
  6
ByLayer
 62
  256
370
   -1
100
AcDbCircle
 10
151.1568667202416
 20
-12.63105191063591
 40
1.625
  0
CIRCLE
  5
17F
100
AcDbEntity
  8
0
  6
ByLayer
 62
  256
370
   -1
100
AcDbCircle
 10
116.5216623848657
 20
50.7682000397778
 40
1.625
  0
LINE
  5
180
100
AcDbEntity
  8
0
  6
ByLayer
 62
  256
370
   -1
100
AcDbLine
 10
72.20565628893613
 20
63.76605000450392
 11
66.19596832711144
 21
61.46525653235152
  0
LINE
  5
181
100
AcDbEntity
  8
0
  6
ByLayer
 62
  256
370
   -1
100
AcDbLine
 10
66.19596832711144
 20
61.46525653235152
 11
52.40408715676475
 21
64.39681137288191
  0
LINE
  5
182
100
AcDbEntity
  8
0
  6
ByLayer
 62
  256
370
   -1
100
AcDbLine
 10
52.40408715676475
 20
64.39681137288191
 11
46.39439919494007
 21
62.09601790072949
  0
LINE
  5
183
100
AcDbEntity
  8
0
  6
ByLayer
 62
  256
370
   -1
100
AcDbLine
 10
46.39439919494007
 20
62.09601790072949
 11
32.60251802459342
 21
65.0275727412599
  0
LINE
  5
184
100
AcDbEntity
  8
0
  6
ByLayer
 62
  256
370
   -1
100
AcDbLine
 10
32.60251802459342
 20
65.0275727412599
 11
28.15216774390186
 21
70.06288627461103
  0
LINE
  5
185
100
AcDbEntity
  8
0
  6
ByLayer
 62
  256
370
   -1
100
AcDbLine
 10
8.899545174177348
 20
-20.51358155333939
 11
15.01318898141094
 21
-17.72371428082003
  0
LINE
  5
186
100
AcDbEntity
  8
0
  6
ByLayer
 62
  256
370
   -1
100
AcDbLine
 10
15.01318898141094
 20
-17.72371428082003
 11
28.80507015175758
 21
-20.65526912135046
  0
LINE
  5
187
100
AcDbEntity
  8
0
  6
ByLayer
 62
  256
370
   -1
100
AcDbLine
 10
28.80507015175758
 20
-20.65526912135046
 11
34.81475811358232
 21
-18.35447564919804
  0
LINE
  5
188
100
AcDbEntity
  8
0
  6
ByLayer
 62
  256
370
   -1
100
AcDbLine
 10
34.81475811358232
 20
-18.35447564919804
 11
92.03639275650997
 21
-30.51730956203698
  0
LINE
  5
189
100
AcDbEntity
  8
0
  6
ByLayer
 62
  256
370
   -1
100
AcDbLine
 10
92.03639275650994
 20
-30.51730956203697
 11
99.46863965972798
 21
-41.96196617072196
  0
LINE
  5
18A
100
AcDbEntity
  8
0
  6
ByLayer
 62
  256
370
   -1
100
AcDbLine
 10
119.216534248533
 20
15.1087451860946
 11
123.6122495012728
 21
5.892936509548576
  0
LINE
  5
18B
100
AcDbEntity
  8
0
  6
ByLayer
 62
  256
370
   -1
100
AcDbLine
 10
-5.870483596903142
 20
-17.37411502199119
 11
8.899545174177348
 21
-20.51358155333939
  0
ARC
  5
18C
100
AcDbEntity
  8
0
  6
ByLayer
 62
  256
370
   -1
100
AcDbCircle
 10
-5.454660215267637
 20
-15.41781982052357
 40
2
100
AcDbArc
 50
168.0000000000001
 51
258.0000000000003
  0
LINE
  5
18D
100
AcDbEntity
  8
0
  6
ByLayer
 62
  256
370
   -1
100
AcDbLine
 10
11.01002038971828
 20
71.66188098612707
 11
-7.41095541673522
 21
-15.00199643888807
  0
LINE
  5
18E
100
AcDbEntity
  8
0
  6
ByLayer
 62
  256
370
   -1
100
AcDbLine
 10
28.15216774390186
 20
70.06288627461103
 11
13.38213897282137
 21
73.20235280595918
  0
ARC
  5
18F
100
AcDbEntity
  8
0
  6
ByLayer
 62
  256
370
   -1
100
AcDbCircle
 10
12.96631559118586
 20
71.24605760449155
 40
2
100
AcDbArc
 50
78.00000000000047
 51
167.9999999999998
  0
LINE
  5
190
100
AcDbEntity
  8
0
  6
ByLayer
 62
  256
370
   -1
100
AcDbLine
 10
160.1454312389162
 20
-12.72164933678581
 11
123.6122495012728
 21
5.892936509548576
  0
ARC
  5
191
100
AcDbEntity
  8
0
  6
ByLayer
 62
  256
370
   -1
100
AcDbCircle
 10
159.2374502394371
 20
-14.50366238516255
 40
2
100
AcDbArc
 50
333.0000000000001
 51
63
  0
LINE
  5
192
100
AcDbEntity
  8
0
  6
ByLayer
 62
  256
370
   -1
100
AcDbLine
 10
161.0194632878138
 20
-15.41164338464164
 11
138.5015345007323
 21
-59.60556698438465
  0
LINE
  5
193
100
AcDbEntity
  8
0
  6
ByLayer
 62
  256
370
   -1
100
AcDbLine
 10
99.46863965972808
 20
-41.96196617072197
 11
135.8115404528764
 21
-60.4795990332823
  0
ARC
  5
194
100
AcDbEntity
  8
0
  6
ByLayer
 62
  256
370
   -1
100
AcDbCircle
 10
136.7195214523555
 20
-58.69758598490556
 40
2
100
AcDbArc
 50
243.0000000000001
 51
332.9999999999998
  0
LINE
  5
195
100
AcDbEntity
  8
0
  6
ByLayer
 62
  256
370
   -1
100
AcDbLine
 10
72.20565628893618
 20
63.76605000450392
 11
125.1234414886351
 21
52.51802753126312
  0
LINE
  5
196
100
AcDbEntity
  8
0
  6
ByLayer
 62
  256
370
   -1
100
AcDbLine
 10
126.6639133084672
 20
50.14590894816
 11
119.216534248533
 21
15.10874518609461
  0
ARC
  5
197
100
AcDbEntity
  8
0
  6
ByLayer
 62
  256
370
   -1
100
AcDbCircle
 10
124.7076181069996
 20
50.56173232979552
 40
2
100
AcDbArc
 50
347.9999999999998
 51
78.00000000000034
  0
ENDSEC
  0
SECTION
  2
OBJECTS
  0
DICTIONARY
  5
C
330
0
100
AcDbDictionary
281
    1
  3
ACAD_GROUP
350
D
  0
DICTIONARY
  5
D
330
C
100
AcDbDictionary
281
    1
  0
ENDSEC
  0
EOF
