999
dxfrw 0.6.3
  0
SECTION
  2
HEADER
  9
$ACADVER
  1
AC1021
  9
$DWGCODEPAGE
  3
ANSI_1252
  9
$INSBASE
 10
0
 20
0
 30
0
  9
$EXTMIN
 10
-4.641441127275925
 20
-52.89703527943465
 30
0
  9
$EXTMAX
 10
337.8847089426473
 20
83.01832455567251
 30
0
  9
$LIMMIN
 10
0
 20
0
  9
$LIMMAX
 10
420
 20
297
  9
$ORTHOMODE
 70
    0
  9
$REGENMODE
 70
    1
  9
$FILLMODE
 70
    1
  9
$QTEXTMODE
 70
    0
  9
$MIRRTEXT
 70
    0
  9
$LTSCALE
 40
1
  9
$ATTMODE
 70
    0
  9
$TEXTSIZE
 40
2.5
  9
$TRACEWID
 40
15.68
  9
$TEXTSTYLE
  7
STANDARD
  9
$CLAYER
  8
I2C_Module
  9
$CELTYPE
  6
BYLAYER
  9
$CECOLOR
 62
  256
  9
$CELTSCALE
 40
1
  9
$DISPSILH
 70
    0
  9
$DIMSCALE
 40
1
  9
$DIMASZ
 40
2.5
  9
$DIMEXO
 40
0.625
  9
$DIMDLI
 40
3.75
  9
$DIMRND
 40
0
  9
$DIMDLE
 40
0
  9
$DIMEXE
 40
1.25
  9
$DIMTP
 40
0
  9
$DIMTM
 40
0
  9
$DIMTXT
 40
2.5
  9
$DIMCEN
 40
2.5
  9
$DIMTSZ
 40
0
  9
$DIMTOL
 70
    0
  9
$DIMLIM
 70
    0
  9
$DIMTIH
 70
    0
  9
$DIMTOH
 70
    0
  9
$DIMSE1
 70
    0
  9
$DIMSE2
 70
    0
  9
$DIMTAD
 70
    1
  9
$DIMZIN
 70
    8
  9
$DIMBLK
  1

  9
$DIMASO
 70
    1
  9
$DIMSHO
 70
    1
  9
$DIMPOST
  1

  9
$DIMAPOST
  1

  9
$DIMALT
 70
    0
  9
$DIMALTD
 70
    3
  9
$DIMALTF
 40
0.03937
  9
$DIMLFAC
 40
1
  9
$DIMTOFL
 70
    1
  9
$DIMTVP
 40
0
  9
$DIMTIX
 70
    0
  9
$DIMSOXD
 70
    0
  9
$DIMSAH
 70
    0
  9
$DIMBLK1
  1

  9
$DIMBLK2
  1

  9
$DIMSTYLE
  2
STANDARD
  9
$DIMCLRD
 70
    0
  9
$DIMCLRE
 70
    0
  9
$DIMCLRT
 70
    0
  9
$DIMTFAC
 40
1
  9
$DIMGAP
 40
0.625
  9
$DIMJUST
 70
    0
  9
$DIMSD1
 70
    0
  9
$DIMSD2
 70
    0
  9
$DIMTOLJ
 70
    0
  9
$DIMTZIN
 70
    8
  9
$DIMALTZ
 70
    0
  9
$DIMALTTZ
 70
    0
  9
$DIMUPT
 70
    0
  9
$DIMDEC
 70
    2
  9
$DIMTDEC
 70
    2
  9
$DIMALTU
 70
    2
  9
$DIMALTTD
 70
    3
  9
$DIMTXSTY
  7
STANDARD
  9
$DIMAUNIT
 70
    0
  9
$DIMADEC
 70
    0
  9
$DIMALTRND
 40
0
  9
$DIMAZIN
 70
    0
  9
$DIMDSEP
 70
   44
  9
$DIMATFIT
 70
    3
  9
$DIMFRAC
 70
    0
  9
$DIMLDRBLK
  1
STANDARD
  9
$DIMLUNIT
 70
    2
  9
$DIMLWD
 70
   -2
  9
$DIMLWE
 70
   -2
  9
$DIMTMOVE
 70
    0
  9
$DIMFXL
 40
1
  9
$DIMFXLON
 70
    0
  9
$DIMJOGANG
 40
0.7854
  9
$DIMTFILL
 70
    0
  9
$DIMTFILLCLR
 70
    0
  9
$DIMARCSYM
 70
    0
  9
$DIMLTYPE
  6

  9
$DIMLTEX1
  6

  9
$DIMLTEX2
  6

  9
$LUNITS
 70
    2
  9
$LUPREC
 70
    4
  9
$SKETCHINC
 40
1
  9
$FILLETRAD
 40
0
  9
$AUNITS
 70
    0
  9
$AUPREC
 70
    2
  9
$MENU
  1
.
  9
$ELEVATION
 40
0
  9
$PELEVATION
 40
0
  9
$THICKNESS
 40
0
  9
$LIMCHECK
 70
    0
  9
$CHAMFERA
 40
0
  9
$CHAMFERB
 40
0
  9
$CHAMFERC
 40
0
  9
$CHAMFERD
 40
0
  9
$SKPOLY
 70
    0
  9
$USRTIMER
 70
    1
  9
$ANGBASE
 50
0
  9
$ANGDIR
 70
    0
  9
$PDMODE
 70
   34
  9
$PDSIZE
 40
0
  9
$PLINEWID
 40
0
  9
$SPLFRAME
 70
    0
  9
$SPLINETYPE
 70
    2
  9
$SPLINESEGS
 70
    8
  9
$HANDSEED
  5
20000
  9
$SURFTAB1
 70
    6
  9
$SURFTAB2
 70
    6
  9
$SURFTYPE
 70
    6
  9
$SURFU
 70
    6
  9
$SURFV
 70
    6
  9
$UCSBASE
  2

  9
$UCSNAME
  2

  9
$UCSORG
 10
0
 20
0
 30
0
  9
$UCSXDIR
 10
1
 20
0
 30
0
  9
$UCSYDIR
 10
0
 20
1
 30
0
  9
$UCSORTHOREF
  2

  9
$UCSORTHOVIEW
 70
    0
  9
$UCSORGTOP
 10
0
 20
0
 30
0
  9
$UCSORGBOTTOM
 10
0
 20
0
 30
0
  9
$UCSORGLEFT
 10
0
 20
0
 30
0
  9
$UCSORGRIGHT
 10
0
 20
0
 30
0
  9
$UCSORGFRONT
 10
0
 20
0
 30
0
  9
$UCSORGBACK
 10
0
 20
0
 30
0
  9
$PUCSBASE
  2

  9
$PUCSNAME
  2

  9
$PUCSORG
 10
0
 20
0
 30
0
  9
$PUCSXDIR
 10
1
 20
0
 30
0
  9
$PUCSYDIR
 10
0
 20
1
 30
0
  9
$PUCSORTHOREF
  2

  9
$PUCSORTHOVIEW
 70
    0
  9
$PUCSORGTOP
 10
0
 20
0
 30
0
  9
$PUCSORGBOTTOM
 10
0
 20
0
 30
0
  9
$PUCSORGLEFT
 10
0
 20
0
 30
0
  9
$PUCSORGRIGHT
 10
0
 20
0
 30
0
  9
$PUCSORGFRONT
 10
0
 20
0
 30
0
  9
$PUCSORGBACK
 10
0
 20
0
 30
0
  9
$USERI1
 70
    0
  9
$USERI2
 70
    0
  9
$USERI3
 70
    0
  9
$USERI4
 70
    0
  9
$USERI5
 70
    0
  9
$USERR1
 40
0
  9
$USERR2
 40
0
  9
$USERR3
 40
0
  9
$USERR4
 40
0
  9
$USERR5
 40
0
  9
$WORLDVIEW
 70
    1
  9
$SHADEDGE
 70
    3
  9
$SHADEDIF
 70
   70
  9
$TILEMODE
 70
    1
  9
$MAXACTVP
 70
   64
  9
$PINSBASE
 10
0
 20
0
 30
0
  9
$PLIMCHECK
 70
    0
  9
$PEXTMIN
 10
0
 20
0
 30
0
  9
$PEXTMAX
 10
0
 20
0
 30
0
  9
$GRIDMODE
 70
    1
  9
$SNAPSTYLE
 70
    0
  9
$PLIMMIN
 10
0
 20
0
  9
$PLIMMAX
 10
355.6
 20
215.9
  9
$UNITMODE
 70
    0
  9
$VISRETAIN
 70
    1
  9
$PLINEGEN
 70
    0
  9
$PSLTSCALE
 70
    1
  9
$TREEDEPTH
 70
 3020
  9
$CMLSTYLE
  2
Standard
  9
$CMLJUST
 70
    0
  9
$CMLSCALE
 40
20
  9
$PROXYGRAPHICS
 70
    1
  9
$MEASUREMENT
 70
    1
  9
$CELWEIGHT
370
   -1
  9
$ENDCAPS
280
    0
  9
$JOINSTYLE
280
    0
  9
$LWDISPLAY
290
    0
  9
$INSUNITS
 70
    4
  9
$HYPERLINKBASE
  1

  9
$STYLESHEET
  1

  9
$XEDIT
290
    1
  9
$CEPSNTYPE
380
    0
  9
$PSTYLEMODE
290
    1
  9
$EXTNAMES
290
    1
  9
$PSVPSCALE
 40
1
  9
$OLESTARTUP
290
    0
  9
$SORTENTS
280
  127
  9
$INDEXCTL
280
    0
  9
$HIDETEXT
280
    1
  9
$XCLIPFRAME
290
    0
  9
$HALOGAP
280
    0
  9
$OBSCOLOR
 70
  257
  9
$OBSLTYPE
280
    0
  9
$INTERSECTIONDISPLAY
280
    0
  9
$INTERSECTIONCOLOR
 70
  257
  9
$DIMASSOC
280
    1
  9
$PROJECTNAME
  1

  9
$CAMERADISPLAY
290
    0
  9
$LENSLENGTH
 40
50
  9
$CAMERAHEIGHT
 40
0
  9
$STEPSPERSEC
 40
2
  9
$STEPSIZE
 40
50
  9
$3DDWFPREC
 40
2
  9
$PSOLWIDTH
 40
5
  9
$PSOLHEIGHT
 40
80
  9
$LOFTANG1
 40
1.570796326794897
  9
$LOFTANG2
 40
1.570796326794897
  9
$LOFTMAG1
 40
0
  9
$LOFTMAG2
 40
0
  9
$LOFTPARAM
 70
    7
  9
$LOFTNORMALS
280
    1
  9
$LATITUDE
 40
1
  9
$LONGITUDE
 40
1
  9
$NORTHDIRECTION
 40
0
  9
$TIMEZONE
 70
-8000
  9
$LIGHTGLYPHDISPLAY
280
    1
  9
$TILEMODELIGHTSYNCH
280
    1
  9
$SOLIDHIST
280
    1
  9
$SHOWHIST
280
    1
  9
$DWFFRAME
280
    2
  9
$DGNFRAME
280
    0
  9
$REALWORLDSCALE
290
    1
  9
$INTERFERECOLOR
 62
    1
  9
$CSHADOW
280
    0
  9
$SHADOWPLANELOCATION
 40
0
  0
ENDSEC
  0
SECTION
  2
CLASSES
  0
ENDSEC
  0
SECTION
  2
TABLES
  0
TABLE
  2
VPORT
  5
8
330
0
100
AcDbSymbolTable
 70
    1
  0
VPORT
  5
31
330
2
100
AcDbSymbolTableRecord
100
AcDbViewportTableRecord
  2
*ACTIVE
 70
    0
 10
0
 20
0
 11
1
 21
1
 12
87.67236734062658
 22
36.72564949693782
 13
0
 23
0
 14
10
 24
10
 15
10
 25
10
 16
0
 26
0
 36
1
 17
0
 27
0
 37
0
 40
32.67731617195032
 41
1.97712833545108
 42
50
 43
0
 44
0
 50
0
 51
0
 71
    0
 72
  100
 73
    1
 74
    3
 75
    0
 76
    1
 77
    0
 78
    0
281
    0
 65
    1
110
0
120
0
130
0
111
1
121
0
131
0
112
0
122
1
132
0
 79
    0
146
0
348
10020
 60
    7
 61
    5
292
1
282
    1
141
0
142
0
 63
  250
421
3358443
  0
ENDTAB
  0
TABLE
  2
LTYPE
  5
5
330
0
100
AcDbSymbolTable
 70
    4
  0
LTYPE
  5
14
330
5
100
AcDbSymbolTableRecord
100
AcDbLinetypeTableRecord
  2
ByBlock
 70
    0
  3

 72
   65
 73
    0
 40
0
  0
LTYPE
  5
15
330
5
100
AcDbSymbolTableRecord
100
AcDbLinetypeTableRecord
  2
ByLayer
 70
    0
  3

 72
   65
 73
    0
 40
0
  0
LTYPE
  5
16
330
5
100
AcDbSymbolTableRecord
100
AcDbLinetypeTableRecord
  2
Continuous
 70
    0
  3
Solid line
 72
   65
 73
    0
 40
0
  0
LTYPE
  5
32
330
5
100
AcDbSymbolTableRecord
100
AcDbLinetypeTableRecord
  2
DOT
 70
    0
  3
Dot . . . . . . . . . . . . . . . . . . . . . .
 72
   65
 73
    2
 40
6.35
 49
0
 74
    0
 49
-6.35
 74
    0
  0
LTYPE
  5
33
330
5
100
AcDbSymbolTableRecord
100
AcDbLinetypeTableRecord
  2
DOTTINY
 70
    0
  3
Dot (.15x) .....................................
 72
   65
 73
    2
 40
0.9525
 49
0
 74
    0
 49
-0.9525
 74
    0
  0
LTYPE
  5
34
330
5
100
AcDbSymbolTableRecord
100
AcDbLinetypeTableRecord
  2
DOT2
 70
    0
  3
Dot (.5x) .....................................
 72
   65
 73
    2
 40
3.175
 49
0
 74
    0
 49
-3.175
 74
    0
  0
LTYPE
  5
35
330
5
100
AcDbSymbolTableRecord
100
AcDbLinetypeTableRecord
  2
DOTX2
 70
    0
  3
Dot (2x) .  .  .  .  .  .  .  .  .  .  .  .  .
 72
   65
 73
    2
 40
12.7
 49
0
 74
    0
 49
-12.7
 74
    0
  0
LTYPE
  5
36
330
5
100
AcDbSymbolTableRecord
100
AcDbLinetypeTableRecord
  2
DASHED
 70
    0
  3
Dashed _ _ _ _ _ _ _ _ _ _ _ _ _ _ _ _ _
 72
   65
 73
    2
 40
19.05
 49
12.7
 74
    0
 49
-6.35
 74
    0
  0
LTYPE
  5
37
330
5
100
AcDbSymbolTableRecord
100
AcDbLinetypeTableRecord
  2
DASHEDTINY
 70
    0
  3
Dashed (.15x) _ _ _ _ _ _ _ _ _ _ _ _ _ _ _ _ _
 72
   65
 73
    2
 40
2.8575
 49
1.905
 74
    0
 49
-0.9525
 74
    0
  0
LTYPE
  5
38
330
5
100
AcDbSymbolTableRecord
100
AcDbLinetypeTableRecord
  2
DASHED2
 70
    0
  3
Dashed (.5x) _ _ _ _ _ _ _ _ _ _ _ _ _ _ _ _ _
 72
   65
 73
    2
 40
9.524999999999999
 49
6.35
 74
    0
 49
-3.175
 74
    0
  0
LTYPE
  5
39
330
5
100
AcDbSymbolTableRecord
100
AcDbLinetypeTableRecord
  2
DASHEDX2
 70
    0
  3
Dashed (2x) ____  ____  ____  ____  ____  ___
 72
   65
 73
    2
 40
38.09999999999999
 49
25.4
 74
    0
 49
-12.7
 74
    0
  0
LTYPE
  5
3A
330
5
100
AcDbSymbolTableRecord
100
AcDbLinetypeTableRecord
  2
DASHDOT
 70
    0
  3
Dash dot __ . __ . __ . __ . __ . __ . __ . __
 72
   65
 73
    4
 40
25.4
 49
12.7
 74
    0
 49
-6.35
 74
    0
 49
0
 74
    0
 49
-6.35
 74
    0
  0
LTYPE
  5
3B
330
5
100
AcDbSymbolTableRecord
100
AcDbLinetypeTableRecord
  2
DASHDOTTINY
 70
    0
  3
Dash dot (.15x) _._._._._._._._._._._._._._._.
 72
   65
 73
    4
 40
3.81
 49
1.905
 74
    0
 49
-0.9525
 74
    0
 49
0
 74
    0
 49
-0.9525
 74
    0
  0
LTYPE
  5
3C
330
5
100
AcDbSymbolTableRecord
100
AcDbLinetypeTableRecord
  2
DASHDOT2
 70
    0
  3
Dash dot (.5x) _._._._._._._._._._._._._._._.
 72
   65
 73
    4
 40
12.7
 49
6.35
 74
    0
 49
-3.175
 74
    0
 49
0
 74
    0
 49
-3.175
 74
    0
  0
LTYPE
  5
3D
330
5
100
AcDbSymbolTableRecord
100
AcDbLinetypeTableRecord
  2
DASHDOTX2
 70
    0
  3
Dash dot (2x) ____  .  ____  .  ____  .  ___
 72
   65
 73
    4
 40
50.8
 49
25.4
 74
    0
 49
-12.7
 74
    0
 49
0
 74
    0
 49
-12.7
 74
    0
  0
LTYPE
  5
3E
330
5
100
AcDbSymbolTableRecord
100
AcDbLinetypeTableRecord
  2
DIVIDE
 70
    0
  3
Divide ____ . . ____ . . ____ . . ____ . . ____
 72
   65
 73
    6
 40
31.75
 49
12.7
 74
    0
 49
-6.35
 74
    0
 49
0
 74
    0
 49
-6.35
 74
    0
 49
0
 74
    0
 49
-6.35
 74
    0
  0
LTYPE
  5
3F
330
5
100
AcDbSymbolTableRecord
100
AcDbLinetypeTableRecord
  2
DIVIDETINY
 70
    0
  3
Divide (.15x) __..__..__..__..__..__..__..__.._
 72
   65
 73
    6
 40
4.7625
 49
1.905
 74
    0
 49
-0.9525
 74
    0
 49
0
 74
    0
 49
-0.9525
 74
    0
 49
0
 74
    0
 49
-0.9525
 74
    0
  0
LTYPE
  5
40
330
5
100
AcDbSymbolTableRecord
100
AcDbLinetypeTableRecord
  2
DIVIDE2
 70
    0
  3
Divide (.5x) __..__..__..__..__..__..__..__.._
 72
   65
 73
    6
 40
15.875
 49
6.35
 74
    0
 49
-3.175
 74
    0
 49
0
 74
    0
 49
-3.175
 74
    0
 49
0
 74
    0
 49
-3.175
 74
    0
  0
LTYPE
  5
41
330
5
100
AcDbSymbolTableRecord
100
AcDbLinetypeTableRecord
  2
DIVIDEX2
 70
    0
  3
Divide (2x) ________  .  .  ________  .  .  _
 72
   65
 73
    6
 40
63.5
 49
25.4
 74
    0
 49
-12.7
 74
    0
 49
0
 74
    0
 49
-12.7
 74
    0
 49
0
 74
    0
 49
-12.7
 74
    0
  0
LTYPE
  5
42
330
5
100
AcDbSymbolTableRecord
100
AcDbLinetypeTableRecord
  2
BORDER
 70
    0
  3
Border __ __ . __ __ . __ __ . __ __ . __ __ .
 72
   65
 73
    6
 40
44.45
 49
12.7
 74
    0
 49
-6.35
 74
    0
 49
12.7
 74
    0
 49
-6.35
 74
    0
 49
0
 74
    0
 49
-6.35
 74
    0
  0
LTYPE
  5
43
330
5
100
AcDbSymbolTableRecord
100
AcDbLinetypeTableRecord
  2
BORDERTINY
 70
    0
  3
Border (.15x) __.__.__.__.__.__.__.__.__.__.__.
 72
   65
 73
    6
 40
6.6675
 49
1.905
 74
    0
 49
-0.9525
 74
    0
 49
1.905
 74
    0
 49
-0.9525
 74
    0
 49
0
 74
    0
 49
-0.9525
 74
    0
  0
LTYPE
  5
44
330
5
100
AcDbSymbolTableRecord
100
AcDbLinetypeTableRecord
  2
BORDER2
 70
    0
  3
Border (.5x) __.__.__.__.__.__.__.__.__.__.__.
 72
   65
 73
    6
 40
22.225
 49
6.35
 74
    0
 49
-3.175
 74
    0
 49
6.35
 74
    0
 49
-3.175
 74
    0
 49
0
 74
    0
 49
-3.175
 74
    0
  0
LTYPE
  5
45
330
5
100
AcDbSymbolTableRecord
100
AcDbLinetypeTableRecord
  2
BORDERX2
 70
    0
  3
Border (2x) ____  ____  .  ____  ____  .  ___
 72
   65
 73
    6
 40
88.89999999999999
 49
25.4
 74
    0
 49
-12.7
 74
    0
 49
25.4
 74
    0
 49
-12.7
 74
    0
 49
0
 74
    0
 49
-12.7
 74
    0
  0
LTYPE
  5
46
330
5
100
AcDbSymbolTableRecord
100
AcDbLinetypeTableRecord
  2
CENTER
 70
    0
  3
Center ____ _ ____ _ ____ _ ____ _ ____ _ ____
 72
   65
 73
    4
 40
50.8
 49
31.75
 74
    0
 49
-6.35
 74
    0
 49
6.35
 74
    0
 49
-6.35
 74
    0
  0
LTYPE
  5
47
330
5
100
AcDbSymbolTableRecord
100
AcDbLinetypeTableRecord
  2
CENTERTINY
 70
    0
  3
Center (.15x) ___ _ ___ _ ___ _ ___ _ ___ _ ___
 72
   65
 73
    4
 40
7.62
 49
4.7625
 74
    0
 49
-0.9525
 74
    0
 49
0.9525
 74
    0
 49
-0.9525
 74
    0
  0
LTYPE
  5
48
330
5
100
AcDbSymbolTableRecord
100
AcDbLinetypeTableRecord
  2
CENTER2
 70
    0
  3
Center (.5x) ___ _ ___ _ ___ _ ___ _ ___ _ ___
 72
   65
 73
    4
 40
28.575
 49
19.05
 74
    0
 49
-3.175
 74
    0
 49
3.175
 74
    0
 49
-3.175
 74
    0
  0
LTYPE
  5
49
330
5
100
AcDbSymbolTableRecord
100
AcDbLinetypeTableRecord
  2
CENTERX2
 70
    0
  3
Center (2x) ________  __  ________  __  _____
 72
   65
 73
    4
 40
101.6
 49
63.5
 74
    0
 49
-12.7
 74
    0
 49
12.7
 74
    0
 49
-12.7
 74
    0
  0
ENDTAB
  0
TABLE
  2
LAYER
  5
2
330
0
100
AcDbSymbolTable
 70
    1
  0
LAYER
  5
10
330
2
100
AcDbSymbolTableRecord
100
AcDbLayerTableRecord
  2
0
 70
    4
 62
    3
  6
CONTINUOUS
370
    0
390
F
  0
LAYER
  5
4A
330
2
100
AcDbSymbolTableRecord
100
AcDbLayerTableRecord
  2
Construction
 70
    5
 62
  216
420
8388736
  6
CONTINUOUS
290
0
370
    0
390
F
  0
LAYER
  5
4B
330
2
100
AcDbSymbolTableRecord
100
AcDbLayerTableRecord
  2
I2C_Module
 70
    0
 62
    6
  6
CONTINUOUS
370
    0
390
F
  0
LAYER
  5
4C
330
2
100
AcDbSymbolTableRecord
100
AcDbLayerTableRecord
  2
PCB_Hand
 70
    4
 62
    4
  6
CONTINUOUS
370
    0
390
F
  0
LAYER
  5
4D
330
2
100
AcDbSymbolTableRecord
100
AcDbLayerTableRecord
  2
PCB_Main
 70
    4
 62
    2
  6
CONTINUOUS
370
    0
390
F
  0
LAYER
  5
4E
330
2
100
AcDbSymbolTableRecord
100
AcDbLayerTableRecord
  2
Part Placement Guide
 70
    0
 62
    1
  6
CONTINUOUS
370
    0
390
F
  0
ENDTAB
  0
TABLE
  2
STYLE
  5
3
330
0
100
AcDbSymbolTable
 70
    3
  0
STYLE
  5
4F
330
2
100
AcDbSymbolTableRecord
100
AcDbTextStyleTableRecord
  2
cursive
 70
    0
 40
0
 41
1
 50
0
 71
    0
 42
1
  3
cursive
  4

  0
STYLE
  5
50
330
2
100
AcDbSymbolTableRecord
100
AcDbTextStyleTableRecord
  2
Standard
 70
    0
 40
0
 41
1
 50
0
 71
    0
 42
1
  3
txt
  4

  0
ENDTAB
  0
TABLE
  2
VIEW
  5
6
330
0
100
AcDbSymbolTable
 70
    0
  0
ENDTAB
  0
TABLE
  2
UCS
  5
7
330
0
100
AcDbSymbolTable
 70
    0
  0
ENDTAB
  0
TABLE
  2
APPID
  5
9
330
0
100
AcDbSymbolTable
 70
    1
  0
APPID
  5
12
330
9
100
AcDbSymbolTableRecord
100
AcDbRegAppTableRecord
  2
ACAD
 70
    0
  0
APPID
  5
51
330
9
100
AcDbSymbolTableRecord
100
AcDbRegAppTableRecord
  2
LibreCad
 70
    0
  0
ENDTAB
  0
TABLE
  2
DIMSTYLE
  5
A
330
0
100
AcDbSymbolTable
 70
    1
100
AcDbDimStyleTable
 71
    1
  0
DIMSTYLE
105
52
330
A
100
AcDbSymbolTableRecord
100
AcDbDimStyleTableRecord
  2
Standard
 70
    0
 40
1
 41
2.5
 42
0.625
 43
0.38
 44
1.25
 45
0
 46
0
 47
0
 48
0
 49
1
140
2.5
141
0.09
142
0
143
25.4
144
1
145
0
146
1
147
0.625
148
0
 71
    0
 72
    0
 73
    0
 74
    1
 75
    0
 76
    0
 77
    0
 78
    8
 79
    0
170
    0
171
    2
172
    0
173
    0
174
    0
175
    0
176
    0
177
    0
178
    0
179
    0
271
    2
272
    4
273
    2
274
    2
275
    0
276
    0
277
    2
278
   44
279
    0
280
    0
281
    0
282
    0
283
    1
284
    0
285
    0
286
    0
288
    0
289
    3
340
STANDARD
341

371
   -2
372
   -2
  0
ENDTAB
  0
TABLE
  2
BLOCK_RECORD
  5
1
330
0
100
AcDbSymbolTable
 70
    2
  0
BLOCK_RECORD
  5
1F
330
1
100
AcDbSymbolTableRecord
100
AcDbBlockTableRecord
  2
*Model_Space
 70
    0
280
    1
281
    0
  0
BLOCK_RECORD
  5
1E
330
1
100
AcDbSymbolTableRecord
100
AcDbBlockTableRecord
  2
*Paper_Space
 70
    0
280
    1
281
    0
  0
ENDTAB
  0
ENDSEC
  0
SECTION
  2
BLOCKS
  0
BLOCK
  5
20
330
1F
100
AcDbEntity
  8
0
100
AcDbBlockBegin
  2
*Model_Space
 70
    0
 10
0
 20
0
 30
0
  3
*Model_Space
  1

  0
ENDBLK
  5
21
330
1F
100
AcDbEntity
  8
0
100
AcDbBlockEnd
  0
BLOCK
  5
1C
330
1B
100
AcDbEntity
  8
0
100
AcDbBlockBegin
  2
*Paper_Space
 70
    0
 10
0
 20
0
 30
0
  3
*Paper_Space
  1

  0
ENDBLK
  5
1D
330
1F
100
AcDbEntity
  8
0
100
AcDbBlockEnd
  0
ENDSEC
  0
SECTION
  2
ENTITIES
  0
LWPOLYLINE
  5
53
100
AcDbEntity
  8
0
  6
ByLayer
 62
  256
370
   -1
100
AcDbPolyline
 90
    4
 70
    1
 43
0
 10
0
 20
0
 10
13.79188117034666
 20
-2.931554840530407
 10
16.72343601087707
 20
10.86032632981625
 10
2.931554840530407
 20
13.79188117034666
  0
LWPOLYLINE
  5
54
100
AcDbEntity
  8
0
  6
ByLayer
 62
  256
370
   -1
100
AcDbPolyline
 90
    4
 70
    1
 43
0
 10
19.07387821430921
 20
-4.054277970946307
 10
32.86575938465587
 20
-6.985832811476715
 10
35.79731422518628
 20
6.806048358869946
 10
22.00543305483962
 20
9.737603199400352
  0
LWPOLYLINE
  5
55
100
AcDbEntity
  8
0
  6
ByLayer
 62
  256
370
   -1
100
AcDbPolyline
 90
    4
 70
    1
 43
0
 10
4.054277970946307
 20
19.07387821430921
 10
17.84615914129297
 20
16.1423233737788
 10
20.77771398182337
 20
29.93420454412547
 10
6.985832811476715
 20
32.86575938465587
  0
LWPOLYLINE
  5
56
100
AcDbEntity
  8
0
  6
ByLayer
 62
  256
370
   -1
100
AcDbPolyline
 90
    4
 70
    1
 43
0
 10
23.12815618525552
 20
15.0196002433629
 10
36.92003735560218
 20
12.0880454028325
 10
39.85159219613259
 20
25.87992657317916
 10
26.05971102578593
 20
28.81148141370956
  0
LWPOLYLINE
  5
57
100
AcDbEntity
  8
0
  6
ByLayer
 62
  256
370
   -1
100
AcDbPolyline
 90
    4
 70
    1
 43
0
 10
8.108555941892615
 20
38.14775642861842
 10
21.90043711223927
 20
35.21620158808801
 10
24.83199195276968
 20
49.00808275843467
 10
11.04011078242302
 20
51.93963759896508
  0
LWPOLYLINE
  5
58
100
AcDbEntity
  8
0
  6
ByLayer
 62
  256
370
   -1
100
AcDbPolyline
 90
    4
 70
    1
 43
0
 10
27.18243415620183
 20
34.09347845767211
 10
40.97431532654848
 20
31.16192361714171
 10
43.90587016707889
 20
44.95380478748837
 10
30.11398899673223
 20
47.88535962801878
  0
LWPOLYLINE
  5
59
100
AcDbEntity
  8
0
  6
ByLayer
 62
  256
370
   -1
100
AcDbPolyline
 90
    4
 70
    1
 43
0
 10
12.16283391283892
 20
57.22163464292763
 10
25.95471508318558
 20
54.29007980239722
 10
28.88626992371599
 20
68.08196097274389
 10
15.09438875336933
 20
71.01351581327428
  0
LWPOLYLINE
  5
5A
100
AcDbEntity
  8
0
  6
ByLayer
 62
  256
370
   -1
100
AcDbPolyline
 90
    4
 70
    1
 43
0
 10
31.23671212714813
 20
53.16735667198132
 10
45.02859329749479
 20
50.23580183145092
 10
47.9601481380252
 20
64.02768300179757
 10
34.16826696767854
 20
66.95923784232798
  0
LWPOLYLINE
  5
5B
100
AcDbEntity
  8
0
  6
ByLayer
 62
  256
370
   -1
100
AcDbPolyline
 90
    4
 70
    1
 43
0
 10
38.87544734648058
 20
-4.685039339324295
 10
52.66732851682724
 20
-7.616594179854702
 10
55.59888335735765
 20
6.17528699049196
 10
41.80700218701099
 20
9.106841831022367
  0
LWPOLYLINE
  5
5C
100
AcDbEntity
  8
0
  6
ByLayer
 62
  256
370
   -1
100
AcDbPolyline
 90
    4
 70
    1
 43
0
 10
77.02320377509901
 20
-12.79359528121691
 10
90.81508494544566
 20
-15.72515012174731
 10
93.74663978597606
 20
-1.933268951400653
 10
79.9547586156294
 20
0.9982858891297528
  0
LWPOLYLINE
  5
5D
100
AcDbEntity
  8
0
  6
ByLayer
 62
  256
370
   -1
100
AcDbPolyline
 90
    4
 70
    1
 43
0
 10
96.09708198940821
 20
-16.84787325216321
 10
109.8889631597549
 20
-19.77942809269362
 10
112.8205180002853
 20
-5.98754692234696
 10
99.02863682993862
 20
-3.055992081816554
  0
LWPOLYLINE
  5
5E
100
AcDbEntity
  8
0
  6
ByLayer
 62
  256
370
   -1
100
AcDbPolyline
 90
    4
 70
    1
 43
0
 10
42.92972531742689
 20
14.38883887498492
 10
56.72160648777355
 20
11.45728403445451
 10
59.65316132830395
 20
25.24916520480117
 10
45.8612801579573
 20
28.18072004533158
  0
LWPOLYLINE
  5
5F
100
AcDbEntity
  8
0
  6
ByLayer
 62
  256
370
   -1
100
AcDbPolyline
 90
    4
 70
    1
 43
0
 10
81.07748174604531
 20
6.280282933092302
 10
94.86936291639196
 20
3.348728092561897
 10
97.80091775692237
 20
17.14060926290856
 10
84.00903658657572
 20
20.07216410343896
  0
LWPOLYLINE
  5
60
100
AcDbEntity
  8
0
  6
ByLayer
 62
  256
370
   -1
100
AcDbPolyline
 90
    4
 70
    1
 43
0
 10
100.1513599603545
 20
2.226004962145995
 10
113.9432411307012
 20
-0.7055498783844106
 10
116.8747959712316
 20
13.08633129196225
 10
103.0829148008849
 20
16.01788613249266
  0
LWPOLYLINE
  5
61
100
AcDbEntity
  8
0
  6
ByLayer
 62
  256
370
   -1
100
AcDbPolyline
 90
    4
 70
    1
 43
0
 10
46.9840032883732
 20
33.46271708929413
 10
60.77588445871986
 20
30.53116224876372
 10
63.70743929925026
 20
44.32304341911038
 10
49.9155581289036
 20
47.25459825964079
  0
LWPOLYLINE
  5
62
100
AcDbEntity
  8
0
  6
ByLayer
 62
  256
370
   -1
100
AcDbPolyline
 90
    4
 70
    1
 43
0
 10
85.13175971699161
 20
25.35416114740151
 10
98.92364088733827
 20
22.42260630687111
 10
101.8551957278687
 20
36.21448747721777
 10
88.06331455752202
 20
39.14604231774818
  0
LWPOLYLINE
  5
63
100
AcDbEntity
  8
0
  6
ByLayer
 62
  256
370
   -1
100
AcDbPolyline
 90
    4
 70
    1
 43
0
 10
104.2056379313008
 20
21.29988317645521
 10
117.9975191016475
 20
18.3683283359248
 10
120.9290739421779
 20
32.16020950627146
 10
107.1371927718312
 20
35.09176434680187
  0
LWPOLYLINE
  5
64
100
AcDbEntity
  8
0
  6
ByLayer
 62
  256
370
   -1
100
AcDbPolyline
 90
    4
 70
    1
 43
0
 10
51.0382812593195
 20
52.53659530360334
 10
64.83016242966616
 20
49.60504046307293
 10
67.76171727019657
 20
63.39692163341959
 10
53.96983609984991
 20
66.32847647394999
  0
LWPOLYLINE
  5
65
100
AcDbEntity
  8
0
  6
ByLayer
 62
  256
370
   -1
100
AcDbPolyline
 90
    4
 70
    1
 43
0
 10
89.18603768793793
 20
44.42803936171072
 10
102.9779188582846
 20
41.49648452118032
 10
105.909473698815
 20
55.28836569152697
 10
92.11759252846832
 20
58.21992053205738
  0
LWPOLYLINE
  5
66
100
AcDbEntity
  8
0
  6
ByLayer
 62
  256
370
   -1
100
AcDbPolyline
 90
    4
 70
    1
 43
0
 10
108.2599159022471
 20
40.37376139076441
 10
122.0517970725938
 20
37.44220655023401
 10
124.9833519131242
 20
51.23408772058067
 10
111.1914707427775
 20
54.16564256111107
  0
LWPOLYLINE
  5
67
100
AcDbEntity
  8
0
  6
ByLayer
 62
  256
370
   -1
100
AcDbPolyline
 90
    4
 70
    1
 43
0
 10
58.67701647865195
 20
-5.315800707702282
 10
72.46889764899861
 20
-8.247355548232687
 10
75.40045248952902
 20
5.544525622113975
 10
61.60857131918235
 20
8.476080462644379
  0
LWPOLYLINE
  5
68
100
AcDbEntity
  8
0
  6
ByLayer
 62
  256
370
   -1
100
AcDbPolyline
 90
    4
 70
    1
 43
0
 10
62.73129444959825
 20
13.75807750660693
 10
76.52317561994491
 20
10.82652266607652
 10
79.45473046047532
 20
24.61840383642318
 10
65.66284929012866
 20
27.54995867695359
  0
LWPOLYLINE
  5
69
100
AcDbEntity
  8
0
  6
ByLayer
 62
  256
370
   -1
100
AcDbPolyline
 90
    4
 70
    1
 43
0
 10
66.78557242054457
 20
32.83195572091614
 10
80.57745359089122
 20
29.90040088038574
 10
83.50900843142162
 20
43.69228205073239
 10
69.71712726107496
 20
46.6238368912628
  0
LWPOLYLINE
  5
6A
100
AcDbEntity
  8
0
  6
ByLayer
 62
  256
370
   -1
100
AcDbPolyline
 90
    4
 70
    1
 43
0
 10
70.83985039149087
 20
51.90583393522535
 10
84.63173156183753
 20
48.97427909469494
 10
87.56328640236794
 20
62.7661602650416
 10
73.77140523202128
 20
65.697715105572
  0
LINE
  5
6B
100
AcDbEntity
  8
Construction
  6
ByLayer
 62
  256
370
   -1
100
AcDbLine
 10
111.3547405800201
 20
-12.88348750752029
 11
105.1173898554873
 21
-42.22791552953446
  0
LWPOLYLINE
  5
6C
100
AcDbEntity
  8
0
  6
ByLayer
 62
  256
370
   -1
100
AcDbPolyline
 90
    4
 70
    1
 43
0
 10
112.3358388013461
 20
-28.06091179493941
 10
124.8990307924021
 20
-34.46217784126702
 10
131.3002968387297
 20
-21.89898585021103
 10
118.7371048476737
 20
-15.49771980388342
  0
LWPOLYLINE
  5
6D
100
AcDbEntity
  8
0
  6
ByLayer
 62
  256
370
   -1
100
AcDbPolyline
 90
    4
 70
    1
 43
0
 10
129.7104660230193
 20
-36.91372653986058
 10
142.2736580140752
 20
-43.31499258618818
 10
148.6749240604028
 20
-30.75180059513219
 10
136.1117320693469
 20
-24.35053454880459
  0
LWPOLYLINE
  5
6E
100
AcDbEntity
  8
0
  6
ByLayer
 62
  256
370
   -1
100
AcDbPolyline
 90
    4
 70
    1
 43
0
 10
121.1886535462672
 20
-10.68628457326624
 10
133.7518455373232
 20
-17.08755061959384
 10
140.1531115836508
 20
-4.524358628537854
 10
127.5899195925949
 20
1.87690741778975
  0
LWPOLYLINE
  5
6F
100
AcDbEntity
  8
0
  6
ByLayer
 62
  256
370
   -1
100
AcDbPolyline
 90
    4
 70
    1
 43
0
 10
138.5632807679404
 20
-19.5390993181874
 10
151.1264727589964
 20
-25.94036536451501
 10
157.527738805324
 20
-13.37717337345902
 10
144.964546814268
 20
-6.975907327131412
  0
LINE
  5
70
100
AcDbEntity
  8
Construction
  6
ByLayer
 62
  256
370
   -1
100
AcDbLine
 10
118.0874113279509
 20
52.69986514084587
 11
115.1558564874205
 21
38.90798397049922
  0
LINE
  5
71
100
AcDbEntity
  8
Construction
  6
ByLayer
 62
  256
370
   -1
100
AcDbLine
 10
109.7256933225123
 20
47.26970197593774
 11
123.517574492859
 21
44.33814713540734
  0
LINE
  5
72
100
AcDbEntity
  8
Construction
  6
ByLayer
 62
  256
370
   -1
100
AcDbLine
 10
116.6216339076857
 20
45.80392455567254
 11
166.6216339076857
 21
45.80392455567254
  0
LINE
  5
73
100
AcDbEntity
  8
Construction
  6
ByLayer
 62
  256
370
   -1
100
AcDbLine
 10
166.6216339076857
 20
45.80392455567254
 11
166.6216339076857
 21
95.80392455567254
  0
LWPOLYLINE
  5
74
100
AcDbEntity
  8
0
  6
ByLayer
 62
  256
370
   -1
100
AcDbPolyline
 90
    4
 70
    1
 43
0
 10
333.2432678153713
 20
0
 10
319.4513866450247
 20
-2.931554840530413
 10
316.5198318044943
 20
10.86032632981625
 10
330.3117129748409
 20
13.79188117034665
  0
LWPOLYLINE
  5
75
100
AcDbEntity
  8
0
  6
ByLayer
 62
  256
370
   -1
100
AcDbPolyline
 90
    4
 70
    1
 43
0
 10
314.1693896010621
 20
-4.054277970946297
 10
300.3775084307155
 20
-6.985832811476709
 10
297.4459535901851
 20
6.806048358869942
 10
311.2378347605317
 20
9.737603199400356
  0
LWPOLYLINE
  5
76
100
AcDbEntity
  8
0
  6
ByLayer
 62
  256
370
   -1
100
AcDbPolyline
 90
    4
 70
    1
 43
0
 10
329.188989844425
 20
19.0738782143092
 10
315.3971086740784
 20
16.1423233737788
 10
312.465553833548
 20
29.93420454412546
 10
326.2574350038946
 20
32.86575938465587
  0
LWPOLYLINE
  5
77
100
AcDbEntity
  8
0
  6
ByLayer
 62
  256
370
   -1
100
AcDbPolyline
 90
    4
 70
    1
 43
0
 10
310.1151116301158
 20
15.0196002433629
 10
296.3232304597691
 20
12.0880454028325
 10
293.3916756192388
 20
25.87992657317916
 10
307.1835567895854
 20
28.81148141370956
  0
LWPOLYLINE
  5
78
100
AcDbEntity
  8
0
  6
ByLayer
 62
  256
370
   -1
100
AcDbPolyline
 90
    4
 70
    1
 43
0
 10
325.1347118734787
 20
38.14775642861842
 10
311.3428307031321
 20
35.21620158808801
 10
308.4112758626017
 20
49.00808275843467
 10
322.2031570329483
 20
51.93963759896508
  0
LWPOLYLINE
  5
79
100
AcDbEntity
  8
0
  6
ByLayer
 62
  256
370
   -1
100
AcDbPolyline
 90
    4
 70
    1
 43
0
 10
306.0608336591695
 20
34.09347845767211
 10
292.2689524888228
 20
31.16192361714171
 10
289.3373976482924
 20
44.95380478748837
 10
303.1292788186391
 20
47.88535962801878
  0
LWPOLYLINE
  5
7A
100
AcDbEntity
  8
0
  6
ByLayer
 62
  256
370
   -1
100
AcDbPolyline
 90
    4
 70
    1
 43
0
 10
321.0804339025324
 20
57.22163464292763
 10
307.2885527321857
 20
54.29007980239722
 10
304.3569978916553
 20
68.08196097274389
 10
318.148879062002
 20
71.01351581327428
  0
LWPOLYLINE
  5
7B
100
AcDbEntity
  8
0
  6
ByLayer
 62
  256
370
   -1
100
AcDbPolyline
 90
    4
 70
    1
 43
0
 10
302.0065556882232
 20
53.16735667198132
 10
288.2146745178765
 20
50.23580183145092
 10
285.2831196773461
 20
64.02768300179757
 10
299.0750008476928
 20
66.95923784232798
  0
LWPOLYLINE
  5
7C
100
AcDbEntity
  8
0
  6
ByLayer
 62
  256
370
   -1
100
AcDbPolyline
 90
    4
 70
    1
 43
0
 10
294.3678204688907
 20
-4.685039339324302
 10
280.5759392985441
 20
-7.6165941798547
 10
277.6443844580137
 20
6.175286990491964
 10
291.4362656283603
 20
9.106841831022363
  0
LWPOLYLINE
  5
7D
100
AcDbEntity
  8
0
  6
ByLayer
 62
  256
370
   -1
100
AcDbPolyline
 90
    4
 70
    1
 43
0
 10
256.2200640402723
 20
-12.79359528121692
 10
242.4281828699256
 20
-15.72515012174731
 10
239.4966280293953
 20
-1.933268951400659
 10
253.2885091997419
 20
0.998285889129755
  0
LWPOLYLINE
  5
7E
100
AcDbEntity
  8
0
  6
ByLayer
 62
  256
370
   -1
100
AcDbPolyline
 90
    4
 70
    1
 43
0
 10
237.1461858259631
 20
-16.84787325216322
 10
223.3543046556165
 20
-19.77942809269362
 10
220.422749815086
 20
-5.987546922346956
 10
234.2146309854327
 20
-3.055992081816542
  0
LWPOLYLINE
  5
7F
100
AcDbEntity
  8
0
  6
ByLayer
 62
  256
370
   -1
100
AcDbPolyline
 90
    4
 70
    1
 43
0
 10
290.3135424979445
 20
14.38883887498492
 10
276.5216613275978
 20
11.45728403445451
 10
273.5901064870674
 20
25.24916520480117
 10
287.381987657414
 20
28.18072004533158
  0
LWPOLYLINE
  5
80
100
AcDbEntity
  8
0
  6
ByLayer
 62
  256
370
   -1
100
AcDbPolyline
 90
    4
 70
    1
 43
0
 10
252.165786069326
 20
6.280282933092302
 10
238.3739048989794
 20
3.348728092561901
 10
235.4423500584489
 20
17.14060926290856
 10
249.2342312287956
 20
20.07216410343896
  0
LWPOLYLINE
  5
81
100
AcDbEntity
  8
0
  6
ByLayer
 62
  256
370
   -1
100
AcDbPolyline
 90
    4
 70
    1
 43
0
 10
233.0919078550168
 20
2.226004962145991
 10
219.3000266846702
 20
-0.7055498783844095
 10
216.3684718441397
 20
13.08633129196225
 10
230.1603530144864
 20
16.01788613249266
  0
LWPOLYLINE
  5
82
100
AcDbEntity
  8
0
  6
ByLayer
 62
  256
370
   -1
100
AcDbPolyline
 90
    4
 70
    1
 43
0
 10
286.2592645269982
 20
33.46271708929413
 10
272.4673833566515
 20
30.53116224876372
 10
269.5358285161211
 20
44.32304341911038
 10
283.3277096864678
 20
47.25459825964079
  0
LWPOLYLINE
  5
83
100
AcDbEntity
  8
0
  6
ByLayer
 62
  256
370
   -1
100
AcDbPolyline
 90
    4
 70
    1
 43
0
 10
248.1115080983797
 20
25.35416114740151
 10
234.3196269280331
 20
22.42260630687111
 10
231.3880720875026
 20
36.21448747721777
 10
245.1799532578493
 20
39.14604231774818
  0
LWPOLYLINE
  5
84
100
AcDbEntity
  8
0
  6
ByLayer
 62
  256
370
   -1
100
AcDbPolyline
 90
    4
 70
    1
 43
0
 10
229.0376298840705
 20
21.29988317645521
 10
215.2457487137239
 20
18.36832833592481
 10
212.3141938731934
 20
32.16020950627146
 10
226.1060750435401
 20
35.09176434680187
  0
LWPOLYLINE
  5
85
100
AcDbEntity
  8
0
  6
ByLayer
 62
  256
370
   -1
100
AcDbPolyline
 90
    4
 70
    1
 43
0
 10
282.2049865560518
 20
52.53659530360334
 10
268.4131053857052
 20
49.60504046307293
 10
265.4815505451747
 20
63.39692163341959
 10
279.2734317155214
 20
66.32847647394999
  0
LWPOLYLINE
  5
86
100
AcDbEntity
  8
0
  6
ByLayer
 62
  256
370
   -1
100
AcDbPolyline
 90
    4
 70
    1
 43
0
 10
244.0572301274334
 20
44.42803936171072
 10
230.2653489570868
 20
41.49648452118032
 10
227.3337941165564
 20
55.28836569152697
 10
241.125675286903
 20
58.21992053205738
  0
LWPOLYLINE
  5
87
100
AcDbEntity
  8
0
  6
ByLayer
 62
  256
370
   -1
100
AcDbPolyline
 90
    4
 70
    1
 43
0
 10
224.9833519131242
 20
40.37376139076441
 10
211.1914707427775
 20
37.44220655023401
 10
208.2599159022471
 20
51.23408772058067
 10
222.0517970725938
 20
54.16564256111107
  0
LWPOLYLINE
  5
88
100
AcDbEntity
  8
0
  6
ByLayer
 62
  256
370
   -1
100
AcDbPolyline
 90
    4
 70
    1
 43
0
 10
274.5662513367193
 20
-5.315800707702278
 10
260.7743701663727
 20
-8.247355548232679
 10
257.8428153258423
 20
5.544525622113971
 10
271.634696496189
 20
8.476080462644372
  0
LWPOLYLINE
  5
89
100
AcDbEntity
  8
0
  6
ByLayer
 62
  256
370
   -1
100
AcDbPolyline
 90
    4
 70
    1
 43
0
 10
270.5119733657731
 20
13.75807750660693
 10
256.7200921954264
 20
10.82652266607653
 10
253.788537354896
 20
24.61840383642318
 10
267.5804185252426
 20
27.54995867695359
  0
LWPOLYLINE
  5
8A
100
AcDbEntity
  8
0
  6
ByLayer
 62
  256
370
   -1
100
AcDbPolyline
 90
    4
 70
    1
 43
0
 10
266.4576953948268
 20
32.83195572091614
 10
252.6658142244801
 20
29.90040088038574
 10
249.7342593839497
 20
43.69228205073239
 10
263.5261405542964
 20
46.6238368912628
  0
LWPOLYLINE
  5
8B
100
AcDbEntity
  8
0
  6
ByLayer
 62
  256
370
   -1
100
AcDbPolyline
 90
    4
 70
    1
 43
0
 10
262.4034174238805
 20
51.90583393522535
 10
248.6115362535338
 20
48.97427909469494
 10
245.6799814130034
 20
62.7661602650416
 10
259.4718625833501
 20
65.697715105572
  0
LWPOLYLINE
  5
8C
100
AcDbEntity
  8
0
  6
ByLayer
 62
  256
370
   -1
100
AcDbPolyline
 90
    4
 70
    1
 43
0
 10
220.9074290140252
 20
-28.06091179493942
 10
208.3442370229693
 20
-34.46217784126702
 10
201.9429709766416
 20
-21.89898585021104
 10
214.5061629676976
 20
-15.49771980388342
  0
LWPOLYLINE
  5
8D
100
AcDbEntity
  8
0
  6
ByLayer
 62
  256
370
   -1
100
AcDbPolyline
 90
    4
 70
    1
 43
0
 10
203.5328017923521
 20
-36.91372653986058
 10
190.9696098012961
 20
-43.31499258618818
 10
184.5683437549685
 20
-30.7518005951322
 10
197.1315357460244
 20
-24.35053454880459
  0
LWPOLYLINE
  5
8E
100
AcDbEntity
  8
0
  6
ByLayer
 62
  256
370
   -1
100
AcDbPolyline
 90
    4
 70
    1
 43
0
 10
212.0546142691041
 20
-10.68628457326625
 10
199.4914222780481
 20
-17.08755061959385
 10
193.0901562317205
 20
-4.524358628537854
 10
205.6533482227765
 20
1.876907417789755
  0
LWPOLYLINE
  5
8F
100
AcDbEntity
  8
0
  6
ByLayer
 62
  256
370
   -1
100
AcDbPolyline
 90
    4
 70
    1
 43
0
 10
194.6799870474309
 20
-19.5390993181874
 10
182.1167950563749
 20
-25.940365364515
 10
175.7155290100473
 20
-13.37717337345901
 10
188.2787210011033
 20
-6.975907327131407
  0
CIRCLE
  5
90
100
AcDbEntity
  8
Part Placement Guide
  6
ByLayer
 62
  256
370
   -1
100
AcDbCircle
 10
20.52455191827745
 20
62.65179780783576
 40
1
  0
CIRCLE
  5
91
100
AcDbEntity
  8
Part Placement Guide
  6
ByLayer
 62
  256
370
   -1
100
AcDbCircle
 10
16.47027394733115
 20
43.57791959352654
 40
1
  0
CIRCLE
  5
92
100
AcDbEntity
  8
Part Placement Guide
  6
ByLayer
 62
  256
370
   -1
100
AcDbCircle
 10
12.41599597638484
 20
24.50404137921733
 40
1
  0
CIRCLE
  5
93
100
AcDbEntity
  8
Part Placement Guide
  6
ByLayer
 62
  256
370
   -1
100
AcDbCircle
 10
8.361718005438536
 20
5.430163164908123
 40
1
  0
CIRCLE
  5
94
100
AcDbEntity
  8
Part Placement Guide
  6
ByLayer
 62
  256
370
   -1
100
AcDbCircle
 10
39.59843013258666
 20
58.59751983688943
 40
1
  0
CIRCLE
  5
95
100
AcDbEntity
  8
Part Placement Guide
  6
ByLayer
 62
  256
370
   -1
100
AcDbCircle
 10
35.54415216164035
 20
39.52364162258021
 40
1
  0
CIRCLE
  5
96
100
AcDbEntity
  8
Part Placement Guide
  6
ByLayer
 62
  256
370
   -1
100
AcDbCircle
 10
31.48987419069405
 20
20.449763408271
 40
1
  0
CIRCLE
  5
97
100
AcDbEntity
  8
Part Placement Guide
  6
ByLayer
 62
  256
370
   -1
100
AcDbCircle
 10
27.43559621974774
 20
1.375885193961793
 40
1
  0
CIRCLE
  5
98
100
AcDbEntity
  8
Part Placement Guide
  6
ByLayer
 62
  256
370
   -1
100
AcDbCircle
 10
59.39999926475803
 20
57.96675846851144
 40
1
  0
CIRCLE
  5
99
100
AcDbEntity
  8
Part Placement Guide
  6
ByLayer
 62
  256
370
   -1
100
AcDbCircle
 10
55.34572129381173
 20
38.89288025420223
 40
1
  0
CIRCLE
  5
9A
100
AcDbEntity
  8
Part Placement Guide
  6
ByLayer
 62
  256
370
   -1
100
AcDbCircle
 10
51.29144332286542
 20
19.81900203989302
 40
1
  0
CIRCLE
  5
9B
100
AcDbEntity
  8
Part Placement Guide
  6
ByLayer
 62
  256
370
   -1
100
AcDbCircle
 10
47.23716535191912
 20
0.7451238255838106
 40
1
  0
CIRCLE
  5
9C
100
AcDbEntity
  8
Part Placement Guide
  6
ByLayer
 62
  256
370
   -1
100
AcDbCircle
 10
79.20156839692939
 20
57.33599710013345
 40
1
  0
CIRCLE
  5
9D
100
AcDbEntity
  8
Part Placement Guide
  6
ByLayer
 62
  256
370
   -1
100
AcDbCircle
 10
75.1472904259831
 20
38.26211888582424
 40
1
  0
CIRCLE
  5
9E
100
AcDbEntity
  8
Part Placement Guide
  6
ByLayer
 62
  256
370
   -1
100
AcDbCircle
 10
71.09301245503679
 20
19.18824067151503
 40
1
  0
CIRCLE
  5
9F
100
AcDbEntity
  8
Part Placement Guide
  6
ByLayer
 62
  256
370
   -1
100
AcDbCircle
 10
67.03873448409048
 20
0.1143624572058144
 40
1
  0
CIRCLE
  5
A0
100
AcDbEntity
  8
Part Placement Guide
  6
ByLayer
 62
  256
370
   -1
100
AcDbCircle
 10
97.54775569337643
 20
49.85820252661881
 40
1
  0
CIRCLE
  5
A1
100
AcDbEntity
  8
Part Placement Guide
  6
ByLayer
 62
  256
370
   -1
100
AcDbCircle
 10
93.49347772243014
 20
30.7843243123096
 40
1
  0
CIRCLE
  5
A2
100
AcDbEntity
  8
Part Placement Guide
  6
ByLayer
 62
  256
370
   -1
100
AcDbCircle
 10
89.43919975148383
 20
11.71044609800039
 40
1
  0
CIRCLE
  5
A3
100
AcDbEntity
  8
Part Placement Guide
  6
ByLayer
 62
  256
370
   -1
100
AcDbCircle
 10
85.38492178053752
 20
-7.363432116308822
 40
1
  0
CIRCLE
  5
A4
100
AcDbEntity
  8
Part Placement Guide
  6
ByLayer
 62
  256
370
   -1
100
AcDbCircle
 10
116.6216339076856
 20
45.80392455567251
 40
1
  0
CIRCLE
  5
A5
100
AcDbEntity
  8
Part Placement Guide
  6
ByLayer
 62
  256
370
   -1
100
AcDbCircle
 10
112.5673559367394
 20
26.7300463413633
 40
1
  0
CIRCLE
  5
A6
100
AcDbEntity
  8
Part Placement Guide
  6
ByLayer
 62
  256
370
   -1
100
AcDbCircle
 10
108.513077965793
 20
7.656168127054087
 40
1
  0
CIRCLE
  5
A7
100
AcDbEntity
  8
Part Placement Guide
  6
ByLayer
 62
  256
370
   -1
100
AcDbCircle
 10
104.4587999948467
 20
-11.41771008725512
 40
1
  0
CIRCLE
  5
A8
100
AcDbEntity
  8
Part Placement Guide
  6
ByLayer
 62
  256
370
   -1
100
AcDbCircle
 10
130.670882564959
 20
-7.605321600902053
 40
1
  0
CIRCLE
  5
A9
100
AcDbEntity
  8
Part Placement Guide
  6
ByLayer
 62
  256
370
   -1
100
AcDbCircle
 10
148.0455097866322
 20
-16.45813634582321
 40
1
  0
CIRCLE
  5
AA
100
AcDbEntity
  8
Part Placement Guide
  6
ByLayer
 62
  256
370
   -1
100
AcDbCircle
 10
139.1926950417111
 20
-33.83276356749639
 40
1
  0
CIRCLE
  5
AB
100
AcDbEntity
  8
Part Placement Guide
  6
ByLayer
 62
  256
370
   -1
100
AcDbCircle
 10
121.8180678200379
 20
-24.97994882257522
 40
1
  0
CIRCLE
  5
AC
100
AcDbEntity
  8
Part Placement Guide
  6
ByLayer
 62
  256
370
   -1
100
AcDbCircle
 10
312.7187158970938
 20
62.65179780783559
 40
1
  0
CIRCLE
  5
AD
100
AcDbEntity
  8
Part Placement Guide
  6
ByLayer
 62
  256
370
   -1
100
AcDbCircle
 10
316.7729938680401
 20
43.57791959352637
 40
1
  0
CIRCLE
  5
AE
100
AcDbEntity
  8
Part Placement Guide
  6
ByLayer
 62
  256
370
   -1
100
AcDbCircle
 10
320.8272718389864
 20
24.50404137921716
 40
1
  0
CIRCLE
  5
AF
100
AcDbEntity
  8
Part Placement Guide
  6
ByLayer
 62
  256
370
   -1
100
AcDbCircle
 10
324.8815498099327
 20
5.430163164907938
 40
1
  0
CIRCLE
  5
B0
100
AcDbEntity
  8
Part Placement Guide
  6
ByLayer
 62
  256
370
   -1
100
AcDbCircle
 10
293.6448376827846
 20
58.59751983688928
 40
1
  0
CIRCLE
  5
B1
100
AcDbEntity
  8
Part Placement Guide
  6
ByLayer
 62
  256
370
   -1
100
AcDbCircle
 10
297.6991156537309
 20
39.52364162258007
 40
1
  0
CIRCLE
  5
B2
100
AcDbEntity
  8
Part Placement Guide
  6
ByLayer
 62
  256
370
   -1
100
AcDbCircle
 10
301.7533936246772
 20
20.44976340827085
 40
1
  0
CIRCLE
  5
B3
100
AcDbEntity
  8
Part Placement Guide
  6
ByLayer
 62
  256
370
   -1
100
AcDbCircle
 10
305.8076715956234
 20
1.375885193961636
 40
1
  0
CIRCLE
  5
B4
100
AcDbEntity
  8
Part Placement Guide
  6
ByLayer
 62
  256
370
   -1
100
AcDbCircle
 10
273.8432685506132
 20
57.96675846851132
 40
1
  0
CIRCLE
  5
B5
100
AcDbEntity
  8
Part Placement Guide
  6
ByLayer
 62
  256
370
   -1
100
AcDbCircle
 10
277.8975465215595
 20
38.8928802542021
 40
1
  0
CIRCLE
  5
B6
100
AcDbEntity
  8
Part Placement Guide
  6
ByLayer
 62
  256
370
   -1
100
AcDbCircle
 10
281.9518244925058
 20
19.81900203989289
 40
1
  0
CIRCLE
  5
B7
100
AcDbEntity
  8
Part Placement Guide
  6
ByLayer
 62
  256
370
   -1
100
AcDbCircle
 10
286.0061024634521
 20
0.7451238255836685
 40
1
  0
CIRCLE
  5
B8
100
AcDbEntity
  8
Part Placement Guide
  6
ByLayer
 62
  256
370
   -1
100
AcDbCircle
 10
254.0416994184419
 20
57.33599710013335
 40
1
  0
CIRCLE
  5
B9
100
AcDbEntity
  8
Part Placement Guide
  6
ByLayer
 62
  256
370
   -1
100
AcDbCircle
 10
258.0959773893882
 20
38.26211888582414
 40
1
  0
CIRCLE
  5
BA
100
AcDbEntity
  8
Part Placement Guide
  6
ByLayer
 62
  256
370
   -1
100
AcDbCircle
 10
262.1502553603344
 20
19.18824067151492
 40
1
  0
CIRCLE
  5
BB
100
AcDbEntity
  8
Part Placement Guide
  6
ByLayer
 62
  256
370
   -1
100
AcDbCircle
 10
266.2045333312807
 20
0.1143624572057007
 40
1
  0
CIRCLE
  5
BC
100
AcDbEntity
  8
Part Placement Guide
  6
ByLayer
 62
  256
370
   -1
100
AcDbCircle
 10
235.6955121219949
 20
49.85820252661873
 40
1
  0
CIRCLE
  5
BD
100
AcDbEntity
  8
Part Placement Guide
  6
ByLayer
 62
  256
370
   -1
100
AcDbCircle
 10
239.7497900929411
 20
30.78432431230951
 40
1
  0
CIRCLE
  5
BE
100
AcDbEntity
  8
Part Placement Guide
  6
ByLayer
 62
  256
370
   -1
100
AcDbCircle
 10
243.8040680638874
 20
11.7104460980003
 40
1
  0
CIRCLE
  5
BF
100
AcDbEntity
  8
Part Placement Guide
  6
ByLayer
 62
  256
370
   -1
100
AcDbCircle
 10
247.8583460348337
 20
-7.363432116308921
 40
1
  0
CIRCLE
  5
C0
100
AcDbEntity
  8
Part Placement Guide
  6
ByLayer
 62
  256
370
   -1
100
AcDbCircle
 10
216.6216339076856
 20
45.80392455567245
 40
1
  0
CIRCLE
  5
C1
100
AcDbEntity
  8
Part Placement Guide
  6
ByLayer
 62
  256
370
   -1
100
AcDbCircle
 10
220.6759118786319
 20
26.73004634136323
 40
1
  0
CIRCLE
  5
C2
100
AcDbEntity
  8
Part Placement Guide
  6
ByLayer
 62
  256
370
   -1
100
AcDbCircle
 10
224.7301898495782
 20
7.656168127054016
 40
1
  0
CIRCLE
  5
C3
100
AcDbEntity
  8
Part Placement Guide
  6
ByLayer
 62
  256
370
   -1
100
AcDbCircle
 10
228.7844678205245
 20
-11.41771008725519
 40
1
  0
CIRCLE
  5
C4
100
AcDbEntity
  8
Part Placement Guide
  6
ByLayer
 62
  256
370
   -1
100
AcDbCircle
 10
202.5723852504122
 20
-7.605321600902093
 40
1
  0
CIRCLE
  5
C5
100
AcDbEntity
  8
Part Placement Guide
  6
ByLayer
 62
  256
370
   -1
100
AcDbCircle
 10
185.197758028739
 20
-16.45813634582323
 40
1
  0
CIRCLE
  5
C6
100
AcDbEntity
  8
Part Placement Guide
  6
ByLayer
 62
  256
370
   -1
100
AcDbCircle
 10
194.0505727736601
 20
-33.83276356749641
 40
1
  0
CIRCLE
  5
C7
100
AcDbEntity
  8
Part Placement Guide
  6
ByLayer
 62
  256
370
   -1
100
AcDbCircle
 10
211.4251999953333
 20
-24.97994882257528
 40
1
  0
LINE
  5
C8
100
AcDbEntity
  8
Construction
  6
ByLayer
 62
  256
370
   -1
100
AcDbLine
 10
315.4168597459687
 20
-9.923163575349129
 11
301.624978575622
 21
-12.85471841587954
  0
LINE
  5
C9
100
AcDbEntity
  8
Construction
  6
ByLayer
 62
  256
370
   -1
100
AcDbLine
 10
223.6313720124625
 20
-33.40695094006963
 11
211.0681800214065
 21
-39.80821698639723
  0
LINE
  5
CA
100
AcDbEntity
  8
Construction
  6
ByLayer
 62
  256
370
   -1
100
AcDbLine
 10
226.0863239716498
 20
61.1572512959298
 11
239.8782051419964
 21
64.08880613646021
  0
LINE
  5
CB
100
AcDbEntity
  8
Construction
  6
ByLayer
 62
  256
370
   -1
100
AcDbLine
 10
244.4325112680968
 20
68.63504586944444
 11
258.2243924384435
 21
71.56660070997484
  0
LINE
  5
CC
100
AcDbEntity
  8
Construction
  6
ByLayer
 62
  256
370
   -1
100
AcDbLine
 10
264.2340804002682
 20
69.26580723782243
 11
278.0259615706149
 21
72.19736207835282
  0
LINE
  5
CD
100
AcDbEntity
  8
Construction
  6
ByLayer
 62
  256
370
   -1
100
AcDbLine
 10
284.0356495324395
 20
69.8965686062004
 11
297.8275307027862
 21
72.82812344673081
  0
LINE
  5
CE
100
AcDbEntity
  8
Construction
  6
ByLayer
 62
  256
370
   -1
100
AcDbLine
 10
321.0833218642034
 20
71.63725088572755
 11
324.0148767047338
 21
57.84536971538091
  0
LINE
  5
CF
100
AcDbEntity
  8
Construction
  6
ByLayer
 62
  256
370
   -1
100
AcDbLine
 10
325.1375998351497
 20
52.56337267141836
 11
328.0691546756801
 21
38.7714915010717
  0
LINE
  5
D0
100
AcDbEntity
  8
Construction
  6
ByLayer
 62
  256
370
   -1
100
AcDbLine
 10
329.191877806096
 20
33.48949445710915
 11
332.1234326466264
 21
19.69761328676248
  0
LINE
  5
D1
100
AcDbEntity
  8
Construction
  6
ByLayer
 62
  256
370
   -1
100
AcDbLine
 10
188.296590228731
 20
-44.67696408540682
 11
181.8953241824034
 21
-32.11377209435084
  0
LINE
  5
D2
100
AcDbEntity
  8
Construction
  6
ByLayer
 62
  256
370
   -1
100
AcDbLine
 10
179.4437754838098
 20
-27.30233686373364
 11
173.0425094374822
 21
-14.73914487267765
  0
LINE
  5
D3
100
AcDbEntity
  8
Construction
  6
ByLayer
 62
  256
370
   -1
100
AcDbLine
 10
212.3113059115225
 20
17.74459326347153
 11
209.379751070992
 21
31.53647443381818
  0
LINE
  5
D4
100
AcDbEntity
  8
Construction
  6
ByLayer
 62
  256
370
   -1
100
AcDbLine
 10
208.2570279405761
 20
36.81847147778073
 11
205.3254731000457
 21
50.61035264812739
  0
LINE
  5
D5
100
AcDbEntity
  8
Construction
  6
ByLayer
 62
  256
370
   -1
100
AcDbLine
 10
257.4675341851789
 20
-18.66248088561976
 11
243.6756530148322
 21
-21.59403572615015
  0
LINE
  5
D6
100
AcDbEntity
  8
Construction
  6
ByLayer
 62
  256
370
   -1
100
AcDbLine
 10
238.3936559708697
 20
-22.71675885656606
 11
224.601774800523
 21
-25.64831369709646
  0
LINE
  5
D7
100
AcDbEntity
  8
Construction
  6
ByLayer
 62
  256
370
   -1
100
AcDbLine
 10
275.8137214816259
 20
-11.18468631210511
 11
262.0218403112793
 21
-14.11624115263551
  0
LINE
  5
D8
100
AcDbEntity
  8
Construction
  6
ByLayer
 62
  256
370
   -1
100
AcDbLine
 10
334.4907379602779
 20
-5.868885604402832
 11
320.6988567899313
 21
-8.800440444933246
  0
LINE
  5
D9
100
AcDbEntity
  8
Construction
  6
ByLayer
 62
  256
370
   -1
100
AcDbLine
 10
303.1095277467488
 20
73.95084657714672
 11
316.9014089170954
 21
76.88240141767712
  0
LINE
  5
DA
100
AcDbEntity
  8
Construction
  6
ByLayer
 62
  256
370
   -1
100
AcDbLine
 10
207.0124457573406
 20
57.1029733249835
 11
220.8043269276872
 21
60.0345281655139
  0
LINE
  5
DB
100
AcDbEntity
  8
Construction
  6
ByLayer
 62
  256
370
   -1
100
AcDbLine
 10
206.2567447907894
 20
-42.25976568499079
 11
193.6935527997334
 21
-48.6610317313184
  0
CIRCLE
  5
DC
100
AcDbEntity
  8
0
  6
ByLayer
 62
  256
370
   -1
100
AcDbCircle
 10
310.0054683319221
 20
75.41662399741192
 40
1.625
  0
CIRCLE
  5
DD
100
AcDbEntity
  8
0
  6
ByLayer
 62
  256
370
   -1
100
AcDbCircle
 10
327.5947973751046
 20
-7.334663024668039
 40
1.625
  0
CIRCLE
  5
DE
100
AcDbEntity
  8
0
  6
ByLayer
 62
  256
370
   -1
100
AcDbCircle
 10
268.9177808964526
 20
-12.65046373237031
 40
1.625
  0
CIRCLE
  5
DF
100
AcDbEntity
  8
0
  6
ByLayer
 62
  256
370
   -1
100
AcDbCircle
 10
199.9751487952614
 20
-45.46039870815459
 40
1.625
  0
CIRCLE
  5
E0
100
AcDbEntity
  8
0
  6
ByLayer
 62
  256
370
   -1
100
AcDbCircle
 10
179.273182007138
 20
-4.830501205165003
 40
1.625
  0
CIRCLE
  5
E1
100
AcDbEntity
  8
0
  6
ByLayer
 62
  256
370
   -1
100
AcDbCircle
 10
213.9083863425139
 20
58.56875074524871
 40
1.625
  0
LINE
  5
E2
100
AcDbEntity
  8
Construction
  6
ByLayer
 62
  256
370
   -1
100
AcDbLine
 10
188.003227374147
 20
-0.3823209154329916
 11
206.5754767690379
 21
9.080712805621454
  0
LINE
  5
E3
100
AcDbEntity
  8
Construction
  6
ByLayer
 62
  256
370
   -1
100
AcDbLine
 10
295.6152906137973
 20
-10.55392494372714
 11
284.0913520204021
 21
-13.00341370803569
  0
LINE
  5
E4
100
AcDbEntity
  8
Construction
  6
ByLayer
 62
  256
370
   -1
100
AcDbLine
 10
217.4854190512136
 20
-21.02689823760018
 11
214.5538642106832
 21
-7.235017067253518
  0
LINE
  5
E5
100
AcDbEntity
  8
Construction
  6
ByLayer
 62
  256
370
   -1
100
AcDbLine
 10
219.8522021128279
 20
-12.77377680544614
 11
224.4375061601973
 21
-21.77294269974866
  0
LINE
  5
E6
100
AcDbEntity
  8
Construction
  6
ByLayer
 62
  256
370
   -1
100
AcDbLine
 10
208.0727067897475
 20
-45.82379178174426
 11
201.7465604680101
 21
-49.04712432989504
  0
LINE
  5
E7
100
AcDbEntity
  8
Construction
  6
ByLayer
 62
  256
370
   -1
100
AcDbLine
 10
177.4126696819704
 20
-1.289174633398508
 11
183.7388160037078
 21
1.934157914752272
  0
LINE
  5
E8
100
AcDbEntity
  8
Construction
  6
ByLayer
 62
  256
370
   -1
100
AcDbLine
 10
302.2778809834778
 20
77.86343698008194
 11
309.2227289486878
 21
79.33960998488803
  0
LINE
  5
E9
100
AcDbEntity
  8
Construction
  6
ByLayer
 62
  256
370
   -1
100
AcDbLine
 10
333.2461557770424
 20
14.41561624279993
 11
336.1777106175728
 21
0.6237350724532718
  0
LINE
  5
EA
100
AcDbEntity
  8
Construction
  6
ByLayer
 62
  256
370
   -1
100
AcDbLine
 10
328.4753515184123
 20
-11.23685784306237
 11
321.5305035532023
 21
-12.71303084786847
  0
LINE
  5
EB
100
AcDbEntity
  8
Construction
  6
ByLayer
 62
  256
370
   -1
100
AcDbLine
 10
207.0124457573406
 20
57.1029733249835
 11
220.8043269276872
 21
60.0345281655139
  0
LINE
  5
EC
100
AcDbEntity
  8
Construction
  6
ByLayer
 62
  256
370
   -1
100
AcDbLine
 10
213.0278321992062
 20
62.47094556364303
 11
219.9726801644162
 21
63.94711856844913
  0
ARC
  5
ED
100
AcDbEntity
  8
0
  6
ByLayer
 62
  256
370
   -1
100
AcDbCircle
 10
0
 20
0
 40
0
100
AcDbArc
 50
0
 51
0
  0
ARC
  5
EE
100
AcDbEntity
  8
0
  6
ByLayer
 62
  256
370
   -1
100
AcDbCircle
 10
0
 20
0
 40
0
100
AcDbArc
 50
0
 51
0
  0
LINE
  5
EF
100
AcDbEntity
  8
0
  6
ByLayer
 62
  256
370
   -1
100
AcDbLine
 10
258.2243924384435
 20
71.56660070997484
 11
264.2340804002682
 21
69.26580723782243
  0
LINE
  5
F0
100
AcDbEntity
  8
0
  6
ByLayer
 62
  256
370
   -1
100
AcDbLine
 10
264.2340804002682
 20
69.26580723782243
 11
278.0259615706149
 21
72.19736207835282
  0
LINE
  5
F1
100
AcDbEntity
  8
0
  6
ByLayer
 62
  256
370
   -1
100
AcDbLine
 10
278.0259615706149
 20
72.19736207835282
 11
284.0356495324395
 21
69.8965686062004
  0
LINE
  5
F2
100
AcDbEntity
  8
0
  6
ByLayer
 62
  256
370
   -1
100
AcDbLine
 10
284.0356495324395
 20
69.8965686062004
 11
297.8275307027862
 21
72.82812344673081
  0
LINE
  5
F3
100
AcDbEntity
  8
0
  6
ByLayer
 62
  256
370
   -1
100
AcDbLine
 10
297.8275307027862
 20
72.82812344673081
 11
302.2778809834778
 21
77.86343698008194
  0
LINE
  5
F4
100
AcDbEntity
  8
0
  6
ByLayer
 62
  256
370
   -1
100
AcDbLine
 10
321.5305035532023
 20
-12.71303084786847
 11
315.4168597459687
 21
-9.923163575349129
  0
LINE
  5
F5
100
AcDbEntity
  8
0
  6
ByLayer
 62
  256
370
   -1
100
AcDbLine
 10
315.4168597459687
 20
-9.923163575349129
 11
301.624978575622
 21
-12.85471841587954
  0
LINE
  5
F6
100
AcDbEntity
  8
0
  6
ByLayer
 62
  256
370
   -1
100
AcDbLine
 10
301.624978575622
 20
-12.85471841587954
 11
295.6152906137973
 21
-10.55392494372714
  0
LINE
  5
F7
100
AcDbEntity
  8
0
  6
ByLayer
 62
  256
370
   -1
100
AcDbLine
 10
295.6152906137973
 20
-10.55392494372714
 11
238.3936559708696
 21
-22.71675885656605
  0
LINE
  5
F8
100
AcDbEntity
  8
0
  6
ByLayer
 62
  256
370
   -1
100
AcDbLine
 10
238.3936559708697
 20
-22.71675885656606
 11
230.9614090676516
 21
-34.16141546525106
  0
LINE
  5
F9
100
AcDbEntity
  8
0
  6
ByLayer
 62
  256
370
   -1
100
AcDbLine
 10
211.2135144788467
 20
22.90929589156551
 11
206.8177992261068
 21
13.69348721501949
  0
LINE
  5
FA
100
AcDbEntity
  8
0
  6
ByLayer
 62
  256
370
   -1
100
AcDbLine
 10
336.3005323242828
 20
-9.573564316520269
 11
321.5305035532023
 21
-12.71303084786847
  0
ARC
  5
FB
100
AcDbEntity
  8
0
  6
ByLayer
 62
  256
370
   -1
100
AcDbCircle
 10
335.8847089426473
 20
-7.61726911505267
 40
2
100
AcDbArc
 50
281.9999999999997
 51
11.99999999999994
  0
LINE
  5
FC
100
AcDbEntity
  8
0
  6
ByLayer
 62
  256
370
   -1
100
AcDbLine
 10
319.4200283376613
 20
79.46243169159798
 11
337.8410041441148
 21
-7.20144573341716
  0
LINE
  5
FD
100
AcDbEntity
  8
0
  6
ByLayer
 62
  256
370
   -1
100
AcDbLine
 10
302.2778809834778
 20
77.86343698008194
 11
317.0479097545582
 21
81.00290351143009
  0
ARC
  5
FE
100
AcDbEntity
  8
0
  6
ByLayer
 62
  256
370
   -1
100
AcDbCircle
 10
317.4637331361938
 20
79.04660830996247
 40
2
100
AcDbArc
 50
12.00000000000018
 51
101.9999999999995
  0
LINE
  5
FF
100
AcDbEntity
  8
0
  6
ByLayer
 62
  256
370
   -1
100
AcDbLine
 10
205.2058769504941
 20
60.89680347991516
 11
258.2243924384435
 21
71.56660070997484
  0
LINE
  5
100
100
AcDbEntity
  8
0
  6
ByLayer
 62
  256
370
   -1
100
AcDbLine
 10
203.6441639706255
 20
58.52029020173865
 11
211.2135144788467
 21
22.90929589156552
  0
ARC
  5
101
100
AcDbEntity
  8
0
  6
ByLayer
 62
  256
370
   -1
100
AcDbCircle
 10
205.6004591720931
 20
58.93611358337417
 40
2
100
AcDbArc
 50
101.378595086764
 51
192.0000000000002
  0
LINE
  5
102
100
AcDbEntity
  8
0
  6
ByLayer
 62
  256
370
   -1
100
AcDbLine
 10
170.2846174884635
 20
-4.921098631314894
 11
206.8177992261068
 21
13.6934872150195
  0
ARC
  5
103
100
AcDbEntity
  8
0
  6
ByLayer
 62
  256
370
   -1
100
AcDbCircle
 10
171.1925984879425
 20
-6.70311167969163
 40
2
100
AcDbArc
 50
117
 51
206.9999999999999
  0
LINE
  5
104
100
AcDbEntity
  8
0
  6
ByLayer
 62
  256
370
   -1
100
AcDbLine
 10
169.4105854395658
 20
-7.611092679170724
 11
191.9285142266474
 21
-51.80501627891374
  0
LINE
  5
105
100
AcDbEntity
  8
0
  6
ByLayer
 62
  256
370
   -1
100
AcDbLine
 10
230.9614090676516
 20
-34.16141546525107
 11
194.6185082745032
 21
-52.67904832781139
  0
ARC
  5
106
100
AcDbEntity
  8
0
  6
ByLayer
 62
  256
370
   -1
100
AcDbCircle
 10
193.7105272750241
 20
-50.89703527943464
 40
2
100
AcDbArc
 50
207.0000000000001
 51
296.9999999999998
  0
CIRCLE
  5
107
100
AcDbEntity
  8
0
  6
ByLayer
 62
  256
370
   -1
100
AcDbCircle
 10
23.23779948344924
 20
75.41662399741192
 40
1.625
  0
CIRCLE
  5
108
100
AcDbEntity
  8
0
  6
ByLayer
 62
  256
370
   -1
100
AcDbCircle
 10
5.648470440266749
 20
-7.334663024668039
 40
1.625
  0
CIRCLE
  5
109
100
AcDbEntity
  8
0
  6
ByLayer
 62
  256
370
   -1
100
AcDbCircle
 10
64.32548691891873
 20
-12.65046373237032
 40
1.625
  0
CIRCLE
  5
10A
100
AcDbEntity
  8
0
  6
ByLayer
 62
  256
370
   -1
100
AcDbCircle
 10
133.26811902011
 20
-45.46039870815458
 40
1.625
  0
CIRCLE
  5
10B
100
AcDbEntity
  8
0
  6
ByLayer
 62
  256
370
   -1
100
AcDbCircle
 10
153.9700858082333
 20
-4.830501205164996
 40
1.625
  0
CIRCLE
  5
10C
100
AcDbEntity
  8
0
  6
ByLayer
 62
  256
370
   -1
100
AcDbCircle
 10
119.3348814728574
 20
58.56875074524871
 40
1.625
  0
LINE
  5
10D
100
AcDbEntity
  8
0
  6
ByLayer
 62
  256
370
   -1
100
AcDbLine
 10
75.01887537692784
 20
71.56660070997484
 11
69.00918741510316
 21
69.26580723782243
  0
LINE
  5
10E
100
AcDbEntity
  8
0
  6
ByLayer
 62
  256
370
   -1
100
AcDbLine
 10
69.00918741510316
 20
69.26580723782243
 11
55.21730624475646
 21
72.19736207835282
  0
LINE
  5
10F
100
AcDbEntity
  8
0
  6
ByLayer
 62
  256
370
   -1
100
AcDbLine
 10
55.21730624475646
 20
72.19736207835282
 11
49.20761828293178
 21
69.8965686062004
  0
LINE
  5
110
100
AcDbEntity
  8
0
  6
ByLayer
 62
  256
370
   -1
100
AcDbLine
 10
49.20761828293178
 20
69.8965686062004
 11
35.41573711258513
 21
72.82812344673081
  0
LINE
  5
111
100
AcDbEntity
  8
0
  6
ByLayer
 62
  256
370
   -1
100
AcDbLine
 10
35.41573711258513
 20
72.82812344673081
 11
30.96538683189357
 21
77.86343698008194
  0
LINE
  5
112
100
AcDbEntity
  8
0
  6
ByLayer
 62
  256
370
   -1
100
AcDbLine
 10
11.71276426216906
 20
-12.71303084786847
 11
17.82640806940265
 21
-9.923163575349115
  0
LINE
  5
113
100
AcDbEntity
  8
0
  6
ByLayer
 62
  256
370
   -1
100
AcDbLine
 10
17.82640806940265
 20
-9.923163575349115
 11
31.61828923974929
 21
-12.85471841587955
  0
LINE
  5
114
100
AcDbEntity
  8
0
  6
ByLayer
 62
  256
370
   -1
100
AcDbLine
 10
31.61828923974929
 20
-12.85471841587955
 11
37.62797720157403
 21
-10.55392494372713
  0
LINE
  5
115
100
AcDbEntity
  8
0
  6
ByLayer
 62
  256
370
   -1
100
AcDbLine
 10
37.62797720157403
 20
-10.55392494372713
 11
94.84961184450168
 21
-22.71675885656607
  0
LINE
  5
116
100
AcDbEntity
  8
0
  6
ByLayer
 62
  256
370
   -1
100
AcDbLine
 10
94.84961184450165
 20
-22.71675885656606
 11
102.2818587477197
 21
-34.16141546525105
  0
LINE
  5
117
100
AcDbEntity
  8
0
  6
ByLayer
 62
  256
370
   -1
100
AcDbLine
 10
122.0297533365247
 20
22.90929589156551
 11
126.4254685892645
 21
13.69348721501949
  0
LINE
  5
118
100
AcDbEntity
  8
0
  6
ByLayer
 62
  256
370
   -1
100
AcDbLine
 10
-3.05726450891143
 20
-9.573564316520283
 11
11.71276426216906
 21
-12.71303084786847
  0
ARC
  5
119
100
AcDbEntity
  8
0
  6
ByLayer
 62
  256
370
   -1
100
AcDbCircle
 10
-2.641441127275925
 20
-7.617269115052659
 40
2
100
AcDbArc
 50
168.0000000000001
 51
258.0000000000003
  0
LINE
  5
11A
100
AcDbEntity
  8
0
  6
ByLayer
 62
  256
370
   -1
100
AcDbLine
 10
13.82323947770999
 20
79.46243169159798
 11
-4.597736328743508
 21
-7.20144573341716
  0
LINE
  5
11B
100
AcDbEntity
  8
0
  6
ByLayer
 62
  256
370
   -1
100
AcDbLine
 10
30.96538683189357
 20
77.86343698008194
 11
16.19535806081308
 21
81.00290351143009
  0
ARC
  5
11C
100
AcDbEntity
  8
0
  6
ByLayer
 62
  256
370
   -1
100
AcDbCircle
 10
15.77953467917757
 20
79.04660830996247
 40
2
100
AcDbArc
 50
78.00000000000047
 51
167.9999999999998
  0
LINE
  5
11D
100
AcDbEntity
  8
0
  6
ByLayer
 62
  256
370
   -1
100
AcDbLine
 10
128.0373908648773
 20
60.89680347991516
 11
75.01887537692784
 21
71.56660070997484
  0
LINE
  5
11E
100
AcDbEntity
  8
0
  6
ByLayer
 62
  256
370
   -1
100
AcDbLine
 10
129.5991038447458
 20
58.52029020173865
 11
122.0297533365247
 21
22.90929589156552
  0
ARC
  5
11F
100
AcDbEntity
  8
0
  6
ByLayer
 62
  256
370
   -1
100
AcDbCircle
 10
127.6428086432782
 20
58.93611358337417
 40
2
100
AcDbArc
 50
347.9999999999998
 51
78.62140491323603
  0
LINE
  5
120
100
AcDbEntity
  8
0
  6
ByLayer
 62
  256
370
   -1
100
AcDbLine
 10
162.9586503269079
 20
-4.921098631314901
 11
126.4254685892645
 21
13.69348721501949
  0
ARC
  5
121
100
AcDbEntity
  8
0
  6
ByLayer
 62
  256
370
   -1
100
AcDbCircle
 10
162.0506693274288
 20
-6.703111679691632
 40
2
100
AcDbArc
 50
333.0000000000001
 51
63
  0
LINE
  5
122
100
AcDbEntity
  8
0
  6
ByLayer
 62
  256
370
   -1
100
AcDbLine
 10
163.8326823758055
 20
-7.611092679170724
 11
141.314753588724
 21
-51.80501627891374
  0
LINE
  5
123
100
AcDbEntity
  8
0
  6
ByLayer
 62
  256
370
   -1
100
AcDbLine
 10
102.2818587477198
 20
-34.16141546525106
 11
138.6247595408681
 21
-52.67904832781139
  0
ARC
  5
124
100
AcDbEntity
  8
0
  6
ByLayer
 62
  256
370
   -1
100
AcDbCircle
 10
139.5327405403472
 20
-50.89703527943465
 40
2
100
AcDbArc
 50
243.0000000000001
 51
332.9999999999998
  0
CIRCLE
  5
125
100
AcDbEntity
  8
Construction
  6
ByLayer
 62
  256
370
   -1
100
AcDbCircle
 10
318.148879062002
 20
71.01351581327428
 40
3
  0
CIRCLE
  5
126
100
AcDbEntity
  8
Construction
  6
ByLayer
 62
  256
370
   -1
100
AcDbCircle
 10
279.2734317155214
 20
66.32847647394999
 40
3
  0
CIRCLE
  5
127
100
AcDbEntity
  8
Construction
  6
ByLayer
 62
  256
370
   -1
100
AcDbCircle
 10
259.4718625833501
 20
65.697715105572
 40
3
  0
CIRCLE
  5
128
100
AcDbEntity
  8
Construction
  6
ByLayer
 62
  256
370
   -1
100
AcDbCircle
 10
245.6799814130034
 20
62.7661602650416
 40
3
  0
CIRCLE
  5
129
100
AcDbEntity
  8
Construction
  6
ByLayer
 62
  256
370
   -1
100
AcDbCircle
 10
208.2599159022471
 20
51.23408772058067
 40
3
  0
CIRCLE
  5
12A
100
AcDbEntity
  8
Construction
  6
ByLayer
 62
  256
370
   -1
100
AcDbCircle
 10
333.2432678153713
 20
-6.39254219778523e-016
 40
3
  0
CIRCLE
  5
12B
100
AcDbEntity
  8
Construction
  6
ByLayer
 62
  256
370
   -1
100
AcDbCircle
 10
300.3775084307155
 20
-6.985832811476717
 40
3
  0
CIRCLE
  5
12C
100
AcDbEntity
  8
Construction
  6
ByLayer
 62
  256
370
   -1
100
AcDbCircle
 10
280.5759392985441
 20
-7.616594179854704
 40
3
  0
CIRCLE
  5
12D
100
AcDbEntity
  8
Construction
  6
ByLayer
 62
  256
370
   -1
100
AcDbCircle
 10
256.2200640402723
 20
-12.79359528121693
 40
3
  0
CIRCLE
  5
12E
100
AcDbEntity
  8
Construction
  6
ByLayer
 62
  256
370
   -1
100
AcDbCircle
 10
267.670310751546
 20
-6.781578127967479
 40
3
  0
CIRCLE
  5
12F
100
AcDbEntity
  8
Construction
  6
ByLayer
 62
  256
370
   -1
100
AcDbCircle
 10
220.9074290140253
 20
-28.06091179493941
 40
3
  0
CIRCLE
  5
130
100
AcDbEntity
  8
Construction
  6
ByLayer
 62
  256
370
   -1
100
AcDbCircle
 10
190.9696098012961
 20
-43.31499258618818
 40
3
  0
LWPOLYLINE
  5
131
100
AcDbEntity
  8
Part Placement Guide
  6
ByLayer
 62
  256
370
   -1
100
AcDbPolyline
 90
    4
 70
    1
 43
0
 10
161.9716339076856
 20
48
 10
171.2716339076856
 20
48
 10
171.2716339076856
 20
57
 10
161.9716339076856
 20
57
  0
CIRCLE
  5
132
100
AcDbEntity
  8
Part Placement Guide
  6
ByLayer
 62
  256
370
   -1
100
AcDbCircle
 10
166.6216339076856
 20
52.49999999999999
 40
1
  0
CIRCLE
  5
133
100
AcDbEntity
  8
Part Placement Guide
  6
ByLayer
 62
  256
370
   -1
100
AcDbCircle
 10
166.6216339076861
 20
45.80392455567254
 40
1
  0
MTEXT
  5
134
100
AcDbEntity
  8
Part Placement Guide
  6
ByLayer
 62
  256
370
   -1
100
AcDbMText
 10
164
 20
50
 30
0
 40
1.5
 41
6.961402387441767
 71
    1
 72
    1
  1
USB-C
  7
cursive
210
0
220
0
230
1
 50
0
 73
    2
 44
1
  0
LWPOLYLINE
  5
135
100
AcDbEntity
  8
Part Placement Guide
  6
ByLayer
 62
  256
370
   -1
100
AcDbPolyline
 90
    4
 70
    1
 43
0
 10
136.6216339076861
 20
37.80392455567254
 10
196.6216339076861
 20
37.80392455567254
 10
196.6216339076861
 20
53.80392455567254
 10
136.6216339076861
 20
53.80392455567254
  0
LWPOLYLINE
  5
136
100
AcDbEntity
  8
Part Placement Guide
  6
ByLayer
 62
  256
370
   -1
100
AcDbPolyline
 90
    4
 70
    1
 43
0
 10
131.6216339076861
 20
42.30392455567254
 10
136.6216339076861
 20
42.30392455567254
 10
136.6216339076861
 20
49.30392455567254
 10
131.6216339076861
 20
49.30392455567254
  0
LWPOLYLINE
  5
137
100
AcDbEntity
  8
Part Placement Guide
  6
ByLayer
 62
  256
370
   -1
100
AcDbPolyline
 90
    4
 70
    1
 43
0
 10
201.6216339076853
 20
42.30392455567254
 10
196.6216339076853
 20
42.30392455567254
 10
196.6216339076853
 20
49.30392455567254
 10
201.6216339076853
 20
49.30392455567254
  0
MTEXT
  5
138
100
AcDbEntity
  8
Part Placement Guide
  6
ByLayer
 62
  256
370
   -1
100
AcDbMText
 10
175
 20
52
 30
0
 40
1.5
 41
17.82420634050532
 71
    1
 72
    1
  1
Battery Holder
  7
cursive
210
0
220
0
230
1
 50
0
 73
    2
 44
1
  0
LWPOLYLINE
  5
139
100
AcDbEntity
  8
Part Placement Guide
  6
ByLayer
 62
  256
370
   -1
100
AcDbPolyline
 90
    4
 70
    1
 43
0
 10
127.2432678153713
 20
13.50000000000001
 10
127.2432678153713
 20
36.5
 10
153.2432678153713
 20
36.50000000000001
 10
153.2432678153713
 20
13.50000000000001
  0
CIRCLE
  5
13A
100
AcDbEntity
  8
Part Placement Guide
  6
ByLayer
 62
  256
370
   -1
100
AcDbCircle
 10
140.2432678153713
 20
25
 40
1
  0
MTEXT
  5
13B
100
AcDbEntity
  8
Part Placement Guide
  6
ByLayer
 62
  256
370
   -1
100
AcDbMText
 10
150.2432678153713
 20
15.99999999999999
 30
0
 40
1.5
 41
15.23303993099339
 71
    3
 72
    1
  1
Adafruit BLE
  7
cursive
210
0
220
0
230
1
 50
360
 73
    2
 44
1
  0
LINE
  5
13C
100
AcDbEntity
  8
Part Placement Guide
  6
ByLayer
 62
  256
370
   -1
100
AcDbLine
 10
184.9830539305976
 20
-5.849317978528859
 11
182.7131014318999
 21
-1.394285357587005
  0
CIRCLE
  5
13D
100
AcDbEntity
  8
Part Placement Guide
  6
ByLayer
 62
  256
370
   -1
100
AcDbCircle
 10
213.9083863425139
 20
58.56875074524871
 40
1
  0
MTEXT
  5
13E
100
AcDbEntity
  8
Part Placement Guide
  6
ByLayer
 62
  256
370
   -1
100
AcDbMText
 10
216
 20
59
 30
0
 40
1.25
 41
15.98642057993017
 71
    1
 72
    1
  1
2mm radius hole
  7
cursive
210
0
220
0
230
1
 50
0
 73
    2
 44
1
  0
CIRCLE
  5
13F
100
AcDbEntity
  8
Part Placement Guide
  6
ByLayer
 62
  256
370
   -1
100
AcDbCircle
 10
179.273182007138
 20
-4.830501205165007
 40
1
  0
MTEXT
  5
140
100
AcDbEntity
  8
Part Placement Guide
  6
ByLayer
 62
  256
370
   -1
100
AcDbMText
 10
181.3647956646241
 20
-4.399251950413714
 30
0
 40
1.25
 41
15.98642057993017
 71
    1
 72
    1
  1
2mm radius hole
  7
cursive
210
0
220
0
230
1
 50
0
 73
    2
 44
1
  0
MTEXT
  5
141
100
AcDbEntity
  8
Part Placement Guide
  6
ByLayer
 62
  256
370
   -1
100
AcDbMText
 10
179.273182007138
 20
-6.455501205165003
 30
0
 40
1.25
 41
15.98642057993017
 71
    1
 72
    1
  1
2mm radius hole
  7
cursive
210
0
220
0
230
1
 50
0
 73
    2
 44
1
  0
LINE
  5
142
100
AcDbEntity
  8
PCB_Main
  6
ByLayer
 62
  256
370
   -1
100
AcDbLine
 10
145.6216339076857
 20
56.96831205289712
 11
203.4830979190403
 21
56.96831205289712
  0
ARC
  5
143
100
AcDbEntity
  8
PCB_Main
  6
ByLayer
 62
  256
370
   -1
100
AcDbCircle
 10
203.4830979190403
 20
54.46831205289712
 40
2.5
100
AcDbArc
 50
12.00000000000011
 51
90
  0
LINE
  5
144
100
AcDbEntity
  8
PCB_Main
  6
ByLayer
 62
  256
370
   -1
100
AcDbLine
 10
138.1216339076857
 20
56.96831205289712
 11
129.7601698963311
 21
56.96831205289712
  0
ARC
  5
145
100
AcDbEntity
  8
PCB_Main
  6
ByLayer
 62
  256
370
   -1
100
AcDbCircle
 10
129.7601698963311
 20
54.46831205289712
 40
2.5
100
AcDbArc
 50
90
 51
168.0000000000001
  0
LINE
  5
146
100
AcDbEntity
  8
PCB_Main
  6
ByLayer
 62
  256
370
   -1
100
AcDbLine
 10
117.8774343085657
 20
10.58877228558512
 11
127.3148008944966
 21
54.98809127994151
  0
ARC
  5
147
100
AcDbEntity
  8
PCB_Main
  6
ByLayer
 62
  256
370
   -1
100
AcDbCircle
 10
120.3228033104002
 20
10.06899305854073
 40
2.5
100
AcDbArc
 50
168
 51
243.0000000000001
  0
LINE
  5
148
100
AcDbEntity
  8
PCB_Main
  6
ByLayer
 62
  256
370
   -1
100
AcDbLine
 10
159.0104549895674
 20
-12.44916564725673
 11
119.1878270610513
 21
7.841476748069804
  0
ARC
  5
149
100
AcDbEntity
  8
PCB_Main
  6
ByLayer
 62
  256
370
   -1
100
AcDbCircle
 10
160.1454312389162
 20
-10.22164933678581
 40
2.5
100
AcDbArc
 50
242.9999999999997
 51
270
  0
LINE
  5
14A
100
AcDbEntity
  8
PCB_Main
  6
ByLayer
 62
  256
370
   -1
100
AcDbLine
 10
160.1454312389162
 20
-12.72164933678581
 11
173.0978365764551
 21
-12.7216493367858
  0
ARC
  5
14B
100
AcDbEntity
  8
PCB_Main
  6
ByLayer
 62
  256
370
   -1
100
AcDbCircle
 10
173.0978365764551
 20
-10.2216493367858
 40
2.5
100
AcDbArc
 50
270
 51
297.0000000000002
  0
LINE
  5
14C
100
AcDbEntity
  8
PCB_Main
  6
ByLayer
 62
  256
370
   -1
100
AcDbLine
 10
174.232812825804
 20
-12.44916564725672
 11
214.05544075432
 21
7.841476748069805
  0
LINE
  5
14D
100
AcDbEntity
  8
PCB_Main
  6
ByLayer
 62
  256
370
   -1
100
AcDbLine
 10
215.3658335068057
 20
10.58877228558512
 11
205.9284669208748
 21
54.98809127994151
  0
ARC
  5
14E
100
AcDbEntity
  8
PCB_Main
  6
ByLayer
 62
  256
370
   -1
100
AcDbCircle
 10
212.9204645049712
 20
10.06899305854072
 40
2.5
100
AcDbArc
 50
297.0000000000003
 51
11.99999999999999
  0
ARC
  5
14F
100
AcDbEntity
  8
PCB_Hand
  6
ByLayer
 62
  256
370
   -1
100
AcDbCircle
 10
255.6008499099846
 20
-13.43638360512089
 40
2.5
100
AcDbArc
 50
282.0000000000002
 51
314.9492299081085
  0
LINE
  5
150
100
AcDbEntity
  8
PCB_Hand
  6
ByLayer
 62
  256
370
   -1
100
AcDbLine
 10
257.3670497415417
 20
-15.20571629147683
 11
260.8748575976724
 21
-11.70411950732835
  0
ARC
  5
151
100
AcDbEntity
  8
PCB_Hand
  6
ByLayer
 62
  256
370
   -1
100
AcDbCircle
 10
262.6410574292295
 20
-13.47345219368429
 40
2.5
100
AcDbArc
 50
102.0000000000002
 51
134.9492299081085
  0
LINE
  5
152
100
AcDbEntity
  8
PCB_Hand
  6
ByLayer
 62
  256
370
   -1
100
AcDbLine
 10
262.1212782021851
 20
-11.02808319184978
 11
274.4668141693629
 21
-8.403958514692849
  0
ARC
  5
153
100
AcDbEntity
  8
PCB_Hand
  6
ByLayer
 62
  256
370
   -1
100
AcDbCircle
 10
274.9865933964073
 20
-10.84932751652737
 40
2.5
100
AcDbArc
 50
69.05080127104311
 51
102.0000000000002
  0
LINE
  5
154
100
AcDbEntity
  8
PCB_Hand
  6
ByLayer
 62
  256
370
   -1
100
AcDbLine
 10
275.8804435219643
 20
-8.51458300094502
 11
280.5092205682619
 21
-10.28669678744058
  0
ARC
  5
155
100
AcDbEntity
  8
PCB_Hand
  6
ByLayer
 62
  256
370
   -1
100
AcDbCircle
 10
281.4030706938189
 20
-7.951952271858251
 40
2.5
100
AcDbArc
 50
249.0508012710429
 51
282.0000000000002
  0
LINE
  5
156
100
AcDbEntity
  8
PCB_Hand
  6
ByLayer
 62
  256
370
   -1
100
AcDbLine
 10
281.9228499208633
 20
-10.39732127369278
 11
294.2683833522933
 21
-7.773197135525709
  0
ARC
  5
157
100
AcDbEntity
  8
PCB_Hand
  6
ByLayer
 62
  256
370
   -1
100
AcDbCircle
 10
294.7881625793377
 20
-10.21856613736023
 40
2.5
100
AcDbArc
 50
69.05080345834746
 51
102.0000000000002
  0
LINE
  5
158
100
AcDbEntity
  8
PCB_Hand
  6
ByLayer
 62
  256
370
   -1
100
AcDbLine
 10
295.6820126157643
 20
-7.883821587654573
 11
300.3107901806076
 21
-9.655935370066985
  0
ARC
  5
159
100
AcDbEntity
  8
PCB_Hand
  6
ByLayer
 62
  256
370
   -1
100
AcDbCircle
 10
301.2046402170342
 20
-7.321190820361324
 40
2.5
100
AcDbArc
 50
249.0508034583475
 51
282.0000000000002
  0
LINE
  5
15A
100
AcDbEntity
  8
PCB_Hand
  6
ByLayer
 62
  256
370
   -1
100
AcDbLine
 10
301.7244194440786
 20
-9.766559822195847
 11
334.3560766881916
 21
-2.830486956792529
  0
ARC
  5
15B
100
AcDbEntity
  8
PCB_Hand
  6
ByLayer
 62
  256
370
   -1
100
AcDbCircle
 10
333.8362974611472
 20
-0.3851179549580092
 40
2.5
100
AcDbArc
 50
282.0000000000002
 51
12.00000000000007
  0
LINE
  5
15C
100
AcDbEntity
  8
PCB_Hand
  6
ByLayer
 62
  256
370
   -1
100
AcDbLine
 10
336.2816664629817
 20
0.1346612720863969
 11
320.9793660187946
 21
72.12632468609445
  0
ARC
  5
15D
100
AcDbEntity
  8
PCB_Hand
  6
ByLayer
 62
  256
370
   -1
100
AcDbCircle
 10
318.53399701696
 20
71.60654545905004
 40
2.5
100
AcDbArc
 50
11.99999999999988
 51
102.0000000000002
  0
LINE
  5
15E
100
AcDbEntity
  8
PCB_Hand
  6
ByLayer
 62
  256
370
   -1
100
AcDbLine
 10
318.0142177899156
 20
74.05191446088457
 11
285.3825568404164
 21
67.11584080787709
  0
ARC
  5
15F
100
AcDbEntity
  8
PCB_Hand
  6
ByLayer
 62
  256
370
   -1
100
AcDbCircle
 10
284.862777613372
 20
69.56120980971161
 40
2.5
100
AcDbArc
 50
249.0508014557406
 51
282.0000000000002
  0
LINE
  5
160
100
AcDbEntity
  8
PCB_Hand
  6
ByLayer
 62
  256
370
   -1
100
AcDbLine
 10
283.9689274953413
 20
67.22646529124788
 11
279.3401504052573
 21
68.99857907739865
  0
ARC
  5
161
100
AcDbEntity
  8
PCB_Hand
  6
ByLayer
 62
  256
370
   -1
100
AcDbCircle
 10
278.4463002872266
 20
66.66383455893492
 40
2.5
100
AcDbArc
 50
69.05080145574051
 51
102.0000000000002
  0
LINE
  5
162
100
AcDbEntity
  8
PCB_Hand
  6
ByLayer
 62
  256
370
   -1
100
AcDbLine
 10
277.9265210601822
 20
69.10920356076944
 11
265.5809877350379
 21
66.48507944519412
  0
ARC
  5
163
100
AcDbEntity
  8
PCB_Hand
  6
ByLayer
 62
  256
370
   -1
100
AcDbCircle
 10
265.0612085079935
 20
68.93044844702864
 40
2.5
100
AcDbArc
 50
249.0508003011834
 51
282.0000000000002
  0
LINE
  5
164
100
AcDbEntity
  8
PCB_Hand
  6
ByLayer
 62
  256
370
   -1
100
AcDbLine
 10
264.1673583429157
 20
66.59570394657673
 11
259.5385815265435
 21
68.36781773488273
  0
ARC
  5
165
100
AcDbEntity
  8
PCB_Hand
  6
ByLayer
 62
  256
370
   -1
100
AcDbCircle
 10
258.6447313614657
 20
66.03307323443084
 40
2.5
100
AcDbArc
 50
69.05080030118326
 51
102.0000000000002
  0
LINE
  5
166
100
AcDbEntity
  8
PCB_Hand
  6
ByLayer
 62
  256
370
   -1
100
AcDbLine
 10
258.1249521344213
 20
68.47844223626537
 11
206.4194161115648
 21
57.48809127994151
  0
ARC
  5
167
100
AcDbEntity
  8
PCB_Hand
  6
ByLayer
 62
  256
370
   -1
100
AcDbCircle
 10
206.9391953386092
 20
55.042722278107
 40
2.5
100
AcDbArc
 50
102.0000000000003
 51
192.0000000000001
  0
LINE
  5
168
100
AcDbEntity
  8
PCB_Hand
  6
ByLayer
 62
  256
370
   -1
100
AcDbLine
 10
204.4938263367747
 20
54.5229430510626
 11
211.5493716561072
 21
21.32921210294155
  0
ARC
  5
169
100
AcDbEntity
  8
PCB_Hand
  6
ByLayer
 62
  256
370
   -1
100
AcDbCircle
 10
209.1040026542726
 20
20.80943287589714
 40
2.5
100
AcDbArc
 50
334.5000000000001
 51
12.00000000000013
  0
LINE
  5
16A
100
AcDbEntity
  8
PCB_Hand
  6
ByLayer
 62
  256
370
   -1
100
AcDbLine
 10
211.3604658651473
 20
19.7331551338764
 11
208.3178159779312
 21
13.35410698856705
  0
ARC
  5
16B
100
AcDbEntity
  8
PCB_Hand
  6
ByLayer
 62
  256
370
   -1
100
AcDbCircle
 10
206.0613527670565
 20
14.43038473058779
 40
2.5
100
AcDbArc
 50
297.0000000000002
 51
334.4999999999998
  0
ARC
  5
16C
100
AcDbEntity
  8
PCB_Hand
  6
ByLayer
 62
  256
370
   -1
100
AcDbCircle
 10
231.5084789668651
 20
-23.22057017142303
 40
2.5
100
AcDbArc
 50
296.9999999999997
 51
327.0000000000001
  0
LINE
  5
16D
100
AcDbEntity
  8
PCB_Hand
  6
ByLayer
 62
  256
370
   -1
100
AcDbLine
 10
235.9904427044839
 20
-20.90914738971789
 11
233.6051553867286
 21
-24.58216775896059
  0
LINE
  5
16E
100
AcDbEntity
  8
PCB_Hand
  6
ByLayer
 62
  256
370
   -1
100
AcDbLine
 10
237.5673398973031
 20
-19.82537597542095
 11
256.120629137029
 21
-15.88175260695541
  0
ARC
  5
16F
100
AcDbEntity
  8
PCB_Hand
  6
ByLayer
 62
  256
370
   -1
100
AcDbCircle
 10
238.0871191243475
 20
-22.27074497725546
 40
2.5
100
AcDbArc
 50
102.0000000000003
 51
147.0000000000002
  0
LINE
  5
170
100
AcDbEntity
  8
Part Placement Guide
  6
ByLayer
 62
  256
370
   -1
100
AcDbLine
 10
210.1884724627986
 20
12.60511541695781
 11
212.4584249614963
 21
8.150082796015957
  0
LINE
  5
171
100
AcDbEntity
  8
Part Placement Guide
  6
ByLayer
 62
  256
370
   -1
100
AcDbLine
 10
211.3234487121474
 20
10.37759910648689
 11
183.8480776812488
 21
-3.621801668057953
  0
LINE
  5
172
100
AcDbEntity
  8
Part Placement Guide
  6
ByLayer
 62
  256
370
   -1
100
AcDbLine
 10
182.7131014318999
 20
-1.394285357587017
 11
210.1884724627986
 21
12.60511541695781
  0
LINE
  5
173
100
AcDbEntity
  8
Part Placement Guide
  6
ByLayer
 62
  256
370
   -1
100
AcDbLine
 10
184.9830539305976
 20
-5.849317978528876
 11
212.4584249614963
 21
8.150082796015965
  0
MTEXT
  5
174
100
AcDbEntity
  8
Part Placement Guide
  6
ByLayer
 62
  256
370
   -1
100
AcDbMText
 10
184
 20
0
 30
0
 40
1.25
 41
21.59467997327715
 71
    1
 72
    1
  1
PCB Interface Header
  7
cursive
210
0
220
0
230
1
 50
27
 73
    2
 44
1
  0
LINE
  5
175
100
AcDbEntity
  8
Part Placement Guide
  6
ByLayer
 62
  256
370
   -1
100
AcDbLine
 10
183.8480776812488
 20
-3.621801668057932
 11
186.1112342526872
 21
-2.468665798719483
  0
CIRCLE
  5
176
100
AcDbEntity
  8
Part Placement Guide
  6
ByLayer
 62
  256
370
   -1
100
AcDbCircle
 10
186.1112342526872
 20
-2.468665798719483
 40
0.75
  0
CIRCLE
  5
177
100
AcDbEntity
  8
Part Placement Guide
  6
ByLayer
 62
  256
370
   -1
100
AcDbCircle
 10
188.3743908241257
 20
-1.315529929381034
 40
0.75
  0
CIRCLE
  5
178
100
AcDbEntity
  8
Part Placement Guide
  6
ByLayer
 62
  256
370
   -1
100
AcDbCircle
 10
190.6375473955641
 20
-0.1623940600425851
 40
0.75
  0
CIRCLE
  5
179
100
AcDbEntity
  8
Part Placement Guide
  6
ByLayer
 62
  256
370
   -1
100
AcDbCircle
 10
192.9007039670026
 20
0.990741809295864
 40
0.75
  0
CIRCLE
  5
17A
100
AcDbEntity
  8
Part Placement Guide
  6
ByLayer
 62
  256
370
   -1
100
AcDbCircle
 10
195.163860538441
 20
2.143877678634313
 40
0.75
  0
CIRCLE
  5
17B
100
AcDbEntity
  8
Part Placement Guide
  6
ByLayer
 62
  256
370
   -1
100
AcDbCircle
 10
197.4270171098795
 20
3.297013547972762
 40
0.75
  0
CIRCLE
  5
17C
100
AcDbEntity
  8
Part Placement Guide
  6
ByLayer
 62
  256
370
   -1
100
AcDbCircle
 10
199.690173681318
 20
4.450149417311211
 40
0.75
  0
CIRCLE
  5
17D
100
AcDbEntity
  8
Part Placement Guide
  6
ByLayer
 62
  256
370
   -1
100
AcDbCircle
 10
201.9533302527564
 20
5.60328528664966
 40
0.75
  0
CIRCLE
  5
17E
100
AcDbEntity
  8
Part Placement Guide
  6
ByLayer
 62
  256
370
   -1
100
AcDbCircle
 10
204.2164868241949
 20
6.756421155988109
 40
0.75
  0
CIRCLE
  5
17F
100
AcDbEntity
  8
Part Placement Guide
  6
ByLayer
 62
  256
370
   -1
100
AcDbCircle
 10
206.4796433956333
 20
7.909557025326558
 40
0.75
  0
CIRCLE
  5
180
100
AcDbEntity
  8
Part Placement Guide
  6
ByLayer
 62
  256
370
   -1
100
AcDbCircle
 10
208.7427999670718
 20
9.062692894665007
 40
0.75
  0
CIRCLE
  5
181
100
AcDbEntity
  8
Part Placement Guide
  6
ByLayer
 62
  256
370
   -1
100
AcDbCircle
 10
211.0059565385102
 20
10.21582876400346
 40
0.75
  0
LINE
  5
182
100
AcDbEntity
  8
PCB_Hand
  6
ByLayer
 62
  256
370
   -1
100
AcDbLine
 10
171.411106500167
 20
-6.030613167727682
 11
207.1963290164054
 21
12.20286842011686
  0
ARC
  5
183
100
AcDbEntity
  8
PCB_Hand
  6
ByLayer
 62
  256
370
   -1
100
AcDbCircle
 10
172.5460827495158
 20
-8.25812947819859
 40
2.5
100
AcDbArc
 50
116.9999999999998
 51
207.0000000000001
  0
LINE
  5
184
100
AcDbEntity
  8
PCB_Hand
  6
ByLayer
 62
  256
370
   -1
100
AcDbLine
 10
170.3185664390449
 20
-9.393105727547459
 11
188.5235854786008
 21
-45.12246734750101
  0
LINE
  5
185
100
AcDbEntity
  8
PCB_Hand
  6
ByLayer
 62
  256
370
   -1
100
AcDbLine
 10
191.8860780384205
 20
-46.21500740862304
 11
232.6434552162139
 21
-25.44808648189395
  0
ARC
  5
186
100
AcDbEntity
  8
PCB_Hand
  6
ByLayer
 62
  256
370
   -1
100
AcDbCircle
 10
190.7511017890717
 20
-43.98749109815213
 40
2.5
100
AcDbArc
 50
207.0000000000003
 51
296.9999999999998
  0
LINE
  5
187
100
AcDbEntity
  8
PCB_Main
  6
ByLayer
 62
  256
370
   -1
100
AcDbLine
 10
138.1216339076857
 20
56.96831205289712
 11
145.6216339076857
 21
56.96831205289712
  0
CIRCLE
  5
188
100
AcDbEntity
  8
Part Placement Guide
  6
ByLayer
 62
  256
370
   -1
100
AcDbCircle
 10
130.5516339076861
 20
54.44832455567254
 40
1
  0
CIRCLE
  5
189
100
AcDbEntity
  8
Part Placement Guide
  6
ByLayer
 62
  256
370
   -1
100
AcDbCircle
 10
133.0916339076861
 20
54.44832455567254
 40
1
  0
CIRCLE
  5
18A
100
AcDbEntity
  8
Part Placement Guide
  6
ByLayer
 62
  256
370
   -1
100
AcDbCircle
 10
135.6316339076861
 20
54.44832455567254
 40
1
  0
LINE
  5
18B
100
AcDbEntity
  8
I2C_Module
  6
ByLayer
 62
  256
370
   -1
100
AcDbLine
 10
128.6416339076861
 20
52.53832455567254
 11
137.5316339076861
 21
52.53832455567254
  0
ARC
  5
18C
100
AcDbEntity
  8
I2C_Module
  6
ByLayer
 62
  256
370
   -1
100
AcDbCircle
 10
140.1816339076861
 20
55.07832455567254
 40
2.539999999999992
100
AcDbArc
 50
90
 51
180
  0
LINE
  5
18D
100
AcDbEntity
  8
I2C_Module
  6
ByLayer
 62
  256
370
   -1
100
AcDbLine
 10
131.1816339076861
 20
83.01832455567251
 11
157.8516339076861
 21
83.01832455567251
  0
ARC
  5
18E
100
AcDbEntity
  8
I2C_Module
  6
ByLayer
 62
  256
370
   -1
100
AcDbCircle
 10
157.8516339076861
 20
80.47832455567251
 40
2.539999999999992
100
AcDbArc
 50
0
 51
90
  0
ARC
  5
18F
100
AcDbEntity
  8
I2C_Module
  6
ByLayer
 62
  256
370
   -1
100
AcDbCircle
 10
131.1816339076861
 20
80.47832455567251
 40
2.539999999999992
100
AcDbArc
 50
90
 51
180
  0
LINE
  5
190
100
AcDbEntity
  8
I2C_Module
  6
ByLayer
 62
  256
370
   -1
100
AcDbLine
 10
128.6416339076861
 20
60.15832455567252
 11
128.6416339076861
 21
80.47832455567251
  0
LINE
  5
191
100
AcDbEntity
  8
I2C_Module
  6
ByLayer
 62
  256
370
   -1
100
AcDbLine
 10
160.3916339076861
 20
60.15832455567252
 11
160.3916339076861
 21
80.47832455567251
  0
LINE
  5
192
100
AcDbEntity
  8
I2C_Module
  6
ByLayer
 62
  256
370
   -1
100
AcDbLine
 10
157.9616339076861
 20
57.61832455567253
 11
146.5316339076861
 21
57.61832455567253
  0
ARC
  5
193
100
AcDbEntity
  8
I2C_Module
  6
ByLayer
 62
  256
370
   -1
100
AcDbCircle
 10
157.8516339076861
 20
60.15832455567252
 40
2.539999999999992
100
AcDbArc
 50
270
 51
360
  0
LINE
  5
194
100
AcDbEntity
  8
I2C_Module
  6
ByLayer
 62
  256
370
   -1
100
AcDbLine
 10
128.6416339076861
 20
55.07832455567254
 11
128.6416339076861
 21
60.15832455567252
  0
LINE
  5
195
100
AcDbEntity
  8
I2C_Module
  6
ByLayer
 62
  256
370
   -1
100
AcDbLine
 10
140.1816339076861
 20
57.61832455567253
 11
146.5316339076861
 21
57.61832455567253
  0
LINE
  5
196
100
AcDbEntity
  8
I2C_Module
  6
ByLayer
 62
  256
370
   -1
100
AcDbLine
 10
128.6416339076861
 20
55.07832455567254
 11
128.6416339076861
 21
52.53832455567254
  0
LINE
  5
197
100
AcDbEntity
  8
I2C_Module
  6
ByLayer
 62
  256
370
   -1
100
AcDbLine
 10
137.6416339076861
 20
55.07832455567254
 11
137.5316339076861
 21
52.53832455567254
  0
ENDSEC
  0
SECTION
  2
OBJECTS
  0
DICTIONARY
  5
C
330
0
100
AcDbDictionary
281
    1
  3
ACAD_GROUP
350
D
  0
DICTIONARY
  5
D
330
C
100
AcDbDictionary
281
    1
  0
ENDSEC
  0
EOF
