999
dxfrw 0.6.3
  0
SECTION
  2
HEADER
  9
$ACADVER
  1
AC1021
  9
$DWGCODEPAGE
  3
ANSI_1252
  9
$INSBASE
 10
0
 20
0
 30
0
  9
$EXTMIN
 10
0
 20
0
 30
0
  9
$EXTMAX
 10
362.9348899787615
 20
175.4124068432773
 30
0
  9
$LIMMIN
 10
0
 20
0
  9
$LIMMAX
 10
420
 20
297
  9
$ORTHOMODE
 70
    0
  9
$REGENMODE
 70
    1
  9
$FILLMODE
 70
    1
  9
$QTEXTMODE
 70
    0
  9
$MIRRTEXT
 70
    0
  9
$LTSCALE
 40
1
  9
$ATTMODE
 70
    0
  9
$TEXTSIZE
 40
2.5
  9
$TRACEWID
 40
15.68
  9
$TEXTSTYLE
  7
STANDARD
  9
$CLAYER
  8
Acrylic
  9
$CELTYPE
  6
BYLAYER
  9
$CECOLOR
 62
  256
  9
$CELTSCALE
 40
1
  9
$DISPSILH
 70
    0
  9
$DIMSCALE
 40
2.5
  9
$DIMASZ
 40
2.5
  9
$DIMEXO
 40
0.625
  9
$DIMDLI
 40
3.75
  9
$DIMRND
 40
0
  9
$DIMDLE
 40
0
  9
$DIMEXE
 40
1.25
  9
$DIMTP
 40
0
  9
$DIMTM
 40
0
  9
$DIMTXT
 40
2.5
  9
$DIMCEN
 40
2.5
  9
$DIMTSZ
 40
0
  9
$DIMTOL
 70
    0
  9
$DIMLIM
 70
    0
  9
$DIMTIH
 70
    0
  9
$DIMTOH
 70
    0
  9
$DIMSE1
 70
    0
  9
$DIMSE2
 70
    0
  9
$DIMTAD
 70
    1
  9
$DIMZIN
 70
    8
  9
$DIMBLK
  1

  9
$DIMASO
 70
    1
  9
$DIMSHO
 70
    1
  9
$DIMPOST
  1

  9
$DIMAPOST
  1

  9
$DIMALT
 70
    0
  9
$DIMALTD
 70
    3
  9
$DIMALTF
 40
0.03937
  9
$DIMLFAC
 40
1
  9
$DIMTOFL
 70
    1
  9
$DIMTVP
 40
0
  9
$DIMTIX
 70
    0
  9
$DIMSOXD
 70
    0
  9
$DIMSAH
 70
    0
  9
$DIMBLK1
  1

  9
$DIMBLK2
  1

  9
$DIMSTYLE
  2
STANDARD
  9
$DIMCLRD
 70
    0
  9
$DIMCLRE
 70
    0
  9
$DIMCLRT
 70
    0
  9
$DIMTFAC
 40
1
  9
$DIMGAP
 40
0.625
  9
$DIMJUST
 70
    0
  9
$DIMSD1
 70
    0
  9
$DIMSD2
 70
    0
  9
$DIMTOLJ
 70
    0
  9
$DIMTZIN
 70
    8
  9
$DIMALTZ
 70
    0
  9
$DIMALTTZ
 70
    0
  9
$DIMUPT
 70
    0
  9
$DIMDEC
 70
    2
  9
$DIMTDEC
 70
    2
  9
$DIMALTU
 70
    2
  9
$DIMALTTD
 70
    3
  9
$DIMTXSTY
  7
STANDARD
  9
$DIMAUNIT
 70
    0
  9
$DIMADEC
 70
    0
  9
$DIMALTRND
 40
0
  9
$DIMAZIN
 70
    0
  9
$DIMDSEP
 70
   44
  9
$DIMATFIT
 70
    3
  9
$DIMFRAC
 70
    0
  9
$DIMLDRBLK
  1
STANDARD
  9
$DIMLUNIT
 70
    2
  9
$DIMLWD
 70
   -2
  9
$DIMLWE
 70
   -2
  9
$DIMTMOVE
 70
    0
  9
$DIMFXL
 40
1
  9
$DIMFXLON
 70
    0
  9
$DIMJOGANG
 40
0.7854
  9
$DIMTFILL
 70
    0
  9
$DIMTFILLCLR
 70
    0
  9
$DIMARCSYM
 70
    0
  9
$DIMLTYPE
  6

  9
$DIMLTEX1
  6

  9
$DIMLTEX2
  6

  9
$LUNITS
 70
    2
  9
$LUPREC
 70
    4
  9
$SKETCHINC
 40
1
  9
$FILLETRAD
 40
0
  9
$AUNITS
 70
    0
  9
$AUPREC
 70
    2
  9
$MENU
  1
.
  9
$ELEVATION
 40
0
  9
$PELEVATION
 40
0
  9
$THICKNESS
 40
0
  9
$LIMCHECK
 70
    0
  9
$CHAMFERA
 40
0
  9
$CHAMFERB
 40
0
  9
$CHAMFERC
 40
0
  9
$CHAMFERD
 40
0
  9
$SKPOLY
 70
    0
  9
$USRTIMER
 70
    1
  9
$ANGBASE
 50
0
  9
$ANGDIR
 70
    0
  9
$PDMODE
 70
   34
  9
$PDSIZE
 40
0
  9
$PLINEWID
 40
0
  9
$SPLFRAME
 70
    0
  9
$SPLINETYPE
 70
    2
  9
$SPLINESEGS
 70
    8
  9
$HANDSEED
  5
20000
  9
$SURFTAB1
 70
    6
  9
$SURFTAB2
 70
    6
  9
$SURFTYPE
 70
    6
  9
$SURFU
 70
    6
  9
$SURFV
 70
    6
  9
$UCSBASE
  2

  9
$UCSNAME
  2

  9
$UCSORG
 10
0
 20
0
 30
0
  9
$UCSXDIR
 10
1
 20
0
 30
0
  9
$UCSYDIR
 10
0
 20
1
 30
0
  9
$UCSORTHOREF
  2

  9
$UCSORTHOVIEW
 70
    0
  9
$UCSORGTOP
 10
0
 20
0
 30
0
  9
$UCSORGBOTTOM
 10
0
 20
0
 30
0
  9
$UCSORGLEFT
 10
0
 20
0
 30
0
  9
$UCSORGRIGHT
 10
0
 20
0
 30
0
  9
$UCSORGFRONT
 10
0
 20
0
 30
0
  9
$UCSORGBACK
 10
0
 20
0
 30
0
  9
$PUCSBASE
  2

  9
$PUCSNAME
  2

  9
$PUCSORG
 10
0
 20
0
 30
0
  9
$PUCSXDIR
 10
1
 20
0
 30
0
  9
$PUCSYDIR
 10
0
 20
1
 30
0
  9
$PUCSORTHOREF
  2

  9
$PUCSORTHOVIEW
 70
    0
  9
$PUCSORGTOP
 10
0
 20
0
 30
0
  9
$PUCSORGBOTTOM
 10
0
 20
0
 30
0
  9
$PUCSORGLEFT
 10
0
 20
0
 30
0
  9
$PUCSORGRIGHT
 10
0
 20
0
 30
0
  9
$PUCSORGFRONT
 10
0
 20
0
 30
0
  9
$PUCSORGBACK
 10
0
 20
0
 30
0
  9
$USERI1
 70
    0
  9
$USERI2
 70
    0
  9
$USERI3
 70
    0
  9
$USERI4
 70
    0
  9
$USERI5
 70
    0
  9
$USERR1
 40
0
  9
$USERR2
 40
0
  9
$USERR3
 40
0
  9
$USERR4
 40
0
  9
$USERR5
 40
0
  9
$WORLDVIEW
 70
    1
  9
$SHADEDGE
 70
    3
  9
$SHADEDIF
 70
   70
  9
$TILEMODE
 70
    1
  9
$MAXACTVP
 70
   64
  9
$PINSBASE
 10
0
 20
0
 30
0
  9
$PLIMCHECK
 70
    0
  9
$PEXTMIN
 10
0
 20
0
 30
0
  9
$PEXTMAX
 10
0
 20
0
 30
0
  9
$GRIDMODE
 70
    1
  9
$SNAPSTYLE
 70
    0
  9
$PLIMMIN
 10
0
 20
0
  9
$PLIMMAX
 10
355.6
 20
215.9
  9
$UNITMODE
 70
    0
  9
$VISRETAIN
 70
    1
  9
$PLINEGEN
 70
    0
  9
$PSLTSCALE
 70
    1
  9
$TREEDEPTH
 70
 3020
  9
$CMLSTYLE
  2
Standard
  9
$CMLJUST
 70
    0
  9
$CMLSCALE
 40
20
  9
$PROXYGRAPHICS
 70
    1
  9
$MEASUREMENT
 70
    1
  9
$CELWEIGHT
370
   -1
  9
$ENDCAPS
280
    0
  9
$JOINSTYLE
280
    0
  9
$LWDISPLAY
290
    0
  9
$INSUNITS
 70
    4
  9
$HYPERLINKBASE
  1

  9
$STYLESHEET
  1

  9
$XEDIT
290
    1
  9
$CEPSNTYPE
380
    0
  9
$PSTYLEMODE
290
    1
  9
$EXTNAMES
290
    1
  9
$PSVPSCALE
 40
1
  9
$OLESTARTUP
290
    0
  9
$SORTENTS
280
  127
  9
$INDEXCTL
280
    0
  9
$HIDETEXT
280
    1
  9
$XCLIPFRAME
290
    0
  9
$HALOGAP
280
    0
  9
$OBSCOLOR
 70
  257
  9
$OBSLTYPE
280
    0
  9
$INTERSECTIONDISPLAY
280
    0
  9
$INTERSECTIONCOLOR
 70
  257
  9
$DIMASSOC
280
    1
  9
$PROJECTNAME
  1

  9
$CAMERADISPLAY
290
    0
  9
$LENSLENGTH
 40
50
  9
$CAMERAHEIGHT
 40
0
  9
$STEPSPERSEC
 40
2
  9
$STEPSIZE
 40
50
  9
$3DDWFPREC
 40
2
  9
$PSOLWIDTH
 40
5
  9
$PSOLHEIGHT
 40
80
  9
$LOFTANG1
 40
1.570796326794897
  9
$LOFTANG2
 40
1.570796326794897
  9
$LOFTMAG1
 40
0
  9
$LOFTMAG2
 40
0
  9
$LOFTPARAM
 70
    7
  9
$LOFTNORMALS
280
    1
  9
$LATITUDE
 40
1
  9
$LONGITUDE
 40
1
  9
$NORTHDIRECTION
 40
0
  9
$TIMEZONE
 70
-8000
  9
$LIGHTGLYPHDISPLAY
280
    1
  9
$TILEMODELIGHTSYNCH
280
    1
  9
$SOLIDHIST
280
    1
  9
$SHOWHIST
280
    1
  9
$DWFFRAME
280
    2
  9
$DGNFRAME
280
    0
  9
$REALWORLDSCALE
290
    1
  9
$INTERFERECOLOR
 62
    1
  9
$CSHADOW
280
    0
  9
$SHADOWPLANELOCATION
 40
0
  0
ENDSEC
  0
SECTION
  2
CLASSES
  0
ENDSEC
  0
SECTION
  2
TABLES
  0
TABLE
  2
VPORT
  5
8
330
0
100
AcDbSymbolTable
 70
    1
  0
VPORT
  5
31
330
2
100
AcDbSymbolTableRecord
100
AcDbViewportTableRecord
  2
*ACTIVE
 70
    0
 10
0
 20
0
 11
1
 21
1
 12
167.3514136688143
 22
94.3744189105953
 13
0
 23
0
 14
10
 24
10
 15
10
 25
10
 16
0
 26
0
 36
1
 17
0
 27
0
 37
0
 40
77.24666425651429
 41
1.98856416772554
 42
50
 43
0
 44
0
 50
0
 51
0
 71
    0
 72
  100
 73
    1
 74
    3
 75
    0
 76
    1
 77
    0
 78
    0
281
    0
 65
    1
110
0
120
0
130
0
111
1
121
0
131
0
112
0
122
1
132
0
 79
    0
146
0
348
10020
 60
    7
 61
    5
292
1
282
    1
141
0
142
0
 63
  250
421
3358443
  0
ENDTAB
  0
TABLE
  2
LTYPE
  5
5
330
0
100
AcDbSymbolTable
 70
    4
  0
LTYPE
  5
14
330
5
100
AcDbSymbolTableRecord
100
AcDbLinetypeTableRecord
  2
ByBlock
 70
    0
  3

 72
   65
 73
    0
 40
0
  0
LTYPE
  5
15
330
5
100
AcDbSymbolTableRecord
100
AcDbLinetypeTableRecord
  2
ByLayer
 70
    0
  3

 72
   65
 73
    0
 40
0
  0
LTYPE
  5
16
330
5
100
AcDbSymbolTableRecord
100
AcDbLinetypeTableRecord
  2
Continuous
 70
    0
  3
Solid line
 72
   65
 73
    0
 40
0
  0
LTYPE
  5
32
330
5
100
AcDbSymbolTableRecord
100
AcDbLinetypeTableRecord
  2
DOT
 70
    0
  3
Dot . . . . . . . . . . . . . . . . . . . . . .
 72
   65
 73
    2
 40
6.35
 49
0
 74
    0
 49
-6.35
 74
    0
  0
LTYPE
  5
33
330
5
100
AcDbSymbolTableRecord
100
AcDbLinetypeTableRecord
  2
DOTTINY
 70
    0
  3
Dot (.15x) .....................................
 72
   65
 73
    2
 40
0.9525
 49
0
 74
    0
 49
-0.9525
 74
    0
  0
LTYPE
  5
34
330
5
100
AcDbSymbolTableRecord
100
AcDbLinetypeTableRecord
  2
DOT2
 70
    0
  3
Dot (.5x) .....................................
 72
   65
 73
    2
 40
3.175
 49
0
 74
    0
 49
-3.175
 74
    0
  0
LTYPE
  5
35
330
5
100
AcDbSymbolTableRecord
100
AcDbLinetypeTableRecord
  2
DOTX2
 70
    0
  3
Dot (2x) .  .  .  .  .  .  .  .  .  .  .  .  .
 72
   65
 73
    2
 40
12.7
 49
0
 74
    0
 49
-12.7
 74
    0
  0
LTYPE
  5
36
330
5
100
AcDbSymbolTableRecord
100
AcDbLinetypeTableRecord
  2
DASHED
 70
    0
  3
Dashed _ _ _ _ _ _ _ _ _ _ _ _ _ _ _ _ _
 72
   65
 73
    2
 40
19.05
 49
12.7
 74
    0
 49
-6.35
 74
    0
  0
LTYPE
  5
37
330
5
100
AcDbSymbolTableRecord
100
AcDbLinetypeTableRecord
  2
DASHEDTINY
 70
    0
  3
Dashed (.15x) _ _ _ _ _ _ _ _ _ _ _ _ _ _ _ _ _
 72
   65
 73
    2
 40
2.8575
 49
1.905
 74
    0
 49
-0.9525
 74
    0
  0
LTYPE
  5
38
330
5
100
AcDbSymbolTableRecord
100
AcDbLinetypeTableRecord
  2
DASHED2
 70
    0
  3
Dashed (.5x) _ _ _ _ _ _ _ _ _ _ _ _ _ _ _ _ _
 72
   65
 73
    2
 40
9.524999999999999
 49
6.35
 74
    0
 49
-3.175
 74
    0
  0
LTYPE
  5
39
330
5
100
AcDbSymbolTableRecord
100
AcDbLinetypeTableRecord
  2
DASHEDX2
 70
    0
  3
Dashed (2x) ____  ____  ____  ____  ____  ___
 72
   65
 73
    2
 40
38.09999999999999
 49
25.4
 74
    0
 49
-12.7
 74
    0
  0
LTYPE
  5
3A
330
5
100
AcDbSymbolTableRecord
100
AcDbLinetypeTableRecord
  2
DASHDOT
 70
    0
  3
Dash dot __ . __ . __ . __ . __ . __ . __ . __
 72
   65
 73
    4
 40
25.4
 49
12.7
 74
    0
 49
-6.35
 74
    0
 49
0
 74
    0
 49
-6.35
 74
    0
  0
LTYPE
  5
3B
330
5
100
AcDbSymbolTableRecord
100
AcDbLinetypeTableRecord
  2
DASHDOTTINY
 70
    0
  3
Dash dot (.15x) _._._._._._._._._._._._._._._.
 72
   65
 73
    4
 40
3.81
 49
1.905
 74
    0
 49
-0.9525
 74
    0
 49
0
 74
    0
 49
-0.9525
 74
    0
  0
LTYPE
  5
3C
330
5
100
AcDbSymbolTableRecord
100
AcDbLinetypeTableRecord
  2
DASHDOT2
 70
    0
  3
Dash dot (.5x) _._._._._._._._._._._._._._._.
 72
   65
 73
    4
 40
12.7
 49
6.35
 74
    0
 49
-3.175
 74
    0
 49
0
 74
    0
 49
-3.175
 74
    0
  0
LTYPE
  5
3D
330
5
100
AcDbSymbolTableRecord
100
AcDbLinetypeTableRecord
  2
DASHDOTX2
 70
    0
  3
Dash dot (2x) ____  .  ____  .  ____  .  ___
 72
   65
 73
    4
 40
50.8
 49
25.4
 74
    0
 49
-12.7
 74
    0
 49
0
 74
    0
 49
-12.7
 74
    0
  0
LTYPE
  5
3E
330
5
100
AcDbSymbolTableRecord
100
AcDbLinetypeTableRecord
  2
DIVIDE
 70
    0
  3
Divide ____ . . ____ . . ____ . . ____ . . ____
 72
   65
 73
    6
 40
31.75
 49
12.7
 74
    0
 49
-6.35
 74
    0
 49
0
 74
    0
 49
-6.35
 74
    0
 49
0
 74
    0
 49
-6.35
 74
    0
  0
LTYPE
  5
3F
330
5
100
AcDbSymbolTableRecord
100
AcDbLinetypeTableRecord
  2
DIVIDETINY
 70
    0
  3
Divide (.15x) __..__..__..__..__..__..__..__.._
 72
   65
 73
    6
 40
4.7625
 49
1.905
 74
    0
 49
-0.9525
 74
    0
 49
0
 74
    0
 49
-0.9525
 74
    0
 49
0
 74
    0
 49
-0.9525
 74
    0
  0
LTYPE
  5
40
330
5
100
AcDbSymbolTableRecord
100
AcDbLinetypeTableRecord
  2
DIVIDE2
 70
    0
  3
Divide (.5x) __..__..__..__..__..__..__..__.._
 72
   65
 73
    6
 40
15.875
 49
6.35
 74
    0
 49
-3.175
 74
    0
 49
0
 74
    0
 49
-3.175
 74
    0
 49
0
 74
    0
 49
-3.175
 74
    0
  0
LTYPE
  5
41
330
5
100
AcDbSymbolTableRecord
100
AcDbLinetypeTableRecord
  2
DIVIDEX2
 70
    0
  3
Divide (2x) ________  .  .  ________  .  .  _
 72
   65
 73
    6
 40
63.5
 49
25.4
 74
    0
 49
-12.7
 74
    0
 49
0
 74
    0
 49
-12.7
 74
    0
 49
0
 74
    0
 49
-12.7
 74
    0
  0
LTYPE
  5
42
330
5
100
AcDbSymbolTableRecord
100
AcDbLinetypeTableRecord
  2
BORDER
 70
    0
  3
Border __ __ . __ __ . __ __ . __ __ . __ __ .
 72
   65
 73
    6
 40
44.45
 49
12.7
 74
    0
 49
-6.35
 74
    0
 49
12.7
 74
    0
 49
-6.35
 74
    0
 49
0
 74
    0
 49
-6.35
 74
    0
  0
LTYPE
  5
43
330
5
100
AcDbSymbolTableRecord
100
AcDbLinetypeTableRecord
  2
BORDERTINY
 70
    0
  3
Border (.15x) __.__.__.__.__.__.__.__.__.__.__.
 72
   65
 73
    6
 40
6.6675
 49
1.905
 74
    0
 49
-0.9525
 74
    0
 49
1.905
 74
    0
 49
-0.9525
 74
    0
 49
0
 74
    0
 49
-0.9525
 74
    0
  0
LTYPE
  5
44
330
5
100
AcDbSymbolTableRecord
100
AcDbLinetypeTableRecord
  2
BORDER2
 70
    0
  3
Border (.5x) __.__.__.__.__.__.__.__.__.__.__.
 72
   65
 73
    6
 40
22.225
 49
6.35
 74
    0
 49
-3.175
 74
    0
 49
6.35
 74
    0
 49
-3.175
 74
    0
 49
0
 74
    0
 49
-3.175
 74
    0
  0
LTYPE
  5
45
330
5
100
AcDbSymbolTableRecord
100
AcDbLinetypeTableRecord
  2
BORDERX2
 70
    0
  3
Border (2x) ____  ____  .  ____  ____  .  ___
 72
   65
 73
    6
 40
88.89999999999999
 49
25.4
 74
    0
 49
-12.7
 74
    0
 49
25.4
 74
    0
 49
-12.7
 74
    0
 49
0
 74
    0
 49
-12.7
 74
    0
  0
LTYPE
  5
46
330
5
100
AcDbSymbolTableRecord
100
AcDbLinetypeTableRecord
  2
CENTER
 70
    0
  3
Center ____ _ ____ _ ____ _ ____ _ ____ _ ____
 72
   65
 73
    4
 40
50.8
 49
31.75
 74
    0
 49
-6.35
 74
    0
 49
6.35
 74
    0
 49
-6.35
 74
    0
  0
LTYPE
  5
47
330
5
100
AcDbSymbolTableRecord
100
AcDbLinetypeTableRecord
  2
CENTERTINY
 70
    0
  3
Center (.15x) ___ _ ___ _ ___ _ ___ _ ___ _ ___
 72
   65
 73
    4
 40
7.62
 49
4.7625
 74
    0
 49
-0.9525
 74
    0
 49
0.9525
 74
    0
 49
-0.9525
 74
    0
  0
LTYPE
  5
48
330
5
100
AcDbSymbolTableRecord
100
AcDbLinetypeTableRecord
  2
CENTER2
 70
    0
  3
Center (.5x) ___ _ ___ _ ___ _ ___ _ ___ _ ___
 72
   65
 73
    4
 40
28.575
 49
19.05
 74
    0
 49
-3.175
 74
    0
 49
3.175
 74
    0
 49
-3.175
 74
    0
  0
LTYPE
  5
49
330
5
100
AcDbSymbolTableRecord
100
AcDbLinetypeTableRecord
  2
CENTERX2
 70
    0
  3
Center (2x) ________  __  ________  __  _____
 72
   65
 73
    4
 40
101.6
 49
63.5
 74
    0
 49
-12.7
 74
    0
 49
12.7
 74
    0
 49
-12.7
 74
    0
  0
ENDTAB
  0
TABLE
  2
LAYER
  5
2
330
0
100
AcDbSymbolTable
 70
    1
  0
LAYER
  5
10
330
2
100
AcDbSymbolTableRecord
100
AcDbLayerTableRecord
  2
0
 70
    0
 62
    5
  6
CONTINUOUS
370
    0
390
F
  0
LAYER
  5
4A
330
2
100
AcDbSymbolTableRecord
100
AcDbLayerTableRecord
  2
Acrylic
 70
    0
 62
    2
  6
CONTINUOUS
370
    0
390
F
  0
LAYER
  5
4B
330
2
100
AcDbSymbolTableRecord
100
AcDbLayerTableRecord
  2
Construction
 70
    1
 62
  216
420
8388736
  6
CONTINUOUS
370
    0
390
F
1001
LibreCad
1070
    1
  0
LAYER
  5
4C
330
2
100
AcDbSymbolTableRecord
100
AcDbLayerTableRecord
  2
Metal
 70
    0
 62
    3
  6
CONTINUOUS
370
    0
390
F
  0
LAYER
  5
4D
330
2
100
AcDbSymbolTableRecord
100
AcDbLayerTableRecord
  2
Metal Old
 70
    1
 62
   96
420
32768
  6
CONTINUOUS
370
    0
390
F
  0
LAYER
  5
4E
330
2
100
AcDbSymbolTableRecord
100
AcDbLayerTableRecord
  2
Ref
 70
    1
 62
   56
420
8421376
  6
CONTINUOUS
370
    0
390
F
  0
ENDTAB
  0
TABLE
  2
STYLE
  5
3
330
0
100
AcDbSymbolTable
 70
    3
  0
STYLE
  5
4F
330
2
100
AcDbSymbolTableRecord
100
AcDbTextStyleTableRecord
  2
Standard
 70
    0
 40
0
 41
1
 50
0
 71
    0
 42
1
  3
txt
  4

  0
ENDTAB
  0
TABLE
  2
VIEW
  5
6
330
0
100
AcDbSymbolTable
 70
    0
  0
ENDTAB
  0
TABLE
  2
UCS
  5
7
330
0
100
AcDbSymbolTable
 70
    0
  0
ENDTAB
  0
TABLE
  2
APPID
  5
9
330
0
100
AcDbSymbolTable
 70
    1
  0
APPID
  5
12
330
9
100
AcDbSymbolTableRecord
100
AcDbRegAppTableRecord
  2
ACAD
 70
    0
  0
APPID
  5
50
330
9
100
AcDbSymbolTableRecord
100
AcDbRegAppTableRecord
  2
LibreCad
 70
    0
  0
ENDTAB
  0
TABLE
  2
DIMSTYLE
  5
A
330
0
100
AcDbSymbolTable
 70
    1
100
AcDbDimStyleTable
 71
    1
  0
DIMSTYLE
105
51
330
A
100
AcDbSymbolTableRecord
100
AcDbDimStyleTableRecord
  2
Standard
 70
    0
 40
2.5
 41
2.5
 42
0.625
 43
0.38
 44
1.25
 45
0
 46
0
 47
0
 48
0
 49
1
140
2.5
141
0.09
142
0
143
25.4
144
1
145
0
146
1
147
0.625
148
0
 71
    0
 72
    0
 73
    0
 74
    1
 75
    0
 76
    0
 77
    0
 78
    8
 79
    0
170
    0
171
    2
172
    0
173
    0
174
    0
175
    0
176
    0
177
    0
178
    0
179
    0
271
    2
272
    4
273
    2
274
    2
275
    0
276
    0
277
    2
278
   44
279
    0
280
    0
281
    0
282
    0
283
    1
284
    0
285
    0
286
    0
288
    0
289
    3
340
STANDARD
341

371
   -2
372
   -2
  0
ENDTAB
  0
TABLE
  2
BLOCK_RECORD
  5
1
330
0
100
AcDbSymbolTable
 70
    2
  0
BLOCK_RECORD
  5
1F
330
1
100
AcDbSymbolTableRecord
100
AcDbBlockTableRecord
  2
*Model_Space
 70
    0
280
    1
281
    0
  0
BLOCK_RECORD
  5
1E
330
1
100
AcDbSymbolTableRecord
100
AcDbBlockTableRecord
  2
*Paper_Space
 70
    0
280
    1
281
    0
  0
ENDTAB
  0
ENDSEC
  0
SECTION
  2
BLOCKS
  0
BLOCK
  5
20
330
1F
100
AcDbEntity
  8
0
100
AcDbBlockBegin
  2
*Model_Space
 70
    0
 10
0
 20
0
 30
0
  3
*Model_Space
  1

  0
ENDBLK
  5
21
330
1F
100
AcDbEntity
  8
0
100
AcDbBlockEnd
  0
BLOCK
  5
1C
330
1B
100
AcDbEntity
  8
0
100
AcDbBlockBegin
  2
*Paper_Space
 70
    0
 10
0
 20
0
 30
0
  3
*Paper_Space
  1

  0
ENDBLK
  5
1D
330
1F
100
AcDbEntity
  8
0
100
AcDbBlockEnd
  0
ENDSEC
  0
SECTION
  2
ENTITIES
  0
CIRCLE
  5
52
100
AcDbEntity
  8
Metal
  6
ByLayer
 62
  256
370
   -1
100
AcDbCircle
 10
88.10595883234916
 20
108.9879910079296
 40
1.1
  0
CIRCLE
  5
53
100
AcDbEntity
  8
Metal
  6
ByLayer
 62
  256
370
   -1
100
AcDbCircle
 10
294.7139432235324
 20
108.9879910358522
 40
1.1
  0
LWPOLYLINE
  5
54
100
AcDbEntity
  8
Metal
  6
ByLayer
 62
  256
370
   -1
100
AcDbPolyline
 90
    8
 70
    1
 43
0
 10
38.10093444674306
 20
136.9455596743253
 10
49.78979704042519
 20
134.4610152315796
 42
0.414213271995816
 10
51.06481152981893
 20
135.2890162946494
 10
53.54935671920219
 20
146.9778824009819
 42
0.4142132782510319
 10
52.72135413606209
 20
148.2528959225878
 10
41.03248928727344
 20
150.7374408446719
 42
0.4142135623730243
 10
39.75747554885556
 20
149.9094372415122
 10
37.27293084358332
 20
138.2205734127432
 42
0.4142135623730951
  0
LWPOLYLINE
  5
55
100
AcDbEntity
  8
Metal
  6
ByLayer
 62
  256
370
   -1
100
AcDbPolyline
 90
    8
 70
    1
 43
0
 10
25.93810053390414
 20
79.72392503139767
 10
37.62696436267311
 20
77.23938032612544
 42
0.4142135623730974
 10
38.90197810109106
 20
78.06738392928517
 10
41.38652267177683
 20
89.75624712487569
 42
0.4142137387422549
 10
40.55851920320352
 20
91.03126149647208
 10
28.86965537443454
 20
93.51580620174434
 42
0.4142134553472195
 10
27.59464171768742
 20
92.68780298281553
 10
25.11009693074439
 20
80.9989387698156
 42
0.414213562373098
  0
LWPOLYLINE
  5
56
100
AcDbEntity
  8
Metal
  6
ByLayer
 62
  256
370
   -1
100
AcDbPolyline
 90
    8
 70
    1
 43
0
 10
45.01197874821335
 20
75.66964706045135
 10
56.70084257698233
 20
73.18510235517913
 42
0.414213562373089
 10
57.97585631540026
 20
74.01310595833887
 10
60.46040078085666
 20
85.70196865886598
 42
0.4142137542810665
 10
59.63239785679072
 20
86.97698343215436
 10
47.94353455365766
 20
89.46152802569875
 42
0.4142136981886596
 10
46.66851995178457
 20
88.63352510496421
 10
44.1839751450536
 20
76.94466079886928
 42
0.4142135623731067
  0
LWPOLYLINE
  5
57
100
AcDbEntity
  8
Metal
  6
ByLayer
 62
  256
370
   -1
100
AcDbPolyline
 90
    8
 70
    1
 43
0
 10
29.99237850485044
 20
98.79780324570687
 10
41.68124174450519
 20
96.31325866565491
 42
0.4142131966689881
 10
42.95625566775059
 20
97.14126024157473
 10
45.44080053344888
 20
108.830124825092
 42
0.4142138819406671
 10
44.61279717414982
 20
110.1051397107813
 10
32.9239335917589
 20
112.5896843636842
 42
0.4142132226502777
 10
31.64891991857268
 20
111.7616822789024
 10
29.16437518005071
 20
100.0728182937018
 42
0.4142139271502198
  0
LWPOLYLINE
  5
58
100
AcDbEntity
  8
Metal
  6
ByLayer
 62
  256
370
   -1
100
AcDbPolyline
 90
    8
 70
    1
 43
0
 10
49.06625671915965
 20
94.74352527476056
 10
60.75511930078262
 20
92.2589808345782
 42
0.4142139097603341
 10
62.03013428634657
 20
93.08698417264809
 10
64.51467899161878
 20
104.7758480014171
 42
0.414213562373095
 10
63.68667538845904
 20
106.050861739835
 10
51.99781155969006
 20
108.5354064451072
 42
0.414213344594457
 10
50.72279798745772
 20
107.7074036237892
 10
48.23825325919011
 20
96.0185396868344
 42
0.4142137500170793
  0
LWPOLYLINE
  5
59
100
AcDbEntity
  8
Metal
  6
ByLayer
 62
  256
370
   -1
100
AcDbPolyline
 90
    8
 70
    1
 43
0
 10
34.04665647579675
 20
117.8716814600161
 10
45.73552030456573
 20
115.3871367547439
 42
0.4142135623730927
 10
47.01053404298366
 20
116.2151403579036
 10
49.49507866286041
 20
127.9040037849188
 42
0.4142136742798903
 10
48.66707514509613
 20
129.1790179250905
 10
36.97821262581643
 20
131.6635623520213
 42
0.4142131098106273
 10
35.70319820159757
 20
130.835561961426
 10
33.21865287263698
 20
119.146695198434
 42
0.4142135623731024
  0
LWPOLYLINE
  5
5A
100
AcDbEntity
  8
Metal
  6
ByLayer
 62
  256
370
   -1
100
AcDbPolyline
 90
    8
 70
    1
 43
0
 10
53.12053469010596
 20
113.8174034890698
 10
64.8093978717786
 20
111.3328589213423
 42
0.4142134580919078
 10
66.08441204017194
 20
112.1608613654836
 10
68.56895653509233
 20
123.8497242046345
 42
0.4142138525914162
 10
67.74095432859197
 20
125.1247397481373
 10
56.0520902848687
 20
127.6092844990991
 42
0.4142134142495292
 10
54.77707606556767
 20
126.7812823422638
 10
52.29253132275925
 20
115.0924183368981
 42
0.4142138713946381
  0
LWPOLYLINE
  5
5B
100
AcDbEntity
  8
Metal
  6
ByLayer
 62
  256
370
   -1
100
AcDbPolyline
 90
    8
 70
    1
 43
0
 10
57.17481266105227
 20
132.891281703379
 10
68.86367648982123
 20
130.4067369981068
 42
0.4142132551473908
 10
70.13868999379706
 20
131.234739498303
 10
72.62323459926672
 20
142.9236028575437
 42
0.4142140003840494
 10
71.79523133035165
 20
144.1986181684534
 10
60.10636750158267
 20
146.6831628737256
 42
0.4142130520974874
 10
58.83135415255308
 20
145.855161102494
 10
56.34680939345242
 20
134.1662970204763
 42
0.4142140021076101
  0
LWPOLYLINE
  5
5C
100
AcDbEntity
  8
Metal
  6
ByLayer
 62
  256
370
   -1
100
AcDbPolyline
 90
    8
 70
    1
 43
0
 10
64.8135478803847
 20
75.03888569207336
 10
76.50241154687768
 20
72.55434102129398
 42
0.4142136075743774
 10
77.7774254475716
 20
73.38234458996088
 10
80.26197015284383
 20
85.07120841872987
 42
0.414213562373095
 10
79.43396654968411
 20
86.34622215714782
 10
67.74510272091513
 20
88.83076686241999
 42
0.4142132483662836
 10
66.47008922211393
 20
88.00276438656844
 10
63.98554450269467
 20
76.31390049124018
 42
0.41421385784021
  0
LWPOLYLINE
  5
5D
100
AcDbEntity
  8
Metal
  6
ByLayer
 62
  256
370
   -1
100
AcDbPolyline
 90
    8
 70
    1
 43
0
 10
102.9613043090032
 20
66.93032975018075
 10
114.6501681377722
 20
64.4457850449085
 42
0.4142134603347241
 10
115.9251817983252
 20
65.27378828174285
 10
118.4097262720282
 20
76.96265102106962
 42
0.4142133281346129
 10
117.5817252750042
 20
78.23766572707616
 10
105.8928603891727
 20
80.7222106570332
 42
0.4142139076693468
 10
104.6178454111156
 20
79.89420731736766
 10
102.1333008709654
 20
68.2053442654356
 42
0.4142137787577265
  0
LWPOLYLINE
  5
5E
100
AcDbEntity
  8
Metal
  6
ByLayer
 62
  256
370
   -1
100
AcDbPolyline
 90
    8
 70
    1
 43
0
 10
122.0351825233124
 20
62.87605177923444
 10
133.7240463520814
 20
60.39150707396222
 42
0.4142135623731029
 10
134.9990600904993
 20
61.21951067712196
 10
137.4836045772134
 20
72.90837347765827
 42
0.4142138487829476
 10
136.6556011926116
 20
74.18338824430887
 10
124.9667397243939
 20
76.6679324478277
 42
0.4142139545679354
 10
123.6917238278941
 20
75.83993029896429
 10
121.2071789201526
 20
64.15106551765237
 42
0.4142135623730954
  0
LWPOLYLINE
  5
5F
100
AcDbEntity
  8
Metal
  6
ByLayer
 62
  256
370
   -1
100
AcDbPolyline
 90
    8
 70
    1
 43
0
 10
68.86782585133101
 20
94.11276390638258
 10
80.55668968009999
 20
91.62821920111035
 42
0.4142131712418919
 10
81.83170312004799
 20
92.45622140007949
 10
84.31624812379016
 20
104.1450866330391
 42
0.414213562373095
 10
83.48824452063042
 20
105.420100371457
 10
71.7993815908619
 20
107.9046448856404
 42
0.4142138127858659
 10
70.52436695344349
 20
107.0766414735695
 10
68.03982224817128
 20
95.38777764480051
 42
0.4142135623730988
  0
LWPOLYLINE
  5
60
100
AcDbEntity
  8
Metal
  6
ByLayer
 62
  256
370
   -1
100
AcDbPolyline
 90
    8
 70
    1
 43
0
 10
107.0155822799495
 20
86.00420796448996
 10
118.7044444065659
 20
83.51966362102284
 42
0.4142137725629245
 10
119.9794596457272
 20
84.34766591482186
 10
122.4640042901401
 20
96.03652945727426
 42
0.4142137478974555
 10
121.6360015170748
 20
97.31154430886924
 10
109.9471377208311
 20
99.79608900722785
 42
0.4142137295983682
 10
108.672123382062
 20
98.96808553167688
 10
106.1875789621667
 20
87.27922304549688
 42
0.4142139363455802
  0
LWPOLYLINE
  5
61
100
AcDbEntity
  8
Metal
  6
ByLayer
 62
  256
370
   -1
100
AcDbPolyline
 90
    8
 70
    1
 43
0
 10
126.0894604942587
 20
81.94992999354366
 10
137.7783243230277
 20
79.46538528827143
 42
0.414213375053385
 10
139.0533379185031
 20
80.29338821893928
 10
141.5378827667178
 20
91.98225272020017
 42
0.4142135623731034
 10
140.709879163558
 20
93.25726645861808
 10
129.0210179675375
 20
95.74181060427891
 42
0.4142142957142355
 10
127.7460015963712
 20
94.91380756073058
 10
125.261456891099
 20
83.22494373196159
 42
0.4142135623730866
  0
LWPOLYLINE
  5
62
100
AcDbEntity
  8
Metal
  6
ByLayer
 62
  256
370
   -1
100
AcDbPolyline
 90
    8
 70
    1
 43
0
 10
72.92210382227732
 20
113.1866421206918
 10
84.61096765104629
 20
110.7020974154196
 42
0.4142135097148349
 10
85.88598134928105
 20
111.5301008295321
 10
88.37052583117504
 20
123.2189636073929
 42
0.4142139077574354
 10
87.54252249157672
 20
124.4939785857662
 10
75.85365866280775
 20
126.9785232910384
 42
0.4142135623730791
 10
74.57864492438982
 20
126.1505196878787
 10
72.09410035111797
 20
114.4616564801218
 42
0.4142137353533486
  0
LWPOLYLINE
  5
63
100
AcDbEntity
  8
Metal
  6
ByLayer
 62
  256
370
   -1
100
AcDbPolyline
 90
    8
 70
    1
 43
0
 10
111.0698602508958
 20
105.0780861787992
 10
122.75872274088
 20
102.5935417580954
 42
0.4142135136320144
 10
124.0337374963211
 20
103.4215435629176
 10
126.5182825233548
 20
115.1104089054557
 42
0.4142129051771723
 10
125.6902812795784
 20
116.3854221423712
 10
114.0014150914261
 20
118.8699673491458
 42
0.4142135623730989
 10
112.7264013530083
 20
118.041963745986
 10
110.241856647736
 20
106.3530999172171
 42
0.414213562373095
  0
LWPOLYLINE
  5
64
100
AcDbEntity
  8
Metal
  6
ByLayer
 62
  256
370
   -1
100
AcDbPolyline
 90
    8
 70
    1
 43
0
 10
130.143738465205
 20
101.0238082078529
 10
141.8326019413851
 20
98.53926357752577
 42
0.4142130318718132
 10
143.1076155526244
 20
99.36726484861164
 10
145.592160250548
 20
111.0561286428204
 42
0.4142142007134846
 10
144.7641571345044
 20
112.3311446729273
 10
133.0752944437387
 20
114.8156891363088
 42
0.4142138793590844
 10
131.8002795673175
 20
113.9876857750397
 10
129.3157348620452
 20
102.2988219462708
 42
0.4142135623730958
  0
LWPOLYLINE
  5
65
100
AcDbEntity
  8
Metal
  6
ByLayer
 62
  256
370
   -1
100
AcDbPolyline
 90
    8
 70
    1
 43
0
 10
76.97638179322364
 20
132.260520335001
 10
88.66524431260417
 20
129.7759759080487
 42
0.4142139270976777
 10
89.94025936041054
 20
130.6039792328885
 10
92.42480406568278
 20
142.2928430616575
 42
0.4142131693168477
 10
91.59680187362473
 20
143.5678565001365
 10
79.90793663375405
 20
146.0524015053476
 42
0.414213328235909
 10
78.63292307400479
 20
145.224398742758
 10
76.148378583043
 20
133.5355359222321
 42
0.4142140773522477
  0
LWPOLYLINE
  5
66
100
AcDbEntity
  8
Metal
  6
ByLayer
 62
  256
370
   -1
100
AcDbPolyline
 90
    8
 70
    1
 43
0
 10
115.1241382218421
 20
124.1519643931084
 10
126.8130006426227
 20
121.6674199871143
 42
0.4142133862244484
 10
128.0880153553338
 20
122.4954212506202
 10
130.5725604943012
 20
134.1842871197649
 42
0.4142135623730799
 10
129.7445568911415
 20
135.4593008581828
 10
118.0556951484873
 20
137.9438451200355
 42
0.4142134277842457
 10
116.780679870076
 20
137.1158445295948
 10
114.2961346186823
 20
125.4269781315263
 42
0.414213562373095
  0
LWPOLYLINE
  5
67
100
AcDbEntity
  8
Metal
  6
ByLayer
 62
  256
370
   -1
100
AcDbPolyline
 90
    8
 70
    1
 43
0
 10
134.1980164361513
 20
120.0976864221621
 10
145.8868802649202
 20
117.6131417168899
 42
0.414213304846381
 10
147.161893806821
 20
118.4411443955092
 10
149.646438162413
 20
130.1300065791772
 42
0.4142142781360001
 10
148.8184351054507
 20
131.4050228872365
 10
137.1295712766816
 20
133.8895675925087
 42
0.4142135623730799
 10
135.8545575382637
 20
133.0615639893489
 10
133.3700128329916
 20
121.37270016058
 42
0.4142135623730904
  0
LWPOLYLINE
  5
68
100
AcDbEntity
  8
Metal
  6
ByLayer
 62
  256
370
   -1
100
AcDbPolyline
 90
    8
 70
    1
 43
0
 10
84.61511701255608
 20
74.40812432369538
 10
96.30398084132507
 20
71.92357961842315
 42
0.4142135623730867
 10
97.57899457974298
 20
72.75158322158289
 10
100.0635392850152
 20
84.44044705035188
 42
0.4142135623730867
 10
99.23553568185547
 20
85.71546078876983
 10
87.5466719836049
 20
88.20000546629946
 42
0.4142133138251827
 10
86.27165833207654
 20
87.3720029137064
 10
83.78711340939634
 20
75.68313806211331
 42
0.414213562373091
  0
LWPOLYLINE
  5
69
100
AcDbEntity
  8
Metal
  6
ByLayer
 62
  256
370
   -1
100
AcDbPolyline
 90
    8
 70
    1
 43
0
 10
88.66939498350239
 20
93.48200253800459
 10
100.3582575900462
 20
90.99745809252511
 42
0.4142134193422377
 10
101.6332721817513
 20
91.82545970017514
 10
104.117816897431
 20
103.5143235779142
 42
0.4142135016949289
 10
103.2898155573881
 20
104.7893385982467
 10
91.6009498240328
 20
107.2738837083512
 42
0.4142135623731034
 10
90.32593608561484
 20
106.4458801051915
 10
87.8413916727515
 20
94.7570176520935
 42
0.4142139455604426
  0
LWPOLYLINE
  5
6A
100
AcDbEntity
  8
Metal
  6
ByLayer
 62
  256
370
   -1
100
AcDbPolyline
 90
    8
 70
    1
 43
0
 10
92.7236729544487
 20
112.5558807523138
 10
104.412535732793
 20
110.0713362703168
 42
0.4142138549644276
 10
105.6875505216356
 20
110.8993396502014
 10
108.1720947221155
 20
122.588201104122
 42
0.414214004280186
 10
107.3440924121176
 20
123.8632170498151
 10
95.65522779497911
 20
126.3477619226604
 42
0.4142130031648233
 10
94.38021448328976
 20
125.5197603271009
 10
91.8956695202929
 20
113.8308952858313
 42
0.4142137838446838
  0
LWPOLYLINE
  5
6B
100
AcDbEntity
  8
Metal
  6
ByLayer
 62
  256
370
   -1
100
AcDbPolyline
 90
    8
 70
    1
 43
0
 10
96.77795092539499
 20
131.6297589666231
 10
108.466814754164
 20
129.1452142613508
 42
0.414213562373095
 10
109.7418284925819
 20
129.9732178645106
 10
112.2263728967146
 20
141.6620802765339
 42
0.4142139570016184
 10
111.3983695946943
 20
142.9370954316974
 10
99.70950692181117
 20
145.4216398912779
 42
0.4142138843401686
 10
98.43449202750747
 20
144.5936365338099
 10
95.94994732223525
 20
132.9047727050409
 42
0.4142135623730874
  0
LWPOLYLINE
  5
6C
100
AcDbEntity
  8
Metal
  6
ByLayer
 62
  256
370
   -1
100
AcDbPolyline
 90
    8
 70
    1
 43
0
 10
137.4751576347252
 20
51.84666168085112
 10
148.1226855987762
 20
46.42147520896351
 42
0.414213562373094
 10
149.5685573994987
 20
46.89126743524601
 10
154.9937435326895
 20
57.53879473456767
 42
0.4142134542724692
 10
154.5239526633486
 20
58.98466668119786
 10
143.876424467384
 20
64.40985327125094
 42
0.4142135382398835
 10
142.4305523211987
 20
63.9400623108774
 10
137.0053654084428
 20
53.29253348157365
 42
0.414213562373095
  0
LWPOLYLINE
  5
6D
100
AcDbEntity
  8
Metal
  6
ByLayer
 62
  256
370
   -1
100
AcDbPolyline
 90
    8
 70
    1
 43
0
 10
146.3279723796464
 20
69.22128890252429
 10
156.9754995126665
 20
63.79610285406856
 42
0.4142135120565664
 10
158.4213716371474
 20
64.2658936613408
 10
163.8465581511058
 20
74.9134217079614
 42
0.4142132148394987
 10
163.3767684395535
 20
76.35929337740579
 10
152.7292393933116
 20
81.78448040069649
 42
0.414213858173112
 10
151.2833666252515
 20
81.3146886672978
 10
145.8581801533639
 20
70.66716070324676
 42
0.4142135623730829
  0
LWPOLYLINE
  5
6E
100
AcDbEntity
  8
Metal
  6
ByLayer
 62
  256
370
   -1
100
AcDbPolyline
 90
    8
 70
    1
 43
0
 10
151.6718513582216
 20
36.75680126661138
 10
162.3193783374789
 20
31.33161529650193
 42
0.4142138635109867
 10
163.7652511229952
 20
31.80140702100624
 10
169.1904375948828
 20
42.44893498505724
 42
0.41421356237312
 10
168.7206453686001
 20
43.89480678577981
 10
158.0731174045493
 20
49.31999325766736
 42
0.4142135623730803
 10
156.6272456038267
 20
48.85020103138487
 10
151.2020595491145
 20
38.202673886086
 42
0.4142138127374648
  0
LWPOLYLINE
  5
6F
100
AcDbEntity
  8
Metal
  6
ByLayer
 62
  256
370
   -1
100
AcDbPolyline
 90
    8
 70
    1
 43
0
 10
160.5246661031427
 20
54.13142848828457
 10
171.1721940671939
 20
48.70624201639696
 42
0.4142132406840713
 10
172.6180653318949
 20
49.17603319067804
 10
178.0432513989668
 20
59.82356036023808
 42
0.4142141270080978
 10
177.5734601135213
 20
61.26943400745296
 10
166.9259321494705
 20
66.6946204793406
 42
0.4142135623730882
 10
165.4800603487479
 20
66.22482825305805
 10
160.0548741297378
 20
55.57730078530651
 42
0.4142137141353787
  0
LWPOLYLINE
  5
70
100
AcDbEntity
  8
Metal
  6
ByLayer
 62
  256
370
   -1
100
AcDbPolyline
 90
    8
 70
    1
 43
0
 10
356.8817991973332
 20
79.72392503139892
 10
345.1929378986704
 20
77.23938086392045
 42
-0.4142138887525476
 10
343.9179219188788
 20
78.06738257090609
 10
341.4333769248739
 20
89.75624775805531
 42
-0.4142131371395704
 10
342.2613790014132
 20
91.03126117197999
 10
353.9502443568027
 20
93.51580620174555
 42
-0.4142135623730753
 10
355.2252580952206
 20
92.6878025985858
 10
357.7098020512518
 20
80.99894229468981
 42
-0.414214544211974
  0
LWPOLYLINE
  5
71
100
AcDbEntity
  8
Metal
  6
ByLayer
 62
  256
370
   -1
100
AcDbPolyline
 90
    8
 70
    1
 43
0
 10
337.807920983024
 20
75.66964706045246
 10
326.1190605089734
 20
73.18510306825317
 42
-0.4142144968161454
 10
324.8440434158371
 20
74.01310595833988
 10
322.3594987105648
 20
85.70196978710882
 42
-0.4142135623730829
 10
323.1875023137245
 20
86.97698352552678
 10
334.8763661424933
 20
89.46152823079906
 42
-0.4142133699144763
 10
336.1513797340473
 20
88.63352531858037
 10
338.6359241749918
 20
76.94466273336626
 42
-0.4142141012187867
  0
LWPOLYLINE
  5
72
100
AcDbEntity
  8
Metal
  6
ByLayer
 62
  256
370
   -1
100
AcDbPolyline
 90
    8
 70
    1
 43
0
 10
352.8275212263866
 20
98.7978032457081
 10
341.1386573976176
 20
96.31325854043581
 42
-0.4142135623730997
 10
339.8636436591997
 20
97.1412621435955
 10
337.3790993343934
 20
108.8301241824204
 42
-0.4142133542822367
 10
338.2071000200809
 20
110.1051391715251
 10
349.8959643281218
 20
112.5896839786677
 42
-0.414213187999801
 10
351.170979401207
 20
111.7616842146583
 10
353.6555243959185
 20
100.0728190241749
 42
-0.4142141306201824
  0
LWPOLYLINE
  5
73
100
AcDbEntity
  8
Metal
  6
ByLayer
 62
  256
370
   -1
100
AcDbPolyline
 90
    8
 70
    1
 43
0
 10
333.7536430120775
 20
94.74352527476164
 10
322.0647827795358
 20
92.25898133389747
 42
-0.4142145640875011
 10
320.7897654448905
 20
93.08698417264905
 10
318.3052210569847
 20
104.7758465083309
 42
-0.414213978266238
 10
319.133224342778
 20
106.0508617398359
 10
330.8220843496542
 20
108.5354056327327
 42
-0.4142146269457246
 10
332.097101909965
 20
107.7074028419485
 10
334.5816461378612
 20
96.01854125904519
 42
-0.4142141879495665
  0
LWPOLYLINE
  5
74
100
AcDbEntity
  8
Metal
  6
ByLayer
 62
  256
370
   -1
100
AcDbPolyline
 90
    8
 70
    1
 43
0
 10
348.7732432554403
 20
117.8716814600173
 10
337.0843794266713
 20
115.387136754745
 42
-0.4142135623731035
 10
335.8093656882534
 20
116.2151403579047
 10
333.3248209829811
 20
127.9040041866737
 42
-0.4142122534656645
 10
334.1528198870624
 20
129.1790169262717
 10
345.8416831494524
 20
131.6635615111427
 42
-0.4142147520057994
 10
347.1167019419208
 20
130.8355600217953
 10
349.6012467326843
 20
119.1466957908208
 42
-0.4142137273795742
  0
LWPOLYLINE
  5
75
100
AcDbEntity
  8
Metal
  6
ByLayer
 62
  256
370
   -1
100
AcDbPolyline
 90
    8
 70
    1
 43
0
 10
329.699365041131
 20
113.8174034890708
 10
318.0105040259796
 20
111.3328593818554
 42
-0.4142143460946178
 10
316.7354874739439
 20
112.1608623869583
 10
314.2509427686717
 20
123.8497262157272
 42
-0.4142125492860405
 10
315.0789427347715
 20
125.1247391810642
 10
326.7678102006005
 20
127.6092846594174
 42
-0.4142135623731035
 10
328.0428239390184
 20
126.7812810562577
 10
330.5273686442907
 20
115.0924172274887
 42
-0.414213562373095
  0
LWPOLYLINE
  5
76
100
AcDbEntity
  8
Metal
  6
ByLayer
 62
  256
370
   -1
100
AcDbPolyline
 90
    8
 70
    1
 43
0
 10
344.7189652844938
 20
136.9455596743265
 10
333.0301014557248
 20
134.4610149690542
 42
-0.4142135623731969
 10
331.7550877173068
 20
135.2890185722139
 10
329.2705430120345
 20
146.9778824009829
 42
-0.414213562373095
 10
330.0985466151943
 20
148.2528961394007
 10
341.7874104439633
 20
150.737440844673
 42
-0.4142126054379968
 10
343.0624234521495
 20
149.9094406769835
 10
345.5469688876536
 20
138.2205734127444
 42
-0.414213562373095
  0
LWPOLYLINE
  5
77
100
AcDbEntity
  8
Metal
  6
ByLayer
 62
  256
370
   -1
100
AcDbPolyline
 90
    8
 70
    1
 43
0
 10
325.6450870701847
 20
132.89128170338
 10
313.9562232414157
 20
130.4067369981077
 42
-0.4142130579876064
 10
312.6812098878913
 20
131.2347387904852
 10
310.1966650672529
 20
142.9236031620127
 42
-0.4142139155757195
 10
311.0246684008852
 20
144.1986181684543
 10
322.7135283023232
 20
146.683162038939
 42
-0.4142146563150757
 10
323.9885459680719
 20
145.8551592705669
 10
326.4730906733442
 20
134.166295441798
 42
-0.4142135623730859
  0
LWPOLYLINE
  5
78
100
AcDbEntity
  8
Metal
  6
ByLayer
 62
  256
370
   -1
100
AcDbPolyline
 90
    8
 70
    1
 43
0
 10
318.0063518508525
 20
75.03888569207433
 10
306.3174917368941
 20
72.55434177641618
 42
-0.4142145971183498
 10
305.0424742836657
 20
73.38234458996175
 10
302.5579298485333
 20
85.07120714782562
 42
-0.4142132812435458
 10
303.3859309013715
 20
86.34622167248109
 10
315.0747916586315
 20
88.83076572486976
 42
-0.4142142830191001
 10
316.3498101611231
 20
88.00276602378202
 10
318.8343549694807
 20
76.31390171002282
 42
-0.4142141973268432
  0
LWPOLYLINE
  5
79
100
AcDbEntity
  8
Metal
  6
ByLayer
 62
  256
370
   -1
100
AcDbPolyline
 90
    8
 70
    1
 43
0
 10
279.8585954222341
 20
66.93032975018141
 10
268.1697315934653
 20
64.44578504490909
 42
-0.4142132040678588
 10
266.894718128468
 20
65.27378736172597
 10
264.4101734584344
 20
76.96265102471412
 42
-0.4142133435446795
 10
265.2381745152004
 20
78.23766573961059
 10
276.9270377381254
 20
80.72221031610285
 42
-0.414213758121899
 10
278.202053865075
 20
79.89420945819451
 10
280.6865987223901
 20
68.20534491411543
 42
-0.4142139594445855
  0
LWPOLYLINE
  5
7A
100
AcDbEntity
  8
Metal
  6
ByLayer
 62
  256
370
   -1
100
AcDbPolyline
 90
    8
 70
    1
 43
0
 10
260.784717207925
 20
62.87605177923498
 10
249.0958555853353
 20
60.39150754290295
 42
-0.4142138185962346
 10
247.8208399141537
 20
61.21950939080285
 10
245.3362954043135
 20
72.90837230014721
 42
-0.4142141767739224
 10
246.1642985386256
 20
74.18338824430928
 10
257.8531600789241
 20
76.6679324631496
 42
-0.4142141998169911
 10
259.1281761058124
 20
75.83992934642187
 10
261.612720320401
 20
64.1510678261255
 42
-0.4142142053884609
  0
LWPOLYLINE
  5
7B
100
AcDbEntity
  8
Metal
  6
ByLayer
 62
  256
370
   -1
100
AcDbPolyline
 90
    8
 70
    1
 43
0
 10
313.9520738799062
 20
94.11276390638351
 10
302.2632142601933
 20
91.6282200957825
 42
-0.4142142056977545
 10
300.9881967164649
 20
92.45622090479631
 10
298.5036516074471
 20
104.1450866330399
 42
-0.4142123005386544
 10
299.3316506805239
 20
105.420099408559
 10
311.0205149654241
 20
107.9046442107768
 42
-0.4142142630922207
 10
312.2955324465624
 20
107.0766430318902
 10
314.7800774830658
 20
95.38777764480143
 42
-0.4142135623730753
  0
LWPOLYLINE
  5
7C
100
AcDbEntity
  8
Metal
  6
ByLayer
 62
  256
370
   -1
100
AcDbPolyline
 90
    8
 70
    1
 43
0
 10
275.8043174512878
 20
86.0042079644906
 10
264.1154536225188
 20
83.51966325921829
 42
-0.414213562373107
 10
262.8404398841008
 20
84.34766686237801
 10
260.3558957040769
 20
96.03652822006205
 42
-0.4142142506835348
 10
261.1838987819883
 20
97.31154442956495
 10
272.8727626107573
 20
99.79608913483725
 42
-0.4142135623730996
 10
274.1477763491753
 20
98.9680855316775
 10
276.6323206781603
 20
87.27922347319362
 42
-0.4142140554785578
  0
LWPOLYLINE
  5
7D
100
AcDbEntity
  8
Metal
  6
ByLayer
 62
  256
370
   -1
100
AcDbPolyline
 90
    8
 70
    1
 43
0
 10
256.7304392369787
 20
81.94992999354416
 10
245.0415765305778
 20
79.46538552683921
 42
-0.4142138750039822
 10
243.7665616697917
 20
80.29338889143156
 10
241.2820174534091
 20
91.98225042016762
 42
-0.4142137849449417
 10
242.1100190666953
 20
93.25726613957451
 10
253.798882329912
 20
95.74181072463286
 42
-0.4142135994323678
 10
255.0738977238899
 20
94.91380949422192
 10
257.5584426206414
 20
83.2249447646111
 42
-0.4142138500130834
  0
LWPOLYLINE
  5
7E
100
AcDbEntity
  8
Metal
  6
ByLayer
 62
  256
370
   -1
100
AcDbPolyline
 90
    8
 70
    1
 43
0
 10
309.8977959089597
 20
113.1866421206927
 10
298.2089320801908
 20
110.7020974154204
 42
-0.4142135623730799
 10
296.9339183417728
 20
111.5301010185802
 10
294.4493738696675
 20
123.2189637503877
 42
-0.414213032762593
 10
295.2773742413569
 20
124.493977948458
 10
306.9662356696397
 20
126.9785221434767
 42
-0.4142146327261184
 10
308.2412544760781
 20
126.1505212440258
 10
310.7257993685894
 20
114.4616565343654
 42
-0.4142137504624605
  0
LWPOLYLINE
  5
7F
100
AcDbEntity
  8
Metal
  6
ByLayer
 62
  256
370
   -1
100
AcDbPolyline
 90
    8
 70
    1
 43
0
 10
271.7500394803413
 20
105.0780861787998
 10
260.0611756515723
 20
102.5935414735275
 42
-0.4142135623731033
 10
258.7861619131543
 20
103.4215450766872
 10
256.301617207882
 20
115.1104089054562
 42
-0.414213562373095
 10
257.1296208110418
 20
116.3854226438741
 10
268.8184846398107
 20
118.8699673491464
 42
-0.414213562373095
 10
270.0934983782286
 20
118.0419637459866
 10
272.578043083501
 20
106.3530999172177
 42
-0.4142135623730987
  0
LWPOLYLINE
  5
80
100
AcDbEntity
  8
Metal
  6
ByLayer
 62
  256
370
   -1
100
AcDbPolyline
 90
    8
 70
    1
 43
0
 10
252.6761612660321
 20
101.0238082078534
 10
240.9872985003811
 20
98.53926372855426
 42
-0.4142133188641202
 10
239.7122841106381
 20
99.36726516840702
 10
237.2277389935729
 20
111.0561309345097
 42
-0.4142135623730365
 10
238.0557425967326
 20
112.3311446729276
 10
249.7446064255016
 20
114.8156893781999
 42
-0.4142135623730973
 10
251.0196201639195
 20
113.9876857750402
 10
253.5041643538085
 20
102.2988243709456
 42
-0.4142142377559795
  0
LWPOLYLINE
  5
81
100
AcDbEntity
  8
Metal
  6
ByLayer
 62
  256
370
   -1
100
AcDbPolyline
 90
    8
 70
    1
 43
0
 10
305.8435179380132
 20
132.2605203350019
 10
294.1546541092442
 20
129.7759756297296
 42
-0.4142135623730951
 10
292.8796403708263
 20
130.6039792328893
 10
290.3950956655539
 20
142.2928430616583
 42
-0.4142135623730965
 10
291.2230992687137
 20
143.5678568000761
 10
302.9119616299073
 20
146.0524011934046
 42
-0.4142139711601407
 10
304.1869768359007
 20
145.2243979021887
 10
306.671521541173
 20
133.5355340734197
 42
-0.4142135623731026
  0
LWPOLYLINE
  5
82
100
AcDbEntity
  8
Metal
  6
ByLayer
 62
  256
370
   -1
100
AcDbPolyline
 90
    8
 70
    1
 43
0
 10
267.6957615093949
 20
124.151964393109
 10
256.0068976806259
 20
121.6674196878367
 42
-0.4142135623730518
 10
254.731883942208
 20
122.4954232909964
 10
252.2473392369357
 20
134.1842871197654
 42
-0.4142135623730782
 10
253.0753428400954
 20
135.4593008581833
 10
264.7642038513346
 20
137.9438449645672
 42
-0.4142143471843404
 10
266.0392204072822
 20
137.1158419602958
 10
268.5237651125545
 20
125.4269781315269
 42
-0.414213562373095
  0
LWPOLYLINE
  5
83
100
AcDbEntity
  8
Metal
  6
ByLayer
 62
  256
370
   -1
100
AcDbPolyline
 90
    8
 70
    1
 43
0
 10
248.6218832950857
 20
120.0976864221625
 10
236.9330228789908
 20
117.6131424422822
 42
-0.4142139771313503
 10
235.6580061367858
 20
118.4411433963878
 10
233.1734610226265
 20
130.1300091488189
 42
-0.4142134129075942
 10
234.0014640891937
 20
131.4050227731806
 10
245.6903284545552
 20
133.8895675925091
 42
-0.4142135623730783
 10
246.9653421929731
 20
133.0615639893494
 10
249.4498868982454
 20
121.3727001605804
 42
-0.4142135623730906
  0
LWPOLYLINE
  5
84
100
AcDbEntity
  8
Metal
  6
ByLayer
 62
  256
370
   -1
100
AcDbPolyline
 90
    8
 70
    1
 43
0
 10
298.2047827186811
 20
74.40812432369619
 10
286.5159188899123
 20
71.92357961842386
 42
-0.4142135623730753
 10
285.2409051514944
 20
72.7515832215836
 10
282.7563608494418
 20
84.44044515336094
 42
-0.4142140907721695
 10
283.5843640493817
 20
85.71546078877051
 10
295.2732229984512
 20
88.20000445681883
 42
-0.4142149215937365
 10
296.5482416165685
 20
87.37200189088308
 10
299.0327860337259
 20
75.6831394175844
 42
-0.4142139399336101
  0
LWPOLYLINE
  5
85
100
AcDbEntity
  8
Metal
  6
ByLayer
 62
  256
370
   -1
100
AcDbPolyline
 90
    8
 70
    1
 43
0
 10
294.1505047477348
 20
93.48200253800537
 10
282.4616409189658
 20
90.99745783273308
 42
-0.4142132581305747
 10
281.1866274127135
 20
91.82546034363912
 10
278.7020824752755
 20
103.5143252646618
 42
-0.4142135623730707
 10
279.5300860784353
 20
104.7893390030797
 10
291.2189468402136
 20
107.2738830564384
 42
-0.4142144166706846
 10
292.4939636456223
 20
106.4458801051922
 10
294.9785083508946
 20
94.7570162764233
 42
-0.4142135623730997
  0
LWPOLYLINE
  5
86
100
AcDbEntity
  8
Metal
  6
ByLayer
 62
  256
370
   -1
100
AcDbPolyline
 90
    8
 70
    1
 43
0
 10
290.0962267767882
 20
112.5558807523146
 10
278.4073666666635
 20
110.0713368374714
 42
-0.4142144201140436
 10
277.1323493454871
 20
110.8993390109099
 10
274.6478046120051
 20
122.5882029723955
 42
-0.4142137034774659
 10
275.4758081074888
 20
123.8632172173889
 10
287.1646701088673
 20
126.3477615342356
 42
-0.4142133952369787
 10
288.4396851587112
 20
125.5197607469236
 10
290.924230116798
 20
113.8308957287525
 42
-0.4142139072182945
  0
LWPOLYLINE
  5
87
100
AcDbEntity
  8
Metal
  6
ByLayer
 62
  256
370
   -1
100
AcDbPolyline
 90
    8
 70
    1
 43
0
 10
286.0419488058419
 20
131.6297589666238
 10
274.353084977073
 20
129.1452142613514
 42
-0.414213562373095
 10
273.078071238655
 20
129.9732178645112
 10
270.5935267352409
 20
141.662080743614
 42
-0.4142136646091931
 10
271.4215295539109
 20
142.9370953078559
 10
283.1103888356504
 20
145.4216390466142
 42
-0.41421499121964
 10
284.3854077037292
 20
144.5936365338106
 10
286.8699523378559
 20
132.9047730397554
 42
-0.4142136556061999
  0
LWPOLYLINE
  5
88
100
AcDbEntity
  8
Metal
  6
ByLayer
 62
  256
370
   -1
100
AcDbPolyline
 90
    8
 70
    1
 43
0
 10
245.3447420965122
 20
51.84666168085153
 10
234.6972141324612
 20
46.42147520896386
 42
-0.4142131231344456
 10
233.2513430636299
 20
46.89126599882898
 10
227.8261558598511
 20
57.53879539929731
 42
-0.4142127888161161
 10
228.2959455564136
 20
58.98466591106309
 10
238.9434730927098
 20
64.40985216499304
 42
-0.4142144667334174
 10
240.389347850907
 20
63.94006144562498
 10
245.8145340584665
 20
53.29253400034676
 42
-0.414213721007403
  0
LWPOLYLINE
  5
89
100
AcDbEntity
  8
Metal
  6
ByLayer
 62
  256
370
   -1
100
AcDbPolyline
 90
    8
 70
    1
 43
0
 10
236.4919273515908
 20
69.22128890252463
 10
225.8444019652024
 20
63.79610374402596
 42
-0.4142142031059856
 10
224.3985278325678
 20
64.26589417460703
 10
218.9733412020063
 20
74.91342245007306
 42
-0.4142126623585923
 10
219.4431302270478
 20
76.35929283494687
 10
230.0906613052632
 20
81.78448089358052
 42
-0.4142132054942205
 10
231.5365325113283
 20
81.31468983437894
 10
236.9617192321122
 20
70.66716138184087
 42
-0.4142137698787028
  0
LWPOLYLINE
  5
8A
100
AcDbEntity
  8
Metal
  6
ByLayer
 62
  256
370
   -1
100
AcDbPolyline
 90
    8
 70
    1
 43
0
 10
231.148048373016
 20
36.75680126661167
 10
220.5005228338953
 20
31.33161603029162
 42
-0.4142143038875521
 10
219.0546486082424
 20
31.80140702100649
 10
213.6294629495641
 20
42.44893338904756
 42
-0.4142128484242711
 10
214.0992504318399
 20
43.89480478293866
 10
224.7467808822101
 20
49.31999252166792
 42
-0.4142135376130989
 10
226.1926533501552
 20
48.85020255683501
 10
231.6178405992984
 20
38.20267306733421
 42
-0.4142135623730976
  0
LWPOLYLINE
  5
8B
100
AcDbEntity
  8
Metal
  6
ByLayer
 62
  256
370
   -1
100
AcDbPolyline
 90
    8
 70
    1
 43
0
 10
222.2952336280946
 20
54.13142848828481
 10
211.6477056640437
 20
48.70624201639712
 42
-0.4142135623730985
 10
210.2018338633212
 20
49.17603424267957
 10
204.7766480256984
 20
59.82356096191773
 42
-0.4142139430216781
 10
205.2464396177159
 20
61.26943400745305
 10
215.8939675817669
 20
66.69462047934076
 42
-0.4142135623730951
 10
217.3398393824894
 20
66.22482825305826
 10
222.7650253797958
 20
55.57730122042456
 42
-0.414213847189125
  0
LINE
  5
8C
100
AcDbEntity
  8
Ref
  6
ByLayer
 62
  256
370
   -1
100
AcDbLine
 10
43.5800806246524
 20
175.4124067432767
 11
43.5800806246524
 21
171.4124067432767
  0
LINE
  5
8D
100
AcDbEntity
  8
Ref
  6
ByLayer
 62
  256
370
   -1
100
AcDbLine
 10
339.2751744456438
 20
175.4124067432767
 11
339.2751744456438
 21
171.4124067432767
  0
LINE
  5
8E
100
AcDbEntity
  8
Ref
  6
ByLayer
 62
  256
370
   -1
100
AcDbLine
 10
341.7874104439633
 20
150.737440844673
 11
340.9557636806923
 21
154.6500312476082
  0
LINE
  5
8F
100
AcDbEntity
  8
Ref
  6
ByLayer
 62
  256
370
   -1
100
AcDbLine
 10
283.1103888356478
 20
145.4216390466267
 11
282.2787420723768
 21
149.3342294495619
  0
LINE
  5
90
100
AcDbEntity
  8
Ref
  6
ByLayer
 62
  256
370
   -1
100
AcDbLine
 10
302.9119616299071
 20
146.0524011934056
 11
302.0803148666361
 21
149.9649915963408
  0
LINE
  5
91
100
AcDbEntity
  8
Ref
  6
ByLayer
 62
  256
370
   -1
100
AcDbLine
 10
264.7642018227501
 20
137.9438445333822
 11
263.9325550594791
 21
141.8564349363175
  0
LINE
  5
92
100
AcDbEntity
  8
Ref
  6
ByLayer
 62
  256
370
   -1
100
AcDbLine
 10
148.8184351054507
 20
131.4050228872365
 11
149.6500818687218
 21
135.3176132901717
  0
LINE
  5
93
100
AcDbEntity
  8
Ref
  6
ByLayer
 62
  256
370
   -1
100
AcDbLine
 10
137.1295712766816
 20
133.8895675925087
 11
137.9612180399527
 21
137.802157995444
  0
LINE
  5
94
100
AcDbEntity
  8
Ref
  6
ByLayer
 62
  256
370
   -1
100
AcDbLine
 10
129.7445568911415
 20
135.4593008581828
 11
130.5762036544126
 21
139.3718912611181
  0
LINE
  5
95
100
AcDbEntity
  8
Ref
  6
ByLayer
 62
  256
370
   -1
100
AcDbLine
 10
118.0556951484878
 20
137.9438451200375
 11
118.8873419117588
 21
141.8564355229727
  0
LINE
  5
96
100
AcDbEntity
  8
Ref
  6
ByLayer
 62
  256
370
   -1
100
AcDbLine
 10
111.3983695946943
 20
142.9370954316974
 11
112.2300163579654
 21
146.8496858346327
  0
LINE
  5
97
100
AcDbEntity
  8
Ref
  6
ByLayer
 62
  256
370
   -1
100
AcDbLine
 10
99.70950692181131
 20
145.4216398912785
 11
100.5411536850823
 21
149.3342302942137
  0
LINE
  5
98
100
AcDbEntity
  8
Ref
  6
ByLayer
 62
  256
370
   -1
100
AcDbLine
 10
91.59679905142129
 20
143.5678571000144
 11
92.42844581469232
 21
147.4804475029496
  0
LINE
  5
99
100
AcDbEntity
  8
Ref
  6
ByLayer
 62
  256
370
   -1
100
AcDbLine
 10
79.90793999603342
 20
146.0524007906675
 11
80.73958675930446
 21
149.9649911936027
  0
LINE
  5
9A
100
AcDbEntity
  8
Ref
  6
ByLayer
 62
  256
370
   -1
100
AcDbLine
 10
71.79523133035165
 20
144.1986181684534
 11
72.62687809362269
 21
148.1112085713887
  0
LINE
  5
9B
100
AcDbEntity
  8
Ref
  6
ByLayer
 62
  256
370
   -1
100
AcDbLine
 10
60.10636750158267
 20
146.6831628737256
 11
60.93801426485371
 21
150.5957532766608
  0
LINE
  5
9C
100
AcDbEntity
  8
Ref
  6
ByLayer
 62
  256
370
   -1
100
AcDbLine
 10
52.72135196067792
 20
148.25289638498
 11
53.55299872394896
 21
152.1654867879153
  0
LINE
  5
9D
100
AcDbEntity
  8
Ref
  6
ByLayer
 62
  256
370
   -1
100
AcDbLine
 10
41.03248928727389
 20
150.7374408446719
 11
41.86413605054493
 21
154.6500312476071
  0
LINE
  5
9E
100
AcDbEntity
  8
Ref
  6
ByLayer
 62
  256
370
   -1
100
AcDbLine
 10
234.0014640891937
 20
131.4050227731806
 11
233.1698173259227
 21
135.3176131761158
  0
LINE
  5
9F
100
AcDbEntity
  8
Ref
  6
ByLayer
 62
  256
370
   -1
100
AcDbLine
 10
271.4215245509974
 20
142.9370942444538
 11
270.5898777877264
 21
146.849684647389
  0
LINE
  5
A0
100
AcDbEntity
  8
Ref
  6
ByLayer
 62
  256
370
   -1
100
AcDbLine
 10
291.2230992687137
 20
143.5678568000761
 11
290.3914525054427
 21
147.4804472030114
  0
LINE
  5
A1
100
AcDbEntity
  8
Ref
  6
ByLayer
 62
  256
370
   -1
100
AcDbLine
 10
311.0246721623408
 20
144.1986189679764
 11
310.1930253990698
 21
148.1112093709116
  0
LINE
  5
A2
100
AcDbEntity
  8
Ref
  6
ByLayer
 62
  256
370
   -1
100
AcDbLine
 10
330.0985466151943
 20
148.2528961394007
 11
329.2668998519233
 21
152.1654865423359
  0
LINE
  5
A3
100
AcDbEntity
  8
Ref
  6
ByLayer
 62
  256
370
   -1
100
AcDbLine
 10
230.0906613052632
 20
81.78448089358055
 11
228.274699306305
 21
85.34850699033402
  0
LINE
  5
A4
100
AcDbEntity
  8
Ref
  6
ByLayer
 62
  256
370
   -1
100
AcDbLine
 10
163.3767649099171
 20
76.35929517584536
 11
165.1927269088753
 21
79.92332127259883
  0
LINE
  5
A5
100
AcDbEntity
  8
Ref
  6
ByLayer
 62
  256
370
   -1
100
AcDbLine
 10
147.161893806821
 20
118.4411443955092
 11
151.0744842097562
 21
117.6094976322382
  0
LINE
  5
A6
100
AcDbEntity
  8
Ref
  6
ByLayer
 62
  256
370
   -1
100
AcDbLine
 10
235.6580061367858
 20
118.4411433963878
 11
231.7454157338505
 21
117.6094966331168
  0
LINE
  5
A7
100
AcDbEntity
  8
Ref
  6
ByLayer
 62
  256
370
   -1
100
AcDbLine
 10
231.7454157338505
 20
117.6094966331168
 11
227.8328253309153
 21
116.7778498698458
  0
LINE
  5
A8
100
AcDbEntity
  8
Ref
  6
ByLayer
 62
  256
370
   -1
100
AcDbLine
 10
151.0744842097562
 20
117.6094976322382
 11
154.9870746126915
 21
116.7778508689671
  0
LINE
  5
A9
100
AcDbEntity
  8
Construction
  6
ByLayer
 62
  256
370
   -1
100
AcDbLine
 10
154.9870746126915
 20
116.7778508689671
 11
155.8187213759625
 21
120.6904412719024
  0
LINE
  5
AA
100
AcDbEntity
  8
Ref
  6
ByLayer
 62
  256
370
   -1
100
AcDbLine
 10
329.2668998519233
 20
152.1654865423359
 11
328.4352530886522
 21
156.0780769452712
  0
LINE
  5
AB
100
AcDbEntity
  8
Ref
  6
ByLayer
 62
  256
370
   -1
100
AcDbLine
 10
302.0803148666361
 20
149.9649915963408
 11
301.248668103365
 21
153.877581999276
  0
LINE
  5
AC
100
AcDbEntity
  8
Ref
  6
ByLayer
 62
  256
370
   -1
100
AcDbLine
 10
282.2787420723768
 20
149.3342294495619
 11
281.4470953091057
 21
153.2468198524971
  0
LINE
  5
AD
100
AcDbEntity
  8
Ref
  6
ByLayer
 62
  256
370
   -1
100
AcDbLine
 10
263.9325550594791
 20
141.8564349363175
 11
263.100908296208
 21
145.7690253392527
  0
LINE
  5
AE
100
AcDbEntity
  8
Ref
  6
ByLayer
 62
  256
370
   -1
100
AcDbLine
 10
270.5898777877264
 20
146.849684647389
 11
269.7582310244554
 21
150.7622750503243
  0
LINE
  5
AF
100
AcDbEntity
  8
Ref
  6
ByLayer
 62
  256
370
   -1
100
AcDbLine
 10
290.3914525054427
 20
147.4804472030114
 11
289.5598057421717
 21
151.3930376059466
  0
LINE
  5
B0
100
AcDbEntity
  8
Ref
  6
ByLayer
 62
  256
370
   -1
100
AcDbLine
 10
310.1930253990698
 20
148.1112093709116
 11
309.3613786357988
 21
152.0237997738469
  0
LINE
  5
B1
100
AcDbEntity
  8
Ref
  6
ByLayer
 62
  256
370
   -1
100
AcDbLine
 10
340.9557636806923
 20
154.6500312476082
 11
340.1241169174212
 21
158.5626216505435
  0
LINE
  5
B2
100
AcDbEntity
  8
Ref
  6
ByLayer
 62
  256
370
   -1
100
AcDbLine
 10
233.1698173259227
 20
135.3176131761158
 11
232.3381705626516
 21
139.230203579051
  0
LINE
  5
B3
100
AcDbEntity
  8
Ref
  6
ByLayer
 62
  256
370
   -1
100
AcDbLine
 10
149.6500818687218
 20
135.3176132901717
 11
150.4817286319928
 21
139.230203693107
  0
LINE
  5
B4
100
AcDbEntity
  8
Ref
  6
ByLayer
 62
  256
370
   -1
100
AcDbLine
 10
118.8873419117588
 20
141.8564355229727
 11
119.7189886750298
 21
145.769025925908
  0
LINE
  5
B5
100
AcDbEntity
  8
Ref
  6
ByLayer
 62
  256
370
   -1
100
AcDbLine
 10
112.2300163579654
 20
146.8496858346327
 11
113.0616631212364
 21
150.7622762375679
  0
LINE
  5
B6
100
AcDbEntity
  8
Ref
  6
ByLayer
 62
  256
370
   -1
100
AcDbLine
 10
100.5411536850823
 20
149.3342302942137
 11
101.3728004483534
 21
153.246820697149
  0
LINE
  5
B7
100
AcDbEntity
  8
Ref
  6
ByLayer
 62
  256
370
   -1
100
AcDbLine
 10
92.42844581469232
 20
147.4804475029496
 11
93.26009257796336
 21
151.3930379058848
  0
LINE
  5
B8
100
AcDbEntity
  8
Ref
  6
ByLayer
 62
  256
370
   -1
100
AcDbLine
 10
80.73958675930446
 20
149.9649911936027
 11
81.5712335225755
 21
153.8775815965379
  0
LINE
  5
B9
100
AcDbEntity
  8
Ref
  6
ByLayer
 62
  256
370
   -1
100
AcDbLine
 10
72.62687809362269
 20
148.1112085713887
 11
73.45852485689373
 21
152.0237989743239
  0
LINE
  5
BA
100
AcDbEntity
  8
Ref
  6
ByLayer
 62
  256
370
   -1
100
AcDbLine
 10
41.86413605054518
 20
154.6500312476082
 11
42.69578281381622
 21
158.5626216505435
  0
LINE
  5
BB
100
AcDbEntity
  8
Ref
  6
ByLayer
 62
  256
370
   -1
100
AcDbLine
 10
348.5663358000342
 20
162.1788040413421
 11
344.6537453970989
 21
161.3471572780711
  0
LINE
  5
BC
100
AcDbEntity
  8
Ref
  6
ByLayer
 62
  256
370
   -1
100
AcDbLine
 10
35.75489959994337
 20
169.0756992402642
 11
39.66749000287859
 21
168.2440524769931
  0
LINE
  5
BD
100
AcDbEntity
  8
Ref
  6
ByLayer
 62
  256
370
   -1
100
AcDbLine
 10
34.66699679724832
 20
163.957518958519
 11
38.57958720018354
 21
163.125872195248
  0
LINE
  5
BE
100
AcDbEntity
  8
Ref
  6
ByLayer
 62
  256
370
   -1
100
AcDbLine
 10
228.274699306305
 20
85.34850699033402
 11
226.4587373073468
 21
88.91253308708748
  0
LINE
  5
BF
100
AcDbEntity
  8
Ref
  6
ByLayer
 62
  256
370
   -1
100
AcDbLine
 10
165.1927269088753
 20
79.92332127259883
 11
167.0086889078335
 21
83.48734736935229
  0
LINE
  5
C0
100
AcDbEntity
  8
Construction
  6
ByLayer
 62
  256
370
   -1
100
AcDbLine
 10
226.4587373073468
 20
88.91253308708748
 11
230.0227634041003
 21
90.72849508604567
  0
LINE
  5
C1
100
AcDbEntity
  8
Construction
  6
ByLayer
 62
  256
370
   -1
100
AcDbLine
 10
167.0086889078335
 20
83.48734736935229
 11
170.572715004587
 21
81.67138537039411
  0
LINE
  5
C2
100
AcDbEntity
  8
Construction
  6
ByLayer
 62
  256
370
   -1
100
AcDbLine
 10
169.9105507882641
 20
28.95371530438729
 11
173.9105507882641
 21
28.95371530438729
  0
LINE
  5
C3
100
AcDbEntity
  8
Construction
  6
ByLayer
 62
  256
370
   -1
100
AcDbLine
 10
184.3833176096146
 20
74.63453187027852
 11
184.3833176096146
 21
70.63453187027852
  0
LINE
  5
C4
100
AcDbEntity
  8
Construction
  6
ByLayer
 62
  256
370
   -1
100
AcDbLine
 10
198.4365821216226
 20
74.63453187027878
 11
198.4365821216226
 21
70.63453187027878
  0
LINE
  5
C5
100
AcDbEntity
  8
Construction
  6
ByLayer
 62
  256
370
   -1
100
AcDbLine
 10
191.4099498656186
 20
32.95371530438729
 11
193.4099498656186
 21
32.95371530438729
  0
LINE
  5
C6
100
AcDbEntity
  8
Construction
  6
ByLayer
 62
  256
370
   -1
100
AcDbLine
 10
107.2172317210826
 20
152.0045484809009
 11
109.1735269225502
 21
151.5887250992654
  0
LINE
  5
C7
100
AcDbEntity
  8
Construction
  6
ByLayer
 62
  256
370
   -1
100
AcDbLine
 10
138.1718238647748
 20
141.8467547249122
 11
140.1281190662424
 21
141.4309313432767
  0
LINE
  5
C8
100
AcDbEntity
  8
Construction
  6
ByLayer
 62
  256
370
   -1
100
AcDbLine
 10
57.01089137468015
 20
155.5198513949126
 11
58.96718657614776
 21
155.1040280132771
  0
LINE
  5
C9
100
AcDbEntity
  8
Construction
  6
ByLayer
 62
  256
370
   -1
100
AcDbLine
 10
244.6480741120968
 20
141.8467543520108
 11
246.6043693135644
 21
142.2625777336463
  0
LINE
  5
CA
100
AcDbEntity
  8
Construction
  6
ByLayer
 62
  256
370
   -1
100
AcDbLine
 10
275.6026639443959
 20
152.0045476166979
 11
277.5589591458635
 21
152.4203709983334
  0
LINE
  5
CB
100
AcDbEntity
  8
Construction
  6
ByLayer
 62
  256
370
   -1
100
AcDbLine
 10
325.6564270996835
 20
155.4874192475767
 11
327.6127223011511
 21
155.9032426292122
  0
LINE
  5
CC
100
AcDbEntity
  8
Construction
  6
ByLayer
 62
  256
370
   -1
100
AcDbLine
 10
329.2668998519233
 20
152.1654865423359
 11
331.2231950533909
 21
152.5813099239714
  0
LINE
  5
CD
100
AcDbEntity
  8
Construction
  6
ByLayer
 62
  256
370
   -1
100
AcDbLine
 10
41.86413605054493
 20
154.6500312476071
 11
43.82043125201254
 21
154.2342078659716
  0
LINE
  5
CE
100
AcDbEntity
  8
Construction
  6
ByLayer
 62
  256
370
   -1
100
AcDbLine
 10
83.4933381487124
 20
171.4124067432767
 11
85.4933381487124
 21
171.4124067432767
  0
LINE
  5
CF
100
AcDbEntity
  8
Construction
  6
ByLayer
 62
  256
370
   -1
100
AcDbLine
 10
70.70146925628086
 20
175.4124067432767
 11
66.70146925628086
 21
175.4124067432767
  0
LINE
  5
D0
100
AcDbEntity
  8
Construction
  6
ByLayer
 62
  256
370
   -1
100
AcDbLine
 10
34.64459901509144
 20
163.8521456781983
 11
33.8129522518204
 21
159.939555275263
  0
LINE
  5
D1
100
AcDbEntity
  8
Construction
  6
ByLayer
 62
  256
370
   -1
100
AcDbLine
 10
231.7454157338505
 20
117.6094966331168
 11
230.9137689705795
 21
121.522087036052
  0
LINE
  5
D2
100
AcDbEntity
  8
Construction
  6
ByLayer
 62
  256
370
   -1
100
AcDbLine
 10
151.0744842097562
 20
117.6094976322382
 11
150.2428374464852
 21
113.696907229303
  0
LINE
  5
D3
100
AcDbEntity
  8
Construction
  6
ByLayer
 62
  256
370
   -1
100
AcDbLine
 10
165.1927269088753
 20
79.92332127259883
 11
161.6287008121218
 21
81.73928327155701
  0
LINE
  5
D4
100
AcDbEntity
  8
Construction
  6
ByLayer
 62
  256
370
   -1
100
AcDbLine
 10
180.3833176096145
 20
72.18332871771878
 11
180.3833176096145
 21
68.18332871771878
  0
LINE
  5
D5
100
AcDbEntity
  8
Ref
  6
ByLayer
 62
  256
370
   -1
100
AcDbLine
 10
191.4099498656186
 20
28.95371530438729
 11
191.4099498656186
 21
26.95371530438729
  0
LINE
  5
D6
100
AcDbEntity
  8
Ref
  6
ByLayer
 62
  256
370
   -1
100
AcDbLine
 10
275.602663555588
 20
152.0045475340543
 11
276.3303544734504
 21
148.5810309314856
  0
LINE
  5
D7
100
AcDbEntity
  8
Ref
  6
ByLayer
 62
  256
370
   -1
100
AcDbLine
 10
107.2172317529387
 20
152.0045484741297
 11
106.4895408350764
 21
148.5810318715608
  0
LINE
  5
D8
100
AcDbEntity
  8
Construction
  6
ByLayer
 62
  256
370
   -1
100
AcDbLine
 10
140.7954604586774
 20
168.988890140708
 11
140.7954604586774
 21
172.988890140708
  0
LINE
  5
D9
100
AcDbEntity
  8
Construction
  6
ByLayer
 62
  256
370
   -1
100
AcDbLine
 10
242.0244392725592
 20
168.9888901407084
 11
242.0244392725592
 21
172.9888901407084
  0
LINE
  5
DA
100
AcDbEntity
  8
Ref
  6
ByLayer
 62
  256
370
   -1
100
AcDbLine
 10
140.7954604586774
 20
175.4124067432767
 11
140.7954604586774
 21
171.4124067432767
  0
LINE
  5
DB
100
AcDbEntity
  8
Ref
  6
ByLayer
 62
  256
370
   -1
100
AcDbLine
 10
242.0244392725592
 20
175.4124067432767
 11
242.0244392725592
 21
171.4124067432767
  0
CIRCLE
  5
DC
100
AcDbEntity
  8
0
  6
ByLayer
 62
  256
370
   -1
100
AcDbCircle
 10
106.8533862940075
 20
150.2927901728452
 40
1.1
  0
CIRCLE
  5
DD
100
AcDbEntity
  8
0
  6
ByLayer
 62
  256
370
   -1
100
AcDbCircle
 10
275.9665090145192
 20
150.29278923277
 40
1.1
  0
LINE
  5
DE
100
AcDbEntity
  8
Construction
  6
ByLayer
 62
  256
370
   -1
100
AcDbLine
 10
228.274699306305
 20
85.34850699033402
 11
205.4300300096872
 21
73.70856659842339
  0
CIRCLE
  5
DF
100
AcDbEntity
  8
0
  6
ByLayer
 62
  256
370
   -1
100
AcDbCircle
 10
233.0427166848774
 20
92.26723813888555
 40
1.1
  0
CIRCLE
  5
E0
100
AcDbEntity
  8
0
  6
ByLayer
 62
  256
370
   -1
100
AcDbCircle
 10
202.4365821216222
 20
72.18332871771936
 40
1.1
  0
CIRCLE
  5
E1
100
AcDbEntity
  8
0
  6
ByLayer
 62
  256
370
   -1
100
AcDbCircle
 10
180.3833176096146
 20
72.18332871771881
 40
1.1
  0
CIRCLE
  5
E2
100
AcDbEntity
  8
0
  6
ByLayer
 62
  256
370
   -1
100
AcDbCircle
 10
140.7954604586774
 20
171.4124067432767
 40
1.1
  0
CIRCLE
  5
E3
100
AcDbEntity
  8
0
  6
ByLayer
 62
  256
370
   -1
100
AcDbCircle
 10
149.7771830463601
 20
92.2672381388853
 40
1.1
  0
CIRCLE
  5
E4
100
AcDbEntity
  8
Ref
  6
ByLayer
 62
  256
370
   -1
100
AcDbCircle
 10
202.4365821216222
 20
72.18332871771936
 40
4
  0
CIRCLE
  5
E5
100
AcDbEntity
  8
Ref
  6
ByLayer
 62
  256
370
   -1
100
AcDbCircle
 10
180.3833176096146
 20
72.18332871771881
 40
4
  0
CIRCLE
  5
E6
100
AcDbEntity
  8
Ref
  6
ByLayer
 62
  256
370
   -1
100
AcDbCircle
 10
233.0427166848774
 20
92.26723813888555
 40
4
  0
CIRCLE
  5
E7
100
AcDbEntity
  8
Ref
  6
ByLayer
 62
  256
370
   -1
100
AcDbCircle
 10
149.7771830463601
 20
92.2672381388853
 40
4
  0
CIRCLE
  5
E8
100
AcDbEntity
  8
Ref
  6
ByLayer
 62
  256
370
   -1
100
AcDbCircle
 10
242.0244392725592
 20
171.4124067432767
 40
4
  0
CIRCLE
  5
E9
100
AcDbEntity
  8
Ref
  6
ByLayer
 62
  256
370
   -1
100
AcDbCircle
 10
140.7954604586774
 20
171.4124067432767
 40
4
  0
CIRCLE
  5
EA
100
AcDbEntity
  8
Ref
  6
ByLayer
 62
  256
370
   -1
100
AcDbCircle
 10
40.34094449187241
 20
171.4124067432767
 40
4
  0
CIRCLE
  5
EB
100
AcDbEntity
  8
0
  6
ByLayer
 62
  256
370
   -1
100
AcDbCircle
 10
242.0244392725592
 20
171.4124067432767
 40
1.1
  0
LWPOLYLINE
  5
EC
100
AcDbEntity
  8
Metal Old
  6
ByLayer
 62
  256
370
   -1
100
AcDbPolyline
 90
   48
 70
    1
 43
0
 10
340.053323822799
 20
158.5475741137605
 10
310.439867694152
 20
152.2530396998893
 42
-0.1089495479135584
 10
308.2865002038434
 20
152.2694131879692
 10
302.3235465353204
 20
153.6319685851538
 42
0.1089495479135756
 10
300.1701790450115
 20
153.6483420732336
 10
290.638294813691
 20
151.6222775347869
 42
-0.1089495492123876
 10
288.4849272983556
 20
151.6386510285853
 10
282.5219737529217
 20
153.0012064298579
 42
0.1089495492123757
 10
280.3686062375865
 20
153.0175799236563
 10
270.8367208735896
 20
150.9915151444523
 42
0.1089496259244472
 10
268.8761802482506
 20
150.100702829295
 10
263.9829590724129
 20
146.430597560282
 42
-0.1089496259244492
 10
262.0224184470738
 20
145.5397852451247
 10
228.3522196262537
 20
138.3829635530251
 42
0.4142135623731087
 10
224.5010400766735
 20
132.4526670952673
 10
232.2450354274733
 20
96.02003340023541
 42
-0.3394542588633791
 10
229.624249922502
 20
90.52544232520469
 10
201.1666296229249
 20
76.02556055052095
 42
0.2820291683021535
 10
198.4365821216226
 20
71.57052792957911
 10
198.4365821216226
 20
33.95371530438729
 42
-0.414213562373095
 10
193.4365821216226
 20
28.95371530438729
 10
189.3833176096146
 20
28.95371530438729
 42
-0.414213562373095
 10
184.3833176096146
 20
33.95371530438729
 10
184.3833176096146
 20
71.57052792957884
 42
0.2820291683021497
 10
181.6532701083124
 20
76.02556055052068
 10
153.1956498087354
 20
90.52544232520428
 42
-0.3394542588633753
 10
150.5748643037641
 20
96.02003340023488
 10
158.3188596545631
 20
132.4526670952671
 42
0.4142135623730987
 10
154.4676801049828
 20
138.3829635530249
 10
120.7974781497983
 20
145.5397859113535
 42
-0.1089495889931072
 10
118.8369381084181
 20
146.430597788519
 10
113.943713687848
 20
150.1007043749565
 42
0.1089495889931025
 10
111.983173646468
 20
150.991516252122
 10
102.4512898594094
 20
153.0175806961374
 42
0.1089495827078427
 10
100.2979216986589
 20
153.0012070548592
 10
94.33497132765766
 20
151.6386515481746
 42
-0.1089495827078207
 10
92.18160316690752
 20
151.6222779068962
 10
82.64972282826082
 20
153.6483416179282
 42
0.1089495723128851
 10
80.49635486780799
 20
153.6319680224186
 10
74.53340351166253
 20
152.2694125484483
 42
-0.1089495723129046
 10
72.38003555120932
 20
152.2530389529388
 10
42.72023650383407
 20
158.5574238582725
 42
-0.4142135623730992
 10
38.86905695425382
 20
164.4877203160304
 10
39.49912665417839
 20
167.4519651973655
 42
-0.3541185725306959
 10
44.38986465784742
 20
171.4124067432767
 10
338.381602040959
 20
171.4124067432767
 42
-0.3541185725307098
 10
343.2723400446281
 20
167.4519651973653
 10
343.9045033723793
 20
164.4778705715181
 42
-0.4142135623730846
  0
ARC
  5
ED
100
AcDbEntity
  8
Metal
  6
ByLayer
 62
  256
370
   -1
100
AcDbCircle
 10
0
 20
0
 40
0
100
AcDbArc
 50
0
 51
0
  0
LINE
  5
EE
100
AcDbEntity
  8
Construction
  6
ByLayer
 62
  256
370
   -1
100
AcDbLine
 10
227.8328253309153
 20
116.7778498698458
 11
232.2110699216062
 21
96.17982854182135
  0
CIRCLE
  5
EF
100
AcDbEntity
  8
Ref
  6
ByLayer
 62
  256
370
   -1
100
AcDbCircle
 10
106.8533862940075
 20
150.2927901728452
 40
4
  0
CIRCLE
  5
F0
100
AcDbEntity
  8
Ref
  6
ByLayer
 62
  256
370
   -1
100
AcDbCircle
 10
275.9665090145192
 20
150.29278923277
 40
4
  0
LINE
  5
F1
100
AcDbEntity
  8
Ref
  6
ByLayer
 62
  256
370
   -1
100
AcDbLine
 10
229.2682467094081
 20
138.577671120217
 11
230.0998934726791
 21
134.6650807172818
  0
LINE
  5
F2
100
AcDbEntity
  8
Construction
  6
ByLayer
 62
  256
370
   -1
100
AcDbLine
 10
230.0998934726791
 20
134.6650807172818
 11
234.0124838756143
 21
135.4967274805528
  0
CIRCLE
  5
F3
100
AcDbEntity
  8
0
  6
ByLayer
 62
  256
370
   -1
100
AcDbCircle
 10
228.2057187887912
 20
134.2624614592722
 40
1.1
  0
CIRCLE
  5
F4
100
AcDbEntity
  8
Ref
  6
ByLayer
 62
  256
370
   -1
100
AcDbCircle
 10
228.2057187887912
 20
134.2624614592722
 40
4
  0
LINE
  5
F5
100
AcDbEntity
  8
Ref
  6
ByLayer
 62
  256
370
   -1
100
AcDbLine
 10
153.5516530218279
 20
138.5776711202169
 11
152.7200062585568
 21
134.6650807172817
  0
LINE
  5
F6
100
AcDbEntity
  8
Construction
  6
ByLayer
 62
  256
370
   -1
100
AcDbLine
 10
152.7200062585568
 20
134.6650807172817
 11
148.8074158556216
 21
135.4967274805527
  0
CIRCLE
  5
F7
100
AcDbEntity
  8
0
  6
ByLayer
 62
  256
370
   -1
100
AcDbCircle
 10
154.6141809424456
 20
134.2624614592719
 40
1.1
  0
CIRCLE
  5
F8
100
AcDbEntity
  8
Ref
  6
ByLayer
 62
  256
370
   -1
100
AcDbCircle
 10
154.6141809424456
 20
134.2624614592719
 40
4
  0
ARC
  5
F9
100
AcDbEntity
  8
Metal
  6
ByLayer
 62
  256
370
   -1
100
AcDbCircle
 10
154.6141809424456
 20
134.2624614592719
 40
4
100
AcDbArc
 50
348
 51
78.00000000000183
  0
ARC
  5
FA
100
AcDbEntity
  8
Metal
  6
ByLayer
 62
  256
370
   -1
100
AcDbCircle
 10
228.2057187887912
 20
134.2624614592722
 40
4.000000000000006
100
AcDbArc
 50
102.0000000000004
 51
192.0000000000005
  0
LINE
  5
FB
100
AcDbEntity
  8
Construction
  6
ByLayer
 62
  256
370
   -1
100
AcDbLine
 10
202.4365821216222
 20
72.18332871771936
 11
202.4365821216222
 21
68.18332871771936
  0
ARC
  5
FC
100
AcDbEntity
  8
Acrylic
  6
ByLayer
 62
  256
370
   -1
100
AcDbCircle
 10
233.0427166848774
 20
92.26723813888555
 40
3.999999999999874
100
AcDbArc
 50
296.999989598582
 51
11.99996684908469
  0
ARC
  5
FD
100
AcDbEntity
  8
Acrylic
  6
ByLayer
 62
  256
370
   -1
100
AcDbCircle
 10
149.7771830463601
 20
92.26723813888529
 40
4.000000099999791
100
AcDbArc
 50
167.9871883008431
 51
242.999985326343
  0
CIRCLE
  5
FE
100
AcDbEntity
  8
Ref
  6
ByLayer
 62
  256
370
   -1
100
AcDbCircle
 10
342.5143105784238
 20
171.4124067432767
 40
4
  0
LINE
  5
FF
100
AcDbEntity
  8
Construction
  6
ByLayer
 62
  256
370
   -1
100
AcDbLine
 10
352.4651861708199
 20
143.8361551945911
 11
346.4269016825316
 21
172.2440502077904
  0
ARC
  5
100
100
AcDbEntity
  8
Acrylic
  6
ByLayer
 62
  256
370
   -1
100
AcDbCircle
 10
310.3338035091522
 20
152.2304950614096
 40
4
100
AcDbArc
 50
254.0853147271761
 51
281.9999999999987
  0
LINE
  5
101
100
AcDbEntity
  8
Acrylic
  6
ByLayer
 62
  256
370
   -1
100
AcDbLine
 10
309.2369806687215
 20
148.383810819532
 11
302.9324037515756
 21
150.181463948088
  0
ARC
  5
102
100
AcDbEntity
  8
Acrylic
  6
ByLayer
 62
  256
370
   -1
100
AcDbCircle
 10
301.8355809111448
 20
146.3347797062104
 40
4
100
AcDbArc
 50
74.08531472717605
 51
101.9999999999996
  0
LINE
  5
103
100
AcDbEntity
  8
Acrylic
  6
ByLayer
 62
  256
370
   -1
100
AcDbLine
 10
301.0039341478738
 20
150.2473701091456
 11
291.1502879172489
 21
148.1529129464513
  0
ARC
  5
104
100
AcDbEntity
  8
Acrylic
  6
ByLayer
 62
  256
370
   -1
100
AcDbCircle
 10
290.3186411539779
 20
152.0655033493865
 40
4
100
AcDbArc
 50
257.1287005075912
 51
281.9999999999996
  0
LINE
  5
105
100
AcDbEntity
  8
Acrylic
  6
ByLayer
 62
  256
370
   -1
100
AcDbLine
 10
234.8586761353823
 20
88.70321074363048
 11
208.6096564006998
 21
75.32866716452844
  0
ARC
  5
106
100
AcDbEntity
  8
Acrylic
  6
ByLayer
 62
  256
370
   -1
100
AcDbCircle
 10
210.425618399658
 20
71.76464106777496
 40
4
100
AcDbArc
 50
116.9999999999996
 51
176.9999999999968
  0
ARC
  5
107
100
AcDbEntity
  8
Acrylic
  6
ByLayer
 62
  256
370
   -1
100
AcDbCircle
 10
202.4365821216222
 20
72.18332871771892
 40
3.999999999998707
100
AcDbArc
 50
300.0000000000111
 51
356.9999999999966
  0
ARC
  5
108
100
AcDbEntity
  8
Acrylic
  6
ByLayer
 62
  256
370
   -1
100
AcDbCircle
 10
206.4365821216222
 20
65.25512548744653
 40
4
100
AcDbArc
 50
120.0000000000112
 51
180
  0
ARC
  5
109
100
AcDbEntity
  8
Acrylic
  6
ByLayer
 62
  256
370
   -1
100
AcDbCircle
 10
176.3833176096146
 20
65.25512548744359
 40
4
100
AcDbArc
 50
0
 51
59.99999999999909
  0
ARC
  5
10A
100
AcDbEntity
  8
Acrylic
  6
ByLayer
 62
  256
370
   -1
100
AcDbCircle
 10
180.3833176096146
 20
72.18332871771882
 40
3.99999999999981
100
AcDbArc
 50
183.0000000000014
 51
239.9999999999989
  0
LINE
  5
10B
100
AcDbEntity
  8
Acrylic
  6
ByLayer
 62
  256
370
   -1
100
AcDbLine
 10
147.9612219601619
 20
88.70321157705736
 11
174.2102433305365
 21
75.32866716452855
  0
ARC
  5
10C
100
AcDbEntity
  8
Acrylic
  6
ByLayer
 62
  256
370
   -1
100
AcDbCircle
 10
172.3942813315784
 20
71.76464106777509
 40
4
100
AcDbArc
 50
3.000000000001432
 51
63.00000000000033
  0
LINE
  5
10D
100
AcDbEntity
  8
Acrylic
  6
ByLayer
 62
  256
370
   -1
100
AcDbLine
 10
198.4365821216222
 20
24.95371530438729
 11
184.3833176096145
 21
24.95371530438729
  0
ARC
  5
10E
100
AcDbEntity
  8
Acrylic
  6
ByLayer
 62
  256
370
   -1
100
AcDbCircle
 10
120.6857361002533
 20
146.0747077146328
 40
4
100
AcDbArc
 50
233.1286914974731
 51
258.0000000000004
  0
ARC
  5
10F
100
AcDbEntity
  8
Acrylic
  6
ByLayer
 62
  256
370
   -1
100
AcDbCircle
 10
92.5012568945281
 20
152.0655037070618
 40
4
100
AcDbArc
 50
258.0000000000006
 51
282.8713070789512
  0
LINE
  5
110
100
AcDbEntity
  8
Acrylic
  6
ByLayer
 62
  256
370
   -1
100
AcDbLine
 10
91.6696101312571
 20
148.1529133041266
 11
81.81596769527286
 21
150.2473696602451
  0
ARC
  5
111
100
AcDbEntity
  8
Acrylic
  6
ByLayer
 62
  256
370
   -1
100
AcDbCircle
 10
80.98432093200186
 20
146.3347792573099
 40
4
100
AcDbArc
 50
78.0000000000005
 51
105.9146912642032
  0
LINE
  5
112
100
AcDbEntity
  8
Acrylic
  6
ByLayer
 62
  256
370
   -1
100
AcDbLine
 10
79.88749768932604
 20
150.1814633844935
 11
73.58292300901147
 21
148.3838101808712
  0
ARC
  5
113
100
AcDbEntity
  8
Acrylic
  6
ByLayer
 62
  256
370
   -1
100
AcDbCircle
 10
72.48609976633564
 20
152.2304943080548
 40
4
100
AcDbArc
 50
258.0000000000004
 51
285.9146912642032
  0
LINE
  5
114
100
AcDbEntity
  8
Construction
  6
ByLayer
 62
  256
370
   -1
100
AcDbLine
 10
227.8339145228815
 20
25.39231769064598
 11
360.7093994917853
 21
71.30185254294516
  0
LINE
  5
115
100
AcDbEntity
  8
Construction
  6
ByLayer
 62
  256
370
   -1
100
AcDbLine
 10
158.5686515689723
 20
24.95371530438729
 11
225.2213934938925
 21
24.95371530438729
  0
ARC
  5
116
100
AcDbEntity
  8
Metal
  6
ByLayer
 62
  256
370
   -1
100
AcDbCircle
 10
73.42738017561729
 20
156.1197813601512
 40
4
100
AcDbArc
 50
258.0000000000004
 51
282.8713047245645
  0
LINE
  5
117
100
AcDbEntity
  8
Metal
  6
ByLayer
 62
  256
370
   -1
100
AcDbLine
 10
80.71133059876162
 20
153.6810907372434
 11
74.31842778070886
 21
152.2202898336236
  0
ARC
  5
118
100
AcDbEntity
  8
Metal
  6
ByLayer
 62
  256
370
   -1
100
AcDbCircle
 10
81.60237820385321
 20
149.7815992107157
 40
4
100
AcDbArc
 50
78.00000000000099
 51
102.8713047245646
  0
LINE
  5
119
100
AcDbEntity
  8
Metal
  6
ByLayer
 62
  256
370
   -1
100
AcDbLine
 10
92.39730104911833
 20
151.5764299066933
 11
82.43402496712417
 21
153.694189613651
  0
ARC
  5
11A
100
AcDbEntity
  8
Metal
  6
ByLayer
 62
  256
370
   -1
100
AcDbCircle
 10
93.22894781238931
 20
155.4890203096285
 40
4
100
AcDbArc
 50
258.0000000000007
 51
282.8713070789661
  0
LINE
  5
11B
100
AcDbEntity
  8
Metal
  6
ByLayer
 62
  256
370
   -1
100
AcDbLine
 10
155.4458277057166
 20
138.1750518622071
 11
120.5817802548445
 21
145.5856339142643
  0
ARC
  5
11C
100
AcDbEntity
  8
Metal
  6
ByLayer
 62
  256
370
   -1
100
AcDbCircle
 10
121.4134270181154
 20
149.4982243171996
 40
4
100
AcDbArc
 50
233.1286914974609
 51
258.000000000001
  0
LINE
  5
11D
100
AcDbEntity
  8
Metal
  6
ByLayer
 62
  256
370
   -1
100
AcDbLine
 10
227.3740720255201
 20
138.1750518622074
 11
262.2381164169007
 21
145.58563326395
  0
ARC
  5
11E
100
AcDbEntity
  8
Metal
  6
ByLayer
 62
  256
370
   -1
100
AcDbCircle
 10
261.4064696536296
 20
149.4982236668853
 40
4
100
AcDbArc
 50
281.9999999999996
 51
306.8713168672916
  0
ARC
  5
11F
100
AcDbEntity
  8
Metal
  6
ByLayer
 62
  256
370
   -1
100
AcDbCircle
 10
289.5909502361162
 20
155.4890199519538
 40
4
100
AcDbArc
 50
257.1287005075828
 51
281.9999999999996
  0
LINE
  5
120
100
AcDbEntity
  8
Metal
  6
ByLayer
 62
  256
370
   -1
100
AcDbLine
 10
300.3858768566826
 20
153.6941900584414
 11
290.4225969993872
 21
151.5764295490186
  0
ARC
  5
121
100
AcDbEntity
  8
Metal
  6
ByLayer
 62
  256
370
   -1
100
AcDbCircle
 10
301.2175236199536
 20
149.7815996555063
 40
4
100
AcDbArc
 50
77.12870080176076
 51
101.9999999999997
  0
LINE
  5
122
100
AcDbEntity
  8
Metal
  6
ByLayer
 62
  256
370
   -1
100
AcDbLine
 10
308.5014758902348
 20
152.2202905051447
 11
302.1085708489292
 21
153.6810912679777
  0
ARC
  5
123
100
AcDbEntity
  8
Metal
  6
ByLayer
 62
  256
370
   -1
100
AcDbCircle
 10
309.3925231192104
 20
156.1197821176162
 40
4
100
AcDbArc
 50
257.1287008017608
 51
281.9999999999996
  0
ARC
  5
124
100
AcDbEntity
  8
Metal
  6
ByLayer
 62
  256
370
   -1
100
AcDbCircle
 10
279.7682375304923
 20
154.934648805272
 40
2
100
AcDbArc
 50
230.6821874534949
 51
281.9999999999994
  0
LINE
  5
125
100
AcDbEntity
  8
Metal
  6
ByLayer
 62
  256
370
   -1
100
AcDbLine
 10
280.1840609121278
 20
152.9783536038044
 11
281.0156996804981
 21
153.1551238809607
  0
LINE
  5
126
100
AcDbEntity
  8
Metal
  6
ByLayer
 62
  256
370
   -1
100
AcDbLine
 10
288.6999029871191
 20
151.5895283440574
 11
281.8770466866321
 21
153.1485744834413
  0
ARC
  5
127
100
AcDbEntity
  8
Metal
  6
ByLayer
 62
  256
370
   -1
100
AcDbCircle
 10
281.4315230621336
 20
151.1988286794931
 40
2
100
AcDbArc
 50
77.12870050758349
 51
101.9999999999998
  0
ARC
  5
128
100
AcDbEntity
  8
Metal
  6
ByLayer
 62
  256
370
   -1
100
AcDbCircle
 10
275.9665090145192
 20
150.29278923277
 40
3.999999999999049
100
AcDbArc
 50
50.68218745349596
 51
153.3178125464829
  0
ARC
  5
129
100
AcDbEntity
  8
Metal
  6
ByLayer
 62
  256
370
   -1
100
AcDbCircle
 10
270.6054428174164
 20
152.9870366657724
 40
2
100
AcDbArc
 50
281.9999999999996
 51
333.3178125464827
  0
LINE
  5
12A
100
AcDbEntity
  8
Metal
  6
ByLayer
 62
  256
370
   -1
100
AcDbLine
 10
271.0212661990519
 20
151.0307414643048
 11
270.1896269641092
 21
150.8539710879755
  0
LINE
  5
12B
100
AcDbEntity
  8
Metal
  6
ByLayer
 62
  256
370
   -1
100
AcDbLine
 10
269.4054107139735
 20
150.4976461619126
 11
263.806548917172
 21
146.2982831160759
  0
ARC
  5
12C
100
AcDbEntity
  8
Metal
  6
ByLayer
 62
  256
370
   -1
100
AcDbCircle
 10
270.6054503457447
 20
148.8976758865079
 40
2
100
AcDbArc
 50
101.9999999999998
 51
126.8713168672914
  0
ARC
  5
12D
100
AcDbEntity
  8
Metal
  6
ByLayer
 62
  256
370
   -1
100
AcDbCircle
 10
112.2144524911146
 20
152.9870376058469
 40
2
100
AcDbArc
 50
206.6821874534927
 51
258.0000000000007
  0
ARC
  5
12E
100
AcDbEntity
  8
Metal
  6
ByLayer
 62
  256
370
   -1
100
AcDbCircle
 10
106.8533862940075
 20
150.2927901728452
 40
3.999999999999661
100
AcDbArc
 50
26.68218745349301
 51
129.317812546508
  0
ARC
  5
12F
100
AcDbEntity
  8
Metal
  6
ByLayer
 62
  256
370
   -1
100
AcDbCircle
 10
103.0516577780336
 20
154.9346497453476
 40
2
100
AcDbArc
 50
257.9999999999996
 51
309.3178125465082
  0
LINE
  5
130
100
AcDbEntity
  8
Metal
  6
ByLayer
 62
  256
370
   -1
100
AcDbLine
 10
102.6358343963981
 20
152.97835454388
 11
101.8041962127759
 21
153.1551246967443
  0
LINE
  5
131
100
AcDbEntity
  8
Metal
  6
ByLayer
 62
  256
370
   -1
100
AcDbLine
 10
100.9428489484756
 20
153.148575240233
 11
94.11999557771901
 21
151.5895288197159
  0
ARC
  5
132
100
AcDbEntity
  8
Metal
  6
ByLayer
 62
  256
370
   -1
100
AcDbCircle
 10
101.3883728311404
 20
151.1988294952766
 40
2
100
AcDbArc
 50
78.00000000000038
 51
102.8713070789661
  0
LINE
  5
133
100
AcDbEntity
  8
Metal
  6
ByLayer
 62
  256
370
   -1
100
AcDbLine
 10
111.7986291094791
 20
151.0307424043793
 11
112.630267331329
 21
150.8539722433895
  0
LINE
  5
134
100
AcDbEntity
  8
Metal
  6
ByLayer
 62
  256
370
   -1
100
AcDbLine
 10
119.0133482217403
 20
146.2982834159968
 11
113.4144833478811
 21
150.4976474925233
  0
ARC
  5
135
100
AcDbEntity
  8
Metal
  6
ByLayer
 62
  256
370
   -1
100
AcDbCircle
 10
112.2144439496935
 20
148.8976770419219
 40
2
100
AcDbArc
 50
53.12869149746118
 51
78.00000000000078
  0
ARC
  5
136
100
AcDbEntity
  8
Metal
  6
ByLayer
 62
  256
370
   -1
100
AcDbCircle
 10
135.138606209185
 20
169.4124067432767
 40
2
100
AcDbArc
 50
19.47122063449075
 51
90
  0
ARC
  5
137
100
AcDbEntity
  8
Metal
  6
ByLayer
 62
  256
370
   -1
100
AcDbCircle
 10
140.7954604586774
 20
171.4124067432767
 40
4.000000000000227
100
AcDbArc
 50
199.4712206344906
 51
340.5287793655094
  0
ARC
  5
138
100
AcDbEntity
  8
Metal
  6
ByLayer
 62
  256
370
   -1
100
AcDbCircle
 10
146.4523147081698
 20
169.4124067432767
 40
2
100
AcDbArc
 50
90
 51
160.528779365509
  0
LINE
  5
139
100
AcDbEntity
  8
Metal
  6
ByLayer
 62
  256
370
   -1
100
AcDbLine
 10
146.4523147081698
 20
171.4124067432767
 11
236.3675850230667
 21
171.4124067432767
  0
ARC
  5
13A
100
AcDbEntity
  8
Metal
  6
ByLayer
 62
  256
370
   -1
100
AcDbCircle
 10
236.3675850230667
 20
169.4124067432767
 40
2
100
AcDbArc
 50
19.47122063449054
 51
90
  0
ARC
  5
13B
100
AcDbEntity
  8
Metal
  6
ByLayer
 62
  256
370
   -1
100
AcDbCircle
 10
242.0244392725592
 20
171.4124067432767
 40
4.000000000001364
100
AcDbArc
 50
199.4712206344904
 51
340.5287793655092
  0
ARC
  5
13C
100
AcDbEntity
  8
Metal
  6
ByLayer
 62
  256
370
   -1
100
AcDbCircle
 10
247.6812935220517
 20
169.4124067432767
 40
2
100
AcDbArc
 50
90
 51
160.5287793655097
  0
LINE
  5
13D
100
AcDbEntity
  8
Metal
  6
ByLayer
 62
  256
370
   -1
100
AcDbLine
 10
224.293128385856
 20
133.4308146960011
 11
231.8665905531556
 21
97.80047655072791
  0
ARC
  5
13E
100
AcDbEntity
  8
Metal
  6
ByLayer
 62
  256
370
   -1
100
AcDbCircle
 10
229.910295351688
 20
97.38465316909237
 40
2
100
AcDbArc
 50
301.4712206344899
 51
12.00000000000025
  0
ARC
  5
13F
100
AcDbEntity
  8
Metal
  6
ByLayer
 62
  256
370
   -1
100
AcDbCircle
 10
233.0427166848774
 20
92.26723813888555
 40
4.000000000000542
100
AcDbArc
 50
121.4712206344895
 51
187.528779365512
  0
ARC
  5
140
100
AcDbEntity
  8
Metal
  6
ByLayer
 62
  256
370
   -1
100
AcDbCircle
 10
227.094441642717
 20
91.48109309958105
 40
2
100
AcDbArc
 50
296.9999999999998
 51
7.528779365512165
  0
ARC
  5
141
100
AcDbEntity
  8
Metal
  6
ByLayer
 62
  256
370
   -1
100
AcDbCircle
 10
155.7254580885187
 20
91.4810930995817
 40
2
100
AcDbArc
 50
172.4712206344943
 51
243.0000000000003
  0
LINE
  5
142
100
AcDbEntity
  8
Metal
  6
ByLayer
 62
  256
370
   -1
100
AcDbLine
 10
158.5267713453809
 20
133.4308146960008
 11
150.9533091780815
 21
97.80047655072667
  0
ARC
  5
143
100
AcDbEntity
  8
Metal
  6
ByLayer
 62
  256
370
   -1
100
AcDbCircle
 10
149.7771830463601
 20
92.26723813888529
 40
3.999999999999581
100
AcDbArc
 50
352.4712206344942
 51
58.52877936550834
  0
ARC
  5
144
100
AcDbEntity
  8
Metal
  6
ByLayer
 62
  256
370
   -1
100
AcDbCircle
 10
152.9096043795492
 20
97.38465316909117
 40
2
100
AcDbArc
 50
168.0000000000006
 51
238.5287793655086
  0
LINE
  5
145
100
AcDbEntity
  8
Metal
  6
ByLayer
 62
  256
370
   -1
100
AcDbLine
 10
182.1992796085728
 20
75.74735481447227
 11
154.8174770890396
 21
89.69908005120494
  0
ARC
  5
146
100
AcDbEntity
  8
Metal
  6
ByLayer
 62
  256
370
   -1
100
AcDbCircle
 10
180.3833176096146
 20
72.18332871771881
 40
4
100
AcDbArc
 50
0
 51
63.00000000000033
  0
LINE
  5
147
100
AcDbEntity
  8
Metal
  6
ByLayer
 62
  256
370
   -1
100
AcDbLine
 10
228.0024226421961
 20
89.69908005120429
 11
200.6206201226644
 21
75.74735481447247
  0
ARC
  5
148
100
AcDbEntity
  8
Metal
  6
ByLayer
 62
  256
370
   -1
100
AcDbCircle
 10
202.4365821216226
 20
72.18332871771899
 40
4
100
AcDbArc
 50
116.9999999999996
 51
180
  0
ARC
  5
149
100
AcDbEntity
  8
Acrylic
  6
ByLayer
 62
  256
370
   -1
100
AcDbCircle
 10
234.2001103766807
 20
134.003097832201
 40
2
100
AcDbArc
 50
101.9999999999996
 51
177.5224878140799
  0
ARC
  5
14A
100
AcDbEntity
  8
Acrylic
  6
ByLayer
 62
  256
370
   -1
100
AcDbCircle
 10
228.2057187887912
 20
134.2624614592722
 40
4.000000000000959
100
AcDbArc
 50
301.4712206344891
 51
357.52248781408
  0
LINE
  5
14B
100
AcDbEntity
  8
Acrylic
  6
ByLayer
 62
  256
370
   -1
100
AcDbLine
 10
229.3818449205128
 20
128.72922304743
 11
236.9553066066276
 21
93.09888716595243
  0
ARC
  5
14C
100
AcDbEntity
  8
Acrylic
  6
ByLayer
 62
  256
370
   -1
100
AcDbCircle
 10
231.3381401219804
 20
129.1450464290655
 40
2
100
AcDbArc
 50
121.4712206344894
 51
191.9999999999996
  0
LINE
  5
14D
100
AcDbEntity
  8
Acrylic
  6
ByLayer
 62
  256
370
   -1
100
AcDbLine
 10
145.8647786049109
 20
93.09975978216373
 11
153.4380548107243
 21
128.7292230474314
  0
ARC
  5
14E
100
AcDbEntity
  8
Acrylic
  6
ByLayer
 62
  256
370
   -1
100
AcDbCircle
 10
151.4817596092568
 20
129.1450464290669
 40
2
100
AcDbArc
 50
348.0000000000002
 51
58.52877936550561
  0
LINE
  5
14F
100
AcDbEntity
  8
Acrylic
  6
ByLayer
 62
  256
370
   -1
100
AcDbLine
 10
149.0356127361928
 20
135.9593930336682
 11
119.8540893369823
 21
142.1621173116975
  0
ARC
  5
150
100
AcDbEntity
  8
Acrylic
  6
ByLayer
 62
  256
370
   -1
100
AcDbCircle
 10
154.6141809424456
 20
134.2624614592719
 40
3.999999999999103
100
AcDbArc
 50
182.4775121859212
 51
238.5287793655054
  0
ARC
  5
151
100
AcDbEntity
  8
Acrylic
  6
ByLayer
 62
  256
370
   -1
100
AcDbCircle
 10
148.6197893545573
 20
134.0030978322006
 40
2
100
AcDbArc
 50
2.477512185921015
 51
78.00000000000021
  0
ARC
  5
152
100
AcDbEntity
  8
Acrylic
  6
ByLayer
 62
  256
370
   -1
100
AcDbCircle
 10
110.655114809981
 20
145.6509306003429
 40
2
100
AcDbArc
 50
78.00000000000078
 51
129.3178125465067
  0
LINE
  5
153
100
AcDbEntity
  8
Acrylic
  6
ByLayer
 62
  256
370
   -1
100
AcDbLine
 10
111.902576413467
 20
147.4304556408207
 11
111.0709381916165
 21
147.6072258018106
  0
LINE
  5
154
100
AcDbEntity
  8
Acrylic
  6
ByLayer
 62
  256
370
   -1
100
AcDbLine
 10
112.6867924300187
 20
147.0741308899547
 11
118.2856573038789
 21
142.8747668134295
  0
ARC
  5
155
100
AcDbEntity
  8
Acrylic
  6
ByLayer
 62
  256
370
   -1
100
AcDbCircle
 10
111.4867530318315
 20
145.4741604393531
 40
2
100
AcDbArc
 50
53.12869149747388
 51
78.00000000000078
  0
ARC
  5
156
100
AcDbEntity
  8
Acrylic
  6
ByLayer
 62
  256
370
   -1
100
AcDbCircle
 10
106.8533862940075
 20
150.2927901728452
 40
3.999999999999903
100
AcDbArc
 50
206.6821874534941
 51
309.3178125465064
  0
ARC
  5
157
100
AcDbEntity
  8
Acrylic
  6
ByLayer
 62
  256
370
   -1
100
AcDbCircle
 10
101.4923200969006
 20
147.5985427398434
 40
2
100
AcDbArc
 50
26.68218745349455
 51
78.00000000000021
  0
LINE
  5
158
100
AcDbEntity
  8
Acrylic
  6
ByLayer
 62
  256
370
   -1
100
AcDbLine
 10
101.9081434785361
 20
149.554837941311
 11
101.0765052949132
 21
149.7316080941754
  0
LINE
  5
159
100
AcDbEntity
  8
Acrylic
  6
ByLayer
 62
  256
370
   -1
100
AcDbLine
 10
93.39230465985679
 20
148.1660122171489
 11
100.2151580306134
 21
149.7250586376642
  0
ARC
  5
15A
100
AcDbEntity
  8
Acrylic
  6
ByLayer
 62
  256
370
   -1
100
AcDbCircle
 10
100.6606819132777
 20
147.7753128927078
 40
2
100
AcDbArc
 50
77.99999999999999
 51
102.8713070789516
  0
LINE
  5
15B
100
AcDbEntity
  8
Acrylic
  6
ByLayer
 62
  256
370
   -1
100
AcDbLine
 10
262.9658073347629
 20
142.1621166613826
 11
233.7842869950452
 21
135.9593930336686
  0
ARC
  5
15C
100
AcDbEntity
  8
Acrylic
  6
ByLayer
 62
  256
370
   -1
100
AcDbCircle
 10
262.1341605714919
 20
146.0747070643179
 40
4
100
AcDbArc
 50
281.9999999999996
 51
306.8713168672841
  0
ARC
  5
15D
100
AcDbEntity
  8
Acrylic
  6
ByLayer
 62
  256
370
   -1
100
AcDbCircle
 10
272.1647804985499
 20
145.6509296602686
 40
2
100
AcDbArc
 50
50.68218745352058
 51
101.9999999999996
  0
LINE
  5
15E
100
AcDbEntity
  8
Acrylic
  6
ByLayer
 62
  256
370
   -1
100
AcDbLine
 10
271.7489571169144
 20
147.6072248617362
 11
270.9173178819711
 21
147.4304544854068
  0
LINE
  5
15F
100
AcDbEntity
  8
Acrylic
  6
ByLayer
 62
  256
370
   -1
100
AcDbLine
 10
270.1331016318356
 20
147.0741295593439
 11
264.5342398350338
 21
142.8747665135082
  0
ARC
  5
160
100
AcDbEntity
  8
Acrylic
  6
ByLayer
 62
  256
370
   -1
100
AcDbCircle
 10
271.3331412636066
 20
145.4741592839391
 40
2
100
AcDbArc
 50
101.9999999999996
 51
126.8713168672842
  0
ARC
  5
161
100
AcDbEntity
  8
Acrylic
  6
ByLayer
 62
  256
370
   -1
100
AcDbCircle
 10
275.9665090145192
 20
150.29278923277
 40
3.999999999997813
100
AcDbArc
 50
230.6821874535196
 51
333.3178125464832
  0
ARC
  5
162
100
AcDbEntity
  8
Acrylic
  6
ByLayer
 62
  256
370
   -1
100
AcDbCircle
 10
281.3275752116223
 20
147.5985417997674
 40
2
100
AcDbArc
 50
102.0000000000012
 51
153.3178125464828
  0
LINE
  5
163
100
AcDbEntity
  8
Acrylic
  6
ByLayer
 62
  256
370
   -1
100
AcDbLine
 10
281.7433905983605
 20
149.7316072783921
 11
280.9117518299868
 21
149.5548370012351
  0
LINE
  5
164
100
AcDbEntity
  8
Acrylic
  6
ByLayer
 62
  256
370
   -1
100
AcDbLine
 10
289.4275939049814
 20
148.1660117414899
 11
282.6047376044942
 21
149.7250578808728
  0
ARC
  5
165
100
AcDbEntity
  8
Acrylic
  6
ByLayer
 62
  256
370
   -1
100
AcDbCircle
 10
282.159213979996
 20
147.7753120769245
 40
2
100
AcDbArc
 50
77.12870050759197
 51
101.9999999999998
  0
LINE
  5
166
100
AcDbEntity
  8
Metal
  6
ByLayer
 62
  256
370
   -1
100
AcDbLine
 10
151.6718513582216
 20
36.75680126661138
 11
162.3193783374789
 21
31.33161529650193
  0
LINE
  5
167
100
AcDbEntity
  8
Construction
  6
ByLayer
 62
  256
370
   -1
100
AcDbLine
 10
15.46395366449749
 20
73.61430404256431
 11
11.55136326156227
 21
74.44595080583535
  0
LINE
  5
168
100
AcDbEntity
  8
Construction
  6
ByLayer
 62
  256
370
   -1
100
AcDbLine
 10
157.2339238538461
 20
24.95371530438729
 11
153.6698977570926
 21
26.76967730334548
  0
LINE
  5
169
100
AcDbEntity
  8
Ref
  6
ByLayer
 62
  256
370
   -1
100
AcDbLine
 10
226.5644722388301
 20
24.95371530438729
 11
225.9022011737428
 21
28.89850896646243
  0
LINE
  5
16A
100
AcDbEntity
  8
Ref
  6
ByLayer
 62
  256
370
   -1
100
AcDbLine
 10
157.2339238538461
 20
24.95371530438729
 11
157.8921888929366
 21
28.89917942642809
  0
CIRCLE
  5
16B
100
AcDbEntity
  8
Metal
  6
ByLayer
 62
  256
370
   -1
100
AcDbCircle
 10
157.8921888929366
 20
28.89917942642809
 40
1.1
  0
CIRCLE
  5
16C
100
AcDbEntity
  8
Metal
  6
ByLayer
 62
  256
370
   -1
100
AcDbCircle
 10
225.9022011737428
 20
28.89850896646243
 40
1.1
  0
ARC
  5
16D
100
AcDbEntity
  8
Metal
  6
ByLayer
 62
  256
370
   -1
100
AcDbCircle
 10
223.8783147489547
 20
40.95371530438729
 40
16
100
AcDbArc
 50
270
 51
289.0604374895396
  0
LINE
  5
16E
100
AcDbEntity
  8
Metal
  6
ByLayer
 62
  256
370
   -1
100
AcDbLine
 10
223.8783147489547
 20
24.95371530438729
 11
159.9033792840987
 21
24.95371530438729
  0
ARC
  5
16F
100
AcDbEntity
  8
Metal
  6
ByLayer
 62
  256
370
   -1
100
AcDbCircle
 10
159.9033792840987
 20
40.95371530438729
 40
16
100
AcDbArc
 50
251.0559228975551
 51
270
  0
LINE
  5
170
100
AcDbEntity
  8
Ref
  6
ByLayer
 62
  256
370
   -1
100
AcDbLine
 10
88.06034223341672
 20
52.92565746146742
 11
85.46318113889126
 21
45.35897032315628
  0
LINE
  5
171
100
AcDbEntity
  8
Ref
  6
ByLayer
 62
  256
370
   -1
100
AcDbLine
 10
295.2707826042368
 20
52.92431312582868
 11
297.8833053043687
 21
45.36291608948046
  0
CIRCLE
  5
172
100
AcDbEntity
  8
Metal
  6
ByLayer
 62
  256
370
   -1
100
AcDbCircle
 10
295.2707826042368
 20
52.92431312582868
 40
1.1
  0
CIRCLE
  5
173
100
AcDbEntity
  8
Metal
  6
ByLayer
 62
  256
370
   -1
100
AcDbCircle
 10
88.06034223341672
 20
52.92565746146742
 40
1.1
  0
CIRCLE
  5
174
100
AcDbEntity
  8
0
  6
ByLayer
 62
  256
370
   -1
100
AcDbCircle
 10
191.4099498656186
 20
28.95371530438729
 40
1.1
  0
LINE
  5
175
100
AcDbEntity
  8
Metal
  6
ByLayer
 62
  256
370
   -1
100
AcDbLine
 10
184.3833176096146
 20
36.95371530438729
 11
184.3833176096146
 21
72.18332871771881
  0
ARC
  5
176
100
AcDbEntity
  8
Metal
  6
ByLayer
 62
  256
370
   -1
100
AcDbCircle
 10
188.3833176096146
 20
36.95371530438729
 40
4
100
AcDbArc
 50
180
 51
270
  0
LINE
  5
177
100
AcDbEntity
  8
Metal
  6
ByLayer
 62
  256
370
   -1
100
AcDbLine
 10
188.3833176096146
 20
32.95371530438729
 11
194.4365821216226
 21
32.95371530438729
  0
LINE
  5
178
100
AcDbEntity
  8
Metal
  6
ByLayer
 62
  256
370
   -1
100
AcDbLine
 10
198.4365821216226
 20
72.18332871771899
 11
198.4365821216226
 21
36.95371530438729
  0
ARC
  5
179
100
AcDbEntity
  8
Metal
  6
ByLayer
 62
  256
370
   -1
100
AcDbCircle
 10
194.4365821216226
 20
36.95371530438729
 40
4
100
AcDbArc
 50
270
 51
0
  0
LINE
  5
17A
100
AcDbEntity
  8
Acrylic
  6
ByLayer
 62
  256
370
   -1
100
AcDbLine
 10
180.3833176096145
 20
32.9537153043873
 11
180.3833176096146
 21
65.25512548744359
  0
ARC
  5
17B
100
AcDbEntity
  8
Acrylic
  6
ByLayer
 62
  256
370
   -1
100
AcDbCircle
 10
184.3833176096145
 20
32.95371530438729
 40
4
100
AcDbArc
 50
179.9999999999998
 51
270
  0
LINE
  5
17C
100
AcDbEntity
  8
Acrylic
  6
ByLayer
 62
  256
370
   -1
100
AcDbLine
 10
202.4365821216222
 20
65.25512548744653
 11
202.4365821216222
 21
32.95371530438729
  0
ARC
  5
17D
100
AcDbEntity
  8
Acrylic
  6
ByLayer
 62
  256
370
   -1
100
AcDbCircle
 10
198.4365821216222
 20
32.95371530438729
 40
4
100
AcDbArc
 50
270
 51
0
  0
CIRCLE
  5
17E
100
AcDbEntity
  8
Ref
  6
ByLayer
 62
  256
370
   -1
100
AcDbCircle
 10
191.4099498656186
 20
28.95371530438729
 40
4
  0
LINE
  5
17F
100
AcDbEntity
  8
Acrylic
  6
ByLayer
 62
  256
370
   -1
100
AcDbLine
 10
198.4365821216222
 20
28.95371530438729
 11
198.3381530958952
 21
28.95371530438729
  0
ARC
  5
180
100
AcDbEntity
  8
Acrylic
  6
ByLayer
 62
  256
370
   -1
100
AcDbCircle
 10
198.3381530958952
 20
24.95371530438729
 40
4
100
AcDbArc
 50
90
 51
150.000000000004
  0
LINE
  5
181
100
AcDbEntity
  8
Acrylic
  6
ByLayer
 62
  256
370
   -1
100
AcDbLine
 10
184.4817466353431
 20
28.95371530438729
 11
184.3833176096145
 21
28.95371530438729
  0
ARC
  5
182
100
AcDbEntity
  8
Acrylic
  6
ByLayer
 62
  256
370
   -1
100
AcDbCircle
 10
184.4817466353431
 20
24.95371530438729
 40
4
100
AcDbArc
 50
29.99999999999975
 51
90
  0
ARC
  5
183
100
AcDbEntity
  8
Acrylic
  6
ByLayer
 62
  256
370
   -1
100
AcDbCircle
 10
191.4099498656186
 20
28.95371530438729
 40
4.000000000000038
100
AcDbArc
 50
209.9999999999999
 51
330.0000000000039
  0
LINE
  5
184
100
AcDbEntity
  8
Construction
  6
ByLayer
 62
  256
370
   -1
100
AcDbLine
 10
340.7411549941637
 20
160.5155105148002
 11
339.9095082308927
 21
164.4281009177353
  0
CIRCLE
  5
185
100
AcDbEntity
  8
Construction
  6
ByLayer
 62
  256
370
   -1
100
AcDbCircle
 10
44.43030687133263
 20
171.4124067432767
 40
1.1
  0
LINE
  5
186
100
AcDbEntity
  8
Construction
  6
ByLayer
 62
  256
370
   -1
100
AcDbLine
 10
156.0076376423104
 20
29.60368459692057
 11
20.11304682452301
 21
76.24763032601426
  0
CIRCLE
  5
187
100
AcDbEntity
  8
Construction
  6
ByLayer
 62
  256
370
   -1
100
AcDbCircle
 10
23.92434770326936
 20
74.93945381747422
 40
1.1
  0
LINE
  5
188
100
AcDbEntity
  8
Construction
  6
ByLayer
 62
  256
370
   -1
100
AcDbLine
 10
362.744466409321
 20
76.23700650179237
 11
227.7970987991526
 21
29.61161974986499
  0
CIRCLE
  5
189
100
AcDbEntity
  8
Construction
  6
ByLayer
 62
  256
370
   -1
100
AcDbCircle
 10
358.934879978763
 20
74.92076414867903
 40
1.1
  0
CIRCLE
  5
18A
100
AcDbEntity
  8
Construction
  6
ByLayer
 62
  256
370
   -1
100
AcDbCircle
 10
338.4249481989637
 20
171.4124067432767
 40
1.1
  0
LINE
  5
18B
100
AcDbEntity
  8
Metal
  6
ByLayer
 62
  256
370
   -1
100
AcDbLine
 10
247.681300576735
 20
171.4124067432767
 11
331.5651349184325
 21
171.4124067432767
  0
ARC
  5
18C
100
AcDbEntity
  8
Metal
  6
ByLayer
 62
  256
370
   -1
100
AcDbCircle
 10
331.5651349184325
 20
167.4124067432767
 40
4
100
AcDbArc
 50
29.9999999999845
 51
90
  0
ARC
  5
18D
100
AcDbEntity
  8
Metal
  6
ByLayer
 62
  256
370
   -1
100
AcDbCircle
 10
338.8669795515381
 20
166.9279455602498
 40
0.5
100
AcDbArc
 50
11.99999999999979
 51
94.76283349250852
  0
LINE
  5
18E
100
AcDbEntity
  8
Metal
  6
ByLayer
 62
  256
370
   -1
100
AcDbLine
 10
339.356053351905
 20
167.0319014056587
 11
340.2799910890956
 21
162.6851161079877
  0
LINE
  5
18F
100
AcDbEntity
  8
Metal
  6
ByLayer
 62
  256
370
   -1
100
AcDbLine
 10
310.2241734715051
 20
152.2071924775514
 11
337.1990474494314
 21
157.9408789417815
  0
ARC
  5
190
100
AcDbEntity
  8
Metal
  6
ByLayer
 62
  256
370
   -1
100
AcDbCircle
 10
336.3674006861604
 20
161.8534693447167
 40
4
100
AcDbArc
 50
281.9999999999996
 51
11.99999999999962
  0
ARC
  5
191
100
AcDbEntity
  8
Metal
  6
ByLayer
 62
  256
370
   -1
100
AcDbCircle
 10
338.4933381487124
 20
171.4124067432767
 40
4.000000000003751
100
AcDbArc
 50
209.9999999999845
 51
274.762833492512
  0
ARC
  5
192
100
AcDbEntity
  8
Metal
  6
ByLayer
 62
  256
370
   -1
100
AcDbCircle
 10
0
 20
0
 40
0
100
AcDbArc
 50
0
 51
0
  0
ARC
  5
193
100
AcDbEntity
  8
Metal
  6
ByLayer
 62
  256
370
   -1
100
AcDbCircle
 10
338.4249481989637
 20
171.4124067432767
 40
4.000000000000594
100
AcDbArc
 50
11.99997219259702
 51
90.12811710316507
  0
LINE
  5
194
100
AcDbEntity
  8
Construction
  6
ByLayer
 62
  256
370
   -1
100
AcDbLine
 10
344.6537453970989
 20
161.3471572780711
 11
362.8456107616317
 21
75.76115973650343
  0
LINE
  5
195
100
AcDbEntity
  8
Metal
  6
ByLayer
 62
  256
370
   -1
100
AcDbLine
 10
360.2326874249692
 20
71.13714473961237
 11
229.1033601492186
 21
25.83092123169089
  0
LINE
  5
196
100
AcDbEntity
  8
Metal
  6
ByLayer
 62
  256
370
   -1
100
AcDbLine
 10
362.8456107619577
 20
75.76115973497386
 11
342.3375390055228
 21
172.2440516076474
  0
ARC
  5
197
100
AcDbEntity
  8
Metal
  6
ByLayer
 62
  256
370
   -1
100
AcDbCircle
 10
358.9348799787623
 20
74.92076414867877
 40
4.000009999999256
100
AcDbArc
 50
288.9323203699334
 51
12.12811711625878
  0
LINE
  5
198
100
AcDbEntity
  8
Metal
  6
ByLayer
 62
  256
370
   -1
100
AcDbLine
 10
72.59573341234628
 20
152.2071909572159
 11
45.65467930603548
 21
157.9336887858193
  0
ARC
  5
199
100
AcDbEntity
  8
Metal
  6
ByLayer
 62
  256
370
   -1
100
AcDbCircle
 10
46.4863260693065
 20
161.8462791887545
 40
4
100
AcDbArc
 50
167.9999999999996
 51
258.0000000000002
  0
LINE
  5
19A
100
AcDbEntity
  8
Metal
  6
ByLayer
 62
  256
370
   -1
100
AcDbLine
 10
51.35851010160811
 20
171.4124067432767
 11
135.138606209185
 21
171.4124067432767
  0
ARC
  5
19B
100
AcDbEntity
  8
Metal
  6
ByLayer
 62
  256
370
   -1
100
AcDbCircle
 10
51.35851010160811
 20
167.4124067432767
 40
4
100
AcDbArc
 50
90
 51
150.0000000000001
  0
LINE
  5
19C
100
AcDbEntity
  8
Construction
  6
ByLayer
 62
  256
370
   -1
100
AcDbLine
 10
42.781647564091
 20
163.6560745261565
 11
43.50049752336175
 21
167.0379976887389
  0
ARC
  5
19D
100
AcDbEntity
  8
Metal
  6
ByLayer
 62
  256
370
   -1
100
AcDbCircle
 10
43.98957132372865
 20
166.93404184333
 40
0.5
100
AcDbArc
 50
84.37937020844348
 51
168.0000000000004
  0
LINE
  5
19E
100
AcDbEntity
  8
Metal
  6
ByLayer
 62
  256
370
   -1
100
AcDbLine
 10
338.4160039229432
 20
175.4124067432767
 11
44.43030894358038
 21
175.4124067432767
  0
ARC
  5
19F
100
AcDbEntity
  8
Metal
  6
ByLayer
 62
  256
370
   -1
100
AcDbCircle
 10
44.43030687133263
 20
171.4124067432767
 40
4.000000000000536
100
AcDbArc
 50
89.99997031723751
 51
167.871882879983
  0
ARC
  5
1A0
100
AcDbEntity
  8
Metal
  6
ByLayer
 62
  256
370
   -1
100
AcDbCircle
 10
44.43030687133254
 20
171.4124067432767
 40
4.000000000000066
100
AcDbArc
 50
264.379370208443
 51
330.0000000000001
  0
LINE
  5
1A1
100
AcDbEntity
  8
Metal
  6
ByLayer
 62
  256
370
   -1
100
AcDbLine
 10
43.50049752336175
 20
167.0379976887389
 11
42.57373566637128
 21
162.6779259520256
  0
LINE
  5
1A2
100
AcDbEntity
  8
Construction
  6
ByLayer
 62
  256
370
   -1
100
AcDbLine
 10
22.63422697467753
 20
71.1532065321325
 11
155.9714904744469
 21
25.38702816607614
  0
LINE
  5
1A3
100
AcDbEntity
  8
Construction
  6
ByLayer
 62
  256
370
   -1
100
AcDbLine
 10
38.86905716115579
 20
164.4877212894276
 11
20.01361692018758
 21
75.77984940430022
  0
LINE
  5
1A4
100
AcDbEntity
  8
Metal
  6
ByLayer
 62
  256
370
   -1
100
AcDbLine
 10
154.7090570950477
 20
25.820341027765
 11
22.6342269746904
 21
71.1532065321281
  0
LINE
  5
1A5
100
AcDbEntity
  8
Metal
  6
ByLayer
 62
  256
370
   -1
100
AcDbLine
 10
40.51957608819249
 20
172.2528023298283
 11
20.01361692019058
 21
75.77984940431392
  0
ARC
  5
1A6
100
AcDbEntity
  8
Metal
  6
ByLayer
 62
  256
370
   -1
100
AcDbCircle
 10
23.92434770326936
 20
74.93945381747422
 40
4.000010000000009
100
AcDbArc
 50
167.8718828757634
 51
251.1840400218169
  0
CIRCLE
  5
1A7
100
AcDbEntity
  8
Metal
  6
ByLayer
 62
  256
370
   -1
100
AcDbCircle
 10
23.92434770326936
 20
74.93945381747422
 40
1.1
  0
CIRCLE
  5
1A8
100
AcDbEntity
  8
Metal
  6
ByLayer
 62
  256
370
   -1
100
AcDbCircle
 10
44.43030687133263
 20
171.4124067432767
 40
1.1
  0
CIRCLE
  5
1A9
100
AcDbEntity
  8
Metal
  6
ByLayer
 62
  256
370
   -1
100
AcDbCircle
 10
338.4249481989637
 20
171.4124067432767
 40
1.1
  0
CIRCLE
  5
1AA
100
AcDbEntity
  8
Metal
  6
ByLayer
 62
  256
370
   -1
100
AcDbCircle
 10
358.934879978763
 20
74.92076414867903
 40
1.1
  0
ARC
  5
1AB
100
AcDbEntity
  8
Acrylic
  6
ByLayer
 62
  256
370
   -1
100
AcDbCircle
 10
341.111641249756
 20
158.7725264271897
 40
4
100
AcDbArc
 50
281.9999999999987
 51
11.99999999999939
  0
ARC
  5
1AC
100
AcDbEntity
  8
Acrylic
  6
ByLayer
 62
  256
370
   -1
100
AcDbCircle
 10
338.4249481989635
 20
171.4124067432767
 40
4.000000100000618
100
AcDbArc
 50
11.98718823274232
 51
91.20007211207957
  0
ARC
  5
1AD
100
AcDbEntity
  8
Acrylic
  6
ByLayer
 62
  256
370
   -1
100
AcDbCircle
 10
44.43030687133254
 20
171.4124067432767
 40
4.000000000000135
100
AcDbArc
 50
89.99998509647585
 51
168.012811739058
  0
ARC
  5
1AE
100
AcDbEntity
  8
Acrylic
  6
ByLayer
 62
  256
370
   -1
100
AcDbCircle
 10
41.74208890310004
 20
158.7653355490897
 40
4
100
AcDbArc
 50
168.0000000000004
 51
258.0000000000004
  0
LINE
  5
1AF
100
AcDbEntity
  8
Acrylic
  6
ByLayer
 62
  256
370
   -1
100
AcDbLine
 10
40.5175306041514
 20
172.2431786030463
 11
37.82949850016473
 21
159.5969823123613
  0
LINE
  5
1B0
100
AcDbEntity
  8
Acrylic
  6
ByLayer
 62
  256
370
   -1
100
AcDbLine
 10
40.91044213982903
 20
154.8527451461545
 11
71.65445300306463
 21
148.3179039051196
  0
LINE
  5
1B1
100
AcDbEntity
  8
Acrylic
  6
ByLayer
 62
  256
370
   -1
100
AcDbLine
 10
44.43030791179481
 20
175.4124067432767
 11
338.341173484067
 21
175.4115294717197
  0
LINE
  5
1B2
100
AcDbEntity
  8
Acrylic
  6
ByLayer
 62
  256
370
   -1
100
AcDbLine
 10
342.3377245643734
 20
172.2431786218899
 11
345.0242316526912
 21
159.6041731904606
  0
LINE
  5
1B3
100
AcDbEntity
  8
Acrylic
  6
ByLayer
 62
  256
370
   -1
100
AcDbLine
 10
341.943288013027
 20
154.8599360242544
 11
311.1654502724231
 21
148.3179046584744
  0
LWPOLYLINE
  5
1B4
100
AcDbEntity
  8
Acrylic
  6
ByLayer
 62
  256
370
   -1
100
AcDbPolyline
 90
    4
 70
    1
 43
0
 10
255.981833395813
 20
154.7275979880233
 10
315.981833395813
 20
154.7275979880233
 10
315.981833395813
 20
170.9775979880233
 10
255.981833395813
 20
170.9775979880233
  0
LINE
  5
1B5
100
AcDbEntity
  8
Acrylic
  6
ByLayer
 62
  256
370
   -1
100
AcDbLine
 10
315.981833395813
 20
170.9775979880233
 11
255.981833395813
 21
154.7275979880233
  0
LINE
  5
1B6
100
AcDbEntity
  8
Acrylic
  6
ByLayer
 62
  256
370
   -1
100
AcDbLine
 10
255.981833395813
 20
170.9775979880233
 11
315.981833395813
 21
154.7275979880233
  0
ENDSEC
  0
SECTION
  2
OBJECTS
  0
DICTIONARY
  5
C
330
0
100
AcDbDictionary
281
    1
  3
ACAD_GROUP
350
D
  0
DICTIONARY
  5
D
330
C
100
AcDbDictionary
281
    1
  0
ENDSEC
  0
EOF
