0
SECTION
2
HEADER
9
$INSUNITS
70
4
9
$ACADVER
1
AC1014
9
$HANDSEED
5
FFFF
0
ENDSEC
0
SECTION
2
TABLES
0
TABLE
2
VPORT
5
8
100
AcDbSymbolTable
0
ENDTAB
0
TABLE
2
LTYPE
5
5
100
AcDbSymbolTable
0
LTYPE
5
14
100
AcDbSymbolTableRecord
100
AcDbLinetypeTableRecord
2
BYBLOCK
70
0
0
LTYPE
5
15
100
AcDbSymbolTableRecord
100
AcDbLinetypeTableRecord
2
BYLAYER
70
0
0
ENDTAB
0
TABLE
2
LAYER
5
2
100
AcDbSymbolTable
70
2
0
LAYER
5
50
100
AcDbSymbolTableRecord
100
AcDbLayerTableRecord
2
0
70
0
6
CONTINUOUS
0
ENDTAB
0
TABLE
2
STYLE
5
3
100
AcDbSymbolTable
70
1
0
STYLE
5
11
100
AcDbSymbolTableRecord
100
AcDbTextStyleTableRecord
2
STANDARD
70
0
0
ENDTAB
0
TABLE
2
VIEW
5
6
100
AcDbSymbolTable
70
0
0
ENDTAB
0
TABLE
2
UCS
5
7
100
AcDbSymbolTable
70
0
0
ENDTAB
0
TABLE
2
APPID
5
9
100
AcDbSymbolTable
70
2
0
APPID
5
12
100
AcDbSymbolTableRecord
100
AcDbRegAppTableRecord
2
ACAD
70
0
0
ENDTAB
0
TABLE
2
DIMSTYLE
5
A
100
AcDbSymbolTable
70
1
0
ENDTAB
0
TABLE
2
BLOCK_RECORD
5
1
100
AcDbSymbolTable
70
1
0
BLOCK_RECORD
5
1F
100
AcDbSymbolTableRecord
100
AcDbBlockTableRecord
2
*MODEL_SPACE
0
BLOCK_RECORD
5
1B
100
AcDbSymbolTableRecord
100
AcDbBlockTableRecord
2
*PAPER_SPACE
0
ENDTAB
0
ENDSEC
0
SECTION
2
BLOCKS
0
BLOCK
5
20
100
AcDbEntity
100
AcDbBlockBegin
2
*MODEL_SPACE
0
ENDBLK
5
21
100
AcDbEntity
100
AcDbBlockEnd
0
BLOCK
5
1C
100
AcDbEntity
100
AcDbBlockBegin
2
*PAPER_SPACE
0
ENDBLK
5
1D
100
AcDbEntity
100
AcDbBlockEnd
0
ENDSEC
0
SECTION
2
ENTITIES
0
SPLINE
5
100
100
AcDbEntity
8
0
100
AcDbSpline
70
0
71
3
72
17
73
13
74
0
42
0.000000001
43
0.0000000001
44
0.0000000001
40
0.0002280705826611186
40
0.0002280705826611186
40
0.0002280705826611186
40
0.0002280705826611186
40
0.25
40
0.25
40
0.25
40
0.5
40
0.5
40
0.5
40
0.75
40
0.75
40
0.75
40
0.99968728716143684
40
0.99968728716143684
40
0.99968728716143684
40
0.99968728716143684
10
148.62369881763581
20
-27.348962401909056
30
0
10
133.59192821001588
20
-24.026255253420224
30
0
10
119.48355041216803
20
-18.675529917404287
30
0
10
106.32287792173089
20
-11.302242082119236
30
0
10
93.537630838795025
20
-4.1392869325079911
30
0
10
81.83366857963793
20
-0.69902383333525553
30
0
10
71.198501424471658
20
-0.81871611012295176
30
0
10
60.271653057192239
20
-0.94169107987303102
30
0
10
49.770067980793215
20
-2.331282679606193
30
0
10
39.679365651530723
20
-4.9841026781183917
30
0
10
29.20427931609407
20
-7.7379762550054139
30
0
10
17.55828147187842
20
-8.7752673450475491
30
0
10
4.7544955580495856
20
-8.1279586525794922
30
0
0
ARC
5
101
100
AcDbEntity
8
0
100
AcDbCircle
10
4.8079999999999714
20
1.8718982101306569
30
0
40
10
210
0
220
0
230
1
100
AcDbArc
50
180
51
269.6934406664335
0
LINE
5
102
100
AcDbEntity
8
0
100
AcDbLine
10
-5.1920000000000277
20
1.8718982101306572
30
0
11
-5.1919999999999806
21
74.471898210130632
31
0
0
CIRCLE
5
103
100
AcDbEntity
8
0
100
AcDbCircle
10
20
20
-2.0543615799482762
30
0
40
1.4999999999999991
210
0
220
0
230
1
0
CIRCLE
5
104
100
AcDbEntity
8
0
100
AcDbCircle
10
113.2898150937573
20
-8.2461701776636769
30
0
40
1.5000000000000036
210
0
220
0
230
1
0
ARC
5
105
100
AcDbEntity
8
0
100
AcDbCircle
10
151.16659726472506
20
-17.677681851341347
30
0
40
9.9999999999999059
210
0
220
0
230
1
100
AcDbArc
50
255.2684908007522
51
344.99999999999983
0
LINE
5
106
100
AcDbEntity
8
0
100
AcDbLine
10
173.5626283138277
20
27.268410860236546
30
0
11
160.82585552761566
21
-20.265872302366567
31
0
0
CIRCLE
5
107
100
AcDbEntity
8
0
100
AcDbCircle
10
161.39868696298734
20
5.0541835495501131
30
0
40
1.5000000000000213
210
0
220
0
230
1
0
ARC
5
108
100
AcDbEntity
8
0
100
AcDbCircle
10
163.90337005093696
20
29.856601311261777
30
0
40
10.000000000000087
210
0
220
0
230
1
100
AcDbArc
50
-15.000000000000036
51
74.999999999999716
0
LINE
5
109
100
AcDbEntity
8
0
100
AcDbLine
10
152.09926569025504
20
43.372263346180013
30
0
11
166.49156050196223
21
39.515859574152493
31
0
0
SPLINE
5
110
100
AcDbEntity
8
0
100
AcDbSpline
70
0
71
3
72
14
73
10
74
0
42
0.000000001
43
0.0000000001
44
0.0000000001
40
0
40
0
40
0
40
0
40
0.47334506651630853
40
0.47334506651630853
40
0.47334506651630853
40
0.79795499064570508
40
0.79795499064570508
40
0.79795499064570508
40
1
40
1
40
1
40
1
10
138.93350000000004
20
67.724798210130672
30
0
10
138.93350000000004
20
62.8901409168597
30
0
10
139.02934027924636
20
57.811590255579404
30
0
10
140.46951410786772
20
53.610204478458279
30
0
10
141.45715452140902
20
50.728983959172218
30
0
10
143.01518185510761
20
48.269153782852293
30
0
10
145.65978144727339
20
46.323863240826157
30
0
10
147.30584371961629
20
45.113067708882362
30
0
10
149.39569673016351
20
44.096682465718409
30
0
10
152.09926569025507
20
43.372263346180013
30
0
0
CIRCLE
5
111
100
AcDbEntity
8
0
100
AcDbCircle
10
138.30902047296925
20
45.135908125850435
30
0
40
1.5000000000000036
210
0
220
0
230
1
0
LINE
5
112
100
AcDbEntity
8
0
100
AcDbLine
10
138.93350000000007
20
77.971898210130675
30
0
11
138.93350000000004
21
67.724798210130672
31
0
0
ARC
5
113
100
AcDbEntity
8
0
100
AcDbCircle
10
128.93350000000004
20
77.971898210130675
30
0
40
10.000000000000018
210
0
220
0
230
1
100
AcDbArc
50
0
51
89.93071224362447
0
SPLINE
5
114
100
AcDbEntity
8
0
100
AcDbSpline
70
0
71
3
72
23
73
19
74
0
42
0.000000001
43
0.0000000001
44
0.0000000001
40
-0.00026663373044578378
40
-0.00026663373044578378
40
-0.00026663373044578378
40
-0.00026663373044578378
40
0
40
0
40
0
40
0.20000000000000001
40
0.20000000000000001
40
0.20000000000000001
40
0.40000000000000002
40
0.40000000000000002
40
0.40000000000000002
40
0.59999999999999998
40
0.59999999999999998
40
0.59999999999999998
40
0.80000000000000004
40
0.80000000000000004
40
0.80000000000000004
40
0.99989257635899376
40
0.99989257635899376
40
0.99989257635899376
40
0.99989257635899376
10
4.8635027229785699
20
84.471744181331516
30
0
10
4.8800276472038249
20
84.470874781765062
30
0
10
4.8965525714291118
20
84.47000538219865
30
0
10
4.9130774956544006
20
84.469135982632224
30
0
10
17.130074771132588
20
83.826382527937568
30
0
10
28.797949548808596
20
84.850940867810067
30
0
10
39.939227931662209
20
87.534606887624477
30
0
10
51.378664497736956
20
90.290092043209825
30
0
10
61.129168781049671
20
91.696888010608319
30
0
10
69.253617808645913
20
91.719074369016795
30
0
10
77.26759515485216
20
91.740959049821214
30
0
10
84.374464162716663
20
91.056431765822765
30
0
10
90.586706446997283
20
89.638686403886254
30
0
10
96.442531798515589
20
88.302281793037025
30
0
10
102.57037707828714
20
87.7060811518935
30
0
10
108.98419570886871
20
87.856122431951434
30
0
10
115.57192762837315
20
88.010232142065121
30
0
10
122.22573175059944
20
88.048805598952555
30
0
10
128.94559299185323
20
87.971890898105556
30
0
0
CIRCLE
5
115
100
AcDbEntity
8
0
100
AcDbCircle
10
96.763849191283782
20
82.466780956016748
30
0
40
1.4999999999999858
210
0
220
0
230
1
0
ARC
5
116
100
AcDbEntity
8
0
100
AcDbCircle
10
4.8079999999999963
20
74.471898210130632
30
0
40
10.000000000000025
210
0
220
-0
230
1
100
AcDbArc
50
89.68199118943221
51
180
0
CIRCLE
5
117
100
AcDbEntity
8
0
100
AcDbCircle
10
20
20
78.528843752920466
30
0
40
1.5000000000000036
210
0
220
0
230
1
0
ENDSEC
0
SECTION
2
OBJECTS
0
DICTIONARY
5
C
100
AcDbDictionary
3
ACAD_GROUP
350
D
3
ACAD_MLINESTYLE
350
17
0
DICTIONARY
5
D
100
AcDbDictionary
0
DICTIONARY
5
1A
330
C
100
AcDbDictionary
0
DICTIONARY
5
17
100
AcDbDictionary
0
ENDSEC
0
EOF
