  0
SECTION
  2
HEADER
  9
$ANGBASE
  50
0.0
  9
$ANGDIR
  70
1
  9
$MEASUREMENT
  70
1
  0
ENDSEC
  0
SECTION
  2
TABLES
  0
TABLE
  2
LTYPE
  70
4
  0
LTYPE
  5
40F
  2
CONTINUOUS
  70
0
  3
Solid line
  72
65
  73
0
  40
0.0
  0
LTYPE
  5
410
  2
DASHDOT
 70
0
  3
Dash Dot ____ _ ____ _
 72
65
 73
4
 40
2.0
 49
1.25
 49
-0.25
 49
0.25
 49
-0.25
  0
LTYPE
  5
411
  2
DASHED
 70
0
  3
Dashed __ __ __ __ __
 72
65
 73
2
 40
0.75
 49
0.5
 49
-0.25
  0
LTYPE
  5
43B
  2
DOTTED
 70
0
  3
Dotted .  .  .  .
 72
65
 73
2
 40
0.2
 49
0.0
 49
-0.2
  0
ENDTAB
  0
TABLE
  2
STYLE
  70
4
  0
STYLE
  2
KICAD
  70
0
  40
0
  41
1
  42
1
  50
0
  71
0
  3
isocp.shx
  0
STYLE
  2
KICADB
  70
0
  40
0
  41
1
  42
1
  50
0
  71
0
  3
isocp.shx
  0
STYLE
  2
KICADI
  70
0
  40
0
  41
1
  42
1
  50
15
  71
0
  3
isocp.shx
  0
STYLE
  2
KICADBI
  70
0
  40
0
  41
1
  42
1
  50
15
  71
0
  3
isocp.shx
  0
ENDTAB
  0
TABLE
  2
LAYER
  70
1
  0
LAYER
  2
BLACK
  70
0
  62
7
  6
CONTINUOUS
  0
ENDTAB
  0
ENDSEC
  0
SECTION
  2
ENTITIES
0
LINE
8
BLACK
6
CONTINUOUS
10
311.572
20
-45.2427
11
311.574
21
-45.2435
0
LINE
8
BLACK
6
CONTINUOUS
10
311.574
20
-45.2435
11
311.576
21
-45.2444
0
LINE
8
BLACK
6
CONTINUOUS
10
311.576
20
-45.2444
11
312.164
21
-45.5571
0
LINE
8
BLACK
6
CONTINUOUS
10
312.164
20
-45.5571
11
312.164
21
-45.5572
0
LINE
8
BLACK
6
CONTINUOUS
10
312.164
20
-45.5572
11
312.166
21
-45.5585
0
LINE
8
BLACK
6
CONTINUOUS
10
312.166
20
-45.5585
11
312.168
21
-45.5598
0
LINE
8
BLACK
6
CONTINUOUS
10
312.168
20
-45.5598
11
312.684
21
-45.9807
0
LINE
8
BLACK
6
CONTINUOUS
10
312.684
20
-45.9807
11
312.684
21
-45.9809
0
LINE
8
BLACK
6
CONTINUOUS
10
312.684
20
-45.9809
11
312.686
21
-45.9826
0
LINE
8
BLACK
6
CONTINUOUS
10
312.686
20
-45.9826
11
312.688
21
-45.9841
0
LINE
8
BLACK
6
CONTINUOUS
10
312.688
20
-45.9841
11
313.112
21
-46.4973
0
LINE
8
BLACK
6
CONTINUOUS
10
313.112
20
-46.4973
11
313.112
21
-46.4976
0
LINE
8
BLACK
6
CONTINUOUS
10
313.112
20
-46.4976
11
313.114
21
-46.4995
0
LINE
8
BLACK
6
CONTINUOUS
10
313.114
20
-46.4995
11
313.115
21
-46.5014
0
LINE
8
BLACK
6
CONTINUOUS
10
313.115
20
-46.5014
11
313.432
21
-47.0872
0
LINE
8
BLACK
6
CONTINUOUS
10
313.432
20
-47.0872
11
313.432
21
-47.0875
0
LINE
8
BLACK
6
CONTINUOUS
10
313.432
20
-47.0875
11
313.433
21
-47.0896
0
LINE
8
BLACK
6
CONTINUOUS
10
313.433
20
-47.0896
11
313.433
21
-47.0917
0
LINE
8
BLACK
6
CONTINUOUS
10
313.433
20
-47.0917
11
313.63
21
-47.7279
0
LINE
8
BLACK
6
CONTINUOUS
10
313.63
20
-47.7279
11
313.631
21
-47.7283
0
LINE
8
BLACK
6
CONTINUOUS
10
313.631
20
-47.7283
11
313.631
21
-47.7305
0
LINE
8
BLACK
6
CONTINUOUS
10
313.631
20
-47.7305
11
313.631
21
-47.7327
0
LINE
8
BLACK
6
CONTINUOUS
10
313.631
20
-47.7327
11
313.701
21
-48.3951
0
LINE
8
BLACK
6
CONTINUOUS
10
313.701
20
-48.3951
11
313.701
21
-48.3954
0
LINE
8
BLACK
6
CONTINUOUS
10
313.701
20
-48.3954
11
313.701
21
-48.3965
0
LINE
8
BLACK
6
CONTINUOUS
10
313.701
20
-48.3965
11
313.701
21
-48.3976
0
LINE
8
BLACK
6
CONTINUOUS
10
313.701
20
-48.3976
11
313.701
21
-48.4202
0
LINE
8
BLACK
6
CONTINUOUS
10
313.701
20
-48.4202
11
313.701
21
-48.4203
0
LINE
8
BLACK
6
CONTINUOUS
10
313.701
20
-48.4203
11
313.701
21
-112.085
0
LINE
8
BLACK
6
CONTINUOUS
10
313.701
20
-112.085
11
313.701
21
-112.086
0
LINE
8
BLACK
6
CONTINUOUS
10
313.701
20
-112.086
11
313.701
21
-112.086
0
LINE
8
BLACK
6
CONTINUOUS
10
313.701
20
-112.086
11
313.623
21
-112.883
0
LINE
8
BLACK
6
CONTINUOUS
10
313.623
20
-112.883
11
313.623
21
-112.883
0
LINE
8
BLACK
6
CONTINUOUS
10
313.623
20
-112.883
11
313.623
21
-112.885
0
LINE
8
BLACK
6
CONTINUOUS
10
313.623
20
-112.885
11
313.622
21
-112.888
0
LINE
8
BLACK
6
CONTINUOUS
10
313.622
20
-112.888
11
313.391
21
-113.654
0
LINE
8
BLACK
6
CONTINUOUS
10
313.391
20
-113.654
11
313.391
21
-113.654
0
LINE
8
BLACK
6
CONTINUOUS
10
313.391
20
-113.654
11
313.39
21
-113.656
0
LINE
8
BLACK
6
CONTINUOUS
10
313.39
20
-113.656
11
313.389
21
-113.658
0
LINE
8
BLACK
6
CONTINUOUS
10
313.389
20
-113.658
11
313.013
21
-114.365
0
LINE
8
BLACK
6
CONTINUOUS
10
313.013
20
-114.365
11
313.013
21
-114.365
0
LINE
8
BLACK
6
CONTINUOUS
10
313.013
20
-114.365
11
313.012
21
-114.367
0
LINE
8
BLACK
6
CONTINUOUS
10
313.012
20
-114.367
11
313.011
21
-114.369
0
LINE
8
BLACK
6
CONTINUOUS
10
313.011
20
-114.369
11
312.505
21
-114.989
0
LINE
8
BLACK
6
CONTINUOUS
10
312.505
20
-114.989
11
312.505
21
-114.989
0
LINE
8
BLACK
6
CONTINUOUS
10
312.505
20
-114.989
11
312.503
21
-114.991
0
LINE
8
BLACK
6
CONTINUOUS
10
312.503
20
-114.991
11
312.501
21
-114.992
0
LINE
8
BLACK
6
CONTINUOUS
10
312.501
20
-114.992
11
311.885
21
-115.502
0
LINE
8
BLACK
6
CONTINUOUS
10
311.885
20
-115.502
11
311.885
21
-115.503
0
LINE
8
BLACK
6
CONTINUOUS
10
311.885
20
-115.503
11
311.883
21
-115.504
0
LINE
8
BLACK
6
CONTINUOUS
10
311.883
20
-115.504
11
311.881
21
-115.505
0
LINE
8
BLACK
6
CONTINUOUS
10
311.881
20
-115.505
11
311.177
21
-115.886
0
LINE
8
BLACK
6
CONTINUOUS
10
311.177
20
-115.886
11
311.177
21
-115.886
0
LINE
8
BLACK
6
CONTINUOUS
10
311.177
20
-115.886
11
311.174
21
-115.887
0
LINE
8
BLACK
6
CONTINUOUS
10
311.174
20
-115.887
11
311.172
21
-115.888
0
LINE
8
BLACK
6
CONTINUOUS
10
311.172
20
-115.888
11
310.408
21
-116.124
0
LINE
8
BLACK
6
CONTINUOUS
10
310.408
20
-116.124
11
310.408
21
-116.124
0
LINE
8
BLACK
6
CONTINUOUS
10
310.408
20
-116.124
11
310.405
21
-116.125
0
LINE
8
BLACK
6
CONTINUOUS
10
310.405
20
-116.125
11
310.403
21
-116.125
0
LINE
8
BLACK
6
CONTINUOUS
10
310.403
20
-116.125
11
309.607
21
-116.209
0
LINE
8
BLACK
6
CONTINUOUS
10
309.607
20
-116.209
11
309.607
21
-116.209
0
LINE
8
BLACK
6
CONTINUOUS
10
309.607
20
-116.209
11
309.606
21
-116.209
0
LINE
8
BLACK
6
CONTINUOUS
10
309.606
20
-116.209
11
309.605
21
-116.209
0
LINE
8
BLACK
6
CONTINUOUS
10
309.605
20
-116.209
11
309.577
21
-116.209
0
LINE
8
BLACK
6
CONTINUOUS
10
309.577
20
-116.209
11
309.577
21
-116.209
0
LINE
8
BLACK
6
CONTINUOUS
10
309.577
20
-116.209
11
209.929
21
-116.209
0
LINE
8
BLACK
6
CONTINUOUS
10
209.929
20
-116.209
11
209.603
21
-116.535
0
LINE
8
BLACK
6
CONTINUOUS
10
209.603
20
-116.535
11
208.912
21
-116.997
0
LINE
8
BLACK
6
CONTINUOUS
10
208.912
20
-116.997
11
208.144
21
-117.315
0
LINE
8
BLACK
6
CONTINUOUS
10
208.144
20
-117.315
11
207.329
21
-117.477
0
LINE
8
BLACK
6
CONTINUOUS
10
207.329
20
-117.477
11
206.498
21
-117.477
0
LINE
8
BLACK
6
CONTINUOUS
10
206.498
20
-117.477
11
205.683
21
-117.315
0
LINE
8
BLACK
6
CONTINUOUS
10
205.683
20
-117.315
11
204.916
21
-116.997
0
LINE
8
BLACK
6
CONTINUOUS
10
204.916
20
-116.997
11
204.225
21
-116.535
0
LINE
8
BLACK
6
CONTINUOUS
10
204.225
20
-116.535
11
203.898
21
-116.209
0
LINE
8
BLACK
6
CONTINUOUS
10
203.898
20
-116.209
11
201.965
21
-116.209
0
LINE
8
BLACK
6
CONTINUOUS
10
201.965
20
-116.209
11
201.964
21
-116.209
0
LINE
8
BLACK
6
CONTINUOUS
10
201.964
20
-116.209
11
201.964
21
-116.209
0
LINE
8
BLACK
6
CONTINUOUS
10
201.964
20
-116.209
11
201.167
21
-116.131
0
LINE
8
BLACK
6
CONTINUOUS
10
201.167
20
-116.131
11
201.167
21
-116.131
0
LINE
8
BLACK
6
CONTINUOUS
10
201.167
20
-116.131
11
201.165
21
-116.13
0
LINE
8
BLACK
6
CONTINUOUS
10
201.165
20
-116.13
11
201.162
21
-116.13
0
LINE
8
BLACK
6
CONTINUOUS
10
201.162
20
-116.13
11
200.396
21
-115.899
0
LINE
8
BLACK
6
CONTINUOUS
10
200.396
20
-115.899
11
200.396
21
-115.898
0
LINE
8
BLACK
6
CONTINUOUS
10
200.396
20
-115.898
11
200.394
21
-115.898
0
LINE
8
BLACK
6
CONTINUOUS
10
200.394
20
-115.898
11
200.392
21
-115.897
0
LINE
8
BLACK
6
CONTINUOUS
10
200.392
20
-115.897
11
199.685
21
-115.521
0
LINE
8
BLACK
6
CONTINUOUS
10
199.685
20
-115.521
11
199.685
21
-115.521
0
LINE
8
BLACK
6
CONTINUOUS
10
199.685
20
-115.521
11
199.683
21
-115.52
0
LINE
8
BLACK
6
CONTINUOUS
10
199.683
20
-115.52
11
199.681
21
-115.518
0
LINE
8
BLACK
6
CONTINUOUS
10
199.681
20
-115.518
11
199.061
21
-115.013
0
LINE
8
BLACK
6
CONTINUOUS
10
199.061
20
-115.013
11
199.061
21
-115.012
0
LINE
8
BLACK
6
CONTINUOUS
10
199.061
20
-115.012
11
199.059
21
-115.011
0
LINE
8
BLACK
6
CONTINUOUS
10
199.059
20
-115.011
11
199.058
21
-115.009
0
LINE
8
BLACK
6
CONTINUOUS
10
199.058
20
-115.009
11
198.548
21
-114.393
0
LINE
8
BLACK
6
CONTINUOUS
10
198.548
20
-114.393
11
198.548
21
-114.392
0
LINE
8
BLACK
6
CONTINUOUS
10
198.548
20
-114.392
11
198.546
21
-114.39
0
LINE
8
BLACK
6
CONTINUOUS
10
198.546
20
-114.39
11
198.545
21
-114.389
0
LINE
8
BLACK
6
CONTINUOUS
10
198.545
20
-114.389
11
198.164
21
-113.685
0
LINE
8
BLACK
6
CONTINUOUS
10
198.164
20
-113.685
11
198.164
21
-113.684
0
LINE
8
BLACK
6
CONTINUOUS
10
198.164
20
-113.684
11
198.163
21
-113.682
0
LINE
8
BLACK
6
CONTINUOUS
10
198.163
20
-113.682
11
198.163
21
-113.68
0
LINE
8
BLACK
6
CONTINUOUS
10
198.163
20
-113.68
11
197.926
21
-112.916
0
LINE
8
BLACK
6
CONTINUOUS
10
197.926
20
-112.916
11
197.926
21
-112.915
0
LINE
8
BLACK
6
CONTINUOUS
10
197.926
20
-112.915
11
197.925
21
-112.913
0
LINE
8
BLACK
6
CONTINUOUS
10
197.925
20
-112.913
11
197.925
21
-112.911
0
LINE
8
BLACK
6
CONTINUOUS
10
197.925
20
-112.911
11
197.843
21
-112.128
0
LINE
8
BLACK
6
CONTINUOUS
10
197.843
20
-112.128
11
197.838
21
-112.126
0
LINE
8
BLACK
6
CONTINUOUS
10
197.838
20
-112.126
11
197.831
21
-112.12
0
LINE
8
BLACK
6
CONTINUOUS
10
197.831
20
-112.12
11
197.824
21
-112.112
0
LINE
8
BLACK
6
CONTINUOUS
10
197.824
20
-112.112
11
197.82
21
-112.103
0
LINE
8
BLACK
6
CONTINUOUS
10
197.82
20
-112.103
11
197.817
21
-112.094
0
LINE
8
BLACK
6
CONTINUOUS
10
197.817
20
-112.094
11
197.816
21
-112.086
0
LINE
8
BLACK
6
CONTINUOUS
10
197.816
20
-112.086
11
197.816
21
-55.3714
0
LINE
8
BLACK
6
CONTINUOUS
10
197.816
20
-55.3714
11
197.817
21
-55.364
0
LINE
8
BLACK
6
CONTINUOUS
10
197.817
20
-55.364
11
197.82
21
-55.3546
0
LINE
8
BLACK
6
CONTINUOUS
10
197.82
20
-55.3546
11
197.824
21
-55.3459
0
LINE
8
BLACK
6
CONTINUOUS
10
197.824
20
-55.3459
11
197.831
21
-55.3383
0
LINE
8
BLACK
6
CONTINUOUS
10
197.831
20
-55.3383
11
197.838
21
-55.332
0
LINE
8
BLACK
6
CONTINUOUS
10
197.838
20
-55.332
11
197.846
21
-55.3277
0
LINE
8
BLACK
6
CONTINUOUS
10
197.846
20
-55.3277
11
197.933
21
-54.576
0
LINE
8
BLACK
6
CONTINUOUS
10
197.933
20
-54.576
11
197.933
21
-54.5756
0
LINE
8
BLACK
6
CONTINUOUS
10
197.933
20
-54.5756
11
197.934
21
-54.5734
0
LINE
8
BLACK
6
CONTINUOUS
10
197.934
20
-54.5734
11
197.934
21
-54.5712
0
LINE
8
BLACK
6
CONTINUOUS
10
197.934
20
-54.5712
11
198.179
21
-53.8093
0
LINE
8
BLACK
6
CONTINUOUS
10
198.179
20
-53.8093
11
198.179
21
-53.8089
0
LINE
8
BLACK
6
CONTINUOUS
10
198.179
20
-53.8089
11
198.18
21
-53.8068
0
LINE
8
BLACK
6
CONTINUOUS
10
198.18
20
-53.8068
11
198.181
21
-53.8048
0
LINE
8
BLACK
6
CONTINUOUS
10
198.181
20
-53.8048
11
198.569
21
-53.1049
0
LINE
8
BLACK
6
CONTINUOUS
10
198.569
20
-53.1049
11
198.57
21
-53.1046
0
LINE
8
BLACK
6
CONTINUOUS
10
198.57
20
-53.1046
11
198.571
21
-53.1028
0
LINE
8
BLACK
6
CONTINUOUS
10
198.571
20
-53.1028
11
198.572
21
-53.1009
0
LINE
8
BLACK
6
CONTINUOUS
10
198.572
20
-53.1009
11
199.089
21
-52.4898
0
LINE
8
BLACK
6
CONTINUOUS
10
199.089
20
-52.4898
11
199.089
21
-52.4898
0
LINE
8
BLACK
6
CONTINUOUS
10
199.089
20
-52.4898
11
199.089
21
-52.4898
0
LINE
8
BLACK
6
CONTINUOUS
10
199.089
20
-52.4898
11
199.089
21
-52.4895
0
LINE
8
BLACK
6
CONTINUOUS
10
199.089
20
-52.4895
11
199.091
21
-52.488
0
LINE
8
BLACK
6
CONTINUOUS
10
199.091
20
-52.488
11
199.092
21
-52.4864
0
LINE
8
BLACK
6
CONTINUOUS
10
199.092
20
-52.4864
11
199.718
21
-51.9873
0
LINE
8
BLACK
6
CONTINUOUS
10
199.718
20
-51.9873
11
199.718
21
-51.987
0
LINE
8
BLACK
6
CONTINUOUS
10
199.718
20
-51.987
11
199.72
21
-51.9858
0
LINE
8
BLACK
6
CONTINUOUS
10
199.72
20
-51.9858
11
199.722
21
-51.9846
0
LINE
8
BLACK
6
CONTINUOUS
10
199.722
20
-51.9846
11
200.433
21
-51.6165
0
LINE
8
BLACK
6
CONTINUOUS
10
200.433
20
-51.6165
11
200.433
21
-51.6163
0
LINE
8
BLACK
6
CONTINUOUS
10
200.433
20
-51.6163
11
200.435
21
-51.6155
0
LINE
8
BLACK
6
CONTINUOUS
10
200.435
20
-51.6155
11
200.437
21
-51.6147
0
LINE
8
BLACK
6
CONTINUOUS
10
200.437
20
-51.6147
11
201.206
21
-51.3916
0
LINE
8
BLACK
6
CONTINUOUS
10
201.206
20
-51.3916
11
201.206
21
-51.3915
0
LINE
8
BLACK
6
CONTINUOUS
10
201.206
20
-51.3915
11
201.208
21
-51.3911
0
LINE
8
BLACK
6
CONTINUOUS
10
201.208
20
-51.3911
11
201.211
21
-51.3907
0
LINE
8
BLACK
6
CONTINUOUS
10
201.211
20
-51.3907
11
202.008
21
-51.3212
0
LINE
8
BLACK
6
CONTINUOUS
10
202.008
20
-51.3212
11
202.008
21
-51.3212
0
LINE
8
BLACK
6
CONTINUOUS
10
202.008
20
-51.3212
11
202.009
21
-51.3212
0
LINE
8
BLACK
6
CONTINUOUS
10
202.009
20
-51.3212
11
202.01
21
-51.3211
0
LINE
8
BLACK
6
CONTINUOUS
10
202.01
20
-51.3211
11
202.039
21
-51.3215
0
LINE
8
BLACK
6
CONTINUOUS
10
202.039
20
-51.3215
11
207.889
21
-51.3215
0
LINE
8
BLACK
6
CONTINUOUS
10
207.889
20
-51.3215
11
207.894
21
-51.3215
0
LINE
8
BLACK
6
CONTINUOUS
10
207.894
20
-51.3215
11
208.269
21
-51.2834
0
LINE
8
BLACK
6
CONTINUOUS
10
208.269
20
-51.2834
11
208.628
21
-51.1736
0
LINE
8
BLACK
6
CONTINUOUS
10
208.628
20
-51.1736
11
208.96
21
-50.996
0
LINE
8
BLACK
6
CONTINUOUS
10
208.96
20
-50.996
11
209.251
21
-50.7569
0
LINE
8
BLACK
6
CONTINUOUS
10
209.251
20
-50.7569
11
214.293
21
-45.5619
0
LINE
8
BLACK
6
CONTINUOUS
10
214.293
20
-45.5619
11
214.296
21
-45.5595
0
LINE
8
BLACK
6
CONTINUOUS
10
214.296
20
-45.5595
11
214.296
21
-45.5594
0
LINE
8
BLACK
6
CONTINUOUS
10
214.296
20
-45.5594
11
214.588
21
-45.3193
0
LINE
8
BLACK
6
CONTINUOUS
10
214.588
20
-45.3193
11
214.588
21
-45.319
0
LINE
8
BLACK
6
CONTINUOUS
10
214.588
20
-45.319
11
214.59
21
-45.3178
0
LINE
8
BLACK
6
CONTINUOUS
10
214.59
20
-45.3178
11
214.592
21
-45.3165
0
LINE
8
BLACK
6
CONTINUOUS
10
214.592
20
-45.3165
11
214.928
21
-45.1367
0
LINE
8
BLACK
6
CONTINUOUS
10
214.928
20
-45.1367
11
214.928
21
-45.1367
0
LINE
8
BLACK
6
CONTINUOUS
10
214.928
20
-45.1367
11
214.928
21
-45.1367
0
LINE
8
BLACK
6
CONTINUOUS
10
214.928
20
-45.1367
11
214.928
21
-45.1365
0
LINE
8
BLACK
6
CONTINUOUS
10
214.928
20
-45.1365
11
214.93
21
-45.1357
0
LINE
8
BLACK
6
CONTINUOUS
10
214.93
20
-45.1357
11
214.932
21
-45.1348
0
LINE
8
BLACK
6
CONTINUOUS
10
214.932
20
-45.1348
11
215.296
21
-45.0236
0
LINE
8
BLACK
6
CONTINUOUS
10
215.296
20
-45.0236
11
215.296
21
-45.0235
0
LINE
8
BLACK
6
CONTINUOUS
10
215.296
20
-45.0235
11
215.299
21
-45.023
0
LINE
8
BLACK
6
CONTINUOUS
10
215.299
20
-45.023
11
215.301
21
-45.0226
0
LINE
8
BLACK
6
CONTINUOUS
10
215.301
20
-45.0226
11
215.679
21
-44.9841
0
LINE
8
BLACK
6
CONTINUOUS
10
215.679
20
-44.9841
11
215.68
21
-44.9841
0
LINE
8
BLACK
6
CONTINUOUS
10
215.68
20
-44.9841
11
215.681
21
-44.9841
0
LINE
8
BLACK
6
CONTINUOUS
10
215.681
20
-44.9841
11
215.682
21
-44.984
0
LINE
8
BLACK
6
CONTINUOUS
10
215.682
20
-44.984
11
215.687
21
-44.984
0
LINE
8
BLACK
6
CONTINUOUS
10
215.687
20
-44.984
11
215.688
21
-44.984
0
LINE
8
BLACK
6
CONTINUOUS
10
215.688
20
-44.984
11
310.265
21
-44.984
0
LINE
8
BLACK
6
CONTINUOUS
10
310.265
20
-44.984
11
310.266
21
-44.9841
0
LINE
8
BLACK
6
CONTINUOUS
10
310.266
20
-44.9841
11
310.266
21
-44.9841
0
LINE
8
BLACK
6
CONTINUOUS
10
310.266
20
-44.9841
11
310.929
21
-45.0491
0
LINE
8
BLACK
6
CONTINUOUS
10
310.929
20
-45.0491
11
310.929
21
-45.0491
0
LINE
8
BLACK
6
CONTINUOUS
10
310.929
20
-45.0491
11
310.932
21
-45.0496
0
LINE
8
BLACK
6
CONTINUOUS
10
310.932
20
-45.0496
11
310.934
21
-45.0501
0
LINE
8
BLACK
6
CONTINUOUS
10
310.934
20
-45.0501
11
311.571
21
-45.2425
0
LINE
8
BLACK
6
CONTINUOUS
10
311.571
20
-45.2425
11
311.571
21
-45.2426
0
LINE
8
BLACK
6
CONTINUOUS
10
311.571
20
-45.2426
11
311.572
21
-45.2427
0
LINE
8
BLACK
6
CONTINUOUS
10
203.997
20
-116.209
11
204.269
21
-116.481
0
LINE
8
BLACK
6
CONTINUOUS
10
204.269
20
-116.481
11
204.949
21
-116.935
0
LINE
8
BLACK
6
CONTINUOUS
10
204.949
20
-116.935
11
205.704
21
-117.248
0
LINE
8
BLACK
6
CONTINUOUS
10
205.704
20
-117.248
11
206.505
21
-117.407
0
LINE
8
BLACK
6
CONTINUOUS
10
206.505
20
-117.407
11
207.322
21
-117.407
0
LINE
8
BLACK
6
CONTINUOUS
10
207.322
20
-117.407
11
208.124
21
-117.248
0
LINE
8
BLACK
6
CONTINUOUS
10
208.124
20
-117.248
11
208.879
21
-116.935
0
LINE
8
BLACK
6
CONTINUOUS
10
208.879
20
-116.935
11
209.558
21
-116.481
0
LINE
8
BLACK
6
CONTINUOUS
10
209.558
20
-116.481
11
209.831
21
-116.209
0
LINE
8
BLACK
6
CONTINUOUS
10
209.831
20
-116.209
11
203.997
21
-116.209
0
LINE
8
BLACK
6
CONTINUOUS
10
202.925
20
-114.469
11
203.237
21
-115.224
0
LINE
8
BLACK
6
CONTINUOUS
10
203.237
20
-115.224
11
203.691
21
-115.903
0
LINE
8
BLACK
6
CONTINUOUS
10
203.691
20
-115.903
11
203.947
21
-116.159
0
LINE
8
BLACK
6
CONTINUOUS
10
203.947
20
-116.159
11
209.881
21
-116.159
0
LINE
8
BLACK
6
CONTINUOUS
10
209.881
20
-116.159
11
210.136
21
-115.903
0
LINE
8
BLACK
6
CONTINUOUS
10
210.136
20
-115.903
11
210.59
21
-115.224
0
LINE
8
BLACK
6
CONTINUOUS
10
210.59
20
-115.224
11
210.903
21
-114.469
0
LINE
8
BLACK
6
CONTINUOUS
10
210.903
20
-114.469
11
211.062
21
-113.667
0
LINE
8
BLACK
6
CONTINUOUS
10
211.062
20
-113.667
11
211.062
21
-112.85
0
LINE
8
BLACK
6
CONTINUOUS
10
211.062
20
-112.85
11
210.903
21
-112.049
0
LINE
8
BLACK
6
CONTINUOUS
10
210.903
20
-112.049
11
210.59
21
-111.294
0
LINE
8
BLACK
6
CONTINUOUS
10
210.59
20
-111.294
11
210.136
21
-110.614
0
LINE
8
BLACK
6
CONTINUOUS
10
210.136
20
-110.614
11
209.558
21
-110.036
0
LINE
8
BLACK
6
CONTINUOUS
10
209.558
20
-110.036
11
208.879
21
-109.582
0
LINE
8
BLACK
6
CONTINUOUS
10
208.879
20
-109.582
11
208.124
21
-109.27
0
LINE
8
BLACK
6
CONTINUOUS
10
208.124
20
-109.27
11
207.322
21
-109.11
0
LINE
8
BLACK
6
CONTINUOUS
10
207.322
20
-109.11
11
206.505
21
-109.11
0
LINE
8
BLACK
6
CONTINUOUS
10
206.505
20
-109.11
11
205.704
21
-109.27
0
LINE
8
BLACK
6
CONTINUOUS
10
205.704
20
-109.27
11
204.949
21
-109.582
0
LINE
8
BLACK
6
CONTINUOUS
10
204.949
20
-109.582
11
204.269
21
-110.036
0
LINE
8
BLACK
6
CONTINUOUS
10
204.269
20
-110.036
11
203.691
21
-110.614
0
LINE
8
BLACK
6
CONTINUOUS
10
203.691
20
-110.614
11
203.237
21
-111.294
0
LINE
8
BLACK
6
CONTINUOUS
10
203.237
20
-111.294
11
202.925
21
-112.049
0
LINE
8
BLACK
6
CONTINUOUS
10
202.925
20
-112.049
11
202.765
21
-112.85
0
LINE
8
BLACK
6
CONTINUOUS
10
202.765
20
-112.85
11
202.765
21
-113.667
0
LINE
8
BLACK
6
CONTINUOUS
10
202.765
20
-113.667
11
202.925
21
-114.469
0
LINE
8
BLACK
6
CONTINUOUS
10
202.037
20
-51.3715
11
202.011
21
-51.3711
0
LINE
8
BLACK
6
CONTINUOUS
10
202.011
20
-51.3711
11
201.217
21
-51.4403
0
LINE
8
BLACK
6
CONTINUOUS
10
201.217
20
-51.4403
11
200.454
21
-51.662
0
LINE
8
BLACK
6
CONTINUOUS
10
200.454
20
-51.662
11
199.747
21
-52.0279
0
LINE
8
BLACK
6
CONTINUOUS
10
199.747
20
-52.0279
11
199.126
21
-52.5239
0
LINE
8
BLACK
6
CONTINUOUS
10
199.126
20
-52.5239
11
198.612
21
-53.1313
0
LINE
8
BLACK
6
CONTINUOUS
10
198.612
20
-53.1313
11
198.226
21
-53.8269
0
LINE
8
BLACK
6
CONTINUOUS
10
198.226
20
-53.8269
11
197.983
21
-54.5842
0
LINE
8
BLACK
6
CONTINUOUS
10
197.983
20
-54.5842
11
197.896
21
-55.3336
0
LINE
8
BLACK
6
CONTINUOUS
10
197.896
20
-55.3336
11
197.902
21
-55.3383
0
LINE
8
BLACK
6
CONTINUOUS
10
197.902
20
-55.3383
11
197.908
21
-55.3459
0
LINE
8
BLACK
6
CONTINUOUS
10
197.908
20
-55.3459
11
197.912
21
-55.3546
0
LINE
8
BLACK
6
CONTINUOUS
10
197.912
20
-55.3546
11
197.915
21
-55.364
0
LINE
8
BLACK
6
CONTINUOUS
10
197.915
20
-55.364
11
197.916
21
-55.3714
0
LINE
8
BLACK
6
CONTINUOUS
10
197.916
20
-55.3714
11
197.916
21
-112.086
0
LINE
8
BLACK
6
CONTINUOUS
10
197.916
20
-112.086
11
197.915
21
-112.094
0
LINE
8
BLACK
6
CONTINUOUS
10
197.915
20
-112.094
11
197.912
21
-112.103
0
LINE
8
BLACK
6
CONTINUOUS
10
197.912
20
-112.103
11
197.908
21
-112.112
0
LINE
8
BLACK
6
CONTINUOUS
10
197.908
20
-112.112
11
197.902
21
-112.12
0
LINE
8
BLACK
6
CONTINUOUS
10
197.902
20
-112.12
11
197.894
21
-112.126
0
LINE
8
BLACK
6
CONTINUOUS
10
197.894
20
-112.126
11
197.893
21
-112.126
0
LINE
8
BLACK
6
CONTINUOUS
10
197.893
20
-112.126
11
197.974
21
-112.903
0
LINE
8
BLACK
6
CONTINUOUS
10
197.974
20
-112.903
11
198.21
21
-113.663
0
LINE
8
BLACK
6
CONTINUOUS
10
198.21
20
-113.663
11
198.588
21
-114.363
0
LINE
8
BLACK
6
CONTINUOUS
10
198.588
20
-114.363
11
199.095
21
-114.975
0
LINE
8
BLACK
6
CONTINUOUS
10
199.095
20
-114.975
11
199.711
21
-115.478
0
LINE
8
BLACK
6
CONTINUOUS
10
199.711
20
-115.478
11
200.413
21
-115.851
0
LINE
8
BLACK
6
CONTINUOUS
10
200.413
20
-115.851
11
201.175
21
-116.081
0
LINE
8
BLACK
6
CONTINUOUS
10
201.175
20
-116.081
11
201.967
21
-116.159
0
LINE
8
BLACK
6
CONTINUOUS
10
201.967
20
-116.159
11
203.848
21
-116.159
0
LINE
8
BLACK
6
CONTINUOUS
10
203.848
20
-116.159
11
203.637
21
-115.948
0
LINE
8
BLACK
6
CONTINUOUS
10
203.637
20
-115.948
11
203.176
21
-115.257
0
LINE
8
BLACK
6
CONTINUOUS
10
203.176
20
-115.257
11
202.858
21
-114.489
0
LINE
8
BLACK
6
CONTINUOUS
10
202.858
20
-114.489
11
202.696
21
-113.674
0
LINE
8
BLACK
6
CONTINUOUS
10
202.696
20
-113.674
11
202.696
21
-112.843
0
LINE
8
BLACK
6
CONTINUOUS
10
202.696
20
-112.843
11
202.858
21
-112.028
0
LINE
8
BLACK
6
CONTINUOUS
10
202.858
20
-112.028
11
203.176
21
-111.261
0
LINE
8
BLACK
6
CONTINUOUS
10
203.176
20
-111.261
11
203.637
21
-110.57
0
LINE
8
BLACK
6
CONTINUOUS
10
203.637
20
-110.57
11
204.225
21
-109.982
0
LINE
8
BLACK
6
CONTINUOUS
10
204.225
20
-109.982
11
204.916
21
-109.521
0
LINE
8
BLACK
6
CONTINUOUS
10
204.916
20
-109.521
11
205.683
21
-109.203
0
LINE
8
BLACK
6
CONTINUOUS
10
205.683
20
-109.203
11
206.498
21
-109.041
0
LINE
8
BLACK
6
CONTINUOUS
10
206.498
20
-109.041
11
207.329
21
-109.041
0
LINE
8
BLACK
6
CONTINUOUS
10
207.329
20
-109.041
11
208.144
21
-109.203
0
LINE
8
BLACK
6
CONTINUOUS
10
208.144
20
-109.203
11
208.912
21
-109.521
0
LINE
8
BLACK
6
CONTINUOUS
10
208.912
20
-109.521
11
209.603
21
-109.982
0
LINE
8
BLACK
6
CONTINUOUS
10
209.603
20
-109.982
11
210.19
21
-110.57
0
LINE
8
BLACK
6
CONTINUOUS
10
210.19
20
-110.57
11
210.652
21
-111.261
0
LINE
8
BLACK
6
CONTINUOUS
10
210.652
20
-111.261
11
210.97
21
-112.028
0
LINE
8
BLACK
6
CONTINUOUS
10
210.97
20
-112.028
11
211.132
21
-112.843
0
LINE
8
BLACK
6
CONTINUOUS
10
211.132
20
-112.843
11
211.132
21
-113.674
0
LINE
8
BLACK
6
CONTINUOUS
10
211.132
20
-113.674
11
210.97
21
-114.489
0
LINE
8
BLACK
6
CONTINUOUS
10
210.97
20
-114.489
11
210.652
21
-115.257
0
LINE
8
BLACK
6
CONTINUOUS
10
210.652
20
-115.257
11
210.19
21
-115.948
0
LINE
8
BLACK
6
CONTINUOUS
10
210.19
20
-115.948
11
209.979
21
-116.159
0
LINE
8
BLACK
6
CONTINUOUS
10
209.979
20
-116.159
11
309.576
21
-116.159
0
LINE
8
BLACK
6
CONTINUOUS
10
309.576
20
-116.159
11
309.603
21
-116.159
0
LINE
8
BLACK
6
CONTINUOUS
10
309.603
20
-116.159
11
310.396
21
-116.076
0
LINE
8
BLACK
6
CONTINUOUS
10
310.396
20
-116.076
11
311.155
21
-115.84
0
LINE
8
BLACK
6
CONTINUOUS
10
311.155
20
-115.84
11
311.855
21
-115.462
0
LINE
8
BLACK
6
CONTINUOUS
10
311.855
20
-115.462
11
312.468
21
-114.955
0
LINE
8
BLACK
6
CONTINUOUS
10
312.468
20
-114.955
11
312.97
21
-114.339
0
LINE
8
BLACK
6
CONTINUOUS
10
312.97
20
-114.339
11
313.344
21
-113.637
0
LINE
8
BLACK
6
CONTINUOUS
10
313.344
20
-113.637
11
313.574
21
-112.875
0
LINE
8
BLACK
6
CONTINUOUS
10
313.574
20
-112.875
11
313.651
21
-112.083
0
LINE
8
BLACK
6
CONTINUOUS
10
313.651
20
-112.083
11
313.651
21
-48.4216
0
LINE
8
BLACK
6
CONTINUOUS
10
313.651
20
-48.4216
11
313.651
21
-48.399
0
LINE
8
BLACK
6
CONTINUOUS
10
313.651
20
-48.399
11
313.582
21
-47.7404
0
LINE
8
BLACK
6
CONTINUOUS
10
313.582
20
-47.7404
11
313.386
21
-47.1088
0
LINE
8
BLACK
6
CONTINUOUS
10
313.386
20
-47.1088
11
313.072
21
-46.5273
0
LINE
8
BLACK
6
CONTINUOUS
10
313.072
20
-46.5273
11
312.651
21
-46.0179
0
LINE
8
BLACK
6
CONTINUOUS
10
312.651
20
-46.0179
11
312.138
21
-45.6001
0
LINE
8
BLACK
6
CONTINUOUS
10
312.138
20
-45.6001
11
311.555
21
-45.2897
0
LINE
8
BLACK
6
CONTINUOUS
10
311.555
20
-45.2897
11
310.922
21
-45.0986
0
LINE
8
BLACK
6
CONTINUOUS
10
310.922
20
-45.0986
11
310.263
21
-45.034
0
LINE
8
BLACK
6
CONTINUOUS
10
310.263
20
-45.034
11
215.689
21
-45.034
0
LINE
8
BLACK
6
CONTINUOUS
10
215.689
20
-45.034
11
215.683
21
-45.034
0
LINE
8
BLACK
6
CONTINUOUS
10
215.683
20
-45.034
11
215.308
21
-45.0721
0
LINE
8
BLACK
6
CONTINUOUS
10
215.308
20
-45.0721
11
214.949
21
-45.1819
0
LINE
8
BLACK
6
CONTINUOUS
10
214.949
20
-45.1819
11
214.618
21
-45.3595
0
LINE
8
BLACK
6
CONTINUOUS
10
214.618
20
-45.3595
11
214.327
21
-45.5986
0
LINE
8
BLACK
6
CONTINUOUS
10
214.327
20
-45.5986
11
209.285
21
-50.7936
0
LINE
8
BLACK
6
CONTINUOUS
10
209.285
20
-50.7936
11
209.282
21
-50.796
0
LINE
8
BLACK
6
CONTINUOUS
10
209.282
20
-50.796
11
209.282
21
-50.7961
0
LINE
8
BLACK
6
CONTINUOUS
10
209.282
20
-50.7961
11
208.989
21
-51.0362
0
LINE
8
BLACK
6
CONTINUOUS
10
208.989
20
-51.0362
11
208.989
21
-51.0365
0
LINE
8
BLACK
6
CONTINUOUS
10
208.989
20
-51.0365
11
208.987
21
-51.0377
0
LINE
8
BLACK
6
CONTINUOUS
10
208.987
20
-51.0377
11
208.985
21
-51.0389
0
LINE
8
BLACK
6
CONTINUOUS
10
208.985
20
-51.0389
11
208.65
21
-51.2188
0
LINE
8
BLACK
6
CONTINUOUS
10
208.65
20
-51.2188
11
208.65
21
-51.219
0
LINE
8
BLACK
6
CONTINUOUS
10
208.65
20
-51.219
11
208.647
21
-51.2198
0
LINE
8
BLACK
6
CONTINUOUS
10
208.647
20
-51.2198
11
208.645
21
-51.2207
0
LINE
8
BLACK
6
CONTINUOUS
10
208.645
20
-51.2207
11
208.281
21
-51.3319
0
LINE
8
BLACK
6
CONTINUOUS
10
208.281
20
-51.3319
11
208.281
21
-51.332
0
LINE
8
BLACK
6
CONTINUOUS
10
208.281
20
-51.332
11
208.279
21
-51.3325
0
LINE
8
BLACK
6
CONTINUOUS
10
208.279
20
-51.3325
11
208.277
21
-51.3329
0
LINE
8
BLACK
6
CONTINUOUS
10
208.277
20
-51.3329
11
207.898
21
-51.3714
0
LINE
8
BLACK
6
CONTINUOUS
10
207.898
20
-51.3714
11
207.898
21
-51.3714
0
LINE
8
BLACK
6
CONTINUOUS
10
207.898
20
-51.3714
11
207.897
21
-51.3714
0
LINE
8
BLACK
6
CONTINUOUS
10
207.897
20
-51.3714
11
207.896
21
-51.3715
0
LINE
8
BLACK
6
CONTINUOUS
10
207.896
20
-51.3715
11
207.89
21
-51.3715
0
LINE
8
BLACK
6
CONTINUOUS
10
207.89
20
-51.3715
11
207.89
21
-51.3715
0
LINE
8
BLACK
6
CONTINUOUS
10
207.89
20
-51.3715
11
202.038
21
-51.3715
0
LINE
8
BLACK
6
CONTINUOUS
10
202.038
20
-51.3715
11
202.037
21
-51.3715
  0
ENDSEC
  0
EOF
