  0
SECTION
  2
HEADER
  9
$ANGBASE
  50
0.0
  9
$ANGDIR
  70
1
  9
$MEASUREMENT
  70
1
  0
ENDSEC
  0
SECTION
  2
TABLES
  0
TABLE
  2
LTYPE
  70
4
  0
LTYPE
  5
40F
  2
CONTINUOUS
  70
0
  3
Solid line
  72
65
  73
0
  40
0.0
  0
LTYPE
  5
410
  2
DASHDOT
 70
0
  3
Dash Dot ____ _ ____ _
 72
65
 73
4
 40
2.0
 49
1.25
 49
-0.25
 49
0.25
 49
-0.25
  0
LTYPE
  5
411
  2
DASHED
 70
0
  3
Dashed __ __ __ __ __
 72
65
 73
2
 40
0.75
 49
0.5
 49
-0.25
  0
LTYPE
  5
43B
  2
DOTTED
 70
0
  3
Dotted .  .  .  .
 72
65
 73
2
 40
0.2
 49
0.0
 49
-0.2
  0
ENDTAB
  0
TABLE
  2
STYLE
  70
4
  0
STYLE
  2
KICAD
  70
0
  40
0
  41
1
  42
1
  50
0
  71
0
  3
isocp.shx
  0
STYLE
  2
KICADB
  70
0
  40
0
  41
1
  42
1
  50
0
  71
0
  3
isocp.shx
  0
STYLE
  2
KICADI
  70
0
  40
0
  41
1
  42
1
  50
15
  71
0
  3
isocp.shx
  0
STYLE
  2
KICADBI
  70
0
  40
0
  41
1
  42
1
  50
15
  71
0
  3
isocp.shx
  0
ENDTAB
  0
TABLE
  2
LAYER
  70
1
  0
LAYER
  2
BLACK
  70
0
  62
7
  6
CONTINUOUS
  0
ENDTAB
  0
ENDSEC
  0
SECTION
  2
ENTITIES
0
LINE
8
BLACK
6
CONTINUOUS
10
327.859
20
-43.0927
11
327.861
21
-43.0935
0
LINE
8
BLACK
6
CONTINUOUS
10
327.861
20
-43.0935
11
327.863
21
-43.0944
0
LINE
8
BLACK
6
CONTINUOUS
10
327.863
20
-43.0944
11
328.451
21
-43.4071
0
LINE
8
BLACK
6
CONTINUOUS
10
328.451
20
-43.4071
11
328.452
21
-43.4072
0
LINE
8
BLACK
6
CONTINUOUS
10
328.452
20
-43.4072
11
328.454
21
-43.4085
0
LINE
8
BLACK
6
CONTINUOUS
10
328.454
20
-43.4085
11
328.455
21
-43.4098
0
LINE
8
BLACK
6
CONTINUOUS
10
328.455
20
-43.4098
11
328.972
21
-43.8307
0
LINE
8
BLACK
6
CONTINUOUS
10
328.972
20
-43.8307
11
328.972
21
-43.8309
0
LINE
8
BLACK
6
CONTINUOUS
10
328.972
20
-43.8309
11
328.973
21
-43.8326
0
LINE
8
BLACK
6
CONTINUOUS
10
328.973
20
-43.8326
11
328.975
21
-43.8341
0
LINE
8
BLACK
6
CONTINUOUS
10
328.975
20
-43.8341
11
329.4
21
-44.3473
0
LINE
8
BLACK
6
CONTINUOUS
10
329.4
20
-44.3473
11
329.4
21
-44.3476
0
LINE
8
BLACK
6
CONTINUOUS
10
329.4
20
-44.3476
11
329.401
21
-44.3495
0
LINE
8
BLACK
6
CONTINUOUS
10
329.401
20
-44.3495
11
329.402
21
-44.3514
0
LINE
8
BLACK
6
CONTINUOUS
10
329.402
20
-44.3514
11
329.719
21
-44.9372
0
LINE
8
BLACK
6
CONTINUOUS
10
329.719
20
-44.9372
11
329.719
21
-44.9375
0
LINE
8
BLACK
6
CONTINUOUS
10
329.719
20
-44.9375
11
329.72
21
-44.9396
0
LINE
8
BLACK
6
CONTINUOUS
10
329.72
20
-44.9396
11
329.721
21
-44.9417
0
LINE
8
BLACK
6
CONTINUOUS
10
329.721
20
-44.9417
11
329.918
21
-45.5779
0
LINE
8
BLACK
6
CONTINUOUS
10
329.918
20
-45.5779
11
329.918
21
-45.5783
0
LINE
8
BLACK
6
CONTINUOUS
10
329.918
20
-45.5783
11
329.918
21
-45.5805
0
LINE
8
BLACK
6
CONTINUOUS
10
329.918
20
-45.5805
11
329.919
21
-45.5827
0
LINE
8
BLACK
6
CONTINUOUS
10
329.919
20
-45.5827
11
329.987
21
-46.227
0
LINE
8
BLACK
6
CONTINUOUS
10
329.987
20
-46.227
11
329.992
21
-46.2297
0
LINE
8
BLACK
6
CONTINUOUS
10
329.992
20
-46.2297
11
329.999
21
-46.236
0
LINE
8
BLACK
6
CONTINUOUS
10
329.999
20
-46.236
11
330.006
21
-46.2436
0
LINE
8
BLACK
6
CONTINUOUS
10
330.006
20
-46.2436
11
330.01
21
-46.2523
0
LINE
8
BLACK
6
CONTINUOUS
10
330.01
20
-46.2523
11
330.013
21
-46.2617
0
LINE
8
BLACK
6
CONTINUOUS
10
330.013
20
-46.2617
11
330.014
21
-46.2715
0
LINE
8
BLACK
6
CONTINUOUS
10
330.014
20
-46.2715
11
330.013
21
-46.2813
0
LINE
8
BLACK
6
CONTINUOUS
10
330.013
20
-46.2813
11
330.01
21
-46.2907
0
LINE
8
BLACK
6
CONTINUOUS
10
330.01
20
-46.2907
11
330.006
21
-46.2994
0
LINE
8
BLACK
6
CONTINUOUS
10
330.006
20
-46.2994
11
329.999
21
-46.307
0
LINE
8
BLACK
6
CONTINUOUS
10
329.999
20
-46.307
11
329.992
21
-46.3133
0
LINE
8
BLACK
6
CONTINUOUS
10
329.992
20
-46.3133
11
329.983
21
-46.3179
0
LINE
8
BLACK
6
CONTINUOUS
10
329.983
20
-46.3179
11
329.974
21
-46.3208
0
LINE
8
BLACK
6
CONTINUOUS
10
329.974
20
-46.3208
11
329.966
21
-46.3215
0
LINE
8
BLACK
6
CONTINUOUS
10
329.966
20
-46.3215
11
320.466
21
-46.3215
0
LINE
8
BLACK
6
CONTINUOUS
10
320.466
20
-46.3215
11
320.464
21
-46.3217
0
LINE
8
BLACK
6
CONTINUOUS
10
320.464
20
-46.3217
11
320.461
21
-46.3215
0
LINE
8
BLACK
6
CONTINUOUS
10
320.461
20
-46.3215
11
320.461
21
-46.3215
0
LINE
8
BLACK
6
CONTINUOUS
10
320.461
20
-46.3215
11
320.454
21
-46.3208
0
LINE
8
BLACK
6
CONTINUOUS
10
320.454
20
-46.3208
11
320.445
21
-46.3179
0
LINE
8
BLACK
6
CONTINUOUS
10
320.445
20
-46.3179
11
320.436
21
-46.3133
0
LINE
8
BLACK
6
CONTINUOUS
10
320.436
20
-46.3133
11
320.428
21
-46.307
0
LINE
8
BLACK
6
CONTINUOUS
10
320.428
20
-46.307
11
320.422
21
-46.2994
0
LINE
8
BLACK
6
CONTINUOUS
10
320.422
20
-46.2994
11
320.417
21
-46.2907
0
LINE
8
BLACK
6
CONTINUOUS
10
320.417
20
-46.2907
11
320.414
21
-46.2813
0
LINE
8
BLACK
6
CONTINUOUS
10
320.414
20
-46.2813
11
320.413
21
-46.2715
0
LINE
8
BLACK
6
CONTINUOUS
10
320.413
20
-46.2715
11
320.414
21
-46.269
0
LINE
8
BLACK
6
CONTINUOUS
10
320.414
20
-46.269
11
320.414
21
-45.8217
0
LINE
8
BLACK
6
CONTINUOUS
10
320.414
20
-45.8217
11
320.414
21
-45.8161
0
LINE
8
BLACK
6
CONTINUOUS
10
320.414
20
-45.8161
11
320.401
21
-45.7072
0
LINE
8
BLACK
6
CONTINUOUS
10
320.401
20
-45.7072
11
320.369
21
-45.6049
0
LINE
8
BLACK
6
CONTINUOUS
10
320.369
20
-45.6049
11
320.317
21
-45.5109
0
LINE
8
BLACK
6
CONTINUOUS
10
320.317
20
-45.5109
11
320.248
21
-45.4287
0
LINE
8
BLACK
6
CONTINUOUS
10
320.248
20
-45.4287
11
320.165
21
-45.3615
0
LINE
8
BLACK
6
CONTINUOUS
10
320.165
20
-45.3615
11
320.07
21
-45.3118
0
LINE
8
BLACK
6
CONTINUOUS
10
320.07
20
-45.3118
11
319.967
21
-45.2815
0
LINE
8
BLACK
6
CONTINUOUS
10
319.967
20
-45.2815
11
319.86
21
-45.2717
0
LINE
8
BLACK
6
CONTINUOUS
10
319.86
20
-45.2717
11
319.753
21
-45.283
0
LINE
8
BLACK
6
CONTINUOUS
10
319.753
20
-45.283
11
319.651
21
-45.3147
0
LINE
8
BLACK
6
CONTINUOUS
10
319.651
20
-45.3147
11
319.556
21
-45.3657
0
LINE
8
BLACK
6
CONTINUOUS
10
319.556
20
-45.3657
11
319.474
21
-45.4341
0
LINE
8
BLACK
6
CONTINUOUS
10
319.474
20
-45.4341
11
319.406
21
-45.5173
0
LINE
8
BLACK
6
CONTINUOUS
10
319.406
20
-45.5173
11
319.355
21
-45.612
0
LINE
8
BLACK
6
CONTINUOUS
10
319.355
20
-45.612
11
319.324
21
-45.7147
0
LINE
8
BLACK
6
CONTINUOUS
10
319.324
20
-45.7147
11
319.314
21
-45.8239
0
LINE
8
BLACK
6
CONTINUOUS
10
319.314
20
-45.8239
11
319.314
21
-46.269
0
LINE
8
BLACK
6
CONTINUOUS
10
319.314
20
-46.269
11
319.314
21
-46.2715
0
LINE
8
BLACK
6
CONTINUOUS
10
319.314
20
-46.2715
11
319.314
21
-46.2739
0
LINE
8
BLACK
6
CONTINUOUS
10
319.314
20
-46.2739
11
319.314
21
-46.2739
0
LINE
8
BLACK
6
CONTINUOUS
10
319.314
20
-46.2739
11
319.313
21
-46.2813
0
LINE
8
BLACK
6
CONTINUOUS
10
319.313
20
-46.2813
11
319.31
21
-46.2907
0
LINE
8
BLACK
6
CONTINUOUS
10
319.31
20
-46.2907
11
319.306
21
-46.2994
0
LINE
8
BLACK
6
CONTINUOUS
10
319.306
20
-46.2994
11
319.299
21
-46.307
0
LINE
8
BLACK
6
CONTINUOUS
10
319.299
20
-46.307
11
319.292
21
-46.3133
0
LINE
8
BLACK
6
CONTINUOUS
10
319.292
20
-46.3133
11
319.283
21
-46.3179
0
LINE
8
BLACK
6
CONTINUOUS
10
319.283
20
-46.3179
11
319.274
21
-46.3208
0
LINE
8
BLACK
6
CONTINUOUS
10
319.274
20
-46.3208
11
319.264
21
-46.3217
0
LINE
8
BLACK
6
CONTINUOUS
10
319.264
20
-46.3217
11
319.261
21
-46.3215
0
LINE
8
BLACK
6
CONTINUOUS
10
319.261
20
-46.3215
11
316.861
21
-46.3215
0
LINE
8
BLACK
6
CONTINUOUS
10
316.861
20
-46.3215
11
316.854
21
-46.3208
0
LINE
8
BLACK
6
CONTINUOUS
10
316.854
20
-46.3208
11
316.845
21
-46.3179
0
LINE
8
BLACK
6
CONTINUOUS
10
316.845
20
-46.3179
11
316.836
21
-46.3133
0
LINE
8
BLACK
6
CONTINUOUS
10
316.836
20
-46.3133
11
316.828
21
-46.307
0
LINE
8
BLACK
6
CONTINUOUS
10
316.828
20
-46.307
11
316.822
21
-46.2994
0
LINE
8
BLACK
6
CONTINUOUS
10
316.822
20
-46.2994
11
316.817
21
-46.2907
0
LINE
8
BLACK
6
CONTINUOUS
10
316.817
20
-46.2907
11
316.814
21
-46.2813
0
LINE
8
BLACK
6
CONTINUOUS
10
316.814
20
-46.2813
11
316.813
21
-46.2715
0
LINE
8
BLACK
6
CONTINUOUS
10
316.813
20
-46.2715
11
316.814
21
-46.2692
0
LINE
8
BLACK
6
CONTINUOUS
10
316.814
20
-46.2692
11
316.814
21
-46.264
0
LINE
8
BLACK
6
CONTINUOUS
10
316.814
20
-46.264
11
316.798
21
-46.126
0
LINE
8
BLACK
6
CONTINUOUS
10
316.798
20
-46.126
11
316.757
21
-45.9958
0
LINE
8
BLACK
6
CONTINUOUS
10
316.757
20
-45.9958
11
316.691
21
-45.8762
0
LINE
8
BLACK
6
CONTINUOUS
10
316.691
20
-45.8762
11
316.603
21
-45.7715
0
LINE
8
BLACK
6
CONTINUOUS
10
316.603
20
-45.7715
11
316.497
21
-45.686
0
LINE
8
BLACK
6
CONTINUOUS
10
316.497
20
-45.686
11
316.376
21
-45.6227
0
LINE
8
BLACK
6
CONTINUOUS
10
316.376
20
-45.6227
11
316.245
21
-45.5841
0
LINE
8
BLACK
6
CONTINUOUS
10
316.245
20
-45.5841
11
316.109
21
-45.5718
0
LINE
8
BLACK
6
CONTINUOUS
10
316.109
20
-45.5718
11
315.973
21
-45.586
0
LINE
8
BLACK
6
CONTINUOUS
10
315.973
20
-45.586
11
315.843
21
-45.6264
0
LINE
8
BLACK
6
CONTINUOUS
10
315.843
20
-45.6264
11
315.722
21
-45.6914
0
LINE
8
BLACK
6
CONTINUOUS
10
315.722
20
-45.6914
11
315.617
21
-45.7784
0
LINE
8
BLACK
6
CONTINUOUS
10
315.617
20
-45.7784
11
315.531
21
-45.8843
0
LINE
8
BLACK
6
CONTINUOUS
10
315.531
20
-45.8843
11
315.467
21
-46.0048
0
LINE
8
BLACK
6
CONTINUOUS
10
315.467
20
-46.0048
11
315.427
21
-46.1356
0
LINE
8
BLACK
6
CONTINUOUS
10
315.427
20
-46.1356
11
315.414
21
-46.2739
0
LINE
8
BLACK
6
CONTINUOUS
10
315.414
20
-46.2739
11
315.414
21
-52.5713
0
LINE
8
BLACK
6
CONTINUOUS
10
315.414
20
-52.5713
11
315.414
21
-52.579
0
LINE
8
BLACK
6
CONTINUOUS
10
315.414
20
-52.579
11
315.429
21
-52.717
0
LINE
8
BLACK
6
CONTINUOUS
10
315.429
20
-52.717
11
315.471
21
-52.8472
0
LINE
8
BLACK
6
CONTINUOUS
10
315.471
20
-52.8472
11
315.536
21
-52.9668
0
LINE
8
BLACK
6
CONTINUOUS
10
315.536
20
-52.9668
11
315.624
21
-53.0715
0
LINE
8
BLACK
6
CONTINUOUS
10
315.624
20
-53.0715
11
315.731
21
-53.157
0
LINE
8
BLACK
6
CONTINUOUS
10
315.731
20
-53.157
11
315.852
21
-53.2203
0
LINE
8
BLACK
6
CONTINUOUS
10
315.852
20
-53.2203
11
315.983
21
-53.2589
0
LINE
8
BLACK
6
CONTINUOUS
10
315.983
20
-53.2589
11
316.119
21
-53.2712
0
LINE
8
BLACK
6
CONTINUOUS
10
316.119
20
-53.2712
11
316.254
21
-53.257
0
LINE
8
BLACK
6
CONTINUOUS
10
316.254
20
-53.257
11
316.385
21
-53.2166
0
LINE
8
BLACK
6
CONTINUOUS
10
316.385
20
-53.2166
11
316.505
21
-53.1516
0
LINE
8
BLACK
6
CONTINUOUS
10
316.505
20
-53.1516
11
316.61
21
-53.0646
0
LINE
8
BLACK
6
CONTINUOUS
10
316.61
20
-53.0646
11
316.697
21
-52.9587
0
LINE
8
BLACK
6
CONTINUOUS
10
316.697
20
-52.9587
11
316.761
21
-52.8382
0
LINE
8
BLACK
6
CONTINUOUS
10
316.761
20
-52.8382
11
316.8
21
-52.7074
0
LINE
8
BLACK
6
CONTINUOUS
10
316.8
20
-52.7074
11
316.813
21
-52.5715
0
LINE
8
BLACK
6
CONTINUOUS
10
316.813
20
-52.5715
11
316.813
21
-52.5715
0
LINE
8
BLACK
6
CONTINUOUS
10
316.813
20
-52.5715
11
316.814
21
-52.5702
0
LINE
8
BLACK
6
CONTINUOUS
10
316.814
20
-52.5702
11
316.814
21
-52.5666
0
LINE
8
BLACK
6
CONTINUOUS
10
316.814
20
-52.5666
11
316.814
21
-52.5664
0
LINE
8
BLACK
6
CONTINUOUS
10
316.814
20
-52.5664
11
316.814
21
-52.5617
0
LINE
8
BLACK
6
CONTINUOUS
10
316.814
20
-52.5617
11
316.817
21
-52.5523
0
LINE
8
BLACK
6
CONTINUOUS
10
316.817
20
-52.5523
11
316.822
21
-52.5436
0
LINE
8
BLACK
6
CONTINUOUS
10
316.822
20
-52.5436
11
316.828
21
-52.536
0
LINE
8
BLACK
6
CONTINUOUS
10
316.828
20
-52.536
11
316.836
21
-52.5297
0
LINE
8
BLACK
6
CONTINUOUS
10
316.836
20
-52.5297
11
316.845
21
-52.5251
0
LINE
8
BLACK
6
CONTINUOUS
10
316.845
20
-52.5251
11
316.854
21
-52.5222
0
LINE
8
BLACK
6
CONTINUOUS
10
316.854
20
-52.5222
11
316.861
21
-52.5215
0
LINE
8
BLACK
6
CONTINUOUS
10
316.861
20
-52.5215
11
319.261
21
-52.5215
0
LINE
8
BLACK
6
CONTINUOUS
10
319.261
20
-52.5215
11
319.264
21
-52.5213
0
LINE
8
BLACK
6
CONTINUOUS
10
319.264
20
-52.5213
11
319.274
21
-52.5222
0
LINE
8
BLACK
6
CONTINUOUS
10
319.274
20
-52.5222
11
319.283
21
-52.5251
0
LINE
8
BLACK
6
CONTINUOUS
10
319.283
20
-52.5251
11
319.292
21
-52.5297
0
LINE
8
BLACK
6
CONTINUOUS
10
319.292
20
-52.5297
11
319.299
21
-52.536
0
LINE
8
BLACK
6
CONTINUOUS
10
319.299
20
-52.536
11
319.306
21
-52.5436
0
LINE
8
BLACK
6
CONTINUOUS
10
319.306
20
-52.5436
11
319.31
21
-52.5523
0
LINE
8
BLACK
6
CONTINUOUS
10
319.31
20
-52.5523
11
319.313
21
-52.5617
0
LINE
8
BLACK
6
CONTINUOUS
10
319.313
20
-52.5617
11
319.314
21
-52.569
0
LINE
8
BLACK
6
CONTINUOUS
10
319.314
20
-52.569
11
319.314
21
-52.5691
0
LINE
8
BLACK
6
CONTINUOUS
10
319.314
20
-52.5691
11
319.314
21
-52.5715
0
LINE
8
BLACK
6
CONTINUOUS
10
319.314
20
-52.5715
11
319.314
21
-52.5739
0
LINE
8
BLACK
6
CONTINUOUS
10
319.314
20
-52.5739
11
319.314
21
-53.0214
0
LINE
8
BLACK
6
CONTINUOUS
10
319.314
20
-53.0214
11
319.314
21
-53.0269
0
LINE
8
BLACK
6
CONTINUOUS
10
319.314
20
-53.0269
11
319.326
21
-53.1358
0
LINE
8
BLACK
6
CONTINUOUS
10
319.326
20
-53.1358
11
319.358
21
-53.2381
0
LINE
8
BLACK
6
CONTINUOUS
10
319.358
20
-53.2381
11
319.41
21
-53.3321
0
LINE
8
BLACK
6
CONTINUOUS
10
319.41
20
-53.3321
11
319.479
21
-53.4143
0
LINE
8
BLACK
6
CONTINUOUS
10
319.479
20
-53.4143
11
319.563
21
-53.4815
0
LINE
8
BLACK
6
CONTINUOUS
10
319.563
20
-53.4815
11
319.658
21
-53.5312
0
LINE
8
BLACK
6
CONTINUOUS
10
319.658
20
-53.5312
11
319.761
21
-53.5615
0
LINE
8
BLACK
6
CONTINUOUS
10
319.761
20
-53.5615
11
319.868
21
-53.5712
0
LINE
8
BLACK
6
CONTINUOUS
10
319.868
20
-53.5712
11
319.974
21
-53.56
0
LINE
8
BLACK
6
CONTINUOUS
10
319.974
20
-53.56
11
320.077
21
-53.5283
0
LINE
8
BLACK
6
CONTINUOUS
10
320.077
20
-53.5283
11
320.171
21
-53.4773
0
LINE
8
BLACK
6
CONTINUOUS
10
320.171
20
-53.4773
11
320.254
21
-53.4089
0
LINE
8
BLACK
6
CONTINUOUS
10
320.254
20
-53.4089
11
320.322
21
-53.3257
0
LINE
8
BLACK
6
CONTINUOUS
10
320.322
20
-53.3257
11
320.372
21
-53.231
0
LINE
8
BLACK
6
CONTINUOUS
10
320.372
20
-53.231
11
320.403
21
-53.1283
0
LINE
8
BLACK
6
CONTINUOUS
10
320.403
20
-53.1283
11
320.414
21
-53.0191
0
LINE
8
BLACK
6
CONTINUOUS
10
320.414
20
-53.0191
11
320.414
21
-52.574
0
LINE
8
BLACK
6
CONTINUOUS
10
320.414
20
-52.574
11
320.413
21
-52.5715
0
LINE
8
BLACK
6
CONTINUOUS
10
320.413
20
-52.5715
11
320.414
21
-52.5617
0
LINE
8
BLACK
6
CONTINUOUS
10
320.414
20
-52.5617
11
320.417
21
-52.5523
0
LINE
8
BLACK
6
CONTINUOUS
10
320.417
20
-52.5523
11
320.422
21
-52.5436
0
LINE
8
BLACK
6
CONTINUOUS
10
320.422
20
-52.5436
11
320.428
21
-52.536
0
LINE
8
BLACK
6
CONTINUOUS
10
320.428
20
-52.536
11
320.436
21
-52.5297
0
LINE
8
BLACK
6
CONTINUOUS
10
320.436
20
-52.5297
11
320.445
21
-52.5251
0
LINE
8
BLACK
6
CONTINUOUS
10
320.445
20
-52.5251
11
320.454
21
-52.5222
0
LINE
8
BLACK
6
CONTINUOUS
10
320.454
20
-52.5222
11
320.461
21
-52.5215
0
LINE
8
BLACK
6
CONTINUOUS
10
320.461
20
-52.5215
11
320.464
21
-52.5213
0
LINE
8
BLACK
6
CONTINUOUS
10
320.464
20
-52.5213
11
320.466
21
-52.5215
0
LINE
8
BLACK
6
CONTINUOUS
10
320.466
20
-52.5215
11
329.966
21
-52.5215
0
LINE
8
BLACK
6
CONTINUOUS
10
329.966
20
-52.5215
11
329.974
21
-52.5222
0
LINE
8
BLACK
6
CONTINUOUS
10
329.974
20
-52.5222
11
329.983
21
-52.5251
0
LINE
8
BLACK
6
CONTINUOUS
10
329.983
20
-52.5251
11
329.992
21
-52.5297
0
LINE
8
BLACK
6
CONTINUOUS
10
329.992
20
-52.5297
11
329.999
21
-52.536
0
LINE
8
BLACK
6
CONTINUOUS
10
329.999
20
-52.536
11
330.006
21
-52.5436
0
LINE
8
BLACK
6
CONTINUOUS
10
330.006
20
-52.5436
11
330.01
21
-52.5523
0
LINE
8
BLACK
6
CONTINUOUS
10
330.01
20
-52.5523
11
330.013
21
-52.5617
0
LINE
8
BLACK
6
CONTINUOUS
10
330.013
20
-52.5617
11
330.014
21
-52.5715
0
LINE
8
BLACK
6
CONTINUOUS
10
330.014
20
-52.5715
11
330.013
21
-52.5813
0
LINE
8
BLACK
6
CONTINUOUS
10
330.013
20
-52.5813
11
330.01
21
-52.5907
0
LINE
8
BLACK
6
CONTINUOUS
10
330.01
20
-52.5907
11
330.006
21
-52.5994
0
LINE
8
BLACK
6
CONTINUOUS
10
330.006
20
-52.5994
11
329.999
21
-52.607
0
LINE
8
BLACK
6
CONTINUOUS
10
329.999
20
-52.607
11
329.992
21
-52.6133
0
LINE
8
BLACK
6
CONTINUOUS
10
329.992
20
-52.6133
11
329.989
21
-52.6148
0
LINE
8
BLACK
6
CONTINUOUS
10
329.989
20
-52.6148
11
329.989
21
-64.7032
0
LINE
8
BLACK
6
CONTINUOUS
10
329.989
20
-64.7032
11
329.992
21
-64.7047
0
LINE
8
BLACK
6
CONTINUOUS
10
329.992
20
-64.7047
11
329.999
21
-64.711
0
LINE
8
BLACK
6
CONTINUOUS
10
329.999
20
-64.711
11
330.006
21
-64.7186
0
LINE
8
BLACK
6
CONTINUOUS
10
330.006
20
-64.7186
11
330.01
21
-64.7273
0
LINE
8
BLACK
6
CONTINUOUS
10
330.01
20
-64.7273
11
330.013
21
-64.7367
0
LINE
8
BLACK
6
CONTINUOUS
10
330.013
20
-64.7367
11
330.014
21
-64.7465
0
LINE
8
BLACK
6
CONTINUOUS
10
330.014
20
-64.7465
11
330.013
21
-64.7563
0
LINE
8
BLACK
6
CONTINUOUS
10
330.013
20
-64.7563
11
330.01
21
-64.7657
0
LINE
8
BLACK
6
CONTINUOUS
10
330.01
20
-64.7657
11
330.006
21
-64.7744
0
LINE
8
BLACK
6
CONTINUOUS
10
330.006
20
-64.7744
11
329.999
21
-64.782
0
LINE
8
BLACK
6
CONTINUOUS
10
329.999
20
-64.782
11
329.992
21
-64.7883
0
LINE
8
BLACK
6
CONTINUOUS
10
329.992
20
-64.7883
11
329.983
21
-64.7929
0
LINE
8
BLACK
6
CONTINUOUS
10
329.983
20
-64.7929
11
329.974
21
-64.7958
0
LINE
8
BLACK
6
CONTINUOUS
10
329.974
20
-64.7958
11
329.966
21
-64.7965
0
LINE
8
BLACK
6
CONTINUOUS
10
329.966
20
-64.7965
11
320.466
21
-64.7965
0
LINE
8
BLACK
6
CONTINUOUS
10
320.466
20
-64.7965
11
320.464
21
-64.7967
0
LINE
8
BLACK
6
CONTINUOUS
10
320.464
20
-64.7967
11
320.461
21
-64.7965
0
LINE
8
BLACK
6
CONTINUOUS
10
320.461
20
-64.7965
11
320.454
21
-64.7958
0
LINE
8
BLACK
6
CONTINUOUS
10
320.454
20
-64.7958
11
320.445
21
-64.7929
0
LINE
8
BLACK
6
CONTINUOUS
10
320.445
20
-64.7929
11
320.436
21
-64.7883
0
LINE
8
BLACK
6
CONTINUOUS
10
320.436
20
-64.7883
11
320.428
21
-64.782
0
LINE
8
BLACK
6
CONTINUOUS
10
320.428
20
-64.782
11
320.422
21
-64.7744
0
LINE
8
BLACK
6
CONTINUOUS
10
320.422
20
-64.7744
11
320.417
21
-64.7657
0
LINE
8
BLACK
6
CONTINUOUS
10
320.417
20
-64.7657
11
320.414
21
-64.7563
0
LINE
8
BLACK
6
CONTINUOUS
10
320.414
20
-64.7563
11
320.413
21
-64.7465
0
LINE
8
BLACK
6
CONTINUOUS
10
320.413
20
-64.7465
11
320.414
21
-64.744
0
LINE
8
BLACK
6
CONTINUOUS
10
320.414
20
-64.744
11
320.414
21
-64.2967
0
LINE
8
BLACK
6
CONTINUOUS
10
320.414
20
-64.2967
11
320.414
21
-64.2911
0
LINE
8
BLACK
6
CONTINUOUS
10
320.414
20
-64.2911
11
320.401
21
-64.1822
0
LINE
8
BLACK
6
CONTINUOUS
10
320.401
20
-64.1822
11
320.369
21
-64.0799
0
LINE
8
BLACK
6
CONTINUOUS
10
320.369
20
-64.0799
11
320.317
21
-63.9859
0
LINE
8
BLACK
6
CONTINUOUS
10
320.317
20
-63.9859
11
320.248
21
-63.9037
0
LINE
8
BLACK
6
CONTINUOUS
10
320.248
20
-63.9037
11
320.165
21
-63.8365
0
LINE
8
BLACK
6
CONTINUOUS
10
320.165
20
-63.8365
11
320.07
21
-63.7868
0
LINE
8
BLACK
6
CONTINUOUS
10
320.07
20
-63.7868
11
319.967
21
-63.7565
0
LINE
8
BLACK
6
CONTINUOUS
10
319.967
20
-63.7565
11
319.86
21
-63.7467
0
LINE
8
BLACK
6
CONTINUOUS
10
319.86
20
-63.7467
11
319.753
21
-63.758
0
LINE
8
BLACK
6
CONTINUOUS
10
319.753
20
-63.758
11
319.651
21
-63.7897
0
LINE
8
BLACK
6
CONTINUOUS
10
319.651
20
-63.7897
11
319.556
21
-63.8407
0
LINE
8
BLACK
6
CONTINUOUS
10
319.556
20
-63.8407
11
319.474
21
-63.9091
0
LINE
8
BLACK
6
CONTINUOUS
10
319.474
20
-63.9091
11
319.406
21
-63.9923
0
LINE
8
BLACK
6
CONTINUOUS
10
319.406
20
-63.9923
11
319.355
21
-64.087
0
LINE
8
BLACK
6
CONTINUOUS
10
319.355
20
-64.087
11
319.324
21
-64.1897
0
LINE
8
BLACK
6
CONTINUOUS
10
319.324
20
-64.1897
11
319.314
21
-64.2989
0
LINE
8
BLACK
6
CONTINUOUS
10
319.314
20
-64.2989
11
319.314
21
-64.7441
0
LINE
8
BLACK
6
CONTINUOUS
10
319.314
20
-64.7441
11
319.314
21
-64.7465
0
LINE
8
BLACK
6
CONTINUOUS
10
319.314
20
-64.7465
11
319.314
21
-64.7489
0
LINE
8
BLACK
6
CONTINUOUS
10
319.314
20
-64.7489
11
319.314
21
-64.7489
0
LINE
8
BLACK
6
CONTINUOUS
10
319.314
20
-64.7489
11
319.313
21
-64.7563
0
LINE
8
BLACK
6
CONTINUOUS
10
319.313
20
-64.7563
11
319.31
21
-64.7657
0
LINE
8
BLACK
6
CONTINUOUS
10
319.31
20
-64.7657
11
319.306
21
-64.7744
0
LINE
8
BLACK
6
CONTINUOUS
10
319.306
20
-64.7744
11
319.299
21
-64.782
0
LINE
8
BLACK
6
CONTINUOUS
10
319.299
20
-64.782
11
319.292
21
-64.7883
0
LINE
8
BLACK
6
CONTINUOUS
10
319.292
20
-64.7883
11
319.283
21
-64.7929
0
LINE
8
BLACK
6
CONTINUOUS
10
319.283
20
-64.7929
11
319.274
21
-64.7958
0
LINE
8
BLACK
6
CONTINUOUS
10
319.274
20
-64.7958
11
319.264
21
-64.7967
0
LINE
8
BLACK
6
CONTINUOUS
10
319.264
20
-64.7967
11
319.261
21
-64.7965
0
LINE
8
BLACK
6
CONTINUOUS
10
319.261
20
-64.7965
11
316.864
21
-64.7965
0
LINE
8
BLACK
6
CONTINUOUS
10
316.864
20
-64.7965
11
316.861
21
-64.7965
0
LINE
8
BLACK
6
CONTINUOUS
10
316.861
20
-64.7965
11
316.854
21
-64.7958
0
LINE
8
BLACK
6
CONTINUOUS
10
316.854
20
-64.7958
11
316.845
21
-64.7929
0
LINE
8
BLACK
6
CONTINUOUS
10
316.845
20
-64.7929
11
316.836
21
-64.7883
0
LINE
8
BLACK
6
CONTINUOUS
10
316.836
20
-64.7883
11
316.828
21
-64.782
0
LINE
8
BLACK
6
CONTINUOUS
10
316.828
20
-64.782
11
316.822
21
-64.7744
0
LINE
8
BLACK
6
CONTINUOUS
10
316.822
20
-64.7744
11
316.817
21
-64.7657
0
LINE
8
BLACK
6
CONTINUOUS
10
316.817
20
-64.7657
11
316.814
21
-64.7563
0
LINE
8
BLACK
6
CONTINUOUS
10
316.814
20
-64.7563
11
316.813
21
-64.7465
0
LINE
8
BLACK
6
CONTINUOUS
10
316.813
20
-64.7465
11
316.814
21
-64.7442
0
LINE
8
BLACK
6
CONTINUOUS
10
316.814
20
-64.7442
11
316.814
21
-64.739
0
LINE
8
BLACK
6
CONTINUOUS
10
316.814
20
-64.739
11
316.798
21
-64.601
0
LINE
8
BLACK
6
CONTINUOUS
10
316.798
20
-64.601
11
316.757
21
-64.4708
0
LINE
8
BLACK
6
CONTINUOUS
10
316.757
20
-64.4708
11
316.691
21
-64.3512
0
LINE
8
BLACK
6
CONTINUOUS
10
316.691
20
-64.3512
11
316.603
21
-64.2465
0
LINE
8
BLACK
6
CONTINUOUS
10
316.603
20
-64.2465
11
316.497
21
-64.161
0
LINE
8
BLACK
6
CONTINUOUS
10
316.497
20
-64.161
11
316.376
21
-64.0977
0
LINE
8
BLACK
6
CONTINUOUS
10
316.376
20
-64.0977
11
316.245
21
-64.0591
0
LINE
8
BLACK
6
CONTINUOUS
10
316.245
20
-64.0591
11
316.109
21
-64.0468
0
LINE
8
BLACK
6
CONTINUOUS
10
316.109
20
-64.0468
11
315.973
21
-64.061
0
LINE
8
BLACK
6
CONTINUOUS
10
315.973
20
-64.061
11
315.843
21
-64.1014
0
LINE
8
BLACK
6
CONTINUOUS
10
315.843
20
-64.1014
11
315.722
21
-64.1664
0
LINE
8
BLACK
6
CONTINUOUS
10
315.722
20
-64.1664
11
315.617
21
-64.2534
0
LINE
8
BLACK
6
CONTINUOUS
10
315.617
20
-64.2534
11
315.531
21
-64.3593
0
LINE
8
BLACK
6
CONTINUOUS
10
315.531
20
-64.3593
11
315.467
21
-64.4798
0
LINE
8
BLACK
6
CONTINUOUS
10
315.467
20
-64.4798
11
315.427
21
-64.6106
0
LINE
8
BLACK
6
CONTINUOUS
10
315.427
20
-64.6106
11
315.414
21
-64.7489
0
LINE
8
BLACK
6
CONTINUOUS
10
315.414
20
-64.7489
11
315.414
21
-71.0463
0
LINE
8
BLACK
6
CONTINUOUS
10
315.414
20
-71.0463
11
315.414
21
-71.054
0
LINE
8
BLACK
6
CONTINUOUS
10
315.414
20
-71.054
11
315.429
21
-71.192
0
LINE
8
BLACK
6
CONTINUOUS
10
315.429
20
-71.192
11
315.471
21
-71.3222
0
LINE
8
BLACK
6
CONTINUOUS
10
315.471
20
-71.3222
11
315.536
21
-71.4418
0
LINE
8
BLACK
6
CONTINUOUS
10
315.536
20
-71.4418
11
315.624
21
-71.5465
0
LINE
8
BLACK
6
CONTINUOUS
10
315.624
20
-71.5465
11
315.731
21
-71.632
0
LINE
8
BLACK
6
CONTINUOUS
10
315.731
20
-71.632
11
315.852
21
-71.6953
0
LINE
8
BLACK
6
CONTINUOUS
10
315.852
20
-71.6953
11
315.983
21
-71.7339
0
LINE
8
BLACK
6
CONTINUOUS
10
315.983
20
-71.7339
11
316.119
21
-71.7462
0
LINE
8
BLACK
6
CONTINUOUS
10
316.119
20
-71.7462
11
316.254
21
-71.732
0
LINE
8
BLACK
6
CONTINUOUS
10
316.254
20
-71.732
11
316.385
21
-71.6916
0
LINE
8
BLACK
6
CONTINUOUS
10
316.385
20
-71.6916
11
316.505
21
-71.6266
0
LINE
8
BLACK
6
CONTINUOUS
10
316.505
20
-71.6266
11
316.61
21
-71.5396
0
LINE
8
BLACK
6
CONTINUOUS
10
316.61
20
-71.5396
11
316.697
21
-71.4337
0
LINE
8
BLACK
6
CONTINUOUS
10
316.697
20
-71.4337
11
316.761
21
-71.3132
0
LINE
8
BLACK
6
CONTINUOUS
10
316.761
20
-71.3132
11
316.8
21
-71.1824
0
LINE
8
BLACK
6
CONTINUOUS
10
316.8
20
-71.1824
11
316.813
21
-71.0465
0
LINE
8
BLACK
6
CONTINUOUS
10
316.813
20
-71.0465
11
316.813
21
-71.0465
0
LINE
8
BLACK
6
CONTINUOUS
10
316.813
20
-71.0465
11
316.814
21
-71.0416
0
LINE
8
BLACK
6
CONTINUOUS
10
316.814
20
-71.0416
11
316.814
21
-71.0416
0
LINE
8
BLACK
6
CONTINUOUS
10
316.814
20
-71.0416
11
316.814
21
-71.0367
0
LINE
8
BLACK
6
CONTINUOUS
10
316.814
20
-71.0367
11
316.817
21
-71.0273
0
LINE
8
BLACK
6
CONTINUOUS
10
316.817
20
-71.0273
11
316.822
21
-71.0186
0
LINE
8
BLACK
6
CONTINUOUS
10
316.822
20
-71.0186
11
316.828
21
-71.011
0
LINE
8
BLACK
6
CONTINUOUS
10
316.828
20
-71.011
11
316.836
21
-71.0047
0
LINE
8
BLACK
6
CONTINUOUS
10
316.836
20
-71.0047
11
316.845
21
-71.0001
0
LINE
8
BLACK
6
CONTINUOUS
10
316.845
20
-71.0001
11
316.854
21
-70.9972
0
LINE
8
BLACK
6
CONTINUOUS
10
316.854
20
-70.9972
11
316.861
21
-70.9965
0
LINE
8
BLACK
6
CONTINUOUS
10
316.861
20
-70.9965
11
319.261
21
-70.9965
0
LINE
8
BLACK
6
CONTINUOUS
10
319.261
20
-70.9965
11
319.264
21
-70.9963
0
LINE
8
BLACK
6
CONTINUOUS
10
319.264
20
-70.9963
11
319.274
21
-70.9972
0
LINE
8
BLACK
6
CONTINUOUS
10
319.274
20
-70.9972
11
319.283
21
-71.0001
0
LINE
8
BLACK
6
CONTINUOUS
10
319.283
20
-71.0001
11
319.292
21
-71.0047
0
LINE
8
BLACK
6
CONTINUOUS
10
319.292
20
-71.0047
11
319.299
21
-71.011
0
LINE
8
BLACK
6
CONTINUOUS
10
319.299
20
-71.011
11
319.306
21
-71.0186
0
LINE
8
BLACK
6
CONTINUOUS
10
319.306
20
-71.0186
11
319.31
21
-71.0273
0
LINE
8
BLACK
6
CONTINUOUS
10
319.31
20
-71.0273
11
319.313
21
-71.0367
0
LINE
8
BLACK
6
CONTINUOUS
10
319.313
20
-71.0367
11
319.313
21
-71.0416
0
LINE
8
BLACK
6
CONTINUOUS
10
319.313
20
-71.0416
11
319.314
21
-71.0465
0
LINE
8
BLACK
6
CONTINUOUS
10
319.314
20
-71.0465
11
319.314
21
-71.0489
0
LINE
8
BLACK
6
CONTINUOUS
10
319.314
20
-71.0489
11
319.314
21
-71.4963
0
LINE
8
BLACK
6
CONTINUOUS
10
319.314
20
-71.4963
11
319.314
21
-71.5019
0
LINE
8
BLACK
6
CONTINUOUS
10
319.314
20
-71.5019
11
319.326
21
-71.6108
0
LINE
8
BLACK
6
CONTINUOUS
10
319.326
20
-71.6108
11
319.358
21
-71.7131
0
LINE
8
BLACK
6
CONTINUOUS
10
319.358
20
-71.7131
11
319.41
21
-71.8071
0
LINE
8
BLACK
6
CONTINUOUS
10
319.41
20
-71.8071
11
319.479
21
-71.8893
0
LINE
8
BLACK
6
CONTINUOUS
10
319.479
20
-71.8893
11
319.563
21
-71.9565
0
LINE
8
BLACK
6
CONTINUOUS
10
319.563
20
-71.9565
11
319.658
21
-72.0062
0
LINE
8
BLACK
6
CONTINUOUS
10
319.658
20
-72.0062
11
319.761
21
-72.0365
0
LINE
8
BLACK
6
CONTINUOUS
10
319.761
20
-72.0365
11
319.868
21
-72.0462
0
LINE
8
BLACK
6
CONTINUOUS
10
319.868
20
-72.0462
11
319.974
21
-72.035
0
LINE
8
BLACK
6
CONTINUOUS
10
319.974
20
-72.035
11
320.077
21
-72.0033
0
LINE
8
BLACK
6
CONTINUOUS
10
320.077
20
-72.0033
11
320.171
21
-71.9523
0
LINE
8
BLACK
6
CONTINUOUS
10
320.171
20
-71.9523
11
320.254
21
-71.8839
0
LINE
8
BLACK
6
CONTINUOUS
10
320.254
20
-71.8839
11
320.322
21
-71.8007
0
LINE
8
BLACK
6
CONTINUOUS
10
320.322
20
-71.8007
11
320.372
21
-71.706
0
LINE
8
BLACK
6
CONTINUOUS
10
320.372
20
-71.706
11
320.403
21
-71.6033
0
LINE
8
BLACK
6
CONTINUOUS
10
320.403
20
-71.6033
11
320.414
21
-71.4941
0
LINE
8
BLACK
6
CONTINUOUS
10
320.414
20
-71.4941
11
320.414
21
-71.049
0
LINE
8
BLACK
6
CONTINUOUS
10
320.414
20
-71.049
11
320.413
21
-71.0465
0
LINE
8
BLACK
6
CONTINUOUS
10
320.413
20
-71.0465
11
320.414
21
-71.0367
0
LINE
8
BLACK
6
CONTINUOUS
10
320.414
20
-71.0367
11
320.417
21
-71.0273
0
LINE
8
BLACK
6
CONTINUOUS
10
320.417
20
-71.0273
11
320.422
21
-71.0186
0
LINE
8
BLACK
6
CONTINUOUS
10
320.422
20
-71.0186
11
320.428
21
-71.011
0
LINE
8
BLACK
6
CONTINUOUS
10
320.428
20
-71.011
11
320.436
21
-71.0047
0
LINE
8
BLACK
6
CONTINUOUS
10
320.436
20
-71.0047
11
320.445
21
-71.0001
0
LINE
8
BLACK
6
CONTINUOUS
10
320.445
20
-71.0001
11
320.454
21
-70.9972
0
LINE
8
BLACK
6
CONTINUOUS
10
320.454
20
-70.9972
11
320.461
21
-70.9965
0
LINE
8
BLACK
6
CONTINUOUS
10
320.461
20
-70.9965
11
320.461
21
-70.9965
0
LINE
8
BLACK
6
CONTINUOUS
10
320.461
20
-70.9965
11
320.464
21
-70.9963
0
LINE
8
BLACK
6
CONTINUOUS
10
320.464
20
-70.9963
11
320.466
21
-70.9965
0
LINE
8
BLACK
6
CONTINUOUS
10
320.466
20
-70.9965
11
329.966
21
-70.9965
0
LINE
8
BLACK
6
CONTINUOUS
10
329.966
20
-70.9965
11
329.974
21
-70.9972
0
LINE
8
BLACK
6
CONTINUOUS
10
329.974
20
-70.9972
11
329.983
21
-71.0001
0
LINE
8
BLACK
6
CONTINUOUS
10
329.983
20
-71.0001
11
329.992
21
-71.0047
0
LINE
8
BLACK
6
CONTINUOUS
10
329.992
20
-71.0047
11
329.999
21
-71.011
0
LINE
8
BLACK
6
CONTINUOUS
10
329.999
20
-71.011
11
330.006
21
-71.0186
0
LINE
8
BLACK
6
CONTINUOUS
10
330.006
20
-71.0186
11
330.01
21
-71.0273
0
LINE
8
BLACK
6
CONTINUOUS
10
330.01
20
-71.0273
11
330.013
21
-71.0367
0
LINE
8
BLACK
6
CONTINUOUS
10
330.013
20
-71.0367
11
330.014
21
-71.0465
0
LINE
8
BLACK
6
CONTINUOUS
10
330.014
20
-71.0465
11
330.013
21
-71.0563
0
LINE
8
BLACK
6
CONTINUOUS
10
330.013
20
-71.0563
11
330.01
21
-71.0657
0
LINE
8
BLACK
6
CONTINUOUS
10
330.01
20
-71.0657
11
330.006
21
-71.0744
0
LINE
8
BLACK
6
CONTINUOUS
10
330.006
20
-71.0744
11
329.999
21
-71.082
0
LINE
8
BLACK
6
CONTINUOUS
10
329.999
20
-71.082
11
329.992
21
-71.0883
0
LINE
8
BLACK
6
CONTINUOUS
10
329.992
20
-71.0883
11
329.989
21
-71.0898
0
LINE
8
BLACK
6
CONTINUOUS
10
329.989
20
-71.0898
11
329.989
21
-102.535
0
LINE
8
BLACK
6
CONTINUOUS
10
329.989
20
-102.535
11
329.989
21
-102.536
0
LINE
8
BLACK
6
CONTINUOUS
10
329.989
20
-102.536
11
329.989
21
-102.536
0
LINE
8
BLACK
6
CONTINUOUS
10
329.989
20
-102.536
11
329.914
21
-103.294
0
LINE
8
BLACK
6
CONTINUOUS
10
329.914
20
-103.294
11
329.914
21
-103.294
0
LINE
8
BLACK
6
CONTINUOUS
10
329.914
20
-103.294
11
329.914
21
-103.297
0
LINE
8
BLACK
6
CONTINUOUS
10
329.914
20
-103.297
11
329.913
21
-103.299
0
LINE
8
BLACK
6
CONTINUOUS
10
329.913
20
-103.299
11
329.693
21
-104.027
0
LINE
8
BLACK
6
CONTINUOUS
10
329.693
20
-104.027
11
329.693
21
-104.028
0
LINE
8
BLACK
6
CONTINUOUS
10
329.693
20
-104.028
11
329.692
21
-104.03
0
LINE
8
BLACK
6
CONTINUOUS
10
329.692
20
-104.03
11
329.692
21
-104.032
0
LINE
8
BLACK
6
CONTINUOUS
10
329.692
20
-104.032
11
329.334
21
-104.704
0
LINE
8
BLACK
6
CONTINUOUS
10
329.334
20
-104.704
11
329.334
21
-104.704
0
LINE
8
BLACK
6
CONTINUOUS
10
329.334
20
-104.704
11
329.333
21
-104.706
0
LINE
8
BLACK
6
CONTINUOUS
10
329.333
20
-104.706
11
329.331
21
-104.708
0
LINE
8
BLACK
6
CONTINUOUS
10
329.331
20
-104.708
11
328.85
21
-105.298
0
LINE
8
BLACK
6
CONTINUOUS
10
328.85
20
-105.298
11
328.85
21
-105.298
0
LINE
8
BLACK
6
CONTINUOUS
10
328.85
20
-105.298
11
328.849
21
-105.3
0
LINE
8
BLACK
6
CONTINUOUS
10
328.849
20
-105.3
11
328.847
21
-105.301
0
LINE
8
BLACK
6
CONTINUOUS
10
328.847
20
-105.301
11
328.261
21
-105.787
0
LINE
8
BLACK
6
CONTINUOUS
10
328.261
20
-105.787
11
328.26
21
-105.787
0
LINE
8
BLACK
6
CONTINUOUS
10
328.26
20
-105.787
11
328.258
21
-105.788
0
LINE
8
BLACK
6
CONTINUOUS
10
328.258
20
-105.788
11
328.256
21
-105.789
0
LINE
8
BLACK
6
CONTINUOUS
10
328.256
20
-105.789
11
327.587
21
-106.151
0
LINE
8
BLACK
6
CONTINUOUS
10
327.587
20
-106.151
11
327.587
21
-106.151
0
LINE
8
BLACK
6
CONTINUOUS
10
327.587
20
-106.151
11
327.585
21
-106.152
0
LINE
8
BLACK
6
CONTINUOUS
10
327.585
20
-106.152
11
327.582
21
-106.153
0
LINE
8
BLACK
6
CONTINUOUS
10
327.582
20
-106.153
11
326.855
21
-106.378
0
LINE
8
BLACK
6
CONTINUOUS
10
326.855
20
-106.378
11
326.855
21
-106.378
0
LINE
8
BLACK
6
CONTINUOUS
10
326.855
20
-106.378
11
326.853
21
-106.379
0
LINE
8
BLACK
6
CONTINUOUS
10
326.853
20
-106.379
11
326.851
21
-106.379
0
LINE
8
BLACK
6
CONTINUOUS
10
326.851
20
-106.379
11
326.094
21
-106.459
0
LINE
8
BLACK
6
CONTINUOUS
10
326.094
20
-106.459
11
326.093
21
-106.459
0
LINE
8
BLACK
6
CONTINUOUS
10
326.093
20
-106.459
11
326.092
21
-106.459
0
LINE
8
BLACK
6
CONTINUOUS
10
326.092
20
-106.459
11
326.091
21
-106.459
0
LINE
8
BLACK
6
CONTINUOUS
10
326.091
20
-106.459
11
326.065
21
-106.459
0
LINE
8
BLACK
6
CONTINUOUS
10
326.065
20
-106.459
11
326.065
21
-106.459
0
LINE
8
BLACK
6
CONTINUOUS
10
326.065
20
-106.459
11
321.796
21
-106.459
0
LINE
8
BLACK
6
CONTINUOUS
10
321.796
20
-106.459
11
321.784
21
-106.459
0
LINE
8
BLACK
6
CONTINUOUS
10
321.784
20
-106.459
11
321.031
21
-106.536
0
LINE
8
BLACK
6
CONTINUOUS
10
321.031
20
-106.536
11
320.307
21
-106.757
0
LINE
8
BLACK
6
CONTINUOUS
10
320.307
20
-106.757
11
319.641
21
-107.114
0
LINE
8
BLACK
6
CONTINUOUS
10
319.641
20
-107.114
11
319.056
21
-107.595
0
LINE
8
BLACK
6
CONTINUOUS
10
319.056
20
-107.595
11
311.743
21
-115.06
0
LINE
8
BLACK
6
CONTINUOUS
10
311.743
20
-115.06
11
311.742
21
-115.061
0
LINE
8
BLACK
6
CONTINUOUS
10
311.742
20
-115.061
11
311.742
21
-115.061
0
LINE
8
BLACK
6
CONTINUOUS
10
311.742
20
-115.061
11
311.742
21
-115.061
0
LINE
8
BLACK
6
CONTINUOUS
10
311.742
20
-115.061
11
311.74
21
-115.062
0
LINE
8
BLACK
6
CONTINUOUS
10
311.74
20
-115.062
11
311.74
21
-115.063
0
LINE
8
BLACK
6
CONTINUOUS
10
311.74
20
-115.063
11
311.154
21
-115.544
0
LINE
8
BLACK
6
CONTINUOUS
10
311.154
20
-115.544
11
311.154
21
-115.544
0
LINE
8
BLACK
6
CONTINUOUS
10
311.154
20
-115.544
11
311.154
21
-115.544
0
LINE
8
BLACK
6
CONTINUOUS
10
311.154
20
-115.544
11
311.154
21
-115.544
0
LINE
8
BLACK
6
CONTINUOUS
10
311.154
20
-115.544
11
311.152
21
-115.546
0
LINE
8
BLACK
6
CONTINUOUS
10
311.152
20
-115.546
11
311.15
21
-115.547
0
LINE
8
BLACK
6
CONTINUOUS
10
311.15
20
-115.547
11
310.479
21
-115.907
0
LINE
8
BLACK
6
CONTINUOUS
10
310.479
20
-115.907
11
310.479
21
-115.907
0
LINE
8
BLACK
6
CONTINUOUS
10
310.479
20
-115.907
11
310.477
21
-115.908
0
LINE
8
BLACK
6
CONTINUOUS
10
310.477
20
-115.908
11
310.475
21
-115.908
0
LINE
8
BLACK
6
CONTINUOUS
10
310.475
20
-115.908
11
309.747
21
-116.131
0
LINE
8
BLACK
6
CONTINUOUS
10
309.747
20
-116.131
11
309.747
21
-116.131
0
LINE
8
BLACK
6
CONTINUOUS
10
309.747
20
-116.131
11
309.746
21
-116.131
0
LINE
8
BLACK
6
CONTINUOUS
10
309.746
20
-116.131
11
309.744
21
-116.131
0
LINE
8
BLACK
6
CONTINUOUS
10
309.744
20
-116.131
11
309.742
21
-116.132
0
LINE
8
BLACK
6
CONTINUOUS
10
309.742
20
-116.132
11
308.985
21
-116.209
0
LINE
8
BLACK
6
CONTINUOUS
10
308.985
20
-116.209
11
308.984
21
-116.209
0
LINE
8
BLACK
6
CONTINUOUS
10
308.984
20
-116.209
11
308.983
21
-116.209
0
LINE
8
BLACK
6
CONTINUOUS
10
308.983
20
-116.209
11
308.982
21
-116.209
0
LINE
8
BLACK
6
CONTINUOUS
10
308.982
20
-116.209
11
308.97
21
-116.209
0
LINE
8
BLACK
6
CONTINUOUS
10
308.97
20
-116.209
11
308.97
21
-116.209
0
LINE
8
BLACK
6
CONTINUOUS
10
308.97
20
-116.209
11
201.965
21
-116.209
0
LINE
8
BLACK
6
CONTINUOUS
10
201.965
20
-116.209
11
201.964
21
-116.209
0
LINE
8
BLACK
6
CONTINUOUS
10
201.964
20
-116.209
11
201.964
21
-116.209
0
LINE
8
BLACK
6
CONTINUOUS
10
201.964
20
-116.209
11
201.167
21
-116.131
0
LINE
8
BLACK
6
CONTINUOUS
10
201.167
20
-116.131
11
201.167
21
-116.131
0
LINE
8
BLACK
6
CONTINUOUS
10
201.167
20
-116.131
11
201.165
21
-116.13
0
LINE
8
BLACK
6
CONTINUOUS
10
201.165
20
-116.13
11
201.162
21
-116.13
0
LINE
8
BLACK
6
CONTINUOUS
10
201.162
20
-116.13
11
200.396
21
-115.899
0
LINE
8
BLACK
6
CONTINUOUS
10
200.396
20
-115.899
11
200.396
21
-115.898
0
LINE
8
BLACK
6
CONTINUOUS
10
200.396
20
-115.898
11
200.394
21
-115.898
0
LINE
8
BLACK
6
CONTINUOUS
10
200.394
20
-115.898
11
200.392
21
-115.897
0
LINE
8
BLACK
6
CONTINUOUS
10
200.392
20
-115.897
11
199.685
21
-115.521
0
LINE
8
BLACK
6
CONTINUOUS
10
199.685
20
-115.521
11
199.685
21
-115.521
0
LINE
8
BLACK
6
CONTINUOUS
10
199.685
20
-115.521
11
199.683
21
-115.52
0
LINE
8
BLACK
6
CONTINUOUS
10
199.683
20
-115.52
11
199.681
21
-115.518
0
LINE
8
BLACK
6
CONTINUOUS
10
199.681
20
-115.518
11
199.061
21
-115.013
0
LINE
8
BLACK
6
CONTINUOUS
10
199.061
20
-115.013
11
199.061
21
-115.012
0
LINE
8
BLACK
6
CONTINUOUS
10
199.061
20
-115.012
11
199.059
21
-115.011
0
LINE
8
BLACK
6
CONTINUOUS
10
199.059
20
-115.011
11
199.058
21
-115.009
0
LINE
8
BLACK
6
CONTINUOUS
10
199.058
20
-115.009
11
198.548
21
-114.393
0
LINE
8
BLACK
6
CONTINUOUS
10
198.548
20
-114.393
11
198.548
21
-114.392
0
LINE
8
BLACK
6
CONTINUOUS
10
198.548
20
-114.392
11
198.546
21
-114.39
0
LINE
8
BLACK
6
CONTINUOUS
10
198.546
20
-114.39
11
198.545
21
-114.389
0
LINE
8
BLACK
6
CONTINUOUS
10
198.545
20
-114.389
11
198.164
21
-113.685
0
LINE
8
BLACK
6
CONTINUOUS
10
198.164
20
-113.685
11
198.164
21
-113.684
0
LINE
8
BLACK
6
CONTINUOUS
10
198.164
20
-113.684
11
198.163
21
-113.682
0
LINE
8
BLACK
6
CONTINUOUS
10
198.163
20
-113.682
11
198.163
21
-113.68
0
LINE
8
BLACK
6
CONTINUOUS
10
198.163
20
-113.68
11
197.926
21
-112.916
0
LINE
8
BLACK
6
CONTINUOUS
10
197.926
20
-112.916
11
197.926
21
-112.915
0
LINE
8
BLACK
6
CONTINUOUS
10
197.926
20
-112.915
11
197.925
21
-112.913
0
LINE
8
BLACK
6
CONTINUOUS
10
197.925
20
-112.913
11
197.925
21
-112.911
0
LINE
8
BLACK
6
CONTINUOUS
10
197.925
20
-112.911
11
197.843
21
-112.128
0
LINE
8
BLACK
6
CONTINUOUS
10
197.843
20
-112.128
11
197.838
21
-112.126
0
LINE
8
BLACK
6
CONTINUOUS
10
197.838
20
-112.126
11
197.831
21
-112.12
0
LINE
8
BLACK
6
CONTINUOUS
10
197.831
20
-112.12
11
197.824
21
-112.112
0
LINE
8
BLACK
6
CONTINUOUS
10
197.824
20
-112.112
11
197.82
21
-112.103
0
LINE
8
BLACK
6
CONTINUOUS
10
197.82
20
-112.103
11
197.817
21
-112.094
0
LINE
8
BLACK
6
CONTINUOUS
10
197.817
20
-112.094
11
197.816
21
-112.086
0
LINE
8
BLACK
6
CONTINUOUS
10
197.816
20
-112.086
11
197.816
21
-46.8839
0
LINE
8
BLACK
6
CONTINUOUS
10
197.816
20
-46.8839
11
197.817
21
-46.8765
0
LINE
8
BLACK
6
CONTINUOUS
10
197.817
20
-46.8765
11
197.82
21
-46.8671
0
LINE
8
BLACK
6
CONTINUOUS
10
197.82
20
-46.8671
11
197.824
21
-46.8584
0
LINE
8
BLACK
6
CONTINUOUS
10
197.824
20
-46.8584
11
197.831
21
-46.8508
0
LINE
8
BLACK
6
CONTINUOUS
10
197.831
20
-46.8508
11
197.838
21
-46.8445
0
LINE
8
BLACK
6
CONTINUOUS
10
197.838
20
-46.8445
11
197.846
21
-46.8402
0
LINE
8
BLACK
6
CONTINUOUS
10
197.846
20
-46.8402
11
197.933
21
-46.0885
0
LINE
8
BLACK
6
CONTINUOUS
10
197.933
20
-46.0885
11
197.933
21
-46.0881
0
LINE
8
BLACK
6
CONTINUOUS
10
197.933
20
-46.0881
11
197.934
21
-46.0859
0
LINE
8
BLACK
6
CONTINUOUS
10
197.934
20
-46.0859
11
197.934
21
-46.0837
0
LINE
8
BLACK
6
CONTINUOUS
10
197.934
20
-46.0837
11
198.179
21
-45.3218
0
LINE
8
BLACK
6
CONTINUOUS
10
198.179
20
-45.3218
11
198.179
21
-45.3214
0
LINE
8
BLACK
6
CONTINUOUS
10
198.179
20
-45.3214
11
198.18
21
-45.3193
0
LINE
8
BLACK
6
CONTINUOUS
10
198.18
20
-45.3193
11
198.181
21
-45.3173
0
LINE
8
BLACK
6
CONTINUOUS
10
198.181
20
-45.3173
11
198.569
21
-44.6174
0
LINE
8
BLACK
6
CONTINUOUS
10
198.569
20
-44.6174
11
198.57
21
-44.6171
0
LINE
8
BLACK
6
CONTINUOUS
10
198.57
20
-44.6171
11
198.571
21
-44.6153
0
LINE
8
BLACK
6
CONTINUOUS
10
198.571
20
-44.6153
11
198.572
21
-44.6134
0
LINE
8
BLACK
6
CONTINUOUS
10
198.572
20
-44.6134
11
199.089
21
-44.0023
0
LINE
8
BLACK
6
CONTINUOUS
10
199.089
20
-44.0023
11
199.089
21
-44.0023
0
LINE
8
BLACK
6
CONTINUOUS
10
199.089
20
-44.0023
11
199.089
21
-44.0023
0
LINE
8
BLACK
6
CONTINUOUS
10
199.089
20
-44.0023
11
199.089
21
-44.002
0
LINE
8
BLACK
6
CONTINUOUS
10
199.089
20
-44.002
11
199.091
21
-44.0005
0
LINE
8
BLACK
6
CONTINUOUS
10
199.091
20
-44.0005
11
199.092
21
-43.9989
0
LINE
8
BLACK
6
CONTINUOUS
10
199.092
20
-43.9989
11
199.718
21
-43.4998
0
LINE
8
BLACK
6
CONTINUOUS
10
199.718
20
-43.4998
11
199.718
21
-43.4995
0
LINE
8
BLACK
6
CONTINUOUS
10
199.718
20
-43.4995
11
199.72
21
-43.4983
0
LINE
8
BLACK
6
CONTINUOUS
10
199.72
20
-43.4983
11
199.722
21
-43.4971
0
LINE
8
BLACK
6
CONTINUOUS
10
199.722
20
-43.4971
11
200.433
21
-43.129
0
LINE
8
BLACK
6
CONTINUOUS
10
200.433
20
-43.129
11
200.433
21
-43.1288
0
LINE
8
BLACK
6
CONTINUOUS
10
200.433
20
-43.1288
11
200.435
21
-43.128
0
LINE
8
BLACK
6
CONTINUOUS
10
200.435
20
-43.128
11
200.437
21
-43.1272
0
LINE
8
BLACK
6
CONTINUOUS
10
200.437
20
-43.1272
11
201.206
21
-42.9041
0
LINE
8
BLACK
6
CONTINUOUS
10
201.206
20
-42.9041
11
201.206
21
-42.904
0
LINE
8
BLACK
6
CONTINUOUS
10
201.206
20
-42.904
11
201.208
21
-42.9036
0
LINE
8
BLACK
6
CONTINUOUS
10
201.208
20
-42.9036
11
201.211
21
-42.9032
0
LINE
8
BLACK
6
CONTINUOUS
10
201.211
20
-42.9032
11
202.008
21
-42.8337
0
LINE
8
BLACK
6
CONTINUOUS
10
202.008
20
-42.8337
11
202.008
21
-42.8337
0
LINE
8
BLACK
6
CONTINUOUS
10
202.008
20
-42.8337
11
202.009
21
-42.8337
0
LINE
8
BLACK
6
CONTINUOUS
10
202.009
20
-42.8337
11
202.01
21
-42.8336
0
LINE
8
BLACK
6
CONTINUOUS
10
202.01
20
-42.8336
11
202.039
21
-42.834
0
LINE
8
BLACK
6
CONTINUOUS
10
202.039
20
-42.834
11
326.552
21
-42.834
0
LINE
8
BLACK
6
CONTINUOUS
10
326.552
20
-42.834
11
326.554
21
-42.8341
0
LINE
8
BLACK
6
CONTINUOUS
10
326.554
20
-42.8341
11
326.554
21
-42.8341
0
LINE
8
BLACK
6
CONTINUOUS
10
326.554
20
-42.8341
11
327.216
21
-42.8991
0
LINE
8
BLACK
6
CONTINUOUS
10
327.216
20
-42.8991
11
327.217
21
-42.8991
0
LINE
8
BLACK
6
CONTINUOUS
10
327.217
20
-42.8991
11
327.219
21
-42.8996
0
LINE
8
BLACK
6
CONTINUOUS
10
327.219
20
-42.8996
11
327.221
21
-42.9001
0
LINE
8
BLACK
6
CONTINUOUS
10
327.221
20
-42.9001
11
327.859
21
-43.0925
0
LINE
8
BLACK
6
CONTINUOUS
10
327.859
20
-43.0925
11
327.859
21
-43.0925
0
LINE
8
BLACK
6
CONTINUOUS
10
327.859
20
-43.0925
11
327.859
21
-43.0927
0
LINE
8
BLACK
6
CONTINUOUS
10
319.872
20
-72.1463
11
319.868
21
-72.1462
0
LINE
8
BLACK
6
CONTINUOUS
10
319.868
20
-72.1462
11
319.863
21
-72.1463
0
LINE
8
BLACK
6
CONTINUOUS
10
319.863
20
-72.1463
11
319.747
21
-72.1357
0
LINE
8
BLACK
6
CONTINUOUS
10
319.747
20
-72.1357
11
319.746
21
-72.1356
0
LINE
8
BLACK
6
CONTINUOUS
10
319.746
20
-72.1356
11
319.742
21
-72.1347
0
LINE
8
BLACK
6
CONTINUOUS
10
319.742
20
-72.1347
11
319.737
21
-72.1338
0
LINE
8
BLACK
6
CONTINUOUS
10
319.737
20
-72.1338
11
319.625
21
-72.1008
0
LINE
8
BLACK
6
CONTINUOUS
10
319.625
20
-72.1008
11
319.624
21
-72.1006
0
LINE
8
BLACK
6
CONTINUOUS
10
319.624
20
-72.1006
11
319.62
21
-72.0988
0
LINE
8
BLACK
6
CONTINUOUS
10
319.62
20
-72.0988
11
319.616
21
-72.0971
0
LINE
8
BLACK
6
CONTINUOUS
10
319.616
20
-72.0971
11
319.512
21
-72.0429
0
LINE
8
BLACK
6
CONTINUOUS
10
319.512
20
-72.0429
11
319.511
21
-72.0425
0
LINE
8
BLACK
6
CONTINUOUS
10
319.511
20
-72.0425
11
319.508
21
-72.04
0
LINE
8
BLACK
6
CONTINUOUS
10
319.508
20
-72.04
11
319.504
21
-72.0375
0
LINE
8
BLACK
6
CONTINUOUS
10
319.504
20
-72.0375
11
319.413
21
-71.9641
0
LINE
8
BLACK
6
CONTINUOUS
10
319.413
20
-71.9641
11
319.412
21
-71.9637
0
LINE
8
BLACK
6
CONTINUOUS
10
319.412
20
-71.9637
11
319.409
21
-71.9605
0
LINE
8
BLACK
6
CONTINUOUS
10
319.409
20
-71.9605
11
319.406
21
-71.9573
0
LINE
8
BLACK
6
CONTINUOUS
10
319.406
20
-71.9573
11
319.33
21
-71.8676
0
LINE
8
BLACK
6
CONTINUOUS
10
319.33
20
-71.8676
11
319.33
21
-71.8671
0
LINE
8
BLACK
6
CONTINUOUS
10
319.33
20
-71.8671
11
319.327
21
-71.8633
0
LINE
8
BLACK
6
CONTINUOUS
10
319.327
20
-71.8633
11
319.325
21
-71.8596
0
LINE
8
BLACK
6
CONTINUOUS
10
319.325
20
-71.8596
11
319.268
21
-71.757
0
LINE
8
BLACK
6
CONTINUOUS
10
319.268
20
-71.757
11
319.268
21
-71.7569
0
LINE
8
BLACK
6
CONTINUOUS
10
319.268
20
-71.7569
11
319.268
21
-71.7569
0
LINE
8
BLACK
6
CONTINUOUS
10
319.268
20
-71.7569
11
319.268
21
-71.7563
0
LINE
8
BLACK
6
CONTINUOUS
10
319.268
20
-71.7563
11
319.266
21
-71.7522
0
LINE
8
BLACK
6
CONTINUOUS
10
319.266
20
-71.7522
11
319.265
21
-71.748
0
LINE
8
BLACK
6
CONTINUOUS
10
319.265
20
-71.748
11
319.229
21
-71.6364
0
LINE
8
BLACK
6
CONTINUOUS
10
319.229
20
-71.6364
11
319.229
21
-71.6357
0
LINE
8
BLACK
6
CONTINUOUS
10
319.229
20
-71.6357
11
319.228
21
-71.6313
0
LINE
8
BLACK
6
CONTINUOUS
10
319.228
20
-71.6313
11
319.227
21
-71.6268
0
LINE
8
BLACK
6
CONTINUOUS
10
319.227
20
-71.6268
11
319.214
21
-71.5104
0
LINE
8
BLACK
6
CONTINUOUS
10
319.214
20
-71.5104
11
319.214
21
-71.5097
0
LINE
8
BLACK
6
CONTINUOUS
10
319.214
20
-71.5097
11
319.214
21
-71.5075
0
LINE
8
BLACK
6
CONTINUOUS
10
319.214
20
-71.5075
11
319.214
21
-71.5052
0
LINE
8
BLACK
6
CONTINUOUS
10
319.214
20
-71.5052
11
319.214
21
-71.4991
0
LINE
8
BLACK
6
CONTINUOUS
10
319.214
20
-71.4991
11
319.214
21
-71.4989
0
LINE
8
BLACK
6
CONTINUOUS
10
319.214
20
-71.4989
11
319.214
21
-71.0965
0
LINE
8
BLACK
6
CONTINUOUS
10
319.214
20
-71.0965
11
316.909
21
-71.0965
0
LINE
8
BLACK
6
CONTINUOUS
10
316.909
20
-71.0965
11
316.899
21
-71.197
0
LINE
8
BLACK
6
CONTINUOUS
10
316.899
20
-71.197
11
316.899
21
-71.197
0
LINE
8
BLACK
6
CONTINUOUS
10
316.899
20
-71.197
11
316.899
21
-71.1971
0
LINE
8
BLACK
6
CONTINUOUS
10
316.899
20
-71.1971
11
316.899
21
-71.1977
0
LINE
8
BLACK
6
CONTINUOUS
10
316.899
20
-71.1977
11
316.898
21
-71.2021
0
LINE
8
BLACK
6
CONTINUOUS
10
316.898
20
-71.2021
11
316.897
21
-71.2066
0
LINE
8
BLACK
6
CONTINUOUS
10
316.897
20
-71.2066
11
316.855
21
-71.3467
0
LINE
8
BLACK
6
CONTINUOUS
10
316.855
20
-71.3467
11
316.855
21
-71.3474
0
LINE
8
BLACK
6
CONTINUOUS
10
316.855
20
-71.3474
11
316.853
21
-71.3516
0
LINE
8
BLACK
6
CONTINUOUS
10
316.853
20
-71.3516
11
316.851
21
-71.3558
0
LINE
8
BLACK
6
CONTINUOUS
10
316.851
20
-71.3558
11
316.783
21
-71.485
0
LINE
8
BLACK
6
CONTINUOUS
10
316.783
20
-71.485
11
316.782
21
-71.4856
0
LINE
8
BLACK
6
CONTINUOUS
10
316.782
20
-71.4856
11
316.78
21
-71.4894
0
LINE
8
BLACK
6
CONTINUOUS
10
316.78
20
-71.4894
11
316.777
21
-71.4931
0
LINE
8
BLACK
6
CONTINUOUS
10
316.777
20
-71.4931
11
316.685
21
-71.6066
0
LINE
8
BLACK
6
CONTINUOUS
10
316.685
20
-71.6066
11
316.685
21
-71.6066
0
LINE
8
BLACK
6
CONTINUOUS
10
316.685
20
-71.6066
11
316.685
21
-71.6066
0
LINE
8
BLACK
6
CONTINUOUS
10
316.685
20
-71.6066
11
316.684
21
-71.6071
0
LINE
8
BLACK
6
CONTINUOUS
10
316.684
20
-71.6071
11
316.681
21
-71.6103
0
LINE
8
BLACK
6
CONTINUOUS
10
316.681
20
-71.6103
11
316.678
21
-71.6135
0
LINE
8
BLACK
6
CONTINUOUS
10
316.678
20
-71.6135
11
316.565
21
-71.7068
0
LINE
8
BLACK
6
CONTINUOUS
10
316.565
20
-71.7068
11
316.564
21
-71.7072
0
LINE
8
BLACK
6
CONTINUOUS
10
316.564
20
-71.7072
11
316.561
21
-71.7097
0
LINE
8
BLACK
6
CONTINUOUS
10
316.561
20
-71.7097
11
316.557
21
-71.7123
0
LINE
8
BLACK
6
CONTINUOUS
10
316.557
20
-71.7123
11
316.428
21
-71.7819
0
LINE
8
BLACK
6
CONTINUOUS
10
316.428
20
-71.7819
11
316.428
21
-71.7819
0
LINE
8
BLACK
6
CONTINUOUS
10
316.428
20
-71.7819
11
316.428
21
-71.7819
0
LINE
8
BLACK
6
CONTINUOUS
10
316.428
20
-71.7819
11
316.428
21
-71.7822
0
LINE
8
BLACK
6
CONTINUOUS
10
316.428
20
-71.7822
11
316.423
21
-71.7839
0
LINE
8
BLACK
6
CONTINUOUS
10
316.423
20
-71.7839
11
316.419
21
-71.7857
0
LINE
8
BLACK
6
CONTINUOUS
10
316.419
20
-71.7857
11
316.279
21
-71.8289
0
LINE
8
BLACK
6
CONTINUOUS
10
316.279
20
-71.8289
11
316.279
21
-71.8289
0
LINE
8
BLACK
6
CONTINUOUS
10
316.279
20
-71.8289
11
316.279
21
-71.8291
0
LINE
8
BLACK
6
CONTINUOUS
10
316.279
20
-71.8291
11
316.274
21
-71.83
0
LINE
8
BLACK
6
CONTINUOUS
10
316.274
20
-71.83
11
316.27
21
-71.8309
0
LINE
8
BLACK
6
CONTINUOUS
10
316.27
20
-71.8309
11
316.124
21
-71.8462
0
LINE
8
BLACK
6
CONTINUOUS
10
316.124
20
-71.8462
11
316.123
21
-71.8463
0
LINE
8
BLACK
6
CONTINUOUS
10
316.123
20
-71.8463
11
316.119
21
-71.8462
0
LINE
8
BLACK
6
CONTINUOUS
10
316.119
20
-71.8462
11
316.114
21
-71.8463
0
LINE
8
BLACK
6
CONTINUOUS
10
316.114
20
-71.8463
11
315.969
21
-71.833
0
LINE
8
BLACK
6
CONTINUOUS
10
315.969
20
-71.833
11
315.968
21
-71.8329
0
LINE
8
BLACK
6
CONTINUOUS
10
315.968
20
-71.8329
11
315.964
21
-71.832
0
LINE
8
BLACK
6
CONTINUOUS
10
315.964
20
-71.832
11
315.959
21
-71.8312
0
LINE
8
BLACK
6
CONTINUOUS
10
315.959
20
-71.8312
11
315.819
21
-71.7898
0
LINE
8
BLACK
6
CONTINUOUS
10
315.819
20
-71.7898
11
315.818
21
-71.7896
0
LINE
8
BLACK
6
CONTINUOUS
10
315.818
20
-71.7896
11
315.814
21
-71.7879
0
LINE
8
BLACK
6
CONTINUOUS
10
315.814
20
-71.7879
11
315.81
21
-71.7862
0
LINE
8
BLACK
6
CONTINUOUS
10
315.81
20
-71.7862
11
315.68
21
-71.7184
0
LINE
8
BLACK
6
CONTINUOUS
10
315.68
20
-71.7184
11
315.68
21
-71.7184
0
LINE
8
BLACK
6
CONTINUOUS
10
315.68
20
-71.7184
11
315.68
21
-71.7184
0
LINE
8
BLACK
6
CONTINUOUS
10
315.68
20
-71.7184
11
315.679
21
-71.718
0
LINE
8
BLACK
6
CONTINUOUS
10
315.679
20
-71.718
11
315.676
21
-71.7155
0
LINE
8
BLACK
6
CONTINUOUS
10
315.676
20
-71.7155
11
315.672
21
-71.713
0
LINE
8
BLACK
6
CONTINUOUS
10
315.672
20
-71.713
11
315.558
21
-71.6213
0
LINE
8
BLACK
6
CONTINUOUS
10
315.558
20
-71.6213
11
315.557
21
-71.6209
0
LINE
8
BLACK
6
CONTINUOUS
10
315.557
20
-71.6209
11
315.554
21
-71.6177
0
LINE
8
BLACK
6
CONTINUOUS
10
315.554
20
-71.6177
11
315.551
21
-71.6145
0
LINE
8
BLACK
6
CONTINUOUS
10
315.551
20
-71.6145
11
315.457
21
-71.5024
0
LINE
8
BLACK
6
CONTINUOUS
10
315.457
20
-71.5024
11
315.457
21
-71.5024
0
LINE
8
BLACK
6
CONTINUOUS
10
315.457
20
-71.5024
11
315.457
21
-71.5024
0
LINE
8
BLACK
6
CONTINUOUS
10
315.457
20
-71.5024
11
315.456
21
-71.5018
0
LINE
8
BLACK
6
CONTINUOUS
10
315.456
20
-71.5018
11
315.454
21
-71.4981
0
LINE
8
BLACK
6
CONTINUOUS
10
315.454
20
-71.4981
11
315.451
21
-71.4943
0
LINE
8
BLACK
6
CONTINUOUS
10
315.451
20
-71.4943
11
315.381
21
-71.366
0
LINE
8
BLACK
6
CONTINUOUS
10
315.381
20
-71.366
11
315.38
21
-71.3654
0
LINE
8
BLACK
6
CONTINUOUS
10
315.38
20
-71.3654
11
315.379
21
-71.3612
0
LINE
8
BLACK
6
CONTINUOUS
10
315.379
20
-71.3612
11
315.377
21
-71.3571
0
LINE
8
BLACK
6
CONTINUOUS
10
315.377
20
-71.3571
11
315.332
21
-71.2175
0
LINE
8
BLACK
6
CONTINUOUS
10
315.332
20
-71.2175
11
315.332
21
-71.2169
0
LINE
8
BLACK
6
CONTINUOUS
10
315.332
20
-71.2169
11
315.331
21
-71.2124
0
LINE
8
BLACK
6
CONTINUOUS
10
315.331
20
-71.2124
11
315.33
21
-71.208
0
LINE
8
BLACK
6
CONTINUOUS
10
315.33
20
-71.208
11
315.314
21
-71.0625
0
LINE
8
BLACK
6
CONTINUOUS
10
315.314
20
-71.0625
11
315.314
21
-71.0618
0
LINE
8
BLACK
6
CONTINUOUS
10
315.314
20
-71.0618
11
315.314
21
-71.0596
0
LINE
8
BLACK
6
CONTINUOUS
10
315.314
20
-71.0596
11
315.314
21
-71.0573
0
LINE
8
BLACK
6
CONTINUOUS
10
315.314
20
-71.0573
11
315.314
21
-71.0491
0
LINE
8
BLACK
6
CONTINUOUS
10
315.314
20
-71.0491
11
315.314
21
-71.0489
0
LINE
8
BLACK
6
CONTINUOUS
10
315.314
20
-71.0489
11
315.314
21
-64.744
0
LINE
8
BLACK
6
CONTINUOUS
10
315.314
20
-64.744
11
315.314
21
-64.7416
0
LINE
8
BLACK
6
CONTINUOUS
10
315.314
20
-64.7416
11
315.314
21
-64.7416
0
LINE
8
BLACK
6
CONTINUOUS
10
315.314
20
-64.7416
11
315.328
21
-64.596
0
LINE
8
BLACK
6
CONTINUOUS
10
315.328
20
-64.596
11
315.328
21
-64.5959
0
LINE
8
BLACK
6
CONTINUOUS
10
315.328
20
-64.5959
11
315.328
21
-64.5959
0
LINE
8
BLACK
6
CONTINUOUS
10
315.328
20
-64.5959
11
315.328
21
-64.5952
0
LINE
8
BLACK
6
CONTINUOUS
10
315.328
20
-64.5952
11
315.329
21
-64.5909
0
LINE
8
BLACK
6
CONTINUOUS
10
315.329
20
-64.5909
11
315.33
21
-64.5864
0
LINE
8
BLACK
6
CONTINUOUS
10
315.33
20
-64.5864
11
315.372
21
-64.4462
0
LINE
8
BLACK
6
CONTINUOUS
10
315.372
20
-64.4462
11
315.373
21
-64.4456
0
LINE
8
BLACK
6
CONTINUOUS
10
315.373
20
-64.4456
11
315.374
21
-64.4414
0
LINE
8
BLACK
6
CONTINUOUS
10
315.374
20
-64.4414
11
315.376
21
-64.4372
0
LINE
8
BLACK
6
CONTINUOUS
10
315.376
20
-64.4372
11
315.445
21
-64.308
0
LINE
8
BLACK
6
CONTINUOUS
10
315.445
20
-64.308
11
315.445
21
-64.308
0
LINE
8
BLACK
6
CONTINUOUS
10
315.445
20
-64.308
11
315.445
21
-64.308
0
LINE
8
BLACK
6
CONTINUOUS
10
315.445
20
-64.308
11
315.445
21
-64.3074
0
LINE
8
BLACK
6
CONTINUOUS
10
315.445
20
-64.3074
11
315.448
21
-64.3037
0
LINE
8
BLACK
6
CONTINUOUS
10
315.448
20
-64.3037
11
315.45
21
-64.2999
0
LINE
8
BLACK
6
CONTINUOUS
10
315.45
20
-64.2999
11
315.543
21
-64.1864
0
LINE
8
BLACK
6
CONTINUOUS
10
315.543
20
-64.1864
11
315.543
21
-64.1864
0
LINE
8
BLACK
6
CONTINUOUS
10
315.543
20
-64.1864
11
315.543
21
-64.1864
0
LINE
8
BLACK
6
CONTINUOUS
10
315.543
20
-64.1864
11
315.543
21
-64.1859
0
LINE
8
BLACK
6
CONTINUOUS
10
315.543
20
-64.1859
11
315.546
21
-64.1827
0
LINE
8
BLACK
6
CONTINUOUS
10
315.546
20
-64.1827
11
315.55
21
-64.1795
0
LINE
8
BLACK
6
CONTINUOUS
10
315.55
20
-64.1795
11
315.662
21
-64.0862
0
LINE
8
BLACK
6
CONTINUOUS
10
315.662
20
-64.0862
11
315.662
21
-64.0862
0
LINE
8
BLACK
6
CONTINUOUS
10
315.662
20
-64.0862
11
315.662
21
-64.0862
0
LINE
8
BLACK
6
CONTINUOUS
10
315.662
20
-64.0862
11
315.663
21
-64.0858
0
LINE
8
BLACK
6
CONTINUOUS
10
315.663
20
-64.0858
11
315.667
21
-64.0833
0
LINE
8
BLACK
6
CONTINUOUS
10
315.667
20
-64.0833
11
315.671
21
-64.0807
0
LINE
8
BLACK
6
CONTINUOUS
10
315.671
20
-64.0807
11
315.799
21
-64.0111
0
LINE
8
BLACK
6
CONTINUOUS
10
315.799
20
-64.0111
11
315.799
21
-64.0111
0
LINE
8
BLACK
6
CONTINUOUS
10
315.799
20
-64.0111
11
315.799
21
-64.0111
0
LINE
8
BLACK
6
CONTINUOUS
10
315.799
20
-64.0111
11
315.8
21
-64.0108
0
LINE
8
BLACK
6
CONTINUOUS
10
315.8
20
-64.0108
11
315.804
21
-64.0091
0
LINE
8
BLACK
6
CONTINUOUS
10
315.804
20
-64.0091
11
315.808
21
-64.0073
0
LINE
8
BLACK
6
CONTINUOUS
10
315.808
20
-64.0073
11
315.948
21
-63.9641
0
LINE
8
BLACK
6
CONTINUOUS
10
315.948
20
-63.9641
11
315.948
21
-63.9641
0
LINE
8
BLACK
6
CONTINUOUS
10
315.948
20
-63.9641
11
315.949
21
-63.9638
0
LINE
8
BLACK
6
CONTINUOUS
10
315.949
20
-63.9638
11
315.953
21
-63.963
0
LINE
8
BLACK
6
CONTINUOUS
10
315.953
20
-63.963
11
315.958
21
-63.9621
0
LINE
8
BLACK
6
CONTINUOUS
10
315.958
20
-63.9621
11
316.103
21
-63.9468
0
LINE
8
BLACK
6
CONTINUOUS
10
316.103
20
-63.9468
11
316.104
21
-63.9467
0
LINE
8
BLACK
6
CONTINUOUS
10
316.104
20
-63.9467
11
316.108
21
-63.9468
0
LINE
8
BLACK
6
CONTINUOUS
10
316.108
20
-63.9468
11
316.113
21
-63.9467
0
LINE
8
BLACK
6
CONTINUOUS
10
316.113
20
-63.9467
11
316.259
21
-63.96
0
LINE
8
BLACK
6
CONTINUOUS
10
316.259
20
-63.96
11
316.259
21
-63.96
0
LINE
8
BLACK
6
CONTINUOUS
10
316.259
20
-63.96
11
316.259
21
-63.96
0
LINE
8
BLACK
6
CONTINUOUS
10
316.259
20
-63.96
11
316.259
21
-63.9601
0
LINE
8
BLACK
6
CONTINUOUS
10
316.259
20
-63.9601
11
316.264
21
-63.961
0
LINE
8
BLACK
6
CONTINUOUS
10
316.264
20
-63.961
11
316.268
21
-63.9618
0
LINE
8
BLACK
6
CONTINUOUS
10
316.268
20
-63.9618
11
316.409
21
-64.0031
0
LINE
8
BLACK
6
CONTINUOUS
10
316.409
20
-64.0031
11
316.409
21
-64.0033
0
LINE
8
BLACK
6
CONTINUOUS
10
316.409
20
-64.0033
11
316.414
21
-64.0051
0
LINE
8
BLACK
6
CONTINUOUS
10
316.414
20
-64.0051
11
316.418
21
-64.0068
0
LINE
8
BLACK
6
CONTINUOUS
10
316.418
20
-64.0068
11
316.548
21
-64.0746
0
LINE
8
BLACK
6
CONTINUOUS
10
316.548
20
-64.0746
11
316.548
21
-64.0746
0
LINE
8
BLACK
6
CONTINUOUS
10
316.548
20
-64.0746
11
316.548
21
-64.0746
0
LINE
8
BLACK
6
CONTINUOUS
10
316.548
20
-64.0746
11
316.548
21
-64.0749
0
LINE
8
BLACK
6
CONTINUOUS
10
316.548
20
-64.0749
11
316.552
21
-64.0774
0
LINE
8
BLACK
6
CONTINUOUS
10
316.552
20
-64.0774
11
316.556
21
-64.08
0
LINE
8
BLACK
6
CONTINUOUS
10
316.556
20
-64.08
11
316.67
21
-64.1717
0
LINE
8
BLACK
6
CONTINUOUS
10
316.67
20
-64.1717
11
316.67
21
-64.1721
0
LINE
8
BLACK
6
CONTINUOUS
10
316.67
20
-64.1721
11
316.674
21
-64.1753
0
LINE
8
BLACK
6
CONTINUOUS
10
316.674
20
-64.1753
11
316.677
21
-64.1785
0
LINE
8
BLACK
6
CONTINUOUS
10
316.677
20
-64.1785
11
316.771
21
-64.2906
0
LINE
8
BLACK
6
CONTINUOUS
10
316.771
20
-64.2906
11
316.771
21
-64.2912
0
LINE
8
BLACK
6
CONTINUOUS
10
316.771
20
-64.2912
11
316.774
21
-64.2949
0
LINE
8
BLACK
6
CONTINUOUS
10
316.774
20
-64.2949
11
316.776
21
-64.2987
0
LINE
8
BLACK
6
CONTINUOUS
10
316.776
20
-64.2987
11
316.847
21
-64.427
0
LINE
8
BLACK
6
CONTINUOUS
10
316.847
20
-64.427
11
316.847
21
-64.4276
0
LINE
8
BLACK
6
CONTINUOUS
10
316.847
20
-64.4276
11
316.849
21
-64.4317
0
LINE
8
BLACK
6
CONTINUOUS
10
316.849
20
-64.4317
11
316.851
21
-64.4359
0
LINE
8
BLACK
6
CONTINUOUS
10
316.851
20
-64.4359
11
316.895
21
-64.5754
0
LINE
8
BLACK
6
CONTINUOUS
10
316.895
20
-64.5754
11
316.895
21
-64.5761
0
LINE
8
BLACK
6
CONTINUOUS
10
316.895
20
-64.5761
11
316.896
21
-64.5805
0
LINE
8
BLACK
6
CONTINUOUS
10
316.896
20
-64.5805
11
316.897
21
-64.585
0
LINE
8
BLACK
6
CONTINUOUS
10
316.897
20
-64.585
11
316.91
21
-64.6965
0
LINE
8
BLACK
6
CONTINUOUS
10
316.91
20
-64.6965
11
319.214
21
-64.6965
0
LINE
8
BLACK
6
CONTINUOUS
10
319.214
20
-64.6965
11
319.214
21
-64.294
0
LINE
8
BLACK
6
CONTINUOUS
10
319.214
20
-64.294
11
319.214
21
-64.2916
0
LINE
8
BLACK
6
CONTINUOUS
10
319.214
20
-64.2916
11
319.214
21
-64.2916
0
LINE
8
BLACK
6
CONTINUOUS
10
319.214
20
-64.2916
11
319.225
21
-64.1751
0
LINE
8
BLACK
6
CONTINUOUS
10
319.225
20
-64.1751
11
319.225
21
-64.1751
0
LINE
8
BLACK
6
CONTINUOUS
10
319.225
20
-64.1751
11
319.225
21
-64.1751
0
LINE
8
BLACK
6
CONTINUOUS
10
319.225
20
-64.1751
11
319.225
21
-64.1744
0
LINE
8
BLACK
6
CONTINUOUS
10
319.225
20
-64.1744
11
319.226
21
-64.17
0
LINE
8
BLACK
6
CONTINUOUS
10
319.226
20
-64.17
11
319.227
21
-64.1655
0
LINE
8
BLACK
6
CONTINUOUS
10
319.227
20
-64.1655
11
319.261
21
-64.0534
0
LINE
8
BLACK
6
CONTINUOUS
10
319.261
20
-64.0534
11
319.261
21
-64.0527
0
LINE
8
BLACK
6
CONTINUOUS
10
319.261
20
-64.0527
11
319.263
21
-64.0486
0
LINE
8
BLACK
6
CONTINUOUS
10
319.263
20
-64.0486
11
319.265
21
-64.0444
0
LINE
8
BLACK
6
CONTINUOUS
10
319.265
20
-64.0444
11
319.32
21
-63.941
0
LINE
8
BLACK
6
CONTINUOUS
10
319.32
20
-63.941
11
319.32
21
-63.941
0
LINE
8
BLACK
6
CONTINUOUS
10
319.32
20
-63.941
11
319.32
21
-63.941
0
LINE
8
BLACK
6
CONTINUOUS
10
319.32
20
-63.941
11
319.32
21
-63.9404
0
LINE
8
BLACK
6
CONTINUOUS
10
319.32
20
-63.9404
11
319.323
21
-63.9367
0
LINE
8
BLACK
6
CONTINUOUS
10
319.323
20
-63.9367
11
319.325
21
-63.9329
0
LINE
8
BLACK
6
CONTINUOUS
10
319.325
20
-63.9329
11
319.399
21
-63.8421
0
LINE
8
BLACK
6
CONTINUOUS
10
319.399
20
-63.8421
11
319.399
21
-63.8421
0
LINE
8
BLACK
6
CONTINUOUS
10
319.399
20
-63.8421
11
319.399
21
-63.8421
0
LINE
8
BLACK
6
CONTINUOUS
10
319.399
20
-63.8421
11
319.4
21
-63.8416
0
LINE
8
BLACK
6
CONTINUOUS
10
319.4
20
-63.8416
11
319.403
21
-63.8384
0
LINE
8
BLACK
6
CONTINUOUS
10
319.403
20
-63.8384
11
319.406
21
-63.8352
0
LINE
8
BLACK
6
CONTINUOUS
10
319.406
20
-63.8352
11
319.496
21
-63.7606
0
LINE
8
BLACK
6
CONTINUOUS
10
319.496
20
-63.7606
11
319.496
21
-63.7605
0
LINE
8
BLACK
6
CONTINUOUS
10
319.496
20
-63.7605
11
319.496
21
-63.7605
0
LINE
8
BLACK
6
CONTINUOUS
10
319.496
20
-63.7605
11
319.497
21
-63.7601
0
LINE
8
BLACK
6
CONTINUOUS
10
319.497
20
-63.7601
11
319.501
21
-63.7576
0
LINE
8
BLACK
6
CONTINUOUS
10
319.501
20
-63.7576
11
319.504
21
-63.7551
0
LINE
8
BLACK
6
CONTINUOUS
10
319.504
20
-63.7551
11
319.607
21
-63.6994
0
LINE
8
BLACK
6
CONTINUOUS
10
319.607
20
-63.6994
11
319.607
21
-63.6994
0
LINE
8
BLACK
6
CONTINUOUS
10
319.607
20
-63.6994
11
319.607
21
-63.6994
0
LINE
8
BLACK
6
CONTINUOUS
10
319.607
20
-63.6994
11
319.608
21
-63.6991
0
LINE
8
BLACK
6
CONTINUOUS
10
319.608
20
-63.6991
11
319.612
21
-63.6974
0
LINE
8
BLACK
6
CONTINUOUS
10
319.612
20
-63.6974
11
319.616
21
-63.6956
0
LINE
8
BLACK
6
CONTINUOUS
10
319.616
20
-63.6956
11
319.728
21
-63.661
0
LINE
8
BLACK
6
CONTINUOUS
10
319.728
20
-63.661
11
319.728
21
-63.661
0
LINE
8
BLACK
6
CONTINUOUS
10
319.728
20
-63.661
11
319.729
21
-63.6608
0
LINE
8
BLACK
6
CONTINUOUS
10
319.729
20
-63.6608
11
319.733
21
-63.6599
0
LINE
8
BLACK
6
CONTINUOUS
10
319.733
20
-63.6599
11
319.738
21
-63.659
0
LINE
8
BLACK
6
CONTINUOUS
10
319.738
20
-63.659
11
319.854
21
-63.6468
0
LINE
8
BLACK
6
CONTINUOUS
10
319.854
20
-63.6468
11
319.855
21
-63.6467
0
LINE
8
BLACK
6
CONTINUOUS
10
319.855
20
-63.6467
11
319.86
21
-63.6467
0
LINE
8
BLACK
6
CONTINUOUS
10
319.86
20
-63.6467
11
319.864
21
-63.6467
0
LINE
8
BLACK
6
CONTINUOUS
10
319.864
20
-63.6467
11
319.981
21
-63.6573
0
LINE
8
BLACK
6
CONTINUOUS
10
319.981
20
-63.6573
11
319.981
21
-63.6573
0
LINE
8
BLACK
6
CONTINUOUS
10
319.981
20
-63.6573
11
319.981
21
-63.6573
0
LINE
8
BLACK
6
CONTINUOUS
10
319.981
20
-63.6573
11
319.981
21
-63.6574
0
LINE
8
BLACK
6
CONTINUOUS
10
319.981
20
-63.6574
11
319.986
21
-63.6583
0
LINE
8
BLACK
6
CONTINUOUS
10
319.986
20
-63.6583
11
319.99
21
-63.6592
0
LINE
8
BLACK
6
CONTINUOUS
10
319.99
20
-63.6592
11
320.103
21
-63.6922
0
LINE
8
BLACK
6
CONTINUOUS
10
320.103
20
-63.6922
11
320.103
21
-63.6924
0
LINE
8
BLACK
6
CONTINUOUS
10
320.103
20
-63.6924
11
320.107
21
-63.6942
0
LINE
8
BLACK
6
CONTINUOUS
10
320.107
20
-63.6942
11
320.112
21
-63.6959
0
LINE
8
BLACK
6
CONTINUOUS
10
320.112
20
-63.6959
11
320.215
21
-63.7501
0
LINE
8
BLACK
6
CONTINUOUS
10
320.215
20
-63.7501
11
320.215
21
-63.7501
0
LINE
8
BLACK
6
CONTINUOUS
10
320.215
20
-63.7501
11
320.215
21
-63.7501
0
LINE
8
BLACK
6
CONTINUOUS
10
320.215
20
-63.7501
11
320.216
21
-63.7505
0
LINE
8
BLACK
6
CONTINUOUS
10
320.216
20
-63.7505
11
320.22
21
-63.753
0
LINE
8
BLACK
6
CONTINUOUS
10
320.22
20
-63.753
11
320.224
21
-63.7555
0
LINE
8
BLACK
6
CONTINUOUS
10
320.224
20
-63.7555
11
320.315
21
-63.8288
0
LINE
8
BLACK
6
CONTINUOUS
10
320.315
20
-63.8288
11
320.315
21
-63.8293
0
LINE
8
BLACK
6
CONTINUOUS
10
320.315
20
-63.8293
11
320.319
21
-63.8325
0
LINE
8
BLACK
6
CONTINUOUS
10
320.319
20
-63.8325
11
320.322
21
-63.8357
0
LINE
8
BLACK
6
CONTINUOUS
10
320.322
20
-63.8357
11
320.397
21
-63.9254
0
LINE
8
BLACK
6
CONTINUOUS
10
320.397
20
-63.9254
11
320.398
21
-63.9259
0
LINE
8
BLACK
6
CONTINUOUS
10
320.398
20
-63.9259
11
320.4
21
-63.9297
0
LINE
8
BLACK
6
CONTINUOUS
10
320.4
20
-63.9297
11
320.403
21
-63.9334
0
LINE
8
BLACK
6
CONTINUOUS
10
320.403
20
-63.9334
11
320.459
21
-64.036
0
LINE
8
BLACK
6
CONTINUOUS
10
320.459
20
-64.036
11
320.459
21
-64.0367
0
LINE
8
BLACK
6
CONTINUOUS
10
320.459
20
-64.0367
11
320.461
21
-64.0408
0
LINE
8
BLACK
6
CONTINUOUS
10
320.461
20
-64.0408
11
320.463
21
-64.045
0
LINE
8
BLACK
6
CONTINUOUS
10
320.463
20
-64.045
11
320.498
21
-64.1566
0
LINE
8
BLACK
6
CONTINUOUS
10
320.498
20
-64.1566
11
320.498
21
-64.1573
0
LINE
8
BLACK
6
CONTINUOUS
10
320.498
20
-64.1573
11
320.499
21
-64.1617
0
LINE
8
BLACK
6
CONTINUOUS
10
320.499
20
-64.1617
11
320.5
21
-64.1662
0
LINE
8
BLACK
6
CONTINUOUS
10
320.5
20
-64.1662
11
320.513
21
-64.2825
0
LINE
8
BLACK
6
CONTINUOUS
10
320.513
20
-64.2825
11
320.513
21
-64.2832
0
LINE
8
BLACK
6
CONTINUOUS
10
320.513
20
-64.2832
11
320.513
21
-64.2855
0
LINE
8
BLACK
6
CONTINUOUS
10
320.513
20
-64.2855
11
320.514
21
-64.2878
0
LINE
8
BLACK
6
CONTINUOUS
10
320.514
20
-64.2878
11
320.514
21
-64.2939
0
LINE
8
BLACK
6
CONTINUOUS
10
320.514
20
-64.2939
11
320.514
21
-64.294
0
LINE
8
BLACK
6
CONTINUOUS
10
320.514
20
-64.294
11
320.514
21
-64.6965
0
LINE
8
BLACK
6
CONTINUOUS
10
320.514
20
-64.6965
11
329.939
21
-64.6965
0
LINE
8
BLACK
6
CONTINUOUS
10
329.939
20
-64.6965
11
329.939
21
-52.6215
0
LINE
8
BLACK
6
CONTINUOUS
10
329.939
20
-52.6215
11
320.514
21
-52.6215
0
LINE
8
BLACK
6
CONTINUOUS
10
320.514
20
-52.6215
11
320.514
21
-53.0239
0
LINE
8
BLACK
6
CONTINUOUS
10
320.514
20
-53.0239
11
320.513
21
-53.0264
0
LINE
8
BLACK
6
CONTINUOUS
10
320.513
20
-53.0264
11
320.513
21
-53.0264
0
LINE
8
BLACK
6
CONTINUOUS
10
320.513
20
-53.0264
11
320.502
21
-53.1429
0
LINE
8
BLACK
6
CONTINUOUS
10
320.502
20
-53.1429
11
320.502
21
-53.1429
0
LINE
8
BLACK
6
CONTINUOUS
10
320.502
20
-53.1429
11
320.502
21
-53.1429
0
LINE
8
BLACK
6
CONTINUOUS
10
320.502
20
-53.1429
11
320.502
21
-53.1436
0
LINE
8
BLACK
6
CONTINUOUS
10
320.502
20
-53.1436
11
320.501
21
-53.148
0
LINE
8
BLACK
6
CONTINUOUS
10
320.501
20
-53.148
11
320.5
21
-53.1525
0
LINE
8
BLACK
6
CONTINUOUS
10
320.5
20
-53.1525
11
320.466
21
-53.2646
0
LINE
8
BLACK
6
CONTINUOUS
10
320.466
20
-53.2646
11
320.466
21
-53.2653
0
LINE
8
BLACK
6
CONTINUOUS
10
320.466
20
-53.2653
11
320.464
21
-53.2694
0
LINE
8
BLACK
6
CONTINUOUS
10
320.464
20
-53.2694
11
320.463
21
-53.2736
0
LINE
8
BLACK
6
CONTINUOUS
10
320.463
20
-53.2736
11
320.408
21
-53.377
0
LINE
8
BLACK
6
CONTINUOUS
10
320.408
20
-53.377
11
320.408
21
-53.377
0
LINE
8
BLACK
6
CONTINUOUS
10
320.408
20
-53.377
11
320.408
21
-53.377
0
LINE
8
BLACK
6
CONTINUOUS
10
320.408
20
-53.377
11
320.407
21
-53.3776
0
LINE
8
BLACK
6
CONTINUOUS
10
320.407
20
-53.3776
11
320.405
21
-53.3813
0
LINE
8
BLACK
6
CONTINUOUS
10
320.405
20
-53.3813
11
320.402
21
-53.3851
0
LINE
8
BLACK
6
CONTINUOUS
10
320.402
20
-53.3851
11
320.328
21
-53.4759
0
LINE
8
BLACK
6
CONTINUOUS
10
320.328
20
-53.4759
11
320.328
21
-53.4764
0
LINE
8
BLACK
6
CONTINUOUS
10
320.328
20
-53.4764
11
320.325
21
-53.4796
0
LINE
8
BLACK
6
CONTINUOUS
10
320.325
20
-53.4796
11
320.321
21
-53.4828
0
LINE
8
BLACK
6
CONTINUOUS
10
320.321
20
-53.4828
11
320.231
21
-53.5574
0
LINE
8
BLACK
6
CONTINUOUS
10
320.231
20
-53.5574
11
320.231
21
-53.5579
0
LINE
8
BLACK
6
CONTINUOUS
10
320.231
20
-53.5579
11
320.227
21
-53.5604
0
LINE
8
BLACK
6
CONTINUOUS
10
320.227
20
-53.5604
11
320.223
21
-53.5629
0
LINE
8
BLACK
6
CONTINUOUS
10
320.223
20
-53.5629
11
320.12
21
-53.6186
0
LINE
8
BLACK
6
CONTINUOUS
10
320.12
20
-53.6186
11
320.12
21
-53.6186
0
LINE
8
BLACK
6
CONTINUOUS
10
320.12
20
-53.6186
11
320.12
21
-53.6186
0
LINE
8
BLACK
6
CONTINUOUS
10
320.12
20
-53.6186
11
320.119
21
-53.6189
0
LINE
8
BLACK
6
CONTINUOUS
10
320.119
20
-53.6189
11
320.115
21
-53.6206
0
LINE
8
BLACK
6
CONTINUOUS
10
320.115
20
-53.6206
11
320.111
21
-53.6224
0
LINE
8
BLACK
6
CONTINUOUS
10
320.111
20
-53.6224
11
319.999
21
-53.657
0
LINE
8
BLACK
6
CONTINUOUS
10
319.999
20
-53.657
11
319.998
21
-53.6572
0
LINE
8
BLACK
6
CONTINUOUS
10
319.998
20
-53.6572
11
319.994
21
-53.6581
0
LINE
8
BLACK
6
CONTINUOUS
10
319.994
20
-53.6581
11
319.99
21
-53.659
0
LINE
8
BLACK
6
CONTINUOUS
10
319.99
20
-53.659
11
319.873
21
-53.6712
0
LINE
8
BLACK
6
CONTINUOUS
10
319.873
20
-53.6712
11
319.873
21
-53.6712
0
LINE
8
BLACK
6
CONTINUOUS
10
319.873
20
-53.6712
11
319.872
21
-53.6713
0
LINE
8
BLACK
6
CONTINUOUS
10
319.872
20
-53.6713
11
319.868
21
-53.6712
0
LINE
8
BLACK
6
CONTINUOUS
10
319.868
20
-53.6712
11
319.863
21
-53.6713
0
LINE
8
BLACK
6
CONTINUOUS
10
319.863
20
-53.6713
11
319.747
21
-53.6607
0
LINE
8
BLACK
6
CONTINUOUS
10
319.747
20
-53.6607
11
319.746
21
-53.6606
0
LINE
8
BLACK
6
CONTINUOUS
10
319.746
20
-53.6606
11
319.742
21
-53.6597
0
LINE
8
BLACK
6
CONTINUOUS
10
319.742
20
-53.6597
11
319.737
21
-53.6588
0
LINE
8
BLACK
6
CONTINUOUS
10
319.737
20
-53.6588
11
319.625
21
-53.6258
0
LINE
8
BLACK
6
CONTINUOUS
10
319.625
20
-53.6258
11
319.624
21
-53.6256
0
LINE
8
BLACK
6
CONTINUOUS
10
319.624
20
-53.6256
11
319.62
21
-53.6238
0
LINE
8
BLACK
6
CONTINUOUS
10
319.62
20
-53.6238
11
319.616
21
-53.6221
0
LINE
8
BLACK
6
CONTINUOUS
10
319.616
20
-53.6221
11
319.512
21
-53.5679
0
LINE
8
BLACK
6
CONTINUOUS
10
319.512
20
-53.5679
11
319.512
21
-53.5679
0
LINE
8
BLACK
6
CONTINUOUS
10
319.512
20
-53.5679
11
319.512
21
-53.5679
0
LINE
8
BLACK
6
CONTINUOUS
10
319.512
20
-53.5679
11
319.511
21
-53.5675
0
LINE
8
BLACK
6
CONTINUOUS
10
319.511
20
-53.5675
11
319.508
21
-53.565
0
LINE
8
BLACK
6
CONTINUOUS
10
319.508
20
-53.565
11
319.504
21
-53.5625
0
LINE
8
BLACK
6
CONTINUOUS
10
319.504
20
-53.5625
11
319.413
21
-53.4891
0
LINE
8
BLACK
6
CONTINUOUS
10
319.413
20
-53.4891
11
319.412
21
-53.4887
0
LINE
8
BLACK
6
CONTINUOUS
10
319.412
20
-53.4887
11
319.409
21
-53.4855
0
LINE
8
BLACK
6
CONTINUOUS
10
319.409
20
-53.4855
11
319.406
21
-53.4823
0
LINE
8
BLACK
6
CONTINUOUS
10
319.406
20
-53.4823
11
319.33
21
-53.3926
0
LINE
8
BLACK
6
CONTINUOUS
10
319.33
20
-53.3926
11
319.33
21
-53.3921
0
LINE
8
BLACK
6
CONTINUOUS
10
319.33
20
-53.3921
11
319.327
21
-53.3883
0
LINE
8
BLACK
6
CONTINUOUS
10
319.327
20
-53.3883
11
319.325
21
-53.3846
0
LINE
8
BLACK
6
CONTINUOUS
10
319.325
20
-53.3846
11
319.268
21
-53.282
0
LINE
8
BLACK
6
CONTINUOUS
10
319.268
20
-53.282
11
319.268
21
-53.2819
0
LINE
8
BLACK
6
CONTINUOUS
10
319.268
20
-53.2819
11
319.268
21
-53.2819
0
LINE
8
BLACK
6
CONTINUOUS
10
319.268
20
-53.2819
11
319.268
21
-53.2813
0
LINE
8
BLACK
6
CONTINUOUS
10
319.268
20
-53.2813
11
319.266
21
-53.2772
0
LINE
8
BLACK
6
CONTINUOUS
10
319.266
20
-53.2772
11
319.265
21
-53.273
0
LINE
8
BLACK
6
CONTINUOUS
10
319.265
20
-53.273
11
319.229
21
-53.1614
0
LINE
8
BLACK
6
CONTINUOUS
10
319.229
20
-53.1614
11
319.229
21
-53.1614
0
LINE
8
BLACK
6
CONTINUOUS
10
319.229
20
-53.1614
11
319.229
21
-53.1614
0
LINE
8
BLACK
6
CONTINUOUS
10
319.229
20
-53.1614
11
319.229
21
-53.1607
0
LINE
8
BLACK
6
CONTINUOUS
10
319.229
20
-53.1607
11
319.228
21
-53.1563
0
LINE
8
BLACK
6
CONTINUOUS
10
319.228
20
-53.1563
11
319.227
21
-53.1518
0
LINE
8
BLACK
6
CONTINUOUS
10
319.227
20
-53.1518
11
319.214
21
-53.0354
0
LINE
8
BLACK
6
CONTINUOUS
10
319.214
20
-53.0354
11
319.214
21
-53.0348
0
LINE
8
BLACK
6
CONTINUOUS
10
319.214
20
-53.0348
11
319.214
21
-53.0325
0
LINE
8
BLACK
6
CONTINUOUS
10
319.214
20
-53.0325
11
319.214
21
-53.0302
0
LINE
8
BLACK
6
CONTINUOUS
10
319.214
20
-53.0302
11
319.214
21
-53.0241
0
LINE
8
BLACK
6
CONTINUOUS
10
319.214
20
-53.0241
11
319.214
21
-53.0239
0
LINE
8
BLACK
6
CONTINUOUS
10
319.214
20
-53.0239
11
319.214
21
-52.6215
0
LINE
8
BLACK
6
CONTINUOUS
10
319.214
20
-52.6215
11
316.909
21
-52.6215
0
LINE
8
BLACK
6
CONTINUOUS
10
316.909
20
-52.6215
11
316.899
21
-52.722
0
LINE
8
BLACK
6
CONTINUOUS
10
316.899
20
-52.722
11
316.899
21
-52.722
0
LINE
8
BLACK
6
CONTINUOUS
10
316.899
20
-52.722
11
316.899
21
-52.7221
0
LINE
8
BLACK
6
CONTINUOUS
10
316.899
20
-52.7221
11
316.899
21
-52.7227
0
LINE
8
BLACK
6
CONTINUOUS
10
316.899
20
-52.7227
11
316.898
21
-52.7271
0
LINE
8
BLACK
6
CONTINUOUS
10
316.898
20
-52.7271
11
316.897
21
-52.7316
0
LINE
8
BLACK
6
CONTINUOUS
10
316.897
20
-52.7316
11
316.855
21
-52.8717
0
LINE
8
BLACK
6
CONTINUOUS
10
316.855
20
-52.8717
11
316.855
21
-52.8724
0
LINE
8
BLACK
6
CONTINUOUS
10
316.855
20
-52.8724
11
316.853
21
-52.8766
0
LINE
8
BLACK
6
CONTINUOUS
10
316.853
20
-52.8766
11
316.851
21
-52.8808
0
LINE
8
BLACK
6
CONTINUOUS
10
316.851
20
-52.8808
11
316.783
21
-53.01
0
LINE
8
BLACK
6
CONTINUOUS
10
316.783
20
-53.01
11
316.782
21
-53.0106
0
LINE
8
BLACK
6
CONTINUOUS
10
316.782
20
-53.0106
11
316.78
21
-53.0144
0
LINE
8
BLACK
6
CONTINUOUS
10
316.78
20
-53.0144
11
316.777
21
-53.0181
0
LINE
8
BLACK
6
CONTINUOUS
10
316.777
20
-53.0181
11
316.685
21
-53.1316
0
LINE
8
BLACK
6
CONTINUOUS
10
316.685
20
-53.1316
11
316.685
21
-53.1316
0
LINE
8
BLACK
6
CONTINUOUS
10
316.685
20
-53.1316
11
316.685
21
-53.1316
0
LINE
8
BLACK
6
CONTINUOUS
10
316.685
20
-53.1316
11
316.684
21
-53.1321
0
LINE
8
BLACK
6
CONTINUOUS
10
316.684
20
-53.1321
11
316.681
21
-53.1353
0
LINE
8
BLACK
6
CONTINUOUS
10
316.681
20
-53.1353
11
316.678
21
-53.1385
0
LINE
8
BLACK
6
CONTINUOUS
10
316.678
20
-53.1385
11
316.565
21
-53.2318
0
LINE
8
BLACK
6
CONTINUOUS
10
316.565
20
-53.2318
11
316.564
21
-53.2322
0
LINE
8
BLACK
6
CONTINUOUS
10
316.564
20
-53.2322
11
316.561
21
-53.2347
0
LINE
8
BLACK
6
CONTINUOUS
10
316.561
20
-53.2347
11
316.557
21
-53.2373
0
LINE
8
BLACK
6
CONTINUOUS
10
316.557
20
-53.2373
11
316.428
21
-53.3069
0
LINE
8
BLACK
6
CONTINUOUS
10
316.428
20
-53.3069
11
316.428
21
-53.3069
0
LINE
8
BLACK
6
CONTINUOUS
10
316.428
20
-53.3069
11
316.428
21
-53.3069
0
LINE
8
BLACK
6
CONTINUOUS
10
316.428
20
-53.3069
11
316.428
21
-53.3072
0
LINE
8
BLACK
6
CONTINUOUS
10
316.428
20
-53.3072
11
316.423
21
-53.3089
0
LINE
8
BLACK
6
CONTINUOUS
10
316.423
20
-53.3089
11
316.419
21
-53.3107
0
LINE
8
BLACK
6
CONTINUOUS
10
316.419
20
-53.3107
11
316.279
21
-53.3539
0
LINE
8
BLACK
6
CONTINUOUS
10
316.279
20
-53.3539
11
316.279
21
-53.3539
0
LINE
8
BLACK
6
CONTINUOUS
10
316.279
20
-53.3539
11
316.279
21
-53.3541
0
LINE
8
BLACK
6
CONTINUOUS
10
316.279
20
-53.3541
11
316.274
21
-53.355
0
LINE
8
BLACK
6
CONTINUOUS
10
316.274
20
-53.355
11
316.27
21
-53.3559
0
LINE
8
BLACK
6
CONTINUOUS
10
316.27
20
-53.3559
11
316.124
21
-53.3712
0
LINE
8
BLACK
6
CONTINUOUS
10
316.124
20
-53.3712
11
316.123
21
-53.3713
0
LINE
8
BLACK
6
CONTINUOUS
10
316.123
20
-53.3713
11
316.119
21
-53.3712
0
LINE
8
BLACK
6
CONTINUOUS
10
316.119
20
-53.3712
11
316.114
21
-53.3713
0
LINE
8
BLACK
6
CONTINUOUS
10
316.114
20
-53.3713
11
315.969
21
-53.358
0
LINE
8
BLACK
6
CONTINUOUS
10
315.969
20
-53.358
11
315.968
21
-53.3579
0
LINE
8
BLACK
6
CONTINUOUS
10
315.968
20
-53.3579
11
315.964
21
-53.357
0
LINE
8
BLACK
6
CONTINUOUS
10
315.964
20
-53.357
11
315.959
21
-53.3562
0
LINE
8
BLACK
6
CONTINUOUS
10
315.959
20
-53.3562
11
315.819
21
-53.3148
0
LINE
8
BLACK
6
CONTINUOUS
10
315.819
20
-53.3148
11
315.818
21
-53.3146
0
LINE
8
BLACK
6
CONTINUOUS
10
315.818
20
-53.3146
11
315.814
21
-53.3129
0
LINE
8
BLACK
6
CONTINUOUS
10
315.814
20
-53.3129
11
315.81
21
-53.3112
0
LINE
8
BLACK
6
CONTINUOUS
10
315.81
20
-53.3112
11
315.68
21
-53.2434
0
LINE
8
BLACK
6
CONTINUOUS
10
315.68
20
-53.2434
11
315.68
21
-53.2434
0
LINE
8
BLACK
6
CONTINUOUS
10
315.68
20
-53.2434
11
315.68
21
-53.2434
0
LINE
8
BLACK
6
CONTINUOUS
10
315.68
20
-53.2434
11
315.679
21
-53.243
0
LINE
8
BLACK
6
CONTINUOUS
10
315.679
20
-53.243
11
315.676
21
-53.2405
0
LINE
8
BLACK
6
CONTINUOUS
10
315.676
20
-53.2405
11
315.672
21
-53.238
0
LINE
8
BLACK
6
CONTINUOUS
10
315.672
20
-53.238
11
315.558
21
-53.1463
0
LINE
8
BLACK
6
CONTINUOUS
10
315.558
20
-53.1463
11
315.557
21
-53.1459
0
LINE
8
BLACK
6
CONTINUOUS
10
315.557
20
-53.1459
11
315.554
21
-53.1427
0
LINE
8
BLACK
6
CONTINUOUS
10
315.554
20
-53.1427
11
315.551
21
-53.1395
0
LINE
8
BLACK
6
CONTINUOUS
10
315.551
20
-53.1395
11
315.457
21
-53.0274
0
LINE
8
BLACK
6
CONTINUOUS
10
315.457
20
-53.0274
11
315.457
21
-53.0274
0
LINE
8
BLACK
6
CONTINUOUS
10
315.457
20
-53.0274
11
315.457
21
-53.0274
0
LINE
8
BLACK
6
CONTINUOUS
10
315.457
20
-53.0274
11
315.456
21
-53.0268
0
LINE
8
BLACK
6
CONTINUOUS
10
315.456
20
-53.0268
11
315.454
21
-53.0231
0
LINE
8
BLACK
6
CONTINUOUS
10
315.454
20
-53.0231
11
315.451
21
-53.0193
0
LINE
8
BLACK
6
CONTINUOUS
10
315.451
20
-53.0193
11
315.381
21
-52.891
0
LINE
8
BLACK
6
CONTINUOUS
10
315.381
20
-52.891
11
315.38
21
-52.8904
0
LINE
8
BLACK
6
CONTINUOUS
10
315.38
20
-52.8904
11
315.379
21
-52.8862
0
LINE
8
BLACK
6
CONTINUOUS
10
315.379
20
-52.8862
11
315.377
21
-52.8821
0
LINE
8
BLACK
6
CONTINUOUS
10
315.377
20
-52.8821
11
315.332
21
-52.7425
0
LINE
8
BLACK
6
CONTINUOUS
10
315.332
20
-52.7425
11
315.332
21
-52.7419
0
LINE
8
BLACK
6
CONTINUOUS
10
315.332
20
-52.7419
11
315.331
21
-52.7374
0
LINE
8
BLACK
6
CONTINUOUS
10
315.331
20
-52.7374
11
315.33
21
-52.733
0
LINE
8
BLACK
6
CONTINUOUS
10
315.33
20
-52.733
11
315.314
21
-52.5875
0
LINE
8
BLACK
6
CONTINUOUS
10
315.314
20
-52.5875
11
315.314
21
-52.5868
0
LINE
8
BLACK
6
CONTINUOUS
10
315.314
20
-52.5868
11
315.314
21
-52.5846
0
LINE
8
BLACK
6
CONTINUOUS
10
315.314
20
-52.5846
11
315.314
21
-52.5823
0
LINE
8
BLACK
6
CONTINUOUS
10
315.314
20
-52.5823
11
315.314
21
-52.5741
0
LINE
8
BLACK
6
CONTINUOUS
10
315.314
20
-52.5741
11
315.314
21
-52.5739
0
LINE
8
BLACK
6
CONTINUOUS
10
315.314
20
-52.5739
11
315.314
21
-46.269
0
LINE
8
BLACK
6
CONTINUOUS
10
315.314
20
-46.269
11
315.314
21
-46.2666
0
LINE
8
BLACK
6
CONTINUOUS
10
315.314
20
-46.2666
11
315.328
21
-46.1209
0
LINE
8
BLACK
6
CONTINUOUS
10
315.328
20
-46.1209
11
315.328
21
-46.1209
0
LINE
8
BLACK
6
CONTINUOUS
10
315.328
20
-46.1209
11
315.328
21
-46.1209
0
LINE
8
BLACK
6
CONTINUOUS
10
315.328
20
-46.1209
11
315.328
21
-46.1202
0
LINE
8
BLACK
6
CONTINUOUS
10
315.328
20
-46.1202
11
315.329
21
-46.1159
0
LINE
8
BLACK
6
CONTINUOUS
10
315.329
20
-46.1159
11
315.33
21
-46.1114
0
LINE
8
BLACK
6
CONTINUOUS
10
315.33
20
-46.1114
11
315.372
21
-45.9712
0
LINE
8
BLACK
6
CONTINUOUS
10
315.372
20
-45.9712
11
315.373
21
-45.9706
0
LINE
8
BLACK
6
CONTINUOUS
10
315.373
20
-45.9706
11
315.374
21
-45.9664
0
LINE
8
BLACK
6
CONTINUOUS
10
315.374
20
-45.9664
11
315.376
21
-45.9622
0
LINE
8
BLACK
6
CONTINUOUS
10
315.376
20
-45.9622
11
315.445
21
-45.833
0
LINE
8
BLACK
6
CONTINUOUS
10
315.445
20
-45.833
11
315.445
21
-45.833
0
LINE
8
BLACK
6
CONTINUOUS
10
315.445
20
-45.833
11
315.445
21
-45.833
0
LINE
8
BLACK
6
CONTINUOUS
10
315.445
20
-45.833
11
315.445
21
-45.8324
0
LINE
8
BLACK
6
CONTINUOUS
10
315.445
20
-45.8324
11
315.448
21
-45.8287
0
LINE
8
BLACK
6
CONTINUOUS
10
315.448
20
-45.8287
11
315.45
21
-45.8248
0
LINE
8
BLACK
6
CONTINUOUS
10
315.45
20
-45.8248
11
315.543
21
-45.7114
0
LINE
8
BLACK
6
CONTINUOUS
10
315.543
20
-45.7114
11
315.543
21
-45.7114
0
LINE
8
BLACK
6
CONTINUOUS
10
315.543
20
-45.7114
11
315.543
21
-45.7114
0
LINE
8
BLACK
6
CONTINUOUS
10
315.543
20
-45.7114
11
315.543
21
-45.7109
0
LINE
8
BLACK
6
CONTINUOUS
10
315.543
20
-45.7109
11
315.546
21
-45.7077
0
LINE
8
BLACK
6
CONTINUOUS
10
315.546
20
-45.7077
11
315.55
21
-45.7045
0
LINE
8
BLACK
6
CONTINUOUS
10
315.55
20
-45.7045
11
315.662
21
-45.6112
0
LINE
8
BLACK
6
CONTINUOUS
10
315.662
20
-45.6112
11
315.662
21
-45.6112
0
LINE
8
BLACK
6
CONTINUOUS
10
315.662
20
-45.6112
11
315.662
21
-45.6112
0
LINE
8
BLACK
6
CONTINUOUS
10
315.662
20
-45.6112
11
315.663
21
-45.6107
0
LINE
8
BLACK
6
CONTINUOUS
10
315.663
20
-45.6107
11
315.667
21
-45.6083
0
LINE
8
BLACK
6
CONTINUOUS
10
315.667
20
-45.6083
11
315.671
21
-45.6057
0
LINE
8
BLACK
6
CONTINUOUS
10
315.671
20
-45.6057
11
315.799
21
-45.5361
0
LINE
8
BLACK
6
CONTINUOUS
10
315.799
20
-45.5361
11
315.799
21
-45.5361
0
LINE
8
BLACK
6
CONTINUOUS
10
315.799
20
-45.5361
11
315.799
21
-45.5361
0
LINE
8
BLACK
6
CONTINUOUS
10
315.799
20
-45.5361
11
315.8
21
-45.5358
0
LINE
8
BLACK
6
CONTINUOUS
10
315.8
20
-45.5358
11
315.804
21
-45.5341
0
LINE
8
BLACK
6
CONTINUOUS
10
315.804
20
-45.5341
11
315.808
21
-45.5323
0
LINE
8
BLACK
6
CONTINUOUS
10
315.808
20
-45.5323
11
315.948
21
-45.4891
0
LINE
8
BLACK
6
CONTINUOUS
10
315.948
20
-45.4891
11
315.948
21
-45.489
0
LINE
8
BLACK
6
CONTINUOUS
10
315.948
20
-45.489
11
315.949
21
-45.4888
0
LINE
8
BLACK
6
CONTINUOUS
10
315.949
20
-45.4888
11
315.953
21
-45.488
0
LINE
8
BLACK
6
CONTINUOUS
10
315.953
20
-45.488
11
315.958
21
-45.4871
0
LINE
8
BLACK
6
CONTINUOUS
10
315.958
20
-45.4871
11
316.103
21
-45.4718
0
LINE
8
BLACK
6
CONTINUOUS
10
316.103
20
-45.4718
11
316.104
21
-45.4717
0
LINE
8
BLACK
6
CONTINUOUS
10
316.104
20
-45.4717
11
316.108
21
-45.4718
0
LINE
8
BLACK
6
CONTINUOUS
10
316.108
20
-45.4718
11
316.113
21
-45.4717
0
LINE
8
BLACK
6
CONTINUOUS
10
316.113
20
-45.4717
11
316.259
21
-45.485
0
LINE
8
BLACK
6
CONTINUOUS
10
316.259
20
-45.485
11
316.259
21
-45.485
0
LINE
8
BLACK
6
CONTINUOUS
10
316.259
20
-45.485
11
316.259
21
-45.485
0
LINE
8
BLACK
6
CONTINUOUS
10
316.259
20
-45.485
11
316.259
21
-45.4851
0
LINE
8
BLACK
6
CONTINUOUS
10
316.259
20
-45.4851
11
316.264
21
-45.486
0
LINE
8
BLACK
6
CONTINUOUS
10
316.264
20
-45.486
11
316.268
21
-45.4868
0
LINE
8
BLACK
6
CONTINUOUS
10
316.268
20
-45.4868
11
316.409
21
-45.5281
0
LINE
8
BLACK
6
CONTINUOUS
10
316.409
20
-45.5281
11
316.409
21
-45.5283
0
LINE
8
BLACK
6
CONTINUOUS
10
316.409
20
-45.5283
11
316.414
21
-45.5301
0
LINE
8
BLACK
6
CONTINUOUS
10
316.414
20
-45.5301
11
316.418
21
-45.5318
0
LINE
8
BLACK
6
CONTINUOUS
10
316.418
20
-45.5318
11
316.548
21
-45.5996
0
LINE
8
BLACK
6
CONTINUOUS
10
316.548
20
-45.5996
11
316.548
21
-45.5996
0
LINE
8
BLACK
6
CONTINUOUS
10
316.548
20
-45.5996
11
316.548
21
-45.5996
0
LINE
8
BLACK
6
CONTINUOUS
10
316.548
20
-45.5996
11
316.548
21
-45.5999
0
LINE
8
BLACK
6
CONTINUOUS
10
316.548
20
-45.5999
11
316.552
21
-45.6024
0
LINE
8
BLACK
6
CONTINUOUS
10
316.552
20
-45.6024
11
316.556
21
-45.605
0
LINE
8
BLACK
6
CONTINUOUS
10
316.556
20
-45.605
11
316.67
21
-45.6967
0
LINE
8
BLACK
6
CONTINUOUS
10
316.67
20
-45.6967
11
316.67
21
-45.6971
0
LINE
8
BLACK
6
CONTINUOUS
10
316.67
20
-45.6971
11
316.674
21
-45.7003
0
LINE
8
BLACK
6
CONTINUOUS
10
316.674
20
-45.7003
11
316.677
21
-45.7035
0
LINE
8
BLACK
6
CONTINUOUS
10
316.677
20
-45.7035
11
316.771
21
-45.8156
0
LINE
8
BLACK
6
CONTINUOUS
10
316.771
20
-45.8156
11
316.771
21
-45.8162
0
LINE
8
BLACK
6
CONTINUOUS
10
316.771
20
-45.8162
11
316.774
21
-45.8199
0
LINE
8
BLACK
6
CONTINUOUS
10
316.774
20
-45.8199
11
316.776
21
-45.8237
0
LINE
8
BLACK
6
CONTINUOUS
10
316.776
20
-45.8237
11
316.847
21
-45.952
0
LINE
8
BLACK
6
CONTINUOUS
10
316.847
20
-45.952
11
316.847
21
-45.9526
0
LINE
8
BLACK
6
CONTINUOUS
10
316.847
20
-45.9526
11
316.849
21
-45.9567
0
LINE
8
BLACK
6
CONTINUOUS
10
316.849
20
-45.9567
11
316.851
21
-45.9609
0
LINE
8
BLACK
6
CONTINUOUS
10
316.851
20
-45.9609
11
316.895
21
-46.1004
0
LINE
8
BLACK
6
CONTINUOUS
10
316.895
20
-46.1004
11
316.895
21
-46.1011
0
LINE
8
BLACK
6
CONTINUOUS
10
316.895
20
-46.1011
11
316.896
21
-46.1055
0
LINE
8
BLACK
6
CONTINUOUS
10
316.896
20
-46.1055
11
316.897
21
-46.11
0
LINE
8
BLACK
6
CONTINUOUS
10
316.897
20
-46.11
11
316.91
21
-46.2215
0
LINE
8
BLACK
6
CONTINUOUS
10
316.91
20
-46.2215
11
319.214
21
-46.2215
0
LINE
8
BLACK
6
CONTINUOUS
10
319.214
20
-46.2215
11
319.214
21
-45.819
0
LINE
8
BLACK
6
CONTINUOUS
10
319.214
20
-45.819
11
319.214
21
-45.8156
0
LINE
8
BLACK
6
CONTINUOUS
10
319.214
20
-45.8156
11
319.225
21
-45.7001
0
LINE
8
BLACK
6
CONTINUOUS
10
319.225
20
-45.7001
11
319.225
21
-45.7001
0
LINE
8
BLACK
6
CONTINUOUS
10
319.225
20
-45.7001
11
319.225
21
-45.7001
0
LINE
8
BLACK
6
CONTINUOUS
10
319.225
20
-45.7001
11
319.225
21
-45.6994
0
LINE
8
BLACK
6
CONTINUOUS
10
319.225
20
-45.6994
11
319.226
21
-45.695
0
LINE
8
BLACK
6
CONTINUOUS
10
319.226
20
-45.695
11
319.227
21
-45.6905
0
LINE
8
BLACK
6
CONTINUOUS
10
319.227
20
-45.6905
11
319.261
21
-45.5784
0
LINE
8
BLACK
6
CONTINUOUS
10
319.261
20
-45.5784
11
319.261
21
-45.5777
0
LINE
8
BLACK
6
CONTINUOUS
10
319.261
20
-45.5777
11
319.263
21
-45.5736
0
LINE
8
BLACK
6
CONTINUOUS
10
319.263
20
-45.5736
11
319.265
21
-45.5694
0
LINE
8
BLACK
6
CONTINUOUS
10
319.265
20
-45.5694
11
319.32
21
-45.466
0
LINE
8
BLACK
6
CONTINUOUS
10
319.32
20
-45.466
11
319.32
21
-45.4654
0
LINE
8
BLACK
6
CONTINUOUS
10
319.32
20
-45.4654
11
319.323
21
-45.4616
0
LINE
8
BLACK
6
CONTINUOUS
10
319.323
20
-45.4616
11
319.325
21
-45.4579
0
LINE
8
BLACK
6
CONTINUOUS
10
319.325
20
-45.4579
11
319.399
21
-45.3671
0
LINE
8
BLACK
6
CONTINUOUS
10
319.399
20
-45.3671
11
319.4
21
-45.3666
0
LINE
8
BLACK
6
CONTINUOUS
10
319.4
20
-45.3666
11
319.403
21
-45.3634
0
LINE
8
BLACK
6
CONTINUOUS
10
319.403
20
-45.3634
11
319.406
21
-45.3602
0
LINE
8
BLACK
6
CONTINUOUS
10
319.406
20
-45.3602
11
319.496
21
-45.2856
0
LINE
8
BLACK
6
CONTINUOUS
10
319.496
20
-45.2856
11
319.496
21
-45.2855
0
LINE
8
BLACK
6
CONTINUOUS
10
319.496
20
-45.2855
11
319.496
21
-45.2855
0
LINE
8
BLACK
6
CONTINUOUS
10
319.496
20
-45.2855
11
319.497
21
-45.2851
0
LINE
8
BLACK
6
CONTINUOUS
10
319.497
20
-45.2851
11
319.501
21
-45.2826
0
LINE
8
BLACK
6
CONTINUOUS
10
319.501
20
-45.2826
11
319.504
21
-45.2801
0
LINE
8
BLACK
6
CONTINUOUS
10
319.504
20
-45.2801
11
319.607
21
-45.2244
0
LINE
8
BLACK
6
CONTINUOUS
10
319.607
20
-45.2244
11
319.607
21
-45.2244
0
LINE
8
BLACK
6
CONTINUOUS
10
319.607
20
-45.2244
11
319.607
21
-45.2244
0
LINE
8
BLACK
6
CONTINUOUS
10
319.607
20
-45.2244
11
319.608
21
-45.2241
0
LINE
8
BLACK
6
CONTINUOUS
10
319.608
20
-45.2241
11
319.612
21
-45.2224
0
LINE
8
BLACK
6
CONTINUOUS
10
319.612
20
-45.2224
11
319.616
21
-45.2206
0
LINE
8
BLACK
6
CONTINUOUS
10
319.616
20
-45.2206
11
319.728
21
-45.186
0
LINE
8
BLACK
6
CONTINUOUS
10
319.728
20
-45.186
11
319.728
21
-45.186
0
LINE
8
BLACK
6
CONTINUOUS
10
319.728
20
-45.186
11
319.729
21
-45.1858
0
LINE
8
BLACK
6
CONTINUOUS
10
319.729
20
-45.1858
11
319.733
21
-45.1849
0
LINE
8
BLACK
6
CONTINUOUS
10
319.733
20
-45.1849
11
319.738
21
-45.184
0
LINE
8
BLACK
6
CONTINUOUS
10
319.738
20
-45.184
11
319.854
21
-45.1718
0
LINE
8
BLACK
6
CONTINUOUS
10
319.854
20
-45.1718
11
319.855
21
-45.1717
0
LINE
8
BLACK
6
CONTINUOUS
10
319.855
20
-45.1717
11
319.86
21
-45.1717
0
LINE
8
BLACK
6
CONTINUOUS
10
319.86
20
-45.1717
11
319.864
21
-45.1717
0
LINE
8
BLACK
6
CONTINUOUS
10
319.864
20
-45.1717
11
319.981
21
-45.1823
0
LINE
8
BLACK
6
CONTINUOUS
10
319.981
20
-45.1823
11
319.981
21
-45.1823
0
LINE
8
BLACK
6
CONTINUOUS
10
319.981
20
-45.1823
11
319.981
21
-45.1823
0
LINE
8
BLACK
6
CONTINUOUS
10
319.981
20
-45.1823
11
319.981
21
-45.1824
0
LINE
8
BLACK
6
CONTINUOUS
10
319.981
20
-45.1824
11
319.986
21
-45.1833
0
LINE
8
BLACK
6
CONTINUOUS
10
319.986
20
-45.1833
11
319.99
21
-45.1842
0
LINE
8
BLACK
6
CONTINUOUS
10
319.99
20
-45.1842
11
320.103
21
-45.2172
0
LINE
8
BLACK
6
CONTINUOUS
10
320.103
20
-45.2172
11
320.103
21
-45.2174
0
LINE
8
BLACK
6
CONTINUOUS
10
320.103
20
-45.2174
11
320.107
21
-45.2192
0
LINE
8
BLACK
6
CONTINUOUS
10
320.107
20
-45.2192
11
320.112
21
-45.2209
0
LINE
8
BLACK
6
CONTINUOUS
10
320.112
20
-45.2209
11
320.215
21
-45.2751
0
LINE
8
BLACK
6
CONTINUOUS
10
320.215
20
-45.2751
11
320.215
21
-45.2751
0
LINE
8
BLACK
6
CONTINUOUS
10
320.215
20
-45.2751
11
320.215
21
-45.2751
0
LINE
8
BLACK
6
CONTINUOUS
10
320.215
20
-45.2751
11
320.216
21
-45.2755
0
LINE
8
BLACK
6
CONTINUOUS
10
320.216
20
-45.2755
11
320.22
21
-45.278
0
LINE
8
BLACK
6
CONTINUOUS
10
320.22
20
-45.278
11
320.224
21
-45.2805
0
LINE
8
BLACK
6
CONTINUOUS
10
320.224
20
-45.2805
11
320.315
21
-45.3538
0
LINE
8
BLACK
6
CONTINUOUS
10
320.315
20
-45.3538
11
320.315
21
-45.3538
0
LINE
8
BLACK
6
CONTINUOUS
10
320.315
20
-45.3538
11
320.315
21
-45.3538
0
LINE
8
BLACK
6
CONTINUOUS
10
320.315
20
-45.3538
11
320.315
21
-45.3543
0
LINE
8
BLACK
6
CONTINUOUS
10
320.315
20
-45.3543
11
320.319
21
-45.3575
0
LINE
8
BLACK
6
CONTINUOUS
10
320.319
20
-45.3575
11
320.322
21
-45.3607
0
LINE
8
BLACK
6
CONTINUOUS
10
320.322
20
-45.3607
11
320.397
21
-45.4504
0
LINE
8
BLACK
6
CONTINUOUS
10
320.397
20
-45.4504
11
320.398
21
-45.4509
0
LINE
8
BLACK
6
CONTINUOUS
10
320.398
20
-45.4509
11
320.4
21
-45.4547
0
LINE
8
BLACK
6
CONTINUOUS
10
320.4
20
-45.4547
11
320.403
21
-45.4584
0
LINE
8
BLACK
6
CONTINUOUS
10
320.403
20
-45.4584
11
320.459
21
-45.561
0
LINE
8
BLACK
6
CONTINUOUS
10
320.459
20
-45.561
11
320.459
21
-45.561
0
LINE
8
BLACK
6
CONTINUOUS
10
320.459
20
-45.561
11
320.459
21
-45.561
0
LINE
8
BLACK
6
CONTINUOUS
10
320.459
20
-45.561
11
320.459
21
-45.5617
0
LINE
8
BLACK
6
CONTINUOUS
10
320.459
20
-45.5617
11
320.461
21
-45.5658
0
LINE
8
BLACK
6
CONTINUOUS
10
320.461
20
-45.5658
11
320.463
21
-45.57
0
LINE
8
BLACK
6
CONTINUOUS
10
320.463
20
-45.57
11
320.498
21
-45.6816
0
LINE
8
BLACK
6
CONTINUOUS
10
320.498
20
-45.6816
11
320.498
21
-45.6816
0
LINE
8
BLACK
6
CONTINUOUS
10
320.498
20
-45.6816
11
320.498
21
-45.6816
0
LINE
8
BLACK
6
CONTINUOUS
10
320.498
20
-45.6816
11
320.498
21
-45.6823
0
LINE
8
BLACK
6
CONTINUOUS
10
320.498
20
-45.6823
11
320.499
21
-45.6867
0
LINE
8
BLACK
6
CONTINUOUS
10
320.499
20
-45.6867
11
320.5
21
-45.6912
0
LINE
8
BLACK
6
CONTINUOUS
10
320.5
20
-45.6912
11
320.513
21
-45.8075
0
LINE
8
BLACK
6
CONTINUOUS
10
320.513
20
-45.8075
11
320.513
21
-45.8082
0
LINE
8
BLACK
6
CONTINUOUS
10
320.513
20
-45.8082
11
320.513
21
-45.8105
0
LINE
8
BLACK
6
CONTINUOUS
10
320.513
20
-45.8105
11
320.514
21
-45.8128
0
LINE
8
BLACK
6
CONTINUOUS
10
320.514
20
-45.8128
11
320.514
21
-45.8189
0
LINE
8
BLACK
6
CONTINUOUS
10
320.514
20
-45.8189
11
320.514
21
-45.819
0
LINE
8
BLACK
6
CONTINUOUS
10
320.514
20
-45.819
11
320.514
21
-46.2215
0
LINE
8
BLACK
6
CONTINUOUS
10
320.514
20
-46.2215
11
329.936
21
-46.2215
0
LINE
8
BLACK
6
CONTINUOUS
10
329.936
20
-46.2215
11
329.869
21
-45.5904
0
LINE
8
BLACK
6
CONTINUOUS
10
329.869
20
-45.5904
11
329.674
21
-44.9588
0
LINE
8
BLACK
6
CONTINUOUS
10
329.674
20
-44.9588
11
329.359
21
-44.3773
0
LINE
8
BLACK
6
CONTINUOUS
10
329.359
20
-44.3773
11
328.938
21
-43.8679
0
LINE
8
BLACK
6
CONTINUOUS
10
328.938
20
-43.8679
11
328.426
21
-43.4501
0
LINE
8
BLACK
6
CONTINUOUS
10
328.426
20
-43.4501
11
327.842
21
-43.1397
0
LINE
8
BLACK
6
CONTINUOUS
10
327.842
20
-43.1397
11
327.209
21
-42.9486
0
LINE
8
BLACK
6
CONTINUOUS
10
327.209
20
-42.9486
11
326.55
21
-42.884
0
LINE
8
BLACK
6
CONTINUOUS
10
326.55
20
-42.884
11
202.038
21
-42.884
0
LINE
8
BLACK
6
CONTINUOUS
10
202.038
20
-42.884
11
202.037
21
-42.884
0
LINE
8
BLACK
6
CONTINUOUS
10
202.037
20
-42.884
11
202.011
21
-42.8836
0
LINE
8
BLACK
6
CONTINUOUS
10
202.011
20
-42.8836
11
201.217
21
-42.9528
0
LINE
8
BLACK
6
CONTINUOUS
10
201.217
20
-42.9528
11
200.454
21
-43.1745
0
LINE
8
BLACK
6
CONTINUOUS
10
200.454
20
-43.1745
11
199.747
21
-43.5404
0
LINE
8
BLACK
6
CONTINUOUS
10
199.747
20
-43.5404
11
199.126
21
-44.0364
0
LINE
8
BLACK
6
CONTINUOUS
10
199.126
20
-44.0364
11
198.612
21
-44.6438
0
LINE
8
BLACK
6
CONTINUOUS
10
198.612
20
-44.6438
11
198.226
21
-45.3394
0
LINE
8
BLACK
6
CONTINUOUS
10
198.226
20
-45.3394
11
197.983
21
-46.0967
0
LINE
8
BLACK
6
CONTINUOUS
10
197.983
20
-46.0967
11
197.896
21
-46.8461
0
LINE
8
BLACK
6
CONTINUOUS
10
197.896
20
-46.8461
11
197.902
21
-46.8508
0
LINE
8
BLACK
6
CONTINUOUS
10
197.902
20
-46.8508
11
197.908
21
-46.8584
0
LINE
8
BLACK
6
CONTINUOUS
10
197.908
20
-46.8584
11
197.912
21
-46.8671
0
LINE
8
BLACK
6
CONTINUOUS
10
197.912
20
-46.8671
11
197.915
21
-46.8765
0
LINE
8
BLACK
6
CONTINUOUS
10
197.915
20
-46.8765
11
197.916
21
-46.8839
0
LINE
8
BLACK
6
CONTINUOUS
10
197.916
20
-46.8839
11
197.916
21
-112.086
0
LINE
8
BLACK
6
CONTINUOUS
10
197.916
20
-112.086
11
197.915
21
-112.094
0
LINE
8
BLACK
6
CONTINUOUS
10
197.915
20
-112.094
11
197.912
21
-112.103
0
LINE
8
BLACK
6
CONTINUOUS
10
197.912
20
-112.103
11
197.908
21
-112.112
0
LINE
8
BLACK
6
CONTINUOUS
10
197.908
20
-112.112
11
197.902
21
-112.12
0
LINE
8
BLACK
6
CONTINUOUS
10
197.902
20
-112.12
11
197.894
21
-112.126
0
LINE
8
BLACK
6
CONTINUOUS
10
197.894
20
-112.126
11
197.893
21
-112.126
0
LINE
8
BLACK
6
CONTINUOUS
10
197.893
20
-112.126
11
197.974
21
-112.903
0
LINE
8
BLACK
6
CONTINUOUS
10
197.974
20
-112.903
11
198.21
21
-113.663
0
LINE
8
BLACK
6
CONTINUOUS
10
198.21
20
-113.663
11
198.588
21
-114.363
0
LINE
8
BLACK
6
CONTINUOUS
10
198.588
20
-114.363
11
199.095
21
-114.975
0
LINE
8
BLACK
6
CONTINUOUS
10
199.095
20
-114.975
11
199.711
21
-115.478
0
LINE
8
BLACK
6
CONTINUOUS
10
199.711
20
-115.478
11
200.413
21
-115.851
0
LINE
8
BLACK
6
CONTINUOUS
10
200.413
20
-115.851
11
201.175
21
-116.081
0
LINE
8
BLACK
6
CONTINUOUS
10
201.175
20
-116.081
11
201.967
21
-116.159
0
LINE
8
BLACK
6
CONTINUOUS
10
201.967
20
-116.159
11
308.968
21
-116.159
0
LINE
8
BLACK
6
CONTINUOUS
10
308.968
20
-116.159
11
308.981
21
-116.159
0
LINE
8
BLACK
6
CONTINUOUS
10
308.981
20
-116.159
11
309.734
21
-116.082
0
LINE
8
BLACK
6
CONTINUOUS
10
309.734
20
-116.082
11
310.458
21
-115.861
0
LINE
8
BLACK
6
CONTINUOUS
10
310.458
20
-115.861
11
311.124
21
-115.504
0
LINE
8
BLACK
6
CONTINUOUS
10
311.124
20
-115.504
11
311.709
21
-115.023
0
LINE
8
BLACK
6
CONTINUOUS
10
311.709
20
-115.023
11
319.022
21
-107.558
0
LINE
8
BLACK
6
CONTINUOUS
10
319.022
20
-107.558
11
319.025
21
-107.556
0
LINE
8
BLACK
6
CONTINUOUS
10
319.025
20
-107.556
11
319.025
21
-107.555
0
LINE
8
BLACK
6
CONTINUOUS
10
319.025
20
-107.555
11
319.611
21
-107.074
0
LINE
8
BLACK
6
CONTINUOUS
10
319.611
20
-107.074
11
319.611
21
-107.074
0
LINE
8
BLACK
6
CONTINUOUS
10
319.611
20
-107.074
11
319.613
21
-107.072
0
LINE
8
BLACK
6
CONTINUOUS
10
319.613
20
-107.072
11
319.615
21
-107.071
0
LINE
8
BLACK
6
CONTINUOUS
10
319.615
20
-107.071
11
320.286
21
-106.711
0
LINE
8
BLACK
6
CONTINUOUS
10
320.286
20
-106.711
11
320.286
21
-106.711
0
LINE
8
BLACK
6
CONTINUOUS
10
320.286
20
-106.711
11
320.286
21
-106.711
0
LINE
8
BLACK
6
CONTINUOUS
10
320.286
20
-106.711
11
320.286
21
-106.711
0
LINE
8
BLACK
6
CONTINUOUS
10
320.286
20
-106.711
11
320.288
21
-106.71
0
LINE
8
BLACK
6
CONTINUOUS
10
320.288
20
-106.71
11
320.29
21
-106.71
0
LINE
8
BLACK
6
CONTINUOUS
10
320.29
20
-106.71
11
321.018
21
-106.487
0
LINE
8
BLACK
6
CONTINUOUS
10
321.018
20
-106.487
11
321.019
21
-106.487
0
LINE
8
BLACK
6
CONTINUOUS
10
321.019
20
-106.487
11
321.021
21
-106.487
0
LINE
8
BLACK
6
CONTINUOUS
10
321.021
20
-106.487
11
321.023
21
-106.486
0
LINE
8
BLACK
6
CONTINUOUS
10
321.023
20
-106.486
11
321.78
21
-106.409
0
LINE
8
BLACK
6
CONTINUOUS
10
321.78
20
-106.409
11
321.781
21
-106.409
0
LINE
8
BLACK
6
CONTINUOUS
10
321.781
20
-106.409
11
321.782
21
-106.409
0
LINE
8
BLACK
6
CONTINUOUS
10
321.782
20
-106.409
11
321.783
21
-106.409
0
LINE
8
BLACK
6
CONTINUOUS
10
321.783
20
-106.409
11
321.795
21
-106.409
0
LINE
8
BLACK
6
CONTINUOUS
10
321.795
20
-106.409
11
321.795
21
-106.409
0
LINE
8
BLACK
6
CONTINUOUS
10
321.795
20
-106.409
11
326.064
21
-106.409
0
LINE
8
BLACK
6
CONTINUOUS
10
326.064
20
-106.409
11
326.09
21
-106.409
0
LINE
8
BLACK
6
CONTINUOUS
10
326.09
20
-106.409
11
326.843
21
-106.33
0
LINE
8
BLACK
6
CONTINUOUS
10
326.843
20
-106.33
11
327.565
21
-106.106
0
LINE
8
BLACK
6
CONTINUOUS
10
327.565
20
-106.106
11
328.231
21
-105.746
0
LINE
8
BLACK
6
CONTINUOUS
10
328.231
20
-105.746
11
328.813
21
-105.264
0
LINE
8
BLACK
6
CONTINUOUS
10
328.813
20
-105.264
11
329.291
21
-104.678
0
LINE
8
BLACK
6
CONTINUOUS
10
329.291
20
-104.678
11
329.646
21
-104.011
0
LINE
8
BLACK
6
CONTINUOUS
10
329.646
20
-104.011
11
329.865
21
-103.287
0
LINE
8
BLACK
6
CONTINUOUS
10
329.865
20
-103.287
11
329.939
21
-102.533
0
LINE
8
BLACK
6
CONTINUOUS
10
329.939
20
-102.533
11
329.939
21
-71.0965
0
LINE
8
BLACK
6
CONTINUOUS
10
329.939
20
-71.0965
11
320.514
21
-71.0965
0
LINE
8
BLACK
6
CONTINUOUS
10
320.514
20
-71.0965
11
320.514
21
-71.4989
0
LINE
8
BLACK
6
CONTINUOUS
10
320.514
20
-71.4989
11
320.513
21
-71.5014
0
LINE
8
BLACK
6
CONTINUOUS
10
320.513
20
-71.5014
11
320.513
21
-71.5014
0
LINE
8
BLACK
6
CONTINUOUS
10
320.513
20
-71.5014
11
320.502
21
-71.6179
0
LINE
8
BLACK
6
CONTINUOUS
10
320.502
20
-71.6179
11
320.502
21
-71.6179
0
LINE
8
BLACK
6
CONTINUOUS
10
320.502
20
-71.6179
11
320.502
21
-71.6179
0
LINE
8
BLACK
6
CONTINUOUS
10
320.502
20
-71.6179
11
320.502
21
-71.6186
0
LINE
8
BLACK
6
CONTINUOUS
10
320.502
20
-71.6186
11
320.501
21
-71.6229
0
LINE
8
BLACK
6
CONTINUOUS
10
320.501
20
-71.6229
11
320.5
21
-71.6275
0
LINE
8
BLACK
6
CONTINUOUS
10
320.5
20
-71.6275
11
320.466
21
-71.7396
0
LINE
8
BLACK
6
CONTINUOUS
10
320.466
20
-71.7396
11
320.466
21
-71.7403
0
LINE
8
BLACK
6
CONTINUOUS
10
320.466
20
-71.7403
11
320.464
21
-71.7444
0
LINE
8
BLACK
6
CONTINUOUS
10
320.464
20
-71.7444
11
320.463
21
-71.7486
0
LINE
8
BLACK
6
CONTINUOUS
10
320.463
20
-71.7486
11
320.408
21
-71.852
0
LINE
8
BLACK
6
CONTINUOUS
10
320.408
20
-71.852
11
320.407
21
-71.8526
0
LINE
8
BLACK
6
CONTINUOUS
10
320.407
20
-71.8526
11
320.405
21
-71.8564
0
LINE
8
BLACK
6
CONTINUOUS
10
320.405
20
-71.8564
11
320.402
21
-71.8601
0
LINE
8
BLACK
6
CONTINUOUS
10
320.402
20
-71.8601
11
320.328
21
-71.9509
0
LINE
8
BLACK
6
CONTINUOUS
10
320.328
20
-71.9509
11
320.328
21
-71.9514
0
LINE
8
BLACK
6
CONTINUOUS
10
320.328
20
-71.9514
11
320.325
21
-71.9546
0
LINE
8
BLACK
6
CONTINUOUS
10
320.325
20
-71.9546
11
320.321
21
-71.9578
0
LINE
8
BLACK
6
CONTINUOUS
10
320.321
20
-71.9578
11
320.231
21
-72.0324
0
LINE
8
BLACK
6
CONTINUOUS
10
320.231
20
-72.0324
11
320.231
21
-72.0329
0
LINE
8
BLACK
6
CONTINUOUS
10
320.231
20
-72.0329
11
320.227
21
-72.0354
0
LINE
8
BLACK
6
CONTINUOUS
10
320.227
20
-72.0354
11
320.223
21
-72.0379
0
LINE
8
BLACK
6
CONTINUOUS
10
320.223
20
-72.0379
11
320.12
21
-72.0936
0
LINE
8
BLACK
6
CONTINUOUS
10
320.12
20
-72.0936
11
320.12
21
-72.0936
0
LINE
8
BLACK
6
CONTINUOUS
10
320.12
20
-72.0936
11
320.12
21
-72.0936
0
LINE
8
BLACK
6
CONTINUOUS
10
320.12
20
-72.0936
11
320.119
21
-72.0939
0
LINE
8
BLACK
6
CONTINUOUS
10
320.119
20
-72.0939
11
320.115
21
-72.0956
0
LINE
8
BLACK
6
CONTINUOUS
10
320.115
20
-72.0956
11
320.111
21
-72.0974
0
LINE
8
BLACK
6
CONTINUOUS
10
320.111
20
-72.0974
11
319.999
21
-72.132
0
LINE
8
BLACK
6
CONTINUOUS
10
319.999
20
-72.132
11
319.998
21
-72.1322
0
LINE
8
BLACK
6
CONTINUOUS
10
319.998
20
-72.1322
11
319.994
21
-72.1331
0
LINE
8
BLACK
6
CONTINUOUS
10
319.994
20
-72.1331
11
319.99
21
-72.134
0
LINE
8
BLACK
6
CONTINUOUS
10
319.99
20
-72.134
11
319.873
21
-72.1462
0
LINE
8
BLACK
6
CONTINUOUS
10
319.873
20
-72.1462
11
319.873
21
-72.1462
0
LINE
8
BLACK
6
CONTINUOUS
10
319.873
20
-72.1462
11
319.872
21
-72.1463
0
LINE
8
BLACK
6
CONTINUOUS
10
204.358
20
-112.484
11
204.559
21
-112
0
LINE
8
BLACK
6
CONTINUOUS
10
204.559
20
-112
11
204.85
21
-111.565
0
LINE
8
BLACK
6
CONTINUOUS
10
204.85
20
-111.565
11
205.22
21
-111.195
0
LINE
8
BLACK
6
CONTINUOUS
10
205.22
20
-111.195
11
205.655
21
-110.904
0
LINE
8
BLACK
6
CONTINUOUS
10
205.655
20
-110.904
11
206.139
21
-110.704
0
LINE
8
BLACK
6
CONTINUOUS
10
206.139
20
-110.704
11
206.652
21
-110.602
0
LINE
8
BLACK
6
CONTINUOUS
10
206.652
20
-110.602
11
207.175
21
-110.602
0
LINE
8
BLACK
6
CONTINUOUS
10
207.175
20
-110.602
11
207.689
21
-110.704
0
LINE
8
BLACK
6
CONTINUOUS
10
207.689
20
-110.704
11
208.172
21
-110.904
0
LINE
8
BLACK
6
CONTINUOUS
10
208.172
20
-110.904
11
208.608
21
-111.195
0
LINE
8
BLACK
6
CONTINUOUS
10
208.608
20
-111.195
11
208.978
21
-111.565
0
LINE
8
BLACK
6
CONTINUOUS
10
208.978
20
-111.565
11
209.269
21
-112
0
LINE
8
BLACK
6
CONTINUOUS
10
209.269
20
-112
11
209.469
21
-112.484
0
LINE
8
BLACK
6
CONTINUOUS
10
209.469
20
-112.484
11
209.571
21
-112.997
0
LINE
8
BLACK
6
CONTINUOUS
10
209.571
20
-112.997
11
209.571
21
-113.521
0
LINE
8
BLACK
6
CONTINUOUS
10
209.571
20
-113.521
11
209.469
21
-114.034
0
LINE
8
BLACK
6
CONTINUOUS
10
209.469
20
-114.034
11
209.269
21
-114.518
0
LINE
8
BLACK
6
CONTINUOUS
10
209.269
20
-114.518
11
208.978
21
-114.953
0
LINE
8
BLACK
6
CONTINUOUS
10
208.978
20
-114.953
11
208.608
21
-115.323
0
LINE
8
BLACK
6
CONTINUOUS
10
208.608
20
-115.323
11
208.172
21
-115.614
0
LINE
8
BLACK
6
CONTINUOUS
10
208.172
20
-115.614
11
207.689
21
-115.814
0
LINE
8
BLACK
6
CONTINUOUS
10
207.689
20
-115.814
11
207.175
21
-115.916
0
LINE
8
BLACK
6
CONTINUOUS
10
207.175
20
-115.916
11
206.652
21
-115.916
0
LINE
8
BLACK
6
CONTINUOUS
10
206.652
20
-115.916
11
206.139
21
-115.814
0
LINE
8
BLACK
6
CONTINUOUS
10
206.139
20
-115.814
11
205.655
21
-115.614
0
LINE
8
BLACK
6
CONTINUOUS
10
205.655
20
-115.614
11
205.22
21
-115.323
0
LINE
8
BLACK
6
CONTINUOUS
10
205.22
20
-115.323
11
204.85
21
-114.953
0
LINE
8
BLACK
6
CONTINUOUS
10
204.85
20
-114.953
11
204.559
21
-114.518
0
LINE
8
BLACK
6
CONTINUOUS
10
204.559
20
-114.518
11
204.358
21
-114.034
0
LINE
8
BLACK
6
CONTINUOUS
10
204.358
20
-114.034
11
204.256
21
-113.521
0
LINE
8
BLACK
6
CONTINUOUS
10
204.256
20
-113.521
11
204.256
21
-112.997
0
LINE
8
BLACK
6
CONTINUOUS
10
204.256
20
-112.997
11
204.358
21
-112.484
0
LINE
8
BLACK
6
CONTINUOUS
10
204.425
20
-114.014
11
204.62
21
-114.485
0
LINE
8
BLACK
6
CONTINUOUS
10
204.62
20
-114.485
11
204.904
21
-114.909
0
LINE
8
BLACK
6
CONTINUOUS
10
204.904
20
-114.909
11
205.264
21
-115.269
0
LINE
8
BLACK
6
CONTINUOUS
10
205.264
20
-115.269
11
205.688
21
-115.552
0
LINE
8
BLACK
6
CONTINUOUS
10
205.688
20
-115.552
11
206.159
21
-115.747
0
LINE
8
BLACK
6
CONTINUOUS
10
206.159
20
-115.747
11
206.659
21
-115.847
0
LINE
8
BLACK
6
CONTINUOUS
10
206.659
20
-115.847
11
207.169
21
-115.847
0
LINE
8
BLACK
6
CONTINUOUS
10
207.169
20
-115.847
11
207.669
21
-115.747
0
LINE
8
BLACK
6
CONTINUOUS
10
207.669
20
-115.747
11
208.139
21
-115.552
0
LINE
8
BLACK
6
CONTINUOUS
10
208.139
20
-115.552
11
208.563
21
-115.269
0
LINE
8
BLACK
6
CONTINUOUS
10
208.563
20
-115.269
11
208.924
21
-114.909
0
LINE
8
BLACK
6
CONTINUOUS
10
208.924
20
-114.909
11
209.207
21
-114.485
0
LINE
8
BLACK
6
CONTINUOUS
10
209.207
20
-114.485
11
209.402
21
-114.014
0
LINE
8
BLACK
6
CONTINUOUS
10
209.402
20
-114.014
11
209.501
21
-113.514
0
LINE
8
BLACK
6
CONTINUOUS
10
209.501
20
-113.514
11
209.501
21
-113.004
0
LINE
8
BLACK
6
CONTINUOUS
10
209.501
20
-113.004
11
209.402
21
-112.504
0
LINE
8
BLACK
6
CONTINUOUS
10
209.402
20
-112.504
11
209.207
21
-112.033
0
LINE
8
BLACK
6
CONTINUOUS
10
209.207
20
-112.033
11
208.924
21
-111.609
0
LINE
8
BLACK
6
CONTINUOUS
10
208.924
20
-111.609
11
208.563
21
-111.249
0
LINE
8
BLACK
6
CONTINUOUS
10
208.563
20
-111.249
11
208.139
21
-110.966
0
LINE
8
BLACK
6
CONTINUOUS
10
208.139
20
-110.966
11
207.669
21
-110.771
0
LINE
8
BLACK
6
CONTINUOUS
10
207.669
20
-110.771
11
207.169
21
-110.671
0
LINE
8
BLACK
6
CONTINUOUS
10
207.169
20
-110.671
11
206.659
21
-110.671
0
LINE
8
BLACK
6
CONTINUOUS
10
206.659
20
-110.671
11
206.159
21
-110.771
0
LINE
8
BLACK
6
CONTINUOUS
10
206.159
20
-110.771
11
205.688
21
-110.966
0
LINE
8
BLACK
6
CONTINUOUS
10
205.688
20
-110.966
11
205.264
21
-111.249
0
LINE
8
BLACK
6
CONTINUOUS
10
205.264
20
-111.249
11
204.904
21
-111.609
0
LINE
8
BLACK
6
CONTINUOUS
10
204.904
20
-111.609
11
204.62
21
-112.033
0
LINE
8
BLACK
6
CONTINUOUS
10
204.62
20
-112.033
11
204.425
21
-112.504
0
LINE
8
BLACK
6
CONTINUOUS
10
204.425
20
-112.504
11
204.326
21
-113.004
0
LINE
8
BLACK
6
CONTINUOUS
10
204.326
20
-113.004
11
204.326
21
-113.514
0
LINE
8
BLACK
6
CONTINUOUS
10
204.326
20
-113.514
11
204.425
21
-114.014
0
LINE
8
BLACK
6
CONTINUOUS
10
301.858
20
-108.984
11
302.059
21
-108.5
0
LINE
8
BLACK
6
CONTINUOUS
10
302.059
20
-108.5
11
302.35
21
-108.065
0
LINE
8
BLACK
6
CONTINUOUS
10
302.35
20
-108.065
11
302.72
21
-107.695
0
LINE
8
BLACK
6
CONTINUOUS
10
302.72
20
-107.695
11
303.155
21
-107.404
0
LINE
8
BLACK
6
CONTINUOUS
10
303.155
20
-107.404
11
303.639
21
-107.204
0
LINE
8
BLACK
6
CONTINUOUS
10
303.639
20
-107.204
11
304.152
21
-107.102
0
LINE
8
BLACK
6
CONTINUOUS
10
304.152
20
-107.102
11
304.675
21
-107.102
0
LINE
8
BLACK
6
CONTINUOUS
10
304.675
20
-107.102
11
305.189
21
-107.204
0
LINE
8
BLACK
6
CONTINUOUS
10
305.189
20
-107.204
11
305.672
21
-107.404
0
LINE
8
BLACK
6
CONTINUOUS
10
305.672
20
-107.404
11
306.108
21
-107.695
0
LINE
8
BLACK
6
CONTINUOUS
10
306.108
20
-107.695
11
306.478
21
-108.065
0
LINE
8
BLACK
6
CONTINUOUS
10
306.478
20
-108.065
11
306.769
21
-108.5
0
LINE
8
BLACK
6
CONTINUOUS
10
306.769
20
-108.5
11
306.969
21
-108.984
0
LINE
8
BLACK
6
CONTINUOUS
10
306.969
20
-108.984
11
307.071
21
-109.497
0
LINE
8
BLACK
6
CONTINUOUS
10
307.071
20
-109.497
11
307.071
21
-110.021
0
LINE
8
BLACK
6
CONTINUOUS
10
307.071
20
-110.021
11
306.969
21
-110.534
0
LINE
8
BLACK
6
CONTINUOUS
10
306.969
20
-110.534
11
306.769
21
-111.018
0
LINE
8
BLACK
6
CONTINUOUS
10
306.769
20
-111.018
11
306.478
21
-111.453
0
LINE
8
BLACK
6
CONTINUOUS
10
306.478
20
-111.453
11
306.108
21
-111.823
0
LINE
8
BLACK
6
CONTINUOUS
10
306.108
20
-111.823
11
305.672
21
-112.114
0
LINE
8
BLACK
6
CONTINUOUS
10
305.672
20
-112.114
11
305.189
21
-112.314
0
LINE
8
BLACK
6
CONTINUOUS
10
305.189
20
-112.314
11
304.675
21
-112.416
0
LINE
8
BLACK
6
CONTINUOUS
10
304.675
20
-112.416
11
304.152
21
-112.416
0
LINE
8
BLACK
6
CONTINUOUS
10
304.152
20
-112.416
11
303.639
21
-112.314
0
LINE
8
BLACK
6
CONTINUOUS
10
303.639
20
-112.314
11
303.155
21
-112.114
0
LINE
8
BLACK
6
CONTINUOUS
10
303.155
20
-112.114
11
302.72
21
-111.823
0
LINE
8
BLACK
6
CONTINUOUS
10
302.72
20
-111.823
11
302.35
21
-111.453
0
LINE
8
BLACK
6
CONTINUOUS
10
302.35
20
-111.453
11
302.059
21
-111.018
0
LINE
8
BLACK
6
CONTINUOUS
10
302.059
20
-111.018
11
301.858
21
-110.534
0
LINE
8
BLACK
6
CONTINUOUS
10
301.858
20
-110.534
11
301.756
21
-110.021
0
LINE
8
BLACK
6
CONTINUOUS
10
301.756
20
-110.021
11
301.756
21
-109.497
0
LINE
8
BLACK
6
CONTINUOUS
10
301.756
20
-109.497
11
301.858
21
-108.984
0
LINE
8
BLACK
6
CONTINUOUS
10
301.925
20
-110.514
11
302.12
21
-110.985
0
LINE
8
BLACK
6
CONTINUOUS
10
302.12
20
-110.985
11
302.404
21
-111.409
0
LINE
8
BLACK
6
CONTINUOUS
10
302.404
20
-111.409
11
302.764
21
-111.769
0
LINE
8
BLACK
6
CONTINUOUS
10
302.764
20
-111.769
11
303.188
21
-112.052
0
LINE
8
BLACK
6
CONTINUOUS
10
303.188
20
-112.052
11
303.659
21
-112.247
0
LINE
8
BLACK
6
CONTINUOUS
10
303.659
20
-112.247
11
304.159
21
-112.347
0
LINE
8
BLACK
6
CONTINUOUS
10
304.159
20
-112.347
11
304.669
21
-112.347
0
LINE
8
BLACK
6
CONTINUOUS
10
304.669
20
-112.347
11
305.169
21
-112.247
0
LINE
8
BLACK
6
CONTINUOUS
10
305.169
20
-112.247
11
305.639
21
-112.052
0
LINE
8
BLACK
6
CONTINUOUS
10
305.639
20
-112.052
11
306.063
21
-111.769
0
LINE
8
BLACK
6
CONTINUOUS
10
306.063
20
-111.769
11
306.424
21
-111.409
0
LINE
8
BLACK
6
CONTINUOUS
10
306.424
20
-111.409
11
306.707
21
-110.985
0
LINE
8
BLACK
6
CONTINUOUS
10
306.707
20
-110.985
11
306.902
21
-110.514
0
LINE
8
BLACK
6
CONTINUOUS
10
306.902
20
-110.514
11
307.001
21
-110.014
0
LINE
8
BLACK
6
CONTINUOUS
10
307.001
20
-110.014
11
307.001
21
-109.504
0
LINE
8
BLACK
6
CONTINUOUS
10
307.001
20
-109.504
11
306.902
21
-109.004
0
LINE
8
BLACK
6
CONTINUOUS
10
306.902
20
-109.004
11
306.707
21
-108.533
0
LINE
8
BLACK
6
CONTINUOUS
10
306.707
20
-108.533
11
306.424
21
-108.109
0
LINE
8
BLACK
6
CONTINUOUS
10
306.424
20
-108.109
11
306.063
21
-107.749
0
LINE
8
BLACK
6
CONTINUOUS
10
306.063
20
-107.749
11
305.639
21
-107.466
0
LINE
8
BLACK
6
CONTINUOUS
10
305.639
20
-107.466
11
305.169
21
-107.271
0
LINE
8
BLACK
6
CONTINUOUS
10
305.169
20
-107.271
11
304.669
21
-107.171
0
LINE
8
BLACK
6
CONTINUOUS
10
304.669
20
-107.171
11
304.159
21
-107.171
0
LINE
8
BLACK
6
CONTINUOUS
10
304.159
20
-107.171
11
303.659
21
-107.271
0
LINE
8
BLACK
6
CONTINUOUS
10
303.659
20
-107.271
11
303.188
21
-107.466
0
LINE
8
BLACK
6
CONTINUOUS
10
303.188
20
-107.466
11
302.764
21
-107.749
0
LINE
8
BLACK
6
CONTINUOUS
10
302.764
20
-107.749
11
302.404
21
-108.109
0
LINE
8
BLACK
6
CONTINUOUS
10
302.404
20
-108.109
11
302.12
21
-108.533
0
LINE
8
BLACK
6
CONTINUOUS
10
302.12
20
-108.533
11
301.925
21
-109.004
0
LINE
8
BLACK
6
CONTINUOUS
10
301.925
20
-109.004
11
301.826
21
-109.504
0
LINE
8
BLACK
6
CONTINUOUS
10
301.826
20
-109.504
11
301.826
21
-110.014
0
LINE
8
BLACK
6
CONTINUOUS
10
301.826
20
-110.014
11
301.925
21
-110.514
0
LINE
8
BLACK
6
CONTINUOUS
10
204.358
20
-73.4839
11
204.559
21
-73.0002
0
LINE
8
BLACK
6
CONTINUOUS
10
204.559
20
-73.0002
11
204.85
21
-72.565
0
LINE
8
BLACK
6
CONTINUOUS
10
204.85
20
-72.565
11
205.22
21
-72.1949
0
LINE
8
BLACK
6
CONTINUOUS
10
205.22
20
-72.1949
11
205.655
21
-71.904
0
LINE
8
BLACK
6
CONTINUOUS
10
205.655
20
-71.904
11
206.139
21
-71.7037
0
LINE
8
BLACK
6
CONTINUOUS
10
206.139
20
-71.7037
11
206.652
21
-71.6016
0
LINE
8
BLACK
6
CONTINUOUS
10
206.652
20
-71.6016
11
207.175
21
-71.6016
0
LINE
8
BLACK
6
CONTINUOUS
10
207.175
20
-71.6016
11
207.689
21
-71.7037
0
LINE
8
BLACK
6
CONTINUOUS
10
207.689
20
-71.7037
11
208.172
21
-71.904
0
LINE
8
BLACK
6
CONTINUOUS
10
208.172
20
-71.904
11
208.608
21
-72.1949
0
LINE
8
BLACK
6
CONTINUOUS
10
208.608
20
-72.1949
11
208.978
21
-72.565
0
LINE
8
BLACK
6
CONTINUOUS
10
208.978
20
-72.565
11
209.269
21
-73.0002
0
LINE
8
BLACK
6
CONTINUOUS
10
209.269
20
-73.0002
11
209.469
21
-73.4839
0
LINE
8
BLACK
6
CONTINUOUS
10
209.469
20
-73.4839
11
209.571
21
-73.9973
0
LINE
8
BLACK
6
CONTINUOUS
10
209.571
20
-73.9973
11
209.571
21
-74.5207
0
LINE
8
BLACK
6
CONTINUOUS
10
209.571
20
-74.5207
11
209.469
21
-75.0341
0
LINE
8
BLACK
6
CONTINUOUS
10
209.469
20
-75.0341
11
209.269
21
-75.5178
0
LINE
8
BLACK
6
CONTINUOUS
10
209.269
20
-75.5178
11
208.978
21
-75.953
0
LINE
8
BLACK
6
CONTINUOUS
10
208.978
20
-75.953
11
208.608
21
-76.3231
0
LINE
8
BLACK
6
CONTINUOUS
10
208.608
20
-76.3231
11
208.172
21
-76.614
0
LINE
8
BLACK
6
CONTINUOUS
10
208.172
20
-76.614
11
207.689
21
-76.8143
0
LINE
8
BLACK
6
CONTINUOUS
10
207.689
20
-76.8143
11
207.175
21
-76.9164
0
LINE
8
BLACK
6
CONTINUOUS
10
207.175
20
-76.9164
11
206.652
21
-76.9164
0
LINE
8
BLACK
6
CONTINUOUS
10
206.652
20
-76.9164
11
206.139
21
-76.8143
0
LINE
8
BLACK
6
CONTINUOUS
10
206.139
20
-76.8143
11
205.655
21
-76.614
0
LINE
8
BLACK
6
CONTINUOUS
10
205.655
20
-76.614
11
205.22
21
-76.3231
0
LINE
8
BLACK
6
CONTINUOUS
10
205.22
20
-76.3231
11
204.85
21
-75.953
0
LINE
8
BLACK
6
CONTINUOUS
10
204.85
20
-75.953
11
204.559
21
-75.5178
0
LINE
8
BLACK
6
CONTINUOUS
10
204.559
20
-75.5178
11
204.358
21
-75.0341
0
LINE
8
BLACK
6
CONTINUOUS
10
204.358
20
-75.0341
11
204.256
21
-74.5207
0
LINE
8
BLACK
6
CONTINUOUS
10
204.256
20
-74.5207
11
204.256
21
-73.9973
0
LINE
8
BLACK
6
CONTINUOUS
10
204.256
20
-73.9973
11
204.358
21
-73.4839
0
LINE
8
BLACK
6
CONTINUOUS
10
204.425
20
-75.0138
11
204.62
21
-75.4848
0
LINE
8
BLACK
6
CONTINUOUS
10
204.62
20
-75.4848
11
204.904
21
-75.9086
0
LINE
8
BLACK
6
CONTINUOUS
10
204.904
20
-75.9086
11
205.264
21
-76.269
0
LINE
8
BLACK
6
CONTINUOUS
10
205.264
20
-76.269
11
205.688
21
-76.5522
0
LINE
8
BLACK
6
CONTINUOUS
10
205.688
20
-76.5522
11
206.159
21
-76.7473
0
LINE
8
BLACK
6
CONTINUOUS
10
206.159
20
-76.7473
11
206.659
21
-76.8467
0
LINE
8
BLACK
6
CONTINUOUS
10
206.659
20
-76.8467
11
207.169
21
-76.8467
0
LINE
8
BLACK
6
CONTINUOUS
10
207.169
20
-76.8467
11
207.669
21
-76.7473
0
LINE
8
BLACK
6
CONTINUOUS
10
207.669
20
-76.7473
11
208.139
21
-76.5522
0
LINE
8
BLACK
6
CONTINUOUS
10
208.139
20
-76.5522
11
208.563
21
-76.269
0
LINE
8
BLACK
6
CONTINUOUS
10
208.563
20
-76.269
11
208.924
21
-75.9086
0
LINE
8
BLACK
6
CONTINUOUS
10
208.924
20
-75.9086
11
209.207
21
-75.4848
0
LINE
8
BLACK
6
CONTINUOUS
10
209.207
20
-75.4848
11
209.402
21
-75.0138
0
LINE
8
BLACK
6
CONTINUOUS
10
209.402
20
-75.0138
11
209.501
21
-74.5139
0
LINE
8
BLACK
6
CONTINUOUS
10
209.501
20
-74.5139
11
209.501
21
-74.0041
0
LINE
8
BLACK
6
CONTINUOUS
10
209.501
20
-74.0041
11
209.402
21
-73.5042
0
LINE
8
BLACK
6
CONTINUOUS
10
209.402
20
-73.5042
11
209.207
21
-73.0332
0
LINE
8
BLACK
6
CONTINUOUS
10
209.207
20
-73.0332
11
208.924
21
-72.6094
0
LINE
8
BLACK
6
CONTINUOUS
10
208.924
20
-72.6094
11
208.563
21
-72.249
0
LINE
8
BLACK
6
CONTINUOUS
10
208.563
20
-72.249
11
208.139
21
-71.9658
0
LINE
8
BLACK
6
CONTINUOUS
10
208.139
20
-71.9658
11
207.669
21
-71.7707
0
LINE
8
BLACK
6
CONTINUOUS
10
207.669
20
-71.7707
11
207.169
21
-71.6712
0
LINE
8
BLACK
6
CONTINUOUS
10
207.169
20
-71.6712
11
206.659
21
-71.6712
0
LINE
8
BLACK
6
CONTINUOUS
10
206.659
20
-71.6712
11
206.159
21
-71.7707
0
LINE
8
BLACK
6
CONTINUOUS
10
206.159
20
-71.7707
11
205.688
21
-71.9658
0
LINE
8
BLACK
6
CONTINUOUS
10
205.688
20
-71.9658
11
205.264
21
-72.249
0
LINE
8
BLACK
6
CONTINUOUS
10
205.264
20
-72.249
11
204.904
21
-72.6094
0
LINE
8
BLACK
6
CONTINUOUS
10
204.904
20
-72.6094
11
204.62
21
-73.0332
0
LINE
8
BLACK
6
CONTINUOUS
10
204.62
20
-73.0332
11
204.425
21
-73.5042
0
LINE
8
BLACK
6
CONTINUOUS
10
204.425
20
-73.5042
11
204.326
21
-74.0041
0
LINE
8
BLACK
6
CONTINUOUS
10
204.326
20
-74.0041
11
204.326
21
-74.5139
0
LINE
8
BLACK
6
CONTINUOUS
10
204.326
20
-74.5139
11
204.425
21
-75.0138
0
LINE
8
BLACK
6
CONTINUOUS
10
223.858
20
-73.4839
11
224.059
21
-73.0002
0
LINE
8
BLACK
6
CONTINUOUS
10
224.059
20
-73.0002
11
224.35
21
-72.565
0
LINE
8
BLACK
6
CONTINUOUS
10
224.35
20
-72.565
11
224.72
21
-72.1949
0
LINE
8
BLACK
6
CONTINUOUS
10
224.72
20
-72.1949
11
225.155
21
-71.904
0
LINE
8
BLACK
6
CONTINUOUS
10
225.155
20
-71.904
11
225.639
21
-71.7037
0
LINE
8
BLACK
6
CONTINUOUS
10
225.639
20
-71.7037
11
226.152
21
-71.6016
0
LINE
8
BLACK
6
CONTINUOUS
10
226.152
20
-71.6016
11
226.675
21
-71.6016
0
LINE
8
BLACK
6
CONTINUOUS
10
226.675
20
-71.6016
11
227.189
21
-71.7037
0
LINE
8
BLACK
6
CONTINUOUS
10
227.189
20
-71.7037
11
227.672
21
-71.904
0
LINE
8
BLACK
6
CONTINUOUS
10
227.672
20
-71.904
11
228.108
21
-72.1949
0
LINE
8
BLACK
6
CONTINUOUS
10
228.108
20
-72.1949
11
228.478
21
-72.565
0
LINE
8
BLACK
6
CONTINUOUS
10
228.478
20
-72.565
11
228.769
21
-73.0002
0
LINE
8
BLACK
6
CONTINUOUS
10
228.769
20
-73.0002
11
228.969
21
-73.4839
0
LINE
8
BLACK
6
CONTINUOUS
10
228.969
20
-73.4839
11
229.071
21
-73.9973
0
LINE
8
BLACK
6
CONTINUOUS
10
229.071
20
-73.9973
11
229.071
21
-74.5207
0
LINE
8
BLACK
6
CONTINUOUS
10
229.071
20
-74.5207
11
228.969
21
-75.0341
0
LINE
8
BLACK
6
CONTINUOUS
10
228.969
20
-75.0341
11
228.769
21
-75.5178
0
LINE
8
BLACK
6
CONTINUOUS
10
228.769
20
-75.5178
11
228.478
21
-75.953
0
LINE
8
BLACK
6
CONTINUOUS
10
228.478
20
-75.953
11
228.108
21
-76.3231
0
LINE
8
BLACK
6
CONTINUOUS
10
228.108
20
-76.3231
11
227.672
21
-76.614
0
LINE
8
BLACK
6
CONTINUOUS
10
227.672
20
-76.614
11
227.189
21
-76.8143
0
LINE
8
BLACK
6
CONTINUOUS
10
227.189
20
-76.8143
11
226.675
21
-76.9164
0
LINE
8
BLACK
6
CONTINUOUS
10
226.675
20
-76.9164
11
226.152
21
-76.9164
0
LINE
8
BLACK
6
CONTINUOUS
10
226.152
20
-76.9164
11
225.639
21
-76.8143
0
LINE
8
BLACK
6
CONTINUOUS
10
225.639
20
-76.8143
11
225.155
21
-76.614
0
LINE
8
BLACK
6
CONTINUOUS
10
225.155
20
-76.614
11
224.72
21
-76.3231
0
LINE
8
BLACK
6
CONTINUOUS
10
224.72
20
-76.3231
11
224.35
21
-75.953
0
LINE
8
BLACK
6
CONTINUOUS
10
224.35
20
-75.953
11
224.059
21
-75.5178
0
LINE
8
BLACK
6
CONTINUOUS
10
224.059
20
-75.5178
11
223.858
21
-75.0341
0
LINE
8
BLACK
6
CONTINUOUS
10
223.858
20
-75.0341
11
223.756
21
-74.5207
0
LINE
8
BLACK
6
CONTINUOUS
10
223.756
20
-74.5207
11
223.756
21
-73.9973
0
LINE
8
BLACK
6
CONTINUOUS
10
223.756
20
-73.9973
11
223.858
21
-73.4839
0
LINE
8
BLACK
6
CONTINUOUS
10
223.925
20
-75.0138
11
224.12
21
-75.4848
0
LINE
8
BLACK
6
CONTINUOUS
10
224.12
20
-75.4848
11
224.404
21
-75.9086
0
LINE
8
BLACK
6
CONTINUOUS
10
224.404
20
-75.9086
11
224.764
21
-76.269
0
LINE
8
BLACK
6
CONTINUOUS
10
224.764
20
-76.269
11
225.188
21
-76.5522
0
LINE
8
BLACK
6
CONTINUOUS
10
225.188
20
-76.5522
11
225.659
21
-76.7473
0
LINE
8
BLACK
6
CONTINUOUS
10
225.659
20
-76.7473
11
226.159
21
-76.8467
0
LINE
8
BLACK
6
CONTINUOUS
10
226.159
20
-76.8467
11
226.669
21
-76.8467
0
LINE
8
BLACK
6
CONTINUOUS
10
226.669
20
-76.8467
11
227.169
21
-76.7473
0
LINE
8
BLACK
6
CONTINUOUS
10
227.169
20
-76.7473
11
227.639
21
-76.5522
0
LINE
8
BLACK
6
CONTINUOUS
10
227.639
20
-76.5522
11
228.063
21
-76.269
0
LINE
8
BLACK
6
CONTINUOUS
10
228.063
20
-76.269
11
228.424
21
-75.9086
0
LINE
8
BLACK
6
CONTINUOUS
10
228.424
20
-75.9086
11
228.707
21
-75.4848
0
LINE
8
BLACK
6
CONTINUOUS
10
228.707
20
-75.4848
11
228.902
21
-75.0138
0
LINE
8
BLACK
6
CONTINUOUS
10
228.902
20
-75.0138
11
229.001
21
-74.5139
0
LINE
8
BLACK
6
CONTINUOUS
10
229.001
20
-74.5139
11
229.001
21
-74.0041
0
LINE
8
BLACK
6
CONTINUOUS
10
229.001
20
-74.0041
11
228.902
21
-73.5042
0
LINE
8
BLACK
6
CONTINUOUS
10
228.902
20
-73.5042
11
228.707
21
-73.0332
0
LINE
8
BLACK
6
CONTINUOUS
10
228.707
20
-73.0332
11
228.424
21
-72.6094
0
LINE
8
BLACK
6
CONTINUOUS
10
228.424
20
-72.6094
11
228.063
21
-72.249
0
LINE
8
BLACK
6
CONTINUOUS
10
228.063
20
-72.249
11
227.639
21
-71.9658
0
LINE
8
BLACK
6
CONTINUOUS
10
227.639
20
-71.9658
11
227.169
21
-71.7707
0
LINE
8
BLACK
6
CONTINUOUS
10
227.169
20
-71.7707
11
226.669
21
-71.6712
0
LINE
8
BLACK
6
CONTINUOUS
10
226.669
20
-71.6712
11
226.159
21
-71.6712
0
LINE
8
BLACK
6
CONTINUOUS
10
226.159
20
-71.6712
11
225.659
21
-71.7707
0
LINE
8
BLACK
6
CONTINUOUS
10
225.659
20
-71.7707
11
225.188
21
-71.9658
0
LINE
8
BLACK
6
CONTINUOUS
10
225.188
20
-71.9658
11
224.764
21
-72.249
0
LINE
8
BLACK
6
CONTINUOUS
10
224.764
20
-72.249
11
224.404
21
-72.6094
0
LINE
8
BLACK
6
CONTINUOUS
10
224.404
20
-72.6094
11
224.12
21
-73.0332
0
LINE
8
BLACK
6
CONTINUOUS
10
224.12
20
-73.0332
11
223.925
21
-73.5042
0
LINE
8
BLACK
6
CONTINUOUS
10
223.925
20
-73.5042
11
223.826
21
-74.0041
0
LINE
8
BLACK
6
CONTINUOUS
10
223.826
20
-74.0041
11
223.826
21
-74.5139
0
LINE
8
BLACK
6
CONTINUOUS
10
223.826
20
-74.5139
11
223.925
21
-75.0138
0
LINE
8
BLACK
6
CONTINUOUS
10
223.858
20
-53.9839
11
224.059
21
-53.5002
0
LINE
8
BLACK
6
CONTINUOUS
10
224.059
20
-53.5002
11
224.35
21
-53.065
0
LINE
8
BLACK
6
CONTINUOUS
10
224.35
20
-53.065
11
224.72
21
-52.6948
0
LINE
8
BLACK
6
CONTINUOUS
10
224.72
20
-52.6948
11
225.155
21
-52.404
0
LINE
8
BLACK
6
CONTINUOUS
10
225.155
20
-52.404
11
225.639
21
-52.2037
0
LINE
8
BLACK
6
CONTINUOUS
10
225.639
20
-52.2037
11
226.152
21
-52.1016
0
LINE
8
BLACK
6
CONTINUOUS
10
226.152
20
-52.1016
11
226.675
21
-52.1016
0
LINE
8
BLACK
6
CONTINUOUS
10
226.675
20
-52.1016
11
227.189
21
-52.2037
0
LINE
8
BLACK
6
CONTINUOUS
10
227.189
20
-52.2037
11
227.672
21
-52.404
0
LINE
8
BLACK
6
CONTINUOUS
10
227.672
20
-52.404
11
228.108
21
-52.6948
0
LINE
8
BLACK
6
CONTINUOUS
10
228.108
20
-52.6948
11
228.478
21
-53.065
0
LINE
8
BLACK
6
CONTINUOUS
10
228.478
20
-53.065
11
228.769
21
-53.5002
0
LINE
8
BLACK
6
CONTINUOUS
10
228.769
20
-53.5002
11
228.969
21
-53.9839
0
LINE
8
BLACK
6
CONTINUOUS
10
228.969
20
-53.9839
11
229.071
21
-54.4973
0
LINE
8
BLACK
6
CONTINUOUS
10
229.071
20
-54.4973
11
229.071
21
-55.0207
0
LINE
8
BLACK
6
CONTINUOUS
10
229.071
20
-55.0207
11
228.969
21
-55.5341
0
LINE
8
BLACK
6
CONTINUOUS
10
228.969
20
-55.5341
11
228.769
21
-56.0178
0
LINE
8
BLACK
6
CONTINUOUS
10
228.769
20
-56.0178
11
228.478
21
-56.453
0
LINE
8
BLACK
6
CONTINUOUS
10
228.478
20
-56.453
11
228.108
21
-56.8231
0
LINE
8
BLACK
6
CONTINUOUS
10
228.108
20
-56.8231
11
227.672
21
-57.114
0
LINE
8
BLACK
6
CONTINUOUS
10
227.672
20
-57.114
11
227.189
21
-57.3143
0
LINE
8
BLACK
6
CONTINUOUS
10
227.189
20
-57.3143
11
226.675
21
-57.4164
0
LINE
8
BLACK
6
CONTINUOUS
10
226.675
20
-57.4164
11
226.152
21
-57.4164
0
LINE
8
BLACK
6
CONTINUOUS
10
226.152
20
-57.4164
11
225.639
21
-57.3143
0
LINE
8
BLACK
6
CONTINUOUS
10
225.639
20
-57.3143
11
225.155
21
-57.114
0
LINE
8
BLACK
6
CONTINUOUS
10
225.155
20
-57.114
11
224.72
21
-56.8231
0
LINE
8
BLACK
6
CONTINUOUS
10
224.72
20
-56.8231
11
224.35
21
-56.453
0
LINE
8
BLACK
6
CONTINUOUS
10
224.35
20
-56.453
11
224.059
21
-56.0178
0
LINE
8
BLACK
6
CONTINUOUS
10
224.059
20
-56.0178
11
223.858
21
-55.5341
0
LINE
8
BLACK
6
CONTINUOUS
10
223.858
20
-55.5341
11
223.756
21
-55.0207
0
LINE
8
BLACK
6
CONTINUOUS
10
223.756
20
-55.0207
11
223.756
21
-54.4973
0
LINE
8
BLACK
6
CONTINUOUS
10
223.756
20
-54.4973
11
223.858
21
-53.9839
0
LINE
8
BLACK
6
CONTINUOUS
10
223.925
20
-55.5138
11
224.12
21
-55.9848
0
LINE
8
BLACK
6
CONTINUOUS
10
224.12
20
-55.9848
11
224.404
21
-56.4086
0
LINE
8
BLACK
6
CONTINUOUS
10
224.404
20
-56.4086
11
224.764
21
-56.769
0
LINE
8
BLACK
6
CONTINUOUS
10
224.764
20
-56.769
11
225.188
21
-57.0522
0
LINE
8
BLACK
6
CONTINUOUS
10
225.188
20
-57.0522
11
225.659
21
-57.2473
0
LINE
8
BLACK
6
CONTINUOUS
10
225.659
20
-57.2473
11
226.159
21
-57.3467
0
LINE
8
BLACK
6
CONTINUOUS
10
226.159
20
-57.3467
11
226.669
21
-57.3467
0
LINE
8
BLACK
6
CONTINUOUS
10
226.669
20
-57.3467
11
227.169
21
-57.2473
0
LINE
8
BLACK
6
CONTINUOUS
10
227.169
20
-57.2473
11
227.639
21
-57.0522
0
LINE
8
BLACK
6
CONTINUOUS
10
227.639
20
-57.0522
11
228.063
21
-56.769
0
LINE
8
BLACK
6
CONTINUOUS
10
228.063
20
-56.769
11
228.424
21
-56.4086
0
LINE
8
BLACK
6
CONTINUOUS
10
228.424
20
-56.4086
11
228.707
21
-55.9848
0
LINE
8
BLACK
6
CONTINUOUS
10
228.707
20
-55.9848
11
228.902
21
-55.5138
0
LINE
8
BLACK
6
CONTINUOUS
10
228.902
20
-55.5138
11
229.001
21
-55.0139
0
LINE
8
BLACK
6
CONTINUOUS
10
229.001
20
-55.0139
11
229.001
21
-54.5041
0
LINE
8
BLACK
6
CONTINUOUS
10
229.001
20
-54.5041
11
228.902
21
-54.0042
0
LINE
8
BLACK
6
CONTINUOUS
10
228.902
20
-54.0042
11
228.707
21
-53.5332
0
LINE
8
BLACK
6
CONTINUOUS
10
228.707
20
-53.5332
11
228.424
21
-53.1094
0
LINE
8
BLACK
6
CONTINUOUS
10
228.424
20
-53.1094
11
228.063
21
-52.749
0
LINE
8
BLACK
6
CONTINUOUS
10
228.063
20
-52.749
11
227.639
21
-52.4658
0
LINE
8
BLACK
6
CONTINUOUS
10
227.639
20
-52.4658
11
227.169
21
-52.2707
0
LINE
8
BLACK
6
CONTINUOUS
10
227.169
20
-52.2707
11
226.669
21
-52.1712
0
LINE
8
BLACK
6
CONTINUOUS
10
226.669
20
-52.1712
11
226.159
21
-52.1712
0
LINE
8
BLACK
6
CONTINUOUS
10
226.159
20
-52.1712
11
225.659
21
-52.2707
0
LINE
8
BLACK
6
CONTINUOUS
10
225.659
20
-52.2707
11
225.188
21
-52.4658
0
LINE
8
BLACK
6
CONTINUOUS
10
225.188
20
-52.4658
11
224.764
21
-52.749
0
LINE
8
BLACK
6
CONTINUOUS
10
224.764
20
-52.749
11
224.404
21
-53.1094
0
LINE
8
BLACK
6
CONTINUOUS
10
224.404
20
-53.1094
11
224.12
21
-53.5332
0
LINE
8
BLACK
6
CONTINUOUS
10
224.12
20
-53.5332
11
223.925
21
-54.0042
0
LINE
8
BLACK
6
CONTINUOUS
10
223.925
20
-54.0042
11
223.826
21
-54.5041
0
LINE
8
BLACK
6
CONTINUOUS
10
223.826
20
-54.5041
11
223.826
21
-55.0139
0
LINE
8
BLACK
6
CONTINUOUS
10
223.826
20
-55.0139
11
223.925
21
-55.5138
0
LINE
8
BLACK
6
CONTINUOUS
10
204.358
20
-53.9839
11
204.559
21
-53.5002
0
LINE
8
BLACK
6
CONTINUOUS
10
204.559
20
-53.5002
11
204.85
21
-53.065
0
LINE
8
BLACK
6
CONTINUOUS
10
204.85
20
-53.065
11
205.22
21
-52.6948
0
LINE
8
BLACK
6
CONTINUOUS
10
205.22
20
-52.6948
11
205.655
21
-52.404
0
LINE
8
BLACK
6
CONTINUOUS
10
205.655
20
-52.404
11
206.139
21
-52.2037
0
LINE
8
BLACK
6
CONTINUOUS
10
206.139
20
-52.2037
11
206.652
21
-52.1016
0
LINE
8
BLACK
6
CONTINUOUS
10
206.652
20
-52.1016
11
207.175
21
-52.1016
0
LINE
8
BLACK
6
CONTINUOUS
10
207.175
20
-52.1016
11
207.689
21
-52.2037
0
LINE
8
BLACK
6
CONTINUOUS
10
207.689
20
-52.2037
11
208.172
21
-52.404
0
LINE
8
BLACK
6
CONTINUOUS
10
208.172
20
-52.404
11
208.608
21
-52.6948
0
LINE
8
BLACK
6
CONTINUOUS
10
208.608
20
-52.6948
11
208.978
21
-53.065
0
LINE
8
BLACK
6
CONTINUOUS
10
208.978
20
-53.065
11
209.269
21
-53.5002
0
LINE
8
BLACK
6
CONTINUOUS
10
209.269
20
-53.5002
11
209.469
21
-53.9839
0
LINE
8
BLACK
6
CONTINUOUS
10
209.469
20
-53.9839
11
209.571
21
-54.4973
0
LINE
8
BLACK
6
CONTINUOUS
10
209.571
20
-54.4973
11
209.571
21
-55.0207
0
LINE
8
BLACK
6
CONTINUOUS
10
209.571
20
-55.0207
11
209.469
21
-55.5341
0
LINE
8
BLACK
6
CONTINUOUS
10
209.469
20
-55.5341
11
209.269
21
-56.0178
0
LINE
8
BLACK
6
CONTINUOUS
10
209.269
20
-56.0178
11
208.978
21
-56.453
0
LINE
8
BLACK
6
CONTINUOUS
10
208.978
20
-56.453
11
208.608
21
-56.8231
0
LINE
8
BLACK
6
CONTINUOUS
10
208.608
20
-56.8231
11
208.172
21
-57.114
0
LINE
8
BLACK
6
CONTINUOUS
10
208.172
20
-57.114
11
207.689
21
-57.3143
0
LINE
8
BLACK
6
CONTINUOUS
10
207.689
20
-57.3143
11
207.175
21
-57.4164
0
LINE
8
BLACK
6
CONTINUOUS
10
207.175
20
-57.4164
11
206.652
21
-57.4164
0
LINE
8
BLACK
6
CONTINUOUS
10
206.652
20
-57.4164
11
206.139
21
-57.3143
0
LINE
8
BLACK
6
CONTINUOUS
10
206.139
20
-57.3143
11
205.655
21
-57.114
0
LINE
8
BLACK
6
CONTINUOUS
10
205.655
20
-57.114
11
205.22
21
-56.8231
0
LINE
8
BLACK
6
CONTINUOUS
10
205.22
20
-56.8231
11
204.85
21
-56.453
0
LINE
8
BLACK
6
CONTINUOUS
10
204.85
20
-56.453
11
204.559
21
-56.0178
0
LINE
8
BLACK
6
CONTINUOUS
10
204.559
20
-56.0178
11
204.358
21
-55.5341
0
LINE
8
BLACK
6
CONTINUOUS
10
204.358
20
-55.5341
11
204.256
21
-55.0207
0
LINE
8
BLACK
6
CONTINUOUS
10
204.256
20
-55.0207
11
204.256
21
-54.4973
0
LINE
8
BLACK
6
CONTINUOUS
10
204.256
20
-54.4973
11
204.358
21
-53.9839
0
LINE
8
BLACK
6
CONTINUOUS
10
204.425
20
-55.5138
11
204.62
21
-55.9848
0
LINE
8
BLACK
6
CONTINUOUS
10
204.62
20
-55.9848
11
204.904
21
-56.4086
0
LINE
8
BLACK
6
CONTINUOUS
10
204.904
20
-56.4086
11
205.264
21
-56.769
0
LINE
8
BLACK
6
CONTINUOUS
10
205.264
20
-56.769
11
205.688
21
-57.0522
0
LINE
8
BLACK
6
CONTINUOUS
10
205.688
20
-57.0522
11
206.159
21
-57.2473
0
LINE
8
BLACK
6
CONTINUOUS
10
206.159
20
-57.2473
11
206.659
21
-57.3467
0
LINE
8
BLACK
6
CONTINUOUS
10
206.659
20
-57.3467
11
207.169
21
-57.3467
0
LINE
8
BLACK
6
CONTINUOUS
10
207.169
20
-57.3467
11
207.669
21
-57.2473
0
LINE
8
BLACK
6
CONTINUOUS
10
207.669
20
-57.2473
11
208.139
21
-57.0522
0
LINE
8
BLACK
6
CONTINUOUS
10
208.139
20
-57.0522
11
208.563
21
-56.769
0
LINE
8
BLACK
6
CONTINUOUS
10
208.563
20
-56.769
11
208.924
21
-56.4086
0
LINE
8
BLACK
6
CONTINUOUS
10
208.924
20
-56.4086
11
209.207
21
-55.9848
0
LINE
8
BLACK
6
CONTINUOUS
10
209.207
20
-55.9848
11
209.402
21
-55.5138
0
LINE
8
BLACK
6
CONTINUOUS
10
209.402
20
-55.5138
11
209.501
21
-55.0139
0
LINE
8
BLACK
6
CONTINUOUS
10
209.501
20
-55.0139
11
209.501
21
-54.5041
0
LINE
8
BLACK
6
CONTINUOUS
10
209.501
20
-54.5041
11
209.402
21
-54.0042
0
LINE
8
BLACK
6
CONTINUOUS
10
209.402
20
-54.0042
11
209.207
21
-53.5332
0
LINE
8
BLACK
6
CONTINUOUS
10
209.207
20
-53.5332
11
208.924
21
-53.1094
0
LINE
8
BLACK
6
CONTINUOUS
10
208.924
20
-53.1094
11
208.563
21
-52.749
0
LINE
8
BLACK
6
CONTINUOUS
10
208.563
20
-52.749
11
208.139
21
-52.4658
0
LINE
8
BLACK
6
CONTINUOUS
10
208.139
20
-52.4658
11
207.669
21
-52.2707
0
LINE
8
BLACK
6
CONTINUOUS
10
207.669
20
-52.2707
11
207.169
21
-52.1712
0
LINE
8
BLACK
6
CONTINUOUS
10
207.169
20
-52.1712
11
206.659
21
-52.1712
0
LINE
8
BLACK
6
CONTINUOUS
10
206.659
20
-52.1712
11
206.159
21
-52.2707
0
LINE
8
BLACK
6
CONTINUOUS
10
206.159
20
-52.2707
11
205.688
21
-52.4658
0
LINE
8
BLACK
6
CONTINUOUS
10
205.688
20
-52.4658
11
205.264
21
-52.749
0
LINE
8
BLACK
6
CONTINUOUS
10
205.264
20
-52.749
11
204.904
21
-53.1094
0
LINE
8
BLACK
6
CONTINUOUS
10
204.904
20
-53.1094
11
204.62
21
-53.5332
0
LINE
8
BLACK
6
CONTINUOUS
10
204.62
20
-53.5332
11
204.425
21
-54.0042
0
LINE
8
BLACK
6
CONTINUOUS
10
204.425
20
-54.0042
11
204.326
21
-54.5041
0
LINE
8
BLACK
6
CONTINUOUS
10
204.326
20
-54.5041
11
204.326
21
-55.0139
0
LINE
8
BLACK
6
CONTINUOUS
10
204.326
20
-55.0139
11
204.425
21
-55.5138
0
LINE
8
BLACK
6
CONTINUOUS
10
301.858
20
-50.4839
11
302.059
21
-50.0002
0
LINE
8
BLACK
6
CONTINUOUS
10
302.059
20
-50.0002
11
302.35
21
-49.565
0
LINE
8
BLACK
6
CONTINUOUS
10
302.35
20
-49.565
11
302.72
21
-49.1948
0
LINE
8
BLACK
6
CONTINUOUS
10
302.72
20
-49.1948
11
303.155
21
-48.904
0
LINE
8
BLACK
6
CONTINUOUS
10
303.155
20
-48.904
11
303.639
21
-48.7037
0
LINE
8
BLACK
6
CONTINUOUS
10
303.639
20
-48.7037
11
304.152
21
-48.6016
0
LINE
8
BLACK
6
CONTINUOUS
10
304.152
20
-48.6016
11
304.675
21
-48.6016
0
LINE
8
BLACK
6
CONTINUOUS
10
304.675
20
-48.6016
11
305.189
21
-48.7037
0
LINE
8
BLACK
6
CONTINUOUS
10
305.189
20
-48.7037
11
305.672
21
-48.904
0
LINE
8
BLACK
6
CONTINUOUS
10
305.672
20
-48.904
11
306.108
21
-49.1948
0
LINE
8
BLACK
6
CONTINUOUS
10
306.108
20
-49.1948
11
306.478
21
-49.565
0
LINE
8
BLACK
6
CONTINUOUS
10
306.478
20
-49.565
11
306.769
21
-50.0002
0
LINE
8
BLACK
6
CONTINUOUS
10
306.769
20
-50.0002
11
306.969
21
-50.4839
0
LINE
8
BLACK
6
CONTINUOUS
10
306.969
20
-50.4839
11
307.071
21
-50.9973
0
LINE
8
BLACK
6
CONTINUOUS
10
307.071
20
-50.9973
11
307.071
21
-51.5207
0
LINE
8
BLACK
6
CONTINUOUS
10
307.071
20
-51.5207
11
306.969
21
-52.0341
0
LINE
8
BLACK
6
CONTINUOUS
10
306.969
20
-52.0341
11
306.769
21
-52.5178
0
LINE
8
BLACK
6
CONTINUOUS
10
306.769
20
-52.5178
11
306.478
21
-52.953
0
LINE
8
BLACK
6
CONTINUOUS
10
306.478
20
-52.953
11
306.108
21
-53.3231
0
LINE
8
BLACK
6
CONTINUOUS
10
306.108
20
-53.3231
11
305.672
21
-53.614
0
LINE
8
BLACK
6
CONTINUOUS
10
305.672
20
-53.614
11
305.189
21
-53.8143
0
LINE
8
BLACK
6
CONTINUOUS
10
305.189
20
-53.8143
11
304.675
21
-53.9164
0
LINE
8
BLACK
6
CONTINUOUS
10
304.675
20
-53.9164
11
304.152
21
-53.9164
0
LINE
8
BLACK
6
CONTINUOUS
10
304.152
20
-53.9164
11
303.639
21
-53.8143
0
LINE
8
BLACK
6
CONTINUOUS
10
303.639
20
-53.8143
11
303.155
21
-53.614
0
LINE
8
BLACK
6
CONTINUOUS
10
303.155
20
-53.614
11
302.72
21
-53.3231
0
LINE
8
BLACK
6
CONTINUOUS
10
302.72
20
-53.3231
11
302.35
21
-52.953
0
LINE
8
BLACK
6
CONTINUOUS
10
302.35
20
-52.953
11
302.059
21
-52.5178
0
LINE
8
BLACK
6
CONTINUOUS
10
302.059
20
-52.5178
11
301.858
21
-52.0341
0
LINE
8
BLACK
6
CONTINUOUS
10
301.858
20
-52.0341
11
301.756
21
-51.5207
0
LINE
8
BLACK
6
CONTINUOUS
10
301.756
20
-51.5207
11
301.756
21
-50.9973
0
LINE
8
BLACK
6
CONTINUOUS
10
301.756
20
-50.9973
11
301.858
21
-50.4839
0
LINE
8
BLACK
6
CONTINUOUS
10
301.925
20
-52.0138
11
302.12
21
-52.4848
0
LINE
8
BLACK
6
CONTINUOUS
10
302.12
20
-52.4848
11
302.404
21
-52.9086
0
LINE
8
BLACK
6
CONTINUOUS
10
302.404
20
-52.9086
11
302.764
21
-53.269
0
LINE
8
BLACK
6
CONTINUOUS
10
302.764
20
-53.269
11
303.188
21
-53.5522
0
LINE
8
BLACK
6
CONTINUOUS
10
303.188
20
-53.5522
11
303.659
21
-53.7473
0
LINE
8
BLACK
6
CONTINUOUS
10
303.659
20
-53.7473
11
304.159
21
-53.8467
0
LINE
8
BLACK
6
CONTINUOUS
10
304.159
20
-53.8467
11
304.669
21
-53.8467
0
LINE
8
BLACK
6
CONTINUOUS
10
304.669
20
-53.8467
11
305.169
21
-53.7473
0
LINE
8
BLACK
6
CONTINUOUS
10
305.169
20
-53.7473
11
305.639
21
-53.5522
0
LINE
8
BLACK
6
CONTINUOUS
10
305.639
20
-53.5522
11
306.063
21
-53.269
0
LINE
8
BLACK
6
CONTINUOUS
10
306.063
20
-53.269
11
306.424
21
-52.9086
0
LINE
8
BLACK
6
CONTINUOUS
10
306.424
20
-52.9086
11
306.707
21
-52.4848
0
LINE
8
BLACK
6
CONTINUOUS
10
306.707
20
-52.4848
11
306.902
21
-52.0138
0
LINE
8
BLACK
6
CONTINUOUS
10
306.902
20
-52.0138
11
307.001
21
-51.5139
0
LINE
8
BLACK
6
CONTINUOUS
10
307.001
20
-51.5139
11
307.001
21
-51.0041
0
LINE
8
BLACK
6
CONTINUOUS
10
307.001
20
-51.0041
11
306.902
21
-50.5042
0
LINE
8
BLACK
6
CONTINUOUS
10
306.902
20
-50.5042
11
306.707
21
-50.0332
0
LINE
8
BLACK
6
CONTINUOUS
10
306.707
20
-50.0332
11
306.424
21
-49.6094
0
LINE
8
BLACK
6
CONTINUOUS
10
306.424
20
-49.6094
11
306.063
21
-49.249
0
LINE
8
BLACK
6
CONTINUOUS
10
306.063
20
-49.249
11
305.639
21
-48.9658
0
LINE
8
BLACK
6
CONTINUOUS
10
305.639
20
-48.9658
11
305.169
21
-48.7707
0
LINE
8
BLACK
6
CONTINUOUS
10
305.169
20
-48.7707
11
304.669
21
-48.6712
0
LINE
8
BLACK
6
CONTINUOUS
10
304.669
20
-48.6712
11
304.159
21
-48.6712
0
LINE
8
BLACK
6
CONTINUOUS
10
304.159
20
-48.6712
11
303.659
21
-48.7707
0
LINE
8
BLACK
6
CONTINUOUS
10
303.659
20
-48.7707
11
303.188
21
-48.9658
0
LINE
8
BLACK
6
CONTINUOUS
10
303.188
20
-48.9658
11
302.764
21
-49.249
0
LINE
8
BLACK
6
CONTINUOUS
10
302.764
20
-49.249
11
302.404
21
-49.6094
0
LINE
8
BLACK
6
CONTINUOUS
10
302.404
20
-49.6094
11
302.12
21
-50.0332
0
LINE
8
BLACK
6
CONTINUOUS
10
302.12
20
-50.0332
11
301.925
21
-50.5042
0
LINE
8
BLACK
6
CONTINUOUS
10
301.925
20
-50.5042
11
301.826
21
-51.0041
0
LINE
8
BLACK
6
CONTINUOUS
10
301.826
20
-51.0041
11
301.826
21
-51.5139
0
LINE
8
BLACK
6
CONTINUOUS
10
301.826
20
-51.5139
11
301.925
21
-52.0138
0
LINE
8
BLACK
6
CONTINUOUS
10
262.858
20
-46.9839
11
263.059
21
-46.5002
0
LINE
8
BLACK
6
CONTINUOUS
10
263.059
20
-46.5002
11
263.35
21
-46.065
0
LINE
8
BLACK
6
CONTINUOUS
10
263.35
20
-46.065
11
263.72
21
-45.6948
0
LINE
8
BLACK
6
CONTINUOUS
10
263.72
20
-45.6948
11
264.155
21
-45.404
0
LINE
8
BLACK
6
CONTINUOUS
10
264.155
20
-45.404
11
264.639
21
-45.2037
0
LINE
8
BLACK
6
CONTINUOUS
10
264.639
20
-45.2037
11
265.152
21
-45.1016
0
LINE
8
BLACK
6
CONTINUOUS
10
265.152
20
-45.1016
11
265.675
21
-45.1016
0
LINE
8
BLACK
6
CONTINUOUS
10
265.675
20
-45.1016
11
266.189
21
-45.2037
0
LINE
8
BLACK
6
CONTINUOUS
10
266.189
20
-45.2037
11
266.672
21
-45.404
0
LINE
8
BLACK
6
CONTINUOUS
10
266.672
20
-45.404
11
267.108
21
-45.6948
0
LINE
8
BLACK
6
CONTINUOUS
10
267.108
20
-45.6948
11
267.478
21
-46.065
0
LINE
8
BLACK
6
CONTINUOUS
10
267.478
20
-46.065
11
267.769
21
-46.5002
0
LINE
8
BLACK
6
CONTINUOUS
10
267.769
20
-46.5002
11
267.969
21
-46.9839
0
LINE
8
BLACK
6
CONTINUOUS
10
267.969
20
-46.9839
11
268.071
21
-47.4973
0
LINE
8
BLACK
6
CONTINUOUS
10
268.071
20
-47.4973
11
268.071
21
-48.0207
0
LINE
8
BLACK
6
CONTINUOUS
10
268.071
20
-48.0207
11
267.969
21
-48.5341
0
LINE
8
BLACK
6
CONTINUOUS
10
267.969
20
-48.5341
11
267.769
21
-49.0178
0
LINE
8
BLACK
6
CONTINUOUS
10
267.769
20
-49.0178
11
267.478
21
-49.453
0
LINE
8
BLACK
6
CONTINUOUS
10
267.478
20
-49.453
11
267.108
21
-49.8231
0
LINE
8
BLACK
6
CONTINUOUS
10
267.108
20
-49.8231
11
266.672
21
-50.114
0
LINE
8
BLACK
6
CONTINUOUS
10
266.672
20
-50.114
11
266.189
21
-50.3143
0
LINE
8
BLACK
6
CONTINUOUS
10
266.189
20
-50.3143
11
265.675
21
-50.4164
0
LINE
8
BLACK
6
CONTINUOUS
10
265.675
20
-50.4164
11
265.152
21
-50.4164
0
LINE
8
BLACK
6
CONTINUOUS
10
265.152
20
-50.4164
11
264.639
21
-50.3143
0
LINE
8
BLACK
6
CONTINUOUS
10
264.639
20
-50.3143
11
264.155
21
-50.114
0
LINE
8
BLACK
6
CONTINUOUS
10
264.155
20
-50.114
11
263.72
21
-49.8231
0
LINE
8
BLACK
6
CONTINUOUS
10
263.72
20
-49.8231
11
263.35
21
-49.453
0
LINE
8
BLACK
6
CONTINUOUS
10
263.35
20
-49.453
11
263.059
21
-49.0178
0
LINE
8
BLACK
6
CONTINUOUS
10
263.059
20
-49.0178
11
262.858
21
-48.5341
0
LINE
8
BLACK
6
CONTINUOUS
10
262.858
20
-48.5341
11
262.756
21
-48.0207
0
LINE
8
BLACK
6
CONTINUOUS
10
262.756
20
-48.0207
11
262.756
21
-47.4973
0
LINE
8
BLACK
6
CONTINUOUS
10
262.756
20
-47.4973
11
262.858
21
-46.9839
0
LINE
8
BLACK
6
CONTINUOUS
10
262.925
20
-48.5138
11
263.12
21
-48.9848
0
LINE
8
BLACK
6
CONTINUOUS
10
263.12
20
-48.9848
11
263.404
21
-49.4086
0
LINE
8
BLACK
6
CONTINUOUS
10
263.404
20
-49.4086
11
263.764
21
-49.769
0
LINE
8
BLACK
6
CONTINUOUS
10
263.764
20
-49.769
11
264.188
21
-50.0522
0
LINE
8
BLACK
6
CONTINUOUS
10
264.188
20
-50.0522
11
264.659
21
-50.2473
0
LINE
8
BLACK
6
CONTINUOUS
10
264.659
20
-50.2473
11
265.159
21
-50.3467
0
LINE
8
BLACK
6
CONTINUOUS
10
265.159
20
-50.3467
11
265.669
21
-50.3467
0
LINE
8
BLACK
6
CONTINUOUS
10
265.669
20
-50.3467
11
266.169
21
-50.2473
0
LINE
8
BLACK
6
CONTINUOUS
10
266.169
20
-50.2473
11
266.639
21
-50.0522
0
LINE
8
BLACK
6
CONTINUOUS
10
266.639
20
-50.0522
11
267.063
21
-49.769
0
LINE
8
BLACK
6
CONTINUOUS
10
267.063
20
-49.769
11
267.424
21
-49.4086
0
LINE
8
BLACK
6
CONTINUOUS
10
267.424
20
-49.4086
11
267.707
21
-48.9848
0
LINE
8
BLACK
6
CONTINUOUS
10
267.707
20
-48.9848
11
267.902
21
-48.5138
0
LINE
8
BLACK
6
CONTINUOUS
10
267.902
20
-48.5138
11
268.001
21
-48.0139
0
LINE
8
BLACK
6
CONTINUOUS
10
268.001
20
-48.0139
11
268.001
21
-47.5041
0
LINE
8
BLACK
6
CONTINUOUS
10
268.001
20
-47.5041
11
267.902
21
-47.0042
0
LINE
8
BLACK
6
CONTINUOUS
10
267.902
20
-47.0042
11
267.707
21
-46.5332
0
LINE
8
BLACK
6
CONTINUOUS
10
267.707
20
-46.5332
11
267.424
21
-46.1094
0
LINE
8
BLACK
6
CONTINUOUS
10
267.424
20
-46.1094
11
267.063
21
-45.749
0
LINE
8
BLACK
6
CONTINUOUS
10
267.063
20
-45.749
11
266.639
21
-45.4658
0
LINE
8
BLACK
6
CONTINUOUS
10
266.639
20
-45.4658
11
266.169
21
-45.2707
0
LINE
8
BLACK
6
CONTINUOUS
10
266.169
20
-45.2707
11
265.669
21
-45.1712
0
LINE
8
BLACK
6
CONTINUOUS
10
265.669
20
-45.1712
11
265.159
21
-45.1712
0
LINE
8
BLACK
6
CONTINUOUS
10
265.159
20
-45.1712
11
264.659
21
-45.2707
0
LINE
8
BLACK
6
CONTINUOUS
10
264.659
20
-45.2707
11
264.188
21
-45.4658
0
LINE
8
BLACK
6
CONTINUOUS
10
264.188
20
-45.4658
11
263.764
21
-45.749
0
LINE
8
BLACK
6
CONTINUOUS
10
263.764
20
-45.749
11
263.404
21
-46.1094
0
LINE
8
BLACK
6
CONTINUOUS
10
263.404
20
-46.1094
11
263.12
21
-46.5332
0
LINE
8
BLACK
6
CONTINUOUS
10
263.12
20
-46.5332
11
262.925
21
-47.0042
0
LINE
8
BLACK
6
CONTINUOUS
10
262.925
20
-47.0042
11
262.826
21
-47.5041
0
LINE
8
BLACK
6
CONTINUOUS
10
262.826
20
-47.5041
11
262.826
21
-48.0139
0
LINE
8
BLACK
6
CONTINUOUS
10
262.826
20
-48.0139
11
262.925
21
-48.5138
  0
ENDSEC
  0
EOF
