G04 #@! TF.GenerationSoftware,KiCad,Pcbnew,(5.1.4)-1*
G04 #@! TF.CreationDate,2020-05-29T20:33:55-05:00*
G04 #@! TF.ProjectId,Keeb,4b656562-2e6b-4696-9361-645f70636258,rev?*
G04 #@! TF.SameCoordinates,Original*
G04 #@! TF.FileFunction,Profile,NP*
%FSLAX46Y46*%
G04 Gerber Fmt 4.6, Leading zero omitted, Abs format (unit mm)*
G04 Created by KiCad (PCBNEW (5.1.4)-1) date 2020-05-29 20:33:55*
%MOMM*%
%LPD*%
G04 APERTURE LIST*
%ADD10C,0.100000*%
G04 APERTURE END LIST*
D10*
X360582604Y-89774936D02*
X359770676Y-92805091D01*
X204123891Y-31867120D02*
X200691215Y-31867120D01*
X311241215Y-42367120D02*
X278348069Y-42367120D01*
X275519642Y-41195547D02*
X267362787Y-33038693D01*
X236698558Y-119610508D02*
G75*
G02X238874140Y-118967120I2175582J-3356613D01*
G01*
X315241215Y-46367120D02*
X315241215Y-70415335D01*
X233283870Y-121823732D02*
G75*
G02X231108289Y-122467120I-2175581J3356611D01*
G01*
X252783871Y-118323732D02*
G75*
G02X250608289Y-118967120I-2175582J3356612D01*
G01*
X311241215Y-42367120D02*
G75*
G02X315241215Y-46367120I0J-4000000D01*
G01*
X357754178Y-84875956D02*
G75*
G02X360582604Y-89774936I-1035277J-3863703D01*
G01*
X349311035Y-131841005D02*
X358140116Y-98890424D01*
X277874140Y-118967121D02*
X304708314Y-118967120D01*
X277874141Y-118967120D02*
G75*
G02X275698559Y-118323732I0J4000000D01*
G01*
X252783870Y-118323732D02*
X256198559Y-116110509D01*
X210423891Y-31867120D02*
X264534360Y-31867120D01*
X258374140Y-115467119D02*
X270108289Y-115467120D01*
X318205939Y-74279038D02*
G75*
G02X315241215Y-70415335I1035276J3863703D01*
G01*
X314924075Y-126768153D02*
G75*
G02X313130924Y-125732876I1035277J3863704D01*
G01*
X314924075Y-126768152D02*
X344412055Y-134669433D01*
X233283870Y-121823731D02*
X236698559Y-119610509D01*
X200691213Y-122467122D02*
G75*
G02X196691215Y-118467120I2J4000000D01*
G01*
X270108289Y-115467121D02*
G75*
G02X272283870Y-116110509I0J-3999999D01*
G01*
X256198558Y-116110507D02*
G75*
G02X258374140Y-115467119I2175582J-3356613D01*
G01*
X238874140Y-118967120D02*
X250608289Y-118967120D01*
X196691215Y-35867120D02*
G75*
G02X200691215Y-31867120I4000000J0D01*
G01*
X278348069Y-42367120D02*
G75*
G02X275519642Y-41195547I0J4000000D01*
G01*
X198691215Y-120467120D02*
G75*
G02X198691215Y-120467120I0J0D01*
G01*
X304708315Y-118967120D02*
G75*
G02X307536741Y-120138693I-1J-3999999D01*
G01*
X313130924Y-125732876D02*
X307536741Y-120138693D01*
X318205938Y-74279038D02*
X357754177Y-84875957D01*
X272283870Y-116110509D02*
X275698559Y-118323732D01*
X264534360Y-31867120D02*
G75*
G02X267362787Y-33038693I0J-4000000D01*
G01*
X349311035Y-131841005D02*
G75*
G02X344412055Y-134669433I-3863704J1035276D01*
G01*
X196691216Y-35867120D02*
X196691215Y-118467120D01*
X200691215Y-122467120D02*
X231108289Y-122467120D01*
X198691215Y-120467120D02*
G75*
G02X198691215Y-120467120I0J0D01*
G01*
X344037600Y-95111666D02*
G75*
G02X344296418Y-94145740I129409J482963D01*
G01*
X349551738Y-89601060D02*
G75*
G02X350710850Y-89911644I579556J-155292D01*
G01*
X350594382Y-90346310D02*
X359770676Y-92805091D01*
X349435270Y-90035727D02*
X345668159Y-89026334D01*
X349551738Y-89601060D02*
X349435270Y-90035727D01*
X345409339Y-89992259D02*
G75*
G02X345668159Y-89026333I129410J482963D01*
G01*
X348847353Y-96866311D02*
G75*
G02X347688241Y-96555725I-579556J155293D01*
G01*
X347804710Y-96121060D02*
X344037599Y-95111665D01*
X347688241Y-96555726D02*
X347804710Y-96121060D01*
X350710850Y-89911645D02*
X350594382Y-90346310D01*
X344296418Y-94145740D02*
X345409340Y-89992259D01*
X348847352Y-96866308D02*
X348963822Y-96431643D01*
X348963822Y-96431643D02*
X358140116Y-98890424D01*
X210423892Y-46467120D02*
G75*
G02X209423892Y-46467120I-500000J0D01*
G01*
X203673892Y-42567121D02*
G75*
G02X203673892Y-41367119I0J600001D01*
G01*
X204123892Y-41367119D02*
X204123892Y-31867120D01*
X204123892Y-42567120D02*
X204123893Y-46467120D01*
X203673892Y-42567120D02*
X204123892Y-42567120D01*
X205123892Y-46467120D02*
G75*
G02X204123892Y-46467120I-500000J0D01*
G01*
X210873893Y-41367120D02*
G75*
G02X210873891Y-42567120I-1J-600000D01*
G01*
X210423892Y-42567120D02*
X210423891Y-46467120D01*
X210873892Y-42567120D02*
X210423892Y-42567120D01*
X203673893Y-41367119D02*
X204123892Y-41367119D01*
X209423892Y-46467120D02*
X205123892Y-46467120D01*
X210873891Y-41367120D02*
X210423892Y-41367119D01*
X210423892Y-41367119D02*
X210423892Y-31867120D01*
M02*
