G04 #@! TF.GenerationSoftware,KiCad,Pcbnew,(5.1.4)-1*
G04 #@! TF.CreationDate,2020-05-29T20:33:55-05:00*
G04 #@! TF.ProjectId,Keeb,4b656562-2e6b-4696-9361-645f70636258,rev?*
G04 #@! TF.SameCoordinates,Original*
G04 #@! TF.FileFunction,Paste,Top*
G04 #@! TF.FilePolarity,Positive*
%FSLAX46Y46*%
G04 Gerber Fmt 4.6, Leading zero omitted, Abs format (unit mm)*
G04 Created by KiCad (PCBNEW (5.1.4)-1) date 2020-05-29 20:33:55*
%MOMM*%
%LPD*%
G04 APERTURE LIST*
%ADD10R,2.550000X2.500000*%
%ADD11R,2.700000X1.700000*%
%ADD12C,1.650000*%
%ADD13C,0.100000*%
%ADD14R,1.650000X1.800000*%
%ADD15R,1.650000X1.650000*%
%ADD16C,1.700000*%
%ADD17C,2.500000*%
%ADD18C,0.600000*%
%ADD19C,1.150000*%
G04 APERTURE END LIST*
D10*
X217678891Y-57453534D03*
X231528891Y-59993534D03*
D11*
X283146215Y-61097120D03*
X278146215Y-61097120D03*
D12*
X355154573Y-90714107D03*
D13*
G36*
X356237432Y-90150155D02*
G01*
X355810381Y-91743933D01*
X354071714Y-91278059D01*
X354498765Y-89684281D01*
X356237432Y-90150155D01*
X356237432Y-90150155D01*
G37*
D12*
X352256795Y-89937650D03*
D13*
G36*
X353339654Y-89373698D02*
G01*
X352912603Y-90967476D01*
X351173936Y-90501602D01*
X351600987Y-88907824D01*
X353339654Y-89373698D01*
X353339654Y-89373698D01*
G37*
D12*
X348199906Y-88850611D03*
D13*
G36*
X349282765Y-88286659D02*
G01*
X348855714Y-89880437D01*
X347117047Y-89414563D01*
X347544098Y-87820785D01*
X349282765Y-88286659D01*
X349282765Y-88286659D01*
G37*
D12*
X355221998Y-98962619D03*
D13*
G36*
X356232413Y-98379256D02*
G01*
X355805361Y-99973034D01*
X354211583Y-99545982D01*
X354638635Y-97952204D01*
X356232413Y-98379256D01*
X356232413Y-98379256D01*
G37*
D14*
X203298892Y-36867120D03*
X203298892Y-39867120D03*
X203298893Y-44067120D03*
D15*
X211248892Y-34667120D03*
D16*
X339778706Y-128685580D03*
D13*
G36*
X341302702Y-128213949D02*
G01*
X340862710Y-129856023D01*
X338254710Y-129157211D01*
X338694702Y-127515137D01*
X341302702Y-128213949D01*
X341302702Y-128213949D01*
G37*
D16*
X334949076Y-127391484D03*
D13*
G36*
X336473072Y-126919853D02*
G01*
X336033080Y-128561927D01*
X333425080Y-127863115D01*
X333865072Y-126221041D01*
X336473072Y-126919853D01*
X336473072Y-126919853D01*
G37*
D16*
X321253707Y-123810582D03*
D13*
G36*
X322777703Y-123338951D02*
G01*
X322337711Y-124981025D01*
X319729711Y-124282213D01*
X320169703Y-122640139D01*
X322777703Y-123338951D01*
X322777703Y-123338951D01*
G37*
D16*
X316424077Y-122516486D03*
D13*
G36*
X317948073Y-122044855D02*
G01*
X317508081Y-123686929D01*
X314900081Y-122988117D01*
X315340073Y-121346043D01*
X317948073Y-122044855D01*
X317948073Y-122044855D01*
G37*
D11*
X302328892Y-100163665D03*
X297328892Y-100163665D03*
X282828891Y-100163667D03*
X277828891Y-100163667D03*
X263328891Y-96663667D03*
X258328891Y-96663667D03*
X243828891Y-100163666D03*
X238828891Y-100163666D03*
X224328891Y-103663534D03*
X219328891Y-103663534D03*
X204828891Y-103663533D03*
X199828891Y-103663533D03*
D16*
X338676275Y-113424713D03*
D13*
G36*
X337152279Y-113896344D02*
G01*
X337592271Y-112254270D01*
X340200271Y-112953082D01*
X339760279Y-114595156D01*
X337152279Y-113896344D01*
X337152279Y-113896344D01*
G37*
D16*
X343505905Y-114718809D03*
D13*
G36*
X341981909Y-115190440D02*
G01*
X342421901Y-113548366D01*
X345029901Y-114247178D01*
X344589909Y-115889252D01*
X341981909Y-115190440D01*
X341981909Y-115190440D01*
G37*
D16*
X324666206Y-109673081D03*
D13*
G36*
X326190202Y-109201450D02*
G01*
X325750210Y-110843524D01*
X323142210Y-110144712D01*
X323582202Y-108502638D01*
X326190202Y-109201450D01*
X326190202Y-109201450D01*
G37*
D16*
X319836576Y-108378985D03*
D13*
G36*
X321360572Y-107907354D02*
G01*
X320920580Y-109549428D01*
X318312580Y-108850616D01*
X318752572Y-107208542D01*
X321360572Y-107907354D01*
X321360572Y-107907354D01*
G37*
D11*
X302326391Y-95376034D03*
X297326391Y-95376034D03*
X282826392Y-95376032D03*
X277826392Y-95376032D03*
X263326391Y-91963534D03*
X258326391Y-91963534D03*
X243826393Y-95376034D03*
X238826393Y-95376034D03*
X224326392Y-98788532D03*
X219326392Y-98788532D03*
X204826391Y-98788533D03*
X199826391Y-98788533D03*
X302328891Y-80663667D03*
X297328891Y-80663667D03*
X282828891Y-80663667D03*
X277828891Y-80663667D03*
X263328893Y-77163667D03*
X258328893Y-77163667D03*
X243828892Y-80663667D03*
X238828892Y-80663667D03*
X224328891Y-84163532D03*
X219328891Y-84163532D03*
X204828891Y-84163534D03*
X199828891Y-84163534D03*
X302328891Y-61163667D03*
X297328891Y-61163667D03*
X263328891Y-57663666D03*
X258328891Y-57663666D03*
X243828891Y-61163665D03*
X238828891Y-61163665D03*
X224328891Y-64663534D03*
X219328891Y-64663534D03*
X204826391Y-64663535D03*
X199826391Y-64663535D03*
D17*
X349833918Y-124120533D03*
D13*
G36*
X351388997Y-123243120D02*
G01*
X350741950Y-125657935D01*
X348278839Y-124997946D01*
X348925886Y-122583131D01*
X351388997Y-123243120D01*
X351388997Y-123243120D01*
G37*
D17*
X337113245Y-118082438D03*
D13*
G36*
X338668324Y-117205025D02*
G01*
X338021277Y-119619840D01*
X335558166Y-118959851D01*
X336205213Y-116545036D01*
X338668324Y-117205025D01*
X338668324Y-117205025D01*
G37*
D17*
X330998365Y-119073561D03*
D13*
G36*
X332553444Y-118196148D02*
G01*
X331906397Y-120610963D01*
X329443286Y-119950974D01*
X330090333Y-117536159D01*
X332553444Y-118196148D01*
X332553444Y-118196148D01*
G37*
D17*
X318277692Y-113035466D03*
D13*
G36*
X319832771Y-112158053D02*
G01*
X319185724Y-114572868D01*
X316722613Y-113912879D01*
X317369660Y-111498064D01*
X319832771Y-112158053D01*
X319832771Y-112158053D01*
G37*
D10*
X310798893Y-107373667D03*
X296948893Y-104833667D03*
X291298891Y-107373667D03*
X277448891Y-104833667D03*
X271798891Y-103873667D03*
X257948891Y-101333667D03*
X252298891Y-107373665D03*
X238448891Y-104833665D03*
X232798891Y-110873534D03*
X218948891Y-108333534D03*
X213298891Y-110873534D03*
X199448891Y-108333534D03*
D17*
X338961290Y-106278540D03*
D13*
G36*
X337406211Y-107155953D02*
G01*
X338053258Y-104741138D01*
X340516369Y-105401127D01*
X339869322Y-107815942D01*
X337406211Y-107155953D01*
X337406211Y-107155953D01*
G37*
D17*
X351681963Y-112316635D03*
D13*
G36*
X350126884Y-113194048D02*
G01*
X350773931Y-110779233D01*
X353237042Y-111439222D01*
X352589995Y-113854037D01*
X350126884Y-113194048D01*
X350126884Y-113194048D01*
G37*
D17*
X320125736Y-101231569D03*
D13*
G36*
X318570657Y-102108982D02*
G01*
X319217704Y-99694167D01*
X321680815Y-100354156D01*
X321033768Y-102768971D01*
X318570657Y-102108982D01*
X318570657Y-102108982D01*
G37*
D17*
X332846409Y-107269664D03*
D13*
G36*
X331291330Y-108147077D02*
G01*
X331938377Y-105732262D01*
X334401488Y-106392251D01*
X333754441Y-108807066D01*
X331291330Y-108147077D01*
X331291330Y-108147077D01*
G37*
D10*
X310798891Y-87873667D03*
X296948891Y-85333667D03*
X291298893Y-87873667D03*
X277448893Y-85333667D03*
X271798889Y-84373667D03*
X257948889Y-81833667D03*
X252298891Y-87873667D03*
X238448891Y-85333667D03*
X232798891Y-91373534D03*
X218948891Y-88833534D03*
X213298891Y-91373532D03*
X199448891Y-88833532D03*
X310798891Y-68373667D03*
X296948891Y-65833667D03*
X291298891Y-68373665D03*
X277448891Y-65833665D03*
X271798892Y-64873665D03*
X257948892Y-62333665D03*
X252298891Y-68373667D03*
X238448891Y-65833667D03*
X232798892Y-71873532D03*
X218948892Y-69333532D03*
X213298891Y-71873534D03*
X199448891Y-69333534D03*
X295678891Y-53953665D03*
X309528891Y-56493665D03*
X276178891Y-53953667D03*
X290028891Y-56493667D03*
X256678893Y-50453666D03*
X270528893Y-52993666D03*
X237178891Y-53953667D03*
X251028891Y-56493667D03*
X198178890Y-57453666D03*
X212028890Y-59993666D03*
D13*
G36*
X341742093Y-84077970D02*
G01*
X341756716Y-84079653D01*
X341771105Y-84082760D01*
X342060883Y-84160406D01*
X342074898Y-84164909D01*
X342088403Y-84170764D01*
X342101270Y-84177915D01*
X342113374Y-84186292D01*
X342124599Y-84195815D01*
X342134836Y-84206393D01*
X342143987Y-84217923D01*
X342151964Y-84230295D01*
X342158690Y-84243389D01*
X342164100Y-84257079D01*
X342168142Y-84271234D01*
X342170777Y-84285716D01*
X342171980Y-84300387D01*
X342171739Y-84315106D01*
X342170056Y-84329729D01*
X342166949Y-84344118D01*
X341714015Y-86034488D01*
X341709512Y-86048503D01*
X341703657Y-86062008D01*
X341696506Y-86074875D01*
X341688129Y-86086979D01*
X341678606Y-86098204D01*
X341668028Y-86108441D01*
X341656498Y-86117592D01*
X341644126Y-86125569D01*
X341631032Y-86132295D01*
X341617342Y-86137705D01*
X341603187Y-86141747D01*
X341588705Y-86144382D01*
X341574034Y-86145585D01*
X341559315Y-86145344D01*
X341544692Y-86143661D01*
X341530303Y-86140554D01*
X341240525Y-86062908D01*
X341226510Y-86058405D01*
X341213005Y-86052550D01*
X341200138Y-86045399D01*
X341188034Y-86037022D01*
X341176809Y-86027499D01*
X341166572Y-86016921D01*
X341157421Y-86005391D01*
X341149444Y-85993019D01*
X341142718Y-85979925D01*
X341137308Y-85966235D01*
X341133266Y-85952080D01*
X341130631Y-85937598D01*
X341129428Y-85922927D01*
X341129669Y-85908208D01*
X341131352Y-85893585D01*
X341134459Y-85879196D01*
X341587393Y-84188826D01*
X341591896Y-84174811D01*
X341597751Y-84161306D01*
X341604902Y-84148439D01*
X341613279Y-84136335D01*
X341622802Y-84125110D01*
X341633380Y-84114873D01*
X341644910Y-84105722D01*
X341657282Y-84097745D01*
X341670376Y-84091019D01*
X341684066Y-84085609D01*
X341698221Y-84081567D01*
X341712703Y-84078932D01*
X341727374Y-84077729D01*
X341742093Y-84077970D01*
X341742093Y-84077970D01*
G37*
D18*
X341650704Y-85111657D03*
D13*
G36*
X340515367Y-83749270D02*
G01*
X340529990Y-83750953D01*
X340544379Y-83754060D01*
X340834157Y-83831706D01*
X340848172Y-83836209D01*
X340861677Y-83842064D01*
X340874544Y-83849215D01*
X340886648Y-83857592D01*
X340897873Y-83867115D01*
X340908110Y-83877693D01*
X340917261Y-83889223D01*
X340925238Y-83901595D01*
X340931964Y-83914689D01*
X340937374Y-83928379D01*
X340941416Y-83942534D01*
X340944051Y-83957016D01*
X340945254Y-83971687D01*
X340945013Y-83986406D01*
X340943330Y-84001029D01*
X340940223Y-84015418D01*
X340487289Y-85705788D01*
X340482786Y-85719803D01*
X340476931Y-85733308D01*
X340469780Y-85746175D01*
X340461403Y-85758279D01*
X340451880Y-85769504D01*
X340441302Y-85779741D01*
X340429772Y-85788892D01*
X340417400Y-85796869D01*
X340404306Y-85803595D01*
X340390616Y-85809005D01*
X340376461Y-85813047D01*
X340361979Y-85815682D01*
X340347308Y-85816885D01*
X340332589Y-85816644D01*
X340317966Y-85814961D01*
X340303577Y-85811854D01*
X340013799Y-85734208D01*
X339999784Y-85729705D01*
X339986279Y-85723850D01*
X339973412Y-85716699D01*
X339961308Y-85708322D01*
X339950083Y-85698799D01*
X339939846Y-85688221D01*
X339930695Y-85676691D01*
X339922718Y-85664319D01*
X339915992Y-85651225D01*
X339910582Y-85637535D01*
X339906540Y-85623380D01*
X339903905Y-85608898D01*
X339902702Y-85594227D01*
X339902943Y-85579508D01*
X339904626Y-85564885D01*
X339907733Y-85550496D01*
X340360667Y-83860126D01*
X340365170Y-83846111D01*
X340371025Y-83832606D01*
X340378176Y-83819739D01*
X340386553Y-83807635D01*
X340396076Y-83796410D01*
X340406654Y-83786173D01*
X340418184Y-83777022D01*
X340430556Y-83769045D01*
X340443650Y-83762319D01*
X340457340Y-83756909D01*
X340471495Y-83752867D01*
X340485977Y-83750232D01*
X340500648Y-83749029D01*
X340515367Y-83749270D01*
X340515367Y-83749270D01*
G37*
D18*
X340423978Y-84782957D03*
D13*
G36*
X339288642Y-83420570D02*
G01*
X339303265Y-83422253D01*
X339317654Y-83425360D01*
X339607432Y-83503006D01*
X339621447Y-83507509D01*
X339634952Y-83513364D01*
X339647819Y-83520515D01*
X339659923Y-83528892D01*
X339671148Y-83538415D01*
X339681385Y-83548993D01*
X339690536Y-83560523D01*
X339698513Y-83572895D01*
X339705239Y-83585989D01*
X339710649Y-83599679D01*
X339714691Y-83613834D01*
X339717326Y-83628316D01*
X339718529Y-83642987D01*
X339718288Y-83657706D01*
X339716605Y-83672329D01*
X339713498Y-83686718D01*
X339260564Y-85377088D01*
X339256061Y-85391103D01*
X339250206Y-85404608D01*
X339243055Y-85417475D01*
X339234678Y-85429579D01*
X339225155Y-85440804D01*
X339214577Y-85451041D01*
X339203047Y-85460192D01*
X339190675Y-85468169D01*
X339177581Y-85474895D01*
X339163891Y-85480305D01*
X339149736Y-85484347D01*
X339135254Y-85486982D01*
X339120583Y-85488185D01*
X339105864Y-85487944D01*
X339091241Y-85486261D01*
X339076852Y-85483154D01*
X338787074Y-85405508D01*
X338773059Y-85401005D01*
X338759554Y-85395150D01*
X338746687Y-85387999D01*
X338734583Y-85379622D01*
X338723358Y-85370099D01*
X338713121Y-85359521D01*
X338703970Y-85347991D01*
X338695993Y-85335619D01*
X338689267Y-85322525D01*
X338683857Y-85308835D01*
X338679815Y-85294680D01*
X338677180Y-85280198D01*
X338675977Y-85265527D01*
X338676218Y-85250808D01*
X338677901Y-85236185D01*
X338681008Y-85221796D01*
X339133942Y-83531426D01*
X339138445Y-83517411D01*
X339144300Y-83503906D01*
X339151451Y-83491039D01*
X339159828Y-83478935D01*
X339169351Y-83467710D01*
X339179929Y-83457473D01*
X339191459Y-83448322D01*
X339203831Y-83440345D01*
X339216925Y-83433619D01*
X339230615Y-83428209D01*
X339244770Y-83424167D01*
X339259252Y-83421532D01*
X339273923Y-83420329D01*
X339288642Y-83420570D01*
X339288642Y-83420570D01*
G37*
D18*
X339197253Y-84454257D03*
D13*
G36*
X338061916Y-83091870D02*
G01*
X338076539Y-83093553D01*
X338090928Y-83096660D01*
X338380706Y-83174306D01*
X338394721Y-83178809D01*
X338408226Y-83184664D01*
X338421093Y-83191815D01*
X338433197Y-83200192D01*
X338444422Y-83209715D01*
X338454659Y-83220293D01*
X338463810Y-83231823D01*
X338471787Y-83244195D01*
X338478513Y-83257289D01*
X338483923Y-83270979D01*
X338487965Y-83285134D01*
X338490600Y-83299616D01*
X338491803Y-83314287D01*
X338491562Y-83329006D01*
X338489879Y-83343629D01*
X338486772Y-83358018D01*
X338033838Y-85048388D01*
X338029335Y-85062403D01*
X338023480Y-85075908D01*
X338016329Y-85088775D01*
X338007952Y-85100879D01*
X337998429Y-85112104D01*
X337987851Y-85122341D01*
X337976321Y-85131492D01*
X337963949Y-85139469D01*
X337950855Y-85146195D01*
X337937165Y-85151605D01*
X337923010Y-85155647D01*
X337908528Y-85158282D01*
X337893857Y-85159485D01*
X337879138Y-85159244D01*
X337864515Y-85157561D01*
X337850126Y-85154454D01*
X337560348Y-85076808D01*
X337546333Y-85072305D01*
X337532828Y-85066450D01*
X337519961Y-85059299D01*
X337507857Y-85050922D01*
X337496632Y-85041399D01*
X337486395Y-85030821D01*
X337477244Y-85019291D01*
X337469267Y-85006919D01*
X337462541Y-84993825D01*
X337457131Y-84980135D01*
X337453089Y-84965980D01*
X337450454Y-84951498D01*
X337449251Y-84936827D01*
X337449492Y-84922108D01*
X337451175Y-84907485D01*
X337454282Y-84893096D01*
X337907216Y-83202726D01*
X337911719Y-83188711D01*
X337917574Y-83175206D01*
X337924725Y-83162339D01*
X337933102Y-83150235D01*
X337942625Y-83139010D01*
X337953203Y-83128773D01*
X337964733Y-83119622D01*
X337977105Y-83111645D01*
X337990199Y-83104919D01*
X338003889Y-83099509D01*
X338018044Y-83095467D01*
X338032526Y-83092832D01*
X338047197Y-83091629D01*
X338061916Y-83091870D01*
X338061916Y-83091870D01*
G37*
D18*
X337970527Y-84125557D03*
D13*
G36*
X336835190Y-82763169D02*
G01*
X336849813Y-82764852D01*
X336864202Y-82767959D01*
X337153980Y-82845605D01*
X337167995Y-82850108D01*
X337181500Y-82855963D01*
X337194367Y-82863114D01*
X337206471Y-82871491D01*
X337217696Y-82881014D01*
X337227933Y-82891592D01*
X337237084Y-82903122D01*
X337245061Y-82915494D01*
X337251787Y-82928588D01*
X337257197Y-82942278D01*
X337261239Y-82956433D01*
X337263874Y-82970915D01*
X337265077Y-82985586D01*
X337264836Y-83000305D01*
X337263153Y-83014928D01*
X337260046Y-83029317D01*
X336807112Y-84719687D01*
X336802609Y-84733702D01*
X336796754Y-84747207D01*
X336789603Y-84760074D01*
X336781226Y-84772178D01*
X336771703Y-84783403D01*
X336761125Y-84793640D01*
X336749595Y-84802791D01*
X336737223Y-84810768D01*
X336724129Y-84817494D01*
X336710439Y-84822904D01*
X336696284Y-84826946D01*
X336681802Y-84829581D01*
X336667131Y-84830784D01*
X336652412Y-84830543D01*
X336637789Y-84828860D01*
X336623400Y-84825753D01*
X336333622Y-84748107D01*
X336319607Y-84743604D01*
X336306102Y-84737749D01*
X336293235Y-84730598D01*
X336281131Y-84722221D01*
X336269906Y-84712698D01*
X336259669Y-84702120D01*
X336250518Y-84690590D01*
X336242541Y-84678218D01*
X336235815Y-84665124D01*
X336230405Y-84651434D01*
X336226363Y-84637279D01*
X336223728Y-84622797D01*
X336222525Y-84608126D01*
X336222766Y-84593407D01*
X336224449Y-84578784D01*
X336227556Y-84564395D01*
X336680490Y-82874025D01*
X336684993Y-82860010D01*
X336690848Y-82846505D01*
X336697999Y-82833638D01*
X336706376Y-82821534D01*
X336715899Y-82810309D01*
X336726477Y-82800072D01*
X336738007Y-82790921D01*
X336750379Y-82782944D01*
X336763473Y-82776218D01*
X336777163Y-82770808D01*
X336791318Y-82766766D01*
X336805800Y-82764131D01*
X336820471Y-82762928D01*
X336835190Y-82763169D01*
X336835190Y-82763169D01*
G37*
D18*
X336743801Y-83796856D03*
D13*
G36*
X335608464Y-82434469D02*
G01*
X335623087Y-82436152D01*
X335637476Y-82439259D01*
X335927254Y-82516905D01*
X335941269Y-82521408D01*
X335954774Y-82527263D01*
X335967641Y-82534414D01*
X335979745Y-82542791D01*
X335990970Y-82552314D01*
X336001207Y-82562892D01*
X336010358Y-82574422D01*
X336018335Y-82586794D01*
X336025061Y-82599888D01*
X336030471Y-82613578D01*
X336034513Y-82627733D01*
X336037148Y-82642215D01*
X336038351Y-82656886D01*
X336038110Y-82671605D01*
X336036427Y-82686228D01*
X336033320Y-82700617D01*
X335580386Y-84390987D01*
X335575883Y-84405002D01*
X335570028Y-84418507D01*
X335562877Y-84431374D01*
X335554500Y-84443478D01*
X335544977Y-84454703D01*
X335534399Y-84464940D01*
X335522869Y-84474091D01*
X335510497Y-84482068D01*
X335497403Y-84488794D01*
X335483713Y-84494204D01*
X335469558Y-84498246D01*
X335455076Y-84500881D01*
X335440405Y-84502084D01*
X335425686Y-84501843D01*
X335411063Y-84500160D01*
X335396674Y-84497053D01*
X335106896Y-84419407D01*
X335092881Y-84414904D01*
X335079376Y-84409049D01*
X335066509Y-84401898D01*
X335054405Y-84393521D01*
X335043180Y-84383998D01*
X335032943Y-84373420D01*
X335023792Y-84361890D01*
X335015815Y-84349518D01*
X335009089Y-84336424D01*
X335003679Y-84322734D01*
X334999637Y-84308579D01*
X334997002Y-84294097D01*
X334995799Y-84279426D01*
X334996040Y-84264707D01*
X334997723Y-84250084D01*
X335000830Y-84235695D01*
X335453764Y-82545325D01*
X335458267Y-82531310D01*
X335464122Y-82517805D01*
X335471273Y-82504938D01*
X335479650Y-82492834D01*
X335489173Y-82481609D01*
X335499751Y-82471372D01*
X335511281Y-82462221D01*
X335523653Y-82454244D01*
X335536747Y-82447518D01*
X335550437Y-82442108D01*
X335564592Y-82438066D01*
X335579074Y-82435431D01*
X335593745Y-82434228D01*
X335608464Y-82434469D01*
X335608464Y-82434469D01*
G37*
D18*
X335517075Y-83468156D03*
D13*
G36*
X334381738Y-82105769D02*
G01*
X334396361Y-82107452D01*
X334410750Y-82110559D01*
X334700528Y-82188205D01*
X334714543Y-82192708D01*
X334728048Y-82198563D01*
X334740915Y-82205714D01*
X334753019Y-82214091D01*
X334764244Y-82223614D01*
X334774481Y-82234192D01*
X334783632Y-82245722D01*
X334791609Y-82258094D01*
X334798335Y-82271188D01*
X334803745Y-82284878D01*
X334807787Y-82299033D01*
X334810422Y-82313515D01*
X334811625Y-82328186D01*
X334811384Y-82342905D01*
X334809701Y-82357528D01*
X334806594Y-82371917D01*
X334353660Y-84062287D01*
X334349157Y-84076302D01*
X334343302Y-84089807D01*
X334336151Y-84102674D01*
X334327774Y-84114778D01*
X334318251Y-84126003D01*
X334307673Y-84136240D01*
X334296143Y-84145391D01*
X334283771Y-84153368D01*
X334270677Y-84160094D01*
X334256987Y-84165504D01*
X334242832Y-84169546D01*
X334228350Y-84172181D01*
X334213679Y-84173384D01*
X334198960Y-84173143D01*
X334184337Y-84171460D01*
X334169948Y-84168353D01*
X333880170Y-84090707D01*
X333866155Y-84086204D01*
X333852650Y-84080349D01*
X333839783Y-84073198D01*
X333827679Y-84064821D01*
X333816454Y-84055298D01*
X333806217Y-84044720D01*
X333797066Y-84033190D01*
X333789089Y-84020818D01*
X333782363Y-84007724D01*
X333776953Y-83994034D01*
X333772911Y-83979879D01*
X333770276Y-83965397D01*
X333769073Y-83950726D01*
X333769314Y-83936007D01*
X333770997Y-83921384D01*
X333774104Y-83906995D01*
X334227038Y-82216625D01*
X334231541Y-82202610D01*
X334237396Y-82189105D01*
X334244547Y-82176238D01*
X334252924Y-82164134D01*
X334262447Y-82152909D01*
X334273025Y-82142672D01*
X334284555Y-82133521D01*
X334296927Y-82125544D01*
X334310021Y-82118818D01*
X334323711Y-82113408D01*
X334337866Y-82109366D01*
X334352348Y-82106731D01*
X334367019Y-82105528D01*
X334381738Y-82105769D01*
X334381738Y-82105769D01*
G37*
D18*
X334290349Y-83139456D03*
D13*
G36*
X333155013Y-81777069D02*
G01*
X333169636Y-81778752D01*
X333184025Y-81781859D01*
X333473803Y-81859505D01*
X333487818Y-81864008D01*
X333501323Y-81869863D01*
X333514190Y-81877014D01*
X333526294Y-81885391D01*
X333537519Y-81894914D01*
X333547756Y-81905492D01*
X333556907Y-81917022D01*
X333564884Y-81929394D01*
X333571610Y-81942488D01*
X333577020Y-81956178D01*
X333581062Y-81970333D01*
X333583697Y-81984815D01*
X333584900Y-81999486D01*
X333584659Y-82014205D01*
X333582976Y-82028828D01*
X333579869Y-82043217D01*
X333126935Y-83733587D01*
X333122432Y-83747602D01*
X333116577Y-83761107D01*
X333109426Y-83773974D01*
X333101049Y-83786078D01*
X333091526Y-83797303D01*
X333080948Y-83807540D01*
X333069418Y-83816691D01*
X333057046Y-83824668D01*
X333043952Y-83831394D01*
X333030262Y-83836804D01*
X333016107Y-83840846D01*
X333001625Y-83843481D01*
X332986954Y-83844684D01*
X332972235Y-83844443D01*
X332957612Y-83842760D01*
X332943223Y-83839653D01*
X332653445Y-83762007D01*
X332639430Y-83757504D01*
X332625925Y-83751649D01*
X332613058Y-83744498D01*
X332600954Y-83736121D01*
X332589729Y-83726598D01*
X332579492Y-83716020D01*
X332570341Y-83704490D01*
X332562364Y-83692118D01*
X332555638Y-83679024D01*
X332550228Y-83665334D01*
X332546186Y-83651179D01*
X332543551Y-83636697D01*
X332542348Y-83622026D01*
X332542589Y-83607307D01*
X332544272Y-83592684D01*
X332547379Y-83578295D01*
X333000313Y-81887925D01*
X333004816Y-81873910D01*
X333010671Y-81860405D01*
X333017822Y-81847538D01*
X333026199Y-81835434D01*
X333035722Y-81824209D01*
X333046300Y-81813972D01*
X333057830Y-81804821D01*
X333070202Y-81796844D01*
X333083296Y-81790118D01*
X333096986Y-81784708D01*
X333111141Y-81780666D01*
X333125623Y-81778031D01*
X333140294Y-81776828D01*
X333155013Y-81777069D01*
X333155013Y-81777069D01*
G37*
D18*
X333063624Y-82810756D03*
D13*
G36*
X331928287Y-81448369D02*
G01*
X331942910Y-81450052D01*
X331957299Y-81453159D01*
X332247077Y-81530805D01*
X332261092Y-81535308D01*
X332274597Y-81541163D01*
X332287464Y-81548314D01*
X332299568Y-81556691D01*
X332310793Y-81566214D01*
X332321030Y-81576792D01*
X332330181Y-81588322D01*
X332338158Y-81600694D01*
X332344884Y-81613788D01*
X332350294Y-81627478D01*
X332354336Y-81641633D01*
X332356971Y-81656115D01*
X332358174Y-81670786D01*
X332357933Y-81685505D01*
X332356250Y-81700128D01*
X332353143Y-81714517D01*
X331900209Y-83404887D01*
X331895706Y-83418902D01*
X331889851Y-83432407D01*
X331882700Y-83445274D01*
X331874323Y-83457378D01*
X331864800Y-83468603D01*
X331854222Y-83478840D01*
X331842692Y-83487991D01*
X331830320Y-83495968D01*
X331817226Y-83502694D01*
X331803536Y-83508104D01*
X331789381Y-83512146D01*
X331774899Y-83514781D01*
X331760228Y-83515984D01*
X331745509Y-83515743D01*
X331730886Y-83514060D01*
X331716497Y-83510953D01*
X331426719Y-83433307D01*
X331412704Y-83428804D01*
X331399199Y-83422949D01*
X331386332Y-83415798D01*
X331374228Y-83407421D01*
X331363003Y-83397898D01*
X331352766Y-83387320D01*
X331343615Y-83375790D01*
X331335638Y-83363418D01*
X331328912Y-83350324D01*
X331323502Y-83336634D01*
X331319460Y-83322479D01*
X331316825Y-83307997D01*
X331315622Y-83293326D01*
X331315863Y-83278607D01*
X331317546Y-83263984D01*
X331320653Y-83249595D01*
X331773587Y-81559225D01*
X331778090Y-81545210D01*
X331783945Y-81531705D01*
X331791096Y-81518838D01*
X331799473Y-81506734D01*
X331808996Y-81495509D01*
X331819574Y-81485272D01*
X331831104Y-81476121D01*
X331843476Y-81468144D01*
X331856570Y-81461418D01*
X331870260Y-81456008D01*
X331884415Y-81451966D01*
X331898897Y-81449331D01*
X331913568Y-81448128D01*
X331928287Y-81448369D01*
X331928287Y-81448369D01*
G37*
D18*
X331836898Y-82482056D03*
D13*
G36*
X330701561Y-81119668D02*
G01*
X330716184Y-81121351D01*
X330730573Y-81124458D01*
X331020351Y-81202104D01*
X331034366Y-81206607D01*
X331047871Y-81212462D01*
X331060738Y-81219613D01*
X331072842Y-81227990D01*
X331084067Y-81237513D01*
X331094304Y-81248091D01*
X331103455Y-81259621D01*
X331111432Y-81271993D01*
X331118158Y-81285087D01*
X331123568Y-81298777D01*
X331127610Y-81312932D01*
X331130245Y-81327414D01*
X331131448Y-81342085D01*
X331131207Y-81356804D01*
X331129524Y-81371427D01*
X331126417Y-81385816D01*
X330673483Y-83076186D01*
X330668980Y-83090201D01*
X330663125Y-83103706D01*
X330655974Y-83116573D01*
X330647597Y-83128677D01*
X330638074Y-83139902D01*
X330627496Y-83150139D01*
X330615966Y-83159290D01*
X330603594Y-83167267D01*
X330590500Y-83173993D01*
X330576810Y-83179403D01*
X330562655Y-83183445D01*
X330548173Y-83186080D01*
X330533502Y-83187283D01*
X330518783Y-83187042D01*
X330504160Y-83185359D01*
X330489771Y-83182252D01*
X330199993Y-83104606D01*
X330185978Y-83100103D01*
X330172473Y-83094248D01*
X330159606Y-83087097D01*
X330147502Y-83078720D01*
X330136277Y-83069197D01*
X330126040Y-83058619D01*
X330116889Y-83047089D01*
X330108912Y-83034717D01*
X330102186Y-83021623D01*
X330096776Y-83007933D01*
X330092734Y-82993778D01*
X330090099Y-82979296D01*
X330088896Y-82964625D01*
X330089137Y-82949906D01*
X330090820Y-82935283D01*
X330093927Y-82920894D01*
X330546861Y-81230524D01*
X330551364Y-81216509D01*
X330557219Y-81203004D01*
X330564370Y-81190137D01*
X330572747Y-81178033D01*
X330582270Y-81166808D01*
X330592848Y-81156571D01*
X330604378Y-81147420D01*
X330616750Y-81139443D01*
X330629844Y-81132717D01*
X330643534Y-81127307D01*
X330657689Y-81123265D01*
X330672171Y-81120630D01*
X330686842Y-81119427D01*
X330701561Y-81119668D01*
X330701561Y-81119668D01*
G37*
D18*
X330610172Y-82153355D03*
D13*
G36*
X329474835Y-80790968D02*
G01*
X329489458Y-80792651D01*
X329503847Y-80795758D01*
X329793625Y-80873404D01*
X329807640Y-80877907D01*
X329821145Y-80883762D01*
X329834012Y-80890913D01*
X329846116Y-80899290D01*
X329857341Y-80908813D01*
X329867578Y-80919391D01*
X329876729Y-80930921D01*
X329884706Y-80943293D01*
X329891432Y-80956387D01*
X329896842Y-80970077D01*
X329900884Y-80984232D01*
X329903519Y-80998714D01*
X329904722Y-81013385D01*
X329904481Y-81028104D01*
X329902798Y-81042727D01*
X329899691Y-81057116D01*
X329446757Y-82747486D01*
X329442254Y-82761501D01*
X329436399Y-82775006D01*
X329429248Y-82787873D01*
X329420871Y-82799977D01*
X329411348Y-82811202D01*
X329400770Y-82821439D01*
X329389240Y-82830590D01*
X329376868Y-82838567D01*
X329363774Y-82845293D01*
X329350084Y-82850703D01*
X329335929Y-82854745D01*
X329321447Y-82857380D01*
X329306776Y-82858583D01*
X329292057Y-82858342D01*
X329277434Y-82856659D01*
X329263045Y-82853552D01*
X328973267Y-82775906D01*
X328959252Y-82771403D01*
X328945747Y-82765548D01*
X328932880Y-82758397D01*
X328920776Y-82750020D01*
X328909551Y-82740497D01*
X328899314Y-82729919D01*
X328890163Y-82718389D01*
X328882186Y-82706017D01*
X328875460Y-82692923D01*
X328870050Y-82679233D01*
X328866008Y-82665078D01*
X328863373Y-82650596D01*
X328862170Y-82635925D01*
X328862411Y-82621206D01*
X328864094Y-82606583D01*
X328867201Y-82592194D01*
X329320135Y-80901824D01*
X329324638Y-80887809D01*
X329330493Y-80874304D01*
X329337644Y-80861437D01*
X329346021Y-80849333D01*
X329355544Y-80838108D01*
X329366122Y-80827871D01*
X329377652Y-80818720D01*
X329390024Y-80810743D01*
X329403118Y-80804017D01*
X329416808Y-80798607D01*
X329430963Y-80794565D01*
X329445445Y-80791930D01*
X329460116Y-80790727D01*
X329474835Y-80790968D01*
X329474835Y-80790968D01*
G37*
D18*
X329383446Y-81824655D03*
D13*
G36*
X328248109Y-80462268D02*
G01*
X328262732Y-80463951D01*
X328277121Y-80467058D01*
X328566899Y-80544704D01*
X328580914Y-80549207D01*
X328594419Y-80555062D01*
X328607286Y-80562213D01*
X328619390Y-80570590D01*
X328630615Y-80580113D01*
X328640852Y-80590691D01*
X328650003Y-80602221D01*
X328657980Y-80614593D01*
X328664706Y-80627687D01*
X328670116Y-80641377D01*
X328674158Y-80655532D01*
X328676793Y-80670014D01*
X328677996Y-80684685D01*
X328677755Y-80699404D01*
X328676072Y-80714027D01*
X328672965Y-80728416D01*
X328220031Y-82418786D01*
X328215528Y-82432801D01*
X328209673Y-82446306D01*
X328202522Y-82459173D01*
X328194145Y-82471277D01*
X328184622Y-82482502D01*
X328174044Y-82492739D01*
X328162514Y-82501890D01*
X328150142Y-82509867D01*
X328137048Y-82516593D01*
X328123358Y-82522003D01*
X328109203Y-82526045D01*
X328094721Y-82528680D01*
X328080050Y-82529883D01*
X328065331Y-82529642D01*
X328050708Y-82527959D01*
X328036319Y-82524852D01*
X327746541Y-82447206D01*
X327732526Y-82442703D01*
X327719021Y-82436848D01*
X327706154Y-82429697D01*
X327694050Y-82421320D01*
X327682825Y-82411797D01*
X327672588Y-82401219D01*
X327663437Y-82389689D01*
X327655460Y-82377317D01*
X327648734Y-82364223D01*
X327643324Y-82350533D01*
X327639282Y-82336378D01*
X327636647Y-82321896D01*
X327635444Y-82307225D01*
X327635685Y-82292506D01*
X327637368Y-82277883D01*
X327640475Y-82263494D01*
X328093409Y-80573124D01*
X328097912Y-80559109D01*
X328103767Y-80545604D01*
X328110918Y-80532737D01*
X328119295Y-80520633D01*
X328128818Y-80509408D01*
X328139396Y-80499171D01*
X328150926Y-80490020D01*
X328163298Y-80482043D01*
X328176392Y-80475317D01*
X328190082Y-80469907D01*
X328204237Y-80465865D01*
X328218719Y-80463230D01*
X328233390Y-80462027D01*
X328248109Y-80462268D01*
X328248109Y-80462268D01*
G37*
D18*
X328156720Y-81495955D03*
D13*
G36*
X327021384Y-80133568D02*
G01*
X327036007Y-80135251D01*
X327050396Y-80138358D01*
X327340174Y-80216004D01*
X327354189Y-80220507D01*
X327367694Y-80226362D01*
X327380561Y-80233513D01*
X327392665Y-80241890D01*
X327403890Y-80251413D01*
X327414127Y-80261991D01*
X327423278Y-80273521D01*
X327431255Y-80285893D01*
X327437981Y-80298987D01*
X327443391Y-80312677D01*
X327447433Y-80326832D01*
X327450068Y-80341314D01*
X327451271Y-80355985D01*
X327451030Y-80370704D01*
X327449347Y-80385327D01*
X327446240Y-80399716D01*
X326993306Y-82090086D01*
X326988803Y-82104101D01*
X326982948Y-82117606D01*
X326975797Y-82130473D01*
X326967420Y-82142577D01*
X326957897Y-82153802D01*
X326947319Y-82164039D01*
X326935789Y-82173190D01*
X326923417Y-82181167D01*
X326910323Y-82187893D01*
X326896633Y-82193303D01*
X326882478Y-82197345D01*
X326867996Y-82199980D01*
X326853325Y-82201183D01*
X326838606Y-82200942D01*
X326823983Y-82199259D01*
X326809594Y-82196152D01*
X326519816Y-82118506D01*
X326505801Y-82114003D01*
X326492296Y-82108148D01*
X326479429Y-82100997D01*
X326467325Y-82092620D01*
X326456100Y-82083097D01*
X326445863Y-82072519D01*
X326436712Y-82060989D01*
X326428735Y-82048617D01*
X326422009Y-82035523D01*
X326416599Y-82021833D01*
X326412557Y-82007678D01*
X326409922Y-81993196D01*
X326408719Y-81978525D01*
X326408960Y-81963806D01*
X326410643Y-81949183D01*
X326413750Y-81934794D01*
X326866684Y-80244424D01*
X326871187Y-80230409D01*
X326877042Y-80216904D01*
X326884193Y-80204037D01*
X326892570Y-80191933D01*
X326902093Y-80180708D01*
X326912671Y-80170471D01*
X326924201Y-80161320D01*
X326936573Y-80153343D01*
X326949667Y-80146617D01*
X326963357Y-80141207D01*
X326977512Y-80137165D01*
X326991994Y-80134530D01*
X327006665Y-80133327D01*
X327021384Y-80133568D01*
X327021384Y-80133568D01*
G37*
D18*
X326929995Y-81167255D03*
D13*
G36*
X325794658Y-79804868D02*
G01*
X325809281Y-79806551D01*
X325823670Y-79809658D01*
X326113448Y-79887304D01*
X326127463Y-79891807D01*
X326140968Y-79897662D01*
X326153835Y-79904813D01*
X326165939Y-79913190D01*
X326177164Y-79922713D01*
X326187401Y-79933291D01*
X326196552Y-79944821D01*
X326204529Y-79957193D01*
X326211255Y-79970287D01*
X326216665Y-79983977D01*
X326220707Y-79998132D01*
X326223342Y-80012614D01*
X326224545Y-80027285D01*
X326224304Y-80042004D01*
X326222621Y-80056627D01*
X326219514Y-80071016D01*
X325766580Y-81761386D01*
X325762077Y-81775401D01*
X325756222Y-81788906D01*
X325749071Y-81801773D01*
X325740694Y-81813877D01*
X325731171Y-81825102D01*
X325720593Y-81835339D01*
X325709063Y-81844490D01*
X325696691Y-81852467D01*
X325683597Y-81859193D01*
X325669907Y-81864603D01*
X325655752Y-81868645D01*
X325641270Y-81871280D01*
X325626599Y-81872483D01*
X325611880Y-81872242D01*
X325597257Y-81870559D01*
X325582868Y-81867452D01*
X325293090Y-81789806D01*
X325279075Y-81785303D01*
X325265570Y-81779448D01*
X325252703Y-81772297D01*
X325240599Y-81763920D01*
X325229374Y-81754397D01*
X325219137Y-81743819D01*
X325209986Y-81732289D01*
X325202009Y-81719917D01*
X325195283Y-81706823D01*
X325189873Y-81693133D01*
X325185831Y-81678978D01*
X325183196Y-81664496D01*
X325181993Y-81649825D01*
X325182234Y-81635106D01*
X325183917Y-81620483D01*
X325187024Y-81606094D01*
X325639958Y-79915724D01*
X325644461Y-79901709D01*
X325650316Y-79888204D01*
X325657467Y-79875337D01*
X325665844Y-79863233D01*
X325675367Y-79852008D01*
X325685945Y-79841771D01*
X325697475Y-79832620D01*
X325709847Y-79824643D01*
X325722941Y-79817917D01*
X325736631Y-79812507D01*
X325750786Y-79808465D01*
X325765268Y-79805830D01*
X325779939Y-79804627D01*
X325794658Y-79804868D01*
X325794658Y-79804868D01*
G37*
D18*
X325703269Y-80838555D03*
D13*
G36*
X323387641Y-88787978D02*
G01*
X323402264Y-88789661D01*
X323416653Y-88792768D01*
X323706431Y-88870414D01*
X323720446Y-88874917D01*
X323733951Y-88880772D01*
X323746818Y-88887923D01*
X323758922Y-88896300D01*
X323770147Y-88905823D01*
X323780384Y-88916401D01*
X323789535Y-88927931D01*
X323797512Y-88940303D01*
X323804238Y-88953397D01*
X323809648Y-88967087D01*
X323813690Y-88981242D01*
X323816325Y-88995724D01*
X323817528Y-89010395D01*
X323817287Y-89025114D01*
X323815604Y-89039737D01*
X323812497Y-89054126D01*
X323359563Y-90744496D01*
X323355060Y-90758511D01*
X323349205Y-90772016D01*
X323342054Y-90784883D01*
X323333677Y-90796987D01*
X323324154Y-90808212D01*
X323313576Y-90818449D01*
X323302046Y-90827600D01*
X323289674Y-90835577D01*
X323276580Y-90842303D01*
X323262890Y-90847713D01*
X323248735Y-90851755D01*
X323234253Y-90854390D01*
X323219582Y-90855593D01*
X323204863Y-90855352D01*
X323190240Y-90853669D01*
X323175851Y-90850562D01*
X322886073Y-90772916D01*
X322872058Y-90768413D01*
X322858553Y-90762558D01*
X322845686Y-90755407D01*
X322833582Y-90747030D01*
X322822357Y-90737507D01*
X322812120Y-90726929D01*
X322802969Y-90715399D01*
X322794992Y-90703027D01*
X322788266Y-90689933D01*
X322782856Y-90676243D01*
X322778814Y-90662088D01*
X322776179Y-90647606D01*
X322774976Y-90632935D01*
X322775217Y-90618216D01*
X322776900Y-90603593D01*
X322780007Y-90589204D01*
X323232941Y-88898834D01*
X323237444Y-88884819D01*
X323243299Y-88871314D01*
X323250450Y-88858447D01*
X323258827Y-88846343D01*
X323268350Y-88835118D01*
X323278928Y-88824881D01*
X323290458Y-88815730D01*
X323302830Y-88807753D01*
X323315924Y-88801027D01*
X323329614Y-88795617D01*
X323343769Y-88791575D01*
X323358251Y-88788940D01*
X323372922Y-88787737D01*
X323387641Y-88787978D01*
X323387641Y-88787978D01*
G37*
D18*
X323296252Y-89821665D03*
D13*
G36*
X324614367Y-89116678D02*
G01*
X324628990Y-89118361D01*
X324643379Y-89121468D01*
X324933157Y-89199114D01*
X324947172Y-89203617D01*
X324960677Y-89209472D01*
X324973544Y-89216623D01*
X324985648Y-89225000D01*
X324996873Y-89234523D01*
X325007110Y-89245101D01*
X325016261Y-89256631D01*
X325024238Y-89269003D01*
X325030964Y-89282097D01*
X325036374Y-89295787D01*
X325040416Y-89309942D01*
X325043051Y-89324424D01*
X325044254Y-89339095D01*
X325044013Y-89353814D01*
X325042330Y-89368437D01*
X325039223Y-89382826D01*
X324586289Y-91073196D01*
X324581786Y-91087211D01*
X324575931Y-91100716D01*
X324568780Y-91113583D01*
X324560403Y-91125687D01*
X324550880Y-91136912D01*
X324540302Y-91147149D01*
X324528772Y-91156300D01*
X324516400Y-91164277D01*
X324503306Y-91171003D01*
X324489616Y-91176413D01*
X324475461Y-91180455D01*
X324460979Y-91183090D01*
X324446308Y-91184293D01*
X324431589Y-91184052D01*
X324416966Y-91182369D01*
X324402577Y-91179262D01*
X324112799Y-91101616D01*
X324098784Y-91097113D01*
X324085279Y-91091258D01*
X324072412Y-91084107D01*
X324060308Y-91075730D01*
X324049083Y-91066207D01*
X324038846Y-91055629D01*
X324029695Y-91044099D01*
X324021718Y-91031727D01*
X324014992Y-91018633D01*
X324009582Y-91004943D01*
X324005540Y-90990788D01*
X324002905Y-90976306D01*
X324001702Y-90961635D01*
X324001943Y-90946916D01*
X324003626Y-90932293D01*
X324006733Y-90917904D01*
X324459667Y-89227534D01*
X324464170Y-89213519D01*
X324470025Y-89200014D01*
X324477176Y-89187147D01*
X324485553Y-89175043D01*
X324495076Y-89163818D01*
X324505654Y-89153581D01*
X324517184Y-89144430D01*
X324529556Y-89136453D01*
X324542650Y-89129727D01*
X324556340Y-89124317D01*
X324570495Y-89120275D01*
X324584977Y-89117640D01*
X324599648Y-89116437D01*
X324614367Y-89116678D01*
X324614367Y-89116678D01*
G37*
D18*
X324522978Y-90150365D03*
D13*
G36*
X325841092Y-89445378D02*
G01*
X325855715Y-89447061D01*
X325870104Y-89450168D01*
X326159882Y-89527814D01*
X326173897Y-89532317D01*
X326187402Y-89538172D01*
X326200269Y-89545323D01*
X326212373Y-89553700D01*
X326223598Y-89563223D01*
X326233835Y-89573801D01*
X326242986Y-89585331D01*
X326250963Y-89597703D01*
X326257689Y-89610797D01*
X326263099Y-89624487D01*
X326267141Y-89638642D01*
X326269776Y-89653124D01*
X326270979Y-89667795D01*
X326270738Y-89682514D01*
X326269055Y-89697137D01*
X326265948Y-89711526D01*
X325813014Y-91401896D01*
X325808511Y-91415911D01*
X325802656Y-91429416D01*
X325795505Y-91442283D01*
X325787128Y-91454387D01*
X325777605Y-91465612D01*
X325767027Y-91475849D01*
X325755497Y-91485000D01*
X325743125Y-91492977D01*
X325730031Y-91499703D01*
X325716341Y-91505113D01*
X325702186Y-91509155D01*
X325687704Y-91511790D01*
X325673033Y-91512993D01*
X325658314Y-91512752D01*
X325643691Y-91511069D01*
X325629302Y-91507962D01*
X325339524Y-91430316D01*
X325325509Y-91425813D01*
X325312004Y-91419958D01*
X325299137Y-91412807D01*
X325287033Y-91404430D01*
X325275808Y-91394907D01*
X325265571Y-91384329D01*
X325256420Y-91372799D01*
X325248443Y-91360427D01*
X325241717Y-91347333D01*
X325236307Y-91333643D01*
X325232265Y-91319488D01*
X325229630Y-91305006D01*
X325228427Y-91290335D01*
X325228668Y-91275616D01*
X325230351Y-91260993D01*
X325233458Y-91246604D01*
X325686392Y-89556234D01*
X325690895Y-89542219D01*
X325696750Y-89528714D01*
X325703901Y-89515847D01*
X325712278Y-89503743D01*
X325721801Y-89492518D01*
X325732379Y-89482281D01*
X325743909Y-89473130D01*
X325756281Y-89465153D01*
X325769375Y-89458427D01*
X325783065Y-89453017D01*
X325797220Y-89448975D01*
X325811702Y-89446340D01*
X325826373Y-89445137D01*
X325841092Y-89445378D01*
X325841092Y-89445378D01*
G37*
D18*
X325749703Y-90479065D03*
D13*
G36*
X327067818Y-89774078D02*
G01*
X327082441Y-89775761D01*
X327096830Y-89778868D01*
X327386608Y-89856514D01*
X327400623Y-89861017D01*
X327414128Y-89866872D01*
X327426995Y-89874023D01*
X327439099Y-89882400D01*
X327450324Y-89891923D01*
X327460561Y-89902501D01*
X327469712Y-89914031D01*
X327477689Y-89926403D01*
X327484415Y-89939497D01*
X327489825Y-89953187D01*
X327493867Y-89967342D01*
X327496502Y-89981824D01*
X327497705Y-89996495D01*
X327497464Y-90011214D01*
X327495781Y-90025837D01*
X327492674Y-90040226D01*
X327039740Y-91730596D01*
X327035237Y-91744611D01*
X327029382Y-91758116D01*
X327022231Y-91770983D01*
X327013854Y-91783087D01*
X327004331Y-91794312D01*
X326993753Y-91804549D01*
X326982223Y-91813700D01*
X326969851Y-91821677D01*
X326956757Y-91828403D01*
X326943067Y-91833813D01*
X326928912Y-91837855D01*
X326914430Y-91840490D01*
X326899759Y-91841693D01*
X326885040Y-91841452D01*
X326870417Y-91839769D01*
X326856028Y-91836662D01*
X326566250Y-91759016D01*
X326552235Y-91754513D01*
X326538730Y-91748658D01*
X326525863Y-91741507D01*
X326513759Y-91733130D01*
X326502534Y-91723607D01*
X326492297Y-91713029D01*
X326483146Y-91701499D01*
X326475169Y-91689127D01*
X326468443Y-91676033D01*
X326463033Y-91662343D01*
X326458991Y-91648188D01*
X326456356Y-91633706D01*
X326455153Y-91619035D01*
X326455394Y-91604316D01*
X326457077Y-91589693D01*
X326460184Y-91575304D01*
X326913118Y-89884934D01*
X326917621Y-89870919D01*
X326923476Y-89857414D01*
X326930627Y-89844547D01*
X326939004Y-89832443D01*
X326948527Y-89821218D01*
X326959105Y-89810981D01*
X326970635Y-89801830D01*
X326983007Y-89793853D01*
X326996101Y-89787127D01*
X327009791Y-89781717D01*
X327023946Y-89777675D01*
X327038428Y-89775040D01*
X327053099Y-89773837D01*
X327067818Y-89774078D01*
X327067818Y-89774078D01*
G37*
D18*
X326976429Y-90807765D03*
D13*
G36*
X328294544Y-90102779D02*
G01*
X328309167Y-90104462D01*
X328323556Y-90107569D01*
X328613334Y-90185215D01*
X328627349Y-90189718D01*
X328640854Y-90195573D01*
X328653721Y-90202724D01*
X328665825Y-90211101D01*
X328677050Y-90220624D01*
X328687287Y-90231202D01*
X328696438Y-90242732D01*
X328704415Y-90255104D01*
X328711141Y-90268198D01*
X328716551Y-90281888D01*
X328720593Y-90296043D01*
X328723228Y-90310525D01*
X328724431Y-90325196D01*
X328724190Y-90339915D01*
X328722507Y-90354538D01*
X328719400Y-90368927D01*
X328266466Y-92059297D01*
X328261963Y-92073312D01*
X328256108Y-92086817D01*
X328248957Y-92099684D01*
X328240580Y-92111788D01*
X328231057Y-92123013D01*
X328220479Y-92133250D01*
X328208949Y-92142401D01*
X328196577Y-92150378D01*
X328183483Y-92157104D01*
X328169793Y-92162514D01*
X328155638Y-92166556D01*
X328141156Y-92169191D01*
X328126485Y-92170394D01*
X328111766Y-92170153D01*
X328097143Y-92168470D01*
X328082754Y-92165363D01*
X327792976Y-92087717D01*
X327778961Y-92083214D01*
X327765456Y-92077359D01*
X327752589Y-92070208D01*
X327740485Y-92061831D01*
X327729260Y-92052308D01*
X327719023Y-92041730D01*
X327709872Y-92030200D01*
X327701895Y-92017828D01*
X327695169Y-92004734D01*
X327689759Y-91991044D01*
X327685717Y-91976889D01*
X327683082Y-91962407D01*
X327681879Y-91947736D01*
X327682120Y-91933017D01*
X327683803Y-91918394D01*
X327686910Y-91904005D01*
X328139844Y-90213635D01*
X328144347Y-90199620D01*
X328150202Y-90186115D01*
X328157353Y-90173248D01*
X328165730Y-90161144D01*
X328175253Y-90149919D01*
X328185831Y-90139682D01*
X328197361Y-90130531D01*
X328209733Y-90122554D01*
X328222827Y-90115828D01*
X328236517Y-90110418D01*
X328250672Y-90106376D01*
X328265154Y-90103741D01*
X328279825Y-90102538D01*
X328294544Y-90102779D01*
X328294544Y-90102779D01*
G37*
D18*
X328203155Y-91136466D03*
D13*
G36*
X329521270Y-90431479D02*
G01*
X329535893Y-90433162D01*
X329550282Y-90436269D01*
X329840060Y-90513915D01*
X329854075Y-90518418D01*
X329867580Y-90524273D01*
X329880447Y-90531424D01*
X329892551Y-90539801D01*
X329903776Y-90549324D01*
X329914013Y-90559902D01*
X329923164Y-90571432D01*
X329931141Y-90583804D01*
X329937867Y-90596898D01*
X329943277Y-90610588D01*
X329947319Y-90624743D01*
X329949954Y-90639225D01*
X329951157Y-90653896D01*
X329950916Y-90668615D01*
X329949233Y-90683238D01*
X329946126Y-90697627D01*
X329493192Y-92387997D01*
X329488689Y-92402012D01*
X329482834Y-92415517D01*
X329475683Y-92428384D01*
X329467306Y-92440488D01*
X329457783Y-92451713D01*
X329447205Y-92461950D01*
X329435675Y-92471101D01*
X329423303Y-92479078D01*
X329410209Y-92485804D01*
X329396519Y-92491214D01*
X329382364Y-92495256D01*
X329367882Y-92497891D01*
X329353211Y-92499094D01*
X329338492Y-92498853D01*
X329323869Y-92497170D01*
X329309480Y-92494063D01*
X329019702Y-92416417D01*
X329005687Y-92411914D01*
X328992182Y-92406059D01*
X328979315Y-92398908D01*
X328967211Y-92390531D01*
X328955986Y-92381008D01*
X328945749Y-92370430D01*
X328936598Y-92358900D01*
X328928621Y-92346528D01*
X328921895Y-92333434D01*
X328916485Y-92319744D01*
X328912443Y-92305589D01*
X328909808Y-92291107D01*
X328908605Y-92276436D01*
X328908846Y-92261717D01*
X328910529Y-92247094D01*
X328913636Y-92232705D01*
X329366570Y-90542335D01*
X329371073Y-90528320D01*
X329376928Y-90514815D01*
X329384079Y-90501948D01*
X329392456Y-90489844D01*
X329401979Y-90478619D01*
X329412557Y-90468382D01*
X329424087Y-90459231D01*
X329436459Y-90451254D01*
X329449553Y-90444528D01*
X329463243Y-90439118D01*
X329477398Y-90435076D01*
X329491880Y-90432441D01*
X329506551Y-90431238D01*
X329521270Y-90431479D01*
X329521270Y-90431479D01*
G37*
D18*
X329429881Y-91465166D03*
D13*
G36*
X330747996Y-90760179D02*
G01*
X330762619Y-90761862D01*
X330777008Y-90764969D01*
X331066786Y-90842615D01*
X331080801Y-90847118D01*
X331094306Y-90852973D01*
X331107173Y-90860124D01*
X331119277Y-90868501D01*
X331130502Y-90878024D01*
X331140739Y-90888602D01*
X331149890Y-90900132D01*
X331157867Y-90912504D01*
X331164593Y-90925598D01*
X331170003Y-90939288D01*
X331174045Y-90953443D01*
X331176680Y-90967925D01*
X331177883Y-90982596D01*
X331177642Y-90997315D01*
X331175959Y-91011938D01*
X331172852Y-91026327D01*
X330719918Y-92716697D01*
X330715415Y-92730712D01*
X330709560Y-92744217D01*
X330702409Y-92757084D01*
X330694032Y-92769188D01*
X330684509Y-92780413D01*
X330673931Y-92790650D01*
X330662401Y-92799801D01*
X330650029Y-92807778D01*
X330636935Y-92814504D01*
X330623245Y-92819914D01*
X330609090Y-92823956D01*
X330594608Y-92826591D01*
X330579937Y-92827794D01*
X330565218Y-92827553D01*
X330550595Y-92825870D01*
X330536206Y-92822763D01*
X330246428Y-92745117D01*
X330232413Y-92740614D01*
X330218908Y-92734759D01*
X330206041Y-92727608D01*
X330193937Y-92719231D01*
X330182712Y-92709708D01*
X330172475Y-92699130D01*
X330163324Y-92687600D01*
X330155347Y-92675228D01*
X330148621Y-92662134D01*
X330143211Y-92648444D01*
X330139169Y-92634289D01*
X330136534Y-92619807D01*
X330135331Y-92605136D01*
X330135572Y-92590417D01*
X330137255Y-92575794D01*
X330140362Y-92561405D01*
X330593296Y-90871035D01*
X330597799Y-90857020D01*
X330603654Y-90843515D01*
X330610805Y-90830648D01*
X330619182Y-90818544D01*
X330628705Y-90807319D01*
X330639283Y-90797082D01*
X330650813Y-90787931D01*
X330663185Y-90779954D01*
X330676279Y-90773228D01*
X330689969Y-90767818D01*
X330704124Y-90763776D01*
X330718606Y-90761141D01*
X330733277Y-90759938D01*
X330747996Y-90760179D01*
X330747996Y-90760179D01*
G37*
D18*
X330656607Y-91793866D03*
D13*
G36*
X331974721Y-91088879D02*
G01*
X331989344Y-91090562D01*
X332003733Y-91093669D01*
X332293511Y-91171315D01*
X332307526Y-91175818D01*
X332321031Y-91181673D01*
X332333898Y-91188824D01*
X332346002Y-91197201D01*
X332357227Y-91206724D01*
X332367464Y-91217302D01*
X332376615Y-91228832D01*
X332384592Y-91241204D01*
X332391318Y-91254298D01*
X332396728Y-91267988D01*
X332400770Y-91282143D01*
X332403405Y-91296625D01*
X332404608Y-91311296D01*
X332404367Y-91326015D01*
X332402684Y-91340638D01*
X332399577Y-91355027D01*
X331946643Y-93045397D01*
X331942140Y-93059412D01*
X331936285Y-93072917D01*
X331929134Y-93085784D01*
X331920757Y-93097888D01*
X331911234Y-93109113D01*
X331900656Y-93119350D01*
X331889126Y-93128501D01*
X331876754Y-93136478D01*
X331863660Y-93143204D01*
X331849970Y-93148614D01*
X331835815Y-93152656D01*
X331821333Y-93155291D01*
X331806662Y-93156494D01*
X331791943Y-93156253D01*
X331777320Y-93154570D01*
X331762931Y-93151463D01*
X331473153Y-93073817D01*
X331459138Y-93069314D01*
X331445633Y-93063459D01*
X331432766Y-93056308D01*
X331420662Y-93047931D01*
X331409437Y-93038408D01*
X331399200Y-93027830D01*
X331390049Y-93016300D01*
X331382072Y-93003928D01*
X331375346Y-92990834D01*
X331369936Y-92977144D01*
X331365894Y-92962989D01*
X331363259Y-92948507D01*
X331362056Y-92933836D01*
X331362297Y-92919117D01*
X331363980Y-92904494D01*
X331367087Y-92890105D01*
X331820021Y-91199735D01*
X331824524Y-91185720D01*
X331830379Y-91172215D01*
X331837530Y-91159348D01*
X331845907Y-91147244D01*
X331855430Y-91136019D01*
X331866008Y-91125782D01*
X331877538Y-91116631D01*
X331889910Y-91108654D01*
X331903004Y-91101928D01*
X331916694Y-91096518D01*
X331930849Y-91092476D01*
X331945331Y-91089841D01*
X331960002Y-91088638D01*
X331974721Y-91088879D01*
X331974721Y-91088879D01*
G37*
D18*
X331883332Y-92122566D03*
D13*
G36*
X333201447Y-91417579D02*
G01*
X333216070Y-91419262D01*
X333230459Y-91422369D01*
X333520237Y-91500015D01*
X333534252Y-91504518D01*
X333547757Y-91510373D01*
X333560624Y-91517524D01*
X333572728Y-91525901D01*
X333583953Y-91535424D01*
X333594190Y-91546002D01*
X333603341Y-91557532D01*
X333611318Y-91569904D01*
X333618044Y-91582998D01*
X333623454Y-91596688D01*
X333627496Y-91610843D01*
X333630131Y-91625325D01*
X333631334Y-91639996D01*
X333631093Y-91654715D01*
X333629410Y-91669338D01*
X333626303Y-91683727D01*
X333173369Y-93374097D01*
X333168866Y-93388112D01*
X333163011Y-93401617D01*
X333155860Y-93414484D01*
X333147483Y-93426588D01*
X333137960Y-93437813D01*
X333127382Y-93448050D01*
X333115852Y-93457201D01*
X333103480Y-93465178D01*
X333090386Y-93471904D01*
X333076696Y-93477314D01*
X333062541Y-93481356D01*
X333048059Y-93483991D01*
X333033388Y-93485194D01*
X333018669Y-93484953D01*
X333004046Y-93483270D01*
X332989657Y-93480163D01*
X332699879Y-93402517D01*
X332685864Y-93398014D01*
X332672359Y-93392159D01*
X332659492Y-93385008D01*
X332647388Y-93376631D01*
X332636163Y-93367108D01*
X332625926Y-93356530D01*
X332616775Y-93345000D01*
X332608798Y-93332628D01*
X332602072Y-93319534D01*
X332596662Y-93305844D01*
X332592620Y-93291689D01*
X332589985Y-93277207D01*
X332588782Y-93262536D01*
X332589023Y-93247817D01*
X332590706Y-93233194D01*
X332593813Y-93218805D01*
X333046747Y-91528435D01*
X333051250Y-91514420D01*
X333057105Y-91500915D01*
X333064256Y-91488048D01*
X333072633Y-91475944D01*
X333082156Y-91464719D01*
X333092734Y-91454482D01*
X333104264Y-91445331D01*
X333116636Y-91437354D01*
X333129730Y-91430628D01*
X333143420Y-91425218D01*
X333157575Y-91421176D01*
X333172057Y-91418541D01*
X333186728Y-91417338D01*
X333201447Y-91417579D01*
X333201447Y-91417579D01*
G37*
D18*
X333110058Y-92451266D03*
D13*
G36*
X334428173Y-91746280D02*
G01*
X334442796Y-91747963D01*
X334457185Y-91751070D01*
X334746963Y-91828716D01*
X334760978Y-91833219D01*
X334774483Y-91839074D01*
X334787350Y-91846225D01*
X334799454Y-91854602D01*
X334810679Y-91864125D01*
X334820916Y-91874703D01*
X334830067Y-91886233D01*
X334838044Y-91898605D01*
X334844770Y-91911699D01*
X334850180Y-91925389D01*
X334854222Y-91939544D01*
X334856857Y-91954026D01*
X334858060Y-91968697D01*
X334857819Y-91983416D01*
X334856136Y-91998039D01*
X334853029Y-92012428D01*
X334400095Y-93702798D01*
X334395592Y-93716813D01*
X334389737Y-93730318D01*
X334382586Y-93743185D01*
X334374209Y-93755289D01*
X334364686Y-93766514D01*
X334354108Y-93776751D01*
X334342578Y-93785902D01*
X334330206Y-93793879D01*
X334317112Y-93800605D01*
X334303422Y-93806015D01*
X334289267Y-93810057D01*
X334274785Y-93812692D01*
X334260114Y-93813895D01*
X334245395Y-93813654D01*
X334230772Y-93811971D01*
X334216383Y-93808864D01*
X333926605Y-93731218D01*
X333912590Y-93726715D01*
X333899085Y-93720860D01*
X333886218Y-93713709D01*
X333874114Y-93705332D01*
X333862889Y-93695809D01*
X333852652Y-93685231D01*
X333843501Y-93673701D01*
X333835524Y-93661329D01*
X333828798Y-93648235D01*
X333823388Y-93634545D01*
X333819346Y-93620390D01*
X333816711Y-93605908D01*
X333815508Y-93591237D01*
X333815749Y-93576518D01*
X333817432Y-93561895D01*
X333820539Y-93547506D01*
X334273473Y-91857136D01*
X334277976Y-91843121D01*
X334283831Y-91829616D01*
X334290982Y-91816749D01*
X334299359Y-91804645D01*
X334308882Y-91793420D01*
X334319460Y-91783183D01*
X334330990Y-91774032D01*
X334343362Y-91766055D01*
X334356456Y-91759329D01*
X334370146Y-91753919D01*
X334384301Y-91749877D01*
X334398783Y-91747242D01*
X334413454Y-91746039D01*
X334428173Y-91746280D01*
X334428173Y-91746280D01*
G37*
D18*
X334336784Y-92779967D03*
D13*
G36*
X335654899Y-92074980D02*
G01*
X335669522Y-92076663D01*
X335683911Y-92079770D01*
X335973689Y-92157416D01*
X335987704Y-92161919D01*
X336001209Y-92167774D01*
X336014076Y-92174925D01*
X336026180Y-92183302D01*
X336037405Y-92192825D01*
X336047642Y-92203403D01*
X336056793Y-92214933D01*
X336064770Y-92227305D01*
X336071496Y-92240399D01*
X336076906Y-92254089D01*
X336080948Y-92268244D01*
X336083583Y-92282726D01*
X336084786Y-92297397D01*
X336084545Y-92312116D01*
X336082862Y-92326739D01*
X336079755Y-92341128D01*
X335626821Y-94031498D01*
X335622318Y-94045513D01*
X335616463Y-94059018D01*
X335609312Y-94071885D01*
X335600935Y-94083989D01*
X335591412Y-94095214D01*
X335580834Y-94105451D01*
X335569304Y-94114602D01*
X335556932Y-94122579D01*
X335543838Y-94129305D01*
X335530148Y-94134715D01*
X335515993Y-94138757D01*
X335501511Y-94141392D01*
X335486840Y-94142595D01*
X335472121Y-94142354D01*
X335457498Y-94140671D01*
X335443109Y-94137564D01*
X335153331Y-94059918D01*
X335139316Y-94055415D01*
X335125811Y-94049560D01*
X335112944Y-94042409D01*
X335100840Y-94034032D01*
X335089615Y-94024509D01*
X335079378Y-94013931D01*
X335070227Y-94002401D01*
X335062250Y-93990029D01*
X335055524Y-93976935D01*
X335050114Y-93963245D01*
X335046072Y-93949090D01*
X335043437Y-93934608D01*
X335042234Y-93919937D01*
X335042475Y-93905218D01*
X335044158Y-93890595D01*
X335047265Y-93876206D01*
X335500199Y-92185836D01*
X335504702Y-92171821D01*
X335510557Y-92158316D01*
X335517708Y-92145449D01*
X335526085Y-92133345D01*
X335535608Y-92122120D01*
X335546186Y-92111883D01*
X335557716Y-92102732D01*
X335570088Y-92094755D01*
X335583182Y-92088029D01*
X335596872Y-92082619D01*
X335611027Y-92078577D01*
X335625509Y-92075942D01*
X335640180Y-92074739D01*
X335654899Y-92074980D01*
X335654899Y-92074980D01*
G37*
D18*
X335563510Y-93108667D03*
D13*
G36*
X336881625Y-92403680D02*
G01*
X336896248Y-92405363D01*
X336910637Y-92408470D01*
X337200415Y-92486116D01*
X337214430Y-92490619D01*
X337227935Y-92496474D01*
X337240802Y-92503625D01*
X337252906Y-92512002D01*
X337264131Y-92521525D01*
X337274368Y-92532103D01*
X337283519Y-92543633D01*
X337291496Y-92556005D01*
X337298222Y-92569099D01*
X337303632Y-92582789D01*
X337307674Y-92596944D01*
X337310309Y-92611426D01*
X337311512Y-92626097D01*
X337311271Y-92640816D01*
X337309588Y-92655439D01*
X337306481Y-92669828D01*
X336853547Y-94360198D01*
X336849044Y-94374213D01*
X336843189Y-94387718D01*
X336836038Y-94400585D01*
X336827661Y-94412689D01*
X336818138Y-94423914D01*
X336807560Y-94434151D01*
X336796030Y-94443302D01*
X336783658Y-94451279D01*
X336770564Y-94458005D01*
X336756874Y-94463415D01*
X336742719Y-94467457D01*
X336728237Y-94470092D01*
X336713566Y-94471295D01*
X336698847Y-94471054D01*
X336684224Y-94469371D01*
X336669835Y-94466264D01*
X336380057Y-94388618D01*
X336366042Y-94384115D01*
X336352537Y-94378260D01*
X336339670Y-94371109D01*
X336327566Y-94362732D01*
X336316341Y-94353209D01*
X336306104Y-94342631D01*
X336296953Y-94331101D01*
X336288976Y-94318729D01*
X336282250Y-94305635D01*
X336276840Y-94291945D01*
X336272798Y-94277790D01*
X336270163Y-94263308D01*
X336268960Y-94248637D01*
X336269201Y-94233918D01*
X336270884Y-94219295D01*
X336273991Y-94204906D01*
X336726925Y-92514536D01*
X336731428Y-92500521D01*
X336737283Y-92487016D01*
X336744434Y-92474149D01*
X336752811Y-92462045D01*
X336762334Y-92450820D01*
X336772912Y-92440583D01*
X336784442Y-92431432D01*
X336796814Y-92423455D01*
X336809908Y-92416729D01*
X336823598Y-92411319D01*
X336837753Y-92407277D01*
X336852235Y-92404642D01*
X336866906Y-92403439D01*
X336881625Y-92403680D01*
X336881625Y-92403680D01*
G37*
D18*
X336790236Y-93437367D03*
D13*
G36*
X338108350Y-92732380D02*
G01*
X338122973Y-92734063D01*
X338137362Y-92737170D01*
X338427140Y-92814816D01*
X338441155Y-92819319D01*
X338454660Y-92825174D01*
X338467527Y-92832325D01*
X338479631Y-92840702D01*
X338490856Y-92850225D01*
X338501093Y-92860803D01*
X338510244Y-92872333D01*
X338518221Y-92884705D01*
X338524947Y-92897799D01*
X338530357Y-92911489D01*
X338534399Y-92925644D01*
X338537034Y-92940126D01*
X338538237Y-92954797D01*
X338537996Y-92969516D01*
X338536313Y-92984139D01*
X338533206Y-92998528D01*
X338080272Y-94688898D01*
X338075769Y-94702913D01*
X338069914Y-94716418D01*
X338062763Y-94729285D01*
X338054386Y-94741389D01*
X338044863Y-94752614D01*
X338034285Y-94762851D01*
X338022755Y-94772002D01*
X338010383Y-94779979D01*
X337997289Y-94786705D01*
X337983599Y-94792115D01*
X337969444Y-94796157D01*
X337954962Y-94798792D01*
X337940291Y-94799995D01*
X337925572Y-94799754D01*
X337910949Y-94798071D01*
X337896560Y-94794964D01*
X337606782Y-94717318D01*
X337592767Y-94712815D01*
X337579262Y-94706960D01*
X337566395Y-94699809D01*
X337554291Y-94691432D01*
X337543066Y-94681909D01*
X337532829Y-94671331D01*
X337523678Y-94659801D01*
X337515701Y-94647429D01*
X337508975Y-94634335D01*
X337503565Y-94620645D01*
X337499523Y-94606490D01*
X337496888Y-94592008D01*
X337495685Y-94577337D01*
X337495926Y-94562618D01*
X337497609Y-94547995D01*
X337500716Y-94533606D01*
X337953650Y-92843236D01*
X337958153Y-92829221D01*
X337964008Y-92815716D01*
X337971159Y-92802849D01*
X337979536Y-92790745D01*
X337989059Y-92779520D01*
X337999637Y-92769283D01*
X338011167Y-92760132D01*
X338023539Y-92752155D01*
X338036633Y-92745429D01*
X338050323Y-92740019D01*
X338064478Y-92735977D01*
X338078960Y-92733342D01*
X338093631Y-92732139D01*
X338108350Y-92732380D01*
X338108350Y-92732380D01*
G37*
D18*
X338016961Y-93766067D03*
D13*
G36*
X339335076Y-93061080D02*
G01*
X339349699Y-93062763D01*
X339364088Y-93065870D01*
X339653866Y-93143516D01*
X339667881Y-93148019D01*
X339681386Y-93153874D01*
X339694253Y-93161025D01*
X339706357Y-93169402D01*
X339717582Y-93178925D01*
X339727819Y-93189503D01*
X339736970Y-93201033D01*
X339744947Y-93213405D01*
X339751673Y-93226499D01*
X339757083Y-93240189D01*
X339761125Y-93254344D01*
X339763760Y-93268826D01*
X339764963Y-93283497D01*
X339764722Y-93298216D01*
X339763039Y-93312839D01*
X339759932Y-93327228D01*
X339306998Y-95017598D01*
X339302495Y-95031613D01*
X339296640Y-95045118D01*
X339289489Y-95057985D01*
X339281112Y-95070089D01*
X339271589Y-95081314D01*
X339261011Y-95091551D01*
X339249481Y-95100702D01*
X339237109Y-95108679D01*
X339224015Y-95115405D01*
X339210325Y-95120815D01*
X339196170Y-95124857D01*
X339181688Y-95127492D01*
X339167017Y-95128695D01*
X339152298Y-95128454D01*
X339137675Y-95126771D01*
X339123286Y-95123664D01*
X338833508Y-95046018D01*
X338819493Y-95041515D01*
X338805988Y-95035660D01*
X338793121Y-95028509D01*
X338781017Y-95020132D01*
X338769792Y-95010609D01*
X338759555Y-95000031D01*
X338750404Y-94988501D01*
X338742427Y-94976129D01*
X338735701Y-94963035D01*
X338730291Y-94949345D01*
X338726249Y-94935190D01*
X338723614Y-94920708D01*
X338722411Y-94906037D01*
X338722652Y-94891318D01*
X338724335Y-94876695D01*
X338727442Y-94862306D01*
X339180376Y-93171936D01*
X339184879Y-93157921D01*
X339190734Y-93144416D01*
X339197885Y-93131549D01*
X339206262Y-93119445D01*
X339215785Y-93108220D01*
X339226363Y-93097983D01*
X339237893Y-93088832D01*
X339250265Y-93080855D01*
X339263359Y-93074129D01*
X339277049Y-93068719D01*
X339291204Y-93064677D01*
X339305686Y-93062042D01*
X339320357Y-93060839D01*
X339335076Y-93061080D01*
X339335076Y-93061080D01*
G37*
D18*
X339243687Y-94094767D03*
X321446119Y-87762654D03*
D13*
G36*
X322020598Y-86777781D02*
G01*
X321451196Y-88902818D01*
X320871640Y-88747527D01*
X321441042Y-86622490D01*
X322020598Y-86777781D01*
X322020598Y-86777781D01*
G37*
D18*
X322869624Y-82450062D03*
D13*
G36*
X323444103Y-81465189D02*
G01*
X322874701Y-83590226D01*
X322295145Y-83434935D01*
X322864547Y-81309898D01*
X323444103Y-81465189D01*
X323444103Y-81465189D01*
G37*
D18*
X320219394Y-87433954D03*
D13*
G36*
X320793873Y-86449081D02*
G01*
X320224471Y-88574118D01*
X319644915Y-88418827D01*
X320214317Y-86293790D01*
X320793873Y-86449081D01*
X320793873Y-86449081D01*
G37*
D18*
X321642898Y-82121362D03*
D13*
G36*
X322217377Y-81136489D02*
G01*
X321647975Y-83261526D01*
X321068419Y-83106235D01*
X321637821Y-80981198D01*
X322217377Y-81136489D01*
X322217377Y-81136489D01*
G37*
D18*
X318992668Y-87105254D03*
D13*
G36*
X319567147Y-86120381D02*
G01*
X318997745Y-88245418D01*
X318418189Y-88090127D01*
X318987591Y-85965090D01*
X319567147Y-86120381D01*
X319567147Y-86120381D01*
G37*
D18*
X320416172Y-81792662D03*
D13*
G36*
X320990651Y-80807789D02*
G01*
X320421249Y-82932826D01*
X319841693Y-82777535D01*
X320411095Y-80652498D01*
X320990651Y-80807789D01*
X320990651Y-80807789D01*
G37*
D18*
X317765942Y-86776554D03*
D13*
G36*
X318340421Y-85791681D02*
G01*
X317771019Y-87916718D01*
X317191463Y-87761427D01*
X317760865Y-85636390D01*
X318340421Y-85791681D01*
X318340421Y-85791681D01*
G37*
D18*
X319189447Y-81463962D03*
D13*
G36*
X319763926Y-80479089D02*
G01*
X319194524Y-82604126D01*
X318614968Y-82448835D01*
X319184370Y-80323798D01*
X319763926Y-80479089D01*
X319763926Y-80479089D01*
G37*
G36*
X243263397Y-41714738D02*
G01*
X243287665Y-41718338D01*
X243311464Y-41724299D01*
X243334563Y-41732564D01*
X243356742Y-41743054D01*
X243377785Y-41755666D01*
X243397491Y-41770281D01*
X243415669Y-41786757D01*
X243432145Y-41804935D01*
X243446760Y-41824641D01*
X243459372Y-41845684D01*
X243469862Y-41867863D01*
X243478127Y-41890962D01*
X243484088Y-41914761D01*
X243487688Y-41939029D01*
X243488892Y-41963533D01*
X243488892Y-42613535D01*
X243487688Y-42638039D01*
X243484088Y-42662307D01*
X243478127Y-42686106D01*
X243469862Y-42709205D01*
X243459372Y-42731384D01*
X243446760Y-42752427D01*
X243432145Y-42772133D01*
X243415669Y-42790311D01*
X243397491Y-42806787D01*
X243377785Y-42821402D01*
X243356742Y-42834014D01*
X243334563Y-42844504D01*
X243311464Y-42852769D01*
X243287665Y-42858730D01*
X243263397Y-42862330D01*
X243238893Y-42863534D01*
X242338891Y-42863534D01*
X242314387Y-42862330D01*
X242290119Y-42858730D01*
X242266320Y-42852769D01*
X242243221Y-42844504D01*
X242221042Y-42834014D01*
X242199999Y-42821402D01*
X242180293Y-42806787D01*
X242162115Y-42790311D01*
X242145639Y-42772133D01*
X242131024Y-42752427D01*
X242118412Y-42731384D01*
X242107922Y-42709205D01*
X242099657Y-42686106D01*
X242093696Y-42662307D01*
X242090096Y-42638039D01*
X242088892Y-42613535D01*
X242088892Y-41963533D01*
X242090096Y-41939029D01*
X242093696Y-41914761D01*
X242099657Y-41890962D01*
X242107922Y-41867863D01*
X242118412Y-41845684D01*
X242131024Y-41824641D01*
X242145639Y-41804935D01*
X242162115Y-41786757D01*
X242180293Y-41770281D01*
X242199999Y-41755666D01*
X242221042Y-41743054D01*
X242243221Y-41732564D01*
X242266320Y-41724299D01*
X242290119Y-41718338D01*
X242314387Y-41714738D01*
X242338891Y-41713534D01*
X243238893Y-41713534D01*
X243263397Y-41714738D01*
X243263397Y-41714738D01*
G37*
D19*
X242788892Y-42288534D03*
D13*
G36*
X243263397Y-39664738D02*
G01*
X243287665Y-39668338D01*
X243311464Y-39674299D01*
X243334563Y-39682564D01*
X243356742Y-39693054D01*
X243377785Y-39705666D01*
X243397491Y-39720281D01*
X243415669Y-39736757D01*
X243432145Y-39754935D01*
X243446760Y-39774641D01*
X243459372Y-39795684D01*
X243469862Y-39817863D01*
X243478127Y-39840962D01*
X243484088Y-39864761D01*
X243487688Y-39889029D01*
X243488892Y-39913533D01*
X243488892Y-40563535D01*
X243487688Y-40588039D01*
X243484088Y-40612307D01*
X243478127Y-40636106D01*
X243469862Y-40659205D01*
X243459372Y-40681384D01*
X243446760Y-40702427D01*
X243432145Y-40722133D01*
X243415669Y-40740311D01*
X243397491Y-40756787D01*
X243377785Y-40771402D01*
X243356742Y-40784014D01*
X243334563Y-40794504D01*
X243311464Y-40802769D01*
X243287665Y-40808730D01*
X243263397Y-40812330D01*
X243238893Y-40813534D01*
X242338891Y-40813534D01*
X242314387Y-40812330D01*
X242290119Y-40808730D01*
X242266320Y-40802769D01*
X242243221Y-40794504D01*
X242221042Y-40784014D01*
X242199999Y-40771402D01*
X242180293Y-40756787D01*
X242162115Y-40740311D01*
X242145639Y-40722133D01*
X242131024Y-40702427D01*
X242118412Y-40681384D01*
X242107922Y-40659205D01*
X242099657Y-40636106D01*
X242093696Y-40612307D01*
X242090096Y-40588039D01*
X242088892Y-40563535D01*
X242088892Y-39913533D01*
X242090096Y-39889029D01*
X242093696Y-39864761D01*
X242099657Y-39840962D01*
X242107922Y-39817863D01*
X242118412Y-39795684D01*
X242131024Y-39774641D01*
X242145639Y-39754935D01*
X242162115Y-39736757D01*
X242180293Y-39720281D01*
X242199999Y-39705666D01*
X242221042Y-39693054D01*
X242243221Y-39682564D01*
X242266320Y-39674299D01*
X242290119Y-39668338D01*
X242314387Y-39664738D01*
X242338891Y-39663534D01*
X243238893Y-39663534D01*
X243263397Y-39664738D01*
X243263397Y-39664738D01*
G37*
D19*
X242788892Y-40238534D03*
D13*
G36*
X239363397Y-41714736D02*
G01*
X239387665Y-41718336D01*
X239411464Y-41724297D01*
X239434563Y-41732562D01*
X239456742Y-41743052D01*
X239477785Y-41755664D01*
X239497491Y-41770279D01*
X239515669Y-41786755D01*
X239532145Y-41804933D01*
X239546760Y-41824639D01*
X239559372Y-41845682D01*
X239569862Y-41867861D01*
X239578127Y-41890960D01*
X239584088Y-41914759D01*
X239587688Y-41939027D01*
X239588892Y-41963531D01*
X239588892Y-42613533D01*
X239587688Y-42638037D01*
X239584088Y-42662305D01*
X239578127Y-42686104D01*
X239569862Y-42709203D01*
X239559372Y-42731382D01*
X239546760Y-42752425D01*
X239532145Y-42772131D01*
X239515669Y-42790309D01*
X239497491Y-42806785D01*
X239477785Y-42821400D01*
X239456742Y-42834012D01*
X239434563Y-42844502D01*
X239411464Y-42852767D01*
X239387665Y-42858728D01*
X239363397Y-42862328D01*
X239338893Y-42863532D01*
X238438891Y-42863532D01*
X238414387Y-42862328D01*
X238390119Y-42858728D01*
X238366320Y-42852767D01*
X238343221Y-42844502D01*
X238321042Y-42834012D01*
X238299999Y-42821400D01*
X238280293Y-42806785D01*
X238262115Y-42790309D01*
X238245639Y-42772131D01*
X238231024Y-42752425D01*
X238218412Y-42731382D01*
X238207922Y-42709203D01*
X238199657Y-42686104D01*
X238193696Y-42662305D01*
X238190096Y-42638037D01*
X238188892Y-42613533D01*
X238188892Y-41963531D01*
X238190096Y-41939027D01*
X238193696Y-41914759D01*
X238199657Y-41890960D01*
X238207922Y-41867861D01*
X238218412Y-41845682D01*
X238231024Y-41824639D01*
X238245639Y-41804933D01*
X238262115Y-41786755D01*
X238280293Y-41770279D01*
X238299999Y-41755664D01*
X238321042Y-41743052D01*
X238343221Y-41732562D01*
X238366320Y-41724297D01*
X238390119Y-41718336D01*
X238414387Y-41714736D01*
X238438891Y-41713532D01*
X239338893Y-41713532D01*
X239363397Y-41714736D01*
X239363397Y-41714736D01*
G37*
D19*
X238888892Y-42288532D03*
D13*
G36*
X239363397Y-39664736D02*
G01*
X239387665Y-39668336D01*
X239411464Y-39674297D01*
X239434563Y-39682562D01*
X239456742Y-39693052D01*
X239477785Y-39705664D01*
X239497491Y-39720279D01*
X239515669Y-39736755D01*
X239532145Y-39754933D01*
X239546760Y-39774639D01*
X239559372Y-39795682D01*
X239569862Y-39817861D01*
X239578127Y-39840960D01*
X239584088Y-39864759D01*
X239587688Y-39889027D01*
X239588892Y-39913531D01*
X239588892Y-40563533D01*
X239587688Y-40588037D01*
X239584088Y-40612305D01*
X239578127Y-40636104D01*
X239569862Y-40659203D01*
X239559372Y-40681382D01*
X239546760Y-40702425D01*
X239532145Y-40722131D01*
X239515669Y-40740309D01*
X239497491Y-40756785D01*
X239477785Y-40771400D01*
X239456742Y-40784012D01*
X239434563Y-40794502D01*
X239411464Y-40802767D01*
X239387665Y-40808728D01*
X239363397Y-40812328D01*
X239338893Y-40813532D01*
X238438891Y-40813532D01*
X238414387Y-40812328D01*
X238390119Y-40808728D01*
X238366320Y-40802767D01*
X238343221Y-40794502D01*
X238321042Y-40784012D01*
X238299999Y-40771400D01*
X238280293Y-40756785D01*
X238262115Y-40740309D01*
X238245639Y-40722131D01*
X238231024Y-40702425D01*
X238218412Y-40681382D01*
X238207922Y-40659203D01*
X238199657Y-40636104D01*
X238193696Y-40612305D01*
X238190096Y-40588037D01*
X238188892Y-40563533D01*
X238188892Y-39913531D01*
X238190096Y-39889027D01*
X238193696Y-39864759D01*
X238199657Y-39840960D01*
X238207922Y-39817861D01*
X238218412Y-39795682D01*
X238231024Y-39774639D01*
X238245639Y-39754933D01*
X238262115Y-39736755D01*
X238280293Y-39720279D01*
X238299999Y-39705664D01*
X238321042Y-39693052D01*
X238343221Y-39682562D01*
X238366320Y-39674297D01*
X238390119Y-39668336D01*
X238414387Y-39664736D01*
X238438891Y-39663532D01*
X239338893Y-39663532D01*
X239363397Y-39664736D01*
X239363397Y-39664736D01*
G37*
D19*
X238888892Y-40238532D03*
D13*
G36*
X231688220Y-37855824D02*
G01*
X231712488Y-37859424D01*
X231736287Y-37865385D01*
X231759386Y-37873650D01*
X231781565Y-37884140D01*
X231802608Y-37896752D01*
X231822314Y-37911367D01*
X231840492Y-37927843D01*
X231856968Y-37946021D01*
X231871583Y-37965727D01*
X231884195Y-37986770D01*
X231894685Y-38008949D01*
X231902950Y-38032048D01*
X231908911Y-38055847D01*
X231912511Y-38080115D01*
X231913715Y-38104619D01*
X231913715Y-38754621D01*
X231912511Y-38779125D01*
X231908911Y-38803393D01*
X231902950Y-38827192D01*
X231894685Y-38850291D01*
X231884195Y-38872470D01*
X231871583Y-38893513D01*
X231856968Y-38913219D01*
X231840492Y-38931397D01*
X231822314Y-38947873D01*
X231802608Y-38962488D01*
X231781565Y-38975100D01*
X231759386Y-38985590D01*
X231736287Y-38993855D01*
X231712488Y-38999816D01*
X231688220Y-39003416D01*
X231663716Y-39004620D01*
X230763714Y-39004620D01*
X230739210Y-39003416D01*
X230714942Y-38999816D01*
X230691143Y-38993855D01*
X230668044Y-38985590D01*
X230645865Y-38975100D01*
X230624822Y-38962488D01*
X230605116Y-38947873D01*
X230586938Y-38931397D01*
X230570462Y-38913219D01*
X230555847Y-38893513D01*
X230543235Y-38872470D01*
X230532745Y-38850291D01*
X230524480Y-38827192D01*
X230518519Y-38803393D01*
X230514919Y-38779125D01*
X230513715Y-38754621D01*
X230513715Y-38104619D01*
X230514919Y-38080115D01*
X230518519Y-38055847D01*
X230524480Y-38032048D01*
X230532745Y-38008949D01*
X230543235Y-37986770D01*
X230555847Y-37965727D01*
X230570462Y-37946021D01*
X230586938Y-37927843D01*
X230605116Y-37911367D01*
X230624822Y-37896752D01*
X230645865Y-37884140D01*
X230668044Y-37873650D01*
X230691143Y-37865385D01*
X230714942Y-37859424D01*
X230739210Y-37855824D01*
X230763714Y-37854620D01*
X231663716Y-37854620D01*
X231688220Y-37855824D01*
X231688220Y-37855824D01*
G37*
D19*
X231213715Y-38429620D03*
D13*
G36*
X231688220Y-35805824D02*
G01*
X231712488Y-35809424D01*
X231736287Y-35815385D01*
X231759386Y-35823650D01*
X231781565Y-35834140D01*
X231802608Y-35846752D01*
X231822314Y-35861367D01*
X231840492Y-35877843D01*
X231856968Y-35896021D01*
X231871583Y-35915727D01*
X231884195Y-35936770D01*
X231894685Y-35958949D01*
X231902950Y-35982048D01*
X231908911Y-36005847D01*
X231912511Y-36030115D01*
X231913715Y-36054619D01*
X231913715Y-36704621D01*
X231912511Y-36729125D01*
X231908911Y-36753393D01*
X231902950Y-36777192D01*
X231894685Y-36800291D01*
X231884195Y-36822470D01*
X231871583Y-36843513D01*
X231856968Y-36863219D01*
X231840492Y-36881397D01*
X231822314Y-36897873D01*
X231802608Y-36912488D01*
X231781565Y-36925100D01*
X231759386Y-36935590D01*
X231736287Y-36943855D01*
X231712488Y-36949816D01*
X231688220Y-36953416D01*
X231663716Y-36954620D01*
X230763714Y-36954620D01*
X230739210Y-36953416D01*
X230714942Y-36949816D01*
X230691143Y-36943855D01*
X230668044Y-36935590D01*
X230645865Y-36925100D01*
X230624822Y-36912488D01*
X230605116Y-36897873D01*
X230586938Y-36881397D01*
X230570462Y-36863219D01*
X230555847Y-36843513D01*
X230543235Y-36822470D01*
X230532745Y-36800291D01*
X230524480Y-36777192D01*
X230518519Y-36753393D01*
X230514919Y-36729125D01*
X230513715Y-36704621D01*
X230513715Y-36054619D01*
X230514919Y-36030115D01*
X230518519Y-36005847D01*
X230524480Y-35982048D01*
X230532745Y-35958949D01*
X230543235Y-35936770D01*
X230555847Y-35915727D01*
X230570462Y-35896021D01*
X230586938Y-35877843D01*
X230605116Y-35861367D01*
X230624822Y-35846752D01*
X230645865Y-35834140D01*
X230668044Y-35823650D01*
X230691143Y-35815385D01*
X230714942Y-35809424D01*
X230739210Y-35805824D01*
X230763714Y-35804620D01*
X231663716Y-35804620D01*
X231688220Y-35805824D01*
X231688220Y-35805824D01*
G37*
D19*
X231213715Y-36379620D03*
D13*
G36*
X250820720Y-33585824D02*
G01*
X250844988Y-33589424D01*
X250868787Y-33595385D01*
X250891886Y-33603650D01*
X250914065Y-33614140D01*
X250935108Y-33626752D01*
X250954814Y-33641367D01*
X250972992Y-33657843D01*
X250989468Y-33676021D01*
X251004083Y-33695727D01*
X251016695Y-33716770D01*
X251027185Y-33738949D01*
X251035450Y-33762048D01*
X251041411Y-33785847D01*
X251045011Y-33810115D01*
X251046215Y-33834619D01*
X251046215Y-34734621D01*
X251045011Y-34759125D01*
X251041411Y-34783393D01*
X251035450Y-34807192D01*
X251027185Y-34830291D01*
X251016695Y-34852470D01*
X251004083Y-34873513D01*
X250989468Y-34893219D01*
X250972992Y-34911397D01*
X250954814Y-34927873D01*
X250935108Y-34942488D01*
X250914065Y-34955100D01*
X250891886Y-34965590D01*
X250868787Y-34973855D01*
X250844988Y-34979816D01*
X250820720Y-34983416D01*
X250796216Y-34984620D01*
X250146214Y-34984620D01*
X250121710Y-34983416D01*
X250097442Y-34979816D01*
X250073643Y-34973855D01*
X250050544Y-34965590D01*
X250028365Y-34955100D01*
X250007322Y-34942488D01*
X249987616Y-34927873D01*
X249969438Y-34911397D01*
X249952962Y-34893219D01*
X249938347Y-34873513D01*
X249925735Y-34852470D01*
X249915245Y-34830291D01*
X249906980Y-34807192D01*
X249901019Y-34783393D01*
X249897419Y-34759125D01*
X249896215Y-34734621D01*
X249896215Y-33834619D01*
X249897419Y-33810115D01*
X249901019Y-33785847D01*
X249906980Y-33762048D01*
X249915245Y-33738949D01*
X249925735Y-33716770D01*
X249938347Y-33695727D01*
X249952962Y-33676021D01*
X249969438Y-33657843D01*
X249987616Y-33641367D01*
X250007322Y-33626752D01*
X250028365Y-33614140D01*
X250050544Y-33603650D01*
X250073643Y-33595385D01*
X250097442Y-33589424D01*
X250121710Y-33585824D01*
X250146214Y-33584620D01*
X250796216Y-33584620D01*
X250820720Y-33585824D01*
X250820720Y-33585824D01*
G37*
D19*
X250471215Y-34284620D03*
D13*
G36*
X248770720Y-33585824D02*
G01*
X248794988Y-33589424D01*
X248818787Y-33595385D01*
X248841886Y-33603650D01*
X248864065Y-33614140D01*
X248885108Y-33626752D01*
X248904814Y-33641367D01*
X248922992Y-33657843D01*
X248939468Y-33676021D01*
X248954083Y-33695727D01*
X248966695Y-33716770D01*
X248977185Y-33738949D01*
X248985450Y-33762048D01*
X248991411Y-33785847D01*
X248995011Y-33810115D01*
X248996215Y-33834619D01*
X248996215Y-34734621D01*
X248995011Y-34759125D01*
X248991411Y-34783393D01*
X248985450Y-34807192D01*
X248977185Y-34830291D01*
X248966695Y-34852470D01*
X248954083Y-34873513D01*
X248939468Y-34893219D01*
X248922992Y-34911397D01*
X248904814Y-34927873D01*
X248885108Y-34942488D01*
X248864065Y-34955100D01*
X248841886Y-34965590D01*
X248818787Y-34973855D01*
X248794988Y-34979816D01*
X248770720Y-34983416D01*
X248746216Y-34984620D01*
X248096214Y-34984620D01*
X248071710Y-34983416D01*
X248047442Y-34979816D01*
X248023643Y-34973855D01*
X248000544Y-34965590D01*
X247978365Y-34955100D01*
X247957322Y-34942488D01*
X247937616Y-34927873D01*
X247919438Y-34911397D01*
X247902962Y-34893219D01*
X247888347Y-34873513D01*
X247875735Y-34852470D01*
X247865245Y-34830291D01*
X247856980Y-34807192D01*
X247851019Y-34783393D01*
X247847419Y-34759125D01*
X247846215Y-34734621D01*
X247846215Y-33834619D01*
X247847419Y-33810115D01*
X247851019Y-33785847D01*
X247856980Y-33762048D01*
X247865245Y-33738949D01*
X247875735Y-33716770D01*
X247888347Y-33695727D01*
X247902962Y-33676021D01*
X247919438Y-33657843D01*
X247937616Y-33641367D01*
X247957322Y-33626752D01*
X247978365Y-33614140D01*
X248000544Y-33603650D01*
X248023643Y-33595385D01*
X248047442Y-33589424D01*
X248071710Y-33585824D01*
X248096214Y-33584620D01*
X248746216Y-33584620D01*
X248770720Y-33585824D01*
X248770720Y-33585824D01*
G37*
D19*
X248421215Y-34284620D03*
D13*
G36*
X250820720Y-37095824D02*
G01*
X250844988Y-37099424D01*
X250868787Y-37105385D01*
X250891886Y-37113650D01*
X250914065Y-37124140D01*
X250935108Y-37136752D01*
X250954814Y-37151367D01*
X250972992Y-37167843D01*
X250989468Y-37186021D01*
X251004083Y-37205727D01*
X251016695Y-37226770D01*
X251027185Y-37248949D01*
X251035450Y-37272048D01*
X251041411Y-37295847D01*
X251045011Y-37320115D01*
X251046215Y-37344619D01*
X251046215Y-38244621D01*
X251045011Y-38269125D01*
X251041411Y-38293393D01*
X251035450Y-38317192D01*
X251027185Y-38340291D01*
X251016695Y-38362470D01*
X251004083Y-38383513D01*
X250989468Y-38403219D01*
X250972992Y-38421397D01*
X250954814Y-38437873D01*
X250935108Y-38452488D01*
X250914065Y-38465100D01*
X250891886Y-38475590D01*
X250868787Y-38483855D01*
X250844988Y-38489816D01*
X250820720Y-38493416D01*
X250796216Y-38494620D01*
X250146214Y-38494620D01*
X250121710Y-38493416D01*
X250097442Y-38489816D01*
X250073643Y-38483855D01*
X250050544Y-38475590D01*
X250028365Y-38465100D01*
X250007322Y-38452488D01*
X249987616Y-38437873D01*
X249969438Y-38421397D01*
X249952962Y-38403219D01*
X249938347Y-38383513D01*
X249925735Y-38362470D01*
X249915245Y-38340291D01*
X249906980Y-38317192D01*
X249901019Y-38293393D01*
X249897419Y-38269125D01*
X249896215Y-38244621D01*
X249896215Y-37344619D01*
X249897419Y-37320115D01*
X249901019Y-37295847D01*
X249906980Y-37272048D01*
X249915245Y-37248949D01*
X249925735Y-37226770D01*
X249938347Y-37205727D01*
X249952962Y-37186021D01*
X249969438Y-37167843D01*
X249987616Y-37151367D01*
X250007322Y-37136752D01*
X250028365Y-37124140D01*
X250050544Y-37113650D01*
X250073643Y-37105385D01*
X250097442Y-37099424D01*
X250121710Y-37095824D01*
X250146214Y-37094620D01*
X250796216Y-37094620D01*
X250820720Y-37095824D01*
X250820720Y-37095824D01*
G37*
D19*
X250471215Y-37794620D03*
D13*
G36*
X248770720Y-37095824D02*
G01*
X248794988Y-37099424D01*
X248818787Y-37105385D01*
X248841886Y-37113650D01*
X248864065Y-37124140D01*
X248885108Y-37136752D01*
X248904814Y-37151367D01*
X248922992Y-37167843D01*
X248939468Y-37186021D01*
X248954083Y-37205727D01*
X248966695Y-37226770D01*
X248977185Y-37248949D01*
X248985450Y-37272048D01*
X248991411Y-37295847D01*
X248995011Y-37320115D01*
X248996215Y-37344619D01*
X248996215Y-38244621D01*
X248995011Y-38269125D01*
X248991411Y-38293393D01*
X248985450Y-38317192D01*
X248977185Y-38340291D01*
X248966695Y-38362470D01*
X248954083Y-38383513D01*
X248939468Y-38403219D01*
X248922992Y-38421397D01*
X248904814Y-38437873D01*
X248885108Y-38452488D01*
X248864065Y-38465100D01*
X248841886Y-38475590D01*
X248818787Y-38483855D01*
X248794988Y-38489816D01*
X248770720Y-38493416D01*
X248746216Y-38494620D01*
X248096214Y-38494620D01*
X248071710Y-38493416D01*
X248047442Y-38489816D01*
X248023643Y-38483855D01*
X248000544Y-38475590D01*
X247978365Y-38465100D01*
X247957322Y-38452488D01*
X247937616Y-38437873D01*
X247919438Y-38421397D01*
X247902962Y-38403219D01*
X247888347Y-38383513D01*
X247875735Y-38362470D01*
X247865245Y-38340291D01*
X247856980Y-38317192D01*
X247851019Y-38293393D01*
X247847419Y-38269125D01*
X247846215Y-38244621D01*
X247846215Y-37344619D01*
X247847419Y-37320115D01*
X247851019Y-37295847D01*
X247856980Y-37272048D01*
X247865245Y-37248949D01*
X247875735Y-37226770D01*
X247888347Y-37205727D01*
X247902962Y-37186021D01*
X247919438Y-37167843D01*
X247937616Y-37151367D01*
X247957322Y-37136752D01*
X247978365Y-37124140D01*
X248000544Y-37113650D01*
X248023643Y-37105385D01*
X248047442Y-37099424D01*
X248071710Y-37095824D01*
X248096214Y-37094620D01*
X248746216Y-37094620D01*
X248770720Y-37095824D01*
X248770720Y-37095824D01*
G37*
D19*
X248421215Y-37794620D03*
D13*
G36*
X344607481Y-84931100D02*
G01*
X344631854Y-84933904D01*
X344655835Y-84939084D01*
X345525170Y-85172022D01*
X345548527Y-85179526D01*
X345571037Y-85189285D01*
X345592482Y-85201202D01*
X345612655Y-85215165D01*
X345631362Y-85231037D01*
X345648424Y-85248666D01*
X345663676Y-85267883D01*
X345676971Y-85288503D01*
X345688180Y-85310326D01*
X345697197Y-85333143D01*
X345703933Y-85356733D01*
X345708325Y-85380871D01*
X345710330Y-85405322D01*
X345709929Y-85429853D01*
X345707125Y-85454226D01*
X345701945Y-85478207D01*
X345533712Y-86106061D01*
X345526208Y-86129418D01*
X345516449Y-86151928D01*
X345504532Y-86173372D01*
X345490570Y-86193546D01*
X345474697Y-86212253D01*
X345457068Y-86229315D01*
X345437851Y-86244567D01*
X345417231Y-86257861D01*
X345395408Y-86269071D01*
X345372592Y-86278088D01*
X345349001Y-86284824D01*
X345324863Y-86289216D01*
X345300412Y-86291221D01*
X345275881Y-86290820D01*
X345251508Y-86288016D01*
X345227527Y-86282836D01*
X344358192Y-86049898D01*
X344334835Y-86042394D01*
X344312325Y-86032635D01*
X344290880Y-86020718D01*
X344270707Y-86006755D01*
X344252000Y-85990883D01*
X344234938Y-85973254D01*
X344219686Y-85954037D01*
X344206391Y-85933417D01*
X344195182Y-85911594D01*
X344186165Y-85888777D01*
X344179429Y-85865187D01*
X344175037Y-85841049D01*
X344173032Y-85816598D01*
X344173433Y-85792067D01*
X344176237Y-85767694D01*
X344181417Y-85743713D01*
X344349650Y-85115859D01*
X344357154Y-85092502D01*
X344366913Y-85069992D01*
X344378830Y-85048548D01*
X344392792Y-85028374D01*
X344408665Y-85009667D01*
X344426294Y-84992605D01*
X344445511Y-84977353D01*
X344466131Y-84964059D01*
X344487954Y-84952849D01*
X344510770Y-84943832D01*
X344534361Y-84937096D01*
X344558499Y-84932704D01*
X344582950Y-84930699D01*
X344607481Y-84931100D01*
X344607481Y-84931100D01*
G37*
D19*
X344941681Y-85610960D03*
D13*
G36*
X344076901Y-86911248D02*
G01*
X344101274Y-86914052D01*
X344125255Y-86919232D01*
X344994590Y-87152170D01*
X345017947Y-87159674D01*
X345040457Y-87169433D01*
X345061902Y-87181350D01*
X345082075Y-87195313D01*
X345100782Y-87211185D01*
X345117844Y-87228814D01*
X345133096Y-87248031D01*
X345146391Y-87268651D01*
X345157600Y-87290474D01*
X345166617Y-87313291D01*
X345173353Y-87336881D01*
X345177745Y-87361019D01*
X345179750Y-87385470D01*
X345179349Y-87410001D01*
X345176545Y-87434374D01*
X345171365Y-87458355D01*
X345003132Y-88086209D01*
X344995628Y-88109566D01*
X344985869Y-88132076D01*
X344973952Y-88153520D01*
X344959990Y-88173694D01*
X344944117Y-88192401D01*
X344926488Y-88209463D01*
X344907271Y-88224715D01*
X344886651Y-88238009D01*
X344864828Y-88249219D01*
X344842012Y-88258236D01*
X344818421Y-88264972D01*
X344794283Y-88269364D01*
X344769832Y-88271369D01*
X344745301Y-88270968D01*
X344720928Y-88268164D01*
X344696947Y-88262984D01*
X343827612Y-88030046D01*
X343804255Y-88022542D01*
X343781745Y-88012783D01*
X343760300Y-88000866D01*
X343740127Y-87986903D01*
X343721420Y-87971031D01*
X343704358Y-87953402D01*
X343689106Y-87934185D01*
X343675811Y-87913565D01*
X343664602Y-87891742D01*
X343655585Y-87868925D01*
X343648849Y-87845335D01*
X343644457Y-87821197D01*
X343642452Y-87796746D01*
X343642853Y-87772215D01*
X343645657Y-87747842D01*
X343650837Y-87723861D01*
X343819070Y-87096007D01*
X343826574Y-87072650D01*
X343836333Y-87050140D01*
X343848250Y-87028696D01*
X343862212Y-87008522D01*
X343878085Y-86989815D01*
X343895714Y-86972753D01*
X343914931Y-86957501D01*
X343935551Y-86944207D01*
X343957374Y-86932997D01*
X343980190Y-86923980D01*
X344003781Y-86917244D01*
X344027919Y-86912852D01*
X344052370Y-86910847D01*
X344076901Y-86911248D01*
X344076901Y-86911248D01*
G37*
D19*
X344411101Y-87591108D03*
D13*
G36*
X243263396Y-35764736D02*
G01*
X243287664Y-35768336D01*
X243311463Y-35774297D01*
X243334562Y-35782562D01*
X243356741Y-35793052D01*
X243377784Y-35805664D01*
X243397490Y-35820279D01*
X243415668Y-35836755D01*
X243432144Y-35854933D01*
X243446759Y-35874639D01*
X243459371Y-35895682D01*
X243469861Y-35917861D01*
X243478126Y-35940960D01*
X243484087Y-35964759D01*
X243487687Y-35989027D01*
X243488891Y-36013531D01*
X243488891Y-36663533D01*
X243487687Y-36688037D01*
X243484087Y-36712305D01*
X243478126Y-36736104D01*
X243469861Y-36759203D01*
X243459371Y-36781382D01*
X243446759Y-36802425D01*
X243432144Y-36822131D01*
X243415668Y-36840309D01*
X243397490Y-36856785D01*
X243377784Y-36871400D01*
X243356741Y-36884012D01*
X243334562Y-36894502D01*
X243311463Y-36902767D01*
X243287664Y-36908728D01*
X243263396Y-36912328D01*
X243238892Y-36913532D01*
X242338890Y-36913532D01*
X242314386Y-36912328D01*
X242290118Y-36908728D01*
X242266319Y-36902767D01*
X242243220Y-36894502D01*
X242221041Y-36884012D01*
X242199998Y-36871400D01*
X242180292Y-36856785D01*
X242162114Y-36840309D01*
X242145638Y-36822131D01*
X242131023Y-36802425D01*
X242118411Y-36781382D01*
X242107921Y-36759203D01*
X242099656Y-36736104D01*
X242093695Y-36712305D01*
X242090095Y-36688037D01*
X242088891Y-36663533D01*
X242088891Y-36013531D01*
X242090095Y-35989027D01*
X242093695Y-35964759D01*
X242099656Y-35940960D01*
X242107921Y-35917861D01*
X242118411Y-35895682D01*
X242131023Y-35874639D01*
X242145638Y-35854933D01*
X242162114Y-35836755D01*
X242180292Y-35820279D01*
X242199998Y-35805664D01*
X242221041Y-35793052D01*
X242243220Y-35782562D01*
X242266319Y-35774297D01*
X242290118Y-35768336D01*
X242314386Y-35764736D01*
X242338890Y-35763532D01*
X243238892Y-35763532D01*
X243263396Y-35764736D01*
X243263396Y-35764736D01*
G37*
D19*
X242788891Y-36338532D03*
D13*
G36*
X243263396Y-37814736D02*
G01*
X243287664Y-37818336D01*
X243311463Y-37824297D01*
X243334562Y-37832562D01*
X243356741Y-37843052D01*
X243377784Y-37855664D01*
X243397490Y-37870279D01*
X243415668Y-37886755D01*
X243432144Y-37904933D01*
X243446759Y-37924639D01*
X243459371Y-37945682D01*
X243469861Y-37967861D01*
X243478126Y-37990960D01*
X243484087Y-38014759D01*
X243487687Y-38039027D01*
X243488891Y-38063531D01*
X243488891Y-38713533D01*
X243487687Y-38738037D01*
X243484087Y-38762305D01*
X243478126Y-38786104D01*
X243469861Y-38809203D01*
X243459371Y-38831382D01*
X243446759Y-38852425D01*
X243432144Y-38872131D01*
X243415668Y-38890309D01*
X243397490Y-38906785D01*
X243377784Y-38921400D01*
X243356741Y-38934012D01*
X243334562Y-38944502D01*
X243311463Y-38952767D01*
X243287664Y-38958728D01*
X243263396Y-38962328D01*
X243238892Y-38963532D01*
X242338890Y-38963532D01*
X242314386Y-38962328D01*
X242290118Y-38958728D01*
X242266319Y-38952767D01*
X242243220Y-38944502D01*
X242221041Y-38934012D01*
X242199998Y-38921400D01*
X242180292Y-38906785D01*
X242162114Y-38890309D01*
X242145638Y-38872131D01*
X242131023Y-38852425D01*
X242118411Y-38831382D01*
X242107921Y-38809203D01*
X242099656Y-38786104D01*
X242093695Y-38762305D01*
X242090095Y-38738037D01*
X242088891Y-38713533D01*
X242088891Y-38063531D01*
X242090095Y-38039027D01*
X242093695Y-38014759D01*
X242099656Y-37990960D01*
X242107921Y-37967861D01*
X242118411Y-37945682D01*
X242131023Y-37924639D01*
X242145638Y-37904933D01*
X242162114Y-37886755D01*
X242180292Y-37870279D01*
X242199998Y-37855664D01*
X242221041Y-37843052D01*
X242243220Y-37832562D01*
X242266319Y-37824297D01*
X242290118Y-37818336D01*
X242314386Y-37814736D01*
X242338890Y-37813532D01*
X243238892Y-37813532D01*
X243263396Y-37814736D01*
X243263396Y-37814736D01*
G37*
D19*
X242788891Y-38388532D03*
D13*
G36*
X239363397Y-35764737D02*
G01*
X239387665Y-35768337D01*
X239411464Y-35774298D01*
X239434563Y-35782563D01*
X239456742Y-35793053D01*
X239477785Y-35805665D01*
X239497491Y-35820280D01*
X239515669Y-35836756D01*
X239532145Y-35854934D01*
X239546760Y-35874640D01*
X239559372Y-35895683D01*
X239569862Y-35917862D01*
X239578127Y-35940961D01*
X239584088Y-35964760D01*
X239587688Y-35989028D01*
X239588892Y-36013532D01*
X239588892Y-36663534D01*
X239587688Y-36688038D01*
X239584088Y-36712306D01*
X239578127Y-36736105D01*
X239569862Y-36759204D01*
X239559372Y-36781383D01*
X239546760Y-36802426D01*
X239532145Y-36822132D01*
X239515669Y-36840310D01*
X239497491Y-36856786D01*
X239477785Y-36871401D01*
X239456742Y-36884013D01*
X239434563Y-36894503D01*
X239411464Y-36902768D01*
X239387665Y-36908729D01*
X239363397Y-36912329D01*
X239338893Y-36913533D01*
X238438891Y-36913533D01*
X238414387Y-36912329D01*
X238390119Y-36908729D01*
X238366320Y-36902768D01*
X238343221Y-36894503D01*
X238321042Y-36884013D01*
X238299999Y-36871401D01*
X238280293Y-36856786D01*
X238262115Y-36840310D01*
X238245639Y-36822132D01*
X238231024Y-36802426D01*
X238218412Y-36781383D01*
X238207922Y-36759204D01*
X238199657Y-36736105D01*
X238193696Y-36712306D01*
X238190096Y-36688038D01*
X238188892Y-36663534D01*
X238188892Y-36013532D01*
X238190096Y-35989028D01*
X238193696Y-35964760D01*
X238199657Y-35940961D01*
X238207922Y-35917862D01*
X238218412Y-35895683D01*
X238231024Y-35874640D01*
X238245639Y-35854934D01*
X238262115Y-35836756D01*
X238280293Y-35820280D01*
X238299999Y-35805665D01*
X238321042Y-35793053D01*
X238343221Y-35782563D01*
X238366320Y-35774298D01*
X238390119Y-35768337D01*
X238414387Y-35764737D01*
X238438891Y-35763533D01*
X239338893Y-35763533D01*
X239363397Y-35764737D01*
X239363397Y-35764737D01*
G37*
D19*
X238888892Y-36338533D03*
D13*
G36*
X239363397Y-37814737D02*
G01*
X239387665Y-37818337D01*
X239411464Y-37824298D01*
X239434563Y-37832563D01*
X239456742Y-37843053D01*
X239477785Y-37855665D01*
X239497491Y-37870280D01*
X239515669Y-37886756D01*
X239532145Y-37904934D01*
X239546760Y-37924640D01*
X239559372Y-37945683D01*
X239569862Y-37967862D01*
X239578127Y-37990961D01*
X239584088Y-38014760D01*
X239587688Y-38039028D01*
X239588892Y-38063532D01*
X239588892Y-38713534D01*
X239587688Y-38738038D01*
X239584088Y-38762306D01*
X239578127Y-38786105D01*
X239569862Y-38809204D01*
X239559372Y-38831383D01*
X239546760Y-38852426D01*
X239532145Y-38872132D01*
X239515669Y-38890310D01*
X239497491Y-38906786D01*
X239477785Y-38921401D01*
X239456742Y-38934013D01*
X239434563Y-38944503D01*
X239411464Y-38952768D01*
X239387665Y-38958729D01*
X239363397Y-38962329D01*
X239338893Y-38963533D01*
X238438891Y-38963533D01*
X238414387Y-38962329D01*
X238390119Y-38958729D01*
X238366320Y-38952768D01*
X238343221Y-38944503D01*
X238321042Y-38934013D01*
X238299999Y-38921401D01*
X238280293Y-38906786D01*
X238262115Y-38890310D01*
X238245639Y-38872132D01*
X238231024Y-38852426D01*
X238218412Y-38831383D01*
X238207922Y-38809204D01*
X238199657Y-38786105D01*
X238193696Y-38762306D01*
X238190096Y-38738038D01*
X238188892Y-38713534D01*
X238188892Y-38063532D01*
X238190096Y-38039028D01*
X238193696Y-38014760D01*
X238199657Y-37990961D01*
X238207922Y-37967862D01*
X238218412Y-37945683D01*
X238231024Y-37924640D01*
X238245639Y-37904934D01*
X238262115Y-37886756D01*
X238280293Y-37870280D01*
X238299999Y-37855665D01*
X238321042Y-37843053D01*
X238343221Y-37832563D01*
X238366320Y-37824298D01*
X238390119Y-37818337D01*
X238414387Y-37814737D01*
X238438891Y-37813533D01*
X239338893Y-37813533D01*
X239363397Y-37814737D01*
X239363397Y-37814737D01*
G37*
D19*
X238888892Y-38388533D03*
D13*
G36*
X318181870Y-76370072D02*
G01*
X318206243Y-76372876D01*
X318230224Y-76378056D01*
X318858078Y-76546289D01*
X318881435Y-76553793D01*
X318903945Y-76563552D01*
X318925389Y-76575469D01*
X318945563Y-76589431D01*
X318964270Y-76605304D01*
X318981332Y-76622933D01*
X318996584Y-76642150D01*
X319009878Y-76662770D01*
X319021088Y-76684593D01*
X319030105Y-76707409D01*
X319036841Y-76731000D01*
X319041233Y-76755138D01*
X319043238Y-76779589D01*
X319042837Y-76804120D01*
X319040033Y-76828493D01*
X319034853Y-76852474D01*
X318801915Y-77721809D01*
X318794411Y-77745166D01*
X318784652Y-77767676D01*
X318772735Y-77789121D01*
X318758772Y-77809294D01*
X318742900Y-77828001D01*
X318725271Y-77845063D01*
X318706054Y-77860315D01*
X318685434Y-77873610D01*
X318663611Y-77884819D01*
X318640794Y-77893836D01*
X318617204Y-77900572D01*
X318593066Y-77904964D01*
X318568615Y-77906969D01*
X318544084Y-77906568D01*
X318519711Y-77903764D01*
X318495730Y-77898584D01*
X317867876Y-77730351D01*
X317844519Y-77722847D01*
X317822009Y-77713088D01*
X317800565Y-77701171D01*
X317780391Y-77687209D01*
X317761684Y-77671336D01*
X317744622Y-77653707D01*
X317729370Y-77634490D01*
X317716076Y-77613870D01*
X317704866Y-77592047D01*
X317695849Y-77569231D01*
X317689113Y-77545640D01*
X317684721Y-77521502D01*
X317682716Y-77497051D01*
X317683117Y-77472520D01*
X317685921Y-77448147D01*
X317691101Y-77424166D01*
X317924039Y-76554831D01*
X317931543Y-76531474D01*
X317941302Y-76508964D01*
X317953219Y-76487519D01*
X317967182Y-76467346D01*
X317983054Y-76448639D01*
X318000683Y-76431577D01*
X318019900Y-76416325D01*
X318040520Y-76403030D01*
X318062343Y-76391821D01*
X318085160Y-76382804D01*
X318108750Y-76376068D01*
X318132888Y-76371676D01*
X318157339Y-76369671D01*
X318181870Y-76370072D01*
X318181870Y-76370072D01*
G37*
D19*
X318362977Y-77138320D03*
D13*
G36*
X316201722Y-75839492D02*
G01*
X316226095Y-75842296D01*
X316250076Y-75847476D01*
X316877930Y-76015709D01*
X316901287Y-76023213D01*
X316923797Y-76032972D01*
X316945241Y-76044889D01*
X316965415Y-76058851D01*
X316984122Y-76074724D01*
X317001184Y-76092353D01*
X317016436Y-76111570D01*
X317029730Y-76132190D01*
X317040940Y-76154013D01*
X317049957Y-76176829D01*
X317056693Y-76200420D01*
X317061085Y-76224558D01*
X317063090Y-76249009D01*
X317062689Y-76273540D01*
X317059885Y-76297913D01*
X317054705Y-76321894D01*
X316821767Y-77191229D01*
X316814263Y-77214586D01*
X316804504Y-77237096D01*
X316792587Y-77258541D01*
X316778624Y-77278714D01*
X316762752Y-77297421D01*
X316745123Y-77314483D01*
X316725906Y-77329735D01*
X316705286Y-77343030D01*
X316683463Y-77354239D01*
X316660646Y-77363256D01*
X316637056Y-77369992D01*
X316612918Y-77374384D01*
X316588467Y-77376389D01*
X316563936Y-77375988D01*
X316539563Y-77373184D01*
X316515582Y-77368004D01*
X315887728Y-77199771D01*
X315864371Y-77192267D01*
X315841861Y-77182508D01*
X315820417Y-77170591D01*
X315800243Y-77156629D01*
X315781536Y-77140756D01*
X315764474Y-77123127D01*
X315749222Y-77103910D01*
X315735928Y-77083290D01*
X315724718Y-77061467D01*
X315715701Y-77038651D01*
X315708965Y-77015060D01*
X315704573Y-76990922D01*
X315702568Y-76966471D01*
X315702969Y-76941940D01*
X315705773Y-76917567D01*
X315710953Y-76893586D01*
X315943891Y-76024251D01*
X315951395Y-76000894D01*
X315961154Y-75978384D01*
X315973071Y-75956939D01*
X315987034Y-75936766D01*
X316002906Y-75918059D01*
X316020535Y-75900997D01*
X316039752Y-75885745D01*
X316060372Y-75872450D01*
X316082195Y-75861241D01*
X316105012Y-75852224D01*
X316128602Y-75845488D01*
X316152740Y-75841096D01*
X316177191Y-75839091D01*
X316201722Y-75839492D01*
X316201722Y-75839492D01*
G37*
D19*
X316382829Y-76607740D03*
D13*
G36*
X219083396Y-35764738D02*
G01*
X219107664Y-35768338D01*
X219131463Y-35774299D01*
X219154562Y-35782564D01*
X219176741Y-35793054D01*
X219197784Y-35805666D01*
X219217490Y-35820281D01*
X219235668Y-35836757D01*
X219252144Y-35854935D01*
X219266759Y-35874641D01*
X219279371Y-35895684D01*
X219289861Y-35917863D01*
X219298126Y-35940962D01*
X219304087Y-35964761D01*
X219307687Y-35989029D01*
X219308891Y-36013533D01*
X219308891Y-36663535D01*
X219307687Y-36688039D01*
X219304087Y-36712307D01*
X219298126Y-36736106D01*
X219289861Y-36759205D01*
X219279371Y-36781384D01*
X219266759Y-36802427D01*
X219252144Y-36822133D01*
X219235668Y-36840311D01*
X219217490Y-36856787D01*
X219197784Y-36871402D01*
X219176741Y-36884014D01*
X219154562Y-36894504D01*
X219131463Y-36902769D01*
X219107664Y-36908730D01*
X219083396Y-36912330D01*
X219058892Y-36913534D01*
X218158890Y-36913534D01*
X218134386Y-36912330D01*
X218110118Y-36908730D01*
X218086319Y-36902769D01*
X218063220Y-36894504D01*
X218041041Y-36884014D01*
X218019998Y-36871402D01*
X218000292Y-36856787D01*
X217982114Y-36840311D01*
X217965638Y-36822133D01*
X217951023Y-36802427D01*
X217938411Y-36781384D01*
X217927921Y-36759205D01*
X217919656Y-36736106D01*
X217913695Y-36712307D01*
X217910095Y-36688039D01*
X217908891Y-36663535D01*
X217908891Y-36013533D01*
X217910095Y-35989029D01*
X217913695Y-35964761D01*
X217919656Y-35940962D01*
X217927921Y-35917863D01*
X217938411Y-35895684D01*
X217951023Y-35874641D01*
X217965638Y-35854935D01*
X217982114Y-35836757D01*
X218000292Y-35820281D01*
X218019998Y-35805666D01*
X218041041Y-35793054D01*
X218063220Y-35782564D01*
X218086319Y-35774299D01*
X218110118Y-35768338D01*
X218134386Y-35764738D01*
X218158890Y-35763534D01*
X219058892Y-35763534D01*
X219083396Y-35764738D01*
X219083396Y-35764738D01*
G37*
D19*
X218608891Y-36338534D03*
D13*
G36*
X219083396Y-37814738D02*
G01*
X219107664Y-37818338D01*
X219131463Y-37824299D01*
X219154562Y-37832564D01*
X219176741Y-37843054D01*
X219197784Y-37855666D01*
X219217490Y-37870281D01*
X219235668Y-37886757D01*
X219252144Y-37904935D01*
X219266759Y-37924641D01*
X219279371Y-37945684D01*
X219289861Y-37967863D01*
X219298126Y-37990962D01*
X219304087Y-38014761D01*
X219307687Y-38039029D01*
X219308891Y-38063533D01*
X219308891Y-38713535D01*
X219307687Y-38738039D01*
X219304087Y-38762307D01*
X219298126Y-38786106D01*
X219289861Y-38809205D01*
X219279371Y-38831384D01*
X219266759Y-38852427D01*
X219252144Y-38872133D01*
X219235668Y-38890311D01*
X219217490Y-38906787D01*
X219197784Y-38921402D01*
X219176741Y-38934014D01*
X219154562Y-38944504D01*
X219131463Y-38952769D01*
X219107664Y-38958730D01*
X219083396Y-38962330D01*
X219058892Y-38963534D01*
X218158890Y-38963534D01*
X218134386Y-38962330D01*
X218110118Y-38958730D01*
X218086319Y-38952769D01*
X218063220Y-38944504D01*
X218041041Y-38934014D01*
X218019998Y-38921402D01*
X218000292Y-38906787D01*
X217982114Y-38890311D01*
X217965638Y-38872133D01*
X217951023Y-38852427D01*
X217938411Y-38831384D01*
X217927921Y-38809205D01*
X217919656Y-38786106D01*
X217913695Y-38762307D01*
X217910095Y-38738039D01*
X217908891Y-38713535D01*
X217908891Y-38063533D01*
X217910095Y-38039029D01*
X217913695Y-38014761D01*
X217919656Y-37990962D01*
X217927921Y-37967863D01*
X217938411Y-37945684D01*
X217951023Y-37924641D01*
X217965638Y-37904935D01*
X217982114Y-37886757D01*
X218000292Y-37870281D01*
X218019998Y-37855666D01*
X218041041Y-37843054D01*
X218063220Y-37832564D01*
X218086319Y-37824299D01*
X218110118Y-37818338D01*
X218134386Y-37814738D01*
X218158890Y-37813534D01*
X219058892Y-37813534D01*
X219083396Y-37814738D01*
X219083396Y-37814738D01*
G37*
D19*
X218608891Y-38388534D03*
D13*
G36*
X219083396Y-42494738D02*
G01*
X219107664Y-42498338D01*
X219131463Y-42504299D01*
X219154562Y-42512564D01*
X219176741Y-42523054D01*
X219197784Y-42535666D01*
X219217490Y-42550281D01*
X219235668Y-42566757D01*
X219252144Y-42584935D01*
X219266759Y-42604641D01*
X219279371Y-42625684D01*
X219289861Y-42647863D01*
X219298126Y-42670962D01*
X219304087Y-42694761D01*
X219307687Y-42719029D01*
X219308891Y-42743533D01*
X219308891Y-43393535D01*
X219307687Y-43418039D01*
X219304087Y-43442307D01*
X219298126Y-43466106D01*
X219289861Y-43489205D01*
X219279371Y-43511384D01*
X219266759Y-43532427D01*
X219252144Y-43552133D01*
X219235668Y-43570311D01*
X219217490Y-43586787D01*
X219197784Y-43601402D01*
X219176741Y-43614014D01*
X219154562Y-43624504D01*
X219131463Y-43632769D01*
X219107664Y-43638730D01*
X219083396Y-43642330D01*
X219058892Y-43643534D01*
X218158890Y-43643534D01*
X218134386Y-43642330D01*
X218110118Y-43638730D01*
X218086319Y-43632769D01*
X218063220Y-43624504D01*
X218041041Y-43614014D01*
X218019998Y-43601402D01*
X218000292Y-43586787D01*
X217982114Y-43570311D01*
X217965638Y-43552133D01*
X217951023Y-43532427D01*
X217938411Y-43511384D01*
X217927921Y-43489205D01*
X217919656Y-43466106D01*
X217913695Y-43442307D01*
X217910095Y-43418039D01*
X217908891Y-43393535D01*
X217908891Y-42743533D01*
X217910095Y-42719029D01*
X217913695Y-42694761D01*
X217919656Y-42670962D01*
X217927921Y-42647863D01*
X217938411Y-42625684D01*
X217951023Y-42604641D01*
X217965638Y-42584935D01*
X217982114Y-42566757D01*
X218000292Y-42550281D01*
X218019998Y-42535666D01*
X218041041Y-42523054D01*
X218063220Y-42512564D01*
X218086319Y-42504299D01*
X218110118Y-42498338D01*
X218134386Y-42494738D01*
X218158890Y-42493534D01*
X219058892Y-42493534D01*
X219083396Y-42494738D01*
X219083396Y-42494738D01*
G37*
D19*
X218608891Y-43068534D03*
D13*
G36*
X219083396Y-40444738D02*
G01*
X219107664Y-40448338D01*
X219131463Y-40454299D01*
X219154562Y-40462564D01*
X219176741Y-40473054D01*
X219197784Y-40485666D01*
X219217490Y-40500281D01*
X219235668Y-40516757D01*
X219252144Y-40534935D01*
X219266759Y-40554641D01*
X219279371Y-40575684D01*
X219289861Y-40597863D01*
X219298126Y-40620962D01*
X219304087Y-40644761D01*
X219307687Y-40669029D01*
X219308891Y-40693533D01*
X219308891Y-41343535D01*
X219307687Y-41368039D01*
X219304087Y-41392307D01*
X219298126Y-41416106D01*
X219289861Y-41439205D01*
X219279371Y-41461384D01*
X219266759Y-41482427D01*
X219252144Y-41502133D01*
X219235668Y-41520311D01*
X219217490Y-41536787D01*
X219197784Y-41551402D01*
X219176741Y-41564014D01*
X219154562Y-41574504D01*
X219131463Y-41582769D01*
X219107664Y-41588730D01*
X219083396Y-41592330D01*
X219058892Y-41593534D01*
X218158890Y-41593534D01*
X218134386Y-41592330D01*
X218110118Y-41588730D01*
X218086319Y-41582769D01*
X218063220Y-41574504D01*
X218041041Y-41564014D01*
X218019998Y-41551402D01*
X218000292Y-41536787D01*
X217982114Y-41520311D01*
X217965638Y-41502133D01*
X217951023Y-41482427D01*
X217938411Y-41461384D01*
X217927921Y-41439205D01*
X217919656Y-41416106D01*
X217913695Y-41392307D01*
X217910095Y-41368039D01*
X217908891Y-41343535D01*
X217908891Y-40693533D01*
X217910095Y-40669029D01*
X217913695Y-40644761D01*
X217919656Y-40620962D01*
X217927921Y-40597863D01*
X217938411Y-40575684D01*
X217951023Y-40554641D01*
X217965638Y-40534935D01*
X217982114Y-40516757D01*
X218000292Y-40500281D01*
X218019998Y-40485666D01*
X218041041Y-40473054D01*
X218063220Y-40462564D01*
X218086319Y-40454299D01*
X218110118Y-40448338D01*
X218134386Y-40444738D01*
X218158890Y-40443534D01*
X219058892Y-40443534D01*
X219083396Y-40444738D01*
X219083396Y-40444738D01*
G37*
D19*
X218608891Y-41018534D03*
D13*
G36*
X224563396Y-41734738D02*
G01*
X224587664Y-41738338D01*
X224611463Y-41744299D01*
X224634562Y-41752564D01*
X224656741Y-41763054D01*
X224677784Y-41775666D01*
X224697490Y-41790281D01*
X224715668Y-41806757D01*
X224732144Y-41824935D01*
X224746759Y-41844641D01*
X224759371Y-41865684D01*
X224769861Y-41887863D01*
X224778126Y-41910962D01*
X224784087Y-41934761D01*
X224787687Y-41959029D01*
X224788891Y-41983533D01*
X224788891Y-42883535D01*
X224787687Y-42908039D01*
X224784087Y-42932307D01*
X224778126Y-42956106D01*
X224769861Y-42979205D01*
X224759371Y-43001384D01*
X224746759Y-43022427D01*
X224732144Y-43042133D01*
X224715668Y-43060311D01*
X224697490Y-43076787D01*
X224677784Y-43091402D01*
X224656741Y-43104014D01*
X224634562Y-43114504D01*
X224611463Y-43122769D01*
X224587664Y-43128730D01*
X224563396Y-43132330D01*
X224538892Y-43133534D01*
X223888890Y-43133534D01*
X223864386Y-43132330D01*
X223840118Y-43128730D01*
X223816319Y-43122769D01*
X223793220Y-43114504D01*
X223771041Y-43104014D01*
X223749998Y-43091402D01*
X223730292Y-43076787D01*
X223712114Y-43060311D01*
X223695638Y-43042133D01*
X223681023Y-43022427D01*
X223668411Y-43001384D01*
X223657921Y-42979205D01*
X223649656Y-42956106D01*
X223643695Y-42932307D01*
X223640095Y-42908039D01*
X223638891Y-42883535D01*
X223638891Y-41983533D01*
X223640095Y-41959029D01*
X223643695Y-41934761D01*
X223649656Y-41910962D01*
X223657921Y-41887863D01*
X223668411Y-41865684D01*
X223681023Y-41844641D01*
X223695638Y-41824935D01*
X223712114Y-41806757D01*
X223730292Y-41790281D01*
X223749998Y-41775666D01*
X223771041Y-41763054D01*
X223793220Y-41752564D01*
X223816319Y-41744299D01*
X223840118Y-41738338D01*
X223864386Y-41734738D01*
X223888890Y-41733534D01*
X224538892Y-41733534D01*
X224563396Y-41734738D01*
X224563396Y-41734738D01*
G37*
D19*
X224213891Y-42433534D03*
D13*
G36*
X226613396Y-41734738D02*
G01*
X226637664Y-41738338D01*
X226661463Y-41744299D01*
X226684562Y-41752564D01*
X226706741Y-41763054D01*
X226727784Y-41775666D01*
X226747490Y-41790281D01*
X226765668Y-41806757D01*
X226782144Y-41824935D01*
X226796759Y-41844641D01*
X226809371Y-41865684D01*
X226819861Y-41887863D01*
X226828126Y-41910962D01*
X226834087Y-41934761D01*
X226837687Y-41959029D01*
X226838891Y-41983533D01*
X226838891Y-42883535D01*
X226837687Y-42908039D01*
X226834087Y-42932307D01*
X226828126Y-42956106D01*
X226819861Y-42979205D01*
X226809371Y-43001384D01*
X226796759Y-43022427D01*
X226782144Y-43042133D01*
X226765668Y-43060311D01*
X226747490Y-43076787D01*
X226727784Y-43091402D01*
X226706741Y-43104014D01*
X226684562Y-43114504D01*
X226661463Y-43122769D01*
X226637664Y-43128730D01*
X226613396Y-43132330D01*
X226588892Y-43133534D01*
X225938890Y-43133534D01*
X225914386Y-43132330D01*
X225890118Y-43128730D01*
X225866319Y-43122769D01*
X225843220Y-43114504D01*
X225821041Y-43104014D01*
X225799998Y-43091402D01*
X225780292Y-43076787D01*
X225762114Y-43060311D01*
X225745638Y-43042133D01*
X225731023Y-43022427D01*
X225718411Y-43001384D01*
X225707921Y-42979205D01*
X225699656Y-42956106D01*
X225693695Y-42932307D01*
X225690095Y-42908039D01*
X225688891Y-42883535D01*
X225688891Y-41983533D01*
X225690095Y-41959029D01*
X225693695Y-41934761D01*
X225699656Y-41910962D01*
X225707921Y-41887863D01*
X225718411Y-41865684D01*
X225731023Y-41844641D01*
X225745638Y-41824935D01*
X225762114Y-41806757D01*
X225780292Y-41790281D01*
X225799998Y-41775666D01*
X225821041Y-41763054D01*
X225843220Y-41752564D01*
X225866319Y-41744299D01*
X225890118Y-41738338D01*
X225914386Y-41734738D01*
X225938890Y-41733534D01*
X226588892Y-41733534D01*
X226613396Y-41734738D01*
X226613396Y-41734738D01*
G37*
D19*
X226263891Y-42433534D03*
D13*
G36*
X226738220Y-39435824D02*
G01*
X226762488Y-39439424D01*
X226786287Y-39445385D01*
X226809386Y-39453650D01*
X226831565Y-39464140D01*
X226852608Y-39476752D01*
X226872314Y-39491367D01*
X226890492Y-39507843D01*
X226906968Y-39526021D01*
X226921583Y-39545727D01*
X226934195Y-39566770D01*
X226944685Y-39588949D01*
X226952950Y-39612048D01*
X226958911Y-39635847D01*
X226962511Y-39660115D01*
X226963715Y-39684619D01*
X226963715Y-40584621D01*
X226962511Y-40609125D01*
X226958911Y-40633393D01*
X226952950Y-40657192D01*
X226944685Y-40680291D01*
X226934195Y-40702470D01*
X226921583Y-40723513D01*
X226906968Y-40743219D01*
X226890492Y-40761397D01*
X226872314Y-40777873D01*
X226852608Y-40792488D01*
X226831565Y-40805100D01*
X226809386Y-40815590D01*
X226786287Y-40823855D01*
X226762488Y-40829816D01*
X226738220Y-40833416D01*
X226713716Y-40834620D01*
X226063714Y-40834620D01*
X226039210Y-40833416D01*
X226014942Y-40829816D01*
X225991143Y-40823855D01*
X225968044Y-40815590D01*
X225945865Y-40805100D01*
X225924822Y-40792488D01*
X225905116Y-40777873D01*
X225886938Y-40761397D01*
X225870462Y-40743219D01*
X225855847Y-40723513D01*
X225843235Y-40702470D01*
X225832745Y-40680291D01*
X225824480Y-40657192D01*
X225818519Y-40633393D01*
X225814919Y-40609125D01*
X225813715Y-40584621D01*
X225813715Y-39684619D01*
X225814919Y-39660115D01*
X225818519Y-39635847D01*
X225824480Y-39612048D01*
X225832745Y-39588949D01*
X225843235Y-39566770D01*
X225855847Y-39545727D01*
X225870462Y-39526021D01*
X225886938Y-39507843D01*
X225905116Y-39491367D01*
X225924822Y-39476752D01*
X225945865Y-39464140D01*
X225968044Y-39453650D01*
X225991143Y-39445385D01*
X226014942Y-39439424D01*
X226039210Y-39435824D01*
X226063714Y-39434620D01*
X226713716Y-39434620D01*
X226738220Y-39435824D01*
X226738220Y-39435824D01*
G37*
D19*
X226388715Y-40134620D03*
D13*
G36*
X224688220Y-39435824D02*
G01*
X224712488Y-39439424D01*
X224736287Y-39445385D01*
X224759386Y-39453650D01*
X224781565Y-39464140D01*
X224802608Y-39476752D01*
X224822314Y-39491367D01*
X224840492Y-39507843D01*
X224856968Y-39526021D01*
X224871583Y-39545727D01*
X224884195Y-39566770D01*
X224894685Y-39588949D01*
X224902950Y-39612048D01*
X224908911Y-39635847D01*
X224912511Y-39660115D01*
X224913715Y-39684619D01*
X224913715Y-40584621D01*
X224912511Y-40609125D01*
X224908911Y-40633393D01*
X224902950Y-40657192D01*
X224894685Y-40680291D01*
X224884195Y-40702470D01*
X224871583Y-40723513D01*
X224856968Y-40743219D01*
X224840492Y-40761397D01*
X224822314Y-40777873D01*
X224802608Y-40792488D01*
X224781565Y-40805100D01*
X224759386Y-40815590D01*
X224736287Y-40823855D01*
X224712488Y-40829816D01*
X224688220Y-40833416D01*
X224663716Y-40834620D01*
X224013714Y-40834620D01*
X223989210Y-40833416D01*
X223964942Y-40829816D01*
X223941143Y-40823855D01*
X223918044Y-40815590D01*
X223895865Y-40805100D01*
X223874822Y-40792488D01*
X223855116Y-40777873D01*
X223836938Y-40761397D01*
X223820462Y-40743219D01*
X223805847Y-40723513D01*
X223793235Y-40702470D01*
X223782745Y-40680291D01*
X223774480Y-40657192D01*
X223768519Y-40633393D01*
X223764919Y-40609125D01*
X223763715Y-40584621D01*
X223763715Y-39684619D01*
X223764919Y-39660115D01*
X223768519Y-39635847D01*
X223774480Y-39612048D01*
X223782745Y-39588949D01*
X223793235Y-39566770D01*
X223805847Y-39545727D01*
X223820462Y-39526021D01*
X223836938Y-39507843D01*
X223855116Y-39491367D01*
X223874822Y-39476752D01*
X223895865Y-39464140D01*
X223918044Y-39453650D01*
X223941143Y-39445385D01*
X223964942Y-39439424D01*
X223989210Y-39435824D01*
X224013714Y-39434620D01*
X224663716Y-39434620D01*
X224688220Y-39435824D01*
X224688220Y-39435824D01*
G37*
D19*
X224338715Y-40134620D03*
M02*
