M48
; DRILL file {KiCad (5.1.4)-1} date 5/29/2020 8:33:58 PM
; FORMAT={-:-/ absolute / metric / decimal}
; #@! TF.CreationDate,2020-05-29T20:33:58-05:00
; #@! TF.GenerationSoftware,Kicad,Pcbnew,(5.1.4)-1
; #@! TF.FileFunction,NonPlated,1,2,NPTH
FMAT,2
METRIC
T1C1.702
T2C3.000
T3C3.988
%
G90
G05
T1
X298.159Y-90.414
X308.319Y-90.414
X220.159Y-74.414
X230.319Y-74.414
X298.159Y-51.414
X308.319Y-51.414
X239.659Y-70.914
X249.819Y-70.914
X239.659Y-51.414
X249.819Y-51.414
X318.132Y-118.256
X327.945Y-120.885
X259.159Y-106.414
X269.319Y-106.414
X200.659Y-93.914
X210.819Y-93.914
X342.014Y-104.467
X351.828Y-107.097
X259.159Y-86.914
X269.319Y-86.914
X200.659Y-74.414
X210.819Y-74.414
X278.659Y-90.414
X288.819Y-90.414
X239.659Y-90.414
X249.819Y-90.414
X200.659Y-54.914
X210.819Y-54.914
X336.967Y-123.303
X346.781Y-125.932
X239.659Y-109.914
X249.819Y-109.914
X220.159Y-113.414
X230.319Y-113.414
X323.179Y-99.42
X332.992Y-102.05
X278.659Y-70.914
X288.819Y-70.914
X259.159Y-67.414
X269.319Y-67.414
X278.659Y-51.414
X288.819Y-51.414
X298.159Y-70.914
X308.319Y-70.914
X220.159Y-54.914
X230.319Y-54.914
X259.159Y-47.914
X269.319Y-47.914
X298.159Y-109.914
X308.319Y-109.914
X278.659Y-109.914
X288.819Y-109.914
X220.159Y-93.914
X230.319Y-93.914
X200.659Y-113.414
X210.819Y-113.414
T2
X299.429Y-87.874
X300.699Y-85.334
X305.779Y-85.334
X307.049Y-87.874
X221.429Y-71.874
X222.699Y-69.334
X227.779Y-69.334
X229.049Y-71.874
X299.429Y-53.954
X300.699Y-56.494
X305.779Y-56.494
X307.049Y-53.954
X240.929Y-68.374
X242.199Y-65.834
X247.279Y-65.834
X248.549Y-68.374
X240.929Y-53.954
X242.199Y-56.494
X247.279Y-56.494
X248.549Y-53.954
X320.016Y-116.131
X321.9Y-114.006
X326.807Y-115.321
X327.376Y-118.103
X260.429Y-103.874
X261.699Y-101.334
X266.779Y-101.334
X268.049Y-103.874
X201.929Y-91.374
X203.199Y-88.834
X208.279Y-88.834
X209.549Y-91.374
X342.584Y-107.249
X343.153Y-110.031
X348.06Y-111.346
X349.944Y-109.221
X260.429Y-84.374
X261.699Y-81.834
X266.779Y-81.834
X268.049Y-84.374
X201.929Y-71.874
X203.199Y-69.334
X208.279Y-69.334
X209.549Y-71.874
X279.929Y-87.874
X281.199Y-85.334
X286.279Y-85.334
X287.549Y-87.874
X240.929Y-87.874
X242.199Y-85.334
X247.279Y-85.334
X248.549Y-87.874
X201.929Y-57.454
X203.199Y-59.994
X208.279Y-59.994
X209.549Y-57.454
X338.851Y-121.178
X340.735Y-119.053
X345.642Y-120.368
X346.212Y-123.15
X240.929Y-107.374
X242.199Y-104.834
X247.279Y-104.834
X248.549Y-107.374
X221.429Y-110.874
X222.699Y-108.334
X227.779Y-108.334
X229.049Y-110.874
X323.748Y-102.202
X324.317Y-104.984
X329.224Y-106.299
X331.108Y-104.174
X279.929Y-68.374
X281.199Y-65.834
X286.279Y-65.834
X287.549Y-68.374
X260.429Y-64.874
X261.699Y-62.334
X266.779Y-62.334
X268.049Y-64.874
X279.929Y-53.954
X281.199Y-56.494
X286.279Y-56.494
X287.549Y-53.954
X299.429Y-68.374
X300.699Y-65.834
X305.779Y-65.834
X307.049Y-68.374
X221.429Y-57.454
X222.699Y-59.994
X227.779Y-59.994
X229.049Y-57.454
X260.429Y-50.454
X261.699Y-52.994
X266.779Y-52.994
X268.049Y-50.454
X299.429Y-107.374
X300.699Y-104.834
X305.779Y-104.834
X307.049Y-107.374
X279.929Y-107.374
X281.199Y-104.834
X286.279Y-104.834
X287.549Y-107.374
X221.429Y-91.374
X222.699Y-88.834
X227.779Y-88.834
X229.049Y-91.374
X201.929Y-110.874
X203.199Y-108.334
X208.279Y-108.334
X209.549Y-110.874
T3
X328.086Y-100.735
X283.739Y-70.914
X264.239Y-67.414
X283.739Y-51.414
X303.239Y-70.914
X225.239Y-54.914
X264.239Y-47.914
X303.239Y-109.914
X283.739Y-109.914
X225.239Y-93.914
X205.739Y-113.414
X303.239Y-90.414
X225.239Y-74.414
X303.239Y-51.414
X244.739Y-70.914
X244.739Y-51.414
X323.039Y-119.57
X264.239Y-106.414
X205.739Y-93.914
X346.921Y-105.782
X264.239Y-86.914
X205.739Y-74.414
X283.739Y-90.414
X244.739Y-90.414
X205.739Y-54.914
X341.874Y-124.617
X244.739Y-109.914
X225.239Y-113.414
T0
M30
