G04 #@! TF.GenerationSoftware,KiCad,Pcbnew,(5.1.4)-1*
G04 #@! TF.CreationDate,2020-05-29T20:33:55-05:00*
G04 #@! TF.ProjectId,Keeb,4b656562-2e6b-4696-9361-645f70636258,rev?*
G04 #@! TF.SameCoordinates,Original*
G04 #@! TF.FileFunction,Legend,Top*
G04 #@! TF.FilePolarity,Positive*
%FSLAX46Y46*%
G04 Gerber Fmt 4.6, Leading zero omitted, Abs format (unit mm)*
G04 Created by KiCad (PCBNEW (5.1.4)-1) date 2020-05-29 20:33:55*
%MOMM*%
%LPD*%
G04 APERTURE LIST*
%ADD10C,0.300000*%
%ADD11C,0.150000*%
%ADD12C,0.120000*%
G04 APERTURE END LIST*
D10*
X242360319Y-34922105D02*
X242360319Y-33422105D01*
X243217462Y-34922105D01*
X243217462Y-33422105D01*
X239353176Y-34779248D02*
X239281748Y-34850676D01*
X239067462Y-34922105D01*
X238924605Y-34922105D01*
X238710319Y-34850676D01*
X238567462Y-34707819D01*
X238496033Y-34564962D01*
X238424605Y-34279248D01*
X238424605Y-34064962D01*
X238496033Y-33779248D01*
X238567462Y-33636391D01*
X238710319Y-33493534D01*
X238924605Y-33422105D01*
X239067462Y-33422105D01*
X239281748Y-33493534D01*
X239353176Y-33564962D01*
D11*
X218238891Y-61913534D02*
X218238891Y-60913534D01*
X219238891Y-61913534D02*
X218238891Y-61913534D01*
X218238891Y-47913534D02*
X219238891Y-47913534D01*
X218238891Y-48913534D02*
X218238891Y-47913534D01*
X232238891Y-47913534D02*
X232238891Y-48913534D01*
X231238891Y-47913534D02*
X232238891Y-47913534D01*
X232238891Y-61913534D02*
X231238891Y-61913534D01*
X232238891Y-60913534D02*
X232238891Y-61913534D01*
D12*
X277896215Y-62097120D02*
X284696215Y-62097120D01*
X284696215Y-62097120D02*
X284696215Y-60097120D01*
X284696215Y-60097120D02*
X277896215Y-60097120D01*
X357664122Y-92939453D02*
X357793531Y-92456490D01*
X356370026Y-97769082D02*
X356240617Y-98252045D01*
X359595973Y-93457091D02*
X357664122Y-92939453D01*
X358301878Y-98286720D02*
X359595973Y-93457091D01*
X356370026Y-97769082D02*
X358301878Y-98286720D01*
X204798892Y-33867120D02*
X204298892Y-33867120D01*
X209798892Y-33867120D02*
X210298892Y-33867120D01*
X204798892Y-31867120D02*
X204798892Y-33867120D01*
X209798892Y-31867120D02*
X204798892Y-31867120D01*
X209798892Y-33867120D02*
X209798892Y-31867120D01*
X200828891Y-43763534D02*
X199498891Y-43763534D01*
X200828891Y-42433534D02*
X200828891Y-43763534D01*
X200828891Y-41163534D02*
X198168891Y-41163534D01*
X198168891Y-41163534D02*
X198168891Y-33483534D01*
X200828891Y-41163534D02*
X200828891Y-33483534D01*
X200828891Y-33483534D02*
X198168891Y-33483534D01*
X334448776Y-128292705D02*
X341017072Y-130052675D01*
X341017072Y-130052675D02*
X341534710Y-128120823D01*
X341534710Y-128120823D02*
X334966414Y-126360854D01*
X315923777Y-123417707D02*
X322492073Y-125177677D01*
X322492073Y-125177677D02*
X323009711Y-123245825D01*
X323009711Y-123245825D02*
X316441415Y-121485856D01*
X297078892Y-101163665D02*
X303878892Y-101163665D01*
X303878892Y-101163665D02*
X303878892Y-99163665D01*
X303878892Y-99163665D02*
X297078892Y-99163665D01*
X277578891Y-101163667D02*
X284378891Y-101163667D01*
X284378891Y-101163667D02*
X284378891Y-99163667D01*
X284378891Y-99163667D02*
X277578891Y-99163667D01*
X258078891Y-97663667D02*
X264878891Y-97663667D01*
X264878891Y-97663667D02*
X264878891Y-95663667D01*
X264878891Y-95663667D02*
X258078891Y-95663667D01*
X238578891Y-101163666D02*
X245378891Y-101163666D01*
X245378891Y-101163666D02*
X245378891Y-99163666D01*
X245378891Y-99163666D02*
X238578891Y-99163666D01*
X219078891Y-104663534D02*
X225878891Y-104663534D01*
X225878891Y-104663534D02*
X225878891Y-102663534D01*
X225878891Y-102663534D02*
X219078891Y-102663534D01*
X199578891Y-104663533D02*
X206378891Y-104663533D01*
X206378891Y-104663533D02*
X206378891Y-102663533D01*
X206378891Y-102663533D02*
X199578891Y-102663533D01*
X344006205Y-113817588D02*
X337437909Y-112057618D01*
X337437909Y-112057618D02*
X336920271Y-113989470D01*
X336920271Y-113989470D02*
X343488567Y-115749439D01*
X319336276Y-109280206D02*
X325904572Y-111040176D01*
X325904572Y-111040176D02*
X326422210Y-109108324D01*
X326422210Y-109108324D02*
X319853914Y-107348355D01*
X297076391Y-96376034D02*
X303876391Y-96376034D01*
X303876391Y-96376034D02*
X303876391Y-94376034D01*
X303876391Y-94376034D02*
X297076391Y-94376034D01*
X277576392Y-96376032D02*
X284376392Y-96376032D01*
X284376392Y-96376032D02*
X284376392Y-94376032D01*
X284376392Y-94376032D02*
X277576392Y-94376032D01*
X258076391Y-92963534D02*
X264876391Y-92963534D01*
X264876391Y-92963534D02*
X264876391Y-90963534D01*
X264876391Y-90963534D02*
X258076391Y-90963534D01*
X238576393Y-96376034D02*
X245376393Y-96376034D01*
X245376393Y-96376034D02*
X245376393Y-94376034D01*
X245376393Y-94376034D02*
X238576393Y-94376034D01*
X219076392Y-99788532D02*
X225876392Y-99788532D01*
X225876392Y-99788532D02*
X225876392Y-97788532D01*
X225876392Y-97788532D02*
X219076392Y-97788532D01*
X199576391Y-99788533D02*
X206376391Y-99788533D01*
X206376391Y-99788533D02*
X206376391Y-97788533D01*
X206376391Y-97788533D02*
X199576391Y-97788533D01*
X297078891Y-81663667D02*
X303878891Y-81663667D01*
X303878891Y-81663667D02*
X303878891Y-79663667D01*
X303878891Y-79663667D02*
X297078891Y-79663667D01*
X277578891Y-81663667D02*
X284378891Y-81663667D01*
X284378891Y-81663667D02*
X284378891Y-79663667D01*
X284378891Y-79663667D02*
X277578891Y-79663667D01*
X258078893Y-78163667D02*
X264878893Y-78163667D01*
X264878893Y-78163667D02*
X264878893Y-76163667D01*
X264878893Y-76163667D02*
X258078893Y-76163667D01*
X238578892Y-81663667D02*
X245378892Y-81663667D01*
X245378892Y-81663667D02*
X245378892Y-79663667D01*
X245378892Y-79663667D02*
X238578892Y-79663667D01*
X219078891Y-85163532D02*
X225878891Y-85163532D01*
X225878891Y-85163532D02*
X225878891Y-83163532D01*
X225878891Y-83163532D02*
X219078891Y-83163532D01*
X199578891Y-85163534D02*
X206378891Y-85163534D01*
X206378891Y-85163534D02*
X206378891Y-83163534D01*
X206378891Y-83163534D02*
X199578891Y-83163534D01*
X297078891Y-62163667D02*
X303878891Y-62163667D01*
X303878891Y-62163667D02*
X303878891Y-60163667D01*
X303878891Y-60163667D02*
X297078891Y-60163667D01*
X258078891Y-58663666D02*
X264878891Y-58663666D01*
X264878891Y-58663666D02*
X264878891Y-56663666D01*
X264878891Y-56663666D02*
X258078891Y-56663666D01*
X238578891Y-62163665D02*
X245378891Y-62163665D01*
X245378891Y-62163665D02*
X245378891Y-60163665D01*
X245378891Y-60163665D02*
X238578891Y-60163665D01*
X219078891Y-65663534D02*
X225878891Y-65663534D01*
X225878891Y-65663534D02*
X225878891Y-63663534D01*
X225878891Y-63663534D02*
X219078891Y-63663534D01*
X199576391Y-65663535D02*
X206376391Y-65663535D01*
X206376391Y-65663535D02*
X206376391Y-63663535D01*
X206376391Y-63663535D02*
X199576391Y-63663535D01*
D11*
X350447332Y-119667566D02*
X350188513Y-120633491D01*
X349481406Y-119408746D02*
X350447332Y-119667566D01*
X346823865Y-133190527D02*
X345857940Y-132931708D01*
X347082685Y-132224601D02*
X346823865Y-133190527D01*
X333300904Y-129567060D02*
X333559723Y-128601135D01*
X334266830Y-129825880D02*
X333300904Y-129567060D01*
X336924371Y-116044099D02*
X337890296Y-116302918D01*
X336665551Y-117010025D02*
X336924371Y-116044099D01*
X331611779Y-114620594D02*
X331352960Y-115586519D01*
X330645853Y-114361774D02*
X331611779Y-114620594D01*
X327988312Y-128143555D02*
X327022387Y-127884736D01*
X328247132Y-127177629D02*
X327988312Y-128143555D01*
X314465351Y-124520088D02*
X314724170Y-123554163D01*
X315431277Y-124778908D02*
X314465351Y-124520088D01*
X318088818Y-110997127D02*
X319054743Y-111255946D01*
X317829998Y-111963053D02*
X318088818Y-110997127D01*
X310238893Y-102913667D02*
X310238893Y-103913667D01*
X309238893Y-102913667D02*
X310238893Y-102913667D01*
X310238893Y-116913667D02*
X309238893Y-116913667D01*
X310238893Y-115913667D02*
X310238893Y-116913667D01*
X296238893Y-116913667D02*
X296238893Y-115913667D01*
X297238893Y-116913667D02*
X296238893Y-116913667D01*
X296238893Y-102913667D02*
X297238893Y-102913667D01*
X296238893Y-103913667D02*
X296238893Y-102913667D01*
X290738891Y-102913667D02*
X290738891Y-103913667D01*
X289738891Y-102913667D02*
X290738891Y-102913667D01*
X290738891Y-116913667D02*
X289738891Y-116913667D01*
X290738891Y-115913667D02*
X290738891Y-116913667D01*
X276738891Y-116913667D02*
X276738891Y-115913667D01*
X277738891Y-116913667D02*
X276738891Y-116913667D01*
X276738891Y-102913667D02*
X277738891Y-102913667D01*
X276738891Y-103913667D02*
X276738891Y-102913667D01*
X271238891Y-99413667D02*
X271238891Y-100413667D01*
X270238891Y-99413667D02*
X271238891Y-99413667D01*
X271238891Y-113413667D02*
X270238891Y-113413667D01*
X271238891Y-112413667D02*
X271238891Y-113413667D01*
X257238891Y-113413667D02*
X257238891Y-112413667D01*
X258238891Y-113413667D02*
X257238891Y-113413667D01*
X257238891Y-99413667D02*
X258238891Y-99413667D01*
X257238891Y-100413667D02*
X257238891Y-99413667D01*
X251738891Y-102913665D02*
X251738891Y-103913665D01*
X250738891Y-102913665D02*
X251738891Y-102913665D01*
X251738891Y-116913665D02*
X250738891Y-116913665D01*
X251738891Y-115913665D02*
X251738891Y-116913665D01*
X237738891Y-116913665D02*
X237738891Y-115913665D01*
X238738891Y-116913665D02*
X237738891Y-116913665D01*
X237738891Y-102913665D02*
X238738891Y-102913665D01*
X237738891Y-103913665D02*
X237738891Y-102913665D01*
X232238891Y-106413534D02*
X232238891Y-107413534D01*
X231238891Y-106413534D02*
X232238891Y-106413534D01*
X232238891Y-120413534D02*
X231238891Y-120413534D01*
X232238891Y-119413534D02*
X232238891Y-120413534D01*
X218238891Y-120413534D02*
X218238891Y-119413534D01*
X219238891Y-120413534D02*
X218238891Y-120413534D01*
X218238891Y-106413534D02*
X219238891Y-106413534D01*
X218238891Y-107413534D02*
X218238891Y-106413534D01*
X212738891Y-106413534D02*
X212738891Y-107413534D01*
X211738891Y-106413534D02*
X212738891Y-106413534D01*
X212738891Y-120413534D02*
X211738891Y-120413534D01*
X212738891Y-119413534D02*
X212738891Y-120413534D01*
X198738891Y-120413534D02*
X198738891Y-119413534D01*
X199738891Y-120413534D02*
X198738891Y-120413534D01*
X198738891Y-106413534D02*
X199738891Y-106413534D01*
X198738891Y-107413534D02*
X198738891Y-106413534D01*
X338347876Y-110731507D02*
X338606695Y-109765582D01*
X339313802Y-110990327D02*
X338347876Y-110731507D01*
X341971343Y-97208546D02*
X342937268Y-97467365D01*
X341712523Y-98174472D02*
X341971343Y-97208546D01*
X355494304Y-100832013D02*
X355235485Y-101797938D01*
X354528378Y-100573193D02*
X355494304Y-100832013D01*
X351870837Y-114354974D02*
X350904912Y-114096155D01*
X352129657Y-113389048D02*
X351870837Y-114354974D01*
X319512322Y-105684536D02*
X319771141Y-104718611D01*
X320478248Y-105943356D02*
X319512322Y-105684536D01*
X323135789Y-92161575D02*
X324101714Y-92420394D01*
X322876969Y-93127501D02*
X323135789Y-92161575D01*
X336658750Y-95785042D02*
X336399931Y-96750967D01*
X335692824Y-95526222D02*
X336658750Y-95785042D01*
X333035283Y-109308003D02*
X332069358Y-109049184D01*
X333294103Y-108342077D02*
X333035283Y-109308003D01*
X310238891Y-83413667D02*
X310238891Y-84413667D01*
X309238891Y-83413667D02*
X310238891Y-83413667D01*
X310238891Y-97413667D02*
X309238891Y-97413667D01*
X310238891Y-96413667D02*
X310238891Y-97413667D01*
X296238891Y-97413667D02*
X296238891Y-96413667D01*
X297238891Y-97413667D02*
X296238891Y-97413667D01*
X296238891Y-83413667D02*
X297238891Y-83413667D01*
X296238891Y-84413667D02*
X296238891Y-83413667D01*
X290738893Y-83413667D02*
X290738893Y-84413667D01*
X289738893Y-83413667D02*
X290738893Y-83413667D01*
X290738893Y-97413667D02*
X289738893Y-97413667D01*
X290738893Y-96413667D02*
X290738893Y-97413667D01*
X276738893Y-97413667D02*
X276738893Y-96413667D01*
X277738893Y-97413667D02*
X276738893Y-97413667D01*
X276738893Y-83413667D02*
X277738893Y-83413667D01*
X276738893Y-84413667D02*
X276738893Y-83413667D01*
X271238889Y-79913667D02*
X271238889Y-80913667D01*
X270238889Y-79913667D02*
X271238889Y-79913667D01*
X271238889Y-93913667D02*
X270238889Y-93913667D01*
X271238889Y-92913667D02*
X271238889Y-93913667D01*
X257238889Y-93913667D02*
X257238889Y-92913667D01*
X258238889Y-93913667D02*
X257238889Y-93913667D01*
X257238889Y-79913667D02*
X258238889Y-79913667D01*
X257238889Y-80913667D02*
X257238889Y-79913667D01*
X251738891Y-83413667D02*
X251738891Y-84413667D01*
X250738891Y-83413667D02*
X251738891Y-83413667D01*
X251738891Y-97413667D02*
X250738891Y-97413667D01*
X251738891Y-96413667D02*
X251738891Y-97413667D01*
X237738891Y-97413667D02*
X237738891Y-96413667D01*
X238738891Y-97413667D02*
X237738891Y-97413667D01*
X237738891Y-83413667D02*
X238738891Y-83413667D01*
X237738891Y-84413667D02*
X237738891Y-83413667D01*
X232238891Y-86913534D02*
X232238891Y-87913534D01*
X231238891Y-86913534D02*
X232238891Y-86913534D01*
X232238891Y-100913534D02*
X231238891Y-100913534D01*
X232238891Y-99913534D02*
X232238891Y-100913534D01*
X218238891Y-100913534D02*
X218238891Y-99913534D01*
X219238891Y-100913534D02*
X218238891Y-100913534D01*
X218238891Y-86913534D02*
X219238891Y-86913534D01*
X218238891Y-87913534D02*
X218238891Y-86913534D01*
X212738891Y-86913532D02*
X212738891Y-87913532D01*
X211738891Y-86913532D02*
X212738891Y-86913532D01*
X212738891Y-100913532D02*
X211738891Y-100913532D01*
X212738891Y-99913532D02*
X212738891Y-100913532D01*
X198738891Y-100913532D02*
X198738891Y-99913532D01*
X199738891Y-100913532D02*
X198738891Y-100913532D01*
X198738891Y-86913532D02*
X199738891Y-86913532D01*
X198738891Y-87913532D02*
X198738891Y-86913532D01*
X310238891Y-63913667D02*
X310238891Y-64913667D01*
X309238891Y-63913667D02*
X310238891Y-63913667D01*
X310238891Y-77913667D02*
X309238891Y-77913667D01*
X310238891Y-76913667D02*
X310238891Y-77913667D01*
X296238891Y-77913667D02*
X296238891Y-76913667D01*
X297238891Y-77913667D02*
X296238891Y-77913667D01*
X296238891Y-63913667D02*
X297238891Y-63913667D01*
X296238891Y-64913667D02*
X296238891Y-63913667D01*
X290738891Y-63913665D02*
X290738891Y-64913665D01*
X289738891Y-63913665D02*
X290738891Y-63913665D01*
X290738891Y-77913665D02*
X289738891Y-77913665D01*
X290738891Y-76913665D02*
X290738891Y-77913665D01*
X276738891Y-77913665D02*
X276738891Y-76913665D01*
X277738891Y-77913665D02*
X276738891Y-77913665D01*
X276738891Y-63913665D02*
X277738891Y-63913665D01*
X276738891Y-64913665D02*
X276738891Y-63913665D01*
X271238892Y-60413665D02*
X271238892Y-61413665D01*
X270238892Y-60413665D02*
X271238892Y-60413665D01*
X271238892Y-74413665D02*
X270238892Y-74413665D01*
X271238892Y-73413665D02*
X271238892Y-74413665D01*
X257238892Y-74413665D02*
X257238892Y-73413665D01*
X258238892Y-74413665D02*
X257238892Y-74413665D01*
X257238892Y-60413665D02*
X258238892Y-60413665D01*
X257238892Y-61413665D02*
X257238892Y-60413665D01*
X251738891Y-63913667D02*
X251738891Y-64913667D01*
X250738891Y-63913667D02*
X251738891Y-63913667D01*
X251738891Y-77913667D02*
X250738891Y-77913667D01*
X251738891Y-76913667D02*
X251738891Y-77913667D01*
X237738891Y-77913667D02*
X237738891Y-76913667D01*
X238738891Y-77913667D02*
X237738891Y-77913667D01*
X237738891Y-63913667D02*
X238738891Y-63913667D01*
X237738891Y-64913667D02*
X237738891Y-63913667D01*
X232238892Y-67413532D02*
X232238892Y-68413532D01*
X231238892Y-67413532D02*
X232238892Y-67413532D01*
X232238892Y-81413532D02*
X231238892Y-81413532D01*
X232238892Y-80413532D02*
X232238892Y-81413532D01*
X218238892Y-81413532D02*
X218238892Y-80413532D01*
X219238892Y-81413532D02*
X218238892Y-81413532D01*
X218238892Y-67413532D02*
X219238892Y-67413532D01*
X218238892Y-68413532D02*
X218238892Y-67413532D01*
X212738891Y-67413534D02*
X212738891Y-68413534D01*
X211738891Y-67413534D02*
X212738891Y-67413534D01*
X212738891Y-81413534D02*
X211738891Y-81413534D01*
X212738891Y-80413534D02*
X212738891Y-81413534D01*
X198738891Y-81413534D02*
X198738891Y-80413534D01*
X199738891Y-81413534D02*
X198738891Y-81413534D01*
X198738891Y-67413534D02*
X199738891Y-67413534D01*
X198738891Y-68413534D02*
X198738891Y-67413534D01*
X296238891Y-58413665D02*
X296238891Y-57413665D01*
X297238891Y-58413665D02*
X296238891Y-58413665D01*
X296238891Y-44413665D02*
X297238891Y-44413665D01*
X296238891Y-45413665D02*
X296238891Y-44413665D01*
X310238891Y-44413665D02*
X310238891Y-45413665D01*
X309238891Y-44413665D02*
X310238891Y-44413665D01*
X310238891Y-58413665D02*
X309238891Y-58413665D01*
X310238891Y-57413665D02*
X310238891Y-58413665D01*
X276738891Y-58413667D02*
X276738891Y-57413667D01*
X277738891Y-58413667D02*
X276738891Y-58413667D01*
X276738891Y-44413667D02*
X277738891Y-44413667D01*
X276738891Y-45413667D02*
X276738891Y-44413667D01*
X290738891Y-44413667D02*
X290738891Y-45413667D01*
X289738891Y-44413667D02*
X290738891Y-44413667D01*
X290738891Y-58413667D02*
X289738891Y-58413667D01*
X290738891Y-57413667D02*
X290738891Y-58413667D01*
X257238893Y-54913666D02*
X257238893Y-53913666D01*
X258238893Y-54913666D02*
X257238893Y-54913666D01*
X257238893Y-40913666D02*
X258238893Y-40913666D01*
X257238893Y-41913666D02*
X257238893Y-40913666D01*
X271238893Y-40913666D02*
X271238893Y-41913666D01*
X270238893Y-40913666D02*
X271238893Y-40913666D01*
X271238893Y-54913666D02*
X270238893Y-54913666D01*
X271238893Y-53913666D02*
X271238893Y-54913666D01*
X237738891Y-58413667D02*
X237738891Y-57413667D01*
X238738891Y-58413667D02*
X237738891Y-58413667D01*
X237738891Y-44413667D02*
X238738891Y-44413667D01*
X237738891Y-45413667D02*
X237738891Y-44413667D01*
X251738891Y-44413667D02*
X251738891Y-45413667D01*
X250738891Y-44413667D02*
X251738891Y-44413667D01*
X251738891Y-58413667D02*
X250738891Y-58413667D01*
X251738891Y-57413667D02*
X251738891Y-58413667D01*
X198738890Y-61913666D02*
X198738890Y-60913666D01*
X199738890Y-61913666D02*
X198738890Y-61913666D01*
X198738890Y-47913666D02*
X199738890Y-47913666D01*
X198738890Y-48913666D02*
X198738890Y-47913666D01*
X212738890Y-47913666D02*
X212738890Y-48913666D01*
X211738890Y-47913666D02*
X212738890Y-47913666D01*
X212738890Y-61913666D02*
X211738890Y-61913666D01*
X212738890Y-60913666D02*
X212738890Y-61913666D01*
D12*
X323722190Y-85121760D02*
X322723148Y-88850234D01*
X322723148Y-88850234D02*
X322959800Y-88913645D01*
X323722190Y-85121760D02*
X324721232Y-81393287D01*
X324721232Y-81393287D02*
X324957883Y-81456697D01*
X341224766Y-89811562D02*
X340225724Y-93540035D01*
X340225724Y-93540035D02*
X339989073Y-93476625D01*
X341224766Y-89811562D02*
X342223808Y-86083088D01*
X342223808Y-86083088D02*
X341987156Y-86019677D01*
X341987156Y-86019677D02*
X342456912Y-84266522D01*
X323283735Y-80904581D02*
X323849420Y-81884377D01*
X323849420Y-81884377D02*
X321804750Y-89515191D01*
X321804750Y-89515191D02*
X316579091Y-88114980D01*
X316579091Y-88114980D02*
X318830816Y-79711425D01*
X318830816Y-79711425D02*
X323283735Y-80904581D01*
X265138891Y-36853534D02*
X265138891Y-35353534D01*
X263888891Y-32853534D02*
X259388891Y-32853534D01*
X258138891Y-35353534D02*
X258138891Y-36853534D01*
X259388891Y-39353534D02*
X263888891Y-39353534D01*
X242078892Y-41002282D02*
X242078892Y-41524786D01*
X243498892Y-41002282D02*
X243498892Y-41524786D01*
X238178892Y-41002280D02*
X238178892Y-41524784D01*
X239598892Y-41002280D02*
X239598892Y-41524784D01*
X230503715Y-37143368D02*
X230503715Y-37665872D01*
X231923715Y-37143368D02*
X231923715Y-37665872D01*
X249184963Y-34994620D02*
X249707467Y-34994620D01*
X249184963Y-33574620D02*
X249707467Y-33574620D01*
X249707467Y-38504620D02*
X249184963Y-38504620D01*
X249707467Y-37084620D02*
X249184963Y-37084620D01*
X345122276Y-88646122D02*
X345862499Y-85883574D01*
X343267699Y-88149190D02*
X345122276Y-88646122D01*
X344007921Y-85386642D02*
X343267699Y-88149190D01*
X243748891Y-39223532D02*
X243748891Y-36363532D01*
X241828891Y-39223532D02*
X243748891Y-39223532D01*
X241828891Y-36363532D02*
X241828891Y-39223532D01*
X239848892Y-39223533D02*
X239848892Y-36363533D01*
X237928892Y-39223533D02*
X239848892Y-39223533D01*
X237928892Y-36363533D02*
X237928892Y-39223533D01*
X317441492Y-77626454D02*
X316936791Y-77491220D01*
X317809015Y-76254840D02*
X317304314Y-76119606D01*
X219318891Y-37624786D02*
X219318891Y-37102282D01*
X217898891Y-37624786D02*
X217898891Y-37102282D01*
X217898891Y-41782282D02*
X217898891Y-42304786D01*
X219318891Y-41782282D02*
X219318891Y-42304786D01*
X225500143Y-41723534D02*
X224977639Y-41723534D01*
X225500143Y-43143534D02*
X224977639Y-43143534D01*
X225102463Y-40844620D02*
X225624967Y-40844620D01*
X225102463Y-39424620D02*
X225624967Y-39424620D01*
D11*
X224024605Y-50285914D02*
X224024605Y-49285914D01*
X224596033Y-50285914D02*
X224167462Y-49714486D01*
X224596033Y-49285914D02*
X224024605Y-49857343D01*
X225215081Y-49285914D02*
X225310319Y-49285914D01*
X225405557Y-49333534D01*
X225453176Y-49381153D01*
X225500795Y-49476391D01*
X225548414Y-49666867D01*
X225548414Y-49904962D01*
X225500795Y-50095438D01*
X225453176Y-50190676D01*
X225405557Y-50238295D01*
X225310319Y-50285914D01*
X225215081Y-50285914D01*
X225119843Y-50238295D01*
X225072224Y-50190676D01*
X225024605Y-50095438D01*
X224976986Y-49904962D01*
X224976986Y-49666867D01*
X225024605Y-49476391D01*
X225072224Y-49381153D01*
X225119843Y-49333534D01*
X225215081Y-49285914D01*
X226500795Y-50285914D02*
X225929367Y-50285914D01*
X226215081Y-50285914D02*
X226215081Y-49285914D01*
X226119843Y-49428772D01*
X226024605Y-49524010D01*
X225929367Y-49571629D01*
X350911867Y-93669083D02*
X350726997Y-94359030D01*
X350644026Y-94484695D01*
X350527384Y-94552038D01*
X350377070Y-94561061D01*
X350285077Y-94536411D01*
X351301186Y-93871998D02*
X351359507Y-93838327D01*
X351463825Y-93816980D01*
X351693807Y-93878603D01*
X351773476Y-93949249D01*
X351807147Y-94007570D01*
X351828494Y-94111888D01*
X351803845Y-94203881D01*
X351720874Y-94329546D01*
X351021020Y-94733607D01*
X351618974Y-94893828D01*
X207251272Y-40200453D02*
X207965558Y-40200453D01*
X208108415Y-40248072D01*
X208203653Y-40343310D01*
X208251272Y-40486167D01*
X208251272Y-40581405D01*
X208251272Y-39200453D02*
X208251272Y-39771881D01*
X208251272Y-39486167D02*
X207251272Y-39486167D01*
X207394130Y-39581405D01*
X207489368Y-39676643D01*
X207536987Y-39771881D01*
X197792643Y-44949500D02*
X197983119Y-44949500D01*
X198078357Y-44997120D01*
X198173595Y-45092358D01*
X198221215Y-45282834D01*
X198221215Y-45616167D01*
X198173595Y-45806643D01*
X198078357Y-45901881D01*
X197983119Y-45949500D01*
X197792643Y-45949500D01*
X197697405Y-45901881D01*
X197602167Y-45806643D01*
X197554548Y-45616167D01*
X197554548Y-45282834D01*
X197602167Y-45092358D01*
X197697405Y-44997120D01*
X197792643Y-44949500D01*
X199125976Y-45949500D02*
X198649786Y-45949500D01*
X198649786Y-44949500D01*
X199459310Y-45425691D02*
X199792643Y-45425691D01*
X199935500Y-45949500D02*
X199459310Y-45949500D01*
X199459310Y-44949500D01*
X199935500Y-44949500D01*
X200364072Y-45949500D02*
X200364072Y-44949500D01*
X200602167Y-44949500D01*
X200745024Y-44997120D01*
X200840262Y-45092358D01*
X200887881Y-45187596D01*
X200935500Y-45378072D01*
X200935500Y-45520929D01*
X200887881Y-45711405D01*
X200840262Y-45806643D01*
X200745024Y-45901881D01*
X200602167Y-45949500D01*
X200364072Y-45949500D01*
X201887881Y-45949500D02*
X201316453Y-45949500D01*
X201602167Y-45949500D02*
X201602167Y-44949500D01*
X201506929Y-45092358D01*
X201411691Y-45187596D01*
X201316453Y-45235215D01*
X339269322Y-129646902D02*
X339528141Y-128680976D01*
X339821279Y-129794798D02*
X339555208Y-129131918D01*
X340080098Y-128828872D02*
X339380244Y-129232933D01*
X340402074Y-128915145D02*
X341000028Y-129075367D01*
X340579455Y-129357066D01*
X340717444Y-129394040D01*
X340797112Y-129464686D01*
X340830784Y-129523007D01*
X340852131Y-129627324D01*
X340790508Y-129857307D01*
X340719862Y-129936975D01*
X340661541Y-129970647D01*
X340557223Y-129991994D01*
X340281244Y-129918045D01*
X340201576Y-129847400D01*
X340167904Y-129789078D01*
X341322003Y-129161640D02*
X341965954Y-129334186D01*
X341293166Y-130189189D01*
X320433769Y-124599930D02*
X320692588Y-123634004D01*
X320985726Y-124747826D02*
X320719655Y-124084946D01*
X321244545Y-123781900D02*
X320544691Y-124185961D01*
X321566521Y-123868173D02*
X322164475Y-124028395D01*
X321743902Y-124310094D01*
X321881891Y-124347068D01*
X321961559Y-124417714D01*
X321995231Y-124476035D01*
X322016578Y-124580352D01*
X321954955Y-124810335D01*
X321884309Y-124890003D01*
X321825988Y-124923675D01*
X321721670Y-124945022D01*
X321445691Y-124871073D01*
X321366023Y-124800428D01*
X321332351Y-124742106D01*
X322992411Y-124250240D02*
X322808425Y-124200941D01*
X322704108Y-124222288D01*
X322645786Y-124255960D01*
X322516819Y-124369300D01*
X322421524Y-124540961D01*
X322322926Y-124908932D01*
X322344273Y-125013250D01*
X322377945Y-125071571D01*
X322457613Y-125142217D01*
X322641599Y-125191516D01*
X322745917Y-125170169D01*
X322804238Y-125136497D01*
X322874884Y-125056829D01*
X322936508Y-124826847D01*
X322915161Y-124722529D01*
X322881489Y-124664208D01*
X322801821Y-124593562D01*
X322617835Y-124544263D01*
X322513517Y-124565610D01*
X322455196Y-124599282D01*
X322384550Y-124678950D01*
X302024607Y-115446047D02*
X302024607Y-114446047D01*
X302596035Y-115446047D02*
X302167464Y-114874619D01*
X302596035Y-114446047D02*
X302024607Y-115017476D01*
X302929369Y-114446047D02*
X303548416Y-114446047D01*
X303215083Y-114827000D01*
X303357940Y-114827000D01*
X303453178Y-114874619D01*
X303500797Y-114922238D01*
X303548416Y-115017476D01*
X303548416Y-115255571D01*
X303500797Y-115350809D01*
X303453178Y-115398428D01*
X303357940Y-115446047D01*
X303072226Y-115446047D01*
X302976988Y-115398428D01*
X302929369Y-115350809D01*
X304453178Y-114446047D02*
X303976988Y-114446047D01*
X303929369Y-114922238D01*
X303976988Y-114874619D01*
X304072226Y-114827000D01*
X304310321Y-114827000D01*
X304405559Y-114874619D01*
X304453178Y-114922238D01*
X304500797Y-115017476D01*
X304500797Y-115255571D01*
X304453178Y-115350809D01*
X304405559Y-115398428D01*
X304310321Y-115446047D01*
X304072226Y-115446047D01*
X303976988Y-115398428D01*
X303929369Y-115350809D01*
X282524605Y-115446047D02*
X282524605Y-114446047D01*
X283096033Y-115446047D02*
X282667462Y-114874619D01*
X283096033Y-114446047D02*
X282524605Y-115017476D01*
X283429367Y-114446047D02*
X284048414Y-114446047D01*
X283715081Y-114827000D01*
X283857938Y-114827000D01*
X283953176Y-114874619D01*
X284000795Y-114922238D01*
X284048414Y-115017476D01*
X284048414Y-115255571D01*
X284000795Y-115350809D01*
X283953176Y-115398428D01*
X283857938Y-115446047D01*
X283572224Y-115446047D01*
X283476986Y-115398428D01*
X283429367Y-115350809D01*
X284905557Y-114779381D02*
X284905557Y-115446047D01*
X284667462Y-114398428D02*
X284429367Y-115112714D01*
X285048414Y-115112714D01*
X263024605Y-111946047D02*
X263024605Y-110946047D01*
X263596033Y-111946047D02*
X263167462Y-111374619D01*
X263596033Y-110946047D02*
X263024605Y-111517476D01*
X263929367Y-110946047D02*
X264548414Y-110946047D01*
X264215081Y-111327000D01*
X264357938Y-111327000D01*
X264453176Y-111374619D01*
X264500795Y-111422238D01*
X264548414Y-111517476D01*
X264548414Y-111755571D01*
X264500795Y-111850809D01*
X264453176Y-111898428D01*
X264357938Y-111946047D01*
X264072224Y-111946047D01*
X263976986Y-111898428D01*
X263929367Y-111850809D01*
X264881748Y-110946047D02*
X265500795Y-110946047D01*
X265167462Y-111327000D01*
X265310319Y-111327000D01*
X265405557Y-111374619D01*
X265453176Y-111422238D01*
X265500795Y-111517476D01*
X265500795Y-111755571D01*
X265453176Y-111850809D01*
X265405557Y-111898428D01*
X265310319Y-111946047D01*
X265024605Y-111946047D01*
X264929367Y-111898428D01*
X264881748Y-111850809D01*
X243524605Y-115446045D02*
X243524605Y-114446045D01*
X244096033Y-115446045D02*
X243667462Y-114874617D01*
X244096033Y-114446045D02*
X243524605Y-115017474D01*
X244429367Y-114446045D02*
X245048414Y-114446045D01*
X244715081Y-114826998D01*
X244857938Y-114826998D01*
X244953176Y-114874617D01*
X245000795Y-114922236D01*
X245048414Y-115017474D01*
X245048414Y-115255569D01*
X245000795Y-115350807D01*
X244953176Y-115398426D01*
X244857938Y-115446045D01*
X244572224Y-115446045D01*
X244476986Y-115398426D01*
X244429367Y-115350807D01*
X245429367Y-114541284D02*
X245476986Y-114493665D01*
X245572224Y-114446045D01*
X245810319Y-114446045D01*
X245905557Y-114493665D01*
X245953176Y-114541284D01*
X246000795Y-114636522D01*
X246000795Y-114731760D01*
X245953176Y-114874617D01*
X245381748Y-115446045D01*
X246000795Y-115446045D01*
X224024605Y-118945914D02*
X224024605Y-117945914D01*
X224596033Y-118945914D02*
X224167462Y-118374486D01*
X224596033Y-117945914D02*
X224024605Y-118517343D01*
X224929367Y-117945914D02*
X225548414Y-117945914D01*
X225215081Y-118326867D01*
X225357938Y-118326867D01*
X225453176Y-118374486D01*
X225500795Y-118422105D01*
X225548414Y-118517343D01*
X225548414Y-118755438D01*
X225500795Y-118850676D01*
X225453176Y-118898295D01*
X225357938Y-118945914D01*
X225072224Y-118945914D01*
X224976986Y-118898295D01*
X224929367Y-118850676D01*
X226500795Y-118945914D02*
X225929367Y-118945914D01*
X226215081Y-118945914D02*
X226215081Y-117945914D01*
X226119843Y-118088772D01*
X226024605Y-118184010D01*
X225929367Y-118231629D01*
X204524605Y-118945914D02*
X204524605Y-117945914D01*
X205096033Y-118945914D02*
X204667462Y-118374486D01*
X205096033Y-117945914D02*
X204524605Y-118517343D01*
X205429367Y-117945914D02*
X206048414Y-117945914D01*
X205715081Y-118326867D01*
X205857938Y-118326867D01*
X205953176Y-118374486D01*
X206000795Y-118422105D01*
X206048414Y-118517343D01*
X206048414Y-118755438D01*
X206000795Y-118850676D01*
X205953176Y-118898295D01*
X205857938Y-118945914D01*
X205572224Y-118945914D01*
X205476986Y-118898295D01*
X205429367Y-118850676D01*
X206667462Y-117945914D02*
X206762700Y-117945914D01*
X206857938Y-117993534D01*
X206905557Y-118041153D01*
X206953176Y-118136391D01*
X207000795Y-118326867D01*
X207000795Y-118564962D01*
X206953176Y-118755438D01*
X206905557Y-118850676D01*
X206857938Y-118898295D01*
X206762700Y-118945914D01*
X206667462Y-118945914D01*
X206572224Y-118898295D01*
X206524605Y-118850676D01*
X206476986Y-118755438D01*
X206429367Y-118564962D01*
X206429367Y-118326867D01*
X206476986Y-118136391D01*
X206524605Y-118041153D01*
X206572224Y-117993534D01*
X206667462Y-117945914D01*
X346945896Y-100997543D02*
X347204715Y-100031617D01*
X347497853Y-101145439D02*
X347231782Y-100482559D01*
X347756672Y-100179513D02*
X347056818Y-100583574D01*
X348099995Y-100370104D02*
X348158316Y-100336432D01*
X348262634Y-100315085D01*
X348492616Y-100376709D01*
X348572284Y-100447355D01*
X348605956Y-100505676D01*
X348627303Y-100609994D01*
X348602653Y-100701987D01*
X348519683Y-100827651D01*
X347819829Y-101231712D01*
X348417783Y-101391934D01*
X348998577Y-100512281D02*
X349642528Y-100684827D01*
X348969740Y-101539830D01*
X328110342Y-95950572D02*
X328369161Y-94984646D01*
X328662299Y-96098468D02*
X328396228Y-95435588D01*
X328921118Y-95132542D02*
X328221264Y-95536603D01*
X329264441Y-95323133D02*
X329322762Y-95289461D01*
X329427080Y-95268114D01*
X329657062Y-95329738D01*
X329736730Y-95400384D01*
X329770402Y-95458705D01*
X329791749Y-95563023D01*
X329767099Y-95655016D01*
X329684129Y-95780680D01*
X328984275Y-96184741D01*
X329582229Y-96344963D01*
X330668984Y-95600882D02*
X330484998Y-95551583D01*
X330380681Y-95572930D01*
X330322359Y-95606602D01*
X330193392Y-95719942D01*
X330098097Y-95891603D01*
X329999499Y-96259574D01*
X330020846Y-96363892D01*
X330054518Y-96422213D01*
X330134186Y-96492859D01*
X330318172Y-96542158D01*
X330422490Y-96520811D01*
X330480811Y-96487139D01*
X330551457Y-96407471D01*
X330613081Y-96177489D01*
X330591734Y-96073171D01*
X330558062Y-96014850D01*
X330478394Y-95944204D01*
X330294408Y-95894905D01*
X330190090Y-95916252D01*
X330131769Y-95949924D01*
X330061123Y-96029592D01*
X302024605Y-95946047D02*
X302024605Y-94946047D01*
X302596033Y-95946047D02*
X302167462Y-95374619D01*
X302596033Y-94946047D02*
X302024605Y-95517476D01*
X302976986Y-95041286D02*
X303024605Y-94993667D01*
X303119843Y-94946047D01*
X303357938Y-94946047D01*
X303453176Y-94993667D01*
X303500795Y-95041286D01*
X303548414Y-95136524D01*
X303548414Y-95231762D01*
X303500795Y-95374619D01*
X302929367Y-95946047D01*
X303548414Y-95946047D01*
X304453176Y-94946047D02*
X303976986Y-94946047D01*
X303929367Y-95422238D01*
X303976986Y-95374619D01*
X304072224Y-95327000D01*
X304310319Y-95327000D01*
X304405557Y-95374619D01*
X304453176Y-95422238D01*
X304500795Y-95517476D01*
X304500795Y-95755571D01*
X304453176Y-95850809D01*
X304405557Y-95898428D01*
X304310319Y-95946047D01*
X304072224Y-95946047D01*
X303976986Y-95898428D01*
X303929367Y-95850809D01*
X282524607Y-95946047D02*
X282524607Y-94946047D01*
X283096035Y-95946047D02*
X282667464Y-95374619D01*
X283096035Y-94946047D02*
X282524607Y-95517476D01*
X283476988Y-95041286D02*
X283524607Y-94993667D01*
X283619845Y-94946047D01*
X283857940Y-94946047D01*
X283953178Y-94993667D01*
X284000797Y-95041286D01*
X284048416Y-95136524D01*
X284048416Y-95231762D01*
X284000797Y-95374619D01*
X283429369Y-95946047D01*
X284048416Y-95946047D01*
X284905559Y-95279381D02*
X284905559Y-95946047D01*
X284667464Y-94898428D02*
X284429369Y-95612714D01*
X285048416Y-95612714D01*
X263024603Y-92446047D02*
X263024603Y-91446047D01*
X263596031Y-92446047D02*
X263167460Y-91874619D01*
X263596031Y-91446047D02*
X263024603Y-92017476D01*
X263976984Y-91541286D02*
X264024603Y-91493667D01*
X264119841Y-91446047D01*
X264357936Y-91446047D01*
X264453174Y-91493667D01*
X264500793Y-91541286D01*
X264548412Y-91636524D01*
X264548412Y-91731762D01*
X264500793Y-91874619D01*
X263929365Y-92446047D01*
X264548412Y-92446047D01*
X264881746Y-91446047D02*
X265500793Y-91446047D01*
X265167460Y-91827000D01*
X265310317Y-91827000D01*
X265405555Y-91874619D01*
X265453174Y-91922238D01*
X265500793Y-92017476D01*
X265500793Y-92255571D01*
X265453174Y-92350809D01*
X265405555Y-92398428D01*
X265310317Y-92446047D01*
X265024603Y-92446047D01*
X264929365Y-92398428D01*
X264881746Y-92350809D01*
X243524605Y-95946047D02*
X243524605Y-94946047D01*
X244096033Y-95946047D02*
X243667462Y-95374619D01*
X244096033Y-94946047D02*
X243524605Y-95517476D01*
X244476986Y-95041286D02*
X244524605Y-94993667D01*
X244619843Y-94946047D01*
X244857938Y-94946047D01*
X244953176Y-94993667D01*
X245000795Y-95041286D01*
X245048414Y-95136524D01*
X245048414Y-95231762D01*
X245000795Y-95374619D01*
X244429367Y-95946047D01*
X245048414Y-95946047D01*
X245429367Y-95041286D02*
X245476986Y-94993667D01*
X245572224Y-94946047D01*
X245810319Y-94946047D01*
X245905557Y-94993667D01*
X245953176Y-95041286D01*
X246000795Y-95136524D01*
X246000795Y-95231762D01*
X245953176Y-95374619D01*
X245381748Y-95946047D01*
X246000795Y-95946047D01*
X224024605Y-99445914D02*
X224024605Y-98445914D01*
X224596033Y-99445914D02*
X224167462Y-98874486D01*
X224596033Y-98445914D02*
X224024605Y-99017343D01*
X224976986Y-98541153D02*
X225024605Y-98493534D01*
X225119843Y-98445914D01*
X225357938Y-98445914D01*
X225453176Y-98493534D01*
X225500795Y-98541153D01*
X225548414Y-98636391D01*
X225548414Y-98731629D01*
X225500795Y-98874486D01*
X224929367Y-99445914D01*
X225548414Y-99445914D01*
X226500795Y-99445914D02*
X225929367Y-99445914D01*
X226215081Y-99445914D02*
X226215081Y-98445914D01*
X226119843Y-98588772D01*
X226024605Y-98684010D01*
X225929367Y-98731629D01*
X204524605Y-99445912D02*
X204524605Y-98445912D01*
X205096033Y-99445912D02*
X204667462Y-98874484D01*
X205096033Y-98445912D02*
X204524605Y-99017341D01*
X205476986Y-98541151D02*
X205524605Y-98493532D01*
X205619843Y-98445912D01*
X205857938Y-98445912D01*
X205953176Y-98493532D01*
X206000795Y-98541151D01*
X206048414Y-98636389D01*
X206048414Y-98731627D01*
X206000795Y-98874484D01*
X205429367Y-99445912D01*
X206048414Y-99445912D01*
X206667462Y-98445912D02*
X206762700Y-98445912D01*
X206857938Y-98493532D01*
X206905557Y-98541151D01*
X206953176Y-98636389D01*
X207000795Y-98826865D01*
X207000795Y-99064960D01*
X206953176Y-99255436D01*
X206905557Y-99350674D01*
X206857938Y-99398293D01*
X206762700Y-99445912D01*
X206667462Y-99445912D01*
X206572224Y-99398293D01*
X206524605Y-99350674D01*
X206476986Y-99255436D01*
X206429367Y-99064960D01*
X206429367Y-98826865D01*
X206476986Y-98636389D01*
X206524605Y-98541151D01*
X206572224Y-98493532D01*
X206667462Y-98445912D01*
X302024605Y-76446047D02*
X302024605Y-75446047D01*
X302596033Y-76446047D02*
X302167462Y-75874619D01*
X302596033Y-75446047D02*
X302024605Y-76017476D01*
X303548414Y-76446047D02*
X302976986Y-76446047D01*
X303262700Y-76446047D02*
X303262700Y-75446047D01*
X303167462Y-75588905D01*
X303072224Y-75684143D01*
X302976986Y-75731762D01*
X304453176Y-75446047D02*
X303976986Y-75446047D01*
X303929367Y-75922238D01*
X303976986Y-75874619D01*
X304072224Y-75827000D01*
X304310319Y-75827000D01*
X304405557Y-75874619D01*
X304453176Y-75922238D01*
X304500795Y-76017476D01*
X304500795Y-76255571D01*
X304453176Y-76350809D01*
X304405557Y-76398428D01*
X304310319Y-76446047D01*
X304072224Y-76446047D01*
X303976986Y-76398428D01*
X303929367Y-76350809D01*
X282524605Y-76446045D02*
X282524605Y-75446045D01*
X283096033Y-76446045D02*
X282667462Y-75874617D01*
X283096033Y-75446045D02*
X282524605Y-76017474D01*
X284048414Y-76446045D02*
X283476986Y-76446045D01*
X283762700Y-76446045D02*
X283762700Y-75446045D01*
X283667462Y-75588903D01*
X283572224Y-75684141D01*
X283476986Y-75731760D01*
X284905557Y-75779379D02*
X284905557Y-76446045D01*
X284667462Y-75398426D02*
X284429367Y-76112712D01*
X285048414Y-76112712D01*
X263024606Y-72946045D02*
X263024606Y-71946045D01*
X263596034Y-72946045D02*
X263167463Y-72374617D01*
X263596034Y-71946045D02*
X263024606Y-72517474D01*
X264548415Y-72946045D02*
X263976987Y-72946045D01*
X264262701Y-72946045D02*
X264262701Y-71946045D01*
X264167463Y-72088903D01*
X264072225Y-72184141D01*
X263976987Y-72231760D01*
X264881749Y-71946045D02*
X265500796Y-71946045D01*
X265167463Y-72326998D01*
X265310320Y-72326998D01*
X265405558Y-72374617D01*
X265453177Y-72422236D01*
X265500796Y-72517474D01*
X265500796Y-72755569D01*
X265453177Y-72850807D01*
X265405558Y-72898426D01*
X265310320Y-72946045D01*
X265024606Y-72946045D01*
X264929368Y-72898426D01*
X264881749Y-72850807D01*
X243524605Y-76446047D02*
X243524605Y-75446047D01*
X244096033Y-76446047D02*
X243667462Y-75874619D01*
X244096033Y-75446047D02*
X243524605Y-76017476D01*
X245048414Y-76446047D02*
X244476986Y-76446047D01*
X244762700Y-76446047D02*
X244762700Y-75446047D01*
X244667462Y-75588905D01*
X244572224Y-75684143D01*
X244476986Y-75731762D01*
X245429367Y-75541286D02*
X245476986Y-75493667D01*
X245572224Y-75446047D01*
X245810319Y-75446047D01*
X245905557Y-75493667D01*
X245953176Y-75541286D01*
X246000795Y-75636524D01*
X246000795Y-75731762D01*
X245953176Y-75874619D01*
X245381748Y-76446047D01*
X246000795Y-76446047D01*
X224024606Y-79945912D02*
X224024606Y-78945912D01*
X224596034Y-79945912D02*
X224167463Y-79374484D01*
X224596034Y-78945912D02*
X224024606Y-79517341D01*
X225548415Y-79945912D02*
X224976987Y-79945912D01*
X225262701Y-79945912D02*
X225262701Y-78945912D01*
X225167463Y-79088770D01*
X225072225Y-79184008D01*
X224976987Y-79231627D01*
X226500796Y-79945912D02*
X225929368Y-79945912D01*
X226215082Y-79945912D02*
X226215082Y-78945912D01*
X226119844Y-79088770D01*
X226024606Y-79184008D01*
X225929368Y-79231627D01*
X204524605Y-79945914D02*
X204524605Y-78945914D01*
X205096033Y-79945914D02*
X204667462Y-79374486D01*
X205096033Y-78945914D02*
X204524605Y-79517343D01*
X206048414Y-79945914D02*
X205476986Y-79945914D01*
X205762700Y-79945914D02*
X205762700Y-78945914D01*
X205667462Y-79088772D01*
X205572224Y-79184010D01*
X205476986Y-79231629D01*
X206667462Y-78945914D02*
X206762700Y-78945914D01*
X206857938Y-78993534D01*
X206905557Y-79041153D01*
X206953176Y-79136391D01*
X207000795Y-79326867D01*
X207000795Y-79564962D01*
X206953176Y-79755438D01*
X206905557Y-79850676D01*
X206857938Y-79898295D01*
X206762700Y-79945914D01*
X206667462Y-79945914D01*
X206572224Y-79898295D01*
X206524605Y-79850676D01*
X206476986Y-79755438D01*
X206429367Y-79564962D01*
X206429367Y-79326867D01*
X206476986Y-79136391D01*
X206524605Y-79041153D01*
X206572224Y-78993534D01*
X206667462Y-78945914D01*
X302024605Y-46786045D02*
X302024605Y-45786045D01*
X302596033Y-46786045D02*
X302167462Y-46214617D01*
X302596033Y-45786045D02*
X302024605Y-46357474D01*
X303215081Y-45786045D02*
X303310319Y-45786045D01*
X303405557Y-45833665D01*
X303453176Y-45881284D01*
X303500795Y-45976522D01*
X303548414Y-46166998D01*
X303548414Y-46405093D01*
X303500795Y-46595569D01*
X303453176Y-46690807D01*
X303405557Y-46738426D01*
X303310319Y-46786045D01*
X303215081Y-46786045D01*
X303119843Y-46738426D01*
X303072224Y-46690807D01*
X303024605Y-46595569D01*
X302976986Y-46405093D01*
X302976986Y-46166998D01*
X303024605Y-45976522D01*
X303072224Y-45881284D01*
X303119843Y-45833665D01*
X303215081Y-45786045D01*
X304453176Y-45786045D02*
X303976986Y-45786045D01*
X303929367Y-46262236D01*
X303976986Y-46214617D01*
X304072224Y-46166998D01*
X304310319Y-46166998D01*
X304405557Y-46214617D01*
X304453176Y-46262236D01*
X304500795Y-46357474D01*
X304500795Y-46595569D01*
X304453176Y-46690807D01*
X304405557Y-46738426D01*
X304310319Y-46786045D01*
X304072224Y-46786045D01*
X303976986Y-46738426D01*
X303929367Y-46690807D01*
X282524605Y-46786047D02*
X282524605Y-45786047D01*
X283096033Y-46786047D02*
X282667462Y-46214619D01*
X283096033Y-45786047D02*
X282524605Y-46357476D01*
X283715081Y-45786047D02*
X283810319Y-45786047D01*
X283905557Y-45833667D01*
X283953176Y-45881286D01*
X284000795Y-45976524D01*
X284048414Y-46167000D01*
X284048414Y-46405095D01*
X284000795Y-46595571D01*
X283953176Y-46690809D01*
X283905557Y-46738428D01*
X283810319Y-46786047D01*
X283715081Y-46786047D01*
X283619843Y-46738428D01*
X283572224Y-46690809D01*
X283524605Y-46595571D01*
X283476986Y-46405095D01*
X283476986Y-46167000D01*
X283524605Y-45976524D01*
X283572224Y-45881286D01*
X283619843Y-45833667D01*
X283715081Y-45786047D01*
X284905557Y-46119381D02*
X284905557Y-46786047D01*
X284667462Y-45738428D02*
X284429367Y-46452714D01*
X285048414Y-46452714D01*
X263024607Y-43286046D02*
X263024607Y-42286046D01*
X263596035Y-43286046D02*
X263167464Y-42714618D01*
X263596035Y-42286046D02*
X263024607Y-42857475D01*
X264215083Y-42286046D02*
X264310321Y-42286046D01*
X264405559Y-42333666D01*
X264453178Y-42381285D01*
X264500797Y-42476523D01*
X264548416Y-42666999D01*
X264548416Y-42905094D01*
X264500797Y-43095570D01*
X264453178Y-43190808D01*
X264405559Y-43238427D01*
X264310321Y-43286046D01*
X264215083Y-43286046D01*
X264119845Y-43238427D01*
X264072226Y-43190808D01*
X264024607Y-43095570D01*
X263976988Y-42905094D01*
X263976988Y-42666999D01*
X264024607Y-42476523D01*
X264072226Y-42381285D01*
X264119845Y-42333666D01*
X264215083Y-42286046D01*
X264881750Y-42286046D02*
X265500797Y-42286046D01*
X265167464Y-42666999D01*
X265310321Y-42666999D01*
X265405559Y-42714618D01*
X265453178Y-42762237D01*
X265500797Y-42857475D01*
X265500797Y-43095570D01*
X265453178Y-43190808D01*
X265405559Y-43238427D01*
X265310321Y-43286046D01*
X265024607Y-43286046D01*
X264929369Y-43238427D01*
X264881750Y-43190808D01*
X243524605Y-46786047D02*
X243524605Y-45786047D01*
X244096033Y-46786047D02*
X243667462Y-46214619D01*
X244096033Y-45786047D02*
X243524605Y-46357476D01*
X244715081Y-45786047D02*
X244810319Y-45786047D01*
X244905557Y-45833667D01*
X244953176Y-45881286D01*
X245000795Y-45976524D01*
X245048414Y-46167000D01*
X245048414Y-46405095D01*
X245000795Y-46595571D01*
X244953176Y-46690809D01*
X244905557Y-46738428D01*
X244810319Y-46786047D01*
X244715081Y-46786047D01*
X244619843Y-46738428D01*
X244572224Y-46690809D01*
X244524605Y-46595571D01*
X244476986Y-46405095D01*
X244476986Y-46167000D01*
X244524605Y-45976524D01*
X244572224Y-45881286D01*
X244619843Y-45833667D01*
X244715081Y-45786047D01*
X245429367Y-45881286D02*
X245476986Y-45833667D01*
X245572224Y-45786047D01*
X245810319Y-45786047D01*
X245905557Y-45833667D01*
X245953176Y-45881286D01*
X246000795Y-45976524D01*
X246000795Y-46071762D01*
X245953176Y-46214619D01*
X245381748Y-46786047D01*
X246000795Y-46786047D01*
X204524604Y-50286046D02*
X204524604Y-49286046D01*
X205096032Y-50286046D02*
X204667461Y-49714618D01*
X205096032Y-49286046D02*
X204524604Y-49857475D01*
X205715080Y-49286046D02*
X205810318Y-49286046D01*
X205905556Y-49333666D01*
X205953175Y-49381285D01*
X206000794Y-49476523D01*
X206048413Y-49666999D01*
X206048413Y-49905094D01*
X206000794Y-50095570D01*
X205953175Y-50190808D01*
X205905556Y-50238427D01*
X205810318Y-50286046D01*
X205715080Y-50286046D01*
X205619842Y-50238427D01*
X205572223Y-50190808D01*
X205524604Y-50095570D01*
X205476985Y-49905094D01*
X205476985Y-49666999D01*
X205524604Y-49476523D01*
X205572223Y-49381285D01*
X205619842Y-49333666D01*
X205715080Y-49286046D01*
X206667461Y-49286046D02*
X206762699Y-49286046D01*
X206857937Y-49333666D01*
X206905556Y-49381285D01*
X206953175Y-49476523D01*
X207000794Y-49666999D01*
X207000794Y-49905094D01*
X206953175Y-50095570D01*
X206905556Y-50190808D01*
X206857937Y-50238427D01*
X206762699Y-50286046D01*
X206667461Y-50286046D01*
X206572223Y-50238427D01*
X206524604Y-50190808D01*
X206476985Y-50095570D01*
X206429366Y-49905094D01*
X206429366Y-49666999D01*
X206476985Y-49476523D01*
X206524604Y-49381285D01*
X206572223Y-49333666D01*
X206667461Y-49286046D01*
X341309989Y-90623179D02*
X342091929Y-90832699D01*
X342196246Y-90811352D01*
X342254567Y-90777680D01*
X342325213Y-90698012D01*
X342374512Y-90514026D01*
X342353165Y-90409708D01*
X342319493Y-90351387D01*
X342239825Y-90280741D01*
X341457885Y-90071221D01*
X341556483Y-89703249D02*
X341716704Y-89105295D01*
X341998403Y-89525868D01*
X342035377Y-89387879D01*
X342106023Y-89308211D01*
X342164344Y-89274539D01*
X342268662Y-89253192D01*
X342498644Y-89314815D01*
X342578312Y-89385461D01*
X342611984Y-89443783D01*
X342633331Y-89548100D01*
X342559383Y-89824079D01*
X342488737Y-89903747D01*
X342430416Y-89937419D01*
X316201228Y-84299062D02*
X316983168Y-84508582D01*
X317087485Y-84487235D01*
X317145806Y-84453563D01*
X317216452Y-84373895D01*
X317265751Y-84189909D01*
X317244404Y-84085591D01*
X317210732Y-84027270D01*
X317131064Y-83956624D01*
X316349124Y-83747104D01*
X316552040Y-83357785D02*
X316518368Y-83299464D01*
X316497021Y-83195147D01*
X316558644Y-82965164D01*
X316629290Y-82885496D01*
X316687612Y-82851824D01*
X316791929Y-82830477D01*
X316883922Y-82855127D01*
X317009587Y-82938097D01*
X317413648Y-83637951D01*
X317573869Y-83039997D01*
X260300381Y-36639381D02*
X260443238Y-36687000D01*
X260681334Y-36687000D01*
X260776572Y-36639381D01*
X260824191Y-36591762D01*
X260871810Y-36496524D01*
X260871810Y-36401286D01*
X260824191Y-36306048D01*
X260776572Y-36258429D01*
X260681334Y-36210810D01*
X260490857Y-36163191D01*
X260395619Y-36115572D01*
X260348000Y-36067953D01*
X260300381Y-35972715D01*
X260300381Y-35877477D01*
X260348000Y-35782239D01*
X260395619Y-35734620D01*
X260490857Y-35687000D01*
X260728953Y-35687000D01*
X260871810Y-35734620D01*
X261205143Y-35687000D02*
X261443238Y-36687000D01*
X261633715Y-35972715D01*
X261824191Y-36687000D01*
X262062286Y-35687000D01*
X262967048Y-36687000D02*
X262395619Y-36687000D01*
X262681334Y-36687000D02*
X262681334Y-35687000D01*
X262586095Y-35829858D01*
X262490857Y-35925096D01*
X262395619Y-35972715D01*
X241291272Y-42382581D02*
X240815082Y-42715914D01*
X241291272Y-42954010D02*
X240291272Y-42954010D01*
X240291272Y-42573057D01*
X240338892Y-42477819D01*
X240386511Y-42430200D01*
X240481749Y-42382581D01*
X240624606Y-42382581D01*
X240719844Y-42430200D01*
X240767463Y-42477819D01*
X240815082Y-42573057D01*
X240815082Y-42954010D01*
X240624606Y-41525438D02*
X241291272Y-41525438D01*
X240243653Y-41763534D02*
X240957939Y-42001629D01*
X240957939Y-41382581D01*
X240291272Y-40811153D02*
X240291272Y-40715914D01*
X240338892Y-40620676D01*
X240386511Y-40573057D01*
X240481749Y-40525438D01*
X240672225Y-40477819D01*
X240910320Y-40477819D01*
X241100796Y-40525438D01*
X241196034Y-40573057D01*
X241243653Y-40620676D01*
X241291272Y-40715914D01*
X241291272Y-40811153D01*
X241243653Y-40906391D01*
X241196034Y-40954010D01*
X241100796Y-41001629D01*
X240910320Y-41049248D01*
X240672225Y-41049248D01*
X240481749Y-41001629D01*
X240386511Y-40954010D01*
X240338892Y-40906391D01*
X240291272Y-40811153D01*
X240386511Y-40096867D02*
X240338892Y-40049248D01*
X240291272Y-39954010D01*
X240291272Y-39715914D01*
X240338892Y-39620676D01*
X240386511Y-39573057D01*
X240481749Y-39525438D01*
X240576987Y-39525438D01*
X240719844Y-39573057D01*
X241291272Y-40144486D01*
X241291272Y-39525438D01*
X237391272Y-42382579D02*
X236915082Y-42715912D01*
X237391272Y-42954008D02*
X236391272Y-42954008D01*
X236391272Y-42573055D01*
X236438892Y-42477817D01*
X236486511Y-42430198D01*
X236581749Y-42382579D01*
X236724606Y-42382579D01*
X236819844Y-42430198D01*
X236867463Y-42477817D01*
X236915082Y-42573055D01*
X236915082Y-42954008D01*
X236724606Y-41525436D02*
X237391272Y-41525436D01*
X236343653Y-41763532D02*
X237057939Y-42001627D01*
X237057939Y-41382579D01*
X236391272Y-40811151D02*
X236391272Y-40715912D01*
X236438892Y-40620674D01*
X236486511Y-40573055D01*
X236581749Y-40525436D01*
X236772225Y-40477817D01*
X237010320Y-40477817D01*
X237200796Y-40525436D01*
X237296034Y-40573055D01*
X237343653Y-40620674D01*
X237391272Y-40715912D01*
X237391272Y-40811151D01*
X237343653Y-40906389D01*
X237296034Y-40954008D01*
X237200796Y-41001627D01*
X237010320Y-41049246D01*
X236772225Y-41049246D01*
X236581749Y-41001627D01*
X236486511Y-40954008D01*
X236438892Y-40906389D01*
X236391272Y-40811151D01*
X237391272Y-39525436D02*
X237391272Y-40096865D01*
X237391272Y-39811151D02*
X236391272Y-39811151D01*
X236534130Y-39906389D01*
X236629368Y-40001627D01*
X236676987Y-40096865D01*
X229675010Y-38523667D02*
X229198820Y-38857000D01*
X229675010Y-39095096D02*
X228675010Y-39095096D01*
X228675010Y-38714143D01*
X228722630Y-38618905D01*
X228770249Y-38571286D01*
X228865487Y-38523667D01*
X229008344Y-38523667D01*
X229103582Y-38571286D01*
X229151201Y-38618905D01*
X229198820Y-38714143D01*
X229198820Y-39095096D01*
X229675010Y-37571286D02*
X229675010Y-38142715D01*
X229675010Y-37857000D02*
X228675010Y-37857000D01*
X228817868Y-37952239D01*
X228913106Y-38047477D01*
X228960725Y-38142715D01*
X228675010Y-36952239D02*
X228675010Y-36857000D01*
X228722630Y-36761762D01*
X228770249Y-36714143D01*
X228865487Y-36666524D01*
X229055963Y-36618905D01*
X229294058Y-36618905D01*
X229484534Y-36666524D01*
X229579772Y-36714143D01*
X229627391Y-36761762D01*
X229675010Y-36857000D01*
X229675010Y-36952239D01*
X229627391Y-37047477D01*
X229579772Y-37095096D01*
X229484534Y-37142715D01*
X229294058Y-37190334D01*
X229055963Y-37190334D01*
X228865487Y-37142715D01*
X228770249Y-37095096D01*
X228722630Y-37047477D01*
X228675010Y-36952239D01*
X229103582Y-36047477D02*
X229055963Y-36142715D01*
X229008344Y-36190334D01*
X228913106Y-36237953D01*
X228865487Y-36237953D01*
X228770249Y-36190334D01*
X228722630Y-36142715D01*
X228675010Y-36047477D01*
X228675010Y-35857000D01*
X228722630Y-35761762D01*
X228770249Y-35714143D01*
X228865487Y-35666524D01*
X228913106Y-35666524D01*
X229008344Y-35714143D01*
X229055963Y-35761762D01*
X229103582Y-35857000D01*
X229103582Y-36047477D01*
X229151201Y-36142715D01*
X229198820Y-36190334D01*
X229294058Y-36237953D01*
X229484534Y-36237953D01*
X229579772Y-36190334D01*
X229627391Y-36142715D01*
X229675010Y-36047477D01*
X229675010Y-35857000D01*
X229627391Y-35761762D01*
X229579772Y-35714143D01*
X229484534Y-35666524D01*
X229294058Y-35666524D01*
X229198820Y-35714143D01*
X229151201Y-35761762D01*
X229103582Y-35857000D01*
X248327167Y-33177000D02*
X247993834Y-32700810D01*
X247755738Y-33177000D02*
X247755738Y-32177000D01*
X248136691Y-32177000D01*
X248231929Y-32224620D01*
X248279548Y-32272239D01*
X248327167Y-32367477D01*
X248327167Y-32510334D01*
X248279548Y-32605572D01*
X248231929Y-32653191D01*
X248136691Y-32700810D01*
X247755738Y-32700810D01*
X249279548Y-33177000D02*
X248708119Y-33177000D01*
X248993834Y-33177000D02*
X248993834Y-32177000D01*
X248898595Y-32319858D01*
X248803357Y-32415096D01*
X248708119Y-32462715D01*
X249898595Y-32177000D02*
X249993834Y-32177000D01*
X250089072Y-32224620D01*
X250136691Y-32272239D01*
X250184310Y-32367477D01*
X250231929Y-32557953D01*
X250231929Y-32796048D01*
X250184310Y-32986524D01*
X250136691Y-33081762D01*
X250089072Y-33129381D01*
X249993834Y-33177000D01*
X249898595Y-33177000D01*
X249803357Y-33129381D01*
X249755738Y-33081762D01*
X249708119Y-32986524D01*
X249660500Y-32796048D01*
X249660500Y-32557953D01*
X249708119Y-32367477D01*
X249755738Y-32272239D01*
X249803357Y-32224620D01*
X249898595Y-32177000D01*
X250612881Y-32272239D02*
X250660500Y-32224620D01*
X250755738Y-32177000D01*
X250993834Y-32177000D01*
X251089072Y-32224620D01*
X251136691Y-32272239D01*
X251184310Y-32367477D01*
X251184310Y-32462715D01*
X251136691Y-32605572D01*
X250565262Y-33177000D01*
X251184310Y-33177000D01*
X248327167Y-36687000D02*
X247993834Y-36210810D01*
X247755738Y-36687000D02*
X247755738Y-35687000D01*
X248136691Y-35687000D01*
X248231929Y-35734620D01*
X248279548Y-35782239D01*
X248327167Y-35877477D01*
X248327167Y-36020334D01*
X248279548Y-36115572D01*
X248231929Y-36163191D01*
X248136691Y-36210810D01*
X247755738Y-36210810D01*
X249279548Y-36687000D02*
X248708119Y-36687000D01*
X248993834Y-36687000D02*
X248993834Y-35687000D01*
X248898595Y-35829858D01*
X248803357Y-35925096D01*
X248708119Y-35972715D01*
X249898595Y-35687000D02*
X249993834Y-35687000D01*
X250089072Y-35734620D01*
X250136691Y-35782239D01*
X250184310Y-35877477D01*
X250231929Y-36067953D01*
X250231929Y-36306048D01*
X250184310Y-36496524D01*
X250136691Y-36591762D01*
X250089072Y-36639381D01*
X249993834Y-36687000D01*
X249898595Y-36687000D01*
X249803357Y-36639381D01*
X249755738Y-36591762D01*
X249708119Y-36496524D01*
X249660500Y-36306048D01*
X249660500Y-36067953D01*
X249708119Y-35877477D01*
X249755738Y-35782239D01*
X249803357Y-35734620D01*
X249898595Y-35687000D01*
X251184310Y-36687000D02*
X250612881Y-36687000D01*
X250898595Y-36687000D02*
X250898595Y-35687000D01*
X250803357Y-35829858D01*
X250708119Y-35925096D01*
X250612881Y-35972715D01*
X346542903Y-88851274D02*
X345576977Y-88592455D01*
X345638600Y-88362473D01*
X345721571Y-88236808D01*
X345838213Y-88169464D01*
X345942531Y-88148117D01*
X346138841Y-88151420D01*
X346276831Y-88188394D01*
X346448492Y-88283689D01*
X346528160Y-88354335D01*
X346595504Y-88470977D01*
X346604526Y-88621292D01*
X346542903Y-88851274D01*
X346268693Y-87298834D02*
X346912644Y-87471380D01*
X345839098Y-87430218D02*
X346467422Y-87845072D01*
X346627643Y-87247117D01*
X346131589Y-86522614D02*
X346156238Y-86430621D01*
X346226884Y-86350953D01*
X346285205Y-86317281D01*
X346389523Y-86295934D01*
X346585834Y-86299236D01*
X346815816Y-86360860D01*
X346987477Y-86456155D01*
X347067145Y-86526801D01*
X347100817Y-86585122D01*
X347122164Y-86689440D01*
X347097515Y-86781433D01*
X347026869Y-86861101D01*
X346968548Y-86894773D01*
X346864230Y-86916120D01*
X346667919Y-86912817D01*
X346437937Y-86851194D01*
X346266276Y-86755899D01*
X346186608Y-86685253D01*
X346152936Y-86626931D01*
X346131589Y-86522614D01*
X346304135Y-85878663D02*
X346464356Y-85280709D01*
X346746055Y-85701282D01*
X346783029Y-85563293D01*
X346853675Y-85483625D01*
X346911996Y-85449953D01*
X347016314Y-85428606D01*
X347246296Y-85490229D01*
X347325964Y-85560875D01*
X347359636Y-85619196D01*
X347380983Y-85723514D01*
X347307035Y-85999493D01*
X347236389Y-86079161D01*
X347178068Y-86112833D01*
X241291271Y-39054008D02*
X240291271Y-39054008D01*
X240291271Y-38815912D01*
X240338891Y-38673055D01*
X240434129Y-38577817D01*
X240529367Y-38530198D01*
X240719843Y-38482579D01*
X240862700Y-38482579D01*
X241053176Y-38530198D01*
X241148414Y-38577817D01*
X241243652Y-38673055D01*
X241291271Y-38815912D01*
X241291271Y-39054008D01*
X240624605Y-37625436D02*
X241291271Y-37625436D01*
X240243652Y-37863532D02*
X240957938Y-38101627D01*
X240957938Y-37482579D01*
X240291271Y-36911151D02*
X240291271Y-36815912D01*
X240338891Y-36720674D01*
X240386510Y-36673055D01*
X240481748Y-36625436D01*
X240672224Y-36577817D01*
X240910319Y-36577817D01*
X241100795Y-36625436D01*
X241196033Y-36673055D01*
X241243652Y-36720674D01*
X241291271Y-36815912D01*
X241291271Y-36911151D01*
X241243652Y-37006389D01*
X241196033Y-37054008D01*
X241100795Y-37101627D01*
X240910319Y-37149246D01*
X240672224Y-37149246D01*
X240481748Y-37101627D01*
X240386510Y-37054008D01*
X240338891Y-37006389D01*
X240291271Y-36911151D01*
X240386510Y-36196865D02*
X240338891Y-36149246D01*
X240291271Y-36054008D01*
X240291271Y-35815912D01*
X240338891Y-35720674D01*
X240386510Y-35673055D01*
X240481748Y-35625436D01*
X240576986Y-35625436D01*
X240719843Y-35673055D01*
X241291271Y-36244484D01*
X241291271Y-35625436D01*
X237391272Y-39054009D02*
X236391272Y-39054009D01*
X236391272Y-38815913D01*
X236438892Y-38673056D01*
X236534130Y-38577818D01*
X236629368Y-38530199D01*
X236819844Y-38482580D01*
X236962701Y-38482580D01*
X237153177Y-38530199D01*
X237248415Y-38577818D01*
X237343653Y-38673056D01*
X237391272Y-38815913D01*
X237391272Y-39054009D01*
X236724606Y-37625437D02*
X237391272Y-37625437D01*
X236343653Y-37863533D02*
X237057939Y-38101628D01*
X237057939Y-37482580D01*
X236391272Y-36911152D02*
X236391272Y-36815913D01*
X236438892Y-36720675D01*
X236486511Y-36673056D01*
X236581749Y-36625437D01*
X236772225Y-36577818D01*
X237010320Y-36577818D01*
X237200796Y-36625437D01*
X237296034Y-36673056D01*
X237343653Y-36720675D01*
X237391272Y-36815913D01*
X237391272Y-36911152D01*
X237343653Y-37006390D01*
X237296034Y-37054009D01*
X237200796Y-37101628D01*
X237010320Y-37149247D01*
X236772225Y-37149247D01*
X236581749Y-37101628D01*
X236486511Y-37054009D01*
X236438892Y-37006390D01*
X236391272Y-36911152D01*
X237391272Y-35625437D02*
X237391272Y-36196866D01*
X237391272Y-35911152D02*
X236391272Y-35911152D01*
X236534130Y-36006390D01*
X236629368Y-36101628D01*
X236676987Y-36196866D01*
X312432439Y-75918978D02*
X312374118Y-75952650D01*
X312223804Y-75961672D01*
X312131811Y-75937023D01*
X312006146Y-75854052D01*
X311938803Y-75737410D01*
X311917456Y-75633092D01*
X311920758Y-75436782D01*
X311957732Y-75298792D01*
X312053028Y-75127131D01*
X312123673Y-75047463D01*
X312240316Y-74980119D01*
X312390630Y-74971097D01*
X312482623Y-74995746D01*
X312608288Y-75078717D01*
X312641959Y-75137038D01*
X313009931Y-75235636D02*
X313068252Y-75201964D01*
X313172570Y-75180617D01*
X313402552Y-75242241D01*
X313482220Y-75312887D01*
X313515892Y-75371208D01*
X313537239Y-75475525D01*
X313512590Y-75567518D01*
X313429619Y-75693183D01*
X312729765Y-76097244D01*
X313327719Y-76257465D01*
X314184492Y-75451761D02*
X314276485Y-75476410D01*
X314356153Y-75547056D01*
X314389825Y-75605377D01*
X314411172Y-75709695D01*
X314407870Y-75906006D01*
X314346246Y-76135988D01*
X314250951Y-76307649D01*
X314180305Y-76387317D01*
X314121984Y-76420989D01*
X314017666Y-76442336D01*
X313925673Y-76417687D01*
X313846005Y-76347041D01*
X313812333Y-76288720D01*
X313790986Y-76184402D01*
X313794289Y-75988091D01*
X313855912Y-75758109D01*
X313951207Y-75586448D01*
X314021853Y-75506780D01*
X314080175Y-75473108D01*
X314184492Y-75451761D01*
X315167578Y-76750454D02*
X314615620Y-76602557D01*
X314891599Y-76676506D02*
X315150418Y-75710580D01*
X315021451Y-75823920D01*
X314904809Y-75891263D01*
X314800491Y-75912610D01*
X220916033Y-38482581D02*
X220963652Y-38530200D01*
X221011271Y-38673057D01*
X221011271Y-38768295D01*
X220963652Y-38911153D01*
X220868414Y-39006391D01*
X220773176Y-39054010D01*
X220582700Y-39101629D01*
X220439843Y-39101629D01*
X220249367Y-39054010D01*
X220154129Y-39006391D01*
X220058891Y-38911153D01*
X220011271Y-38768295D01*
X220011271Y-38673057D01*
X220058891Y-38530200D01*
X220106510Y-38482581D01*
X221011271Y-37530200D02*
X221011271Y-38101629D01*
X221011271Y-37815914D02*
X220011271Y-37815914D01*
X220154129Y-37911153D01*
X220249367Y-38006391D01*
X220296986Y-38101629D01*
X220011271Y-36911153D02*
X220011271Y-36815914D01*
X220058891Y-36720676D01*
X220106510Y-36673057D01*
X220201748Y-36625438D01*
X220392224Y-36577819D01*
X220630319Y-36577819D01*
X220820795Y-36625438D01*
X220916033Y-36673057D01*
X220963652Y-36720676D01*
X221011271Y-36815914D01*
X221011271Y-36911153D01*
X220963652Y-37006391D01*
X220916033Y-37054010D01*
X220820795Y-37101629D01*
X220630319Y-37149248D01*
X220392224Y-37149248D01*
X220201748Y-37101629D01*
X220106510Y-37054010D01*
X220058891Y-37006391D01*
X220011271Y-36911153D01*
X221011271Y-36101629D02*
X221011271Y-35911153D01*
X220963652Y-35815914D01*
X220916033Y-35768295D01*
X220773176Y-35673057D01*
X220582700Y-35625438D01*
X220201748Y-35625438D01*
X220106510Y-35673057D01*
X220058891Y-35720676D01*
X220011271Y-35815914D01*
X220011271Y-36006391D01*
X220058891Y-36101629D01*
X220106510Y-36149248D01*
X220201748Y-36196867D01*
X220439843Y-36196867D01*
X220535081Y-36149248D01*
X220582700Y-36101629D01*
X220630319Y-36006391D01*
X220630319Y-35815914D01*
X220582700Y-35720676D01*
X220535081Y-35673057D01*
X220439843Y-35625438D01*
X220916033Y-43162581D02*
X220963652Y-43210200D01*
X221011271Y-43353057D01*
X221011271Y-43448295D01*
X220963652Y-43591153D01*
X220868414Y-43686391D01*
X220773176Y-43734010D01*
X220582700Y-43781629D01*
X220439843Y-43781629D01*
X220249367Y-43734010D01*
X220154129Y-43686391D01*
X220058891Y-43591153D01*
X220011271Y-43448295D01*
X220011271Y-43353057D01*
X220058891Y-43210200D01*
X220106510Y-43162581D01*
X221011271Y-42210200D02*
X221011271Y-42781629D01*
X221011271Y-42495914D02*
X220011271Y-42495914D01*
X220154129Y-42591153D01*
X220249367Y-42686391D01*
X220296986Y-42781629D01*
X220011271Y-41591153D02*
X220011271Y-41495914D01*
X220058891Y-41400676D01*
X220106510Y-41353057D01*
X220201748Y-41305438D01*
X220392224Y-41257819D01*
X220630319Y-41257819D01*
X220820795Y-41305438D01*
X220916033Y-41353057D01*
X220963652Y-41400676D01*
X221011271Y-41495914D01*
X221011271Y-41591153D01*
X220963652Y-41686391D01*
X220916033Y-41734010D01*
X220820795Y-41781629D01*
X220630319Y-41829248D01*
X220392224Y-41829248D01*
X220201748Y-41781629D01*
X220106510Y-41734010D01*
X220058891Y-41686391D01*
X220011271Y-41591153D01*
X220439843Y-40686391D02*
X220392224Y-40781629D01*
X220344605Y-40829248D01*
X220249367Y-40876867D01*
X220201748Y-40876867D01*
X220106510Y-40829248D01*
X220058891Y-40781629D01*
X220011271Y-40686391D01*
X220011271Y-40495914D01*
X220058891Y-40400676D01*
X220106510Y-40353057D01*
X220201748Y-40305438D01*
X220249367Y-40305438D01*
X220344605Y-40353057D01*
X220392224Y-40400676D01*
X220439843Y-40495914D01*
X220439843Y-40686391D01*
X220487462Y-40781629D01*
X220535081Y-40829248D01*
X220630319Y-40876867D01*
X220820795Y-40876867D01*
X220916033Y-40829248D01*
X220963652Y-40781629D01*
X221011271Y-40686391D01*
X221011271Y-40495914D01*
X220963652Y-40400676D01*
X220916033Y-40353057D01*
X220820795Y-40305438D01*
X220630319Y-40305438D01*
X220535081Y-40353057D01*
X220487462Y-40400676D01*
X220439843Y-40495914D01*
X224119843Y-44440676D02*
X224072224Y-44488295D01*
X223929367Y-44535914D01*
X223834129Y-44535914D01*
X223691271Y-44488295D01*
X223596033Y-44393057D01*
X223548414Y-44297819D01*
X223500795Y-44107343D01*
X223500795Y-43964486D01*
X223548414Y-43774010D01*
X223596033Y-43678772D01*
X223691271Y-43583534D01*
X223834129Y-43535914D01*
X223929367Y-43535914D01*
X224072224Y-43583534D01*
X224119843Y-43631153D01*
X225072224Y-44535914D02*
X224500795Y-44535914D01*
X224786510Y-44535914D02*
X224786510Y-43535914D01*
X224691271Y-43678772D01*
X224596033Y-43774010D01*
X224500795Y-43821629D01*
X225691271Y-43535914D02*
X225786510Y-43535914D01*
X225881748Y-43583534D01*
X225929367Y-43631153D01*
X225976986Y-43726391D01*
X226024605Y-43916867D01*
X226024605Y-44154962D01*
X225976986Y-44345438D01*
X225929367Y-44440676D01*
X225881748Y-44488295D01*
X225786510Y-44535914D01*
X225691271Y-44535914D01*
X225596033Y-44488295D01*
X225548414Y-44440676D01*
X225500795Y-44345438D01*
X225453176Y-44154962D01*
X225453176Y-43916867D01*
X225500795Y-43726391D01*
X225548414Y-43631153D01*
X225596033Y-43583534D01*
X225691271Y-43535914D01*
X226881748Y-43535914D02*
X226691271Y-43535914D01*
X226596033Y-43583534D01*
X226548414Y-43631153D01*
X226453176Y-43774010D01*
X226405557Y-43964486D01*
X226405557Y-44345438D01*
X226453176Y-44440676D01*
X226500795Y-44488295D01*
X226596033Y-44535914D01*
X226786510Y-44535914D01*
X226881748Y-44488295D01*
X226929367Y-44440676D01*
X226976986Y-44345438D01*
X226976986Y-44107343D01*
X226929367Y-44012105D01*
X226881748Y-43964486D01*
X226786510Y-43916867D01*
X226596033Y-43916867D01*
X226500795Y-43964486D01*
X226453176Y-44012105D01*
X226405557Y-44107343D01*
X224244667Y-38541762D02*
X224197048Y-38589381D01*
X224054191Y-38637000D01*
X223958953Y-38637000D01*
X223816095Y-38589381D01*
X223720857Y-38494143D01*
X223673238Y-38398905D01*
X223625619Y-38208429D01*
X223625619Y-38065572D01*
X223673238Y-37875096D01*
X223720857Y-37779858D01*
X223816095Y-37684620D01*
X223958953Y-37637000D01*
X224054191Y-37637000D01*
X224197048Y-37684620D01*
X224244667Y-37732239D01*
X225197048Y-38637000D02*
X224625619Y-38637000D01*
X224911334Y-38637000D02*
X224911334Y-37637000D01*
X224816095Y-37779858D01*
X224720857Y-37875096D01*
X224625619Y-37922715D01*
X225816095Y-37637000D02*
X225911334Y-37637000D01*
X226006572Y-37684620D01*
X226054191Y-37732239D01*
X226101810Y-37827477D01*
X226149429Y-38017953D01*
X226149429Y-38256048D01*
X226101810Y-38446524D01*
X226054191Y-38541762D01*
X226006572Y-38589381D01*
X225911334Y-38637000D01*
X225816095Y-38637000D01*
X225720857Y-38589381D01*
X225673238Y-38541762D01*
X225625619Y-38446524D01*
X225578000Y-38256048D01*
X225578000Y-38017953D01*
X225625619Y-37827477D01*
X225673238Y-37732239D01*
X225720857Y-37684620D01*
X225816095Y-37637000D01*
X227054191Y-37637000D02*
X226578000Y-37637000D01*
X226530381Y-38113191D01*
X226578000Y-38065572D01*
X226673238Y-38017953D01*
X226911334Y-38017953D01*
X227006572Y-38065572D01*
X227054191Y-38113191D01*
X227101810Y-38208429D01*
X227101810Y-38446524D01*
X227054191Y-38541762D01*
X227006572Y-38589381D01*
X226911334Y-38637000D01*
X226673238Y-38637000D01*
X226578000Y-38589381D01*
X226530381Y-38541762D01*
M02*
