G04 #@! TF.GenerationSoftware,KiCad,Pcbnew,(5.1.4)-1*
G04 #@! TF.CreationDate,2020-05-29T20:33:55-05:00*
G04 #@! TF.ProjectId,Keeb,4b656562-2e6b-4696-9361-645f70636258,rev?*
G04 #@! TF.SameCoordinates,Original*
G04 #@! TF.FileFunction,Copper,L2,Bot*
G04 #@! TF.FilePolarity,Positive*
%FSLAX46Y46*%
G04 Gerber Fmt 4.6, Leading zero omitted, Abs format (unit mm)*
G04 Created by KiCad (PCBNEW (5.1.4)-1) date 2020-05-29 20:33:55*
%MOMM*%
%LPD*%
G04 APERTURE LIST*
%ADD10R,1.500000X0.500000*%
%ADD11R,0.500000X1.500000*%
%ADD12C,0.600000*%
%ADD13R,2.550000X2.500000*%
%ADD14C,0.100000*%
%ADD15C,1.150000*%
%ADD16R,2.700000X1.700000*%
%ADD17O,1.700000X1.700000*%
%ADD18R,1.700000X1.700000*%
%ADD19C,1.200000*%
%ADD20C,1.700000*%
%ADD21C,2.500000*%
%ADD22O,0.900000X1.700000*%
%ADD23O,0.900000X2.400000*%
%ADD24C,0.700000*%
%ADD25C,2.000000*%
%ADD26C,0.500000*%
%ADD27C,1.000000*%
%ADD28C,0.800000*%
%ADD29C,0.500000*%
%ADD30C,0.250000*%
G04 APERTURE END LIST*
D10*
X233088891Y-43313534D03*
X233088891Y-42513534D03*
X233088891Y-41713534D03*
X233088891Y-40913534D03*
X233088891Y-40113534D03*
X233088891Y-39313534D03*
X233088891Y-38513534D03*
X233088891Y-37713534D03*
X233088891Y-36913534D03*
X233088891Y-36113534D03*
X233088891Y-35313534D03*
D11*
X231188891Y-33413534D03*
X230388891Y-33413534D03*
X229588891Y-33413534D03*
X228788891Y-33413534D03*
X227988891Y-33413534D03*
X227188891Y-33413534D03*
X226388891Y-33413534D03*
X225588891Y-33413534D03*
X224788891Y-33413534D03*
X223988891Y-33413534D03*
X223188891Y-33413534D03*
D10*
X221288891Y-35313534D03*
X221288891Y-36113534D03*
X221288891Y-36913534D03*
X221288891Y-37713534D03*
X221288891Y-38513534D03*
X221288891Y-39313534D03*
X221288891Y-40113534D03*
X221288891Y-40913534D03*
X221288891Y-41713534D03*
X221288891Y-42513534D03*
X221288891Y-43313534D03*
D11*
X223188891Y-45213534D03*
X223988891Y-45213534D03*
X224788891Y-45213534D03*
X225588891Y-45213534D03*
X226388891Y-45213534D03*
X227188891Y-45213534D03*
X227988891Y-45213534D03*
X228788891Y-45213534D03*
X229588891Y-45213534D03*
X230388891Y-45213534D03*
X231188891Y-45213534D03*
D12*
X218253891Y-58723534D03*
X232223891Y-58723534D03*
D13*
X232798891Y-57453534D03*
X218948891Y-59993534D03*
D14*
G36*
X215720720Y-44310824D02*
G01*
X215744988Y-44314424D01*
X215768787Y-44320385D01*
X215791886Y-44328650D01*
X215814065Y-44339140D01*
X215835108Y-44351752D01*
X215854814Y-44366367D01*
X215872992Y-44382843D01*
X215889468Y-44401021D01*
X215904083Y-44420727D01*
X215916695Y-44441770D01*
X215927185Y-44463949D01*
X215935450Y-44487048D01*
X215941411Y-44510847D01*
X215945011Y-44535115D01*
X215946215Y-44559619D01*
X215946215Y-45459621D01*
X215945011Y-45484125D01*
X215941411Y-45508393D01*
X215935450Y-45532192D01*
X215927185Y-45555291D01*
X215916695Y-45577470D01*
X215904083Y-45598513D01*
X215889468Y-45618219D01*
X215872992Y-45636397D01*
X215854814Y-45652873D01*
X215835108Y-45667488D01*
X215814065Y-45680100D01*
X215791886Y-45690590D01*
X215768787Y-45698855D01*
X215744988Y-45704816D01*
X215720720Y-45708416D01*
X215696216Y-45709620D01*
X215046214Y-45709620D01*
X215021710Y-45708416D01*
X214997442Y-45704816D01*
X214973643Y-45698855D01*
X214950544Y-45690590D01*
X214928365Y-45680100D01*
X214907322Y-45667488D01*
X214887616Y-45652873D01*
X214869438Y-45636397D01*
X214852962Y-45618219D01*
X214838347Y-45598513D01*
X214825735Y-45577470D01*
X214815245Y-45555291D01*
X214806980Y-45532192D01*
X214801019Y-45508393D01*
X214797419Y-45484125D01*
X214796215Y-45459621D01*
X214796215Y-44559619D01*
X214797419Y-44535115D01*
X214801019Y-44510847D01*
X214806980Y-44487048D01*
X214815245Y-44463949D01*
X214825735Y-44441770D01*
X214838347Y-44420727D01*
X214852962Y-44401021D01*
X214869438Y-44382843D01*
X214887616Y-44366367D01*
X214907322Y-44351752D01*
X214928365Y-44339140D01*
X214950544Y-44328650D01*
X214973643Y-44320385D01*
X214997442Y-44314424D01*
X215021710Y-44310824D01*
X215046214Y-44309620D01*
X215696216Y-44309620D01*
X215720720Y-44310824D01*
X215720720Y-44310824D01*
G37*
D15*
X215371215Y-45009620D03*
D14*
G36*
X213670720Y-44310824D02*
G01*
X213694988Y-44314424D01*
X213718787Y-44320385D01*
X213741886Y-44328650D01*
X213764065Y-44339140D01*
X213785108Y-44351752D01*
X213804814Y-44366367D01*
X213822992Y-44382843D01*
X213839468Y-44401021D01*
X213854083Y-44420727D01*
X213866695Y-44441770D01*
X213877185Y-44463949D01*
X213885450Y-44487048D01*
X213891411Y-44510847D01*
X213895011Y-44535115D01*
X213896215Y-44559619D01*
X213896215Y-45459621D01*
X213895011Y-45484125D01*
X213891411Y-45508393D01*
X213885450Y-45532192D01*
X213877185Y-45555291D01*
X213866695Y-45577470D01*
X213854083Y-45598513D01*
X213839468Y-45618219D01*
X213822992Y-45636397D01*
X213804814Y-45652873D01*
X213785108Y-45667488D01*
X213764065Y-45680100D01*
X213741886Y-45690590D01*
X213718787Y-45698855D01*
X213694988Y-45704816D01*
X213670720Y-45708416D01*
X213646216Y-45709620D01*
X212996214Y-45709620D01*
X212971710Y-45708416D01*
X212947442Y-45704816D01*
X212923643Y-45698855D01*
X212900544Y-45690590D01*
X212878365Y-45680100D01*
X212857322Y-45667488D01*
X212837616Y-45652873D01*
X212819438Y-45636397D01*
X212802962Y-45618219D01*
X212788347Y-45598513D01*
X212775735Y-45577470D01*
X212765245Y-45555291D01*
X212756980Y-45532192D01*
X212751019Y-45508393D01*
X212747419Y-45484125D01*
X212746215Y-45459621D01*
X212746215Y-44559619D01*
X212747419Y-44535115D01*
X212751019Y-44510847D01*
X212756980Y-44487048D01*
X212765245Y-44463949D01*
X212775735Y-44441770D01*
X212788347Y-44420727D01*
X212802962Y-44401021D01*
X212819438Y-44382843D01*
X212837616Y-44366367D01*
X212857322Y-44351752D01*
X212878365Y-44339140D01*
X212900544Y-44328650D01*
X212923643Y-44320385D01*
X212947442Y-44314424D01*
X212971710Y-44310824D01*
X212996214Y-44309620D01*
X213646216Y-44309620D01*
X213670720Y-44310824D01*
X213670720Y-44310824D01*
G37*
D15*
X213321215Y-45009620D03*
D16*
X278146215Y-61097120D03*
X283146215Y-61097120D03*
D17*
X199498891Y-34813534D03*
X199498891Y-37353534D03*
X199498891Y-39893534D03*
D18*
X199498891Y-42433534D03*
D14*
G36*
X332578531Y-88163173D02*
G01*
X332602904Y-88165977D01*
X332626885Y-88171157D01*
X333254739Y-88339390D01*
X333278096Y-88346894D01*
X333300606Y-88356653D01*
X333322050Y-88368570D01*
X333342224Y-88382532D01*
X333360931Y-88398405D01*
X333377993Y-88416034D01*
X333393245Y-88435251D01*
X333406539Y-88455871D01*
X333417749Y-88477694D01*
X333426766Y-88500510D01*
X333433502Y-88524101D01*
X333437894Y-88548239D01*
X333439899Y-88572690D01*
X333439498Y-88597221D01*
X333436694Y-88621594D01*
X333431514Y-88645575D01*
X333198576Y-89514910D01*
X333191072Y-89538267D01*
X333181313Y-89560777D01*
X333169396Y-89582222D01*
X333155433Y-89602395D01*
X333139561Y-89621102D01*
X333121932Y-89638164D01*
X333102715Y-89653416D01*
X333082095Y-89666711D01*
X333060272Y-89677920D01*
X333037455Y-89686937D01*
X333013865Y-89693673D01*
X332989727Y-89698065D01*
X332965276Y-89700070D01*
X332940745Y-89699669D01*
X332916372Y-89696865D01*
X332892391Y-89691685D01*
X332264537Y-89523452D01*
X332241180Y-89515948D01*
X332218670Y-89506189D01*
X332197226Y-89494272D01*
X332177052Y-89480310D01*
X332158345Y-89464437D01*
X332141283Y-89446808D01*
X332126031Y-89427591D01*
X332112737Y-89406971D01*
X332101527Y-89385148D01*
X332092510Y-89362332D01*
X332085774Y-89338741D01*
X332081382Y-89314603D01*
X332079377Y-89290152D01*
X332079778Y-89265621D01*
X332082582Y-89241248D01*
X332087762Y-89217267D01*
X332320700Y-88347932D01*
X332328204Y-88324575D01*
X332337963Y-88302065D01*
X332349880Y-88280620D01*
X332363843Y-88260447D01*
X332379715Y-88241740D01*
X332397344Y-88224678D01*
X332416561Y-88209426D01*
X332437181Y-88196131D01*
X332459004Y-88184922D01*
X332481821Y-88175905D01*
X332505411Y-88169169D01*
X332529549Y-88164777D01*
X332554000Y-88162772D01*
X332578531Y-88163173D01*
X332578531Y-88163173D01*
G37*
D15*
X332759638Y-88931421D03*
D14*
G36*
X334558679Y-88693753D02*
G01*
X334583052Y-88696557D01*
X334607033Y-88701737D01*
X335234887Y-88869970D01*
X335258244Y-88877474D01*
X335280754Y-88887233D01*
X335302198Y-88899150D01*
X335322372Y-88913112D01*
X335341079Y-88928985D01*
X335358141Y-88946614D01*
X335373393Y-88965831D01*
X335386687Y-88986451D01*
X335397897Y-89008274D01*
X335406914Y-89031090D01*
X335413650Y-89054681D01*
X335418042Y-89078819D01*
X335420047Y-89103270D01*
X335419646Y-89127801D01*
X335416842Y-89152174D01*
X335411662Y-89176155D01*
X335178724Y-90045490D01*
X335171220Y-90068847D01*
X335161461Y-90091357D01*
X335149544Y-90112802D01*
X335135581Y-90132975D01*
X335119709Y-90151682D01*
X335102080Y-90168744D01*
X335082863Y-90183996D01*
X335062243Y-90197291D01*
X335040420Y-90208500D01*
X335017603Y-90217517D01*
X334994013Y-90224253D01*
X334969875Y-90228645D01*
X334945424Y-90230650D01*
X334920893Y-90230249D01*
X334896520Y-90227445D01*
X334872539Y-90222265D01*
X334244685Y-90054032D01*
X334221328Y-90046528D01*
X334198818Y-90036769D01*
X334177374Y-90024852D01*
X334157200Y-90010890D01*
X334138493Y-89995017D01*
X334121431Y-89977388D01*
X334106179Y-89958171D01*
X334092885Y-89937551D01*
X334081675Y-89915728D01*
X334072658Y-89892912D01*
X334065922Y-89869321D01*
X334061530Y-89845183D01*
X334059525Y-89820732D01*
X334059926Y-89796201D01*
X334062730Y-89771828D01*
X334067910Y-89747847D01*
X334300848Y-88878512D01*
X334308352Y-88855155D01*
X334318111Y-88832645D01*
X334330028Y-88811200D01*
X334343991Y-88791027D01*
X334359863Y-88772320D01*
X334377492Y-88755258D01*
X334396709Y-88740006D01*
X334417329Y-88726711D01*
X334439152Y-88715502D01*
X334461969Y-88706485D01*
X334485559Y-88699749D01*
X334509697Y-88695357D01*
X334534148Y-88693352D01*
X334558679Y-88693753D01*
X334558679Y-88693753D01*
G37*
D15*
X334739786Y-89462001D03*
D19*
X214039322Y-39066047D03*
D14*
G36*
X214958561Y-39136758D02*
G01*
X214110033Y-39985286D01*
X213120083Y-38995336D01*
X213968611Y-38146808D01*
X214958561Y-39136758D01*
X214958561Y-39136758D01*
G37*
D19*
X215736378Y-40763103D03*
D14*
G36*
X216655617Y-40833814D02*
G01*
X215807089Y-41682342D01*
X214817139Y-40692392D01*
X215665667Y-39843864D01*
X216655617Y-40833814D01*
X216655617Y-40833814D01*
G37*
D19*
X215241404Y-37863965D03*
D14*
G36*
X216160643Y-37934676D02*
G01*
X215312115Y-38783204D01*
X214322165Y-37793254D01*
X215170693Y-36944726D01*
X216160643Y-37934676D01*
X216160643Y-37934676D01*
G37*
D19*
X216938460Y-39561021D03*
D14*
G36*
X217857699Y-39631732D02*
G01*
X217009171Y-40480260D01*
X216019221Y-39490310D01*
X216867749Y-38641782D01*
X217857699Y-39631732D01*
X217857699Y-39631732D01*
G37*
D20*
X334949076Y-127391484D03*
D14*
G36*
X336473072Y-126919853D02*
G01*
X336033080Y-128561927D01*
X333425080Y-127863115D01*
X333865072Y-126221041D01*
X336473072Y-126919853D01*
X336473072Y-126919853D01*
G37*
D20*
X339778706Y-128685580D03*
D14*
G36*
X341302702Y-128213949D02*
G01*
X340862710Y-129856023D01*
X338254710Y-129157211D01*
X338694702Y-127515137D01*
X341302702Y-128213949D01*
X341302702Y-128213949D01*
G37*
D20*
X316424077Y-122516486D03*
D14*
G36*
X317948073Y-122044855D02*
G01*
X317508081Y-123686929D01*
X314900081Y-122988117D01*
X315340073Y-121346043D01*
X317948073Y-122044855D01*
X317948073Y-122044855D01*
G37*
D20*
X321253707Y-123810582D03*
D14*
G36*
X322777703Y-123338951D02*
G01*
X322337711Y-124981025D01*
X319729711Y-124282213D01*
X320169703Y-122640139D01*
X322777703Y-123338951D01*
X322777703Y-123338951D01*
G37*
D16*
X297328892Y-100163665D03*
X302328892Y-100163665D03*
X277828891Y-100163667D03*
X282828891Y-100163667D03*
X258328891Y-96663667D03*
X263328891Y-96663667D03*
X238828891Y-100163666D03*
X243828891Y-100163666D03*
X219328891Y-103663534D03*
X224328891Y-103663534D03*
X199828891Y-103663533D03*
X204828891Y-103663533D03*
D20*
X343505905Y-114718809D03*
D14*
G36*
X341981909Y-115190440D02*
G01*
X342421901Y-113548366D01*
X345029901Y-114247178D01*
X344589909Y-115889252D01*
X341981909Y-115190440D01*
X341981909Y-115190440D01*
G37*
D20*
X338676275Y-113424713D03*
D14*
G36*
X337152279Y-113896344D02*
G01*
X337592271Y-112254270D01*
X340200271Y-112953082D01*
X339760279Y-114595156D01*
X337152279Y-113896344D01*
X337152279Y-113896344D01*
G37*
D20*
X319836576Y-108378985D03*
D14*
G36*
X321360572Y-107907354D02*
G01*
X320920580Y-109549428D01*
X318312580Y-108850616D01*
X318752572Y-107208542D01*
X321360572Y-107907354D01*
X321360572Y-107907354D01*
G37*
D20*
X324666206Y-109673081D03*
D14*
G36*
X326190202Y-109201450D02*
G01*
X325750210Y-110843524D01*
X323142210Y-110144712D01*
X323582202Y-108502638D01*
X326190202Y-109201450D01*
X326190202Y-109201450D01*
G37*
D16*
X297326391Y-95376034D03*
X302326391Y-95376034D03*
X277826392Y-95376032D03*
X282826392Y-95376032D03*
X258326391Y-91963534D03*
X263326391Y-91963534D03*
X238826393Y-95376034D03*
X243826393Y-95376034D03*
X219326392Y-98788532D03*
X224326392Y-98788532D03*
X199826391Y-98788533D03*
X204826391Y-98788533D03*
X297328891Y-80663667D03*
X302328891Y-80663667D03*
X277828891Y-80663667D03*
X282828891Y-80663667D03*
X258328893Y-77163667D03*
X263328893Y-77163667D03*
X238828892Y-80663667D03*
X243828892Y-80663667D03*
X219328891Y-84163532D03*
X224328891Y-84163532D03*
X199828891Y-84163534D03*
X204828891Y-84163534D03*
X297328891Y-61163667D03*
X302328891Y-61163667D03*
X258328891Y-57663666D03*
X263328891Y-57663666D03*
X238828891Y-61163665D03*
X243828891Y-61163665D03*
X219328891Y-64663534D03*
X224328891Y-64663534D03*
X199826391Y-64663535D03*
X204826391Y-64663535D03*
D12*
X349607210Y-122744987D03*
X336113227Y-119129285D03*
D21*
X335229119Y-120207189D03*
D14*
G36*
X333674040Y-121084602D02*
G01*
X334321087Y-118669787D01*
X336784198Y-119329776D01*
X336137151Y-121744591D01*
X333674040Y-121084602D01*
X333674040Y-121084602D01*
G37*
D21*
X349264592Y-121338382D03*
D14*
G36*
X347709513Y-122215795D02*
G01*
X348356560Y-119800980D01*
X350819671Y-120460969D01*
X350172624Y-122875784D01*
X347709513Y-122215795D01*
X347709513Y-122215795D01*
G37*
D12*
X330771657Y-117698015D03*
X317277674Y-114082313D03*
D21*
X316393566Y-115160217D03*
D14*
G36*
X314838487Y-116037630D02*
G01*
X315485534Y-113622815D01*
X317948645Y-114282804D01*
X317301598Y-116697619D01*
X314838487Y-116037630D01*
X314838487Y-116037630D01*
G37*
D21*
X330429039Y-116291410D03*
D14*
G36*
X328873960Y-117168823D02*
G01*
X329521007Y-114754008D01*
X331984118Y-115413997D01*
X331337071Y-117828812D01*
X328873960Y-117168823D01*
X328873960Y-117168823D01*
G37*
D12*
X310223893Y-106103667D03*
X296253893Y-106103667D03*
D13*
X295678893Y-107373667D03*
X309528893Y-104833667D03*
D12*
X290723891Y-106103667D03*
X276753891Y-106103667D03*
D13*
X276178891Y-107373667D03*
X290028891Y-104833667D03*
D12*
X271223891Y-102603667D03*
X257253891Y-102603667D03*
D13*
X256678891Y-103873667D03*
X270528891Y-101333667D03*
D12*
X251723891Y-106103665D03*
X237753891Y-106103665D03*
D13*
X237178891Y-107373665D03*
X251028891Y-104833665D03*
D12*
X232223891Y-109603534D03*
X218253891Y-109603534D03*
D13*
X217678891Y-110873534D03*
X231528891Y-108333534D03*
D12*
X212723891Y-109603534D03*
X198753891Y-109603534D03*
D13*
X198178891Y-110873534D03*
X212028891Y-108333534D03*
D12*
X339187998Y-107654086D03*
X352681981Y-111269788D03*
D21*
X353566089Y-110191884D03*
D14*
G36*
X355121168Y-109314471D02*
G01*
X354474121Y-111729286D01*
X352011010Y-111069297D01*
X352658057Y-108654482D01*
X355121168Y-109314471D01*
X355121168Y-109314471D01*
G37*
D21*
X339530616Y-109060691D03*
D14*
G36*
X341085695Y-108183278D02*
G01*
X340438648Y-110598093D01*
X337975537Y-109938104D01*
X338622584Y-107523289D01*
X341085695Y-108183278D01*
X341085695Y-108183278D01*
G37*
D12*
X320352444Y-102607115D03*
X333846427Y-106222817D03*
D21*
X334730535Y-105144913D03*
D14*
G36*
X336285614Y-104267500D02*
G01*
X335638567Y-106682315D01*
X333175456Y-106022326D01*
X333822503Y-103607511D01*
X336285614Y-104267500D01*
X336285614Y-104267500D01*
G37*
D21*
X320695062Y-104013720D03*
D14*
G36*
X322250141Y-103136307D02*
G01*
X321603094Y-105551122D01*
X319139983Y-104891133D01*
X319787030Y-102476318D01*
X322250141Y-103136307D01*
X322250141Y-103136307D01*
G37*
D12*
X310223891Y-86603667D03*
X296253891Y-86603667D03*
D13*
X295678891Y-87873667D03*
X309528891Y-85333667D03*
D12*
X290723893Y-86603667D03*
X276753893Y-86603667D03*
D13*
X276178893Y-87873667D03*
X290028893Y-85333667D03*
D12*
X271223889Y-83103667D03*
X257253889Y-83103667D03*
D13*
X256678889Y-84373667D03*
X270528889Y-81833667D03*
D12*
X251723891Y-86603667D03*
X237753891Y-86603667D03*
D13*
X237178891Y-87873667D03*
X251028891Y-85333667D03*
D12*
X232223891Y-90103534D03*
X218253891Y-90103534D03*
D13*
X217678891Y-91373534D03*
X231528891Y-88833534D03*
D12*
X212723891Y-90103532D03*
X198753891Y-90103532D03*
D13*
X198178891Y-91373532D03*
X212028891Y-88833532D03*
D12*
X310223891Y-67103667D03*
X296253891Y-67103667D03*
D13*
X295678891Y-68373667D03*
X309528891Y-65833667D03*
D12*
X290723891Y-67103665D03*
X276753891Y-67103665D03*
D13*
X276178891Y-68373665D03*
X290028891Y-65833665D03*
D12*
X271223892Y-63603665D03*
X257253892Y-63603665D03*
D13*
X256678892Y-64873665D03*
X270528892Y-62333665D03*
D12*
X251723891Y-67103667D03*
X237753891Y-67103667D03*
D13*
X237178891Y-68373667D03*
X251028891Y-65833667D03*
D12*
X232223892Y-70603532D03*
X218253892Y-70603532D03*
D13*
X217678892Y-71873532D03*
X231528892Y-69333532D03*
D12*
X212723891Y-70603534D03*
X198753891Y-70603534D03*
D13*
X198178891Y-71873534D03*
X212028891Y-69333534D03*
D12*
X296253891Y-55223665D03*
X310223891Y-55223665D03*
D13*
X310798891Y-53953665D03*
X296948891Y-56493665D03*
D12*
X276753891Y-55223667D03*
X290723891Y-55223667D03*
D13*
X291298891Y-53953667D03*
X277448891Y-56493667D03*
D12*
X257253893Y-51723666D03*
X271223893Y-51723666D03*
D13*
X271798893Y-50453666D03*
X257948893Y-52993666D03*
D12*
X237753891Y-55223667D03*
X251723891Y-55223667D03*
D13*
X252298891Y-53953667D03*
X238448891Y-56493667D03*
D12*
X198753890Y-58723666D03*
X212723890Y-58723666D03*
D13*
X213298890Y-57453666D03*
X199448890Y-59993666D03*
D22*
X253988891Y-36903534D03*
X245338891Y-36903534D03*
D23*
X253988891Y-40283534D03*
X245338891Y-40283534D03*
D24*
X250088891Y-39913534D03*
X252638891Y-39913534D03*
X251788891Y-39913534D03*
X250938891Y-39913534D03*
X246688891Y-39913534D03*
X248388891Y-39913534D03*
X249238891Y-39913534D03*
X247538891Y-39913534D03*
X252638891Y-41263534D03*
X251788891Y-41263534D03*
X250938891Y-41263534D03*
X250088891Y-41263534D03*
X249238891Y-41263534D03*
X248388891Y-41263534D03*
X247538891Y-41263534D03*
X246688891Y-41263534D03*
D25*
X264888891Y-33853534D03*
X264888891Y-38353534D03*
X258388891Y-33853534D03*
X258388891Y-38353534D03*
D14*
G36*
X344607481Y-84931100D02*
G01*
X344631854Y-84933904D01*
X344655835Y-84939084D01*
X345525170Y-85172022D01*
X345548527Y-85179526D01*
X345571037Y-85189285D01*
X345592482Y-85201202D01*
X345612655Y-85215165D01*
X345631362Y-85231037D01*
X345648424Y-85248666D01*
X345663676Y-85267883D01*
X345676971Y-85288503D01*
X345688180Y-85310326D01*
X345697197Y-85333143D01*
X345703933Y-85356733D01*
X345708325Y-85380871D01*
X345710330Y-85405322D01*
X345709929Y-85429853D01*
X345707125Y-85454226D01*
X345701945Y-85478207D01*
X345533712Y-86106061D01*
X345526208Y-86129418D01*
X345516449Y-86151928D01*
X345504532Y-86173372D01*
X345490570Y-86193546D01*
X345474697Y-86212253D01*
X345457068Y-86229315D01*
X345437851Y-86244567D01*
X345417231Y-86257861D01*
X345395408Y-86269071D01*
X345372592Y-86278088D01*
X345349001Y-86284824D01*
X345324863Y-86289216D01*
X345300412Y-86291221D01*
X345275881Y-86290820D01*
X345251508Y-86288016D01*
X345227527Y-86282836D01*
X344358192Y-86049898D01*
X344334835Y-86042394D01*
X344312325Y-86032635D01*
X344290880Y-86020718D01*
X344270707Y-86006755D01*
X344252000Y-85990883D01*
X344234938Y-85973254D01*
X344219686Y-85954037D01*
X344206391Y-85933417D01*
X344195182Y-85911594D01*
X344186165Y-85888777D01*
X344179429Y-85865187D01*
X344175037Y-85841049D01*
X344173032Y-85816598D01*
X344173433Y-85792067D01*
X344176237Y-85767694D01*
X344181417Y-85743713D01*
X344349650Y-85115859D01*
X344357154Y-85092502D01*
X344366913Y-85069992D01*
X344378830Y-85048548D01*
X344392792Y-85028374D01*
X344408665Y-85009667D01*
X344426294Y-84992605D01*
X344445511Y-84977353D01*
X344466131Y-84964059D01*
X344487954Y-84952849D01*
X344510770Y-84943832D01*
X344534361Y-84937096D01*
X344558499Y-84932704D01*
X344582950Y-84930699D01*
X344607481Y-84931100D01*
X344607481Y-84931100D01*
G37*
D15*
X344941681Y-85610960D03*
D14*
G36*
X344076901Y-86911248D02*
G01*
X344101274Y-86914052D01*
X344125255Y-86919232D01*
X344994590Y-87152170D01*
X345017947Y-87159674D01*
X345040457Y-87169433D01*
X345061902Y-87181350D01*
X345082075Y-87195313D01*
X345100782Y-87211185D01*
X345117844Y-87228814D01*
X345133096Y-87248031D01*
X345146391Y-87268651D01*
X345157600Y-87290474D01*
X345166617Y-87313291D01*
X345173353Y-87336881D01*
X345177745Y-87361019D01*
X345179750Y-87385470D01*
X345179349Y-87410001D01*
X345176545Y-87434374D01*
X345171365Y-87458355D01*
X345003132Y-88086209D01*
X344995628Y-88109566D01*
X344985869Y-88132076D01*
X344973952Y-88153520D01*
X344959990Y-88173694D01*
X344944117Y-88192401D01*
X344926488Y-88209463D01*
X344907271Y-88224715D01*
X344886651Y-88238009D01*
X344864828Y-88249219D01*
X344842012Y-88258236D01*
X344818421Y-88264972D01*
X344794283Y-88269364D01*
X344769832Y-88271369D01*
X344745301Y-88270968D01*
X344720928Y-88268164D01*
X344696947Y-88262984D01*
X343827612Y-88030046D01*
X343804255Y-88022542D01*
X343781745Y-88012783D01*
X343760300Y-88000866D01*
X343740127Y-87986903D01*
X343721420Y-87971031D01*
X343704358Y-87953402D01*
X343689106Y-87934185D01*
X343675811Y-87913565D01*
X343664602Y-87891742D01*
X343655585Y-87868925D01*
X343648849Y-87845335D01*
X343644457Y-87821197D01*
X343642452Y-87796746D01*
X343642853Y-87772215D01*
X343645657Y-87747842D01*
X343650837Y-87723861D01*
X343819070Y-87096007D01*
X343826574Y-87072650D01*
X343836333Y-87050140D01*
X343848250Y-87028696D01*
X343862212Y-87008522D01*
X343878085Y-86989815D01*
X343895714Y-86972753D01*
X343914931Y-86957501D01*
X343935551Y-86944207D01*
X343957374Y-86932997D01*
X343980190Y-86923980D01*
X344003781Y-86917244D01*
X344027919Y-86912852D01*
X344052370Y-86910847D01*
X344076901Y-86911248D01*
X344076901Y-86911248D01*
G37*
D15*
X344411101Y-87591108D03*
D14*
G36*
X333228370Y-85737938D02*
G01*
X333252743Y-85740742D01*
X333276724Y-85745922D01*
X333904578Y-85914155D01*
X333927935Y-85921659D01*
X333950445Y-85931418D01*
X333971889Y-85943335D01*
X333992063Y-85957297D01*
X334010770Y-85973170D01*
X334027832Y-85990799D01*
X334043084Y-86010016D01*
X334056378Y-86030636D01*
X334067588Y-86052459D01*
X334076605Y-86075275D01*
X334083341Y-86098866D01*
X334087733Y-86123004D01*
X334089738Y-86147455D01*
X334089337Y-86171986D01*
X334086533Y-86196359D01*
X334081353Y-86220340D01*
X333848415Y-87089675D01*
X333840911Y-87113032D01*
X333831152Y-87135542D01*
X333819235Y-87156987D01*
X333805272Y-87177160D01*
X333789400Y-87195867D01*
X333771771Y-87212929D01*
X333752554Y-87228181D01*
X333731934Y-87241476D01*
X333710111Y-87252685D01*
X333687294Y-87261702D01*
X333663704Y-87268438D01*
X333639566Y-87272830D01*
X333615115Y-87274835D01*
X333590584Y-87274434D01*
X333566211Y-87271630D01*
X333542230Y-87266450D01*
X332914376Y-87098217D01*
X332891019Y-87090713D01*
X332868509Y-87080954D01*
X332847065Y-87069037D01*
X332826891Y-87055075D01*
X332808184Y-87039202D01*
X332791122Y-87021573D01*
X332775870Y-87002356D01*
X332762576Y-86981736D01*
X332751366Y-86959913D01*
X332742349Y-86937097D01*
X332735613Y-86913506D01*
X332731221Y-86889368D01*
X332729216Y-86864917D01*
X332729617Y-86840386D01*
X332732421Y-86816013D01*
X332737601Y-86792032D01*
X332970539Y-85922697D01*
X332978043Y-85899340D01*
X332987802Y-85876830D01*
X332999719Y-85855385D01*
X333013682Y-85835212D01*
X333029554Y-85816505D01*
X333047183Y-85799443D01*
X333066400Y-85784191D01*
X333087020Y-85770896D01*
X333108843Y-85759687D01*
X333131660Y-85750670D01*
X333155250Y-85743934D01*
X333179388Y-85739542D01*
X333203839Y-85737537D01*
X333228370Y-85737938D01*
X333228370Y-85737938D01*
G37*
D15*
X333409477Y-86506186D03*
D14*
G36*
X335208518Y-86268518D02*
G01*
X335232891Y-86271322D01*
X335256872Y-86276502D01*
X335884726Y-86444735D01*
X335908083Y-86452239D01*
X335930593Y-86461998D01*
X335952037Y-86473915D01*
X335972211Y-86487877D01*
X335990918Y-86503750D01*
X336007980Y-86521379D01*
X336023232Y-86540596D01*
X336036526Y-86561216D01*
X336047736Y-86583039D01*
X336056753Y-86605855D01*
X336063489Y-86629446D01*
X336067881Y-86653584D01*
X336069886Y-86678035D01*
X336069485Y-86702566D01*
X336066681Y-86726939D01*
X336061501Y-86750920D01*
X335828563Y-87620255D01*
X335821059Y-87643612D01*
X335811300Y-87666122D01*
X335799383Y-87687567D01*
X335785420Y-87707740D01*
X335769548Y-87726447D01*
X335751919Y-87743509D01*
X335732702Y-87758761D01*
X335712082Y-87772056D01*
X335690259Y-87783265D01*
X335667442Y-87792282D01*
X335643852Y-87799018D01*
X335619714Y-87803410D01*
X335595263Y-87805415D01*
X335570732Y-87805014D01*
X335546359Y-87802210D01*
X335522378Y-87797030D01*
X334894524Y-87628797D01*
X334871167Y-87621293D01*
X334848657Y-87611534D01*
X334827213Y-87599617D01*
X334807039Y-87585655D01*
X334788332Y-87569782D01*
X334771270Y-87552153D01*
X334756018Y-87532936D01*
X334742724Y-87512316D01*
X334731514Y-87490493D01*
X334722497Y-87467677D01*
X334715761Y-87444086D01*
X334711369Y-87419948D01*
X334709364Y-87395497D01*
X334709765Y-87370966D01*
X334712569Y-87346593D01*
X334717749Y-87322612D01*
X334950687Y-86453277D01*
X334958191Y-86429920D01*
X334967950Y-86407410D01*
X334979867Y-86385965D01*
X334993830Y-86365792D01*
X335009702Y-86347085D01*
X335027331Y-86330023D01*
X335046548Y-86314771D01*
X335067168Y-86301476D01*
X335088991Y-86290267D01*
X335111808Y-86281250D01*
X335135398Y-86274514D01*
X335159536Y-86270122D01*
X335183987Y-86268117D01*
X335208518Y-86268518D01*
X335208518Y-86268518D01*
G37*
D15*
X335389625Y-87036766D03*
D14*
G36*
X319048306Y-86960305D02*
G01*
X319072679Y-86963109D01*
X319096660Y-86968289D01*
X319724514Y-87136522D01*
X319747871Y-87144026D01*
X319770381Y-87153785D01*
X319791825Y-87165702D01*
X319811999Y-87179664D01*
X319830706Y-87195537D01*
X319847768Y-87213166D01*
X319863020Y-87232383D01*
X319876314Y-87253003D01*
X319887524Y-87274826D01*
X319896541Y-87297642D01*
X319903277Y-87321233D01*
X319907669Y-87345371D01*
X319909674Y-87369822D01*
X319909273Y-87394353D01*
X319906469Y-87418726D01*
X319901289Y-87442707D01*
X319668351Y-88312042D01*
X319660847Y-88335399D01*
X319651088Y-88357909D01*
X319639171Y-88379354D01*
X319625208Y-88399527D01*
X319609336Y-88418234D01*
X319591707Y-88435296D01*
X319572490Y-88450548D01*
X319551870Y-88463843D01*
X319530047Y-88475052D01*
X319507230Y-88484069D01*
X319483640Y-88490805D01*
X319459502Y-88495197D01*
X319435051Y-88497202D01*
X319410520Y-88496801D01*
X319386147Y-88493997D01*
X319362166Y-88488817D01*
X318734312Y-88320584D01*
X318710955Y-88313080D01*
X318688445Y-88303321D01*
X318667001Y-88291404D01*
X318646827Y-88277442D01*
X318628120Y-88261569D01*
X318611058Y-88243940D01*
X318595806Y-88224723D01*
X318582512Y-88204103D01*
X318571302Y-88182280D01*
X318562285Y-88159464D01*
X318555549Y-88135873D01*
X318551157Y-88111735D01*
X318549152Y-88087284D01*
X318549553Y-88062753D01*
X318552357Y-88038380D01*
X318557537Y-88014399D01*
X318790475Y-87145064D01*
X318797979Y-87121707D01*
X318807738Y-87099197D01*
X318819655Y-87077752D01*
X318833618Y-87057579D01*
X318849490Y-87038872D01*
X318867119Y-87021810D01*
X318886336Y-87006558D01*
X318906956Y-86993263D01*
X318928779Y-86982054D01*
X318951596Y-86973037D01*
X318975186Y-86966301D01*
X318999324Y-86961909D01*
X319023775Y-86959904D01*
X319048306Y-86960305D01*
X319048306Y-86960305D01*
G37*
D15*
X319229413Y-87728553D03*
D14*
G36*
X321028454Y-87490885D02*
G01*
X321052827Y-87493689D01*
X321076808Y-87498869D01*
X321704662Y-87667102D01*
X321728019Y-87674606D01*
X321750529Y-87684365D01*
X321771973Y-87696282D01*
X321792147Y-87710244D01*
X321810854Y-87726117D01*
X321827916Y-87743746D01*
X321843168Y-87762963D01*
X321856462Y-87783583D01*
X321867672Y-87805406D01*
X321876689Y-87828222D01*
X321883425Y-87851813D01*
X321887817Y-87875951D01*
X321889822Y-87900402D01*
X321889421Y-87924933D01*
X321886617Y-87949306D01*
X321881437Y-87973287D01*
X321648499Y-88842622D01*
X321640995Y-88865979D01*
X321631236Y-88888489D01*
X321619319Y-88909934D01*
X321605356Y-88930107D01*
X321589484Y-88948814D01*
X321571855Y-88965876D01*
X321552638Y-88981128D01*
X321532018Y-88994423D01*
X321510195Y-89005632D01*
X321487378Y-89014649D01*
X321463788Y-89021385D01*
X321439650Y-89025777D01*
X321415199Y-89027782D01*
X321390668Y-89027381D01*
X321366295Y-89024577D01*
X321342314Y-89019397D01*
X320714460Y-88851164D01*
X320691103Y-88843660D01*
X320668593Y-88833901D01*
X320647149Y-88821984D01*
X320626975Y-88808022D01*
X320608268Y-88792149D01*
X320591206Y-88774520D01*
X320575954Y-88755303D01*
X320562660Y-88734683D01*
X320551450Y-88712860D01*
X320542433Y-88690044D01*
X320535697Y-88666453D01*
X320531305Y-88642315D01*
X320529300Y-88617864D01*
X320529701Y-88593333D01*
X320532505Y-88568960D01*
X320537685Y-88544979D01*
X320770623Y-87675644D01*
X320778127Y-87652287D01*
X320787886Y-87629777D01*
X320799803Y-87608332D01*
X320813766Y-87588159D01*
X320829638Y-87569452D01*
X320847267Y-87552390D01*
X320866484Y-87537138D01*
X320887104Y-87523843D01*
X320908927Y-87512634D01*
X320931744Y-87503617D01*
X320955334Y-87496881D01*
X320979472Y-87492489D01*
X321003923Y-87490484D01*
X321028454Y-87490885D01*
X321028454Y-87490885D01*
G37*
D15*
X321209561Y-88259133D03*
D14*
G36*
X319653943Y-84700041D02*
G01*
X319678316Y-84702845D01*
X319702297Y-84708025D01*
X320330151Y-84876258D01*
X320353508Y-84883762D01*
X320376018Y-84893521D01*
X320397462Y-84905438D01*
X320417636Y-84919400D01*
X320436343Y-84935273D01*
X320453405Y-84952902D01*
X320468657Y-84972119D01*
X320481951Y-84992739D01*
X320493161Y-85014562D01*
X320502178Y-85037378D01*
X320508914Y-85060969D01*
X320513306Y-85085107D01*
X320515311Y-85109558D01*
X320514910Y-85134089D01*
X320512106Y-85158462D01*
X320506926Y-85182443D01*
X320273988Y-86051778D01*
X320266484Y-86075135D01*
X320256725Y-86097645D01*
X320244808Y-86119090D01*
X320230845Y-86139263D01*
X320214973Y-86157970D01*
X320197344Y-86175032D01*
X320178127Y-86190284D01*
X320157507Y-86203579D01*
X320135684Y-86214788D01*
X320112867Y-86223805D01*
X320089277Y-86230541D01*
X320065139Y-86234933D01*
X320040688Y-86236938D01*
X320016157Y-86236537D01*
X319991784Y-86233733D01*
X319967803Y-86228553D01*
X319339949Y-86060320D01*
X319316592Y-86052816D01*
X319294082Y-86043057D01*
X319272638Y-86031140D01*
X319252464Y-86017178D01*
X319233757Y-86001305D01*
X319216695Y-85983676D01*
X319201443Y-85964459D01*
X319188149Y-85943839D01*
X319176939Y-85922016D01*
X319167922Y-85899200D01*
X319161186Y-85875609D01*
X319156794Y-85851471D01*
X319154789Y-85827020D01*
X319155190Y-85802489D01*
X319157994Y-85778116D01*
X319163174Y-85754135D01*
X319396112Y-84884800D01*
X319403616Y-84861443D01*
X319413375Y-84838933D01*
X319425292Y-84817488D01*
X319439255Y-84797315D01*
X319455127Y-84778608D01*
X319472756Y-84761546D01*
X319491973Y-84746294D01*
X319512593Y-84732999D01*
X319534416Y-84721790D01*
X319557233Y-84712773D01*
X319580823Y-84706037D01*
X319604961Y-84701645D01*
X319629412Y-84699640D01*
X319653943Y-84700041D01*
X319653943Y-84700041D01*
G37*
D15*
X319835050Y-85468289D03*
D14*
G36*
X321634091Y-85230621D02*
G01*
X321658464Y-85233425D01*
X321682445Y-85238605D01*
X322310299Y-85406838D01*
X322333656Y-85414342D01*
X322356166Y-85424101D01*
X322377610Y-85436018D01*
X322397784Y-85449980D01*
X322416491Y-85465853D01*
X322433553Y-85483482D01*
X322448805Y-85502699D01*
X322462099Y-85523319D01*
X322473309Y-85545142D01*
X322482326Y-85567958D01*
X322489062Y-85591549D01*
X322493454Y-85615687D01*
X322495459Y-85640138D01*
X322495058Y-85664669D01*
X322492254Y-85689042D01*
X322487074Y-85713023D01*
X322254136Y-86582358D01*
X322246632Y-86605715D01*
X322236873Y-86628225D01*
X322224956Y-86649670D01*
X322210993Y-86669843D01*
X322195121Y-86688550D01*
X322177492Y-86705612D01*
X322158275Y-86720864D01*
X322137655Y-86734159D01*
X322115832Y-86745368D01*
X322093015Y-86754385D01*
X322069425Y-86761121D01*
X322045287Y-86765513D01*
X322020836Y-86767518D01*
X321996305Y-86767117D01*
X321971932Y-86764313D01*
X321947951Y-86759133D01*
X321320097Y-86590900D01*
X321296740Y-86583396D01*
X321274230Y-86573637D01*
X321252786Y-86561720D01*
X321232612Y-86547758D01*
X321213905Y-86531885D01*
X321196843Y-86514256D01*
X321181591Y-86495039D01*
X321168297Y-86474419D01*
X321157087Y-86452596D01*
X321148070Y-86429780D01*
X321141334Y-86406189D01*
X321136942Y-86382051D01*
X321134937Y-86357600D01*
X321135338Y-86333069D01*
X321138142Y-86308696D01*
X321143322Y-86284715D01*
X321376260Y-85415380D01*
X321383764Y-85392023D01*
X321393523Y-85369513D01*
X321405440Y-85348068D01*
X321419403Y-85327895D01*
X321435275Y-85309188D01*
X321452904Y-85292126D01*
X321472121Y-85276874D01*
X321492741Y-85263579D01*
X321514564Y-85252370D01*
X321537381Y-85243353D01*
X321560971Y-85236617D01*
X321585109Y-85232225D01*
X321609560Y-85230220D01*
X321634091Y-85230621D01*
X321634091Y-85230621D01*
G37*
D15*
X321815198Y-85998869D03*
D14*
G36*
X320259579Y-82439772D02*
G01*
X320283952Y-82442576D01*
X320307933Y-82447756D01*
X320935787Y-82615989D01*
X320959144Y-82623493D01*
X320981654Y-82633252D01*
X321003098Y-82645169D01*
X321023272Y-82659131D01*
X321041979Y-82675004D01*
X321059041Y-82692633D01*
X321074293Y-82711850D01*
X321087587Y-82732470D01*
X321098797Y-82754293D01*
X321107814Y-82777109D01*
X321114550Y-82800700D01*
X321118942Y-82824838D01*
X321120947Y-82849289D01*
X321120546Y-82873820D01*
X321117742Y-82898193D01*
X321112562Y-82922174D01*
X320879624Y-83791509D01*
X320872120Y-83814866D01*
X320862361Y-83837376D01*
X320850444Y-83858821D01*
X320836481Y-83878994D01*
X320820609Y-83897701D01*
X320802980Y-83914763D01*
X320783763Y-83930015D01*
X320763143Y-83943310D01*
X320741320Y-83954519D01*
X320718503Y-83963536D01*
X320694913Y-83970272D01*
X320670775Y-83974664D01*
X320646324Y-83976669D01*
X320621793Y-83976268D01*
X320597420Y-83973464D01*
X320573439Y-83968284D01*
X319945585Y-83800051D01*
X319922228Y-83792547D01*
X319899718Y-83782788D01*
X319878274Y-83770871D01*
X319858100Y-83756909D01*
X319839393Y-83741036D01*
X319822331Y-83723407D01*
X319807079Y-83704190D01*
X319793785Y-83683570D01*
X319782575Y-83661747D01*
X319773558Y-83638931D01*
X319766822Y-83615340D01*
X319762430Y-83591202D01*
X319760425Y-83566751D01*
X319760826Y-83542220D01*
X319763630Y-83517847D01*
X319768810Y-83493866D01*
X320001748Y-82624531D01*
X320009252Y-82601174D01*
X320019011Y-82578664D01*
X320030928Y-82557219D01*
X320044891Y-82537046D01*
X320060763Y-82518339D01*
X320078392Y-82501277D01*
X320097609Y-82486025D01*
X320118229Y-82472730D01*
X320140052Y-82461521D01*
X320162869Y-82452504D01*
X320186459Y-82445768D01*
X320210597Y-82441376D01*
X320235048Y-82439371D01*
X320259579Y-82439772D01*
X320259579Y-82439772D01*
G37*
D15*
X320440686Y-83208020D03*
D14*
G36*
X322239727Y-82970352D02*
G01*
X322264100Y-82973156D01*
X322288081Y-82978336D01*
X322915935Y-83146569D01*
X322939292Y-83154073D01*
X322961802Y-83163832D01*
X322983246Y-83175749D01*
X323003420Y-83189711D01*
X323022127Y-83205584D01*
X323039189Y-83223213D01*
X323054441Y-83242430D01*
X323067735Y-83263050D01*
X323078945Y-83284873D01*
X323087962Y-83307689D01*
X323094698Y-83331280D01*
X323099090Y-83355418D01*
X323101095Y-83379869D01*
X323100694Y-83404400D01*
X323097890Y-83428773D01*
X323092710Y-83452754D01*
X322859772Y-84322089D01*
X322852268Y-84345446D01*
X322842509Y-84367956D01*
X322830592Y-84389401D01*
X322816629Y-84409574D01*
X322800757Y-84428281D01*
X322783128Y-84445343D01*
X322763911Y-84460595D01*
X322743291Y-84473890D01*
X322721468Y-84485099D01*
X322698651Y-84494116D01*
X322675061Y-84500852D01*
X322650923Y-84505244D01*
X322626472Y-84507249D01*
X322601941Y-84506848D01*
X322577568Y-84504044D01*
X322553587Y-84498864D01*
X321925733Y-84330631D01*
X321902376Y-84323127D01*
X321879866Y-84313368D01*
X321858422Y-84301451D01*
X321838248Y-84287489D01*
X321819541Y-84271616D01*
X321802479Y-84253987D01*
X321787227Y-84234770D01*
X321773933Y-84214150D01*
X321762723Y-84192327D01*
X321753706Y-84169511D01*
X321746970Y-84145920D01*
X321742578Y-84121782D01*
X321740573Y-84097331D01*
X321740974Y-84072800D01*
X321743778Y-84048427D01*
X321748958Y-84024446D01*
X321981896Y-83155111D01*
X321989400Y-83131754D01*
X321999159Y-83109244D01*
X322011076Y-83087799D01*
X322025039Y-83067626D01*
X322040911Y-83048919D01*
X322058540Y-83031857D01*
X322077757Y-83016605D01*
X322098377Y-83003310D01*
X322120200Y-82992101D01*
X322143017Y-82983084D01*
X322166607Y-82976348D01*
X322190745Y-82971956D01*
X322215196Y-82969951D01*
X322239727Y-82970352D01*
X322239727Y-82970352D01*
G37*
D15*
X322420834Y-83738600D03*
D14*
G36*
X320865216Y-80179508D02*
G01*
X320889589Y-80182312D01*
X320913570Y-80187492D01*
X321541424Y-80355725D01*
X321564781Y-80363229D01*
X321587291Y-80372988D01*
X321608735Y-80384905D01*
X321628909Y-80398867D01*
X321647616Y-80414740D01*
X321664678Y-80432369D01*
X321679930Y-80451586D01*
X321693224Y-80472206D01*
X321704434Y-80494029D01*
X321713451Y-80516845D01*
X321720187Y-80540436D01*
X321724579Y-80564574D01*
X321726584Y-80589025D01*
X321726183Y-80613556D01*
X321723379Y-80637929D01*
X321718199Y-80661910D01*
X321485261Y-81531245D01*
X321477757Y-81554602D01*
X321467998Y-81577112D01*
X321456081Y-81598557D01*
X321442118Y-81618730D01*
X321426246Y-81637437D01*
X321408617Y-81654499D01*
X321389400Y-81669751D01*
X321368780Y-81683046D01*
X321346957Y-81694255D01*
X321324140Y-81703272D01*
X321300550Y-81710008D01*
X321276412Y-81714400D01*
X321251961Y-81716405D01*
X321227430Y-81716004D01*
X321203057Y-81713200D01*
X321179076Y-81708020D01*
X320551222Y-81539787D01*
X320527865Y-81532283D01*
X320505355Y-81522524D01*
X320483911Y-81510607D01*
X320463737Y-81496645D01*
X320445030Y-81480772D01*
X320427968Y-81463143D01*
X320412716Y-81443926D01*
X320399422Y-81423306D01*
X320388212Y-81401483D01*
X320379195Y-81378667D01*
X320372459Y-81355076D01*
X320368067Y-81330938D01*
X320366062Y-81306487D01*
X320366463Y-81281956D01*
X320369267Y-81257583D01*
X320374447Y-81233602D01*
X320607385Y-80364267D01*
X320614889Y-80340910D01*
X320624648Y-80318400D01*
X320636565Y-80296955D01*
X320650528Y-80276782D01*
X320666400Y-80258075D01*
X320684029Y-80241013D01*
X320703246Y-80225761D01*
X320723866Y-80212466D01*
X320745689Y-80201257D01*
X320768506Y-80192240D01*
X320792096Y-80185504D01*
X320816234Y-80181112D01*
X320840685Y-80179107D01*
X320865216Y-80179508D01*
X320865216Y-80179508D01*
G37*
D15*
X321046323Y-80947756D03*
D14*
G36*
X322845364Y-80710088D02*
G01*
X322869737Y-80712892D01*
X322893718Y-80718072D01*
X323521572Y-80886305D01*
X323544929Y-80893809D01*
X323567439Y-80903568D01*
X323588883Y-80915485D01*
X323609057Y-80929447D01*
X323627764Y-80945320D01*
X323644826Y-80962949D01*
X323660078Y-80982166D01*
X323673372Y-81002786D01*
X323684582Y-81024609D01*
X323693599Y-81047425D01*
X323700335Y-81071016D01*
X323704727Y-81095154D01*
X323706732Y-81119605D01*
X323706331Y-81144136D01*
X323703527Y-81168509D01*
X323698347Y-81192490D01*
X323465409Y-82061825D01*
X323457905Y-82085182D01*
X323448146Y-82107692D01*
X323436229Y-82129137D01*
X323422266Y-82149310D01*
X323406394Y-82168017D01*
X323388765Y-82185079D01*
X323369548Y-82200331D01*
X323348928Y-82213626D01*
X323327105Y-82224835D01*
X323304288Y-82233852D01*
X323280698Y-82240588D01*
X323256560Y-82244980D01*
X323232109Y-82246985D01*
X323207578Y-82246584D01*
X323183205Y-82243780D01*
X323159224Y-82238600D01*
X322531370Y-82070367D01*
X322508013Y-82062863D01*
X322485503Y-82053104D01*
X322464059Y-82041187D01*
X322443885Y-82027225D01*
X322425178Y-82011352D01*
X322408116Y-81993723D01*
X322392864Y-81974506D01*
X322379570Y-81953886D01*
X322368360Y-81932063D01*
X322359343Y-81909247D01*
X322352607Y-81885656D01*
X322348215Y-81861518D01*
X322346210Y-81837067D01*
X322346611Y-81812536D01*
X322349415Y-81788163D01*
X322354595Y-81764182D01*
X322587533Y-80894847D01*
X322595037Y-80871490D01*
X322604796Y-80848980D01*
X322616713Y-80827535D01*
X322630676Y-80807362D01*
X322646548Y-80788655D01*
X322664177Y-80771593D01*
X322683394Y-80756341D01*
X322704014Y-80743046D01*
X322725837Y-80731837D01*
X322748654Y-80722820D01*
X322772244Y-80716084D01*
X322796382Y-80711692D01*
X322820833Y-80709687D01*
X322845364Y-80710088D01*
X322845364Y-80710088D01*
G37*
D15*
X323026471Y-81478336D03*
D14*
G36*
X214158220Y-32610824D02*
G01*
X214182488Y-32614424D01*
X214206287Y-32620385D01*
X214229386Y-32628650D01*
X214251565Y-32639140D01*
X214272608Y-32651752D01*
X214292314Y-32666367D01*
X214310492Y-32682843D01*
X214326968Y-32701021D01*
X214341583Y-32720727D01*
X214354195Y-32741770D01*
X214364685Y-32763949D01*
X214372950Y-32787048D01*
X214378911Y-32810847D01*
X214382511Y-32835115D01*
X214383715Y-32859619D01*
X214383715Y-33759621D01*
X214382511Y-33784125D01*
X214378911Y-33808393D01*
X214372950Y-33832192D01*
X214364685Y-33855291D01*
X214354195Y-33877470D01*
X214341583Y-33898513D01*
X214326968Y-33918219D01*
X214310492Y-33936397D01*
X214292314Y-33952873D01*
X214272608Y-33967488D01*
X214251565Y-33980100D01*
X214229386Y-33990590D01*
X214206287Y-33998855D01*
X214182488Y-34004816D01*
X214158220Y-34008416D01*
X214133716Y-34009620D01*
X213483714Y-34009620D01*
X213459210Y-34008416D01*
X213434942Y-34004816D01*
X213411143Y-33998855D01*
X213388044Y-33990590D01*
X213365865Y-33980100D01*
X213344822Y-33967488D01*
X213325116Y-33952873D01*
X213306938Y-33936397D01*
X213290462Y-33918219D01*
X213275847Y-33898513D01*
X213263235Y-33877470D01*
X213252745Y-33855291D01*
X213244480Y-33832192D01*
X213238519Y-33808393D01*
X213234919Y-33784125D01*
X213233715Y-33759621D01*
X213233715Y-32859619D01*
X213234919Y-32835115D01*
X213238519Y-32810847D01*
X213244480Y-32787048D01*
X213252745Y-32763949D01*
X213263235Y-32741770D01*
X213275847Y-32720727D01*
X213290462Y-32701021D01*
X213306938Y-32682843D01*
X213325116Y-32666367D01*
X213344822Y-32651752D01*
X213365865Y-32639140D01*
X213388044Y-32628650D01*
X213411143Y-32620385D01*
X213434942Y-32614424D01*
X213459210Y-32610824D01*
X213483714Y-32609620D01*
X214133716Y-32609620D01*
X214158220Y-32610824D01*
X214158220Y-32610824D01*
G37*
D15*
X213808715Y-33309620D03*
D14*
G36*
X216208220Y-32610824D02*
G01*
X216232488Y-32614424D01*
X216256287Y-32620385D01*
X216279386Y-32628650D01*
X216301565Y-32639140D01*
X216322608Y-32651752D01*
X216342314Y-32666367D01*
X216360492Y-32682843D01*
X216376968Y-32701021D01*
X216391583Y-32720727D01*
X216404195Y-32741770D01*
X216414685Y-32763949D01*
X216422950Y-32787048D01*
X216428911Y-32810847D01*
X216432511Y-32835115D01*
X216433715Y-32859619D01*
X216433715Y-33759621D01*
X216432511Y-33784125D01*
X216428911Y-33808393D01*
X216422950Y-33832192D01*
X216414685Y-33855291D01*
X216404195Y-33877470D01*
X216391583Y-33898513D01*
X216376968Y-33918219D01*
X216360492Y-33936397D01*
X216342314Y-33952873D01*
X216322608Y-33967488D01*
X216301565Y-33980100D01*
X216279386Y-33990590D01*
X216256287Y-33998855D01*
X216232488Y-34004816D01*
X216208220Y-34008416D01*
X216183716Y-34009620D01*
X215533714Y-34009620D01*
X215509210Y-34008416D01*
X215484942Y-34004816D01*
X215461143Y-33998855D01*
X215438044Y-33990590D01*
X215415865Y-33980100D01*
X215394822Y-33967488D01*
X215375116Y-33952873D01*
X215356938Y-33936397D01*
X215340462Y-33918219D01*
X215325847Y-33898513D01*
X215313235Y-33877470D01*
X215302745Y-33855291D01*
X215294480Y-33832192D01*
X215288519Y-33808393D01*
X215284919Y-33784125D01*
X215283715Y-33759621D01*
X215283715Y-32859619D01*
X215284919Y-32835115D01*
X215288519Y-32810847D01*
X215294480Y-32787048D01*
X215302745Y-32763949D01*
X215313235Y-32741770D01*
X215325847Y-32720727D01*
X215340462Y-32701021D01*
X215356938Y-32682843D01*
X215375116Y-32666367D01*
X215394822Y-32651752D01*
X215415865Y-32639140D01*
X215438044Y-32628650D01*
X215461143Y-32620385D01*
X215484942Y-32614424D01*
X215509210Y-32610824D01*
X215533714Y-32609620D01*
X216183716Y-32609620D01*
X216208220Y-32610824D01*
X216208220Y-32610824D01*
G37*
D15*
X215858715Y-33309620D03*
D14*
G36*
X242093396Y-34204736D02*
G01*
X242117664Y-34208336D01*
X242141463Y-34214297D01*
X242164562Y-34222562D01*
X242186741Y-34233052D01*
X242207784Y-34245664D01*
X242227490Y-34260279D01*
X242245668Y-34276755D01*
X242262144Y-34294933D01*
X242276759Y-34314639D01*
X242289371Y-34335682D01*
X242299861Y-34357861D01*
X242308126Y-34380960D01*
X242314087Y-34404759D01*
X242317687Y-34429027D01*
X242318891Y-34453531D01*
X242318891Y-35103533D01*
X242317687Y-35128037D01*
X242314087Y-35152305D01*
X242308126Y-35176104D01*
X242299861Y-35199203D01*
X242289371Y-35221382D01*
X242276759Y-35242425D01*
X242262144Y-35262131D01*
X242245668Y-35280309D01*
X242227490Y-35296785D01*
X242207784Y-35311400D01*
X242186741Y-35324012D01*
X242164562Y-35334502D01*
X242141463Y-35342767D01*
X242117664Y-35348728D01*
X242093396Y-35352328D01*
X242068892Y-35353532D01*
X241168890Y-35353532D01*
X241144386Y-35352328D01*
X241120118Y-35348728D01*
X241096319Y-35342767D01*
X241073220Y-35334502D01*
X241051041Y-35324012D01*
X241029998Y-35311400D01*
X241010292Y-35296785D01*
X240992114Y-35280309D01*
X240975638Y-35262131D01*
X240961023Y-35242425D01*
X240948411Y-35221382D01*
X240937921Y-35199203D01*
X240929656Y-35176104D01*
X240923695Y-35152305D01*
X240920095Y-35128037D01*
X240918891Y-35103533D01*
X240918891Y-34453531D01*
X240920095Y-34429027D01*
X240923695Y-34404759D01*
X240929656Y-34380960D01*
X240937921Y-34357861D01*
X240948411Y-34335682D01*
X240961023Y-34314639D01*
X240975638Y-34294933D01*
X240992114Y-34276755D01*
X241010292Y-34260279D01*
X241029998Y-34245664D01*
X241051041Y-34233052D01*
X241073220Y-34222562D01*
X241096319Y-34214297D01*
X241120118Y-34208336D01*
X241144386Y-34204736D01*
X241168890Y-34203532D01*
X242068892Y-34203532D01*
X242093396Y-34204736D01*
X242093396Y-34204736D01*
G37*
D15*
X241618891Y-34778532D03*
D14*
G36*
X242093396Y-36254736D02*
G01*
X242117664Y-36258336D01*
X242141463Y-36264297D01*
X242164562Y-36272562D01*
X242186741Y-36283052D01*
X242207784Y-36295664D01*
X242227490Y-36310279D01*
X242245668Y-36326755D01*
X242262144Y-36344933D01*
X242276759Y-36364639D01*
X242289371Y-36385682D01*
X242299861Y-36407861D01*
X242308126Y-36430960D01*
X242314087Y-36454759D01*
X242317687Y-36479027D01*
X242318891Y-36503531D01*
X242318891Y-37153533D01*
X242317687Y-37178037D01*
X242314087Y-37202305D01*
X242308126Y-37226104D01*
X242299861Y-37249203D01*
X242289371Y-37271382D01*
X242276759Y-37292425D01*
X242262144Y-37312131D01*
X242245668Y-37330309D01*
X242227490Y-37346785D01*
X242207784Y-37361400D01*
X242186741Y-37374012D01*
X242164562Y-37384502D01*
X242141463Y-37392767D01*
X242117664Y-37398728D01*
X242093396Y-37402328D01*
X242068892Y-37403532D01*
X241168890Y-37403532D01*
X241144386Y-37402328D01*
X241120118Y-37398728D01*
X241096319Y-37392767D01*
X241073220Y-37384502D01*
X241051041Y-37374012D01*
X241029998Y-37361400D01*
X241010292Y-37346785D01*
X240992114Y-37330309D01*
X240975638Y-37312131D01*
X240961023Y-37292425D01*
X240948411Y-37271382D01*
X240937921Y-37249203D01*
X240929656Y-37226104D01*
X240923695Y-37202305D01*
X240920095Y-37178037D01*
X240918891Y-37153533D01*
X240918891Y-36503531D01*
X240920095Y-36479027D01*
X240923695Y-36454759D01*
X240929656Y-36430960D01*
X240937921Y-36407861D01*
X240948411Y-36385682D01*
X240961023Y-36364639D01*
X240975638Y-36344933D01*
X240992114Y-36326755D01*
X241010292Y-36310279D01*
X241029998Y-36295664D01*
X241051041Y-36283052D01*
X241073220Y-36272562D01*
X241096319Y-36264297D01*
X241120118Y-36258336D01*
X241144386Y-36254736D01*
X241168890Y-36253532D01*
X242068892Y-36253532D01*
X242093396Y-36254736D01*
X242093396Y-36254736D01*
G37*
D15*
X241618891Y-36828532D03*
D14*
G36*
X239753396Y-34204738D02*
G01*
X239777664Y-34208338D01*
X239801463Y-34214299D01*
X239824562Y-34222564D01*
X239846741Y-34233054D01*
X239867784Y-34245666D01*
X239887490Y-34260281D01*
X239905668Y-34276757D01*
X239922144Y-34294935D01*
X239936759Y-34314641D01*
X239949371Y-34335684D01*
X239959861Y-34357863D01*
X239968126Y-34380962D01*
X239974087Y-34404761D01*
X239977687Y-34429029D01*
X239978891Y-34453533D01*
X239978891Y-35103535D01*
X239977687Y-35128039D01*
X239974087Y-35152307D01*
X239968126Y-35176106D01*
X239959861Y-35199205D01*
X239949371Y-35221384D01*
X239936759Y-35242427D01*
X239922144Y-35262133D01*
X239905668Y-35280311D01*
X239887490Y-35296787D01*
X239867784Y-35311402D01*
X239846741Y-35324014D01*
X239824562Y-35334504D01*
X239801463Y-35342769D01*
X239777664Y-35348730D01*
X239753396Y-35352330D01*
X239728892Y-35353534D01*
X238828890Y-35353534D01*
X238804386Y-35352330D01*
X238780118Y-35348730D01*
X238756319Y-35342769D01*
X238733220Y-35334504D01*
X238711041Y-35324014D01*
X238689998Y-35311402D01*
X238670292Y-35296787D01*
X238652114Y-35280311D01*
X238635638Y-35262133D01*
X238621023Y-35242427D01*
X238608411Y-35221384D01*
X238597921Y-35199205D01*
X238589656Y-35176106D01*
X238583695Y-35152307D01*
X238580095Y-35128039D01*
X238578891Y-35103535D01*
X238578891Y-34453533D01*
X238580095Y-34429029D01*
X238583695Y-34404761D01*
X238589656Y-34380962D01*
X238597921Y-34357863D01*
X238608411Y-34335684D01*
X238621023Y-34314641D01*
X238635638Y-34294935D01*
X238652114Y-34276757D01*
X238670292Y-34260281D01*
X238689998Y-34245666D01*
X238711041Y-34233054D01*
X238733220Y-34222564D01*
X238756319Y-34214299D01*
X238780118Y-34208338D01*
X238804386Y-34204738D01*
X238828890Y-34203534D01*
X239728892Y-34203534D01*
X239753396Y-34204738D01*
X239753396Y-34204738D01*
G37*
D15*
X239278891Y-34778534D03*
D14*
G36*
X239753396Y-36254738D02*
G01*
X239777664Y-36258338D01*
X239801463Y-36264299D01*
X239824562Y-36272564D01*
X239846741Y-36283054D01*
X239867784Y-36295666D01*
X239887490Y-36310281D01*
X239905668Y-36326757D01*
X239922144Y-36344935D01*
X239936759Y-36364641D01*
X239949371Y-36385684D01*
X239959861Y-36407863D01*
X239968126Y-36430962D01*
X239974087Y-36454761D01*
X239977687Y-36479029D01*
X239978891Y-36503533D01*
X239978891Y-37153535D01*
X239977687Y-37178039D01*
X239974087Y-37202307D01*
X239968126Y-37226106D01*
X239959861Y-37249205D01*
X239949371Y-37271384D01*
X239936759Y-37292427D01*
X239922144Y-37312133D01*
X239905668Y-37330311D01*
X239887490Y-37346787D01*
X239867784Y-37361402D01*
X239846741Y-37374014D01*
X239824562Y-37384504D01*
X239801463Y-37392769D01*
X239777664Y-37398730D01*
X239753396Y-37402330D01*
X239728892Y-37403534D01*
X238828890Y-37403534D01*
X238804386Y-37402330D01*
X238780118Y-37398730D01*
X238756319Y-37392769D01*
X238733220Y-37384504D01*
X238711041Y-37374014D01*
X238689998Y-37361402D01*
X238670292Y-37346787D01*
X238652114Y-37330311D01*
X238635638Y-37312133D01*
X238621023Y-37292427D01*
X238608411Y-37271384D01*
X238597921Y-37249205D01*
X238589656Y-37226106D01*
X238583695Y-37202307D01*
X238580095Y-37178039D01*
X238578891Y-37153535D01*
X238578891Y-36503533D01*
X238580095Y-36479029D01*
X238583695Y-36454761D01*
X238589656Y-36430962D01*
X238597921Y-36407863D01*
X238608411Y-36385684D01*
X238621023Y-36364641D01*
X238635638Y-36344935D01*
X238652114Y-36326757D01*
X238670292Y-36310281D01*
X238689998Y-36295666D01*
X238711041Y-36283054D01*
X238733220Y-36272564D01*
X238756319Y-36264299D01*
X238780118Y-36258338D01*
X238804386Y-36254738D01*
X238828890Y-36253534D01*
X239728892Y-36253534D01*
X239753396Y-36254738D01*
X239753396Y-36254738D01*
G37*
D15*
X239278891Y-36828534D03*
D14*
G36*
X268738220Y-38245824D02*
G01*
X268762488Y-38249424D01*
X268786287Y-38255385D01*
X268809386Y-38263650D01*
X268831565Y-38274140D01*
X268852608Y-38286752D01*
X268872314Y-38301367D01*
X268890492Y-38317843D01*
X268906968Y-38336021D01*
X268921583Y-38355727D01*
X268934195Y-38376770D01*
X268944685Y-38398949D01*
X268952950Y-38422048D01*
X268958911Y-38445847D01*
X268962511Y-38470115D01*
X268963715Y-38494619D01*
X268963715Y-39144621D01*
X268962511Y-39169125D01*
X268958911Y-39193393D01*
X268952950Y-39217192D01*
X268944685Y-39240291D01*
X268934195Y-39262470D01*
X268921583Y-39283513D01*
X268906968Y-39303219D01*
X268890492Y-39321397D01*
X268872314Y-39337873D01*
X268852608Y-39352488D01*
X268831565Y-39365100D01*
X268809386Y-39375590D01*
X268786287Y-39383855D01*
X268762488Y-39389816D01*
X268738220Y-39393416D01*
X268713716Y-39394620D01*
X267813714Y-39394620D01*
X267789210Y-39393416D01*
X267764942Y-39389816D01*
X267741143Y-39383855D01*
X267718044Y-39375590D01*
X267695865Y-39365100D01*
X267674822Y-39352488D01*
X267655116Y-39337873D01*
X267636938Y-39321397D01*
X267620462Y-39303219D01*
X267605847Y-39283513D01*
X267593235Y-39262470D01*
X267582745Y-39240291D01*
X267574480Y-39217192D01*
X267568519Y-39193393D01*
X267564919Y-39169125D01*
X267563715Y-39144621D01*
X267563715Y-38494619D01*
X267564919Y-38470115D01*
X267568519Y-38445847D01*
X267574480Y-38422048D01*
X267582745Y-38398949D01*
X267593235Y-38376770D01*
X267605847Y-38355727D01*
X267620462Y-38336021D01*
X267636938Y-38317843D01*
X267655116Y-38301367D01*
X267674822Y-38286752D01*
X267695865Y-38274140D01*
X267718044Y-38263650D01*
X267741143Y-38255385D01*
X267764942Y-38249424D01*
X267789210Y-38245824D01*
X267813714Y-38244620D01*
X268713716Y-38244620D01*
X268738220Y-38245824D01*
X268738220Y-38245824D01*
G37*
D15*
X268263715Y-38819620D03*
D14*
G36*
X268738220Y-36195824D02*
G01*
X268762488Y-36199424D01*
X268786287Y-36205385D01*
X268809386Y-36213650D01*
X268831565Y-36224140D01*
X268852608Y-36236752D01*
X268872314Y-36251367D01*
X268890492Y-36267843D01*
X268906968Y-36286021D01*
X268921583Y-36305727D01*
X268934195Y-36326770D01*
X268944685Y-36348949D01*
X268952950Y-36372048D01*
X268958911Y-36395847D01*
X268962511Y-36420115D01*
X268963715Y-36444619D01*
X268963715Y-37094621D01*
X268962511Y-37119125D01*
X268958911Y-37143393D01*
X268952950Y-37167192D01*
X268944685Y-37190291D01*
X268934195Y-37212470D01*
X268921583Y-37233513D01*
X268906968Y-37253219D01*
X268890492Y-37271397D01*
X268872314Y-37287873D01*
X268852608Y-37302488D01*
X268831565Y-37315100D01*
X268809386Y-37325590D01*
X268786287Y-37333855D01*
X268762488Y-37339816D01*
X268738220Y-37343416D01*
X268713716Y-37344620D01*
X267813714Y-37344620D01*
X267789210Y-37343416D01*
X267764942Y-37339816D01*
X267741143Y-37333855D01*
X267718044Y-37325590D01*
X267695865Y-37315100D01*
X267674822Y-37302488D01*
X267655116Y-37287873D01*
X267636938Y-37271397D01*
X267620462Y-37253219D01*
X267605847Y-37233513D01*
X267593235Y-37212470D01*
X267582745Y-37190291D01*
X267574480Y-37167192D01*
X267568519Y-37143393D01*
X267564919Y-37119125D01*
X267563715Y-37094621D01*
X267563715Y-36444619D01*
X267564919Y-36420115D01*
X267568519Y-36395847D01*
X267574480Y-36372048D01*
X267582745Y-36348949D01*
X267593235Y-36326770D01*
X267605847Y-36305727D01*
X267620462Y-36286021D01*
X267636938Y-36267843D01*
X267655116Y-36251367D01*
X267674822Y-36236752D01*
X267695865Y-36224140D01*
X267718044Y-36213650D01*
X267741143Y-36205385D01*
X267764942Y-36199424D01*
X267789210Y-36195824D01*
X267813714Y-36194620D01*
X268713716Y-36194620D01*
X268738220Y-36195824D01*
X268738220Y-36195824D01*
G37*
D15*
X268263715Y-36769620D03*
D26*
X330549676Y-85605318D03*
D14*
G36*
X329682881Y-85942463D02*
G01*
X329825232Y-85411204D01*
X329825813Y-85411360D01*
X329832163Y-85387662D01*
X329849447Y-85341739D01*
X329871149Y-85297732D01*
X329897060Y-85256063D01*
X329926931Y-85217135D01*
X329960473Y-85181323D01*
X329997364Y-85148969D01*
X330037248Y-85120389D01*
X330079743Y-85095855D01*
X330124436Y-85075604D01*
X330170901Y-85059833D01*
X330218686Y-85048690D01*
X330267334Y-85042286D01*
X330316376Y-85040680D01*
X330365338Y-85043890D01*
X330413750Y-85051882D01*
X330437448Y-85058232D01*
X330437604Y-85057650D01*
X330920567Y-85187060D01*
X330920411Y-85187641D01*
X330944109Y-85193991D01*
X330990031Y-85211276D01*
X331034039Y-85232977D01*
X331075708Y-85258889D01*
X331114636Y-85288759D01*
X331150448Y-85322302D01*
X331182801Y-85359192D01*
X331211381Y-85399076D01*
X331235916Y-85441571D01*
X331256166Y-85486265D01*
X331271938Y-85532729D01*
X331283081Y-85580514D01*
X331289485Y-85629162D01*
X331291091Y-85678204D01*
X331287881Y-85727166D01*
X331279889Y-85775578D01*
X331273539Y-85799276D01*
X331274120Y-85799432D01*
X331131770Y-86330691D01*
X329682881Y-85942463D01*
X329682881Y-85942463D01*
G37*
D26*
X329876746Y-88116726D03*
D14*
G36*
X330600609Y-88310684D02*
G01*
X330594259Y-88334382D01*
X330576975Y-88380305D01*
X330555273Y-88424312D01*
X330529362Y-88465981D01*
X330499491Y-88504909D01*
X330465949Y-88540721D01*
X330429058Y-88573075D01*
X330389174Y-88601655D01*
X330346679Y-88626189D01*
X330301986Y-88646440D01*
X330255521Y-88662211D01*
X330207736Y-88673354D01*
X330159088Y-88679758D01*
X330110046Y-88681364D01*
X330061084Y-88678154D01*
X330012672Y-88670162D01*
X329988974Y-88663812D01*
X329988818Y-88664394D01*
X329505855Y-88534984D01*
X329506011Y-88534403D01*
X329482313Y-88528053D01*
X329436391Y-88510768D01*
X329392383Y-88489067D01*
X329350714Y-88463155D01*
X329311786Y-88433285D01*
X329275974Y-88399742D01*
X329243621Y-88362852D01*
X329215041Y-88322968D01*
X329190506Y-88280473D01*
X329170256Y-88235779D01*
X329154484Y-88189315D01*
X329143341Y-88141530D01*
X329136937Y-88092882D01*
X329135331Y-88043840D01*
X329138541Y-87994878D01*
X329146533Y-87946466D01*
X329152883Y-87922768D01*
X329152302Y-87922612D01*
X329294652Y-87391353D01*
X330743541Y-87779581D01*
X330601190Y-88310840D01*
X330600609Y-88310684D01*
X330600609Y-88310684D01*
G37*
D27*
X330213211Y-86861022D03*
D14*
G36*
X329618176Y-86183945D02*
G01*
X331067065Y-86572173D01*
X330808246Y-87538099D01*
X329359357Y-87149871D01*
X329618176Y-86183945D01*
X329618176Y-86183945D01*
G37*
D26*
X327912698Y-84898742D03*
D14*
G36*
X327045903Y-85235887D02*
G01*
X327188254Y-84704628D01*
X327188835Y-84704784D01*
X327195185Y-84681086D01*
X327212469Y-84635163D01*
X327234171Y-84591156D01*
X327260082Y-84549487D01*
X327289953Y-84510559D01*
X327323495Y-84474747D01*
X327360386Y-84442393D01*
X327400270Y-84413813D01*
X327442765Y-84389279D01*
X327487458Y-84369028D01*
X327533923Y-84353257D01*
X327581708Y-84342114D01*
X327630356Y-84335710D01*
X327679398Y-84334104D01*
X327728360Y-84337314D01*
X327776772Y-84345306D01*
X327800470Y-84351656D01*
X327800626Y-84351074D01*
X328283589Y-84480484D01*
X328283433Y-84481065D01*
X328307131Y-84487415D01*
X328353053Y-84504700D01*
X328397061Y-84526401D01*
X328438730Y-84552313D01*
X328477658Y-84582183D01*
X328513470Y-84615726D01*
X328545823Y-84652616D01*
X328574403Y-84692500D01*
X328598938Y-84734995D01*
X328619188Y-84779689D01*
X328634960Y-84826153D01*
X328646103Y-84873938D01*
X328652507Y-84922586D01*
X328654113Y-84971628D01*
X328650903Y-85020590D01*
X328642911Y-85069002D01*
X328636561Y-85092700D01*
X328637142Y-85092856D01*
X328494792Y-85624115D01*
X327045903Y-85235887D01*
X327045903Y-85235887D01*
G37*
D26*
X327239768Y-87410150D03*
D14*
G36*
X327963631Y-87604108D02*
G01*
X327957281Y-87627806D01*
X327939997Y-87673729D01*
X327918295Y-87717736D01*
X327892384Y-87759405D01*
X327862513Y-87798333D01*
X327828971Y-87834145D01*
X327792080Y-87866499D01*
X327752196Y-87895079D01*
X327709701Y-87919613D01*
X327665008Y-87939864D01*
X327618543Y-87955635D01*
X327570758Y-87966778D01*
X327522110Y-87973182D01*
X327473068Y-87974788D01*
X327424106Y-87971578D01*
X327375694Y-87963586D01*
X327351996Y-87957236D01*
X327351840Y-87957818D01*
X326868877Y-87828408D01*
X326869033Y-87827827D01*
X326845335Y-87821477D01*
X326799413Y-87804192D01*
X326755405Y-87782491D01*
X326713736Y-87756579D01*
X326674808Y-87726709D01*
X326638996Y-87693166D01*
X326606643Y-87656276D01*
X326578063Y-87616392D01*
X326553528Y-87573897D01*
X326533278Y-87529203D01*
X326517506Y-87482739D01*
X326506363Y-87434954D01*
X326499959Y-87386306D01*
X326498353Y-87337264D01*
X326501563Y-87288302D01*
X326509555Y-87239890D01*
X326515905Y-87216192D01*
X326515324Y-87216036D01*
X326657674Y-86684777D01*
X328106563Y-87073005D01*
X327964212Y-87604264D01*
X327963631Y-87604108D01*
X327963631Y-87604108D01*
G37*
D27*
X327576233Y-86154446D03*
D14*
G36*
X326981198Y-85477369D02*
G01*
X328430087Y-85865597D01*
X328171268Y-86831523D01*
X326722379Y-86443295D01*
X326981198Y-85477369D01*
X326981198Y-85477369D01*
G37*
D26*
X325275722Y-84192167D03*
D14*
G36*
X324408927Y-84529312D02*
G01*
X324551278Y-83998053D01*
X324551859Y-83998209D01*
X324558209Y-83974511D01*
X324575493Y-83928588D01*
X324597195Y-83884581D01*
X324623106Y-83842912D01*
X324652977Y-83803984D01*
X324686519Y-83768172D01*
X324723410Y-83735818D01*
X324763294Y-83707238D01*
X324805789Y-83682704D01*
X324850482Y-83662453D01*
X324896947Y-83646682D01*
X324944732Y-83635539D01*
X324993380Y-83629135D01*
X325042422Y-83627529D01*
X325091384Y-83630739D01*
X325139796Y-83638731D01*
X325163494Y-83645081D01*
X325163650Y-83644499D01*
X325646613Y-83773909D01*
X325646457Y-83774490D01*
X325670155Y-83780840D01*
X325716077Y-83798125D01*
X325760085Y-83819826D01*
X325801754Y-83845738D01*
X325840682Y-83875608D01*
X325876494Y-83909151D01*
X325908847Y-83946041D01*
X325937427Y-83985925D01*
X325961962Y-84028420D01*
X325982212Y-84073114D01*
X325997984Y-84119578D01*
X326009127Y-84167363D01*
X326015531Y-84216011D01*
X326017137Y-84265053D01*
X326013927Y-84314015D01*
X326005935Y-84362427D01*
X325999585Y-84386125D01*
X326000166Y-84386281D01*
X325857816Y-84917540D01*
X324408927Y-84529312D01*
X324408927Y-84529312D01*
G37*
D26*
X324602792Y-86703575D03*
D14*
G36*
X325326655Y-86897533D02*
G01*
X325320305Y-86921231D01*
X325303021Y-86967154D01*
X325281319Y-87011161D01*
X325255408Y-87052830D01*
X325225537Y-87091758D01*
X325191995Y-87127570D01*
X325155104Y-87159924D01*
X325115220Y-87188504D01*
X325072725Y-87213038D01*
X325028032Y-87233289D01*
X324981567Y-87249060D01*
X324933782Y-87260203D01*
X324885134Y-87266607D01*
X324836092Y-87268213D01*
X324787130Y-87265003D01*
X324738718Y-87257011D01*
X324715020Y-87250661D01*
X324714864Y-87251243D01*
X324231901Y-87121833D01*
X324232057Y-87121252D01*
X324208359Y-87114902D01*
X324162437Y-87097617D01*
X324118429Y-87075916D01*
X324076760Y-87050004D01*
X324037832Y-87020134D01*
X324002020Y-86986591D01*
X323969667Y-86949701D01*
X323941087Y-86909817D01*
X323916552Y-86867322D01*
X323896302Y-86822628D01*
X323880530Y-86776164D01*
X323869387Y-86728379D01*
X323862983Y-86679731D01*
X323861377Y-86630689D01*
X323864587Y-86581727D01*
X323872579Y-86533315D01*
X323878929Y-86509617D01*
X323878348Y-86509461D01*
X324020698Y-85978202D01*
X325469587Y-86366430D01*
X325327236Y-86897689D01*
X325326655Y-86897533D01*
X325326655Y-86897533D01*
G37*
D27*
X324939257Y-85447871D03*
D14*
G36*
X324344222Y-84770794D02*
G01*
X325793111Y-85159022D01*
X325534292Y-86124948D01*
X324085403Y-85736720D01*
X324344222Y-84770794D01*
X324344222Y-84770794D01*
G37*
G36*
X239093396Y-42124737D02*
G01*
X239117664Y-42128337D01*
X239141463Y-42134298D01*
X239164562Y-42142563D01*
X239186741Y-42153053D01*
X239207784Y-42165665D01*
X239227490Y-42180280D01*
X239245668Y-42196756D01*
X239262144Y-42214934D01*
X239276759Y-42234640D01*
X239289371Y-42255683D01*
X239299861Y-42277862D01*
X239308126Y-42300961D01*
X239314087Y-42324760D01*
X239317687Y-42349028D01*
X239318891Y-42373532D01*
X239318891Y-43273534D01*
X239317687Y-43298038D01*
X239314087Y-43322306D01*
X239308126Y-43346105D01*
X239299861Y-43369204D01*
X239289371Y-43391383D01*
X239276759Y-43412426D01*
X239262144Y-43432132D01*
X239245668Y-43450310D01*
X239227490Y-43466786D01*
X239207784Y-43481401D01*
X239186741Y-43494013D01*
X239164562Y-43504503D01*
X239141463Y-43512768D01*
X239117664Y-43518729D01*
X239093396Y-43522329D01*
X239068892Y-43523533D01*
X238418890Y-43523533D01*
X238394386Y-43522329D01*
X238370118Y-43518729D01*
X238346319Y-43512768D01*
X238323220Y-43504503D01*
X238301041Y-43494013D01*
X238279998Y-43481401D01*
X238260292Y-43466786D01*
X238242114Y-43450310D01*
X238225638Y-43432132D01*
X238211023Y-43412426D01*
X238198411Y-43391383D01*
X238187921Y-43369204D01*
X238179656Y-43346105D01*
X238173695Y-43322306D01*
X238170095Y-43298038D01*
X238168891Y-43273534D01*
X238168891Y-42373532D01*
X238170095Y-42349028D01*
X238173695Y-42324760D01*
X238179656Y-42300961D01*
X238187921Y-42277862D01*
X238198411Y-42255683D01*
X238211023Y-42234640D01*
X238225638Y-42214934D01*
X238242114Y-42196756D01*
X238260292Y-42180280D01*
X238279998Y-42165665D01*
X238301041Y-42153053D01*
X238323220Y-42142563D01*
X238346319Y-42134298D01*
X238370118Y-42128337D01*
X238394386Y-42124737D01*
X238418890Y-42123533D01*
X239068892Y-42123533D01*
X239093396Y-42124737D01*
X239093396Y-42124737D01*
G37*
D15*
X238743891Y-42823533D03*
D14*
G36*
X237043396Y-42124737D02*
G01*
X237067664Y-42128337D01*
X237091463Y-42134298D01*
X237114562Y-42142563D01*
X237136741Y-42153053D01*
X237157784Y-42165665D01*
X237177490Y-42180280D01*
X237195668Y-42196756D01*
X237212144Y-42214934D01*
X237226759Y-42234640D01*
X237239371Y-42255683D01*
X237249861Y-42277862D01*
X237258126Y-42300961D01*
X237264087Y-42324760D01*
X237267687Y-42349028D01*
X237268891Y-42373532D01*
X237268891Y-43273534D01*
X237267687Y-43298038D01*
X237264087Y-43322306D01*
X237258126Y-43346105D01*
X237249861Y-43369204D01*
X237239371Y-43391383D01*
X237226759Y-43412426D01*
X237212144Y-43432132D01*
X237195668Y-43450310D01*
X237177490Y-43466786D01*
X237157784Y-43481401D01*
X237136741Y-43494013D01*
X237114562Y-43504503D01*
X237091463Y-43512768D01*
X237067664Y-43518729D01*
X237043396Y-43522329D01*
X237018892Y-43523533D01*
X236368890Y-43523533D01*
X236344386Y-43522329D01*
X236320118Y-43518729D01*
X236296319Y-43512768D01*
X236273220Y-43504503D01*
X236251041Y-43494013D01*
X236229998Y-43481401D01*
X236210292Y-43466786D01*
X236192114Y-43450310D01*
X236175638Y-43432132D01*
X236161023Y-43412426D01*
X236148411Y-43391383D01*
X236137921Y-43369204D01*
X236129656Y-43346105D01*
X236123695Y-43322306D01*
X236120095Y-43298038D01*
X236118891Y-43273534D01*
X236118891Y-42373532D01*
X236120095Y-42349028D01*
X236123695Y-42324760D01*
X236129656Y-42300961D01*
X236137921Y-42277862D01*
X236148411Y-42255683D01*
X236161023Y-42234640D01*
X236175638Y-42214934D01*
X236192114Y-42196756D01*
X236210292Y-42180280D01*
X236229998Y-42165665D01*
X236251041Y-42153053D01*
X236273220Y-42142563D01*
X236296319Y-42134298D01*
X236320118Y-42128337D01*
X236344386Y-42124737D01*
X236368890Y-42123533D01*
X237018892Y-42123533D01*
X237043396Y-42124737D01*
X237043396Y-42124737D01*
G37*
D15*
X236693891Y-42823533D03*
D14*
G36*
X237413396Y-36254736D02*
G01*
X237437664Y-36258336D01*
X237461463Y-36264297D01*
X237484562Y-36272562D01*
X237506741Y-36283052D01*
X237527784Y-36295664D01*
X237547490Y-36310279D01*
X237565668Y-36326755D01*
X237582144Y-36344933D01*
X237596759Y-36364639D01*
X237609371Y-36385682D01*
X237619861Y-36407861D01*
X237628126Y-36430960D01*
X237634087Y-36454759D01*
X237637687Y-36479027D01*
X237638891Y-36503531D01*
X237638891Y-37153533D01*
X237637687Y-37178037D01*
X237634087Y-37202305D01*
X237628126Y-37226104D01*
X237619861Y-37249203D01*
X237609371Y-37271382D01*
X237596759Y-37292425D01*
X237582144Y-37312131D01*
X237565668Y-37330309D01*
X237547490Y-37346785D01*
X237527784Y-37361400D01*
X237506741Y-37374012D01*
X237484562Y-37384502D01*
X237461463Y-37392767D01*
X237437664Y-37398728D01*
X237413396Y-37402328D01*
X237388892Y-37403532D01*
X236488890Y-37403532D01*
X236464386Y-37402328D01*
X236440118Y-37398728D01*
X236416319Y-37392767D01*
X236393220Y-37384502D01*
X236371041Y-37374012D01*
X236349998Y-37361400D01*
X236330292Y-37346785D01*
X236312114Y-37330309D01*
X236295638Y-37312131D01*
X236281023Y-37292425D01*
X236268411Y-37271382D01*
X236257921Y-37249203D01*
X236249656Y-37226104D01*
X236243695Y-37202305D01*
X236240095Y-37178037D01*
X236238891Y-37153533D01*
X236238891Y-36503531D01*
X236240095Y-36479027D01*
X236243695Y-36454759D01*
X236249656Y-36430960D01*
X236257921Y-36407861D01*
X236268411Y-36385682D01*
X236281023Y-36364639D01*
X236295638Y-36344933D01*
X236312114Y-36326755D01*
X236330292Y-36310279D01*
X236349998Y-36295664D01*
X236371041Y-36283052D01*
X236393220Y-36272562D01*
X236416319Y-36264297D01*
X236440118Y-36258336D01*
X236464386Y-36254736D01*
X236488890Y-36253532D01*
X237388892Y-36253532D01*
X237413396Y-36254736D01*
X237413396Y-36254736D01*
G37*
D15*
X236938891Y-36828532D03*
D14*
G36*
X237413396Y-34204736D02*
G01*
X237437664Y-34208336D01*
X237461463Y-34214297D01*
X237484562Y-34222562D01*
X237506741Y-34233052D01*
X237527784Y-34245664D01*
X237547490Y-34260279D01*
X237565668Y-34276755D01*
X237582144Y-34294933D01*
X237596759Y-34314639D01*
X237609371Y-34335682D01*
X237619861Y-34357861D01*
X237628126Y-34380960D01*
X237634087Y-34404759D01*
X237637687Y-34429027D01*
X237638891Y-34453531D01*
X237638891Y-35103533D01*
X237637687Y-35128037D01*
X237634087Y-35152305D01*
X237628126Y-35176104D01*
X237619861Y-35199203D01*
X237609371Y-35221382D01*
X237596759Y-35242425D01*
X237582144Y-35262131D01*
X237565668Y-35280309D01*
X237547490Y-35296785D01*
X237527784Y-35311400D01*
X237506741Y-35324012D01*
X237484562Y-35334502D01*
X237461463Y-35342767D01*
X237437664Y-35348728D01*
X237413396Y-35352328D01*
X237388892Y-35353532D01*
X236488890Y-35353532D01*
X236464386Y-35352328D01*
X236440118Y-35348728D01*
X236416319Y-35342767D01*
X236393220Y-35334502D01*
X236371041Y-35324012D01*
X236349998Y-35311400D01*
X236330292Y-35296785D01*
X236312114Y-35280309D01*
X236295638Y-35262131D01*
X236281023Y-35242425D01*
X236268411Y-35221382D01*
X236257921Y-35199203D01*
X236249656Y-35176104D01*
X236243695Y-35152305D01*
X236240095Y-35128037D01*
X236238891Y-35103533D01*
X236238891Y-34453531D01*
X236240095Y-34429027D01*
X236243695Y-34404759D01*
X236249656Y-34380960D01*
X236257921Y-34357861D01*
X236268411Y-34335682D01*
X236281023Y-34314639D01*
X236295638Y-34294933D01*
X236312114Y-34276755D01*
X236330292Y-34260279D01*
X236349998Y-34245664D01*
X236371041Y-34233052D01*
X236393220Y-34222562D01*
X236416319Y-34214297D01*
X236440118Y-34208336D01*
X236464386Y-34204736D01*
X236488890Y-34203532D01*
X237388892Y-34203532D01*
X237413396Y-34204736D01*
X237413396Y-34204736D01*
G37*
D15*
X236938891Y-34778532D03*
D14*
G36*
X219493397Y-32764736D02*
G01*
X219517665Y-32768336D01*
X219541464Y-32774297D01*
X219564563Y-32782562D01*
X219586742Y-32793052D01*
X219607785Y-32805664D01*
X219627491Y-32820279D01*
X219645669Y-32836755D01*
X219662145Y-32854933D01*
X219676760Y-32874639D01*
X219689372Y-32895682D01*
X219699862Y-32917861D01*
X219708127Y-32940960D01*
X219714088Y-32964759D01*
X219717688Y-32989027D01*
X219718892Y-33013531D01*
X219718892Y-33913533D01*
X219717688Y-33938037D01*
X219714088Y-33962305D01*
X219708127Y-33986104D01*
X219699862Y-34009203D01*
X219689372Y-34031382D01*
X219676760Y-34052425D01*
X219662145Y-34072131D01*
X219645669Y-34090309D01*
X219627491Y-34106785D01*
X219607785Y-34121400D01*
X219586742Y-34134012D01*
X219564563Y-34144502D01*
X219541464Y-34152767D01*
X219517665Y-34158728D01*
X219493397Y-34162328D01*
X219468893Y-34163532D01*
X218818891Y-34163532D01*
X218794387Y-34162328D01*
X218770119Y-34158728D01*
X218746320Y-34152767D01*
X218723221Y-34144502D01*
X218701042Y-34134012D01*
X218679999Y-34121400D01*
X218660293Y-34106785D01*
X218642115Y-34090309D01*
X218625639Y-34072131D01*
X218611024Y-34052425D01*
X218598412Y-34031382D01*
X218587922Y-34009203D01*
X218579657Y-33986104D01*
X218573696Y-33962305D01*
X218570096Y-33938037D01*
X218568892Y-33913533D01*
X218568892Y-33013531D01*
X218570096Y-32989027D01*
X218573696Y-32964759D01*
X218579657Y-32940960D01*
X218587922Y-32917861D01*
X218598412Y-32895682D01*
X218611024Y-32874639D01*
X218625639Y-32854933D01*
X218642115Y-32836755D01*
X218660293Y-32820279D01*
X218679999Y-32805664D01*
X218701042Y-32793052D01*
X218723221Y-32782562D01*
X218746320Y-32774297D01*
X218770119Y-32768336D01*
X218794387Y-32764736D01*
X218818891Y-32763532D01*
X219468893Y-32763532D01*
X219493397Y-32764736D01*
X219493397Y-32764736D01*
G37*
D15*
X219143892Y-33463532D03*
D14*
G36*
X221543397Y-32764736D02*
G01*
X221567665Y-32768336D01*
X221591464Y-32774297D01*
X221614563Y-32782562D01*
X221636742Y-32793052D01*
X221657785Y-32805664D01*
X221677491Y-32820279D01*
X221695669Y-32836755D01*
X221712145Y-32854933D01*
X221726760Y-32874639D01*
X221739372Y-32895682D01*
X221749862Y-32917861D01*
X221758127Y-32940960D01*
X221764088Y-32964759D01*
X221767688Y-32989027D01*
X221768892Y-33013531D01*
X221768892Y-33913533D01*
X221767688Y-33938037D01*
X221764088Y-33962305D01*
X221758127Y-33986104D01*
X221749862Y-34009203D01*
X221739372Y-34031382D01*
X221726760Y-34052425D01*
X221712145Y-34072131D01*
X221695669Y-34090309D01*
X221677491Y-34106785D01*
X221657785Y-34121400D01*
X221636742Y-34134012D01*
X221614563Y-34144502D01*
X221591464Y-34152767D01*
X221567665Y-34158728D01*
X221543397Y-34162328D01*
X221518893Y-34163532D01*
X220868891Y-34163532D01*
X220844387Y-34162328D01*
X220820119Y-34158728D01*
X220796320Y-34152767D01*
X220773221Y-34144502D01*
X220751042Y-34134012D01*
X220729999Y-34121400D01*
X220710293Y-34106785D01*
X220692115Y-34090309D01*
X220675639Y-34072131D01*
X220661024Y-34052425D01*
X220648412Y-34031382D01*
X220637922Y-34009203D01*
X220629657Y-33986104D01*
X220623696Y-33962305D01*
X220620096Y-33938037D01*
X220618892Y-33913533D01*
X220618892Y-33013531D01*
X220620096Y-32989027D01*
X220623696Y-32964759D01*
X220629657Y-32940960D01*
X220637922Y-32917861D01*
X220648412Y-32895682D01*
X220661024Y-32874639D01*
X220675639Y-32854933D01*
X220692115Y-32836755D01*
X220710293Y-32820279D01*
X220729999Y-32805664D01*
X220751042Y-32793052D01*
X220773221Y-32782562D01*
X220796320Y-32774297D01*
X220820119Y-32768336D01*
X220844387Y-32764736D01*
X220868891Y-32763532D01*
X221518893Y-32763532D01*
X221543397Y-32764736D01*
X221543397Y-32764736D01*
G37*
D15*
X221193892Y-33463532D03*
D14*
G36*
X229370720Y-48698324D02*
G01*
X229394988Y-48701924D01*
X229418787Y-48707885D01*
X229441886Y-48716150D01*
X229464065Y-48726640D01*
X229485108Y-48739252D01*
X229504814Y-48753867D01*
X229522992Y-48770343D01*
X229539468Y-48788521D01*
X229554083Y-48808227D01*
X229566695Y-48829270D01*
X229577185Y-48851449D01*
X229585450Y-48874548D01*
X229591411Y-48898347D01*
X229595011Y-48922615D01*
X229596215Y-48947119D01*
X229596215Y-49847121D01*
X229595011Y-49871625D01*
X229591411Y-49895893D01*
X229585450Y-49919692D01*
X229577185Y-49942791D01*
X229566695Y-49964970D01*
X229554083Y-49986013D01*
X229539468Y-50005719D01*
X229522992Y-50023897D01*
X229504814Y-50040373D01*
X229485108Y-50054988D01*
X229464065Y-50067600D01*
X229441886Y-50078090D01*
X229418787Y-50086355D01*
X229394988Y-50092316D01*
X229370720Y-50095916D01*
X229346216Y-50097120D01*
X228696214Y-50097120D01*
X228671710Y-50095916D01*
X228647442Y-50092316D01*
X228623643Y-50086355D01*
X228600544Y-50078090D01*
X228578365Y-50067600D01*
X228557322Y-50054988D01*
X228537616Y-50040373D01*
X228519438Y-50023897D01*
X228502962Y-50005719D01*
X228488347Y-49986013D01*
X228475735Y-49964970D01*
X228465245Y-49942791D01*
X228456980Y-49919692D01*
X228451019Y-49895893D01*
X228447419Y-49871625D01*
X228446215Y-49847121D01*
X228446215Y-48947119D01*
X228447419Y-48922615D01*
X228451019Y-48898347D01*
X228456980Y-48874548D01*
X228465245Y-48851449D01*
X228475735Y-48829270D01*
X228488347Y-48808227D01*
X228502962Y-48788521D01*
X228519438Y-48770343D01*
X228537616Y-48753867D01*
X228557322Y-48739252D01*
X228578365Y-48726640D01*
X228600544Y-48716150D01*
X228623643Y-48707885D01*
X228647442Y-48701924D01*
X228671710Y-48698324D01*
X228696214Y-48697120D01*
X229346216Y-48697120D01*
X229370720Y-48698324D01*
X229370720Y-48698324D01*
G37*
D15*
X229021215Y-49397120D03*
D14*
G36*
X227320720Y-48698324D02*
G01*
X227344988Y-48701924D01*
X227368787Y-48707885D01*
X227391886Y-48716150D01*
X227414065Y-48726640D01*
X227435108Y-48739252D01*
X227454814Y-48753867D01*
X227472992Y-48770343D01*
X227489468Y-48788521D01*
X227504083Y-48808227D01*
X227516695Y-48829270D01*
X227527185Y-48851449D01*
X227535450Y-48874548D01*
X227541411Y-48898347D01*
X227545011Y-48922615D01*
X227546215Y-48947119D01*
X227546215Y-49847121D01*
X227545011Y-49871625D01*
X227541411Y-49895893D01*
X227535450Y-49919692D01*
X227527185Y-49942791D01*
X227516695Y-49964970D01*
X227504083Y-49986013D01*
X227489468Y-50005719D01*
X227472992Y-50023897D01*
X227454814Y-50040373D01*
X227435108Y-50054988D01*
X227414065Y-50067600D01*
X227391886Y-50078090D01*
X227368787Y-50086355D01*
X227344988Y-50092316D01*
X227320720Y-50095916D01*
X227296216Y-50097120D01*
X226646214Y-50097120D01*
X226621710Y-50095916D01*
X226597442Y-50092316D01*
X226573643Y-50086355D01*
X226550544Y-50078090D01*
X226528365Y-50067600D01*
X226507322Y-50054988D01*
X226487616Y-50040373D01*
X226469438Y-50023897D01*
X226452962Y-50005719D01*
X226438347Y-49986013D01*
X226425735Y-49964970D01*
X226415245Y-49942791D01*
X226406980Y-49919692D01*
X226401019Y-49895893D01*
X226397419Y-49871625D01*
X226396215Y-49847121D01*
X226396215Y-48947119D01*
X226397419Y-48922615D01*
X226401019Y-48898347D01*
X226406980Y-48874548D01*
X226415245Y-48851449D01*
X226425735Y-48829270D01*
X226438347Y-48808227D01*
X226452962Y-48788521D01*
X226469438Y-48770343D01*
X226487616Y-48753867D01*
X226507322Y-48739252D01*
X226528365Y-48726640D01*
X226550544Y-48716150D01*
X226573643Y-48707885D01*
X226597442Y-48701924D01*
X226621710Y-48698324D01*
X226646214Y-48697120D01*
X227296216Y-48697120D01*
X227320720Y-48698324D01*
X227320720Y-48698324D01*
G37*
D15*
X226971215Y-49397120D03*
D14*
G36*
X237043397Y-39784736D02*
G01*
X237067665Y-39788336D01*
X237091464Y-39794297D01*
X237114563Y-39802562D01*
X237136742Y-39813052D01*
X237157785Y-39825664D01*
X237177491Y-39840279D01*
X237195669Y-39856755D01*
X237212145Y-39874933D01*
X237226760Y-39894639D01*
X237239372Y-39915682D01*
X237249862Y-39937861D01*
X237258127Y-39960960D01*
X237264088Y-39984759D01*
X237267688Y-40009027D01*
X237268892Y-40033531D01*
X237268892Y-40933533D01*
X237267688Y-40958037D01*
X237264088Y-40982305D01*
X237258127Y-41006104D01*
X237249862Y-41029203D01*
X237239372Y-41051382D01*
X237226760Y-41072425D01*
X237212145Y-41092131D01*
X237195669Y-41110309D01*
X237177491Y-41126785D01*
X237157785Y-41141400D01*
X237136742Y-41154012D01*
X237114563Y-41164502D01*
X237091464Y-41172767D01*
X237067665Y-41178728D01*
X237043397Y-41182328D01*
X237018893Y-41183532D01*
X236368891Y-41183532D01*
X236344387Y-41182328D01*
X236320119Y-41178728D01*
X236296320Y-41172767D01*
X236273221Y-41164502D01*
X236251042Y-41154012D01*
X236229999Y-41141400D01*
X236210293Y-41126785D01*
X236192115Y-41110309D01*
X236175639Y-41092131D01*
X236161024Y-41072425D01*
X236148412Y-41051382D01*
X236137922Y-41029203D01*
X236129657Y-41006104D01*
X236123696Y-40982305D01*
X236120096Y-40958037D01*
X236118892Y-40933533D01*
X236118892Y-40033531D01*
X236120096Y-40009027D01*
X236123696Y-39984759D01*
X236129657Y-39960960D01*
X236137922Y-39937861D01*
X236148412Y-39915682D01*
X236161024Y-39894639D01*
X236175639Y-39874933D01*
X236192115Y-39856755D01*
X236210293Y-39840279D01*
X236229999Y-39825664D01*
X236251042Y-39813052D01*
X236273221Y-39802562D01*
X236296320Y-39794297D01*
X236320119Y-39788336D01*
X236344387Y-39784736D01*
X236368891Y-39783532D01*
X237018893Y-39783532D01*
X237043397Y-39784736D01*
X237043397Y-39784736D01*
G37*
D15*
X236693892Y-40483532D03*
D14*
G36*
X239093397Y-39784736D02*
G01*
X239117665Y-39788336D01*
X239141464Y-39794297D01*
X239164563Y-39802562D01*
X239186742Y-39813052D01*
X239207785Y-39825664D01*
X239227491Y-39840279D01*
X239245669Y-39856755D01*
X239262145Y-39874933D01*
X239276760Y-39894639D01*
X239289372Y-39915682D01*
X239299862Y-39937861D01*
X239308127Y-39960960D01*
X239314088Y-39984759D01*
X239317688Y-40009027D01*
X239318892Y-40033531D01*
X239318892Y-40933533D01*
X239317688Y-40958037D01*
X239314088Y-40982305D01*
X239308127Y-41006104D01*
X239299862Y-41029203D01*
X239289372Y-41051382D01*
X239276760Y-41072425D01*
X239262145Y-41092131D01*
X239245669Y-41110309D01*
X239227491Y-41126785D01*
X239207785Y-41141400D01*
X239186742Y-41154012D01*
X239164563Y-41164502D01*
X239141464Y-41172767D01*
X239117665Y-41178728D01*
X239093397Y-41182328D01*
X239068893Y-41183532D01*
X238418891Y-41183532D01*
X238394387Y-41182328D01*
X238370119Y-41178728D01*
X238346320Y-41172767D01*
X238323221Y-41164502D01*
X238301042Y-41154012D01*
X238279999Y-41141400D01*
X238260293Y-41126785D01*
X238242115Y-41110309D01*
X238225639Y-41092131D01*
X238211024Y-41072425D01*
X238198412Y-41051382D01*
X238187922Y-41029203D01*
X238179657Y-41006104D01*
X238173696Y-40982305D01*
X238170096Y-40958037D01*
X238168892Y-40933533D01*
X238168892Y-40033531D01*
X238170096Y-40009027D01*
X238173696Y-39984759D01*
X238179657Y-39960960D01*
X238187922Y-39937861D01*
X238198412Y-39915682D01*
X238211024Y-39894639D01*
X238225639Y-39874933D01*
X238242115Y-39856755D01*
X238260293Y-39840279D01*
X238279999Y-39825664D01*
X238301042Y-39813052D01*
X238323221Y-39802562D01*
X238346320Y-39794297D01*
X238370119Y-39788336D01*
X238394387Y-39784736D01*
X238418891Y-39783532D01*
X239068893Y-39783532D01*
X239093397Y-39784736D01*
X239093397Y-39784736D01*
G37*
D15*
X238743892Y-40483532D03*
D28*
X226773891Y-43578532D03*
X331469646Y-84144433D03*
X355982913Y-89097712D03*
X320685564Y-89733760D03*
X201838891Y-36973532D03*
X223004801Y-41713534D03*
X338400355Y-95549076D03*
X338159499Y-99501545D03*
X340874348Y-113855809D03*
X342268897Y-129370392D03*
X337363891Y-95247118D03*
X337036303Y-99199077D03*
X327314270Y-109673081D03*
X323904232Y-124449595D03*
X304533715Y-61097120D03*
X305021215Y-80597121D03*
X304533715Y-95222120D03*
X304533715Y-100097120D03*
X302973715Y-83814620D03*
X303363715Y-64314620D03*
X285521215Y-61097120D03*
X285521215Y-80597120D03*
X285521215Y-95222120D03*
X285100260Y-100163665D03*
X283473715Y-83814620D03*
X283473715Y-64314620D03*
X265554669Y-96663666D03*
X265533715Y-91809620D03*
X266021216Y-77184620D03*
X265533715Y-57684620D03*
X263973715Y-60804620D03*
X263973715Y-80304620D03*
X246033715Y-61097120D03*
X246033715Y-80597120D03*
X246521214Y-95222120D03*
X246100260Y-100163665D03*
X244473715Y-64314620D03*
X244473715Y-83814620D03*
X226867303Y-103663531D03*
X226533715Y-98634620D03*
X226533715Y-84009620D03*
X226533715Y-64509620D03*
X224973715Y-67824620D03*
X224973715Y-87324620D03*
X207033715Y-64509620D03*
X207033715Y-84009620D03*
X207033715Y-98634620D03*
X209198893Y-103663533D03*
X202158715Y-84009618D03*
X221658715Y-84009620D03*
X241158715Y-80597120D03*
X260658715Y-77184620D03*
X280158715Y-80597120D03*
X299658715Y-80597120D03*
X202158715Y-98634620D03*
X221658715Y-98634620D03*
X241158715Y-95222120D03*
X260658715Y-91809620D03*
X280158715Y-95222120D03*
X299658715Y-95222120D03*
X322509683Y-108935012D03*
X346054125Y-115243727D03*
X202158715Y-103509620D03*
X221658714Y-103509620D03*
X241158715Y-100097120D03*
X260658715Y-96684620D03*
X280158715Y-100097120D03*
X299658715Y-100097120D03*
X318724455Y-123061678D03*
X337089119Y-127982475D03*
X212816033Y-46734435D03*
X201838891Y-44383534D03*
X321049723Y-79333635D03*
X321730315Y-77939656D03*
X210808892Y-47893532D03*
X201838891Y-40093534D03*
X317376303Y-84001954D03*
X320317649Y-77561133D03*
X331473837Y-94314498D03*
X319326391Y-94797110D03*
X318351391Y-96511586D03*
X316421002Y-84553498D03*
X219778892Y-45163534D03*
X316740313Y-82247579D03*
X235233901Y-41798524D03*
X235068891Y-36113534D03*
X222613881Y-34488544D03*
X339664531Y-101418909D03*
X335771246Y-100880403D03*
X334946584Y-107725196D03*
X335854553Y-109987274D03*
X336073857Y-89819463D03*
X274308715Y-42572120D03*
X274308715Y-46472120D03*
X246521215Y-44034620D03*
X246521215Y-47447121D03*
X254321215Y-44034620D03*
X254321215Y-47447120D03*
X227996215Y-47447120D03*
X228489301Y-43065206D03*
X213371215Y-40622120D03*
X213371215Y-37209620D03*
X272846215Y-42572120D03*
X272846215Y-46472119D03*
X271383715Y-42572120D03*
X271383715Y-46472120D03*
X252371215Y-44034620D03*
X250421215Y-44034620D03*
X248471215Y-44034620D03*
X248471215Y-47447120D03*
X250421215Y-47447120D03*
X252371215Y-47447120D03*
X353372234Y-87932174D03*
X315453715Y-78354620D03*
X315453716Y-79524620D03*
X315453715Y-80694620D03*
X311163715Y-80694620D03*
X311163715Y-79524620D03*
X311163715Y-78354620D03*
X337580068Y-90362678D03*
X338131611Y-91317979D03*
X337028525Y-89407377D03*
X336476981Y-88452076D03*
X341374225Y-89764289D03*
X341925768Y-90719591D03*
X341677042Y-88634155D03*
X342854023Y-91775830D03*
X217953715Y-45594620D03*
X217953715Y-49104620D03*
X223023715Y-40134620D03*
X234988892Y-38143534D03*
X234976268Y-37109236D03*
X202158715Y-64509620D03*
X221658715Y-64509620D03*
X241158715Y-61097120D03*
X260658715Y-57684620D03*
X280646215Y-61097120D03*
X299658715Y-61097120D03*
X217828891Y-40873532D03*
X217828891Y-38143534D03*
X323398010Y-80091730D03*
X344053282Y-88860582D03*
X323432411Y-85044113D03*
X326446100Y-85851630D03*
X329083078Y-86558204D03*
X231088892Y-35023533D03*
X321025523Y-83944481D03*
X322283128Y-79610700D03*
X324368005Y-79396998D03*
X320766704Y-84910409D03*
X318838891Y-89233534D03*
D29*
X223988891Y-34663534D02*
X223988891Y-33413532D01*
X233088892Y-41713532D02*
X231038892Y-41713532D01*
X228413889Y-38978533D02*
X228303891Y-38978532D01*
X233088891Y-35313534D02*
X232078889Y-35313534D01*
X229813891Y-40538534D02*
X229863891Y-40538536D01*
X226388891Y-43963532D02*
X226773891Y-43578532D01*
X226388891Y-45213532D02*
X226388891Y-43963532D01*
X231038891Y-42513534D02*
X231038892Y-41713532D01*
X233088891Y-43313534D02*
X231838891Y-43313534D01*
X230388891Y-45213532D02*
X230388891Y-43163532D01*
X221288891Y-41713534D02*
X223004801Y-41713534D01*
D30*
X236403891Y-35313534D02*
X236938891Y-34778533D01*
X233088891Y-35313534D02*
X236403891Y-35313534D01*
X234088891Y-41713532D02*
X233088892Y-41713532D01*
X235318891Y-40483534D02*
X234088891Y-41713532D01*
X236693891Y-40483534D02*
X235318891Y-40483534D01*
X234088891Y-43313534D02*
X233088891Y-43313534D01*
X235528891Y-43313532D02*
X234088891Y-43313534D01*
X236018891Y-42823532D02*
X235528891Y-43313532D01*
X236693891Y-42823532D02*
X236018891Y-42823532D01*
X221817263Y-32840160D02*
X221193891Y-33463534D01*
X222318892Y-32338533D02*
X221817263Y-32840160D01*
X223913890Y-32338532D02*
X222318892Y-32338533D01*
X223988891Y-32413534D02*
X223913890Y-32338532D01*
X223988891Y-33413532D02*
X223988891Y-32413534D01*
D29*
X236938891Y-34778533D02*
X237963901Y-33753524D01*
X237963901Y-33753524D02*
X246123855Y-33753522D01*
X251788891Y-41263534D02*
X251788891Y-39913534D01*
X247538891Y-39913534D02*
X247538891Y-41263534D01*
X246123855Y-33753522D02*
X250161378Y-37791045D01*
X250161378Y-37791045D02*
X251788891Y-39418560D01*
X321253765Y-88094165D02*
X321859402Y-85833899D01*
X321815198Y-85998868D02*
X322420835Y-83738602D01*
X322495892Y-83458483D02*
X321046325Y-80947756D01*
X322420835Y-83738602D02*
X322495892Y-83458483D01*
X324809087Y-82359743D02*
X331469646Y-84144433D01*
X322420835Y-83738602D02*
X324809087Y-82359743D01*
X321209561Y-88259133D02*
X320838022Y-89645738D01*
X320838022Y-89645738D02*
X320685564Y-89733760D01*
D30*
X335786709Y-85554829D02*
X335613468Y-85254768D01*
X335389625Y-87036764D02*
X335786709Y-85554829D01*
D29*
X331469646Y-84144433D02*
X335613468Y-85254768D01*
X335613468Y-85254768D02*
X339978145Y-86424280D01*
X355700071Y-88607818D02*
X355982913Y-89097712D01*
X354897310Y-87217393D02*
X355700071Y-88607818D01*
X343769066Y-84235589D02*
X354897310Y-87217393D01*
X339978145Y-86424280D02*
X343769066Y-84235589D01*
X308921215Y-44034620D02*
X277029217Y-44034620D01*
X331915267Y-82481356D02*
X329694565Y-78634988D01*
X331469646Y-84144433D02*
X331915267Y-82481356D01*
X329694565Y-78634988D02*
X317004217Y-75234620D01*
X313796215Y-72026618D02*
X313796215Y-48909620D01*
X317004217Y-75234620D02*
X313796215Y-72026618D01*
X313796215Y-48909620D02*
X308921215Y-44034620D01*
X218667301Y-41713534D02*
X215371215Y-45009620D01*
X221288891Y-41713534D02*
X218667301Y-41713534D01*
D30*
X213858715Y-33309620D02*
X213808715Y-33309620D01*
X214883726Y-32284610D02*
X213858715Y-33309620D01*
X221193892Y-33463532D02*
X220014970Y-32284612D01*
X220014970Y-32284612D02*
X214883726Y-32284610D01*
D29*
X247538891Y-41758508D02*
X248352503Y-42572120D01*
X247538891Y-41263534D02*
X247538891Y-41758508D01*
X251788891Y-41758508D02*
X251788891Y-41263534D01*
X250975279Y-42572120D02*
X251788891Y-41758508D01*
X248352503Y-42572120D02*
X250975279Y-42572120D01*
D30*
X228580583Y-38671488D02*
X228650758Y-38741663D01*
X227996847Y-38671488D02*
X228580583Y-38671488D01*
D29*
X228650758Y-38741663D02*
X228413889Y-38978533D01*
X232078889Y-35313534D02*
X228650758Y-38741663D01*
X227996847Y-38671488D02*
X223988891Y-34663534D01*
X228303891Y-38978532D02*
X227996847Y-38671488D01*
D30*
X228650758Y-39325399D02*
X228776847Y-39451488D01*
X228650758Y-38741663D02*
X228650758Y-39325399D01*
D29*
X228776847Y-39451488D02*
X228303891Y-38978532D01*
D30*
X227830935Y-39451488D02*
X227815759Y-39466664D01*
X228776847Y-39451488D02*
X227830935Y-39451488D01*
D29*
X225568891Y-41713534D02*
X227815759Y-39466664D01*
X227815759Y-39466664D02*
X228303891Y-38978532D01*
D30*
X227996847Y-39285576D02*
X227830935Y-39451488D01*
X227996847Y-38671488D02*
X227996847Y-39285576D01*
X229556846Y-40795579D02*
X229545760Y-40806665D01*
X229556846Y-40231489D02*
X229556846Y-40795579D01*
D29*
X229545760Y-40806665D02*
X229813891Y-40538534D01*
X226773891Y-43578532D02*
X229545760Y-40806665D01*
X229556846Y-40231489D02*
X228776847Y-39451488D01*
X229863891Y-40538536D02*
X229556846Y-40231489D01*
D30*
X230132020Y-40806665D02*
X230141845Y-40816490D01*
X229545760Y-40806665D02*
X230132020Y-40806665D01*
D29*
X231038892Y-41713532D02*
X230141845Y-40816490D01*
X230141845Y-40816490D02*
X229863891Y-40538536D01*
D30*
X230775936Y-42776489D02*
X230755760Y-42796665D01*
X231301846Y-42776489D02*
X230775936Y-42776489D01*
D29*
X230755760Y-42796665D02*
X231038891Y-42513534D01*
X230388891Y-43163532D02*
X230755760Y-42796665D01*
X231301846Y-42776489D02*
X231038891Y-42513534D01*
X231838891Y-43313534D02*
X231301846Y-42776489D01*
X223004801Y-41713534D02*
X223004801Y-41713534D01*
X223004801Y-41713534D02*
X225568891Y-41713534D01*
X215371215Y-46859620D02*
X215371215Y-45009620D01*
X213037290Y-49193545D02*
X215371215Y-46859620D01*
X201838891Y-36973532D02*
X201838891Y-37553532D01*
X201838891Y-37553532D02*
X199498891Y-39893532D01*
X199498891Y-39893532D02*
X200798892Y-41193535D01*
X200798892Y-41193535D02*
X200798892Y-46886721D01*
X200798892Y-46886721D02*
X203105716Y-49193545D01*
X203105716Y-49193545D02*
X213037290Y-49193545D01*
X251788891Y-39913534D02*
X251788891Y-39418560D01*
X269764217Y-36769620D02*
X270696466Y-37701869D01*
X268263715Y-36769620D02*
X269764217Y-36769620D01*
X277029217Y-44034620D02*
X270696466Y-37701869D01*
X253003907Y-38203544D02*
X251788891Y-39418560D01*
X255022639Y-38203544D02*
X253003907Y-38203544D01*
X256456563Y-36769620D02*
X255022639Y-38203544D01*
X268263715Y-36769620D02*
X256456563Y-36769620D01*
D30*
X338400355Y-95549076D02*
X338959199Y-96517023D01*
X338959199Y-96517023D02*
X338159499Y-99501545D01*
X338863044Y-113316882D02*
X338676275Y-113424713D01*
X340874348Y-113855809D02*
X338863044Y-113316882D01*
X339790705Y-128706362D02*
X339778706Y-128685580D01*
X342268897Y-129370392D02*
X339790705Y-128706362D01*
X337363891Y-95247118D02*
X337363891Y-98871488D01*
X337363891Y-98871488D02*
X337036303Y-99199077D01*
X326474868Y-110157710D02*
X327314270Y-109673081D01*
X324666206Y-109673081D02*
X326474868Y-110157710D01*
X321253706Y-123810581D02*
X323820010Y-124498220D01*
X323820010Y-124498220D02*
X323904232Y-124449595D01*
X302328891Y-61163667D02*
X304467168Y-61163667D01*
X304467168Y-61163667D02*
X304533715Y-61097120D01*
X302395438Y-80597120D02*
X302328891Y-80663667D01*
X305021215Y-80597121D02*
X302395438Y-80597120D01*
X302480305Y-95222120D02*
X302326391Y-95376034D01*
X304533715Y-95222120D02*
X302480305Y-95222120D01*
X302328892Y-100163665D02*
X304467170Y-100163665D01*
X304467170Y-100163665D02*
X304533715Y-100097120D01*
X302326391Y-94276034D02*
X302326391Y-95376034D01*
X300919990Y-92869633D02*
X302326391Y-94276034D01*
X300919990Y-89300594D02*
X300919990Y-92869633D01*
X302973715Y-87246869D02*
X300919990Y-89300594D01*
X302973715Y-83814620D02*
X302973715Y-87246869D01*
X302328891Y-79563667D02*
X302328891Y-80663667D01*
X300919990Y-78154766D02*
X302328891Y-79563667D01*
X300919990Y-69800594D02*
X300919990Y-78154766D01*
X303363715Y-67356869D02*
X300919990Y-69800594D01*
X303363715Y-64314620D02*
X303363715Y-67356869D01*
X302326391Y-100161164D02*
X302328892Y-100163665D01*
X302326391Y-95376034D02*
X302326391Y-100161164D01*
X283146215Y-61097120D02*
X285521215Y-61097120D01*
X282828891Y-80663667D02*
X285454668Y-80663667D01*
X285454668Y-80663667D02*
X285521215Y-80597120D01*
X282826392Y-95376032D02*
X285367303Y-95376032D01*
X285367303Y-95376032D02*
X285521215Y-95222120D01*
X282828893Y-100163665D02*
X282828891Y-100163667D01*
X285100260Y-100163665D02*
X282828893Y-100163665D01*
X282826392Y-94276032D02*
X282826392Y-95376032D01*
X281419992Y-92869632D02*
X282826392Y-94276032D01*
X281419992Y-89300594D02*
X281419992Y-92869632D01*
X283473715Y-87246871D02*
X281419992Y-89300594D01*
X283473715Y-83814620D02*
X283473715Y-87246871D01*
X282828891Y-79563667D02*
X282828891Y-80663667D01*
X281419990Y-78154766D02*
X282828891Y-79563667D01*
X281419990Y-69800592D02*
X281419990Y-78154766D01*
X283473715Y-67746867D02*
X281419990Y-69800592D01*
X283473715Y-64314620D02*
X283473715Y-67746867D01*
X282826392Y-100161168D02*
X282828891Y-100163667D01*
X282826392Y-95376032D02*
X282826392Y-100161168D01*
X265554668Y-96663667D02*
X265554669Y-96663666D01*
X263328891Y-96663667D02*
X265554668Y-96663667D01*
X263326391Y-91963534D02*
X265379801Y-91963534D01*
X265379801Y-91963534D02*
X265533715Y-91809620D01*
X263349846Y-77184620D02*
X263328893Y-77163667D01*
X266021216Y-77184620D02*
X263349846Y-77184620D01*
X263328891Y-57663667D02*
X265512761Y-57663666D01*
X265512761Y-57663666D02*
X265533715Y-57684620D01*
X263328893Y-76063667D02*
X263328893Y-77163667D01*
X261728893Y-74463667D02*
X263328893Y-76063667D01*
X261728893Y-66274666D02*
X261728893Y-74463667D01*
X263973715Y-64029844D02*
X261728893Y-66274666D01*
X263973715Y-60804620D02*
X263973715Y-64029844D01*
X263326391Y-96661167D02*
X263328891Y-96663667D01*
X263326391Y-91963534D02*
X263326391Y-96661167D01*
X263326391Y-90863534D02*
X263326391Y-91963534D01*
X261919988Y-89457131D02*
X263326391Y-90863534D01*
X261919988Y-85800594D02*
X261919988Y-89457131D01*
X263973715Y-83746867D02*
X261919988Y-85800594D01*
X263973715Y-80304620D02*
X263973715Y-83746867D01*
X243895436Y-61097120D02*
X243828891Y-61163665D01*
X246033715Y-61097120D02*
X243895436Y-61097120D01*
X243895439Y-80597119D02*
X243828892Y-80663667D01*
X246033715Y-80597120D02*
X243895439Y-80597119D01*
X243980307Y-95222120D02*
X243826393Y-95376034D01*
X246521214Y-95222120D02*
X243980307Y-95222120D01*
X246100259Y-100163666D02*
X246100260Y-100163665D01*
X243828889Y-100163666D02*
X246100259Y-100163666D01*
X243828892Y-79563667D02*
X243828892Y-80663667D01*
X242419990Y-78154765D02*
X243828892Y-79563667D01*
X242419990Y-69800594D02*
X242419990Y-78154765D01*
X244473715Y-67746869D02*
X242419990Y-69800594D01*
X244473715Y-64314620D02*
X244473715Y-67746869D01*
X243826393Y-94276034D02*
X243826393Y-95376034D01*
X242419990Y-92869631D02*
X243826393Y-94276034D01*
X242419990Y-89300594D02*
X242419990Y-92869631D01*
X244473715Y-87246869D02*
X242419990Y-89300594D01*
X244473715Y-83814620D02*
X244473715Y-87246869D01*
X243826393Y-100161168D02*
X243828889Y-100163666D01*
X243826393Y-95376034D02*
X243826393Y-100161168D01*
X226867301Y-103663534D02*
X226867303Y-103663531D01*
X224328891Y-103663534D02*
X226867301Y-103663534D01*
X224326392Y-98788532D02*
X226379803Y-98788532D01*
X226379803Y-98788532D02*
X226533715Y-98634620D01*
X224482803Y-84009620D02*
X224328891Y-84163532D01*
X226533715Y-84009620D02*
X224482803Y-84009620D01*
X224328891Y-64663536D02*
X226379801Y-64663534D01*
X226379801Y-64663534D02*
X226533715Y-64509620D01*
X224326392Y-103661035D02*
X224328891Y-103663534D01*
X224326392Y-98788532D02*
X224326392Y-103661035D01*
X224328891Y-83063532D02*
X224328891Y-84163532D01*
X222919991Y-81654632D02*
X224328891Y-83063532D01*
X222919991Y-73083435D02*
X222919991Y-81654632D01*
X224973715Y-71029712D02*
X222919991Y-73083435D01*
X224973715Y-67824620D02*
X224973715Y-71029712D01*
X224326392Y-97688532D02*
X224326392Y-98788532D01*
X222919991Y-96282130D02*
X224326392Y-97688532D01*
X222919990Y-92800461D02*
X222919991Y-96282130D01*
X224973715Y-90746736D02*
X222919990Y-92800461D01*
X224973715Y-87324620D02*
X224973715Y-90746736D01*
X204826391Y-64663535D02*
X206879800Y-64663535D01*
X206879800Y-64663535D02*
X207033715Y-64509620D01*
X204982805Y-84009620D02*
X204828891Y-84163534D01*
X207033715Y-84009620D02*
X204982805Y-84009620D01*
X204826391Y-98788533D02*
X206879802Y-98788533D01*
X206879802Y-98788533D02*
X207033715Y-98634620D01*
X204828891Y-103663533D02*
X209198893Y-103663533D01*
X204826391Y-97688533D02*
X204826391Y-98788533D01*
X203419990Y-96282132D02*
X204826391Y-97688533D01*
X203419990Y-92800459D02*
X203419990Y-96282132D01*
X205083715Y-91136734D02*
X203419990Y-92800459D01*
X205083715Y-85518358D02*
X205083715Y-91136734D01*
X204828891Y-85263534D02*
X205083715Y-85518358D01*
X204828891Y-84163534D02*
X204828891Y-85263534D01*
X204826392Y-103661033D02*
X204828891Y-103663533D01*
X204826391Y-98788533D02*
X204826392Y-103661033D01*
X204828891Y-83063534D02*
X204828891Y-84163534D01*
X203419990Y-81654633D02*
X204828891Y-83063534D01*
X203419990Y-73300461D02*
X203419990Y-81654633D01*
X205023892Y-71696559D02*
X203419990Y-73300461D01*
X205023892Y-65961036D02*
X205023892Y-71696559D01*
X204826391Y-65763535D02*
X205023892Y-65961036D01*
X204826391Y-64663535D02*
X204826391Y-65763535D01*
X199828891Y-84163534D02*
X202004801Y-84163534D01*
X202004801Y-84163534D02*
X202158715Y-84009618D01*
X198178891Y-71178534D02*
X198753891Y-70603534D01*
X198178891Y-71873534D02*
X198178891Y-71178534D01*
X199328891Y-84163534D02*
X199828891Y-84163534D01*
X198178891Y-83013534D02*
X199328891Y-84163534D01*
X198178891Y-71873534D02*
X198178891Y-83013534D01*
X219328891Y-84163531D02*
X221504803Y-84163532D01*
X221504803Y-84163532D02*
X221658715Y-84009620D01*
X218253892Y-71298532D02*
X217678892Y-71873532D01*
X218253892Y-70603532D02*
X218253892Y-71298532D01*
X218828891Y-84163532D02*
X219328891Y-84163531D01*
X217678892Y-83013533D02*
X218828891Y-84163532D01*
X217678892Y-71873532D02*
X217678892Y-83013533D01*
X238828892Y-80663667D02*
X241092168Y-80663667D01*
X241092168Y-80663667D02*
X241158715Y-80597120D01*
X237178891Y-67678667D02*
X237753891Y-67103667D01*
X237178891Y-68373667D02*
X237178891Y-67678667D01*
X238328892Y-80663667D02*
X238828892Y-80663667D01*
X237178891Y-79513666D02*
X238328892Y-80663667D01*
X237178891Y-68373667D02*
X237178891Y-79513666D01*
X258328893Y-77163667D02*
X260637762Y-77163667D01*
X260637762Y-77163667D02*
X260658715Y-77184620D01*
X256678892Y-64178665D02*
X257253892Y-63603665D01*
X256678892Y-64873665D02*
X256678892Y-64178665D01*
X257828893Y-77163667D02*
X258328893Y-77163667D01*
X256678892Y-76013666D02*
X257828893Y-77163667D01*
X256678892Y-64873665D02*
X256678892Y-76013666D01*
X277895438Y-80597120D02*
X277828891Y-80663667D01*
X280158715Y-80597120D02*
X277895438Y-80597120D01*
X276178891Y-67678665D02*
X276753891Y-67103665D01*
X276178891Y-68373665D02*
X276178891Y-67678665D01*
X277328890Y-80663667D02*
X277828891Y-80663667D01*
X276178891Y-79513667D02*
X277328890Y-80663667D01*
X276178891Y-68373665D02*
X276178891Y-79513667D01*
X297328891Y-80663667D02*
X299592168Y-80663667D01*
X299592168Y-80663667D02*
X299658715Y-80597120D01*
X295678891Y-67678667D02*
X296253891Y-67103667D01*
X295678891Y-68373667D02*
X295678891Y-67678667D01*
X296828891Y-80663667D02*
X297328891Y-80663667D01*
X295678890Y-79513667D02*
X296828891Y-80663667D01*
X295678891Y-68373667D02*
X295678890Y-79513667D01*
X199980304Y-98634620D02*
X199826391Y-98788533D01*
X202158715Y-98634620D02*
X199980304Y-98634620D01*
X198178891Y-90678532D02*
X198753891Y-90103532D01*
X198178891Y-91373530D02*
X198178891Y-90678532D01*
X199326391Y-98788533D02*
X199826391Y-98788533D01*
X198178891Y-97641033D02*
X199326391Y-98788533D01*
X198178891Y-91373530D02*
X198178891Y-97641033D01*
X219480304Y-98634620D02*
X219326392Y-98788532D01*
X221658715Y-98634620D02*
X219480304Y-98634620D01*
X217678891Y-90678534D02*
X218253891Y-90103534D01*
X217678891Y-91373534D02*
X217678891Y-90678534D01*
X218826392Y-98788532D02*
X219326392Y-98788532D01*
X217678891Y-97641031D02*
X218826392Y-98788532D01*
X217678891Y-91373534D02*
X217678891Y-97641031D01*
X238826393Y-95376034D02*
X241004801Y-95376034D01*
X241004801Y-95376034D02*
X241158715Y-95222120D01*
X237178891Y-87178667D02*
X237753891Y-86603667D01*
X237178891Y-87873667D02*
X237178891Y-87178667D01*
X238326393Y-95376034D02*
X238826393Y-95376034D01*
X237178891Y-94228532D02*
X238326393Y-95376034D01*
X237178891Y-87873667D02*
X237178891Y-94228532D01*
X258480305Y-91809620D02*
X258326391Y-91963534D01*
X260658715Y-91809620D02*
X258480305Y-91809620D01*
X257253889Y-83798667D02*
X256678889Y-84373667D01*
X257253889Y-83103667D02*
X257253889Y-83798667D01*
X257826391Y-91963534D02*
X258326391Y-91963534D01*
X256678889Y-90816032D02*
X257826391Y-91963534D01*
X256678889Y-84373667D02*
X256678889Y-90816032D01*
X277980304Y-95222120D02*
X277826392Y-95376032D01*
X280158715Y-95222120D02*
X277980304Y-95222120D01*
X276178893Y-87178667D02*
X276753893Y-86603667D01*
X276178893Y-87873667D02*
X276178893Y-87178667D01*
X277326392Y-95376032D02*
X277826392Y-95376032D01*
X276178893Y-94228533D02*
X277326392Y-95376032D01*
X276178893Y-87873667D02*
X276178893Y-94228533D01*
X297326391Y-95376034D02*
X299504801Y-95376034D01*
X299504801Y-95376034D02*
X299658715Y-95222120D01*
X295678891Y-87178667D02*
X296253891Y-86603667D01*
X295678891Y-87873667D02*
X295678891Y-87178667D01*
X296826391Y-95376034D02*
X297326391Y-95376034D01*
X295678891Y-94228534D02*
X296826391Y-95376034D01*
X295678891Y-87873667D02*
X295678891Y-94228534D01*
X319836577Y-108378985D02*
X322320129Y-109044451D01*
X322320129Y-109044451D02*
X322509683Y-108935012D01*
X320695062Y-102949733D02*
X320352444Y-102607115D01*
X320695062Y-104013720D02*
X320695062Y-102949733D01*
X339679437Y-108505284D02*
X339187998Y-107654086D01*
X339530616Y-109060691D02*
X339679437Y-108505284D01*
X343505904Y-114718808D02*
X345867356Y-115351558D01*
X345867356Y-115351558D02*
X346054125Y-115243727D01*
X199828891Y-103663533D02*
X202004802Y-103663533D01*
X202004802Y-103663533D02*
X202158715Y-103509620D01*
X198178891Y-110178534D02*
X198753891Y-109603534D01*
X198178891Y-110873534D02*
X198178891Y-110178534D01*
X199828891Y-108528534D02*
X198753891Y-109603534D01*
X199828891Y-103663533D02*
X199828891Y-108528534D01*
X219482805Y-103509620D02*
X219328891Y-103663534D01*
X221658714Y-103509620D02*
X219482805Y-103509620D01*
X217678891Y-110178534D02*
X218253891Y-109603534D01*
X217678891Y-110873534D02*
X217678891Y-110178534D01*
X238828891Y-100163666D02*
X241092169Y-100163666D01*
X241092169Y-100163666D02*
X241158715Y-100097120D01*
X237178891Y-106678665D02*
X237753891Y-106103665D01*
X237178891Y-107373665D02*
X237178891Y-106678665D01*
X258349844Y-96684620D02*
X258328891Y-96663667D01*
X260658715Y-96684620D02*
X258349844Y-96684620D01*
X256678891Y-103178667D02*
X257253891Y-102603667D01*
X256678891Y-103873667D02*
X256678891Y-103178667D01*
X277828891Y-100163667D02*
X280092167Y-100163667D01*
X280092167Y-100163667D02*
X280158715Y-100097120D01*
X276178891Y-106678667D02*
X276753891Y-106103667D01*
X276178890Y-107373667D02*
X276178891Y-106678667D01*
X297395437Y-100097120D02*
X297328892Y-100163665D01*
X299658715Y-100097120D02*
X297395437Y-100097120D01*
X295678893Y-106678667D02*
X296253893Y-106103667D01*
X295678893Y-107373667D02*
X295678893Y-106678667D01*
X316573445Y-114488899D02*
X317277673Y-114082313D01*
X316393566Y-115160217D02*
X316573445Y-114488899D01*
X316508299Y-122467860D02*
X316424077Y-122516486D01*
X318724455Y-123061678D02*
X316508299Y-122467860D01*
X334949077Y-127391484D02*
X337077120Y-127961692D01*
X337077120Y-127961692D02*
X337089119Y-127982475D01*
X335229119Y-120013393D02*
X336113227Y-119129285D01*
X335229119Y-120207189D02*
X335229119Y-120013393D01*
X221288891Y-38513533D02*
X220288891Y-38513534D01*
X220288891Y-38513534D02*
X217578891Y-35803532D01*
X211497619Y-48618535D02*
X203343893Y-48618533D01*
X212816033Y-46734435D02*
X212816032Y-47300122D01*
X212816032Y-47300122D02*
X211497619Y-48618535D01*
X203343893Y-48618533D02*
X201838890Y-47113534D01*
X201838890Y-47113534D02*
X201838891Y-44383534D01*
X321412998Y-79123898D02*
X321049723Y-79333635D01*
X321730315Y-77939656D02*
X321412998Y-79123898D01*
X212816033Y-45514802D02*
X213321215Y-45009620D01*
X212816033Y-46734435D02*
X212816033Y-45514802D01*
X212697843Y-44386248D02*
X213321215Y-45009620D01*
X212646214Y-44334619D02*
X212697843Y-44386248D01*
X212646214Y-36861619D02*
X212646214Y-44334619D01*
X213704301Y-35803533D02*
X212646214Y-36861619D01*
X217578891Y-35803532D02*
X213704301Y-35803533D01*
X210808892Y-47893532D02*
X203255301Y-47893532D01*
X203255301Y-47893532D02*
X202742096Y-47380329D01*
X201838891Y-43310531D02*
X201838891Y-40093534D01*
X202742096Y-47380329D02*
X202742096Y-44213737D01*
X202742096Y-44213737D02*
X201838891Y-43310531D01*
X318809255Y-83174640D02*
X317376303Y-84001954D01*
X318814294Y-83171731D02*
X318809255Y-83174640D01*
X320317649Y-77561133D02*
X318814294Y-83171731D01*
X220262629Y-37713534D02*
X215858715Y-33309620D01*
X221288891Y-37713534D02*
X220262629Y-37713534D01*
X215858715Y-34234620D02*
X215858715Y-33309620D01*
X212103881Y-46598544D02*
X212091032Y-46585695D01*
X210808892Y-47893532D02*
X212103881Y-46598544D01*
X212091032Y-46585695D02*
X212091032Y-36780391D01*
X212091032Y-36780391D02*
X213517901Y-35353522D01*
X213517901Y-35353522D02*
X214739813Y-35353522D01*
X214739813Y-35353522D02*
X215858715Y-34234620D01*
X310798891Y-55453667D02*
X306951524Y-59301034D01*
X310798891Y-53953667D02*
X310798891Y-55453667D01*
X291323892Y-53953667D02*
X291298891Y-53953665D01*
X296671258Y-59301032D02*
X291323892Y-53953667D01*
X306951524Y-59301034D02*
X296671258Y-59301032D01*
X291298891Y-55453667D02*
X287451524Y-59301034D01*
X291298891Y-53953665D02*
X291298891Y-55453667D01*
X277146256Y-59301034D02*
X287451524Y-59301034D01*
X271798891Y-53953669D02*
X277146256Y-59301034D01*
X271798891Y-50453665D02*
X271798891Y-53953669D01*
X253823891Y-53953667D02*
X252298891Y-53953665D01*
X255271258Y-55401032D02*
X253823891Y-53953667D01*
X270351526Y-55401034D02*
X255271258Y-55401032D01*
X271798891Y-53953669D02*
X270351526Y-55401034D01*
X234323892Y-57453532D02*
X235683891Y-58813534D01*
X232798892Y-57453532D02*
X234323892Y-57453532D01*
X252298891Y-55453667D02*
X252298891Y-53953665D01*
X248939024Y-58813534D02*
X252298891Y-55453667D01*
X235683891Y-58813534D02*
X248939024Y-58813534D01*
X213323892Y-57453666D02*
X218583759Y-62713532D01*
X213298890Y-57453666D02*
X213323892Y-57453666D01*
X232798891Y-58953532D02*
X232798892Y-57453532D01*
X229038891Y-62713534D02*
X232798891Y-58953532D01*
X218583759Y-62713532D02*
X229038891Y-62713534D01*
X252298891Y-54648667D02*
X251723891Y-55223666D01*
X252298891Y-53953665D02*
X252298891Y-54648667D01*
X271798893Y-51148667D02*
X271223891Y-51723667D01*
X271798891Y-50453665D02*
X271798893Y-51148667D01*
X291298891Y-54648667D02*
X290723891Y-55223665D01*
X291298891Y-53953665D02*
X291298891Y-54648667D01*
X310223892Y-54528665D02*
X310798891Y-53953667D01*
X310223891Y-55223667D02*
X310223892Y-54528665D01*
X213298890Y-58148666D02*
X212723890Y-58723666D01*
X213298890Y-57453666D02*
X213298890Y-58148666D01*
X232798891Y-58148533D02*
X232223891Y-58723534D01*
X232798891Y-57453534D02*
X232798891Y-58148533D01*
X309528892Y-64333665D02*
X308396258Y-63201034D01*
X309528892Y-65833667D02*
X309528892Y-64333665D01*
X291553892Y-65833665D02*
X290028891Y-65833665D01*
X294186524Y-63201034D02*
X291553892Y-65833665D01*
X308396258Y-63201034D02*
X294186524Y-63201034D01*
X290028891Y-64333667D02*
X288896258Y-63201034D01*
X290028891Y-65833665D02*
X290028891Y-64333667D01*
X272053892Y-62333665D02*
X270528892Y-62333665D01*
X272921259Y-63201032D02*
X272053892Y-62333665D01*
X288896258Y-63201034D02*
X272921259Y-63201032D01*
X270528891Y-60833667D02*
X269483758Y-59788534D01*
X270528892Y-62333665D02*
X270528891Y-60833667D01*
X252553893Y-65833667D02*
X251028891Y-65833667D01*
X258599024Y-59788532D02*
X252553893Y-65833667D01*
X269483758Y-59788534D02*
X258599024Y-59788532D01*
X251028891Y-64333665D02*
X249896258Y-63201035D01*
X251028891Y-65833667D02*
X251028891Y-64333665D01*
X233053891Y-69333532D02*
X231528891Y-69333532D01*
X239186392Y-63201032D02*
X233053891Y-69333532D01*
X249896258Y-63201035D02*
X239186392Y-63201032D01*
X231528891Y-67833534D02*
X230308892Y-66613532D01*
X231528891Y-69333532D02*
X231528891Y-67833534D01*
X213553892Y-69333534D02*
X212028891Y-69333534D01*
X216273891Y-66613534D02*
X213553892Y-69333534D01*
X230308892Y-66613532D02*
X216273891Y-66613534D01*
X251028892Y-66408665D02*
X251723891Y-67103667D01*
X251028891Y-65833667D02*
X251028892Y-66408665D01*
X309528891Y-66408665D02*
X310223891Y-67103667D01*
X309528892Y-65833667D02*
X309528891Y-66408665D01*
X270528892Y-62908665D02*
X271223892Y-63603665D01*
X270528892Y-62333665D02*
X270528892Y-62908665D01*
X290016771Y-65878898D02*
X290723891Y-67103665D01*
X290028891Y-65833665D02*
X290016771Y-65878898D01*
X231528892Y-69908532D02*
X232223893Y-70603532D01*
X231528892Y-69333532D02*
X231528892Y-69908532D01*
X212028891Y-69908534D02*
X212723891Y-70603534D01*
X212028891Y-69333534D02*
X212028891Y-69908534D01*
X335821865Y-104053583D02*
X334730535Y-105144911D01*
X336584389Y-103291057D02*
X335821865Y-104053583D01*
X350153916Y-103291059D02*
X336584389Y-103291057D01*
X353566089Y-106703232D02*
X350153916Y-103291059D01*
X353566089Y-110191885D02*
X353566089Y-106703232D01*
X309528891Y-83833665D02*
X308396259Y-82701032D01*
X309528891Y-85333667D02*
X309528891Y-83833665D01*
X291553891Y-85333667D02*
X290028890Y-85333667D01*
X294186524Y-82701034D02*
X291553891Y-85333667D01*
X308396259Y-82701032D02*
X294186524Y-82701034D01*
X290028891Y-83833665D02*
X288896258Y-82701034D01*
X290028890Y-85333667D02*
X290028891Y-83833665D01*
X272053891Y-81833667D02*
X270528891Y-81833667D01*
X272921258Y-82701034D02*
X272053891Y-81833667D01*
X288896258Y-82701034D02*
X272921258Y-82701034D01*
X270528891Y-80333665D02*
X269483758Y-79288534D01*
X270528891Y-81833667D02*
X270528891Y-80333665D01*
X252553891Y-85333667D02*
X251028891Y-85333667D01*
X258599024Y-79288532D02*
X252553891Y-85333667D01*
X269483758Y-79288534D02*
X258599024Y-79288532D01*
X251028891Y-83833667D02*
X249896258Y-82701034D01*
X251028891Y-85333667D02*
X251028891Y-83833667D01*
X233053893Y-88833534D02*
X231528891Y-88833534D01*
X239186391Y-82701034D02*
X233053893Y-88833534D01*
X249896258Y-82701034D02*
X239186391Y-82701034D01*
X231528891Y-87333532D02*
X230308891Y-86113534D01*
X231528891Y-88833534D02*
X231528891Y-87333532D01*
X213553892Y-88833532D02*
X212028891Y-88833532D01*
X216273891Y-86113532D02*
X213553892Y-88833532D01*
X230308891Y-86113534D02*
X216273891Y-86113532D01*
X353386210Y-110863202D02*
X352681982Y-111269788D01*
X353566089Y-110191884D02*
X353386210Y-110863202D01*
X231528891Y-89408534D02*
X232223891Y-90103534D01*
X231528891Y-88833534D02*
X231528891Y-89408534D01*
X212028891Y-89408532D02*
X212723891Y-90103532D01*
X212028891Y-88833532D02*
X212028891Y-89408532D01*
X309528891Y-85908667D02*
X310223891Y-86603667D01*
X309528891Y-85333667D02*
X309528891Y-85908667D01*
X251028891Y-85908667D02*
X251723891Y-86603667D01*
X251028891Y-85333667D02*
X251028891Y-85908667D01*
X270528889Y-82408667D02*
X271223889Y-83103667D01*
X270528889Y-81833667D02*
X270528889Y-82408667D01*
X290028893Y-85908667D02*
X290723893Y-86603667D01*
X290028893Y-85333667D02*
X290028893Y-85908667D01*
X334730535Y-105338709D02*
X333846427Y-106222817D01*
X334730535Y-105144913D02*
X334730535Y-105338709D01*
X331682894Y-94523555D02*
X331473837Y-94314498D01*
X331682894Y-98389562D02*
X331682894Y-94523555D01*
X336584389Y-103291057D02*
X331682894Y-98389562D01*
X309528892Y-103333665D02*
X308883759Y-102688534D01*
X309528891Y-104833665D02*
X309528892Y-103333665D01*
X291553891Y-104833667D02*
X290028891Y-104833667D01*
X293699024Y-102688535D02*
X291553891Y-104833667D01*
X308883759Y-102688534D02*
X293699024Y-102688535D01*
X290028891Y-103333667D02*
X288896259Y-102201032D01*
X290028891Y-104833667D02*
X290028891Y-103333667D01*
X272053891Y-101333667D02*
X270528892Y-101333667D01*
X272921258Y-102201034D02*
X272053891Y-101333667D01*
X288896259Y-102201032D02*
X272921258Y-102201034D01*
X270528891Y-99833667D02*
X269483760Y-98788534D01*
X270528892Y-101333667D02*
X270528891Y-99833667D01*
X252553891Y-104833665D02*
X251028891Y-104833665D01*
X258599024Y-98788534D02*
X252553891Y-104833665D01*
X269483760Y-98788534D02*
X258599024Y-98788534D01*
X251028891Y-103333667D02*
X249896258Y-102201032D01*
X251028891Y-104833665D02*
X251028891Y-103333667D01*
X233053891Y-108333534D02*
X231528891Y-108333534D01*
X239186391Y-102201034D02*
X233053891Y-108333534D01*
X249896258Y-102201032D02*
X239186391Y-102201034D01*
X231503891Y-108333534D02*
X228783891Y-105613534D01*
X231528891Y-108333534D02*
X231503891Y-108333534D01*
X213553890Y-108333534D02*
X212028891Y-108333533D01*
X216273891Y-105613534D02*
X213553890Y-108333534D01*
X228783891Y-105613534D02*
X216273891Y-105613534D01*
X329317296Y-115179669D02*
X330429039Y-116291412D01*
X325306162Y-111168535D02*
X329317296Y-115179669D01*
X315888760Y-111168535D02*
X325306162Y-111168535D01*
X309553892Y-104833667D02*
X315888760Y-111168535D01*
X309528891Y-104833665D02*
X309553892Y-104833667D01*
X344217622Y-116291412D02*
X349264592Y-121338382D01*
X330429039Y-116291412D02*
X344217622Y-116291412D01*
X309528891Y-105408667D02*
X310223891Y-106103667D01*
X309528891Y-104833665D02*
X309528891Y-105408667D01*
X349264592Y-122402369D02*
X349607210Y-122744987D01*
X349264592Y-121338382D02*
X349264592Y-122402369D01*
X318751390Y-96111587D02*
X318351391Y-96511586D01*
X319326391Y-95536587D02*
X318751390Y-96111587D01*
X319326391Y-94797110D02*
X319326391Y-95536587D01*
X330280218Y-116846817D02*
X330771657Y-117698015D01*
X330429039Y-116291410D02*
X330280218Y-116846817D01*
X290028891Y-105408668D02*
X290723891Y-106103667D01*
X290028891Y-104833667D02*
X290028891Y-105408668D01*
X270528890Y-101908667D02*
X271223891Y-102603667D01*
X270528892Y-101333667D02*
X270528890Y-101908667D01*
X231516771Y-108378767D02*
X232223890Y-109603534D01*
X231528891Y-108333534D02*
X231516771Y-108378767D01*
X251016771Y-104878898D02*
X251723890Y-106103665D01*
X251028891Y-104833665D02*
X251016771Y-104878898D01*
X212028891Y-108908534D02*
X212723891Y-109603534D01*
X212028891Y-108333534D02*
X212028891Y-108908534D01*
X219778891Y-43023534D02*
X219778892Y-45163534D01*
X221288891Y-42513534D02*
X220288891Y-42513533D01*
X220288891Y-42513533D02*
X219778891Y-43023534D01*
X316421002Y-84553498D02*
X316944232Y-82600777D01*
X316944232Y-82600777D02*
X316740313Y-82247579D01*
D29*
X267797629Y-38353534D02*
X268263715Y-38819620D01*
X264888891Y-38353534D02*
X267797629Y-38353534D01*
X258388891Y-38353534D02*
X264888891Y-38353534D01*
D30*
X242153891Y-34778532D02*
X241618892Y-34778532D01*
X242653871Y-35278512D02*
X242153891Y-34778532D01*
X245846310Y-35278512D02*
X242653871Y-35278512D01*
X250088891Y-39913532D02*
X250088893Y-39521095D01*
X250088893Y-39521095D02*
X245846310Y-35278512D01*
X250088891Y-40912536D02*
X250088891Y-41263534D01*
X249238892Y-40062534D02*
X250088891Y-40912536D01*
X249238891Y-39913532D02*
X249238892Y-40062534D01*
X239902263Y-35401905D02*
X239278890Y-34778534D01*
X240228881Y-35728522D02*
X239902263Y-35401905D01*
X245659910Y-35728524D02*
X240228881Y-35728522D01*
X249238892Y-39307504D02*
X245659910Y-35728524D01*
X249238891Y-39913532D02*
X249238892Y-39307504D01*
X236223891Y-36113533D02*
X236938892Y-36828532D01*
X233088891Y-36113534D02*
X235068891Y-36113534D01*
X234088892Y-42513534D02*
X233088891Y-42513534D01*
X234803901Y-41798522D02*
X234088892Y-42513534D01*
X237428901Y-41798522D02*
X235233901Y-41798524D01*
X238743891Y-40483535D02*
X237428901Y-41798522D01*
X237718882Y-41798524D02*
X237428901Y-41798522D01*
X238743891Y-42823532D02*
X237718882Y-41798524D01*
X235233901Y-41798524D02*
X234803901Y-41798522D01*
X235068891Y-36113534D02*
X236223891Y-36113533D01*
X223188891Y-33913534D02*
X223188891Y-33413534D01*
X222613881Y-34488544D02*
X223188891Y-33913534D01*
X220168902Y-34488542D02*
X222613881Y-34488544D01*
X219143891Y-33463534D02*
X220168902Y-34488542D01*
X214357520Y-39313534D02*
X214145388Y-39101402D01*
X216620263Y-39313532D02*
X214357520Y-39313534D01*
X216832394Y-39525664D02*
X216620263Y-39313532D01*
X214145388Y-39101402D02*
X214141023Y-39101402D01*
D29*
X339664531Y-101418909D02*
X336368309Y-100535689D01*
X336368309Y-100535689D02*
X335771246Y-100880403D01*
X334946584Y-107725196D02*
X334820410Y-108196083D01*
X334820410Y-108196083D02*
X335854553Y-109987274D01*
X336073857Y-89819463D02*
X334739786Y-89462000D01*
X274308715Y-46472120D02*
X274308715Y-42572120D01*
X254321215Y-44034620D02*
X254321215Y-47447120D01*
X246521215Y-44034620D02*
X246521215Y-47447121D01*
X227939803Y-47503532D02*
X227996215Y-47447120D01*
X227988891Y-47439796D02*
X227996215Y-47447120D01*
X227988891Y-45213535D02*
X227988891Y-47439796D01*
X227988891Y-45213535D02*
X227988891Y-43565616D01*
X227988891Y-43565616D02*
X228489301Y-43065206D01*
X246688891Y-43866944D02*
X246521215Y-44034620D01*
X246688891Y-41263534D02*
X246688891Y-43866944D01*
X214145388Y-39101402D02*
X213371215Y-38327229D01*
X213371215Y-38327229D02*
X213371215Y-37209620D01*
X213371215Y-39875575D02*
X214145388Y-39101402D01*
X213371215Y-40622120D02*
X213371215Y-39875575D01*
X227996215Y-48372120D02*
X229021215Y-49397120D01*
X227996215Y-47447120D02*
X227996215Y-48372120D01*
X272846215Y-42572120D02*
X272846215Y-46472119D01*
X271383715Y-42572120D02*
X271383715Y-46472120D01*
X252371215Y-44034620D02*
X252371215Y-47447120D01*
X250421215Y-47447120D02*
X250421215Y-44034620D01*
X248471215Y-44034620D02*
X248471215Y-47447120D01*
X344941681Y-85610960D02*
X353329713Y-87858526D01*
X353329713Y-87858526D02*
X353372234Y-87932174D01*
X311163715Y-78354620D02*
X315453715Y-78354620D01*
X315453716Y-79524620D02*
X311163715Y-79524620D01*
X311163715Y-80694620D02*
X315453715Y-80694620D01*
X341898722Y-92327373D02*
X342854023Y-91775830D01*
X338131611Y-91317979D02*
X341898722Y-92327373D01*
X340970467Y-91271133D02*
X341925768Y-90719591D01*
X337580068Y-90362678D02*
X340970467Y-91271133D01*
X340418924Y-90315832D02*
X341374225Y-89764289D01*
X337028525Y-89407377D02*
X340418924Y-90315832D01*
X340244092Y-89461470D02*
X341677042Y-88634155D01*
X336476981Y-88452076D02*
X340244092Y-89461470D01*
X342037888Y-87287465D02*
X344941681Y-85610960D01*
X341677042Y-88634155D02*
X342037888Y-87287465D01*
X217953715Y-45594620D02*
X217953715Y-49104620D01*
D30*
X237718882Y-41508542D02*
X237718882Y-41798524D01*
X238743892Y-40483532D02*
X237718882Y-41508542D01*
X221288891Y-40913534D02*
X222244801Y-40913534D01*
X222244801Y-40913534D02*
X223023715Y-40134620D01*
X233088891Y-37713532D02*
X234558891Y-37713532D01*
X234558891Y-37713532D02*
X234988892Y-38143534D01*
X233088891Y-36913532D02*
X234780565Y-36913532D01*
X234780565Y-36913532D02*
X234976268Y-37109236D01*
X199980306Y-64509622D02*
X199826391Y-64663535D01*
X202158715Y-64509620D02*
X199980306Y-64509622D01*
X198753891Y-59298666D02*
X199448890Y-59993666D01*
X198753890Y-58723666D02*
X198753891Y-59298666D01*
X199448890Y-64286034D02*
X199826391Y-64663535D01*
X199448890Y-59993666D02*
X199448890Y-64286034D01*
X219482805Y-64509620D02*
X219328891Y-64663534D01*
X221658715Y-64509620D02*
X219482805Y-64509620D01*
X218948891Y-59418534D02*
X218253891Y-58723534D01*
X218948891Y-59993534D02*
X218948891Y-59418534D01*
X238828891Y-61163665D02*
X241092170Y-61163665D01*
X241092170Y-61163665D02*
X241158715Y-61097120D01*
X238448891Y-55918667D02*
X237753890Y-55223667D01*
X238448891Y-56493667D02*
X238448891Y-55918667D01*
X258349845Y-57684620D02*
X258328890Y-57663666D01*
X260658715Y-57684620D02*
X258349845Y-57684620D01*
X257948893Y-52418666D02*
X257253893Y-51723666D01*
X257948893Y-52993666D02*
X257948893Y-52418666D01*
X280646215Y-61097120D02*
X278146215Y-61097120D01*
X277448891Y-55918667D02*
X276753891Y-55223667D01*
X277448891Y-56493667D02*
X277448891Y-55918667D01*
X297395438Y-61097120D02*
X297328891Y-61163667D01*
X299658715Y-61097120D02*
X297395438Y-61097120D01*
X296948891Y-55918665D02*
X296253891Y-55223665D01*
X296948891Y-56493665D02*
X296948891Y-55918665D01*
X227188891Y-49179444D02*
X226971215Y-49397120D01*
X227188891Y-45213534D02*
X227188891Y-49179444D01*
X215701023Y-40657037D02*
X215917520Y-40873534D01*
X215917520Y-40873534D02*
X217828891Y-40873532D01*
X218588893Y-40113534D02*
X221288891Y-40113533D01*
X217828891Y-40873532D02*
X218588893Y-40113534D01*
X215276759Y-37970029D02*
X217655390Y-37970030D01*
X217655390Y-37970030D02*
X217828891Y-38143534D01*
X218998891Y-39313534D02*
X221288891Y-39313532D01*
X217828891Y-38143534D02*
X218998891Y-39313534D01*
X323398010Y-80091730D02*
X323026472Y-81478335D01*
X344390203Y-87603174D02*
X344411102Y-87591108D01*
X344053282Y-88860582D02*
X344390203Y-87603174D01*
X323432411Y-85044113D02*
X324939257Y-85447871D01*
X324602791Y-86703576D02*
X327239768Y-87410151D01*
X327239768Y-87410151D02*
X329876746Y-88116728D01*
X324510867Y-86544359D02*
X324602791Y-86703576D01*
X329905587Y-88166680D02*
X329876746Y-88116726D01*
X332759638Y-88931421D02*
X329905587Y-88166680D01*
X330549675Y-85605319D02*
X327912698Y-84898743D01*
X327912698Y-84898743D02*
X325275720Y-84192167D01*
X330641600Y-85764536D02*
X330549675Y-85605320D01*
X333409477Y-86506186D02*
X330641600Y-85764536D01*
X326446100Y-85851630D02*
X327576233Y-86154446D01*
X329083078Y-86558204D02*
X330213211Y-86861022D01*
X229588891Y-46213532D02*
X229588892Y-45213532D01*
X229663892Y-46288535D02*
X229588891Y-46213532D01*
X236867080Y-46288535D02*
X229663892Y-46288535D01*
X239643901Y-43511713D02*
X236867080Y-46288535D01*
X239643902Y-37868544D02*
X239643901Y-43511713D01*
X239278891Y-37503534D02*
X239643902Y-37868544D01*
X239278892Y-36828534D02*
X239278891Y-37503534D01*
X228788891Y-46213534D02*
X228788891Y-45213534D01*
X229313902Y-46738543D02*
X228788891Y-46213534D01*
X237053481Y-46738544D02*
X229313902Y-46738543D01*
X240093912Y-43698114D02*
X237053481Y-46738544D01*
X240093911Y-38353514D02*
X240093912Y-43698114D01*
X241618892Y-36828532D02*
X240093911Y-38353514D01*
X231188891Y-33413532D02*
X231188891Y-34923532D01*
X231188891Y-34923532D02*
X231088892Y-35023533D01*
X320440686Y-83208022D02*
X320629545Y-83258625D01*
X320629545Y-83258625D02*
X321025523Y-83944481D01*
X322283128Y-79610700D02*
X323196819Y-79083180D01*
X323196819Y-79083180D02*
X324368005Y-79396998D01*
X319835051Y-85468287D02*
X319841386Y-85444639D01*
X319841386Y-85444639D02*
X320766704Y-84910409D01*
X318838892Y-88119077D02*
X319229413Y-87728555D01*
X318838891Y-89233534D02*
X318838892Y-88119077D01*
M02*
