G04 #@! TF.GenerationSoftware,KiCad,Pcbnew,(5.1.4)-1*
G04 #@! TF.CreationDate,2020-05-29T20:33:55-05:00*
G04 #@! TF.ProjectId,Keeb,4b656562-2e6b-4696-9361-645f70636258,rev?*
G04 #@! TF.SameCoordinates,Original*
G04 #@! TF.FileFunction,Legend,Bot*
G04 #@! TF.FilePolarity,Positive*
%FSLAX46Y46*%
G04 Gerber Fmt 4.6, Leading zero omitted, Abs format (unit mm)*
G04 Created by KiCad (PCBNEW (5.1.4)-1) date 2020-05-29 20:33:55*
%MOMM*%
%LPD*%
G04 APERTURE LIST*
%ADD10C,0.254000*%
%ADD11C,0.203200*%
%ADD12C,0.120000*%
%ADD13C,0.200000*%
%ADD14C,0.050000*%
%ADD15C,0.150000*%
G04 APERTURE END LIST*
D10*
X231471591Y-43313534D02*
G75*
G03X231471591Y-43313534I-282700J0D01*
G01*
D11*
X222388891Y-44113534D02*
X231988891Y-44113534D01*
X222388891Y-34513534D02*
X222388891Y-44113534D01*
X231988891Y-34513534D02*
X222388891Y-34513534D01*
X231988891Y-44113534D02*
X231988891Y-34513534D01*
D12*
X214084963Y-44299620D02*
X214607467Y-44299620D01*
X214084963Y-45719620D02*
X214607467Y-45719620D01*
X284696215Y-60097120D02*
X277896215Y-60097120D01*
X284696215Y-62097120D02*
X284696215Y-60097120D01*
X277896215Y-62097120D02*
X284696215Y-62097120D01*
X333313600Y-89814901D02*
X333818301Y-89950135D01*
X333681123Y-88443287D02*
X334185824Y-88578521D01*
D13*
X212483687Y-38959981D02*
X215842444Y-42318738D01*
X215135338Y-36308330D02*
X212483687Y-38959981D01*
X218494095Y-39667087D02*
X215135338Y-36308330D01*
X215842444Y-42318738D02*
X218494095Y-39667087D01*
D12*
X341534710Y-128120823D02*
X334966414Y-126360854D01*
X341017072Y-130052675D02*
X341534710Y-128120823D01*
X334448776Y-128292705D02*
X341017072Y-130052675D01*
X323009711Y-123245825D02*
X316441415Y-121485856D01*
X322492073Y-125177677D02*
X323009711Y-123245825D01*
X315923777Y-123417707D02*
X322492073Y-125177677D01*
X303878892Y-99163665D02*
X297078892Y-99163665D01*
X303878892Y-101163665D02*
X303878892Y-99163665D01*
X297078892Y-101163665D02*
X303878892Y-101163665D01*
X284378891Y-99163667D02*
X277578891Y-99163667D01*
X284378891Y-101163667D02*
X284378891Y-99163667D01*
X277578891Y-101163667D02*
X284378891Y-101163667D01*
X264878891Y-95663667D02*
X258078891Y-95663667D01*
X264878891Y-97663667D02*
X264878891Y-95663667D01*
X258078891Y-97663667D02*
X264878891Y-97663667D01*
X245378891Y-99163666D02*
X238578891Y-99163666D01*
X245378891Y-101163666D02*
X245378891Y-99163666D01*
X238578891Y-101163666D02*
X245378891Y-101163666D01*
X225878891Y-102663534D02*
X219078891Y-102663534D01*
X225878891Y-104663534D02*
X225878891Y-102663534D01*
X219078891Y-104663534D02*
X225878891Y-104663534D01*
X206378891Y-102663533D02*
X199578891Y-102663533D01*
X206378891Y-104663533D02*
X206378891Y-102663533D01*
X199578891Y-104663533D02*
X206378891Y-104663533D01*
X336920271Y-113989470D02*
X343488567Y-115749439D01*
X337437909Y-112057618D02*
X336920271Y-113989470D01*
X344006205Y-113817588D02*
X337437909Y-112057618D01*
X326422210Y-109108324D02*
X319853914Y-107348355D01*
X325904572Y-111040176D02*
X326422210Y-109108324D01*
X319336276Y-109280206D02*
X325904572Y-111040176D01*
X303876391Y-94376034D02*
X297076391Y-94376034D01*
X303876391Y-96376034D02*
X303876391Y-94376034D01*
X297076391Y-96376034D02*
X303876391Y-96376034D01*
X284376392Y-94376032D02*
X277576392Y-94376032D01*
X284376392Y-96376032D02*
X284376392Y-94376032D01*
X277576392Y-96376032D02*
X284376392Y-96376032D01*
X264876391Y-90963534D02*
X258076391Y-90963534D01*
X264876391Y-92963534D02*
X264876391Y-90963534D01*
X258076391Y-92963534D02*
X264876391Y-92963534D01*
X245376393Y-94376034D02*
X238576393Y-94376034D01*
X245376393Y-96376034D02*
X245376393Y-94376034D01*
X238576393Y-96376034D02*
X245376393Y-96376034D01*
X225876392Y-97788532D02*
X219076392Y-97788532D01*
X225876392Y-99788532D02*
X225876392Y-97788532D01*
X219076392Y-99788532D02*
X225876392Y-99788532D01*
X206376391Y-97788533D02*
X199576391Y-97788533D01*
X206376391Y-99788533D02*
X206376391Y-97788533D01*
X199576391Y-99788533D02*
X206376391Y-99788533D01*
X303878891Y-79663667D02*
X297078891Y-79663667D01*
X303878891Y-81663667D02*
X303878891Y-79663667D01*
X297078891Y-81663667D02*
X303878891Y-81663667D01*
X284378891Y-79663667D02*
X277578891Y-79663667D01*
X284378891Y-81663667D02*
X284378891Y-79663667D01*
X277578891Y-81663667D02*
X284378891Y-81663667D01*
X264878893Y-76163667D02*
X258078893Y-76163667D01*
X264878893Y-78163667D02*
X264878893Y-76163667D01*
X258078893Y-78163667D02*
X264878893Y-78163667D01*
X245378892Y-79663667D02*
X238578892Y-79663667D01*
X245378892Y-81663667D02*
X245378892Y-79663667D01*
X238578892Y-81663667D02*
X245378892Y-81663667D01*
X225878891Y-83163532D02*
X219078891Y-83163532D01*
X225878891Y-85163532D02*
X225878891Y-83163532D01*
X219078891Y-85163532D02*
X225878891Y-85163532D01*
X206378891Y-83163534D02*
X199578891Y-83163534D01*
X206378891Y-85163534D02*
X206378891Y-83163534D01*
X199578891Y-85163534D02*
X206378891Y-85163534D01*
X303878891Y-60163667D02*
X297078891Y-60163667D01*
X303878891Y-62163667D02*
X303878891Y-60163667D01*
X297078891Y-62163667D02*
X303878891Y-62163667D01*
X264878891Y-56663666D02*
X258078891Y-56663666D01*
X264878891Y-58663666D02*
X264878891Y-56663666D01*
X258078891Y-58663666D02*
X264878891Y-58663666D01*
X245378891Y-60163665D02*
X238578891Y-60163665D01*
X245378891Y-62163665D02*
X245378891Y-60163665D01*
X238578891Y-62163665D02*
X245378891Y-62163665D01*
X225878891Y-63663534D02*
X219078891Y-63663534D01*
X225878891Y-65663534D02*
X225878891Y-63663534D01*
X219078891Y-65663534D02*
X225878891Y-65663534D01*
X206376391Y-63663535D02*
X199576391Y-63663535D01*
X206376391Y-65663535D02*
X206376391Y-63663535D01*
X199576391Y-65663535D02*
X206376391Y-65663535D01*
X245068891Y-38863534D02*
X245068891Y-37963534D01*
X254258891Y-38863534D02*
X254258891Y-37963534D01*
X245068891Y-35263534D02*
X245068891Y-32533534D01*
X254258891Y-35263534D02*
X254258891Y-32533534D01*
X245188891Y-41943534D02*
X254138891Y-41943534D01*
X245068891Y-32533534D02*
X254258891Y-32533534D01*
X343922967Y-86669623D02*
X344058201Y-86164922D01*
X345294581Y-87037146D02*
X345429815Y-86532445D01*
X333963439Y-87389666D02*
X334468140Y-87524900D01*
X334330962Y-86018052D02*
X334835663Y-86153286D01*
X319783375Y-88612033D02*
X320288076Y-88747267D01*
X320150898Y-87240419D02*
X320655599Y-87375653D01*
X320389012Y-86351769D02*
X320893713Y-86487003D01*
X320756535Y-84980155D02*
X321261236Y-85115389D01*
X320994648Y-84091500D02*
X321499349Y-84226734D01*
X321362171Y-82719886D02*
X321866872Y-82855120D01*
X321600285Y-81831236D02*
X322104986Y-81966470D01*
X321967808Y-80459622D02*
X322472509Y-80594856D01*
X215094967Y-34019620D02*
X214572463Y-34019620D01*
X215094967Y-32599620D02*
X214572463Y-32599620D01*
X240908891Y-36064784D02*
X240908891Y-35542280D01*
X242328891Y-36064784D02*
X242328891Y-35542280D01*
X238568891Y-36064786D02*
X238568891Y-35542282D01*
X239988891Y-36064786D02*
X239988891Y-35542282D01*
X268973715Y-37533368D02*
X268973715Y-38055872D01*
X267553715Y-37533368D02*
X267553715Y-38055872D01*
X331682905Y-86012494D02*
X331895037Y-86379917D01*
X332050328Y-85800362D02*
X331895037Y-86379917D01*
X331682905Y-86012494D02*
X332050328Y-85800362D01*
X331033568Y-84958520D02*
X330454012Y-84803228D01*
X330816790Y-88472137D02*
X331541483Y-85767545D01*
X329392854Y-88763524D02*
X329972410Y-88918816D01*
X329609632Y-85249907D02*
X328884939Y-87954499D01*
X328897880Y-87906202D02*
G75*
G03X329392854Y-88763524I676148J-181174D01*
G01*
X329972410Y-88918816D02*
G75*
G03X330829731Y-88423841I181173J676148D01*
G01*
X331528542Y-85815842D02*
G75*
G03X331033568Y-84958520I-676148J181174D01*
G01*
X330454012Y-84803228D02*
G75*
G03X329596691Y-85298203I-181173J-676148D01*
G01*
X329045927Y-85305918D02*
X329258059Y-85673341D01*
X329413350Y-85093786D02*
X329258059Y-85673341D01*
X329045927Y-85305918D02*
X329413350Y-85093786D01*
X328396590Y-84251944D02*
X327817034Y-84096652D01*
X328179812Y-87765561D02*
X328904505Y-85060969D01*
X326755876Y-88056948D02*
X327335432Y-88212240D01*
X326972654Y-84543331D02*
X326247961Y-87247923D01*
X326260902Y-87199626D02*
G75*
G03X326755876Y-88056948I676148J-181174D01*
G01*
X327335432Y-88212240D02*
G75*
G03X328192753Y-87717265I181173J676148D01*
G01*
X328891564Y-85109266D02*
G75*
G03X328396590Y-84251944I-676148J181174D01*
G01*
X327817034Y-84096652D02*
G75*
G03X326959713Y-84591627I-181173J-676148D01*
G01*
X326408951Y-84599343D02*
X326621083Y-84966766D01*
X326776374Y-84387211D02*
X326621083Y-84966766D01*
X326408951Y-84599343D02*
X326776374Y-84387211D01*
X325759614Y-83545369D02*
X325180058Y-83390077D01*
X325542836Y-87058986D02*
X326267529Y-84354394D01*
X324118900Y-87350373D02*
X324698456Y-87505665D01*
X324335678Y-83836756D02*
X323610985Y-86541348D01*
X323623926Y-86493051D02*
G75*
G03X324118900Y-87350373I676148J-181174D01*
G01*
X324698456Y-87505665D02*
G75*
G03X325555777Y-87010690I181173J676148D01*
G01*
X326254588Y-84402691D02*
G75*
G03X325759614Y-83545369I-676148J181174D01*
G01*
X325180058Y-83390077D02*
G75*
G03X324322737Y-83885052I-181173J-676148D01*
G01*
X237457639Y-42113533D02*
X237980143Y-42113533D01*
X237457639Y-43533533D02*
X237980143Y-43533533D01*
X237648891Y-35542280D02*
X237648891Y-36064784D01*
X236228891Y-35542280D02*
X236228891Y-36064784D01*
X220430144Y-34173532D02*
X219907640Y-34173532D01*
X220430144Y-32753532D02*
X219907640Y-32753532D01*
X227734963Y-48687120D02*
X228257467Y-48687120D01*
X227734963Y-50107120D02*
X228257467Y-50107120D01*
X237980144Y-41193532D02*
X237457640Y-41193532D01*
X237980144Y-39773532D02*
X237457640Y-39773532D01*
D14*
X228255557Y-38546867D02*
X228255557Y-39680200D01*
X228188891Y-39813534D01*
X228122224Y-39880200D01*
X227988891Y-39946867D01*
X227722224Y-39946867D01*
X227588891Y-39880200D01*
X227522224Y-39813534D01*
X227455557Y-39680200D01*
X227455557Y-38546867D01*
X226055557Y-39946867D02*
X226855557Y-39946867D01*
X226455557Y-39946867D02*
X226455557Y-38546867D01*
X226588891Y-38746867D01*
X226722224Y-38880200D01*
X226855557Y-38946867D01*
D15*
X215465262Y-47412000D02*
X215798595Y-46935810D01*
X216036691Y-47412000D02*
X216036691Y-46412000D01*
X215655738Y-46412000D01*
X215560500Y-46459620D01*
X215512881Y-46507239D01*
X215465262Y-46602477D01*
X215465262Y-46745334D01*
X215512881Y-46840572D01*
X215560500Y-46888191D01*
X215655738Y-46935810D01*
X216036691Y-46935810D01*
X214512881Y-47412000D02*
X215084310Y-47412000D01*
X214798595Y-47412000D02*
X214798595Y-46412000D01*
X214893834Y-46554858D01*
X214989072Y-46650096D01*
X215084310Y-46697715D01*
X213893834Y-46412000D02*
X213798595Y-46412000D01*
X213703357Y-46459620D01*
X213655738Y-46507239D01*
X213608119Y-46602477D01*
X213560500Y-46792953D01*
X213560500Y-47031048D01*
X213608119Y-47221524D01*
X213655738Y-47316762D01*
X213703357Y-47364381D01*
X213798595Y-47412000D01*
X213893834Y-47412000D01*
X213989072Y-47364381D01*
X214036691Y-47316762D01*
X214084310Y-47221524D01*
X214131929Y-47031048D01*
X214131929Y-46792953D01*
X214084310Y-46602477D01*
X214036691Y-46507239D01*
X213989072Y-46459620D01*
X213893834Y-46412000D01*
X213227167Y-46412000D02*
X212560500Y-46412000D01*
X212989072Y-47412000D01*
X338480655Y-90932702D02*
X338925877Y-90559010D01*
X339032612Y-91080598D02*
X339291431Y-90114673D01*
X338923460Y-90016075D01*
X338819142Y-90037422D01*
X338760821Y-90071094D01*
X338690175Y-90150762D01*
X338653201Y-90288751D01*
X338674548Y-90393069D01*
X338708220Y-90451390D01*
X338787888Y-90522036D01*
X339155859Y-90620634D01*
X338417498Y-89880503D02*
X337819544Y-89720282D01*
X338042922Y-90174526D01*
X337904933Y-90137552D01*
X337800615Y-90158899D01*
X337742294Y-90192571D01*
X337671648Y-90272239D01*
X337610024Y-90502222D01*
X337631371Y-90606539D01*
X337665043Y-90664860D01*
X337744711Y-90735506D01*
X338020690Y-90809455D01*
X338125008Y-90788108D01*
X338183329Y-90754436D01*
X337221590Y-89560060D02*
X337129597Y-89535411D01*
X337025280Y-89556758D01*
X336966959Y-89590430D01*
X336896313Y-89670098D01*
X336801017Y-89841759D01*
X336739394Y-90071741D01*
X336736091Y-90268052D01*
X336757438Y-90372370D01*
X336791110Y-90430691D01*
X336870778Y-90501337D01*
X336962771Y-90525986D01*
X337067089Y-90504639D01*
X337125410Y-90470967D01*
X337196056Y-90391299D01*
X337291351Y-90219638D01*
X337352975Y-89989656D01*
X337356277Y-89793345D01*
X337334930Y-89689027D01*
X337301259Y-89630706D01*
X337221590Y-89560060D01*
X336506994Y-89467183D02*
X336473322Y-89408861D01*
X336393654Y-89338215D01*
X336163672Y-89276592D01*
X336059354Y-89297939D01*
X336001033Y-89331611D01*
X335930387Y-89411279D01*
X335905737Y-89503272D01*
X335914760Y-89653586D01*
X336318821Y-90353440D01*
X335720867Y-90193219D01*
X214453484Y-41264811D02*
X213510675Y-41453373D01*
X214076361Y-40887688D02*
X213887799Y-41830497D01*
X212998865Y-40941562D02*
X213322114Y-41264811D01*
X213160489Y-41103187D02*
X213726175Y-40537501D01*
X213699237Y-40672188D01*
X213699237Y-40779938D01*
X213726175Y-40860750D01*
X251401986Y-42515914D02*
X251401986Y-43325438D01*
X251354367Y-43420676D01*
X251306748Y-43468295D01*
X251211510Y-43515914D01*
X251021033Y-43515914D01*
X250925795Y-43468295D01*
X250878176Y-43420676D01*
X250830557Y-43325438D01*
X250830557Y-42515914D01*
X250401986Y-43468295D02*
X250259129Y-43515914D01*
X250021033Y-43515914D01*
X249925795Y-43468295D01*
X249878176Y-43420676D01*
X249830557Y-43325438D01*
X249830557Y-43230200D01*
X249878176Y-43134962D01*
X249925795Y-43087343D01*
X250021033Y-43039724D01*
X250211510Y-42992105D01*
X250306748Y-42944486D01*
X250354367Y-42896867D01*
X250401986Y-42801629D01*
X250401986Y-42706391D01*
X250354367Y-42611153D01*
X250306748Y-42563534D01*
X250211510Y-42515914D01*
X249973414Y-42515914D01*
X249830557Y-42563534D01*
X249068652Y-42992105D02*
X248925795Y-43039724D01*
X248878176Y-43087343D01*
X248830557Y-43182581D01*
X248830557Y-43325438D01*
X248878176Y-43420676D01*
X248925795Y-43468295D01*
X249021033Y-43515914D01*
X249401986Y-43515914D01*
X249401986Y-42515914D01*
X249068652Y-42515914D01*
X248973414Y-42563534D01*
X248925795Y-42611153D01*
X248878176Y-42706391D01*
X248878176Y-42801629D01*
X248925795Y-42896867D01*
X248973414Y-42944486D01*
X249068652Y-42992105D01*
X249401986Y-42992105D01*
X247878176Y-43515914D02*
X248449605Y-43515914D01*
X248163891Y-43515914D02*
X248163891Y-42515914D01*
X248259129Y-42658772D01*
X248354367Y-42754010D01*
X248449605Y-42801629D01*
X346996765Y-86064253D02*
X346623073Y-85619031D01*
X347144661Y-85512296D02*
X346178736Y-85253477D01*
X346080138Y-85621448D01*
X346101485Y-85725766D01*
X346135157Y-85784087D01*
X346214825Y-85854733D01*
X346352814Y-85891707D01*
X346457132Y-85870360D01*
X346515453Y-85836688D01*
X346586099Y-85757020D01*
X346684697Y-85389049D01*
X346130969Y-86719644D02*
X346774920Y-86892190D01*
X345824621Y-86391064D02*
X346576192Y-86345952D01*
X346415970Y-86943906D01*
X345624123Y-87323318D02*
X345599474Y-87415311D01*
X345620821Y-87519628D01*
X345654493Y-87577949D01*
X345734161Y-87648595D01*
X345905822Y-87743891D01*
X346135804Y-87805514D01*
X346332115Y-87808817D01*
X346436433Y-87787470D01*
X346494754Y-87753798D01*
X346565400Y-87674130D01*
X346590049Y-87582137D01*
X346568702Y-87477819D01*
X346535030Y-87419498D01*
X346455362Y-87348852D01*
X346283701Y-87253557D01*
X346053719Y-87191933D01*
X345857408Y-87188631D01*
X345753090Y-87209978D01*
X345694769Y-87243649D01*
X345624123Y-87323318D01*
X345451577Y-87967268D02*
X345291356Y-88565222D01*
X345745601Y-88341845D01*
X345708627Y-88479834D01*
X345729974Y-88584152D01*
X345763645Y-88642473D01*
X345843314Y-88713119D01*
X346073296Y-88774743D01*
X346177614Y-88753395D01*
X346235935Y-88719724D01*
X346306581Y-88640056D01*
X346380529Y-88364077D01*
X346359182Y-88259759D01*
X346325510Y-88201438D01*
X339130494Y-88507467D02*
X339575716Y-88133775D01*
X339682451Y-88655363D02*
X339941270Y-87689438D01*
X339573299Y-87590840D01*
X339468981Y-87612187D01*
X339410660Y-87645859D01*
X339340014Y-87725527D01*
X339303040Y-87863516D01*
X339324387Y-87967834D01*
X339358059Y-88026155D01*
X339437727Y-88096801D01*
X339805698Y-88195399D01*
X339067337Y-87455268D02*
X338469383Y-87295047D01*
X338692761Y-87749291D01*
X338554772Y-87712317D01*
X338450454Y-87733664D01*
X338392133Y-87767336D01*
X338321487Y-87847004D01*
X338259863Y-88076987D01*
X338281210Y-88181304D01*
X338314882Y-88239625D01*
X338394550Y-88310271D01*
X338670529Y-88384220D01*
X338774847Y-88362873D01*
X338833168Y-88329201D01*
X337871429Y-87134825D02*
X337779436Y-87110176D01*
X337675119Y-87131523D01*
X337616798Y-87165195D01*
X337546152Y-87244863D01*
X337450856Y-87416524D01*
X337389233Y-87646506D01*
X337385930Y-87842817D01*
X337407277Y-87947135D01*
X337440949Y-88005456D01*
X337520617Y-88076102D01*
X337612610Y-88100751D01*
X337716928Y-88079404D01*
X337775249Y-88045732D01*
X337845895Y-87966064D01*
X337941190Y-87794403D01*
X338002814Y-87564421D01*
X338006116Y-87368110D01*
X337984769Y-87263792D01*
X337951098Y-87205471D01*
X337871429Y-87134825D01*
X336370706Y-87767984D02*
X336922663Y-87915880D01*
X336646684Y-87841932D02*
X336905503Y-86876006D01*
X336960522Y-87038645D01*
X337027866Y-87155287D01*
X337107534Y-87225933D01*
X317276148Y-87673517D02*
X317721370Y-87299825D01*
X317828105Y-87821413D02*
X318086924Y-86855488D01*
X317718953Y-86756890D01*
X317614635Y-86778237D01*
X317556314Y-86811909D01*
X317485668Y-86891577D01*
X317448694Y-87029566D01*
X317470041Y-87133884D01*
X317503713Y-87192205D01*
X317583381Y-87262851D01*
X317951352Y-87361449D01*
X317142346Y-86700986D02*
X317108674Y-86642665D01*
X317029006Y-86572019D01*
X316799023Y-86510395D01*
X316694706Y-86531743D01*
X316636384Y-86565414D01*
X316565739Y-86645082D01*
X316541089Y-86737075D01*
X316550111Y-86887390D01*
X316954172Y-87587244D01*
X316356218Y-87427022D01*
X316017083Y-86300875D02*
X315925090Y-86276226D01*
X315820773Y-86297573D01*
X315762452Y-86331245D01*
X315691806Y-86410913D01*
X315596510Y-86582574D01*
X315534887Y-86812556D01*
X315531584Y-87008867D01*
X315552931Y-87113185D01*
X315586603Y-87171506D01*
X315666271Y-87242152D01*
X315758264Y-87266801D01*
X315862582Y-87245454D01*
X315920903Y-87211782D01*
X315991549Y-87132114D01*
X316086844Y-86960453D01*
X316148468Y-86730471D01*
X316151770Y-86534160D01*
X316130423Y-86429842D01*
X316096752Y-86371521D01*
X316017083Y-86300875D01*
X314780899Y-86314733D02*
X314608353Y-86958683D01*
X315109479Y-86008385D02*
X315154590Y-86759955D01*
X314556636Y-86599734D01*
X318021845Y-85450782D02*
X318467067Y-85077090D01*
X318573802Y-85598678D02*
X318832621Y-84632753D01*
X318464650Y-84534155D01*
X318360332Y-84555502D01*
X318302011Y-84589174D01*
X318231365Y-84668842D01*
X318194391Y-84806831D01*
X318215738Y-84911149D01*
X318249410Y-84969470D01*
X318329078Y-85040116D01*
X318697049Y-85138714D01*
X317888043Y-84478251D02*
X317854371Y-84419930D01*
X317774703Y-84349284D01*
X317544720Y-84287660D01*
X317440403Y-84309008D01*
X317382081Y-84342679D01*
X317311436Y-84422347D01*
X317286786Y-84514340D01*
X317295808Y-84664655D01*
X317699869Y-85364509D01*
X317101915Y-85204287D01*
X316762780Y-84078140D02*
X316670787Y-84053491D01*
X316566470Y-84074838D01*
X316508149Y-84108510D01*
X316437503Y-84188178D01*
X316342207Y-84359839D01*
X316280584Y-84589821D01*
X316277281Y-84786132D01*
X316298628Y-84890450D01*
X316332300Y-84948771D01*
X316411968Y-85019417D01*
X316503961Y-85044066D01*
X316608279Y-85022719D01*
X316666600Y-84989047D01*
X316737246Y-84909379D01*
X316832541Y-84737718D01*
X316894165Y-84507736D01*
X316897467Y-84311425D01*
X316876120Y-84207107D01*
X316842449Y-84148786D01*
X316762780Y-84078140D01*
X316118830Y-83905594D02*
X315520876Y-83745373D01*
X315744253Y-84199618D01*
X315606264Y-84162644D01*
X315501946Y-84183991D01*
X315443625Y-84217662D01*
X315372979Y-84297331D01*
X315311355Y-84527313D01*
X315332703Y-84631631D01*
X315366374Y-84689952D01*
X315446042Y-84760598D01*
X315722021Y-84834546D01*
X315826339Y-84813199D01*
X315884660Y-84779527D01*
X318627481Y-83190513D02*
X319072703Y-82816821D01*
X319179438Y-83338409D02*
X319438257Y-82372484D01*
X319070286Y-82273886D01*
X318965968Y-82295233D01*
X318907647Y-82328905D01*
X318837001Y-82408573D01*
X318800027Y-82546562D01*
X318821374Y-82650880D01*
X318855046Y-82709201D01*
X318934714Y-82779847D01*
X319302685Y-82878445D01*
X318493679Y-82217982D02*
X318460007Y-82159661D01*
X318380339Y-82089015D01*
X318150356Y-82027391D01*
X318046039Y-82048739D01*
X317987717Y-82082410D01*
X317917072Y-82162078D01*
X317892422Y-82254071D01*
X317901444Y-82404386D01*
X318305505Y-83104240D01*
X317707551Y-82944018D01*
X317368416Y-81817871D02*
X317276423Y-81793222D01*
X317172106Y-81814569D01*
X317113785Y-81848241D01*
X317043139Y-81927909D01*
X316947843Y-82099570D01*
X316886220Y-82329552D01*
X316882917Y-82525863D01*
X316904264Y-82630181D01*
X316937936Y-82688502D01*
X317017604Y-82759148D01*
X317109597Y-82783797D01*
X317213915Y-82762450D01*
X317272236Y-82728778D01*
X317342882Y-82649110D01*
X317438177Y-82477449D01*
X317499801Y-82247467D01*
X317503103Y-82051156D01*
X317481756Y-81946838D01*
X317448085Y-81888517D01*
X317368416Y-81817871D01*
X316653820Y-81724994D02*
X316620148Y-81666672D01*
X316540480Y-81596026D01*
X316310498Y-81534403D01*
X316206180Y-81555750D01*
X316147859Y-81589422D01*
X316077213Y-81669090D01*
X316052563Y-81761083D01*
X316061586Y-81911397D01*
X316465647Y-82611251D01*
X315867693Y-82451030D01*
X319233118Y-80930249D02*
X319678340Y-80556557D01*
X319785075Y-81078145D02*
X320043894Y-80112220D01*
X319675923Y-80013622D01*
X319571605Y-80034969D01*
X319513284Y-80068641D01*
X319442638Y-80148309D01*
X319405664Y-80286298D01*
X319427011Y-80390616D01*
X319460683Y-80448937D01*
X319540351Y-80519583D01*
X319908322Y-80618181D01*
X319099316Y-79957718D02*
X319065644Y-79899397D01*
X318985976Y-79828751D01*
X318755993Y-79767127D01*
X318651676Y-79788475D01*
X318593354Y-79822146D01*
X318522709Y-79901814D01*
X318498059Y-79993807D01*
X318507081Y-80144122D01*
X318911142Y-80843976D01*
X318313188Y-80683754D01*
X317974053Y-79557607D02*
X317882060Y-79532958D01*
X317777743Y-79554305D01*
X317719422Y-79587977D01*
X317648776Y-79667645D01*
X317553480Y-79839306D01*
X317491857Y-80069288D01*
X317488554Y-80265599D01*
X317509901Y-80369917D01*
X317543573Y-80428238D01*
X317623241Y-80498884D01*
X317715234Y-80523533D01*
X317819552Y-80502186D01*
X317877873Y-80468514D01*
X317948519Y-80388846D01*
X318043814Y-80217185D01*
X318105438Y-79987203D01*
X318108740Y-79790892D01*
X318087393Y-79686574D01*
X318053722Y-79628253D01*
X317974053Y-79557607D01*
X316473330Y-80190766D02*
X317025287Y-80338662D01*
X316749308Y-80264714D02*
X317008127Y-79298788D01*
X317063146Y-79461427D01*
X317130490Y-79578069D01*
X317210158Y-79648715D01*
X215952762Y-35712000D02*
X216286095Y-35235810D01*
X216524191Y-35712000D02*
X216524191Y-34712000D01*
X216143238Y-34712000D01*
X216048000Y-34759620D01*
X216000381Y-34807239D01*
X215952762Y-34902477D01*
X215952762Y-35045334D01*
X216000381Y-35140572D01*
X216048000Y-35188191D01*
X216143238Y-35235810D01*
X216524191Y-35235810D01*
X215000381Y-35712000D02*
X215571810Y-35712000D01*
X215286095Y-35712000D02*
X215286095Y-34712000D01*
X215381334Y-34854858D01*
X215476572Y-34950096D01*
X215571810Y-34997715D01*
X214381334Y-34712000D02*
X214286095Y-34712000D01*
X214190857Y-34759620D01*
X214143238Y-34807239D01*
X214095619Y-34902477D01*
X214048000Y-35092953D01*
X214048000Y-35331048D01*
X214095619Y-35521524D01*
X214143238Y-35616762D01*
X214190857Y-35664381D01*
X214286095Y-35712000D01*
X214381334Y-35712000D01*
X214476572Y-35664381D01*
X214524191Y-35616762D01*
X214571810Y-35521524D01*
X214619429Y-35331048D01*
X214619429Y-35092953D01*
X214571810Y-34902477D01*
X214524191Y-34807239D01*
X214476572Y-34759620D01*
X214381334Y-34712000D01*
X213190857Y-34712000D02*
X213381334Y-34712000D01*
X213476572Y-34759620D01*
X213524191Y-34807239D01*
X213619429Y-34950096D01*
X213667048Y-35140572D01*
X213667048Y-35521524D01*
X213619429Y-35616762D01*
X213571810Y-35664381D01*
X213476572Y-35712000D01*
X213286095Y-35712000D01*
X213190857Y-35664381D01*
X213143238Y-35616762D01*
X213095619Y-35521524D01*
X213095619Y-35283429D01*
X213143238Y-35188191D01*
X213190857Y-35140572D01*
X213286095Y-35092953D01*
X213476572Y-35092953D01*
X213571810Y-35140572D01*
X213619429Y-35188191D01*
X213667048Y-35283429D01*
X244021271Y-34684484D02*
X243545081Y-34351151D01*
X244021271Y-34113055D02*
X243021271Y-34113055D01*
X243021271Y-34494008D01*
X243068891Y-34589246D01*
X243116510Y-34636865D01*
X243211748Y-34684484D01*
X243354605Y-34684484D01*
X243449843Y-34636865D01*
X243497462Y-34589246D01*
X243545081Y-34494008D01*
X243545081Y-34113055D01*
X244021271Y-35636865D02*
X244021271Y-35065436D01*
X244021271Y-35351151D02*
X243021271Y-35351151D01*
X243164129Y-35255912D01*
X243259367Y-35160674D01*
X243306986Y-35065436D01*
X243021271Y-36255912D02*
X243021271Y-36351151D01*
X243068891Y-36446389D01*
X243116510Y-36494008D01*
X243211748Y-36541627D01*
X243402224Y-36589246D01*
X243640319Y-36589246D01*
X243830795Y-36541627D01*
X243926033Y-36494008D01*
X243973652Y-36446389D01*
X244021271Y-36351151D01*
X244021271Y-36255912D01*
X243973652Y-36160674D01*
X243926033Y-36113055D01*
X243830795Y-36065436D01*
X243640319Y-36017817D01*
X243402224Y-36017817D01*
X243211748Y-36065436D01*
X243116510Y-36113055D01*
X243068891Y-36160674D01*
X243021271Y-36255912D01*
X243021271Y-37494008D02*
X243021271Y-37017817D01*
X243497462Y-36970198D01*
X243449843Y-37017817D01*
X243402224Y-37113055D01*
X243402224Y-37351151D01*
X243449843Y-37446389D01*
X243497462Y-37494008D01*
X243592700Y-37541627D01*
X243830795Y-37541627D01*
X243926033Y-37494008D01*
X243973652Y-37446389D01*
X244021271Y-37351151D01*
X244021271Y-37113055D01*
X243973652Y-37017817D01*
X243926033Y-36970198D01*
X240397938Y-33525914D02*
X240731271Y-33049724D01*
X240969367Y-33525914D02*
X240969367Y-32525914D01*
X240588414Y-32525914D01*
X240493176Y-32573534D01*
X240445557Y-32621153D01*
X240397938Y-32716391D01*
X240397938Y-32859248D01*
X240445557Y-32954486D01*
X240493176Y-33002105D01*
X240588414Y-33049724D01*
X240969367Y-33049724D01*
X239445557Y-33525914D02*
X240016986Y-33525914D01*
X239731271Y-33525914D02*
X239731271Y-32525914D01*
X239826510Y-32668772D01*
X239921748Y-32764010D01*
X240016986Y-32811629D01*
X238826510Y-32525914D02*
X238731271Y-32525914D01*
X238636033Y-32573534D01*
X238588414Y-32621153D01*
X238540795Y-32716391D01*
X238493176Y-32906867D01*
X238493176Y-33144962D01*
X238540795Y-33335438D01*
X238588414Y-33430676D01*
X238636033Y-33478295D01*
X238731271Y-33525914D01*
X238826510Y-33525914D01*
X238921748Y-33478295D01*
X238969367Y-33430676D01*
X239016986Y-33335438D01*
X239064605Y-33144962D01*
X239064605Y-32906867D01*
X239016986Y-32716391D01*
X238969367Y-32621153D01*
X238921748Y-32573534D01*
X238826510Y-32525914D01*
X237636033Y-32859248D02*
X237636033Y-33525914D01*
X237874129Y-32478295D02*
X238112224Y-33192581D01*
X237493176Y-33192581D01*
X268716095Y-40575572D02*
X268239905Y-40242239D01*
X268716095Y-40004143D02*
X267716095Y-40004143D01*
X267716095Y-40385096D01*
X267763715Y-40480334D01*
X267811334Y-40527953D01*
X267906572Y-40575572D01*
X268049429Y-40575572D01*
X268144667Y-40527953D01*
X268192286Y-40480334D01*
X268239905Y-40385096D01*
X268239905Y-40004143D01*
X268716095Y-41527953D02*
X268716095Y-40956524D01*
X268716095Y-41242239D02*
X267716095Y-41242239D01*
X267858953Y-41147000D01*
X267954191Y-41051762D01*
X268001810Y-40956524D01*
X267716095Y-42147000D02*
X267716095Y-42242239D01*
X267763715Y-42337477D01*
X267811334Y-42385096D01*
X267906572Y-42432715D01*
X268097048Y-42480334D01*
X268335143Y-42480334D01*
X268525619Y-42432715D01*
X268620857Y-42385096D01*
X268668476Y-42337477D01*
X268716095Y-42242239D01*
X268716095Y-42147000D01*
X268668476Y-42051762D01*
X268620857Y-42004143D01*
X268525619Y-41956524D01*
X268335143Y-41908905D01*
X268097048Y-41908905D01*
X267906572Y-41956524D01*
X267811334Y-42004143D01*
X267763715Y-42051762D01*
X267716095Y-42147000D01*
X267716095Y-42813667D02*
X267716095Y-43432715D01*
X268097048Y-43099381D01*
X268097048Y-43242239D01*
X268144667Y-43337477D01*
X268192286Y-43385096D01*
X268287524Y-43432715D01*
X268525619Y-43432715D01*
X268620857Y-43385096D01*
X268668476Y-43337477D01*
X268716095Y-43242239D01*
X268716095Y-42956524D01*
X268668476Y-42861286D01*
X268620857Y-42813667D01*
X330909328Y-82147238D02*
X331599275Y-82332109D01*
X331749589Y-82323087D01*
X331866231Y-82255743D01*
X331949202Y-82130078D01*
X331973851Y-82038085D01*
X331752006Y-82866022D02*
X330786080Y-82607203D01*
X330687483Y-82975174D01*
X330708830Y-83079492D01*
X330742502Y-83137813D01*
X330822170Y-83208459D01*
X330960159Y-83245433D01*
X331064477Y-83224086D01*
X331122798Y-83190415D01*
X331193444Y-83110746D01*
X331292042Y-82742775D01*
X330631579Y-83551782D02*
X330573258Y-83585453D01*
X330502612Y-83665122D01*
X330440988Y-83895104D01*
X330462335Y-83999422D01*
X330496007Y-84057743D01*
X330575675Y-84128389D01*
X330667668Y-84153038D01*
X330817982Y-84144016D01*
X331517837Y-83739955D01*
X331357615Y-84337909D01*
X328272350Y-81440662D02*
X328962297Y-81625533D01*
X329112611Y-81616511D01*
X329229253Y-81549167D01*
X329312224Y-81423502D01*
X329336873Y-81331509D01*
X329115028Y-82159446D02*
X328149102Y-81900627D01*
X328050505Y-82268598D01*
X328071852Y-82372916D01*
X328105524Y-82431237D01*
X328185192Y-82501883D01*
X328323181Y-82538857D01*
X328427499Y-82517510D01*
X328485820Y-82483839D01*
X328556466Y-82404170D01*
X328655064Y-82036199D01*
X328720637Y-83631333D02*
X328868534Y-83079375D01*
X328794586Y-83355354D02*
X327828660Y-83096535D01*
X327991299Y-83041516D01*
X328107941Y-82974173D01*
X328178587Y-82894504D01*
X325635374Y-80734087D02*
X326325321Y-80918958D01*
X326475635Y-80909936D01*
X326592277Y-80842592D01*
X326675248Y-80716927D01*
X326699897Y-80624934D01*
X326478052Y-81452871D02*
X325512126Y-81194052D01*
X325413529Y-81562023D01*
X325434876Y-81666341D01*
X325468548Y-81724662D01*
X325548216Y-81795308D01*
X325686205Y-81832282D01*
X325790523Y-81810935D01*
X325848844Y-81777264D01*
X325919490Y-81697595D01*
X326018088Y-81329624D01*
X325204009Y-82343963D02*
X325179359Y-82435956D01*
X325200706Y-82540274D01*
X325234378Y-82598595D01*
X325314046Y-82669241D01*
X325485707Y-82764536D01*
X325715690Y-82826160D01*
X325912000Y-82829462D01*
X326016318Y-82808115D01*
X326074639Y-82774444D01*
X326145285Y-82694775D01*
X326169934Y-82602782D01*
X326148587Y-82498465D01*
X326114916Y-82440144D01*
X326035247Y-82369498D01*
X325863586Y-82274202D01*
X325633604Y-82212579D01*
X325437293Y-82209276D01*
X325332976Y-82230623D01*
X325274654Y-82264295D01*
X325204009Y-82343963D01*
X238837938Y-44830675D02*
X238885557Y-44878294D01*
X239028414Y-44925913D01*
X239123652Y-44925913D01*
X239266510Y-44878294D01*
X239361748Y-44783056D01*
X239409367Y-44687818D01*
X239456986Y-44497342D01*
X239456986Y-44354485D01*
X239409367Y-44164009D01*
X239361748Y-44068771D01*
X239266510Y-43973533D01*
X239123652Y-43925913D01*
X239028414Y-43925913D01*
X238885557Y-43973533D01*
X238837938Y-44021152D01*
X237885557Y-44925913D02*
X238456986Y-44925913D01*
X238171271Y-44925913D02*
X238171271Y-43925913D01*
X238266510Y-44068771D01*
X238361748Y-44164009D01*
X238456986Y-44211628D01*
X237266510Y-43925913D02*
X237171271Y-43925913D01*
X237076033Y-43973533D01*
X237028414Y-44021152D01*
X236980795Y-44116390D01*
X236933176Y-44306866D01*
X236933176Y-44544961D01*
X236980795Y-44735437D01*
X237028414Y-44830675D01*
X237076033Y-44878294D01*
X237171271Y-44925913D01*
X237266510Y-44925913D01*
X237361748Y-44878294D01*
X237409367Y-44830675D01*
X237456986Y-44735437D01*
X237504605Y-44544961D01*
X237504605Y-44306866D01*
X237456986Y-44116390D01*
X237409367Y-44021152D01*
X237361748Y-43973533D01*
X237266510Y-43925913D01*
X236599843Y-43925913D02*
X235933176Y-43925913D01*
X236361748Y-44925913D01*
X235346033Y-34684484D02*
X235393652Y-34636865D01*
X235441271Y-34494008D01*
X235441271Y-34398770D01*
X235393652Y-34255912D01*
X235298414Y-34160674D01*
X235203176Y-34113055D01*
X235012700Y-34065436D01*
X234869843Y-34065436D01*
X234679367Y-34113055D01*
X234584129Y-34160674D01*
X234488891Y-34255912D01*
X234441271Y-34398770D01*
X234441271Y-34494008D01*
X234488891Y-34636865D01*
X234536510Y-34684484D01*
X235441271Y-35636865D02*
X235441271Y-35065436D01*
X235441271Y-35351151D02*
X234441271Y-35351151D01*
X234584129Y-35255912D01*
X234679367Y-35160674D01*
X234726986Y-35065436D01*
X234441271Y-36255912D02*
X234441271Y-36351151D01*
X234488891Y-36446389D01*
X234536510Y-36494008D01*
X234631748Y-36541627D01*
X234822224Y-36589246D01*
X235060319Y-36589246D01*
X235250795Y-36541627D01*
X235346033Y-36494008D01*
X235393652Y-36446389D01*
X235441271Y-36351151D01*
X235441271Y-36255912D01*
X235393652Y-36160674D01*
X235346033Y-36113055D01*
X235250795Y-36065436D01*
X235060319Y-36017817D01*
X234822224Y-36017817D01*
X234631748Y-36065436D01*
X234536510Y-36113055D01*
X234488891Y-36160674D01*
X234441271Y-36255912D01*
X234774605Y-37446389D02*
X235441271Y-37446389D01*
X234393652Y-37208293D02*
X235107938Y-36970198D01*
X235107938Y-37589246D01*
X218115857Y-33165572D02*
X218163476Y-33117953D01*
X218211095Y-32975096D01*
X218211095Y-32879858D01*
X218163476Y-32737000D01*
X218068238Y-32641762D01*
X217973000Y-32594143D01*
X217782524Y-32546524D01*
X217639667Y-32546524D01*
X217449191Y-32594143D01*
X217353953Y-32641762D01*
X217258715Y-32737000D01*
X217211095Y-32879858D01*
X217211095Y-32975096D01*
X217258715Y-33117953D01*
X217306334Y-33165572D01*
X218211095Y-34117953D02*
X218211095Y-33546524D01*
X218211095Y-33832239D02*
X217211095Y-33832239D01*
X217353953Y-33737000D01*
X217449191Y-33641762D01*
X217496810Y-33546524D01*
X217211095Y-34737000D02*
X217211095Y-34832239D01*
X217258715Y-34927477D01*
X217306334Y-34975096D01*
X217401572Y-35022715D01*
X217592048Y-35070334D01*
X217830143Y-35070334D01*
X218020619Y-35022715D01*
X218115857Y-34975096D01*
X218163476Y-34927477D01*
X218211095Y-34832239D01*
X218211095Y-34737000D01*
X218163476Y-34641762D01*
X218115857Y-34594143D01*
X218020619Y-34546524D01*
X217830143Y-34498905D01*
X217592048Y-34498905D01*
X217401572Y-34546524D01*
X217306334Y-34594143D01*
X217258715Y-34641762D01*
X217211095Y-34737000D01*
X217211095Y-35403667D02*
X217211095Y-36022715D01*
X217592048Y-35689381D01*
X217592048Y-35832239D01*
X217639667Y-35927477D01*
X217687286Y-35975096D01*
X217782524Y-36022715D01*
X218020619Y-36022715D01*
X218115857Y-35975096D01*
X218163476Y-35927477D01*
X218211095Y-35832239D01*
X218211095Y-35546524D01*
X218163476Y-35451286D01*
X218115857Y-35403667D01*
X229115262Y-51404262D02*
X229162881Y-51451881D01*
X229305738Y-51499500D01*
X229400976Y-51499500D01*
X229543834Y-51451881D01*
X229639072Y-51356643D01*
X229686691Y-51261405D01*
X229734310Y-51070929D01*
X229734310Y-50928072D01*
X229686691Y-50737596D01*
X229639072Y-50642358D01*
X229543834Y-50547120D01*
X229400976Y-50499500D01*
X229305738Y-50499500D01*
X229162881Y-50547120D01*
X229115262Y-50594739D01*
X228162881Y-51499500D02*
X228734310Y-51499500D01*
X228448595Y-51499500D02*
X228448595Y-50499500D01*
X228543834Y-50642358D01*
X228639072Y-50737596D01*
X228734310Y-50785215D01*
X227543834Y-50499500D02*
X227448595Y-50499500D01*
X227353357Y-50547120D01*
X227305738Y-50594739D01*
X227258119Y-50689977D01*
X227210500Y-50880453D01*
X227210500Y-51118548D01*
X227258119Y-51309024D01*
X227305738Y-51404262D01*
X227353357Y-51451881D01*
X227448595Y-51499500D01*
X227543834Y-51499500D01*
X227639072Y-51451881D01*
X227686691Y-51404262D01*
X227734310Y-51309024D01*
X227781929Y-51118548D01*
X227781929Y-50880453D01*
X227734310Y-50689977D01*
X227686691Y-50594739D01*
X227639072Y-50547120D01*
X227543834Y-50499500D01*
X226258119Y-51499500D02*
X226829548Y-51499500D01*
X226543834Y-51499500D02*
X226543834Y-50499500D01*
X226639072Y-50642358D01*
X226734310Y-50737596D01*
X226829548Y-50785215D01*
X238837939Y-39190674D02*
X238885558Y-39238293D01*
X239028415Y-39285912D01*
X239123653Y-39285912D01*
X239266511Y-39238293D01*
X239361749Y-39143055D01*
X239409368Y-39047817D01*
X239456987Y-38857341D01*
X239456987Y-38714484D01*
X239409368Y-38524008D01*
X239361749Y-38428770D01*
X239266511Y-38333532D01*
X239123653Y-38285912D01*
X239028415Y-38285912D01*
X238885558Y-38333532D01*
X238837939Y-38381151D01*
X237885558Y-39285912D02*
X238456987Y-39285912D01*
X238171272Y-39285912D02*
X238171272Y-38285912D01*
X238266511Y-38428770D01*
X238361749Y-38524008D01*
X238456987Y-38571627D01*
X237266511Y-38285912D02*
X237171272Y-38285912D01*
X237076034Y-38333532D01*
X237028415Y-38381151D01*
X236980796Y-38476389D01*
X236933177Y-38666865D01*
X236933177Y-38904960D01*
X236980796Y-39095436D01*
X237028415Y-39190674D01*
X237076034Y-39238293D01*
X237171272Y-39285912D01*
X237266511Y-39285912D01*
X237361749Y-39238293D01*
X237409368Y-39190674D01*
X237456987Y-39095436D01*
X237504606Y-38904960D01*
X237504606Y-38666865D01*
X237456987Y-38476389D01*
X237409368Y-38381151D01*
X237361749Y-38333532D01*
X237266511Y-38285912D01*
X236552225Y-38381151D02*
X236504606Y-38333532D01*
X236409368Y-38285912D01*
X236171272Y-38285912D01*
X236076034Y-38333532D01*
X236028415Y-38381151D01*
X235980796Y-38476389D01*
X235980796Y-38571627D01*
X236028415Y-38714484D01*
X236599844Y-39285912D01*
X235980796Y-39285912D01*
M02*
