G04 #@! TF.GenerationSoftware,KiCad,Pcbnew,(5.1.4)-1*
G04 #@! TF.CreationDate,2020-05-30T22:46:28-05:00*
G04 #@! TF.ProjectId,TrackballMod,54726163-6b62-4616-9c6c-4d6f642e6b69,rev?*
G04 #@! TF.SameCoordinates,Original*
G04 #@! TF.FileFunction,Copper,L1,Top*
G04 #@! TF.FilePolarity,Positive*
%FSLAX46Y46*%
G04 Gerber Fmt 4.6, Leading zero omitted, Abs format (unit mm)*
G04 Created by KiCad (PCBNEW (5.1.4)-1) date 2020-05-30 22:46:28*
%MOMM*%
%LPD*%
G04 APERTURE LIST*
%ADD10C,0.100000*%
%ADD11C,1.150000*%
%ADD12O,1.700000X1.700000*%
%ADD13R,1.700000X1.700000*%
%ADD14R,0.350000X1.600000*%
%ADD15R,0.350000X1.550000*%
%ADD16R,0.650000X1.060000*%
%ADD17R,0.600000X2.200000*%
%ADD18R,1.500000X1.000000*%
%ADD19C,0.500000*%
%ADD20C,0.800000*%
%ADD21C,0.250000*%
%ADD22C,0.500000*%
G04 APERTURE END LIST*
D10*
G36*
X102974505Y-56451204D02*
G01*
X102998773Y-56454804D01*
X103022572Y-56460765D01*
X103045671Y-56469030D01*
X103067850Y-56479520D01*
X103088893Y-56492132D01*
X103108599Y-56506747D01*
X103126777Y-56523223D01*
X103143253Y-56541401D01*
X103157868Y-56561107D01*
X103170480Y-56582150D01*
X103180970Y-56604329D01*
X103189235Y-56627428D01*
X103195196Y-56651227D01*
X103198796Y-56675495D01*
X103200000Y-56699999D01*
X103200000Y-57600001D01*
X103198796Y-57624505D01*
X103195196Y-57648773D01*
X103189235Y-57672572D01*
X103180970Y-57695671D01*
X103170480Y-57717850D01*
X103157868Y-57738893D01*
X103143253Y-57758599D01*
X103126777Y-57776777D01*
X103108599Y-57793253D01*
X103088893Y-57807868D01*
X103067850Y-57820480D01*
X103045671Y-57830970D01*
X103022572Y-57839235D01*
X102998773Y-57845196D01*
X102974505Y-57848796D01*
X102950001Y-57850000D01*
X102299999Y-57850000D01*
X102275495Y-57848796D01*
X102251227Y-57845196D01*
X102227428Y-57839235D01*
X102204329Y-57830970D01*
X102182150Y-57820480D01*
X102161107Y-57807868D01*
X102141401Y-57793253D01*
X102123223Y-57776777D01*
X102106747Y-57758599D01*
X102092132Y-57738893D01*
X102079520Y-57717850D01*
X102069030Y-57695671D01*
X102060765Y-57672572D01*
X102054804Y-57648773D01*
X102051204Y-57624505D01*
X102050000Y-57600001D01*
X102050000Y-56699999D01*
X102051204Y-56675495D01*
X102054804Y-56651227D01*
X102060765Y-56627428D01*
X102069030Y-56604329D01*
X102079520Y-56582150D01*
X102092132Y-56561107D01*
X102106747Y-56541401D01*
X102123223Y-56523223D01*
X102141401Y-56506747D01*
X102161107Y-56492132D01*
X102182150Y-56479520D01*
X102204329Y-56469030D01*
X102227428Y-56460765D01*
X102251227Y-56454804D01*
X102275495Y-56451204D01*
X102299999Y-56450000D01*
X102950001Y-56450000D01*
X102974505Y-56451204D01*
X102974505Y-56451204D01*
G37*
D11*
X102625000Y-57150000D03*
D10*
G36*
X100924505Y-56451204D02*
G01*
X100948773Y-56454804D01*
X100972572Y-56460765D01*
X100995671Y-56469030D01*
X101017850Y-56479520D01*
X101038893Y-56492132D01*
X101058599Y-56506747D01*
X101076777Y-56523223D01*
X101093253Y-56541401D01*
X101107868Y-56561107D01*
X101120480Y-56582150D01*
X101130970Y-56604329D01*
X101139235Y-56627428D01*
X101145196Y-56651227D01*
X101148796Y-56675495D01*
X101150000Y-56699999D01*
X101150000Y-57600001D01*
X101148796Y-57624505D01*
X101145196Y-57648773D01*
X101139235Y-57672572D01*
X101130970Y-57695671D01*
X101120480Y-57717850D01*
X101107868Y-57738893D01*
X101093253Y-57758599D01*
X101076777Y-57776777D01*
X101058599Y-57793253D01*
X101038893Y-57807868D01*
X101017850Y-57820480D01*
X100995671Y-57830970D01*
X100972572Y-57839235D01*
X100948773Y-57845196D01*
X100924505Y-57848796D01*
X100900001Y-57850000D01*
X100249999Y-57850000D01*
X100225495Y-57848796D01*
X100201227Y-57845196D01*
X100177428Y-57839235D01*
X100154329Y-57830970D01*
X100132150Y-57820480D01*
X100111107Y-57807868D01*
X100091401Y-57793253D01*
X100073223Y-57776777D01*
X100056747Y-57758599D01*
X100042132Y-57738893D01*
X100029520Y-57717850D01*
X100019030Y-57695671D01*
X100010765Y-57672572D01*
X100004804Y-57648773D01*
X100001204Y-57624505D01*
X100000000Y-57600001D01*
X100000000Y-56699999D01*
X100001204Y-56675495D01*
X100004804Y-56651227D01*
X100010765Y-56627428D01*
X100019030Y-56604329D01*
X100029520Y-56582150D01*
X100042132Y-56561107D01*
X100056747Y-56541401D01*
X100073223Y-56523223D01*
X100091401Y-56506747D01*
X100111107Y-56492132D01*
X100132150Y-56479520D01*
X100154329Y-56469030D01*
X100177428Y-56460765D01*
X100201227Y-56454804D01*
X100225495Y-56451204D01*
X100249999Y-56450000D01*
X100900001Y-56450000D01*
X100924505Y-56451204D01*
X100924505Y-56451204D01*
G37*
D11*
X100575000Y-57150000D03*
D10*
G36*
X100924505Y-52641204D02*
G01*
X100948773Y-52644804D01*
X100972572Y-52650765D01*
X100995671Y-52659030D01*
X101017850Y-52669520D01*
X101038893Y-52682132D01*
X101058599Y-52696747D01*
X101076777Y-52713223D01*
X101093253Y-52731401D01*
X101107868Y-52751107D01*
X101120480Y-52772150D01*
X101130970Y-52794329D01*
X101139235Y-52817428D01*
X101145196Y-52841227D01*
X101148796Y-52865495D01*
X101150000Y-52889999D01*
X101150000Y-53790001D01*
X101148796Y-53814505D01*
X101145196Y-53838773D01*
X101139235Y-53862572D01*
X101130970Y-53885671D01*
X101120480Y-53907850D01*
X101107868Y-53928893D01*
X101093253Y-53948599D01*
X101076777Y-53966777D01*
X101058599Y-53983253D01*
X101038893Y-53997868D01*
X101017850Y-54010480D01*
X100995671Y-54020970D01*
X100972572Y-54029235D01*
X100948773Y-54035196D01*
X100924505Y-54038796D01*
X100900001Y-54040000D01*
X100249999Y-54040000D01*
X100225495Y-54038796D01*
X100201227Y-54035196D01*
X100177428Y-54029235D01*
X100154329Y-54020970D01*
X100132150Y-54010480D01*
X100111107Y-53997868D01*
X100091401Y-53983253D01*
X100073223Y-53966777D01*
X100056747Y-53948599D01*
X100042132Y-53928893D01*
X100029520Y-53907850D01*
X100019030Y-53885671D01*
X100010765Y-53862572D01*
X100004804Y-53838773D01*
X100001204Y-53814505D01*
X100000000Y-53790001D01*
X100000000Y-52889999D01*
X100001204Y-52865495D01*
X100004804Y-52841227D01*
X100010765Y-52817428D01*
X100019030Y-52794329D01*
X100029520Y-52772150D01*
X100042132Y-52751107D01*
X100056747Y-52731401D01*
X100073223Y-52713223D01*
X100091401Y-52696747D01*
X100111107Y-52682132D01*
X100132150Y-52669520D01*
X100154329Y-52659030D01*
X100177428Y-52650765D01*
X100201227Y-52644804D01*
X100225495Y-52641204D01*
X100249999Y-52640000D01*
X100900001Y-52640000D01*
X100924505Y-52641204D01*
X100924505Y-52641204D01*
G37*
D11*
X100575000Y-53340000D03*
D10*
G36*
X102974505Y-52641204D02*
G01*
X102998773Y-52644804D01*
X103022572Y-52650765D01*
X103045671Y-52659030D01*
X103067850Y-52669520D01*
X103088893Y-52682132D01*
X103108599Y-52696747D01*
X103126777Y-52713223D01*
X103143253Y-52731401D01*
X103157868Y-52751107D01*
X103170480Y-52772150D01*
X103180970Y-52794329D01*
X103189235Y-52817428D01*
X103195196Y-52841227D01*
X103198796Y-52865495D01*
X103200000Y-52889999D01*
X103200000Y-53790001D01*
X103198796Y-53814505D01*
X103195196Y-53838773D01*
X103189235Y-53862572D01*
X103180970Y-53885671D01*
X103170480Y-53907850D01*
X103157868Y-53928893D01*
X103143253Y-53948599D01*
X103126777Y-53966777D01*
X103108599Y-53983253D01*
X103088893Y-53997868D01*
X103067850Y-54010480D01*
X103045671Y-54020970D01*
X103022572Y-54029235D01*
X102998773Y-54035196D01*
X102974505Y-54038796D01*
X102950001Y-54040000D01*
X102299999Y-54040000D01*
X102275495Y-54038796D01*
X102251227Y-54035196D01*
X102227428Y-54029235D01*
X102204329Y-54020970D01*
X102182150Y-54010480D01*
X102161107Y-53997868D01*
X102141401Y-53983253D01*
X102123223Y-53966777D01*
X102106747Y-53948599D01*
X102092132Y-53928893D01*
X102079520Y-53907850D01*
X102069030Y-53885671D01*
X102060765Y-53862572D01*
X102054804Y-53838773D01*
X102051204Y-53814505D01*
X102050000Y-53790001D01*
X102050000Y-52889999D01*
X102051204Y-52865495D01*
X102054804Y-52841227D01*
X102060765Y-52817428D01*
X102069030Y-52794329D01*
X102079520Y-52772150D01*
X102092132Y-52751107D01*
X102106747Y-52731401D01*
X102123223Y-52713223D01*
X102141401Y-52696747D01*
X102161107Y-52682132D01*
X102182150Y-52669520D01*
X102204329Y-52659030D01*
X102227428Y-52650765D01*
X102251227Y-52644804D01*
X102275495Y-52641204D01*
X102299999Y-52640000D01*
X102950001Y-52640000D01*
X102974505Y-52641204D01*
X102974505Y-52641204D01*
G37*
D11*
X102625000Y-53340000D03*
D10*
G36*
X112234505Y-70301204D02*
G01*
X112258773Y-70304804D01*
X112282572Y-70310765D01*
X112305671Y-70319030D01*
X112327850Y-70329520D01*
X112348893Y-70342132D01*
X112368599Y-70356747D01*
X112386777Y-70373223D01*
X112403253Y-70391401D01*
X112417868Y-70411107D01*
X112430480Y-70432150D01*
X112440970Y-70454329D01*
X112449235Y-70477428D01*
X112455196Y-70501227D01*
X112458796Y-70525495D01*
X112460000Y-70549999D01*
X112460000Y-71200001D01*
X112458796Y-71224505D01*
X112455196Y-71248773D01*
X112449235Y-71272572D01*
X112440970Y-71295671D01*
X112430480Y-71317850D01*
X112417868Y-71338893D01*
X112403253Y-71358599D01*
X112386777Y-71376777D01*
X112368599Y-71393253D01*
X112348893Y-71407868D01*
X112327850Y-71420480D01*
X112305671Y-71430970D01*
X112282572Y-71439235D01*
X112258773Y-71445196D01*
X112234505Y-71448796D01*
X112210001Y-71450000D01*
X111309999Y-71450000D01*
X111285495Y-71448796D01*
X111261227Y-71445196D01*
X111237428Y-71439235D01*
X111214329Y-71430970D01*
X111192150Y-71420480D01*
X111171107Y-71407868D01*
X111151401Y-71393253D01*
X111133223Y-71376777D01*
X111116747Y-71358599D01*
X111102132Y-71338893D01*
X111089520Y-71317850D01*
X111079030Y-71295671D01*
X111070765Y-71272572D01*
X111064804Y-71248773D01*
X111061204Y-71224505D01*
X111060000Y-71200001D01*
X111060000Y-70549999D01*
X111061204Y-70525495D01*
X111064804Y-70501227D01*
X111070765Y-70477428D01*
X111079030Y-70454329D01*
X111089520Y-70432150D01*
X111102132Y-70411107D01*
X111116747Y-70391401D01*
X111133223Y-70373223D01*
X111151401Y-70356747D01*
X111171107Y-70342132D01*
X111192150Y-70329520D01*
X111214329Y-70319030D01*
X111237428Y-70310765D01*
X111261227Y-70304804D01*
X111285495Y-70301204D01*
X111309999Y-70300000D01*
X112210001Y-70300000D01*
X112234505Y-70301204D01*
X112234505Y-70301204D01*
G37*
D11*
X111760000Y-70875000D03*
D10*
G36*
X112234505Y-68251204D02*
G01*
X112258773Y-68254804D01*
X112282572Y-68260765D01*
X112305671Y-68269030D01*
X112327850Y-68279520D01*
X112348893Y-68292132D01*
X112368599Y-68306747D01*
X112386777Y-68323223D01*
X112403253Y-68341401D01*
X112417868Y-68361107D01*
X112430480Y-68382150D01*
X112440970Y-68404329D01*
X112449235Y-68427428D01*
X112455196Y-68451227D01*
X112458796Y-68475495D01*
X112460000Y-68499999D01*
X112460000Y-69150001D01*
X112458796Y-69174505D01*
X112455196Y-69198773D01*
X112449235Y-69222572D01*
X112440970Y-69245671D01*
X112430480Y-69267850D01*
X112417868Y-69288893D01*
X112403253Y-69308599D01*
X112386777Y-69326777D01*
X112368599Y-69343253D01*
X112348893Y-69357868D01*
X112327850Y-69370480D01*
X112305671Y-69380970D01*
X112282572Y-69389235D01*
X112258773Y-69395196D01*
X112234505Y-69398796D01*
X112210001Y-69400000D01*
X111309999Y-69400000D01*
X111285495Y-69398796D01*
X111261227Y-69395196D01*
X111237428Y-69389235D01*
X111214329Y-69380970D01*
X111192150Y-69370480D01*
X111171107Y-69357868D01*
X111151401Y-69343253D01*
X111133223Y-69326777D01*
X111116747Y-69308599D01*
X111102132Y-69288893D01*
X111089520Y-69267850D01*
X111079030Y-69245671D01*
X111070765Y-69222572D01*
X111064804Y-69198773D01*
X111061204Y-69174505D01*
X111060000Y-69150001D01*
X111060000Y-68499999D01*
X111061204Y-68475495D01*
X111064804Y-68451227D01*
X111070765Y-68427428D01*
X111079030Y-68404329D01*
X111089520Y-68382150D01*
X111102132Y-68361107D01*
X111116747Y-68341401D01*
X111133223Y-68323223D01*
X111151401Y-68306747D01*
X111171107Y-68292132D01*
X111192150Y-68279520D01*
X111214329Y-68269030D01*
X111237428Y-68260765D01*
X111261227Y-68254804D01*
X111285495Y-68251204D01*
X111309999Y-68250000D01*
X112210001Y-68250000D01*
X112234505Y-68251204D01*
X112234505Y-68251204D01*
G37*
D11*
X111760000Y-68825000D03*
D10*
G36*
X107154505Y-68251204D02*
G01*
X107178773Y-68254804D01*
X107202572Y-68260765D01*
X107225671Y-68269030D01*
X107247850Y-68279520D01*
X107268893Y-68292132D01*
X107288599Y-68306747D01*
X107306777Y-68323223D01*
X107323253Y-68341401D01*
X107337868Y-68361107D01*
X107350480Y-68382150D01*
X107360970Y-68404329D01*
X107369235Y-68427428D01*
X107375196Y-68451227D01*
X107378796Y-68475495D01*
X107380000Y-68499999D01*
X107380000Y-69150001D01*
X107378796Y-69174505D01*
X107375196Y-69198773D01*
X107369235Y-69222572D01*
X107360970Y-69245671D01*
X107350480Y-69267850D01*
X107337868Y-69288893D01*
X107323253Y-69308599D01*
X107306777Y-69326777D01*
X107288599Y-69343253D01*
X107268893Y-69357868D01*
X107247850Y-69370480D01*
X107225671Y-69380970D01*
X107202572Y-69389235D01*
X107178773Y-69395196D01*
X107154505Y-69398796D01*
X107130001Y-69400000D01*
X106229999Y-69400000D01*
X106205495Y-69398796D01*
X106181227Y-69395196D01*
X106157428Y-69389235D01*
X106134329Y-69380970D01*
X106112150Y-69370480D01*
X106091107Y-69357868D01*
X106071401Y-69343253D01*
X106053223Y-69326777D01*
X106036747Y-69308599D01*
X106022132Y-69288893D01*
X106009520Y-69267850D01*
X105999030Y-69245671D01*
X105990765Y-69222572D01*
X105984804Y-69198773D01*
X105981204Y-69174505D01*
X105980000Y-69150001D01*
X105980000Y-68499999D01*
X105981204Y-68475495D01*
X105984804Y-68451227D01*
X105990765Y-68427428D01*
X105999030Y-68404329D01*
X106009520Y-68382150D01*
X106022132Y-68361107D01*
X106036747Y-68341401D01*
X106053223Y-68323223D01*
X106071401Y-68306747D01*
X106091107Y-68292132D01*
X106112150Y-68279520D01*
X106134329Y-68269030D01*
X106157428Y-68260765D01*
X106181227Y-68254804D01*
X106205495Y-68251204D01*
X106229999Y-68250000D01*
X107130001Y-68250000D01*
X107154505Y-68251204D01*
X107154505Y-68251204D01*
G37*
D11*
X106680000Y-68825000D03*
D10*
G36*
X107154505Y-70301204D02*
G01*
X107178773Y-70304804D01*
X107202572Y-70310765D01*
X107225671Y-70319030D01*
X107247850Y-70329520D01*
X107268893Y-70342132D01*
X107288599Y-70356747D01*
X107306777Y-70373223D01*
X107323253Y-70391401D01*
X107337868Y-70411107D01*
X107350480Y-70432150D01*
X107360970Y-70454329D01*
X107369235Y-70477428D01*
X107375196Y-70501227D01*
X107378796Y-70525495D01*
X107380000Y-70549999D01*
X107380000Y-71200001D01*
X107378796Y-71224505D01*
X107375196Y-71248773D01*
X107369235Y-71272572D01*
X107360970Y-71295671D01*
X107350480Y-71317850D01*
X107337868Y-71338893D01*
X107323253Y-71358599D01*
X107306777Y-71376777D01*
X107288599Y-71393253D01*
X107268893Y-71407868D01*
X107247850Y-71420480D01*
X107225671Y-71430970D01*
X107202572Y-71439235D01*
X107178773Y-71445196D01*
X107154505Y-71448796D01*
X107130001Y-71450000D01*
X106229999Y-71450000D01*
X106205495Y-71448796D01*
X106181227Y-71445196D01*
X106157428Y-71439235D01*
X106134329Y-71430970D01*
X106112150Y-71420480D01*
X106091107Y-71407868D01*
X106071401Y-71393253D01*
X106053223Y-71376777D01*
X106036747Y-71358599D01*
X106022132Y-71338893D01*
X106009520Y-71317850D01*
X105999030Y-71295671D01*
X105990765Y-71272572D01*
X105984804Y-71248773D01*
X105981204Y-71224505D01*
X105980000Y-71200001D01*
X105980000Y-70549999D01*
X105981204Y-70525495D01*
X105984804Y-70501227D01*
X105990765Y-70477428D01*
X105999030Y-70454329D01*
X106009520Y-70432150D01*
X106022132Y-70411107D01*
X106036747Y-70391401D01*
X106053223Y-70373223D01*
X106071401Y-70356747D01*
X106091107Y-70342132D01*
X106112150Y-70329520D01*
X106134329Y-70319030D01*
X106157428Y-70310765D01*
X106181227Y-70304804D01*
X106205495Y-70301204D01*
X106229999Y-70300000D01*
X107130001Y-70300000D01*
X107154505Y-70301204D01*
X107154505Y-70301204D01*
G37*
D11*
X106680000Y-70875000D03*
D12*
X88900000Y-58420000D03*
X88900000Y-60960000D03*
X88900000Y-63500000D03*
D13*
X88900000Y-66040000D03*
D14*
X115305000Y-64060000D03*
X115305000Y-57860000D03*
X114655000Y-64060000D03*
X114655000Y-57860000D03*
X114005000Y-64060000D03*
X114005000Y-57860000D03*
X113355000Y-64060000D03*
X113355000Y-57860000D03*
X112705000Y-64060000D03*
X112705000Y-57860000D03*
X112055000Y-64060000D03*
X112055000Y-57860000D03*
X111405000Y-64060000D03*
X111405000Y-57860000D03*
X110755000Y-64060000D03*
X110755000Y-57860000D03*
D15*
X99990000Y-60530000D03*
X99990000Y-63930000D03*
X100640000Y-60530000D03*
X100640000Y-63930000D03*
X101290000Y-60530000D03*
X101290000Y-63930000D03*
X101940000Y-60530000D03*
X101940000Y-63930000D03*
D16*
X105095000Y-63670000D03*
X106995000Y-63670000D03*
X106995000Y-65870000D03*
X106045000Y-65870000D03*
X105095000Y-65870000D03*
D17*
X92710000Y-59480000D03*
X92710000Y-64980000D03*
X93980000Y-59480000D03*
X93980000Y-64980000D03*
X95250000Y-59480000D03*
X95250000Y-64980000D03*
X96520000Y-59480000D03*
X96520000Y-64980000D03*
D10*
G36*
X96994505Y-68251204D02*
G01*
X97018773Y-68254804D01*
X97042572Y-68260765D01*
X97065671Y-68269030D01*
X97087850Y-68279520D01*
X97108893Y-68292132D01*
X97128599Y-68306747D01*
X97146777Y-68323223D01*
X97163253Y-68341401D01*
X97177868Y-68361107D01*
X97190480Y-68382150D01*
X97200970Y-68404329D01*
X97209235Y-68427428D01*
X97215196Y-68451227D01*
X97218796Y-68475495D01*
X97220000Y-68499999D01*
X97220000Y-69150001D01*
X97218796Y-69174505D01*
X97215196Y-69198773D01*
X97209235Y-69222572D01*
X97200970Y-69245671D01*
X97190480Y-69267850D01*
X97177868Y-69288893D01*
X97163253Y-69308599D01*
X97146777Y-69326777D01*
X97128599Y-69343253D01*
X97108893Y-69357868D01*
X97087850Y-69370480D01*
X97065671Y-69380970D01*
X97042572Y-69389235D01*
X97018773Y-69395196D01*
X96994505Y-69398796D01*
X96970001Y-69400000D01*
X96069999Y-69400000D01*
X96045495Y-69398796D01*
X96021227Y-69395196D01*
X95997428Y-69389235D01*
X95974329Y-69380970D01*
X95952150Y-69370480D01*
X95931107Y-69357868D01*
X95911401Y-69343253D01*
X95893223Y-69326777D01*
X95876747Y-69308599D01*
X95862132Y-69288893D01*
X95849520Y-69267850D01*
X95839030Y-69245671D01*
X95830765Y-69222572D01*
X95824804Y-69198773D01*
X95821204Y-69174505D01*
X95820000Y-69150001D01*
X95820000Y-68499999D01*
X95821204Y-68475495D01*
X95824804Y-68451227D01*
X95830765Y-68427428D01*
X95839030Y-68404329D01*
X95849520Y-68382150D01*
X95862132Y-68361107D01*
X95876747Y-68341401D01*
X95893223Y-68323223D01*
X95911401Y-68306747D01*
X95931107Y-68292132D01*
X95952150Y-68279520D01*
X95974329Y-68269030D01*
X95997428Y-68260765D01*
X96021227Y-68254804D01*
X96045495Y-68251204D01*
X96069999Y-68250000D01*
X96970001Y-68250000D01*
X96994505Y-68251204D01*
X96994505Y-68251204D01*
G37*
D11*
X96520000Y-68825000D03*
D10*
G36*
X96994505Y-70301204D02*
G01*
X97018773Y-70304804D01*
X97042572Y-70310765D01*
X97065671Y-70319030D01*
X97087850Y-70329520D01*
X97108893Y-70342132D01*
X97128599Y-70356747D01*
X97146777Y-70373223D01*
X97163253Y-70391401D01*
X97177868Y-70411107D01*
X97190480Y-70432150D01*
X97200970Y-70454329D01*
X97209235Y-70477428D01*
X97215196Y-70501227D01*
X97218796Y-70525495D01*
X97220000Y-70549999D01*
X97220000Y-71200001D01*
X97218796Y-71224505D01*
X97215196Y-71248773D01*
X97209235Y-71272572D01*
X97200970Y-71295671D01*
X97190480Y-71317850D01*
X97177868Y-71338893D01*
X97163253Y-71358599D01*
X97146777Y-71376777D01*
X97128599Y-71393253D01*
X97108893Y-71407868D01*
X97087850Y-71420480D01*
X97065671Y-71430970D01*
X97042572Y-71439235D01*
X97018773Y-71445196D01*
X96994505Y-71448796D01*
X96970001Y-71450000D01*
X96069999Y-71450000D01*
X96045495Y-71448796D01*
X96021227Y-71445196D01*
X95997428Y-71439235D01*
X95974329Y-71430970D01*
X95952150Y-71420480D01*
X95931107Y-71407868D01*
X95911401Y-71393253D01*
X95893223Y-71376777D01*
X95876747Y-71358599D01*
X95862132Y-71338893D01*
X95849520Y-71317850D01*
X95839030Y-71295671D01*
X95830765Y-71272572D01*
X95824804Y-71248773D01*
X95821204Y-71224505D01*
X95820000Y-71200001D01*
X95820000Y-70549999D01*
X95821204Y-70525495D01*
X95824804Y-70501227D01*
X95830765Y-70477428D01*
X95839030Y-70454329D01*
X95849520Y-70432150D01*
X95862132Y-70411107D01*
X95876747Y-70391401D01*
X95893223Y-70373223D01*
X95911401Y-70356747D01*
X95931107Y-70342132D01*
X95952150Y-70329520D01*
X95974329Y-70319030D01*
X95997428Y-70310765D01*
X96021227Y-70304804D01*
X96045495Y-70301204D01*
X96069999Y-70300000D01*
X96970001Y-70300000D01*
X96994505Y-70301204D01*
X96994505Y-70301204D01*
G37*
D11*
X96520000Y-70875000D03*
D10*
G36*
X89374505Y-68251204D02*
G01*
X89398773Y-68254804D01*
X89422572Y-68260765D01*
X89445671Y-68269030D01*
X89467850Y-68279520D01*
X89488893Y-68292132D01*
X89508599Y-68306747D01*
X89526777Y-68323223D01*
X89543253Y-68341401D01*
X89557868Y-68361107D01*
X89570480Y-68382150D01*
X89580970Y-68404329D01*
X89589235Y-68427428D01*
X89595196Y-68451227D01*
X89598796Y-68475495D01*
X89600000Y-68499999D01*
X89600000Y-69150001D01*
X89598796Y-69174505D01*
X89595196Y-69198773D01*
X89589235Y-69222572D01*
X89580970Y-69245671D01*
X89570480Y-69267850D01*
X89557868Y-69288893D01*
X89543253Y-69308599D01*
X89526777Y-69326777D01*
X89508599Y-69343253D01*
X89488893Y-69357868D01*
X89467850Y-69370480D01*
X89445671Y-69380970D01*
X89422572Y-69389235D01*
X89398773Y-69395196D01*
X89374505Y-69398796D01*
X89350001Y-69400000D01*
X88449999Y-69400000D01*
X88425495Y-69398796D01*
X88401227Y-69395196D01*
X88377428Y-69389235D01*
X88354329Y-69380970D01*
X88332150Y-69370480D01*
X88311107Y-69357868D01*
X88291401Y-69343253D01*
X88273223Y-69326777D01*
X88256747Y-69308599D01*
X88242132Y-69288893D01*
X88229520Y-69267850D01*
X88219030Y-69245671D01*
X88210765Y-69222572D01*
X88204804Y-69198773D01*
X88201204Y-69174505D01*
X88200000Y-69150001D01*
X88200000Y-68499999D01*
X88201204Y-68475495D01*
X88204804Y-68451227D01*
X88210765Y-68427428D01*
X88219030Y-68404329D01*
X88229520Y-68382150D01*
X88242132Y-68361107D01*
X88256747Y-68341401D01*
X88273223Y-68323223D01*
X88291401Y-68306747D01*
X88311107Y-68292132D01*
X88332150Y-68279520D01*
X88354329Y-68269030D01*
X88377428Y-68260765D01*
X88401227Y-68254804D01*
X88425495Y-68251204D01*
X88449999Y-68250000D01*
X89350001Y-68250000D01*
X89374505Y-68251204D01*
X89374505Y-68251204D01*
G37*
D11*
X88900000Y-68825000D03*
D10*
G36*
X89374505Y-70301204D02*
G01*
X89398773Y-70304804D01*
X89422572Y-70310765D01*
X89445671Y-70319030D01*
X89467850Y-70329520D01*
X89488893Y-70342132D01*
X89508599Y-70356747D01*
X89526777Y-70373223D01*
X89543253Y-70391401D01*
X89557868Y-70411107D01*
X89570480Y-70432150D01*
X89580970Y-70454329D01*
X89589235Y-70477428D01*
X89595196Y-70501227D01*
X89598796Y-70525495D01*
X89600000Y-70549999D01*
X89600000Y-71200001D01*
X89598796Y-71224505D01*
X89595196Y-71248773D01*
X89589235Y-71272572D01*
X89580970Y-71295671D01*
X89570480Y-71317850D01*
X89557868Y-71338893D01*
X89543253Y-71358599D01*
X89526777Y-71376777D01*
X89508599Y-71393253D01*
X89488893Y-71407868D01*
X89467850Y-71420480D01*
X89445671Y-71430970D01*
X89422572Y-71439235D01*
X89398773Y-71445196D01*
X89374505Y-71448796D01*
X89350001Y-71450000D01*
X88449999Y-71450000D01*
X88425495Y-71448796D01*
X88401227Y-71445196D01*
X88377428Y-71439235D01*
X88354329Y-71430970D01*
X88332150Y-71420480D01*
X88311107Y-71407868D01*
X88291401Y-71393253D01*
X88273223Y-71376777D01*
X88256747Y-71358599D01*
X88242132Y-71338893D01*
X88229520Y-71317850D01*
X88219030Y-71295671D01*
X88210765Y-71272572D01*
X88204804Y-71248773D01*
X88201204Y-71224505D01*
X88200000Y-71200001D01*
X88200000Y-70549999D01*
X88201204Y-70525495D01*
X88204804Y-70501227D01*
X88210765Y-70477428D01*
X88219030Y-70454329D01*
X88229520Y-70432150D01*
X88242132Y-70411107D01*
X88256747Y-70391401D01*
X88273223Y-70373223D01*
X88291401Y-70356747D01*
X88311107Y-70342132D01*
X88332150Y-70329520D01*
X88354329Y-70319030D01*
X88377428Y-70310765D01*
X88401227Y-70304804D01*
X88425495Y-70301204D01*
X88449999Y-70300000D01*
X89350001Y-70300000D01*
X89374505Y-70301204D01*
X89374505Y-70301204D01*
G37*
D11*
X88900000Y-70875000D03*
D10*
G36*
X102074505Y-68251204D02*
G01*
X102098773Y-68254804D01*
X102122572Y-68260765D01*
X102145671Y-68269030D01*
X102167850Y-68279520D01*
X102188893Y-68292132D01*
X102208599Y-68306747D01*
X102226777Y-68323223D01*
X102243253Y-68341401D01*
X102257868Y-68361107D01*
X102270480Y-68382150D01*
X102280970Y-68404329D01*
X102289235Y-68427428D01*
X102295196Y-68451227D01*
X102298796Y-68475495D01*
X102300000Y-68499999D01*
X102300000Y-69150001D01*
X102298796Y-69174505D01*
X102295196Y-69198773D01*
X102289235Y-69222572D01*
X102280970Y-69245671D01*
X102270480Y-69267850D01*
X102257868Y-69288893D01*
X102243253Y-69308599D01*
X102226777Y-69326777D01*
X102208599Y-69343253D01*
X102188893Y-69357868D01*
X102167850Y-69370480D01*
X102145671Y-69380970D01*
X102122572Y-69389235D01*
X102098773Y-69395196D01*
X102074505Y-69398796D01*
X102050001Y-69400000D01*
X101149999Y-69400000D01*
X101125495Y-69398796D01*
X101101227Y-69395196D01*
X101077428Y-69389235D01*
X101054329Y-69380970D01*
X101032150Y-69370480D01*
X101011107Y-69357868D01*
X100991401Y-69343253D01*
X100973223Y-69326777D01*
X100956747Y-69308599D01*
X100942132Y-69288893D01*
X100929520Y-69267850D01*
X100919030Y-69245671D01*
X100910765Y-69222572D01*
X100904804Y-69198773D01*
X100901204Y-69174505D01*
X100900000Y-69150001D01*
X100900000Y-68499999D01*
X100901204Y-68475495D01*
X100904804Y-68451227D01*
X100910765Y-68427428D01*
X100919030Y-68404329D01*
X100929520Y-68382150D01*
X100942132Y-68361107D01*
X100956747Y-68341401D01*
X100973223Y-68323223D01*
X100991401Y-68306747D01*
X101011107Y-68292132D01*
X101032150Y-68279520D01*
X101054329Y-68269030D01*
X101077428Y-68260765D01*
X101101227Y-68254804D01*
X101125495Y-68251204D01*
X101149999Y-68250000D01*
X102050001Y-68250000D01*
X102074505Y-68251204D01*
X102074505Y-68251204D01*
G37*
D11*
X101600000Y-68825000D03*
D10*
G36*
X102074505Y-70301204D02*
G01*
X102098773Y-70304804D01*
X102122572Y-70310765D01*
X102145671Y-70319030D01*
X102167850Y-70329520D01*
X102188893Y-70342132D01*
X102208599Y-70356747D01*
X102226777Y-70373223D01*
X102243253Y-70391401D01*
X102257868Y-70411107D01*
X102270480Y-70432150D01*
X102280970Y-70454329D01*
X102289235Y-70477428D01*
X102295196Y-70501227D01*
X102298796Y-70525495D01*
X102300000Y-70549999D01*
X102300000Y-71200001D01*
X102298796Y-71224505D01*
X102295196Y-71248773D01*
X102289235Y-71272572D01*
X102280970Y-71295671D01*
X102270480Y-71317850D01*
X102257868Y-71338893D01*
X102243253Y-71358599D01*
X102226777Y-71376777D01*
X102208599Y-71393253D01*
X102188893Y-71407868D01*
X102167850Y-71420480D01*
X102145671Y-71430970D01*
X102122572Y-71439235D01*
X102098773Y-71445196D01*
X102074505Y-71448796D01*
X102050001Y-71450000D01*
X101149999Y-71450000D01*
X101125495Y-71448796D01*
X101101227Y-71445196D01*
X101077428Y-71439235D01*
X101054329Y-71430970D01*
X101032150Y-71420480D01*
X101011107Y-71407868D01*
X100991401Y-71393253D01*
X100973223Y-71376777D01*
X100956747Y-71358599D01*
X100942132Y-71338893D01*
X100929520Y-71317850D01*
X100919030Y-71295671D01*
X100910765Y-71272572D01*
X100904804Y-71248773D01*
X100901204Y-71224505D01*
X100900000Y-71200001D01*
X100900000Y-70549999D01*
X100901204Y-70525495D01*
X100904804Y-70501227D01*
X100910765Y-70477428D01*
X100919030Y-70454329D01*
X100929520Y-70432150D01*
X100942132Y-70411107D01*
X100956747Y-70391401D01*
X100973223Y-70373223D01*
X100991401Y-70356747D01*
X101011107Y-70342132D01*
X101032150Y-70329520D01*
X101054329Y-70319030D01*
X101077428Y-70310765D01*
X101101227Y-70304804D01*
X101125495Y-70301204D01*
X101149999Y-70300000D01*
X102050001Y-70300000D01*
X102074505Y-70301204D01*
X102074505Y-70301204D01*
G37*
D11*
X101600000Y-70875000D03*
D10*
G36*
X91914505Y-68251204D02*
G01*
X91938773Y-68254804D01*
X91962572Y-68260765D01*
X91985671Y-68269030D01*
X92007850Y-68279520D01*
X92028893Y-68292132D01*
X92048599Y-68306747D01*
X92066777Y-68323223D01*
X92083253Y-68341401D01*
X92097868Y-68361107D01*
X92110480Y-68382150D01*
X92120970Y-68404329D01*
X92129235Y-68427428D01*
X92135196Y-68451227D01*
X92138796Y-68475495D01*
X92140000Y-68499999D01*
X92140000Y-69150001D01*
X92138796Y-69174505D01*
X92135196Y-69198773D01*
X92129235Y-69222572D01*
X92120970Y-69245671D01*
X92110480Y-69267850D01*
X92097868Y-69288893D01*
X92083253Y-69308599D01*
X92066777Y-69326777D01*
X92048599Y-69343253D01*
X92028893Y-69357868D01*
X92007850Y-69370480D01*
X91985671Y-69380970D01*
X91962572Y-69389235D01*
X91938773Y-69395196D01*
X91914505Y-69398796D01*
X91890001Y-69400000D01*
X90989999Y-69400000D01*
X90965495Y-69398796D01*
X90941227Y-69395196D01*
X90917428Y-69389235D01*
X90894329Y-69380970D01*
X90872150Y-69370480D01*
X90851107Y-69357868D01*
X90831401Y-69343253D01*
X90813223Y-69326777D01*
X90796747Y-69308599D01*
X90782132Y-69288893D01*
X90769520Y-69267850D01*
X90759030Y-69245671D01*
X90750765Y-69222572D01*
X90744804Y-69198773D01*
X90741204Y-69174505D01*
X90740000Y-69150001D01*
X90740000Y-68499999D01*
X90741204Y-68475495D01*
X90744804Y-68451227D01*
X90750765Y-68427428D01*
X90759030Y-68404329D01*
X90769520Y-68382150D01*
X90782132Y-68361107D01*
X90796747Y-68341401D01*
X90813223Y-68323223D01*
X90831401Y-68306747D01*
X90851107Y-68292132D01*
X90872150Y-68279520D01*
X90894329Y-68269030D01*
X90917428Y-68260765D01*
X90941227Y-68254804D01*
X90965495Y-68251204D01*
X90989999Y-68250000D01*
X91890001Y-68250000D01*
X91914505Y-68251204D01*
X91914505Y-68251204D01*
G37*
D11*
X91440000Y-68825000D03*
D10*
G36*
X91914505Y-70301204D02*
G01*
X91938773Y-70304804D01*
X91962572Y-70310765D01*
X91985671Y-70319030D01*
X92007850Y-70329520D01*
X92028893Y-70342132D01*
X92048599Y-70356747D01*
X92066777Y-70373223D01*
X92083253Y-70391401D01*
X92097868Y-70411107D01*
X92110480Y-70432150D01*
X92120970Y-70454329D01*
X92129235Y-70477428D01*
X92135196Y-70501227D01*
X92138796Y-70525495D01*
X92140000Y-70549999D01*
X92140000Y-71200001D01*
X92138796Y-71224505D01*
X92135196Y-71248773D01*
X92129235Y-71272572D01*
X92120970Y-71295671D01*
X92110480Y-71317850D01*
X92097868Y-71338893D01*
X92083253Y-71358599D01*
X92066777Y-71376777D01*
X92048599Y-71393253D01*
X92028893Y-71407868D01*
X92007850Y-71420480D01*
X91985671Y-71430970D01*
X91962572Y-71439235D01*
X91938773Y-71445196D01*
X91914505Y-71448796D01*
X91890001Y-71450000D01*
X90989999Y-71450000D01*
X90965495Y-71448796D01*
X90941227Y-71445196D01*
X90917428Y-71439235D01*
X90894329Y-71430970D01*
X90872150Y-71420480D01*
X90851107Y-71407868D01*
X90831401Y-71393253D01*
X90813223Y-71376777D01*
X90796747Y-71358599D01*
X90782132Y-71338893D01*
X90769520Y-71317850D01*
X90759030Y-71295671D01*
X90750765Y-71272572D01*
X90744804Y-71248773D01*
X90741204Y-71224505D01*
X90740000Y-71200001D01*
X90740000Y-70549999D01*
X90741204Y-70525495D01*
X90744804Y-70501227D01*
X90750765Y-70477428D01*
X90759030Y-70454329D01*
X90769520Y-70432150D01*
X90782132Y-70411107D01*
X90796747Y-70391401D01*
X90813223Y-70373223D01*
X90831401Y-70356747D01*
X90851107Y-70342132D01*
X90872150Y-70329520D01*
X90894329Y-70319030D01*
X90917428Y-70310765D01*
X90941227Y-70304804D01*
X90965495Y-70301204D01*
X90989999Y-70300000D01*
X91890001Y-70300000D01*
X91914505Y-70301204D01*
X91914505Y-70301204D01*
G37*
D11*
X91440000Y-70875000D03*
D10*
G36*
X94084505Y-54546204D02*
G01*
X94108773Y-54549804D01*
X94132572Y-54555765D01*
X94155671Y-54564030D01*
X94177850Y-54574520D01*
X94198893Y-54587132D01*
X94218599Y-54601747D01*
X94236777Y-54618223D01*
X94253253Y-54636401D01*
X94267868Y-54656107D01*
X94280480Y-54677150D01*
X94290970Y-54699329D01*
X94299235Y-54722428D01*
X94305196Y-54746227D01*
X94308796Y-54770495D01*
X94310000Y-54794999D01*
X94310000Y-55695001D01*
X94308796Y-55719505D01*
X94305196Y-55743773D01*
X94299235Y-55767572D01*
X94290970Y-55790671D01*
X94280480Y-55812850D01*
X94267868Y-55833893D01*
X94253253Y-55853599D01*
X94236777Y-55871777D01*
X94218599Y-55888253D01*
X94198893Y-55902868D01*
X94177850Y-55915480D01*
X94155671Y-55925970D01*
X94132572Y-55934235D01*
X94108773Y-55940196D01*
X94084505Y-55943796D01*
X94060001Y-55945000D01*
X93409999Y-55945000D01*
X93385495Y-55943796D01*
X93361227Y-55940196D01*
X93337428Y-55934235D01*
X93314329Y-55925970D01*
X93292150Y-55915480D01*
X93271107Y-55902868D01*
X93251401Y-55888253D01*
X93233223Y-55871777D01*
X93216747Y-55853599D01*
X93202132Y-55833893D01*
X93189520Y-55812850D01*
X93179030Y-55790671D01*
X93170765Y-55767572D01*
X93164804Y-55743773D01*
X93161204Y-55719505D01*
X93160000Y-55695001D01*
X93160000Y-54794999D01*
X93161204Y-54770495D01*
X93164804Y-54746227D01*
X93170765Y-54722428D01*
X93179030Y-54699329D01*
X93189520Y-54677150D01*
X93202132Y-54656107D01*
X93216747Y-54636401D01*
X93233223Y-54618223D01*
X93251401Y-54601747D01*
X93271107Y-54587132D01*
X93292150Y-54574520D01*
X93314329Y-54564030D01*
X93337428Y-54555765D01*
X93361227Y-54549804D01*
X93385495Y-54546204D01*
X93409999Y-54545000D01*
X94060001Y-54545000D01*
X94084505Y-54546204D01*
X94084505Y-54546204D01*
G37*
D11*
X93735000Y-55245000D03*
D10*
G36*
X92034505Y-54546204D02*
G01*
X92058773Y-54549804D01*
X92082572Y-54555765D01*
X92105671Y-54564030D01*
X92127850Y-54574520D01*
X92148893Y-54587132D01*
X92168599Y-54601747D01*
X92186777Y-54618223D01*
X92203253Y-54636401D01*
X92217868Y-54656107D01*
X92230480Y-54677150D01*
X92240970Y-54699329D01*
X92249235Y-54722428D01*
X92255196Y-54746227D01*
X92258796Y-54770495D01*
X92260000Y-54794999D01*
X92260000Y-55695001D01*
X92258796Y-55719505D01*
X92255196Y-55743773D01*
X92249235Y-55767572D01*
X92240970Y-55790671D01*
X92230480Y-55812850D01*
X92217868Y-55833893D01*
X92203253Y-55853599D01*
X92186777Y-55871777D01*
X92168599Y-55888253D01*
X92148893Y-55902868D01*
X92127850Y-55915480D01*
X92105671Y-55925970D01*
X92082572Y-55934235D01*
X92058773Y-55940196D01*
X92034505Y-55943796D01*
X92010001Y-55945000D01*
X91359999Y-55945000D01*
X91335495Y-55943796D01*
X91311227Y-55940196D01*
X91287428Y-55934235D01*
X91264329Y-55925970D01*
X91242150Y-55915480D01*
X91221107Y-55902868D01*
X91201401Y-55888253D01*
X91183223Y-55871777D01*
X91166747Y-55853599D01*
X91152132Y-55833893D01*
X91139520Y-55812850D01*
X91129030Y-55790671D01*
X91120765Y-55767572D01*
X91114804Y-55743773D01*
X91111204Y-55719505D01*
X91110000Y-55695001D01*
X91110000Y-54794999D01*
X91111204Y-54770495D01*
X91114804Y-54746227D01*
X91120765Y-54722428D01*
X91129030Y-54699329D01*
X91139520Y-54677150D01*
X91152132Y-54656107D01*
X91166747Y-54636401D01*
X91183223Y-54618223D01*
X91201401Y-54601747D01*
X91221107Y-54587132D01*
X91242150Y-54574520D01*
X91264329Y-54564030D01*
X91287428Y-54555765D01*
X91311227Y-54549804D01*
X91335495Y-54546204D01*
X91359999Y-54545000D01*
X92010001Y-54545000D01*
X92034505Y-54546204D01*
X92034505Y-54546204D01*
G37*
D11*
X91685000Y-55245000D03*
D10*
G36*
X99534505Y-68251204D02*
G01*
X99558773Y-68254804D01*
X99582572Y-68260765D01*
X99605671Y-68269030D01*
X99627850Y-68279520D01*
X99648893Y-68292132D01*
X99668599Y-68306747D01*
X99686777Y-68323223D01*
X99703253Y-68341401D01*
X99717868Y-68361107D01*
X99730480Y-68382150D01*
X99740970Y-68404329D01*
X99749235Y-68427428D01*
X99755196Y-68451227D01*
X99758796Y-68475495D01*
X99760000Y-68499999D01*
X99760000Y-69150001D01*
X99758796Y-69174505D01*
X99755196Y-69198773D01*
X99749235Y-69222572D01*
X99740970Y-69245671D01*
X99730480Y-69267850D01*
X99717868Y-69288893D01*
X99703253Y-69308599D01*
X99686777Y-69326777D01*
X99668599Y-69343253D01*
X99648893Y-69357868D01*
X99627850Y-69370480D01*
X99605671Y-69380970D01*
X99582572Y-69389235D01*
X99558773Y-69395196D01*
X99534505Y-69398796D01*
X99510001Y-69400000D01*
X98609999Y-69400000D01*
X98585495Y-69398796D01*
X98561227Y-69395196D01*
X98537428Y-69389235D01*
X98514329Y-69380970D01*
X98492150Y-69370480D01*
X98471107Y-69357868D01*
X98451401Y-69343253D01*
X98433223Y-69326777D01*
X98416747Y-69308599D01*
X98402132Y-69288893D01*
X98389520Y-69267850D01*
X98379030Y-69245671D01*
X98370765Y-69222572D01*
X98364804Y-69198773D01*
X98361204Y-69174505D01*
X98360000Y-69150001D01*
X98360000Y-68499999D01*
X98361204Y-68475495D01*
X98364804Y-68451227D01*
X98370765Y-68427428D01*
X98379030Y-68404329D01*
X98389520Y-68382150D01*
X98402132Y-68361107D01*
X98416747Y-68341401D01*
X98433223Y-68323223D01*
X98451401Y-68306747D01*
X98471107Y-68292132D01*
X98492150Y-68279520D01*
X98514329Y-68269030D01*
X98537428Y-68260765D01*
X98561227Y-68254804D01*
X98585495Y-68251204D01*
X98609999Y-68250000D01*
X99510001Y-68250000D01*
X99534505Y-68251204D01*
X99534505Y-68251204D01*
G37*
D11*
X99060000Y-68825000D03*
D10*
G36*
X99534505Y-70301204D02*
G01*
X99558773Y-70304804D01*
X99582572Y-70310765D01*
X99605671Y-70319030D01*
X99627850Y-70329520D01*
X99648893Y-70342132D01*
X99668599Y-70356747D01*
X99686777Y-70373223D01*
X99703253Y-70391401D01*
X99717868Y-70411107D01*
X99730480Y-70432150D01*
X99740970Y-70454329D01*
X99749235Y-70477428D01*
X99755196Y-70501227D01*
X99758796Y-70525495D01*
X99760000Y-70549999D01*
X99760000Y-71200001D01*
X99758796Y-71224505D01*
X99755196Y-71248773D01*
X99749235Y-71272572D01*
X99740970Y-71295671D01*
X99730480Y-71317850D01*
X99717868Y-71338893D01*
X99703253Y-71358599D01*
X99686777Y-71376777D01*
X99668599Y-71393253D01*
X99648893Y-71407868D01*
X99627850Y-71420480D01*
X99605671Y-71430970D01*
X99582572Y-71439235D01*
X99558773Y-71445196D01*
X99534505Y-71448796D01*
X99510001Y-71450000D01*
X98609999Y-71450000D01*
X98585495Y-71448796D01*
X98561227Y-71445196D01*
X98537428Y-71439235D01*
X98514329Y-71430970D01*
X98492150Y-71420480D01*
X98471107Y-71407868D01*
X98451401Y-71393253D01*
X98433223Y-71376777D01*
X98416747Y-71358599D01*
X98402132Y-71338893D01*
X98389520Y-71317850D01*
X98379030Y-71295671D01*
X98370765Y-71272572D01*
X98364804Y-71248773D01*
X98361204Y-71224505D01*
X98360000Y-71200001D01*
X98360000Y-70549999D01*
X98361204Y-70525495D01*
X98364804Y-70501227D01*
X98370765Y-70477428D01*
X98379030Y-70454329D01*
X98389520Y-70432150D01*
X98402132Y-70411107D01*
X98416747Y-70391401D01*
X98433223Y-70373223D01*
X98451401Y-70356747D01*
X98471107Y-70342132D01*
X98492150Y-70329520D01*
X98514329Y-70319030D01*
X98537428Y-70310765D01*
X98561227Y-70304804D01*
X98585495Y-70301204D01*
X98609999Y-70300000D01*
X99510001Y-70300000D01*
X99534505Y-70301204D01*
X99534505Y-70301204D01*
G37*
D11*
X99060000Y-70875000D03*
D10*
G36*
X105369505Y-56451204D02*
G01*
X105393773Y-56454804D01*
X105417572Y-56460765D01*
X105440671Y-56469030D01*
X105462850Y-56479520D01*
X105483893Y-56492132D01*
X105503599Y-56506747D01*
X105521777Y-56523223D01*
X105538253Y-56541401D01*
X105552868Y-56561107D01*
X105565480Y-56582150D01*
X105575970Y-56604329D01*
X105584235Y-56627428D01*
X105590196Y-56651227D01*
X105593796Y-56675495D01*
X105595000Y-56699999D01*
X105595000Y-57600001D01*
X105593796Y-57624505D01*
X105590196Y-57648773D01*
X105584235Y-57672572D01*
X105575970Y-57695671D01*
X105565480Y-57717850D01*
X105552868Y-57738893D01*
X105538253Y-57758599D01*
X105521777Y-57776777D01*
X105503599Y-57793253D01*
X105483893Y-57807868D01*
X105462850Y-57820480D01*
X105440671Y-57830970D01*
X105417572Y-57839235D01*
X105393773Y-57845196D01*
X105369505Y-57848796D01*
X105345001Y-57850000D01*
X104694999Y-57850000D01*
X104670495Y-57848796D01*
X104646227Y-57845196D01*
X104622428Y-57839235D01*
X104599329Y-57830970D01*
X104577150Y-57820480D01*
X104556107Y-57807868D01*
X104536401Y-57793253D01*
X104518223Y-57776777D01*
X104501747Y-57758599D01*
X104487132Y-57738893D01*
X104474520Y-57717850D01*
X104464030Y-57695671D01*
X104455765Y-57672572D01*
X104449804Y-57648773D01*
X104446204Y-57624505D01*
X104445000Y-57600001D01*
X104445000Y-56699999D01*
X104446204Y-56675495D01*
X104449804Y-56651227D01*
X104455765Y-56627428D01*
X104464030Y-56604329D01*
X104474520Y-56582150D01*
X104487132Y-56561107D01*
X104501747Y-56541401D01*
X104518223Y-56523223D01*
X104536401Y-56506747D01*
X104556107Y-56492132D01*
X104577150Y-56479520D01*
X104599329Y-56469030D01*
X104622428Y-56460765D01*
X104646227Y-56454804D01*
X104670495Y-56451204D01*
X104694999Y-56450000D01*
X105345001Y-56450000D01*
X105369505Y-56451204D01*
X105369505Y-56451204D01*
G37*
D11*
X105020000Y-57150000D03*
D10*
G36*
X107419505Y-56451204D02*
G01*
X107443773Y-56454804D01*
X107467572Y-56460765D01*
X107490671Y-56469030D01*
X107512850Y-56479520D01*
X107533893Y-56492132D01*
X107553599Y-56506747D01*
X107571777Y-56523223D01*
X107588253Y-56541401D01*
X107602868Y-56561107D01*
X107615480Y-56582150D01*
X107625970Y-56604329D01*
X107634235Y-56627428D01*
X107640196Y-56651227D01*
X107643796Y-56675495D01*
X107645000Y-56699999D01*
X107645000Y-57600001D01*
X107643796Y-57624505D01*
X107640196Y-57648773D01*
X107634235Y-57672572D01*
X107625970Y-57695671D01*
X107615480Y-57717850D01*
X107602868Y-57738893D01*
X107588253Y-57758599D01*
X107571777Y-57776777D01*
X107553599Y-57793253D01*
X107533893Y-57807868D01*
X107512850Y-57820480D01*
X107490671Y-57830970D01*
X107467572Y-57839235D01*
X107443773Y-57845196D01*
X107419505Y-57848796D01*
X107395001Y-57850000D01*
X106744999Y-57850000D01*
X106720495Y-57848796D01*
X106696227Y-57845196D01*
X106672428Y-57839235D01*
X106649329Y-57830970D01*
X106627150Y-57820480D01*
X106606107Y-57807868D01*
X106586401Y-57793253D01*
X106568223Y-57776777D01*
X106551747Y-57758599D01*
X106537132Y-57738893D01*
X106524520Y-57717850D01*
X106514030Y-57695671D01*
X106505765Y-57672572D01*
X106499804Y-57648773D01*
X106496204Y-57624505D01*
X106495000Y-57600001D01*
X106495000Y-56699999D01*
X106496204Y-56675495D01*
X106499804Y-56651227D01*
X106505765Y-56627428D01*
X106514030Y-56604329D01*
X106524520Y-56582150D01*
X106537132Y-56561107D01*
X106551747Y-56541401D01*
X106568223Y-56523223D01*
X106586401Y-56506747D01*
X106606107Y-56492132D01*
X106627150Y-56479520D01*
X106649329Y-56469030D01*
X106672428Y-56460765D01*
X106696227Y-56454804D01*
X106720495Y-56451204D01*
X106744999Y-56450000D01*
X107395001Y-56450000D01*
X107419505Y-56451204D01*
X107419505Y-56451204D01*
G37*
D11*
X107070000Y-57150000D03*
D18*
X108585000Y-52070000D03*
D19*
X108585000Y-50770000D03*
D10*
G36*
X107835602Y-50770000D02*
G01*
X107835602Y-50745466D01*
X107840412Y-50696635D01*
X107849984Y-50648510D01*
X107864228Y-50601555D01*
X107883005Y-50556222D01*
X107906136Y-50512949D01*
X107933396Y-50472150D01*
X107964524Y-50434221D01*
X107999221Y-50399524D01*
X108037150Y-50368396D01*
X108077949Y-50341136D01*
X108121222Y-50318005D01*
X108166555Y-50299228D01*
X108213510Y-50284984D01*
X108261635Y-50275412D01*
X108310466Y-50270602D01*
X108335000Y-50270602D01*
X108335000Y-50270000D01*
X108835000Y-50270000D01*
X108835000Y-50270602D01*
X108859534Y-50270602D01*
X108908365Y-50275412D01*
X108956490Y-50284984D01*
X109003445Y-50299228D01*
X109048778Y-50318005D01*
X109092051Y-50341136D01*
X109132850Y-50368396D01*
X109170779Y-50399524D01*
X109205476Y-50434221D01*
X109236604Y-50472150D01*
X109263864Y-50512949D01*
X109286995Y-50556222D01*
X109305772Y-50601555D01*
X109320016Y-50648510D01*
X109329588Y-50696635D01*
X109334398Y-50745466D01*
X109334398Y-50770000D01*
X109335000Y-50770000D01*
X109335000Y-51320000D01*
X107835000Y-51320000D01*
X107835000Y-50770000D01*
X107835602Y-50770000D01*
X107835602Y-50770000D01*
G37*
D19*
X108585000Y-53370000D03*
D10*
G36*
X109335000Y-52820000D02*
G01*
X109335000Y-53370000D01*
X109334398Y-53370000D01*
X109334398Y-53394534D01*
X109329588Y-53443365D01*
X109320016Y-53491490D01*
X109305772Y-53538445D01*
X109286995Y-53583778D01*
X109263864Y-53627051D01*
X109236604Y-53667850D01*
X109205476Y-53705779D01*
X109170779Y-53740476D01*
X109132850Y-53771604D01*
X109092051Y-53798864D01*
X109048778Y-53821995D01*
X109003445Y-53840772D01*
X108956490Y-53855016D01*
X108908365Y-53864588D01*
X108859534Y-53869398D01*
X108835000Y-53869398D01*
X108835000Y-53870000D01*
X108335000Y-53870000D01*
X108335000Y-53869398D01*
X108310466Y-53869398D01*
X108261635Y-53864588D01*
X108213510Y-53855016D01*
X108166555Y-53840772D01*
X108121222Y-53821995D01*
X108077949Y-53798864D01*
X108037150Y-53771604D01*
X107999221Y-53740476D01*
X107964524Y-53705779D01*
X107933396Y-53667850D01*
X107906136Y-53627051D01*
X107883005Y-53583778D01*
X107864228Y-53538445D01*
X107849984Y-53491490D01*
X107840412Y-53443365D01*
X107835602Y-53394534D01*
X107835602Y-53370000D01*
X107835000Y-53370000D01*
X107835000Y-52820000D01*
X109335000Y-52820000D01*
X109335000Y-52820000D01*
G37*
D18*
X111760000Y-52070000D03*
D19*
X111760000Y-50770000D03*
D10*
G36*
X111010602Y-50770000D02*
G01*
X111010602Y-50745466D01*
X111015412Y-50696635D01*
X111024984Y-50648510D01*
X111039228Y-50601555D01*
X111058005Y-50556222D01*
X111081136Y-50512949D01*
X111108396Y-50472150D01*
X111139524Y-50434221D01*
X111174221Y-50399524D01*
X111212150Y-50368396D01*
X111252949Y-50341136D01*
X111296222Y-50318005D01*
X111341555Y-50299228D01*
X111388510Y-50284984D01*
X111436635Y-50275412D01*
X111485466Y-50270602D01*
X111510000Y-50270602D01*
X111510000Y-50270000D01*
X112010000Y-50270000D01*
X112010000Y-50270602D01*
X112034534Y-50270602D01*
X112083365Y-50275412D01*
X112131490Y-50284984D01*
X112178445Y-50299228D01*
X112223778Y-50318005D01*
X112267051Y-50341136D01*
X112307850Y-50368396D01*
X112345779Y-50399524D01*
X112380476Y-50434221D01*
X112411604Y-50472150D01*
X112438864Y-50512949D01*
X112461995Y-50556222D01*
X112480772Y-50601555D01*
X112495016Y-50648510D01*
X112504588Y-50696635D01*
X112509398Y-50745466D01*
X112509398Y-50770000D01*
X112510000Y-50770000D01*
X112510000Y-51320000D01*
X111010000Y-51320000D01*
X111010000Y-50770000D01*
X111010602Y-50770000D01*
X111010602Y-50770000D01*
G37*
D19*
X111760000Y-53370000D03*
D10*
G36*
X112510000Y-52820000D02*
G01*
X112510000Y-53370000D01*
X112509398Y-53370000D01*
X112509398Y-53394534D01*
X112504588Y-53443365D01*
X112495016Y-53491490D01*
X112480772Y-53538445D01*
X112461995Y-53583778D01*
X112438864Y-53627051D01*
X112411604Y-53667850D01*
X112380476Y-53705779D01*
X112345779Y-53740476D01*
X112307850Y-53771604D01*
X112267051Y-53798864D01*
X112223778Y-53821995D01*
X112178445Y-53840772D01*
X112131490Y-53855016D01*
X112083365Y-53864588D01*
X112034534Y-53869398D01*
X112010000Y-53869398D01*
X112010000Y-53870000D01*
X111510000Y-53870000D01*
X111510000Y-53869398D01*
X111485466Y-53869398D01*
X111436635Y-53864588D01*
X111388510Y-53855016D01*
X111341555Y-53840772D01*
X111296222Y-53821995D01*
X111252949Y-53798864D01*
X111212150Y-53771604D01*
X111174221Y-53740476D01*
X111139524Y-53705779D01*
X111108396Y-53667850D01*
X111081136Y-53627051D01*
X111058005Y-53583778D01*
X111039228Y-53538445D01*
X111024984Y-53491490D01*
X111015412Y-53443365D01*
X111010602Y-53394534D01*
X111010602Y-53370000D01*
X111010000Y-53370000D01*
X111010000Y-52820000D01*
X112510000Y-52820000D01*
X112510000Y-52820000D01*
G37*
D18*
X114934999Y-52070001D03*
D19*
X114934999Y-50770001D03*
D10*
G36*
X114185601Y-50770001D02*
G01*
X114185601Y-50745467D01*
X114190411Y-50696636D01*
X114199983Y-50648511D01*
X114214227Y-50601556D01*
X114233004Y-50556223D01*
X114256135Y-50512950D01*
X114283395Y-50472151D01*
X114314523Y-50434222D01*
X114349220Y-50399525D01*
X114387149Y-50368397D01*
X114427948Y-50341137D01*
X114471221Y-50318006D01*
X114516554Y-50299229D01*
X114563509Y-50284985D01*
X114611634Y-50275413D01*
X114660465Y-50270603D01*
X114684999Y-50270603D01*
X114684999Y-50270001D01*
X115184999Y-50270001D01*
X115184999Y-50270603D01*
X115209533Y-50270603D01*
X115258364Y-50275413D01*
X115306489Y-50284985D01*
X115353444Y-50299229D01*
X115398777Y-50318006D01*
X115442050Y-50341137D01*
X115482849Y-50368397D01*
X115520778Y-50399525D01*
X115555475Y-50434222D01*
X115586603Y-50472151D01*
X115613863Y-50512950D01*
X115636994Y-50556223D01*
X115655771Y-50601556D01*
X115670015Y-50648511D01*
X115679587Y-50696636D01*
X115684397Y-50745467D01*
X115684397Y-50770001D01*
X115684999Y-50770001D01*
X115684999Y-51320001D01*
X114184999Y-51320001D01*
X114184999Y-50770001D01*
X114185601Y-50770001D01*
X114185601Y-50770001D01*
G37*
D19*
X114934999Y-53370001D03*
D10*
G36*
X115684999Y-52820001D02*
G01*
X115684999Y-53370001D01*
X115684397Y-53370001D01*
X115684397Y-53394535D01*
X115679587Y-53443366D01*
X115670015Y-53491491D01*
X115655771Y-53538446D01*
X115636994Y-53583779D01*
X115613863Y-53627052D01*
X115586603Y-53667851D01*
X115555475Y-53705780D01*
X115520778Y-53740477D01*
X115482849Y-53771605D01*
X115442050Y-53798865D01*
X115398777Y-53821996D01*
X115353444Y-53840773D01*
X115306489Y-53855017D01*
X115258364Y-53864589D01*
X115209533Y-53869399D01*
X115184999Y-53869399D01*
X115184999Y-53870001D01*
X114684999Y-53870001D01*
X114684999Y-53869399D01*
X114660465Y-53869399D01*
X114611634Y-53864589D01*
X114563509Y-53855017D01*
X114516554Y-53840773D01*
X114471221Y-53821996D01*
X114427948Y-53798865D01*
X114387149Y-53771605D01*
X114349220Y-53740477D01*
X114314523Y-53705780D01*
X114283395Y-53667851D01*
X114256135Y-53627052D01*
X114233004Y-53583779D01*
X114214227Y-53538446D01*
X114199983Y-53491491D01*
X114190411Y-53443366D01*
X114185601Y-53394535D01*
X114185601Y-53370001D01*
X114184999Y-53370001D01*
X114184999Y-52820001D01*
X115684999Y-52820001D01*
X115684999Y-52820001D01*
G37*
D12*
X119380000Y-70485000D03*
X119380000Y-67945000D03*
X119380000Y-65405000D03*
X119380000Y-62865000D03*
X119380000Y-60325000D03*
X119380000Y-57785000D03*
X119380000Y-55245000D03*
D13*
X119380000Y-52705000D03*
D10*
G36*
X94454505Y-70301204D02*
G01*
X94478773Y-70304804D01*
X94502572Y-70310765D01*
X94525671Y-70319030D01*
X94547850Y-70329520D01*
X94568893Y-70342132D01*
X94588599Y-70356747D01*
X94606777Y-70373223D01*
X94623253Y-70391401D01*
X94637868Y-70411107D01*
X94650480Y-70432150D01*
X94660970Y-70454329D01*
X94669235Y-70477428D01*
X94675196Y-70501227D01*
X94678796Y-70525495D01*
X94680000Y-70549999D01*
X94680000Y-71200001D01*
X94678796Y-71224505D01*
X94675196Y-71248773D01*
X94669235Y-71272572D01*
X94660970Y-71295671D01*
X94650480Y-71317850D01*
X94637868Y-71338893D01*
X94623253Y-71358599D01*
X94606777Y-71376777D01*
X94588599Y-71393253D01*
X94568893Y-71407868D01*
X94547850Y-71420480D01*
X94525671Y-71430970D01*
X94502572Y-71439235D01*
X94478773Y-71445196D01*
X94454505Y-71448796D01*
X94430001Y-71450000D01*
X93529999Y-71450000D01*
X93505495Y-71448796D01*
X93481227Y-71445196D01*
X93457428Y-71439235D01*
X93434329Y-71430970D01*
X93412150Y-71420480D01*
X93391107Y-71407868D01*
X93371401Y-71393253D01*
X93353223Y-71376777D01*
X93336747Y-71358599D01*
X93322132Y-71338893D01*
X93309520Y-71317850D01*
X93299030Y-71295671D01*
X93290765Y-71272572D01*
X93284804Y-71248773D01*
X93281204Y-71224505D01*
X93280000Y-71200001D01*
X93280000Y-70549999D01*
X93281204Y-70525495D01*
X93284804Y-70501227D01*
X93290765Y-70477428D01*
X93299030Y-70454329D01*
X93309520Y-70432150D01*
X93322132Y-70411107D01*
X93336747Y-70391401D01*
X93353223Y-70373223D01*
X93371401Y-70356747D01*
X93391107Y-70342132D01*
X93412150Y-70329520D01*
X93434329Y-70319030D01*
X93457428Y-70310765D01*
X93481227Y-70304804D01*
X93505495Y-70301204D01*
X93529999Y-70300000D01*
X94430001Y-70300000D01*
X94454505Y-70301204D01*
X94454505Y-70301204D01*
G37*
D11*
X93980000Y-70875000D03*
D10*
G36*
X94454505Y-68251204D02*
G01*
X94478773Y-68254804D01*
X94502572Y-68260765D01*
X94525671Y-68269030D01*
X94547850Y-68279520D01*
X94568893Y-68292132D01*
X94588599Y-68306747D01*
X94606777Y-68323223D01*
X94623253Y-68341401D01*
X94637868Y-68361107D01*
X94650480Y-68382150D01*
X94660970Y-68404329D01*
X94669235Y-68427428D01*
X94675196Y-68451227D01*
X94678796Y-68475495D01*
X94680000Y-68499999D01*
X94680000Y-69150001D01*
X94678796Y-69174505D01*
X94675196Y-69198773D01*
X94669235Y-69222572D01*
X94660970Y-69245671D01*
X94650480Y-69267850D01*
X94637868Y-69288893D01*
X94623253Y-69308599D01*
X94606777Y-69326777D01*
X94588599Y-69343253D01*
X94568893Y-69357868D01*
X94547850Y-69370480D01*
X94525671Y-69380970D01*
X94502572Y-69389235D01*
X94478773Y-69395196D01*
X94454505Y-69398796D01*
X94430001Y-69400000D01*
X93529999Y-69400000D01*
X93505495Y-69398796D01*
X93481227Y-69395196D01*
X93457428Y-69389235D01*
X93434329Y-69380970D01*
X93412150Y-69370480D01*
X93391107Y-69357868D01*
X93371401Y-69343253D01*
X93353223Y-69326777D01*
X93336747Y-69308599D01*
X93322132Y-69288893D01*
X93309520Y-69267850D01*
X93299030Y-69245671D01*
X93290765Y-69222572D01*
X93284804Y-69198773D01*
X93281204Y-69174505D01*
X93280000Y-69150001D01*
X93280000Y-68499999D01*
X93281204Y-68475495D01*
X93284804Y-68451227D01*
X93290765Y-68427428D01*
X93299030Y-68404329D01*
X93309520Y-68382150D01*
X93322132Y-68361107D01*
X93336747Y-68341401D01*
X93353223Y-68323223D01*
X93371401Y-68306747D01*
X93391107Y-68292132D01*
X93412150Y-68279520D01*
X93434329Y-68269030D01*
X93457428Y-68260765D01*
X93481227Y-68254804D01*
X93505495Y-68251204D01*
X93529999Y-68250000D01*
X94430001Y-68250000D01*
X94454505Y-68251204D01*
X94454505Y-68251204D01*
G37*
D11*
X93980000Y-68825000D03*
D10*
G36*
X98529505Y-54546204D02*
G01*
X98553773Y-54549804D01*
X98577572Y-54555765D01*
X98600671Y-54564030D01*
X98622850Y-54574520D01*
X98643893Y-54587132D01*
X98663599Y-54601747D01*
X98681777Y-54618223D01*
X98698253Y-54636401D01*
X98712868Y-54656107D01*
X98725480Y-54677150D01*
X98735970Y-54699329D01*
X98744235Y-54722428D01*
X98750196Y-54746227D01*
X98753796Y-54770495D01*
X98755000Y-54794999D01*
X98755000Y-55695001D01*
X98753796Y-55719505D01*
X98750196Y-55743773D01*
X98744235Y-55767572D01*
X98735970Y-55790671D01*
X98725480Y-55812850D01*
X98712868Y-55833893D01*
X98698253Y-55853599D01*
X98681777Y-55871777D01*
X98663599Y-55888253D01*
X98643893Y-55902868D01*
X98622850Y-55915480D01*
X98600671Y-55925970D01*
X98577572Y-55934235D01*
X98553773Y-55940196D01*
X98529505Y-55943796D01*
X98505001Y-55945000D01*
X97854999Y-55945000D01*
X97830495Y-55943796D01*
X97806227Y-55940196D01*
X97782428Y-55934235D01*
X97759329Y-55925970D01*
X97737150Y-55915480D01*
X97716107Y-55902868D01*
X97696401Y-55888253D01*
X97678223Y-55871777D01*
X97661747Y-55853599D01*
X97647132Y-55833893D01*
X97634520Y-55812850D01*
X97624030Y-55790671D01*
X97615765Y-55767572D01*
X97609804Y-55743773D01*
X97606204Y-55719505D01*
X97605000Y-55695001D01*
X97605000Y-54794999D01*
X97606204Y-54770495D01*
X97609804Y-54746227D01*
X97615765Y-54722428D01*
X97624030Y-54699329D01*
X97634520Y-54677150D01*
X97647132Y-54656107D01*
X97661747Y-54636401D01*
X97678223Y-54618223D01*
X97696401Y-54601747D01*
X97716107Y-54587132D01*
X97737150Y-54574520D01*
X97759329Y-54564030D01*
X97782428Y-54555765D01*
X97806227Y-54549804D01*
X97830495Y-54546204D01*
X97854999Y-54545000D01*
X98505001Y-54545000D01*
X98529505Y-54546204D01*
X98529505Y-54546204D01*
G37*
D11*
X98180000Y-55245000D03*
D10*
G36*
X96479505Y-54546204D02*
G01*
X96503773Y-54549804D01*
X96527572Y-54555765D01*
X96550671Y-54564030D01*
X96572850Y-54574520D01*
X96593893Y-54587132D01*
X96613599Y-54601747D01*
X96631777Y-54618223D01*
X96648253Y-54636401D01*
X96662868Y-54656107D01*
X96675480Y-54677150D01*
X96685970Y-54699329D01*
X96694235Y-54722428D01*
X96700196Y-54746227D01*
X96703796Y-54770495D01*
X96705000Y-54794999D01*
X96705000Y-55695001D01*
X96703796Y-55719505D01*
X96700196Y-55743773D01*
X96694235Y-55767572D01*
X96685970Y-55790671D01*
X96675480Y-55812850D01*
X96662868Y-55833893D01*
X96648253Y-55853599D01*
X96631777Y-55871777D01*
X96613599Y-55888253D01*
X96593893Y-55902868D01*
X96572850Y-55915480D01*
X96550671Y-55925970D01*
X96527572Y-55934235D01*
X96503773Y-55940196D01*
X96479505Y-55943796D01*
X96455001Y-55945000D01*
X95804999Y-55945000D01*
X95780495Y-55943796D01*
X95756227Y-55940196D01*
X95732428Y-55934235D01*
X95709329Y-55925970D01*
X95687150Y-55915480D01*
X95666107Y-55902868D01*
X95646401Y-55888253D01*
X95628223Y-55871777D01*
X95611747Y-55853599D01*
X95597132Y-55833893D01*
X95584520Y-55812850D01*
X95574030Y-55790671D01*
X95565765Y-55767572D01*
X95559804Y-55743773D01*
X95556204Y-55719505D01*
X95555000Y-55695001D01*
X95555000Y-54794999D01*
X95556204Y-54770495D01*
X95559804Y-54746227D01*
X95565765Y-54722428D01*
X95574030Y-54699329D01*
X95584520Y-54677150D01*
X95597132Y-54656107D01*
X95611747Y-54636401D01*
X95628223Y-54618223D01*
X95646401Y-54601747D01*
X95666107Y-54587132D01*
X95687150Y-54574520D01*
X95709329Y-54564030D01*
X95732428Y-54555765D01*
X95756227Y-54549804D01*
X95780495Y-54546204D01*
X95804999Y-54545000D01*
X96455001Y-54545000D01*
X96479505Y-54546204D01*
X96479505Y-54546204D01*
G37*
D11*
X96130000Y-55245000D03*
D10*
G36*
X107419505Y-60261204D02*
G01*
X107443773Y-60264804D01*
X107467572Y-60270765D01*
X107490671Y-60279030D01*
X107512850Y-60289520D01*
X107533893Y-60302132D01*
X107553599Y-60316747D01*
X107571777Y-60333223D01*
X107588253Y-60351401D01*
X107602868Y-60371107D01*
X107615480Y-60392150D01*
X107625970Y-60414329D01*
X107634235Y-60437428D01*
X107640196Y-60461227D01*
X107643796Y-60485495D01*
X107645000Y-60509999D01*
X107645000Y-61410001D01*
X107643796Y-61434505D01*
X107640196Y-61458773D01*
X107634235Y-61482572D01*
X107625970Y-61505671D01*
X107615480Y-61527850D01*
X107602868Y-61548893D01*
X107588253Y-61568599D01*
X107571777Y-61586777D01*
X107553599Y-61603253D01*
X107533893Y-61617868D01*
X107512850Y-61630480D01*
X107490671Y-61640970D01*
X107467572Y-61649235D01*
X107443773Y-61655196D01*
X107419505Y-61658796D01*
X107395001Y-61660000D01*
X106744999Y-61660000D01*
X106720495Y-61658796D01*
X106696227Y-61655196D01*
X106672428Y-61649235D01*
X106649329Y-61640970D01*
X106627150Y-61630480D01*
X106606107Y-61617868D01*
X106586401Y-61603253D01*
X106568223Y-61586777D01*
X106551747Y-61568599D01*
X106537132Y-61548893D01*
X106524520Y-61527850D01*
X106514030Y-61505671D01*
X106505765Y-61482572D01*
X106499804Y-61458773D01*
X106496204Y-61434505D01*
X106495000Y-61410001D01*
X106495000Y-60509999D01*
X106496204Y-60485495D01*
X106499804Y-60461227D01*
X106505765Y-60437428D01*
X106514030Y-60414329D01*
X106524520Y-60392150D01*
X106537132Y-60371107D01*
X106551747Y-60351401D01*
X106568223Y-60333223D01*
X106586401Y-60316747D01*
X106606107Y-60302132D01*
X106627150Y-60289520D01*
X106649329Y-60279030D01*
X106672428Y-60270765D01*
X106696227Y-60264804D01*
X106720495Y-60261204D01*
X106744999Y-60260000D01*
X107395001Y-60260000D01*
X107419505Y-60261204D01*
X107419505Y-60261204D01*
G37*
D11*
X107070000Y-60960000D03*
D10*
G36*
X105369505Y-60261204D02*
G01*
X105393773Y-60264804D01*
X105417572Y-60270765D01*
X105440671Y-60279030D01*
X105462850Y-60289520D01*
X105483893Y-60302132D01*
X105503599Y-60316747D01*
X105521777Y-60333223D01*
X105538253Y-60351401D01*
X105552868Y-60371107D01*
X105565480Y-60392150D01*
X105575970Y-60414329D01*
X105584235Y-60437428D01*
X105590196Y-60461227D01*
X105593796Y-60485495D01*
X105595000Y-60509999D01*
X105595000Y-61410001D01*
X105593796Y-61434505D01*
X105590196Y-61458773D01*
X105584235Y-61482572D01*
X105575970Y-61505671D01*
X105565480Y-61527850D01*
X105552868Y-61548893D01*
X105538253Y-61568599D01*
X105521777Y-61586777D01*
X105503599Y-61603253D01*
X105483893Y-61617868D01*
X105462850Y-61630480D01*
X105440671Y-61640970D01*
X105417572Y-61649235D01*
X105393773Y-61655196D01*
X105369505Y-61658796D01*
X105345001Y-61660000D01*
X104694999Y-61660000D01*
X104670495Y-61658796D01*
X104646227Y-61655196D01*
X104622428Y-61649235D01*
X104599329Y-61640970D01*
X104577150Y-61630480D01*
X104556107Y-61617868D01*
X104536401Y-61603253D01*
X104518223Y-61586777D01*
X104501747Y-61568599D01*
X104487132Y-61548893D01*
X104474520Y-61527850D01*
X104464030Y-61505671D01*
X104455765Y-61482572D01*
X104449804Y-61458773D01*
X104446204Y-61434505D01*
X104445000Y-61410001D01*
X104445000Y-60509999D01*
X104446204Y-60485495D01*
X104449804Y-60461227D01*
X104455765Y-60437428D01*
X104464030Y-60414329D01*
X104474520Y-60392150D01*
X104487132Y-60371107D01*
X104501747Y-60351401D01*
X104518223Y-60333223D01*
X104536401Y-60316747D01*
X104556107Y-60302132D01*
X104577150Y-60289520D01*
X104599329Y-60279030D01*
X104622428Y-60270765D01*
X104646227Y-60264804D01*
X104670495Y-60261204D01*
X104694999Y-60260000D01*
X105345001Y-60260000D01*
X105369505Y-60261204D01*
X105369505Y-60261204D01*
G37*
D11*
X105020000Y-60960000D03*
D10*
G36*
X109694505Y-70301204D02*
G01*
X109718773Y-70304804D01*
X109742572Y-70310765D01*
X109765671Y-70319030D01*
X109787850Y-70329520D01*
X109808893Y-70342132D01*
X109828599Y-70356747D01*
X109846777Y-70373223D01*
X109863253Y-70391401D01*
X109877868Y-70411107D01*
X109890480Y-70432150D01*
X109900970Y-70454329D01*
X109909235Y-70477428D01*
X109915196Y-70501227D01*
X109918796Y-70525495D01*
X109920000Y-70549999D01*
X109920000Y-71200001D01*
X109918796Y-71224505D01*
X109915196Y-71248773D01*
X109909235Y-71272572D01*
X109900970Y-71295671D01*
X109890480Y-71317850D01*
X109877868Y-71338893D01*
X109863253Y-71358599D01*
X109846777Y-71376777D01*
X109828599Y-71393253D01*
X109808893Y-71407868D01*
X109787850Y-71420480D01*
X109765671Y-71430970D01*
X109742572Y-71439235D01*
X109718773Y-71445196D01*
X109694505Y-71448796D01*
X109670001Y-71450000D01*
X108769999Y-71450000D01*
X108745495Y-71448796D01*
X108721227Y-71445196D01*
X108697428Y-71439235D01*
X108674329Y-71430970D01*
X108652150Y-71420480D01*
X108631107Y-71407868D01*
X108611401Y-71393253D01*
X108593223Y-71376777D01*
X108576747Y-71358599D01*
X108562132Y-71338893D01*
X108549520Y-71317850D01*
X108539030Y-71295671D01*
X108530765Y-71272572D01*
X108524804Y-71248773D01*
X108521204Y-71224505D01*
X108520000Y-71200001D01*
X108520000Y-70549999D01*
X108521204Y-70525495D01*
X108524804Y-70501227D01*
X108530765Y-70477428D01*
X108539030Y-70454329D01*
X108549520Y-70432150D01*
X108562132Y-70411107D01*
X108576747Y-70391401D01*
X108593223Y-70373223D01*
X108611401Y-70356747D01*
X108631107Y-70342132D01*
X108652150Y-70329520D01*
X108674329Y-70319030D01*
X108697428Y-70310765D01*
X108721227Y-70304804D01*
X108745495Y-70301204D01*
X108769999Y-70300000D01*
X109670001Y-70300000D01*
X109694505Y-70301204D01*
X109694505Y-70301204D01*
G37*
D11*
X109220000Y-70875000D03*
D10*
G36*
X109694505Y-68251204D02*
G01*
X109718773Y-68254804D01*
X109742572Y-68260765D01*
X109765671Y-68269030D01*
X109787850Y-68279520D01*
X109808893Y-68292132D01*
X109828599Y-68306747D01*
X109846777Y-68323223D01*
X109863253Y-68341401D01*
X109877868Y-68361107D01*
X109890480Y-68382150D01*
X109900970Y-68404329D01*
X109909235Y-68427428D01*
X109915196Y-68451227D01*
X109918796Y-68475495D01*
X109920000Y-68499999D01*
X109920000Y-69150001D01*
X109918796Y-69174505D01*
X109915196Y-69198773D01*
X109909235Y-69222572D01*
X109900970Y-69245671D01*
X109890480Y-69267850D01*
X109877868Y-69288893D01*
X109863253Y-69308599D01*
X109846777Y-69326777D01*
X109828599Y-69343253D01*
X109808893Y-69357868D01*
X109787850Y-69370480D01*
X109765671Y-69380970D01*
X109742572Y-69389235D01*
X109718773Y-69395196D01*
X109694505Y-69398796D01*
X109670001Y-69400000D01*
X108769999Y-69400000D01*
X108745495Y-69398796D01*
X108721227Y-69395196D01*
X108697428Y-69389235D01*
X108674329Y-69380970D01*
X108652150Y-69370480D01*
X108631107Y-69357868D01*
X108611401Y-69343253D01*
X108593223Y-69326777D01*
X108576747Y-69308599D01*
X108562132Y-69288893D01*
X108549520Y-69267850D01*
X108539030Y-69245671D01*
X108530765Y-69222572D01*
X108524804Y-69198773D01*
X108521204Y-69174505D01*
X108520000Y-69150001D01*
X108520000Y-68499999D01*
X108521204Y-68475495D01*
X108524804Y-68451227D01*
X108530765Y-68427428D01*
X108539030Y-68404329D01*
X108549520Y-68382150D01*
X108562132Y-68361107D01*
X108576747Y-68341401D01*
X108593223Y-68323223D01*
X108611401Y-68306747D01*
X108631107Y-68292132D01*
X108652150Y-68279520D01*
X108674329Y-68269030D01*
X108697428Y-68260765D01*
X108721227Y-68254804D01*
X108745495Y-68251204D01*
X108769999Y-68250000D01*
X109670001Y-68250000D01*
X109694505Y-68251204D01*
X109694505Y-68251204D01*
G37*
D11*
X109220000Y-68825000D03*
D10*
G36*
X104614505Y-70301204D02*
G01*
X104638773Y-70304804D01*
X104662572Y-70310765D01*
X104685671Y-70319030D01*
X104707850Y-70329520D01*
X104728893Y-70342132D01*
X104748599Y-70356747D01*
X104766777Y-70373223D01*
X104783253Y-70391401D01*
X104797868Y-70411107D01*
X104810480Y-70432150D01*
X104820970Y-70454329D01*
X104829235Y-70477428D01*
X104835196Y-70501227D01*
X104838796Y-70525495D01*
X104840000Y-70549999D01*
X104840000Y-71200001D01*
X104838796Y-71224505D01*
X104835196Y-71248773D01*
X104829235Y-71272572D01*
X104820970Y-71295671D01*
X104810480Y-71317850D01*
X104797868Y-71338893D01*
X104783253Y-71358599D01*
X104766777Y-71376777D01*
X104748599Y-71393253D01*
X104728893Y-71407868D01*
X104707850Y-71420480D01*
X104685671Y-71430970D01*
X104662572Y-71439235D01*
X104638773Y-71445196D01*
X104614505Y-71448796D01*
X104590001Y-71450000D01*
X103689999Y-71450000D01*
X103665495Y-71448796D01*
X103641227Y-71445196D01*
X103617428Y-71439235D01*
X103594329Y-71430970D01*
X103572150Y-71420480D01*
X103551107Y-71407868D01*
X103531401Y-71393253D01*
X103513223Y-71376777D01*
X103496747Y-71358599D01*
X103482132Y-71338893D01*
X103469520Y-71317850D01*
X103459030Y-71295671D01*
X103450765Y-71272572D01*
X103444804Y-71248773D01*
X103441204Y-71224505D01*
X103440000Y-71200001D01*
X103440000Y-70549999D01*
X103441204Y-70525495D01*
X103444804Y-70501227D01*
X103450765Y-70477428D01*
X103459030Y-70454329D01*
X103469520Y-70432150D01*
X103482132Y-70411107D01*
X103496747Y-70391401D01*
X103513223Y-70373223D01*
X103531401Y-70356747D01*
X103551107Y-70342132D01*
X103572150Y-70329520D01*
X103594329Y-70319030D01*
X103617428Y-70310765D01*
X103641227Y-70304804D01*
X103665495Y-70301204D01*
X103689999Y-70300000D01*
X104590001Y-70300000D01*
X104614505Y-70301204D01*
X104614505Y-70301204D01*
G37*
D11*
X104140000Y-70875000D03*
D10*
G36*
X104614505Y-68251204D02*
G01*
X104638773Y-68254804D01*
X104662572Y-68260765D01*
X104685671Y-68269030D01*
X104707850Y-68279520D01*
X104728893Y-68292132D01*
X104748599Y-68306747D01*
X104766777Y-68323223D01*
X104783253Y-68341401D01*
X104797868Y-68361107D01*
X104810480Y-68382150D01*
X104820970Y-68404329D01*
X104829235Y-68427428D01*
X104835196Y-68451227D01*
X104838796Y-68475495D01*
X104840000Y-68499999D01*
X104840000Y-69150001D01*
X104838796Y-69174505D01*
X104835196Y-69198773D01*
X104829235Y-69222572D01*
X104820970Y-69245671D01*
X104810480Y-69267850D01*
X104797868Y-69288893D01*
X104783253Y-69308599D01*
X104766777Y-69326777D01*
X104748599Y-69343253D01*
X104728893Y-69357868D01*
X104707850Y-69370480D01*
X104685671Y-69380970D01*
X104662572Y-69389235D01*
X104638773Y-69395196D01*
X104614505Y-69398796D01*
X104590001Y-69400000D01*
X103689999Y-69400000D01*
X103665495Y-69398796D01*
X103641227Y-69395196D01*
X103617428Y-69389235D01*
X103594329Y-69380970D01*
X103572150Y-69370480D01*
X103551107Y-69357868D01*
X103531401Y-69343253D01*
X103513223Y-69326777D01*
X103496747Y-69308599D01*
X103482132Y-69288893D01*
X103469520Y-69267850D01*
X103459030Y-69245671D01*
X103450765Y-69222572D01*
X103444804Y-69198773D01*
X103441204Y-69174505D01*
X103440000Y-69150001D01*
X103440000Y-68499999D01*
X103441204Y-68475495D01*
X103444804Y-68451227D01*
X103450765Y-68427428D01*
X103459030Y-68404329D01*
X103469520Y-68382150D01*
X103482132Y-68361107D01*
X103496747Y-68341401D01*
X103513223Y-68323223D01*
X103531401Y-68306747D01*
X103551107Y-68292132D01*
X103572150Y-68279520D01*
X103594329Y-68269030D01*
X103617428Y-68260765D01*
X103641227Y-68254804D01*
X103665495Y-68251204D01*
X103689999Y-68250000D01*
X104590001Y-68250000D01*
X104614505Y-68251204D01*
X104614505Y-68251204D01*
G37*
D11*
X104140000Y-68825000D03*
D20*
X103505000Y-60960000D03*
X106045000Y-64770000D03*
X114935000Y-54610000D03*
X111760000Y-54610000D03*
X112395000Y-62230000D03*
X102870000Y-69850000D03*
X110490000Y-72390000D03*
X95250000Y-72390000D03*
X92710000Y-57150000D03*
X108585000Y-54610000D03*
X108585000Y-60960000D03*
X95250000Y-53340000D03*
X108585000Y-62230000D03*
X110490000Y-60960000D03*
X98425000Y-61595000D03*
X98425000Y-63630000D03*
X111760000Y-67329742D03*
X111768168Y-65429732D03*
X113665001Y-60960000D03*
X112395000Y-60960000D03*
X115570000Y-62230000D03*
X114300000Y-59690000D03*
D21*
X101940000Y-60530000D02*
X103075000Y-60530000D01*
X103075000Y-60530000D02*
X103505000Y-60960000D01*
X106045000Y-65870000D02*
X106045000Y-64770000D01*
X114935000Y-53369999D02*
X114935000Y-54610000D01*
X111760000Y-53370001D02*
X111760000Y-54610000D01*
X112705000Y-64060000D02*
X112705000Y-62540000D01*
X112705000Y-62540000D02*
X112395000Y-62230000D01*
X104140000Y-70875000D02*
X103895000Y-70875000D01*
X103895000Y-70875000D02*
X102870000Y-69850000D01*
X109220000Y-70875000D02*
X109220000Y-71120000D01*
X109220000Y-71120000D02*
X110490000Y-72390000D01*
X93980000Y-70875000D02*
X93980000Y-71120000D01*
X93980000Y-71120000D02*
X95250000Y-72390000D01*
X92710000Y-59480000D02*
X92710000Y-57150000D01*
X107070000Y-60960000D02*
X108585000Y-60960000D01*
X96130000Y-55245000D02*
X96130000Y-54220000D01*
X96130000Y-54220000D02*
X95250000Y-53340000D01*
X108585000Y-54610000D02*
X108585000Y-53370000D01*
D22*
X101290000Y-63930000D02*
X101965000Y-63930000D01*
D21*
X101715000Y-63930000D02*
X101290000Y-63930000D01*
X101990000Y-64205000D02*
X101715000Y-63930000D01*
X101940000Y-66625000D02*
X104140000Y-68825000D01*
X101940000Y-63930000D02*
X101940000Y-66625000D01*
X104140000Y-68825000D02*
X106680000Y-68825000D01*
D22*
X88900000Y-70875000D02*
X91440000Y-70875000D01*
X91930000Y-70875000D02*
X93980000Y-68825000D01*
X91440000Y-70875000D02*
X91930000Y-70875000D01*
X105095000Y-66585002D02*
X105819998Y-67310000D01*
X105095000Y-65870000D02*
X105095000Y-66585002D01*
X107303372Y-70251628D02*
X106680000Y-70875000D01*
X107830010Y-69724990D02*
X107303372Y-70251628D01*
X106929966Y-67310000D02*
X107830010Y-68210044D01*
X105819998Y-67310000D02*
X106929966Y-67310000D01*
X102223372Y-71498372D02*
X101600000Y-70875000D01*
X102625010Y-71900010D02*
X102223372Y-71498372D01*
X105654990Y-71900010D02*
X102625010Y-71900010D01*
X106680000Y-70875000D02*
X105654990Y-71900010D01*
X101600000Y-70875000D02*
X99060000Y-70875000D01*
X99060000Y-70875000D02*
X96520000Y-70875000D01*
X94470000Y-68825000D02*
X96520000Y-70875000D01*
X93980000Y-68825000D02*
X94470000Y-68825000D01*
X88276628Y-70251628D02*
X88900000Y-70875000D01*
X87749990Y-69724990D02*
X88276628Y-70251628D01*
X87749990Y-67190010D02*
X87749990Y-69724990D01*
X88900000Y-66040000D02*
X87749990Y-67190010D01*
X107955020Y-68825000D02*
X109220000Y-68825000D01*
X107830010Y-68699990D02*
X107955020Y-68825000D01*
X107830010Y-68699990D02*
X107830010Y-69724990D01*
X107830010Y-68210044D02*
X107830010Y-68699990D01*
X109710000Y-68825000D02*
X111760000Y-70875000D01*
X109220000Y-68825000D02*
X109710000Y-68825000D01*
X87599999Y-57795999D02*
X90150998Y-55245000D01*
X87599999Y-64739999D02*
X87599999Y-57795999D01*
X88900000Y-66040000D02*
X87599999Y-64739999D01*
X96520000Y-66285000D02*
X93980000Y-68825000D01*
X96520000Y-64980000D02*
X96520000Y-66285000D01*
X90150998Y-55245000D02*
X91685000Y-55245000D01*
X104396628Y-60336628D02*
X105020000Y-60960000D01*
X103364999Y-59304999D02*
X104396628Y-60336628D01*
X101404999Y-59304999D02*
X103364999Y-59304999D01*
X101290000Y-59419998D02*
X101404999Y-59304999D01*
X101290000Y-60530000D02*
X101290000Y-59419998D01*
X105020000Y-63595000D02*
X105095000Y-63670000D01*
X105020000Y-60960000D02*
X105020000Y-63595000D01*
X113355000Y-56724998D02*
X113984997Y-56095001D01*
X113355001Y-57860000D02*
X113355000Y-56724998D01*
X113984997Y-56095001D02*
X115978001Y-56095001D01*
X116431999Y-55653001D02*
X119380000Y-52705000D01*
X116420001Y-55653001D02*
X116431999Y-55653001D01*
X115978001Y-56095001D02*
X116420001Y-55653001D01*
X99951628Y-57773372D02*
X100575000Y-57150000D01*
X99275001Y-58449999D02*
X99951628Y-57773372D01*
X99275001Y-61575003D02*
X99275001Y-58449999D01*
X99454999Y-61755001D02*
X99275001Y-61575003D01*
X101175001Y-61755001D02*
X99454999Y-61755001D01*
X101290000Y-61640002D02*
X101175001Y-61755001D01*
X101290000Y-60530000D02*
X101290000Y-61640002D01*
X105095000Y-63670000D02*
X106535000Y-62230000D01*
X106535000Y-62230000D02*
X108585000Y-62230000D01*
X100575000Y-57150000D02*
X102175020Y-55549980D01*
X106269980Y-55549980D02*
X107070000Y-56350000D01*
X107070000Y-56350000D02*
X107070000Y-57150000D01*
X110490000Y-60960000D02*
X110490000Y-59690000D01*
X113330001Y-57884999D02*
X113355000Y-57860000D01*
X113330001Y-59020001D02*
X113330001Y-57884999D01*
X110490000Y-59690000D02*
X112660002Y-59690000D01*
X112660002Y-59690000D02*
X113330001Y-59020001D01*
X107950000Y-57150000D02*
X107070000Y-57150000D01*
X110490000Y-59690000D02*
X107950000Y-57150000D01*
X102175020Y-55549980D02*
X104470020Y-55549980D01*
X104470020Y-55549980D02*
X105079980Y-55549980D01*
X105079980Y-55549980D02*
X106269980Y-55549980D01*
D21*
X100575000Y-53340000D02*
X100575000Y-57150000D01*
X98425000Y-61550000D02*
X98425000Y-61595000D01*
X98425000Y-66920000D02*
X96520000Y-68825000D01*
X98425000Y-63630000D02*
X98425000Y-66920000D01*
X98425000Y-61029315D02*
X98425000Y-61595000D01*
X98425000Y-60835000D02*
X98425000Y-61029315D01*
X97070000Y-59480000D02*
X98425000Y-60835000D01*
X96520000Y-59480000D02*
X97070000Y-59480000D01*
X96520000Y-56905000D02*
X98180000Y-55245000D01*
X96520000Y-59480000D02*
X96520000Y-56905000D01*
X93980000Y-60280000D02*
X93980000Y-59480000D01*
X93300000Y-60960000D02*
X93980000Y-60280000D01*
X88900000Y-60960000D02*
X93300000Y-60960000D01*
X93980000Y-64180000D02*
X93980000Y-64980000D01*
X93300000Y-63500000D02*
X93980000Y-64180000D01*
X88900000Y-63500000D02*
X93300000Y-63500000D01*
X111760000Y-67329742D02*
X116224742Y-67329742D01*
X116224742Y-67329742D02*
X119380000Y-70485000D01*
X111768168Y-65429732D02*
X112055000Y-65142900D01*
X112055000Y-65142900D02*
X112055000Y-64060000D01*
X115305000Y-58910000D02*
X115305000Y-57860000D01*
X115305000Y-59885684D02*
X115305000Y-58910000D01*
X114230685Y-60960000D02*
X115305000Y-59885684D01*
X113665001Y-60960000D02*
X114230685Y-60960000D01*
X110755000Y-64060000D02*
X110755000Y-62600000D01*
X110755000Y-62600000D02*
X112395000Y-60960000D01*
X118745000Y-62230000D02*
X119380000Y-62865000D01*
X115570000Y-62230000D02*
X118745000Y-62230000D01*
X114005000Y-59395000D02*
X114005000Y-57860000D01*
X114300000Y-59690000D02*
X114005000Y-59395000D01*
X114005000Y-62525000D02*
X114005000Y-64060000D01*
X118530001Y-58634999D02*
X119380000Y-57785000D01*
X117895001Y-58634999D02*
X118530001Y-58634999D01*
X114005000Y-62525000D02*
X117895001Y-58634999D01*
X113354999Y-62538590D02*
X113354999Y-64060001D01*
X113354999Y-62538590D02*
X116840000Y-59053589D01*
X116840000Y-57785000D02*
X119380000Y-55245000D01*
X116840000Y-59053589D02*
X116840000Y-57785000D01*
X113934999Y-52070001D02*
X114934999Y-52070001D01*
X113285020Y-52719980D02*
X113934999Y-52070001D01*
X113285020Y-54989980D02*
X113285020Y-52719980D01*
X112055000Y-56220000D02*
X113285020Y-54989980D01*
X112055000Y-57860000D02*
X112055000Y-56220000D01*
X111405000Y-56810000D02*
X111405000Y-57860000D01*
X111405000Y-56038002D02*
X111405000Y-56810000D01*
X112835010Y-54607992D02*
X111405000Y-56038002D01*
X112835010Y-52145010D02*
X112835010Y-54607992D01*
X112760000Y-52070000D02*
X112835010Y-52145010D01*
X111760000Y-52070000D02*
X112760000Y-52070000D01*
X109585000Y-52070000D02*
X109855000Y-52340000D01*
X108585000Y-52070000D02*
X109585000Y-52070000D01*
X110755000Y-56145000D02*
X109855000Y-55245000D01*
X110755000Y-57860000D02*
X110755000Y-56145000D01*
X109855000Y-52340000D02*
X109855000Y-55245000D01*
X110606143Y-66154733D02*
X109760011Y-65308601D01*
X109760011Y-65308601D02*
X109760011Y-60425599D01*
X109760011Y-60425599D02*
X108574403Y-59239991D01*
X106169990Y-56711800D02*
X106169990Y-58544990D01*
X103650010Y-56124990D02*
X105583180Y-56124990D01*
X114655000Y-64060000D02*
X114655000Y-65110000D01*
X106864990Y-59239990D02*
X108574403Y-59239991D01*
X113610267Y-66154733D02*
X110606143Y-66154733D01*
X102625000Y-57150000D02*
X103650010Y-56124990D01*
X106169990Y-58544990D02*
X106864990Y-59239990D01*
X105583180Y-56124990D02*
X106169990Y-56711800D01*
X114655000Y-65110000D02*
X113610267Y-66154733D01*
X100980423Y-58279979D02*
X101495021Y-58279979D01*
X101495021Y-58279979D02*
X102001628Y-57773372D01*
X99990000Y-59270402D02*
X100980423Y-58279979D01*
X99990000Y-60530000D02*
X99990000Y-59270402D01*
X102001628Y-57773372D02*
X102625000Y-57150000D01*
X109310001Y-65495001D02*
X110419741Y-66604741D01*
X114229741Y-66604741D02*
X115305000Y-65529482D01*
X110419741Y-66604741D02*
X114229741Y-66604741D01*
X115305000Y-65529482D02*
X115305000Y-64060000D01*
X105020000Y-57150000D02*
X105020000Y-58665000D01*
X109310001Y-60611999D02*
X109310001Y-65495001D01*
X106045000Y-59690000D02*
X108388002Y-59690000D01*
X108388002Y-59690000D02*
X109310001Y-60611999D01*
X105020000Y-58665000D02*
X106045000Y-59690000D01*
X100640000Y-59256812D02*
X101166823Y-58729989D01*
X103440011Y-58729989D02*
X101274989Y-58729989D01*
X105020000Y-57150000D02*
X103440011Y-58729989D01*
X101166823Y-58729989D02*
X101274989Y-58729989D01*
X100640000Y-60530000D02*
X100640000Y-59256812D01*
X99990000Y-63330000D02*
X99990000Y-63930000D01*
X99565000Y-62905000D02*
X99990000Y-63330000D01*
X99990000Y-67895000D02*
X99060000Y-68825000D01*
X99990000Y-63930000D02*
X99990000Y-67895000D01*
X96525000Y-62905000D02*
X99565000Y-62905000D01*
X95250000Y-64180000D02*
X96525000Y-62905000D01*
X95250000Y-64980000D02*
X95250000Y-64180000D01*
X92063372Y-68201628D02*
X91440000Y-68825000D01*
X92828372Y-68201628D02*
X92063372Y-68201628D01*
X95250000Y-65780000D02*
X92828372Y-68201628D01*
X95250000Y-64980000D02*
X95250000Y-65780000D01*
X100640000Y-67865000D02*
X100640000Y-63930000D01*
X101600000Y-68825000D02*
X100640000Y-67865000D01*
X100640000Y-62905000D02*
X100640000Y-63930000D01*
X100189990Y-62454990D02*
X100640000Y-62905000D01*
X97424990Y-62454990D02*
X100189990Y-62454990D01*
X95250000Y-60280000D02*
X97424990Y-62454990D01*
X95250000Y-59480000D02*
X95250000Y-60280000D01*
X95250000Y-56760000D02*
X95250000Y-59480000D01*
X93735000Y-55245000D02*
X95250000Y-56760000D01*
X89665000Y-68825000D02*
X88900000Y-68825000D01*
X92710000Y-65780000D02*
X89665000Y-68825000D01*
X92710000Y-64980000D02*
X92710000Y-65780000D01*
X108805000Y-65870000D02*
X111760000Y-68825000D01*
X106995000Y-65870000D02*
X108805000Y-65870000D01*
X114087406Y-50770000D02*
X111760000Y-50770000D01*
X114934999Y-50770001D02*
X114087406Y-50770000D01*
X111760000Y-50770000D02*
X108585000Y-50770000D01*
X105195000Y-50770000D02*
X108585000Y-50770000D01*
X102625000Y-53340000D02*
X105195000Y-50770000D01*
M02*
