G04 #@! TF.GenerationSoftware,KiCad,Pcbnew,(5.1.4)-1*
G04 #@! TF.CreationDate,2020-05-30T22:46:28-05:00*
G04 #@! TF.ProjectId,TrackballMod,54726163-6b62-4616-9c6c-4d6f642e6b69,rev?*
G04 #@! TF.SameCoordinates,Original*
G04 #@! TF.FileFunction,Legend,Top*
G04 #@! TF.FilePolarity,Positive*
%FSLAX46Y46*%
G04 Gerber Fmt 4.6, Leading zero omitted, Abs format (unit mm)*
G04 Created by KiCad (PCBNEW (5.1.4)-1) date 2020-05-30 22:46:28*
%MOMM*%
%LPD*%
G04 APERTURE LIST*
%ADD10C,0.120000*%
%ADD11C,0.150000*%
%ADD12C,0.010000*%
G04 APERTURE END LIST*
D10*
X90805000Y-52070000D02*
G75*
G03X90805000Y-52070000I-3175000J0D01*
G01*
D11*
X116554285Y-51252380D02*
X116554285Y-50252380D01*
X116554285Y-50728571D02*
X117125714Y-50728571D01*
X117125714Y-51252380D02*
X117125714Y-50252380D01*
X117149523Y-53792380D02*
X116673333Y-53792380D01*
X116673333Y-52792380D01*
X119620357Y-49315714D02*
X119858452Y-49982380D01*
X120096547Y-49315714D01*
X121001309Y-49982380D02*
X120429880Y-49982380D01*
X120715595Y-49982380D02*
X120715595Y-48982380D01*
X120620357Y-49125238D01*
X120525119Y-49220476D01*
X120429880Y-49268095D01*
X121429880Y-49887142D02*
X121477500Y-49934761D01*
X121429880Y-49982380D01*
X121382261Y-49934761D01*
X121429880Y-49887142D01*
X121429880Y-49982380D01*
X122096547Y-48982380D02*
X122191785Y-48982380D01*
X122287023Y-49030000D01*
X122334642Y-49077619D01*
X122382261Y-49172857D01*
X122429880Y-49363333D01*
X122429880Y-49601428D01*
X122382261Y-49791904D01*
X122334642Y-49887142D01*
X122287023Y-49934761D01*
X122191785Y-49982380D01*
X122096547Y-49982380D01*
X122001309Y-49934761D01*
X121953690Y-49887142D01*
X121906071Y-49791904D01*
X121858452Y-49601428D01*
X121858452Y-49363333D01*
X121906071Y-49172857D01*
X121953690Y-49077619D01*
X122001309Y-49030000D01*
X122096547Y-48982380D01*
X122858452Y-49887142D02*
X122906071Y-49934761D01*
X122858452Y-49982380D01*
X122810833Y-49934761D01*
X122858452Y-49887142D01*
X122858452Y-49982380D01*
X123525119Y-48982380D02*
X123620357Y-48982380D01*
X123715595Y-49030000D01*
X123763214Y-49077619D01*
X123810833Y-49172857D01*
X123858452Y-49363333D01*
X123858452Y-49601428D01*
X123810833Y-49791904D01*
X123763214Y-49887142D01*
X123715595Y-49934761D01*
X123620357Y-49982380D01*
X123525119Y-49982380D01*
X123429880Y-49934761D01*
X123382261Y-49887142D01*
X123334642Y-49791904D01*
X123287023Y-49601428D01*
X123287023Y-49363333D01*
X123334642Y-49172857D01*
X123382261Y-49077619D01*
X123429880Y-49030000D01*
X123525119Y-48982380D01*
X85802261Y-65492380D02*
X85326071Y-65492380D01*
X85278452Y-65968571D01*
X85326071Y-65920952D01*
X85421309Y-65873333D01*
X85659404Y-65873333D01*
X85754642Y-65920952D01*
X85802261Y-65968571D01*
X85849880Y-66063809D01*
X85849880Y-66301904D01*
X85802261Y-66397142D01*
X85754642Y-66444761D01*
X85659404Y-66492380D01*
X85421309Y-66492380D01*
X85326071Y-66444761D01*
X85278452Y-66397142D01*
X86135595Y-65492380D02*
X86468928Y-66492380D01*
X86802261Y-65492380D01*
X84278452Y-63904761D02*
X84421309Y-63952380D01*
X84659404Y-63952380D01*
X84754642Y-63904761D01*
X84802261Y-63857142D01*
X84849880Y-63761904D01*
X84849880Y-63666666D01*
X84802261Y-63571428D01*
X84754642Y-63523809D01*
X84659404Y-63476190D01*
X84468928Y-63428571D01*
X84373690Y-63380952D01*
X84326071Y-63333333D01*
X84278452Y-63238095D01*
X84278452Y-63142857D01*
X84326071Y-63047619D01*
X84373690Y-63000000D01*
X84468928Y-62952380D01*
X84707023Y-62952380D01*
X84849880Y-63000000D01*
X85278452Y-63952380D02*
X85278452Y-62952380D01*
X85516547Y-62952380D01*
X85659404Y-63000000D01*
X85754642Y-63095238D01*
X85802261Y-63190476D01*
X85849880Y-63380952D01*
X85849880Y-63523809D01*
X85802261Y-63714285D01*
X85754642Y-63809523D01*
X85659404Y-63904761D01*
X85516547Y-63952380D01*
X85278452Y-63952380D01*
X86230833Y-63666666D02*
X86707023Y-63666666D01*
X86135595Y-63952380D02*
X86468928Y-62952380D01*
X86802261Y-63952380D01*
X84326071Y-61364761D02*
X84468928Y-61412380D01*
X84707023Y-61412380D01*
X84802261Y-61364761D01*
X84849880Y-61317142D01*
X84897500Y-61221904D01*
X84897500Y-61126666D01*
X84849880Y-61031428D01*
X84802261Y-60983809D01*
X84707023Y-60936190D01*
X84516547Y-60888571D01*
X84421309Y-60840952D01*
X84373690Y-60793333D01*
X84326071Y-60698095D01*
X84326071Y-60602857D01*
X84373690Y-60507619D01*
X84421309Y-60460000D01*
X84516547Y-60412380D01*
X84754642Y-60412380D01*
X84897500Y-60460000D01*
X85897500Y-61317142D02*
X85849880Y-61364761D01*
X85707023Y-61412380D01*
X85611785Y-61412380D01*
X85468928Y-61364761D01*
X85373690Y-61269523D01*
X85326071Y-61174285D01*
X85278452Y-60983809D01*
X85278452Y-60840952D01*
X85326071Y-60650476D01*
X85373690Y-60555238D01*
X85468928Y-60460000D01*
X85611785Y-60412380D01*
X85707023Y-60412380D01*
X85849880Y-60460000D01*
X85897500Y-60507619D01*
X86802261Y-61412380D02*
X86326071Y-61412380D01*
X86326071Y-60412380D01*
X84611785Y-57920000D02*
X84516547Y-57872380D01*
X84373690Y-57872380D01*
X84230833Y-57920000D01*
X84135595Y-58015238D01*
X84087976Y-58110476D01*
X84040357Y-58300952D01*
X84040357Y-58443809D01*
X84087976Y-58634285D01*
X84135595Y-58729523D01*
X84230833Y-58824761D01*
X84373690Y-58872380D01*
X84468928Y-58872380D01*
X84611785Y-58824761D01*
X84659404Y-58777142D01*
X84659404Y-58443809D01*
X84468928Y-58443809D01*
X85087976Y-58872380D02*
X85087976Y-57872380D01*
X85659404Y-58872380D01*
X85659404Y-57872380D01*
X86135595Y-58872380D02*
X86135595Y-57872380D01*
X86373690Y-57872380D01*
X86516547Y-57920000D01*
X86611785Y-58015238D01*
X86659404Y-58110476D01*
X86707023Y-58300952D01*
X86707023Y-58443809D01*
X86659404Y-58634285D01*
X86611785Y-58729523D01*
X86516547Y-58824761D01*
X86373690Y-58872380D01*
X86135595Y-58872380D01*
X107870714Y-49442666D02*
X108346904Y-49442666D01*
X107775476Y-49728380D02*
X108108809Y-48728380D01*
X108442142Y-49728380D01*
X108727857Y-48823619D02*
X108775476Y-48776000D01*
X108870714Y-48728380D01*
X109108809Y-48728380D01*
X109204047Y-48776000D01*
X109251666Y-48823619D01*
X109299285Y-48918857D01*
X109299285Y-49014095D01*
X109251666Y-49156952D01*
X108680238Y-49728380D01*
X109299285Y-49728380D01*
X111045714Y-49442666D02*
X111521904Y-49442666D01*
X110950476Y-49728380D02*
X111283809Y-48728380D01*
X111617142Y-49728380D01*
X112474285Y-49728380D02*
X111902857Y-49728380D01*
X112188571Y-49728380D02*
X112188571Y-48728380D01*
X112093333Y-48871238D01*
X111998095Y-48966476D01*
X111902857Y-49014095D01*
X114220714Y-49442666D02*
X114696904Y-49442666D01*
X114125476Y-49728380D02*
X114458809Y-48728380D01*
X114792142Y-49728380D01*
X115315952Y-48728380D02*
X115411190Y-48728380D01*
X115506428Y-48776000D01*
X115554047Y-48823619D01*
X115601666Y-48918857D01*
X115649285Y-49109333D01*
X115649285Y-49347428D01*
X115601666Y-49537904D01*
X115554047Y-49633142D01*
X115506428Y-49680761D01*
X115411190Y-49728380D01*
X115315952Y-49728380D01*
X115220714Y-49680761D01*
X115173095Y-49633142D01*
X115125476Y-49537904D01*
X115077857Y-49347428D01*
X115077857Y-49109333D01*
X115125476Y-48918857D01*
X115173095Y-48823619D01*
X115220714Y-48776000D01*
X115315952Y-48728380D01*
X122192023Y-70937380D02*
X121858690Y-70461190D01*
X121620595Y-70937380D02*
X121620595Y-69937380D01*
X122001547Y-69937380D01*
X122096785Y-69985000D01*
X122144404Y-70032619D01*
X122192023Y-70127857D01*
X122192023Y-70270714D01*
X122144404Y-70365952D01*
X122096785Y-70413571D01*
X122001547Y-70461190D01*
X121620595Y-70461190D01*
X122572976Y-70889761D02*
X122715833Y-70937380D01*
X122953928Y-70937380D01*
X123049166Y-70889761D01*
X123096785Y-70842142D01*
X123144404Y-70746904D01*
X123144404Y-70651666D01*
X123096785Y-70556428D01*
X123049166Y-70508809D01*
X122953928Y-70461190D01*
X122763452Y-70413571D01*
X122668214Y-70365952D01*
X122620595Y-70318333D01*
X122572976Y-70223095D01*
X122572976Y-70127857D01*
X122620595Y-70032619D01*
X122668214Y-69985000D01*
X122763452Y-69937380D01*
X123001547Y-69937380D01*
X123144404Y-69985000D01*
X123430119Y-69937380D02*
X124001547Y-69937380D01*
X123715833Y-70937380D02*
X123715833Y-69937380D01*
X122144404Y-67445000D02*
X122049166Y-67397380D01*
X121906309Y-67397380D01*
X121763452Y-67445000D01*
X121668214Y-67540238D01*
X121620595Y-67635476D01*
X121572976Y-67825952D01*
X121572976Y-67968809D01*
X121620595Y-68159285D01*
X121668214Y-68254523D01*
X121763452Y-68349761D01*
X121906309Y-68397380D01*
X122001547Y-68397380D01*
X122144404Y-68349761D01*
X122192023Y-68302142D01*
X122192023Y-67968809D01*
X122001547Y-67968809D01*
X122620595Y-68397380D02*
X122620595Y-67397380D01*
X123192023Y-68397380D01*
X123192023Y-67397380D01*
X123668214Y-68397380D02*
X123668214Y-67397380D01*
X123906309Y-67397380D01*
X124049166Y-67445000D01*
X124144404Y-67540238D01*
X124192023Y-67635476D01*
X124239642Y-67825952D01*
X124239642Y-67968809D01*
X124192023Y-68159285D01*
X124144404Y-68254523D01*
X124049166Y-68349761D01*
X123906309Y-68397380D01*
X123668214Y-68397380D01*
X121620595Y-65857380D02*
X121620595Y-64857380D01*
X122096785Y-65857380D02*
X122096785Y-64857380D01*
X122668214Y-65857380D01*
X122668214Y-64857380D01*
X123001547Y-64857380D02*
X123572976Y-64857380D01*
X123287261Y-65857380D02*
X123287261Y-64857380D01*
X121572976Y-63269761D02*
X121715833Y-63317380D01*
X121953928Y-63317380D01*
X122049166Y-63269761D01*
X122096785Y-63222142D01*
X122144404Y-63126904D01*
X122144404Y-63031666D01*
X122096785Y-62936428D01*
X122049166Y-62888809D01*
X121953928Y-62841190D01*
X121763452Y-62793571D01*
X121668214Y-62745952D01*
X121620595Y-62698333D01*
X121572976Y-62603095D01*
X121572976Y-62507857D01*
X121620595Y-62412619D01*
X121668214Y-62365000D01*
X121763452Y-62317380D01*
X122001547Y-62317380D01*
X122144404Y-62365000D01*
X122525357Y-63269761D02*
X122668214Y-63317380D01*
X122906309Y-63317380D01*
X123001547Y-63269761D01*
X123049166Y-63222142D01*
X123096785Y-63126904D01*
X123096785Y-63031666D01*
X123049166Y-62936428D01*
X123001547Y-62888809D01*
X122906309Y-62841190D01*
X122715833Y-62793571D01*
X122620595Y-62745952D01*
X122572976Y-62698333D01*
X122525357Y-62603095D01*
X122525357Y-62507857D01*
X122572976Y-62412619D01*
X122620595Y-62365000D01*
X122715833Y-62317380D01*
X122953928Y-62317380D01*
X123096785Y-62365000D01*
X121572976Y-60729761D02*
X121715833Y-60777380D01*
X121953928Y-60777380D01*
X122049166Y-60729761D01*
X122096785Y-60682142D01*
X122144404Y-60586904D01*
X122144404Y-60491666D01*
X122096785Y-60396428D01*
X122049166Y-60348809D01*
X121953928Y-60301190D01*
X121763452Y-60253571D01*
X121668214Y-60205952D01*
X121620595Y-60158333D01*
X121572976Y-60063095D01*
X121572976Y-59967857D01*
X121620595Y-59872619D01*
X121668214Y-59825000D01*
X121763452Y-59777380D01*
X122001547Y-59777380D01*
X122144404Y-59825000D01*
X123144404Y-60682142D02*
X123096785Y-60729761D01*
X122953928Y-60777380D01*
X122858690Y-60777380D01*
X122715833Y-60729761D01*
X122620595Y-60634523D01*
X122572976Y-60539285D01*
X122525357Y-60348809D01*
X122525357Y-60205952D01*
X122572976Y-60015476D01*
X122620595Y-59920238D01*
X122715833Y-59825000D01*
X122858690Y-59777380D01*
X122953928Y-59777380D01*
X123096785Y-59825000D01*
X123144404Y-59872619D01*
X121620595Y-58237380D02*
X121620595Y-57237380D01*
X121953928Y-57951666D01*
X122287261Y-57237380D01*
X122287261Y-58237380D01*
X122953928Y-57237380D02*
X123144404Y-57237380D01*
X123239642Y-57285000D01*
X123334880Y-57380238D01*
X123382500Y-57570714D01*
X123382500Y-57904047D01*
X123334880Y-58094523D01*
X123239642Y-58189761D01*
X123144404Y-58237380D01*
X122953928Y-58237380D01*
X122858690Y-58189761D01*
X122763452Y-58094523D01*
X122715833Y-57904047D01*
X122715833Y-57570714D01*
X122763452Y-57380238D01*
X122858690Y-57285000D01*
X122953928Y-57237380D01*
X121620595Y-55697380D02*
X121620595Y-54697380D01*
X121953928Y-55411666D01*
X122287261Y-54697380D01*
X122287261Y-55697380D01*
X122763452Y-55697380D02*
X122763452Y-54697380D01*
X121525357Y-52157380D02*
X122144404Y-52157380D01*
X121811071Y-52538333D01*
X121953928Y-52538333D01*
X122049166Y-52585952D01*
X122096785Y-52633571D01*
X122144404Y-52728809D01*
X122144404Y-52966904D01*
X122096785Y-53062142D01*
X122049166Y-53109761D01*
X121953928Y-53157380D01*
X121668214Y-53157380D01*
X121572976Y-53109761D01*
X121525357Y-53062142D01*
X122477738Y-52490714D02*
X122715833Y-53157380D01*
X122953928Y-52490714D01*
X123239642Y-52157380D02*
X123858690Y-52157380D01*
X123525357Y-52538333D01*
X123668214Y-52538333D01*
X123763452Y-52585952D01*
X123811071Y-52633571D01*
X123858690Y-52728809D01*
X123858690Y-52966904D01*
X123811071Y-53062142D01*
X123763452Y-53109761D01*
X123668214Y-53157380D01*
X123382500Y-53157380D01*
X123287261Y-53109761D01*
X123239642Y-53062142D01*
D12*
G36*
X93711245Y-49085448D02*
G01*
X93795778Y-49107386D01*
X93864051Y-49146511D01*
X93920461Y-49204921D01*
X93944283Y-49239884D01*
X93966125Y-49278063D01*
X93978853Y-49311430D01*
X93984758Y-49350050D01*
X93986136Y-49403985D01*
X93986024Y-49423063D01*
X93982335Y-49490866D01*
X93971218Y-49553327D01*
X93950655Y-49613716D01*
X93918629Y-49675299D01*
X93873119Y-49741346D01*
X93812108Y-49815124D01*
X93733578Y-49899903D01*
X93635510Y-49998950D01*
X93622399Y-50011885D01*
X93438227Y-50193222D01*
X94036445Y-50193222D01*
X94036445Y-50334333D01*
X93260333Y-50334333D01*
X93260333Y-50160519D01*
X93461677Y-49954620D01*
X93558181Y-49853925D01*
X93635155Y-49768471D01*
X93694548Y-49695196D01*
X93738309Y-49631037D01*
X93768389Y-49572930D01*
X93786736Y-49517811D01*
X93795301Y-49462618D01*
X93796556Y-49428415D01*
X93787059Y-49351062D01*
X93757520Y-49293101D01*
X93706366Y-49252591D01*
X93634278Y-49228063D01*
X93587639Y-49226928D01*
X93526408Y-49237093D01*
X93460536Y-49255933D01*
X93399978Y-49280821D01*
X93369997Y-49297787D01*
X93324641Y-49324838D01*
X93296262Y-49331877D01*
X93281031Y-49316663D01*
X93275116Y-49276956D01*
X93274445Y-49241889D01*
X93274445Y-49151334D01*
X93334417Y-49129568D01*
X93422128Y-49101188D01*
X93499176Y-49085141D01*
X93578906Y-49078924D01*
X93606056Y-49078602D01*
X93711245Y-49085448D01*
X93711245Y-49085448D01*
G37*
X93711245Y-49085448D02*
X93795778Y-49107386D01*
X93864051Y-49146511D01*
X93920461Y-49204921D01*
X93944283Y-49239884D01*
X93966125Y-49278063D01*
X93978853Y-49311430D01*
X93984758Y-49350050D01*
X93986136Y-49403985D01*
X93986024Y-49423063D01*
X93982335Y-49490866D01*
X93971218Y-49553327D01*
X93950655Y-49613716D01*
X93918629Y-49675299D01*
X93873119Y-49741346D01*
X93812108Y-49815124D01*
X93733578Y-49899903D01*
X93635510Y-49998950D01*
X93622399Y-50011885D01*
X93438227Y-50193222D01*
X94036445Y-50193222D01*
X94036445Y-50334333D01*
X93260333Y-50334333D01*
X93260333Y-50160519D01*
X93461677Y-49954620D01*
X93558181Y-49853925D01*
X93635155Y-49768471D01*
X93694548Y-49695196D01*
X93738309Y-49631037D01*
X93768389Y-49572930D01*
X93786736Y-49517811D01*
X93795301Y-49462618D01*
X93796556Y-49428415D01*
X93787059Y-49351062D01*
X93757520Y-49293101D01*
X93706366Y-49252591D01*
X93634278Y-49228063D01*
X93587639Y-49226928D01*
X93526408Y-49237093D01*
X93460536Y-49255933D01*
X93399978Y-49280821D01*
X93369997Y-49297787D01*
X93324641Y-49324838D01*
X93296262Y-49331877D01*
X93281031Y-49316663D01*
X93275116Y-49276956D01*
X93274445Y-49241889D01*
X93274445Y-49151334D01*
X93334417Y-49129568D01*
X93422128Y-49101188D01*
X93499176Y-49085141D01*
X93578906Y-49078924D01*
X93606056Y-49078602D01*
X93711245Y-49085448D01*
G36*
X103124000Y-49487666D02*
G01*
X102884111Y-49487666D01*
X102884111Y-50969333D01*
X103124000Y-50969333D01*
X103124000Y-51152778D01*
X102376111Y-51152778D01*
X102376111Y-50969333D01*
X102616000Y-50969333D01*
X102616000Y-49487666D01*
X102376111Y-49487666D01*
X102376111Y-49304222D01*
X103124000Y-49304222D01*
X103124000Y-49487666D01*
X103124000Y-49487666D01*
G37*
X103124000Y-49487666D02*
X102884111Y-49487666D01*
X102884111Y-50969333D01*
X103124000Y-50969333D01*
X103124000Y-51152778D01*
X102376111Y-51152778D01*
X102376111Y-50969333D01*
X102616000Y-50969333D01*
X102616000Y-49487666D01*
X102376111Y-49487666D01*
X102376111Y-49304222D01*
X103124000Y-49304222D01*
X103124000Y-49487666D01*
G36*
X101469524Y-49304798D02*
G01*
X101561376Y-49306410D01*
X101642686Y-49308884D01*
X101708286Y-49312047D01*
X101753010Y-49315726D01*
X101764354Y-49317389D01*
X101892041Y-49353422D01*
X102003327Y-49409182D01*
X102095845Y-49483028D01*
X102167229Y-49573313D01*
X102188515Y-49611984D01*
X102205477Y-49648627D01*
X102216740Y-49681174D01*
X102223459Y-49716928D01*
X102226786Y-49763194D01*
X102227876Y-49827274D01*
X102227945Y-49861611D01*
X102227545Y-49934608D01*
X102225475Y-49986936D01*
X102220425Y-50026143D01*
X102211084Y-50059779D01*
X102196143Y-50095395D01*
X102182446Y-50123924D01*
X102117309Y-50225894D01*
X102030467Y-50313263D01*
X101926574Y-50381521D01*
X101906479Y-50391403D01*
X101839057Y-50419501D01*
X101771510Y-50439384D01*
X101696970Y-50452209D01*
X101608568Y-50459137D01*
X101499435Y-50461327D01*
X101492241Y-50461333D01*
X101317778Y-50461333D01*
X101317778Y-51152778D01*
X101049667Y-51152778D01*
X101049667Y-50249666D01*
X101317778Y-50249666D01*
X101405972Y-50249559D01*
X101465175Y-50247736D01*
X101537204Y-50243045D01*
X101606931Y-50236482D01*
X101609949Y-50236138D01*
X101698421Y-50221852D01*
X101766930Y-50200173D01*
X101823412Y-50167994D01*
X101858820Y-50138694D01*
X101909190Y-50080696D01*
X101940880Y-50014584D01*
X101956441Y-49933661D01*
X101959097Y-49875384D01*
X101951782Y-49778930D01*
X101927510Y-49699221D01*
X101884842Y-49635274D01*
X101822340Y-49586103D01*
X101738565Y-49550726D01*
X101632078Y-49528156D01*
X101501441Y-49517409D01*
X101434195Y-49516168D01*
X101317778Y-49515889D01*
X101317778Y-50249666D01*
X101049667Y-50249666D01*
X101049667Y-49304222D01*
X101372296Y-49304222D01*
X101469524Y-49304798D01*
X101469524Y-49304798D01*
G37*
X101469524Y-49304798D02*
X101561376Y-49306410D01*
X101642686Y-49308884D01*
X101708286Y-49312047D01*
X101753010Y-49315726D01*
X101764354Y-49317389D01*
X101892041Y-49353422D01*
X102003327Y-49409182D01*
X102095845Y-49483028D01*
X102167229Y-49573313D01*
X102188515Y-49611984D01*
X102205477Y-49648627D01*
X102216740Y-49681174D01*
X102223459Y-49716928D01*
X102226786Y-49763194D01*
X102227876Y-49827274D01*
X102227945Y-49861611D01*
X102227545Y-49934608D01*
X102225475Y-49986936D01*
X102220425Y-50026143D01*
X102211084Y-50059779D01*
X102196143Y-50095395D01*
X102182446Y-50123924D01*
X102117309Y-50225894D01*
X102030467Y-50313263D01*
X101926574Y-50381521D01*
X101906479Y-50391403D01*
X101839057Y-50419501D01*
X101771510Y-50439384D01*
X101696970Y-50452209D01*
X101608568Y-50459137D01*
X101499435Y-50461327D01*
X101492241Y-50461333D01*
X101317778Y-50461333D01*
X101317778Y-51152778D01*
X101049667Y-51152778D01*
X101049667Y-50249666D01*
X101317778Y-50249666D01*
X101405972Y-50249559D01*
X101465175Y-50247736D01*
X101537204Y-50243045D01*
X101606931Y-50236482D01*
X101609949Y-50236138D01*
X101698421Y-50221852D01*
X101766930Y-50200173D01*
X101823412Y-50167994D01*
X101858820Y-50138694D01*
X101909190Y-50080696D01*
X101940880Y-50014584D01*
X101956441Y-49933661D01*
X101959097Y-49875384D01*
X101951782Y-49778930D01*
X101927510Y-49699221D01*
X101884842Y-49635274D01*
X101822340Y-49586103D01*
X101738565Y-49550726D01*
X101632078Y-49528156D01*
X101501441Y-49517409D01*
X101434195Y-49516168D01*
X101317778Y-49515889D01*
X101317778Y-50249666D01*
X101049667Y-50249666D01*
X101049667Y-49304222D01*
X101372296Y-49304222D01*
X101469524Y-49304798D01*
G36*
X93076889Y-49487666D02*
G01*
X92837000Y-49487666D01*
X92837000Y-50969333D01*
X93076889Y-50969333D01*
X93076889Y-51152778D01*
X92329000Y-51152778D01*
X92329000Y-50969333D01*
X92568889Y-50969333D01*
X92568889Y-49487666D01*
X92329000Y-49487666D01*
X92329000Y-49304222D01*
X93076889Y-49304222D01*
X93076889Y-49487666D01*
X93076889Y-49487666D01*
G37*
X93076889Y-49487666D02*
X92837000Y-49487666D01*
X92837000Y-50969333D01*
X93076889Y-50969333D01*
X93076889Y-51152778D01*
X92329000Y-51152778D01*
X92329000Y-50969333D01*
X92568889Y-50969333D01*
X92568889Y-49487666D01*
X92329000Y-49487666D01*
X92329000Y-49304222D01*
X93076889Y-49304222D01*
X93076889Y-49487666D01*
G36*
X96872778Y-49769889D02*
G01*
X97296111Y-49769889D01*
X97296111Y-49967444D01*
X96872778Y-49967444D01*
X96872778Y-50361861D01*
X96873341Y-50477901D01*
X96874945Y-50584023D01*
X96877464Y-50676359D01*
X96880772Y-50751040D01*
X96884742Y-50804197D01*
X96887987Y-50827197D01*
X96914695Y-50895718D01*
X96960225Y-50943923D01*
X97023173Y-50971176D01*
X97102135Y-50976844D01*
X97187439Y-50962521D01*
X97233384Y-50951050D01*
X97268531Y-50943280D01*
X97282689Y-50941111D01*
X97289136Y-50954061D01*
X97293890Y-50988289D01*
X97296063Y-51036863D01*
X97296111Y-51045775D01*
X97296111Y-51150439D01*
X97224861Y-51165719D01*
X97172388Y-51173322D01*
X97105825Y-51177896D01*
X97034188Y-51179385D01*
X96966495Y-51177735D01*
X96911762Y-51172889D01*
X96886798Y-51167815D01*
X96797311Y-51127140D01*
X96723599Y-51066010D01*
X96671494Y-50990500D01*
X96656908Y-50956808D01*
X96645176Y-50918300D01*
X96636015Y-50871693D01*
X96629138Y-50813704D01*
X96624262Y-50741053D01*
X96621100Y-50650455D01*
X96619370Y-50538630D01*
X96618785Y-50402294D01*
X96618778Y-50383027D01*
X96618778Y-49967444D01*
X96463556Y-49967444D01*
X96463556Y-49769889D01*
X96618778Y-49769889D01*
X96618778Y-49374778D01*
X96872778Y-49374778D01*
X96872778Y-49769889D01*
X96872778Y-49769889D01*
G37*
X96872778Y-49769889D02*
X97296111Y-49769889D01*
X97296111Y-49967444D01*
X96872778Y-49967444D01*
X96872778Y-50361861D01*
X96873341Y-50477901D01*
X96874945Y-50584023D01*
X96877464Y-50676359D01*
X96880772Y-50751040D01*
X96884742Y-50804197D01*
X96887987Y-50827197D01*
X96914695Y-50895718D01*
X96960225Y-50943923D01*
X97023173Y-50971176D01*
X97102135Y-50976844D01*
X97187439Y-50962521D01*
X97233384Y-50951050D01*
X97268531Y-50943280D01*
X97282689Y-50941111D01*
X97289136Y-50954061D01*
X97293890Y-50988289D01*
X97296063Y-51036863D01*
X97296111Y-51045775D01*
X97296111Y-51150439D01*
X97224861Y-51165719D01*
X97172388Y-51173322D01*
X97105825Y-51177896D01*
X97034188Y-51179385D01*
X96966495Y-51177735D01*
X96911762Y-51172889D01*
X96886798Y-51167815D01*
X96797311Y-51127140D01*
X96723599Y-51066010D01*
X96671494Y-50990500D01*
X96656908Y-50956808D01*
X96645176Y-50918300D01*
X96636015Y-50871693D01*
X96629138Y-50813704D01*
X96624262Y-50741053D01*
X96621100Y-50650455D01*
X96619370Y-50538630D01*
X96618785Y-50402294D01*
X96618778Y-50383027D01*
X96618778Y-49967444D01*
X96463556Y-49967444D01*
X96463556Y-49769889D01*
X96618778Y-49769889D01*
X96618778Y-49374778D01*
X96872778Y-49374778D01*
X96872778Y-49769889D01*
G36*
X100303983Y-49266376D02*
G01*
X100411992Y-49277383D01*
X100512688Y-49294565D01*
X100575188Y-49310261D01*
X100647095Y-49331507D01*
X100696558Y-49348370D01*
X100727755Y-49365849D01*
X100744861Y-49388939D01*
X100752051Y-49422637D01*
X100753501Y-49471941D01*
X100753333Y-49523441D01*
X100752105Y-49587964D01*
X100748718Y-49636974D01*
X100743616Y-49665652D01*
X100739698Y-49671111D01*
X100721897Y-49663915D01*
X100687698Y-49644951D01*
X100644153Y-49618157D01*
X100639451Y-49615130D01*
X100523140Y-49551678D01*
X100403477Y-49508024D01*
X100284681Y-49484674D01*
X100170970Y-49482133D01*
X100066563Y-49500909D01*
X99983890Y-49536537D01*
X99921920Y-49580990D01*
X99882058Y-49631853D01*
X99860247Y-49696139D01*
X99853031Y-49762771D01*
X99853539Y-49830489D01*
X99863533Y-49886607D01*
X99885698Y-49933375D01*
X99922716Y-49973043D01*
X99977270Y-50007863D01*
X100052045Y-50040084D01*
X100149724Y-50071958D01*
X100256986Y-50101567D01*
X100385707Y-50137154D01*
X100489966Y-50170809D01*
X100573246Y-50204542D01*
X100639031Y-50240368D01*
X100690804Y-50280298D01*
X100732047Y-50326346D01*
X100766244Y-50380524D01*
X100777462Y-50402326D01*
X100795593Y-50442006D01*
X100807147Y-50477444D01*
X100813570Y-50517040D01*
X100816314Y-50569198D01*
X100816833Y-50630666D01*
X100816210Y-50699378D01*
X100813240Y-50748617D01*
X100806270Y-50787127D01*
X100793648Y-50823649D01*
X100773723Y-50866926D01*
X100771217Y-50872061D01*
X100705613Y-50974800D01*
X100618850Y-51061025D01*
X100514430Y-51127938D01*
X100395859Y-51172740D01*
X100394063Y-51173210D01*
X100345483Y-51181614D01*
X100276932Y-51188007D01*
X100196605Y-51192174D01*
X100112697Y-51193903D01*
X100033401Y-51192980D01*
X99966912Y-51189191D01*
X99934889Y-51185168D01*
X99881635Y-51173097D01*
X99812800Y-51153601D01*
X99738899Y-51129997D01*
X99670448Y-51105600D01*
X99628595Y-51088591D01*
X99553889Y-51055553D01*
X99553889Y-50899554D01*
X99554777Y-50826833D01*
X99557701Y-50778873D01*
X99563054Y-50752260D01*
X99571227Y-50743580D01*
X99571805Y-50743555D01*
X99591162Y-50751571D01*
X99625671Y-50772721D01*
X99668328Y-50802664D01*
X99674111Y-50806979D01*
X99781823Y-50875370D01*
X99897781Y-50926729D01*
X100017245Y-50960334D01*
X100135476Y-50975464D01*
X100247733Y-50971397D01*
X100349277Y-50947410D01*
X100410217Y-50919102D01*
X100476472Y-50866044D01*
X100522205Y-50799772D01*
X100547537Y-50725283D01*
X100552589Y-50647574D01*
X100537482Y-50571641D01*
X100502337Y-50502481D01*
X100447275Y-50445091D01*
X100398022Y-50415103D01*
X100368472Y-50404041D01*
X100317406Y-50387936D01*
X100250704Y-50368522D01*
X100174246Y-50347536D01*
X100126691Y-50335054D01*
X99998603Y-50299549D01*
X99894917Y-50264467D01*
X99811945Y-50227485D01*
X99746002Y-50186277D01*
X99693401Y-50138521D01*
X99650456Y-50081891D01*
X99613479Y-50014064D01*
X99611760Y-50010421D01*
X99593618Y-49967557D01*
X99582561Y-49927422D01*
X99576944Y-49880498D01*
X99575122Y-49817267D01*
X99575066Y-49798111D01*
X99579389Y-49703824D01*
X99594689Y-49627817D01*
X99624487Y-49561149D01*
X99672303Y-49494880D01*
X99711850Y-49450805D01*
X99810414Y-49366736D01*
X99924241Y-49305971D01*
X100021786Y-49275744D01*
X100100309Y-49265022D01*
X100197231Y-49262077D01*
X100303983Y-49266376D01*
X100303983Y-49266376D01*
G37*
X100303983Y-49266376D02*
X100411992Y-49277383D01*
X100512688Y-49294565D01*
X100575188Y-49310261D01*
X100647095Y-49331507D01*
X100696558Y-49348370D01*
X100727755Y-49365849D01*
X100744861Y-49388939D01*
X100752051Y-49422637D01*
X100753501Y-49471941D01*
X100753333Y-49523441D01*
X100752105Y-49587964D01*
X100748718Y-49636974D01*
X100743616Y-49665652D01*
X100739698Y-49671111D01*
X100721897Y-49663915D01*
X100687698Y-49644951D01*
X100644153Y-49618157D01*
X100639451Y-49615130D01*
X100523140Y-49551678D01*
X100403477Y-49508024D01*
X100284681Y-49484674D01*
X100170970Y-49482133D01*
X100066563Y-49500909D01*
X99983890Y-49536537D01*
X99921920Y-49580990D01*
X99882058Y-49631853D01*
X99860247Y-49696139D01*
X99853031Y-49762771D01*
X99853539Y-49830489D01*
X99863533Y-49886607D01*
X99885698Y-49933375D01*
X99922716Y-49973043D01*
X99977270Y-50007863D01*
X100052045Y-50040084D01*
X100149724Y-50071958D01*
X100256986Y-50101567D01*
X100385707Y-50137154D01*
X100489966Y-50170809D01*
X100573246Y-50204542D01*
X100639031Y-50240368D01*
X100690804Y-50280298D01*
X100732047Y-50326346D01*
X100766244Y-50380524D01*
X100777462Y-50402326D01*
X100795593Y-50442006D01*
X100807147Y-50477444D01*
X100813570Y-50517040D01*
X100816314Y-50569198D01*
X100816833Y-50630666D01*
X100816210Y-50699378D01*
X100813240Y-50748617D01*
X100806270Y-50787127D01*
X100793648Y-50823649D01*
X100773723Y-50866926D01*
X100771217Y-50872061D01*
X100705613Y-50974800D01*
X100618850Y-51061025D01*
X100514430Y-51127938D01*
X100395859Y-51172740D01*
X100394063Y-51173210D01*
X100345483Y-51181614D01*
X100276932Y-51188007D01*
X100196605Y-51192174D01*
X100112697Y-51193903D01*
X100033401Y-51192980D01*
X99966912Y-51189191D01*
X99934889Y-51185168D01*
X99881635Y-51173097D01*
X99812800Y-51153601D01*
X99738899Y-51129997D01*
X99670448Y-51105600D01*
X99628595Y-51088591D01*
X99553889Y-51055553D01*
X99553889Y-50899554D01*
X99554777Y-50826833D01*
X99557701Y-50778873D01*
X99563054Y-50752260D01*
X99571227Y-50743580D01*
X99571805Y-50743555D01*
X99591162Y-50751571D01*
X99625671Y-50772721D01*
X99668328Y-50802664D01*
X99674111Y-50806979D01*
X99781823Y-50875370D01*
X99897781Y-50926729D01*
X100017245Y-50960334D01*
X100135476Y-50975464D01*
X100247733Y-50971397D01*
X100349277Y-50947410D01*
X100410217Y-50919102D01*
X100476472Y-50866044D01*
X100522205Y-50799772D01*
X100547537Y-50725283D01*
X100552589Y-50647574D01*
X100537482Y-50571641D01*
X100502337Y-50502481D01*
X100447275Y-50445091D01*
X100398022Y-50415103D01*
X100368472Y-50404041D01*
X100317406Y-50387936D01*
X100250704Y-50368522D01*
X100174246Y-50347536D01*
X100126691Y-50335054D01*
X99998603Y-50299549D01*
X99894917Y-50264467D01*
X99811945Y-50227485D01*
X99746002Y-50186277D01*
X99693401Y-50138521D01*
X99650456Y-50081891D01*
X99613479Y-50014064D01*
X99611760Y-50010421D01*
X99593618Y-49967557D01*
X99582561Y-49927422D01*
X99576944Y-49880498D01*
X99575122Y-49817267D01*
X99575066Y-49798111D01*
X99579389Y-49703824D01*
X99594689Y-49627817D01*
X99624487Y-49561149D01*
X99672303Y-49494880D01*
X99711850Y-49450805D01*
X99810414Y-49366736D01*
X99924241Y-49305971D01*
X100021786Y-49275744D01*
X100100309Y-49265022D01*
X100197231Y-49262077D01*
X100303983Y-49266376D01*
G36*
X98128263Y-49738271D02*
G01*
X98197208Y-49755130D01*
X98310413Y-49805516D01*
X98407343Y-49878836D01*
X98487927Y-49974500D01*
X98549193Y-50087601D01*
X98592054Y-50217713D01*
X98615445Y-50359581D01*
X98618304Y-50507951D01*
X98611466Y-50584805D01*
X98594699Y-50691915D01*
X98572939Y-50778986D01*
X98543488Y-50854111D01*
X98503644Y-50925380D01*
X98491727Y-50943566D01*
X98413654Y-51039427D01*
X98323439Y-51111429D01*
X98219077Y-51160560D01*
X98098563Y-51187808D01*
X97982541Y-51194504D01*
X97885142Y-51189844D01*
X97804786Y-51175970D01*
X97767353Y-51164980D01*
X97660446Y-51114702D01*
X97567525Y-51041688D01*
X97489846Y-50948391D01*
X97428667Y-50837262D01*
X97385244Y-50710755D01*
X97360833Y-50571321D01*
X97357911Y-50465538D01*
X97620213Y-50465538D01*
X97625834Y-50577018D01*
X97642477Y-50681057D01*
X97670361Y-50770882D01*
X97680402Y-50792944D01*
X97736591Y-50878522D01*
X97807653Y-50940684D01*
X97891801Y-50978432D01*
X97987250Y-50990768D01*
X98029889Y-50988176D01*
X98080646Y-50978809D01*
X98127702Y-50964467D01*
X98137240Y-50960403D01*
X98190345Y-50926282D01*
X98243175Y-50877664D01*
X98284301Y-50825503D01*
X98291963Y-50812140D01*
X98323169Y-50729610D01*
X98343431Y-50628841D01*
X98352895Y-50517003D01*
X98351709Y-50401266D01*
X98340018Y-50288797D01*
X98317970Y-50186765D01*
X98285712Y-50102341D01*
X98277111Y-50086589D01*
X98221791Y-50017789D01*
X98151485Y-49969031D01*
X98071130Y-49940368D01*
X97985661Y-49931849D01*
X97900014Y-49943527D01*
X97819123Y-49975452D01*
X97747924Y-50027676D01*
X97703547Y-50080651D01*
X97667281Y-50154173D01*
X97641157Y-50247343D01*
X97625394Y-50353389D01*
X97620213Y-50465538D01*
X97357911Y-50465538D01*
X97356692Y-50421414D01*
X97359994Y-50369985D01*
X97384254Y-50216353D01*
X97428643Y-50082140D01*
X97493030Y-49967558D01*
X97577282Y-49872819D01*
X97681269Y-49798136D01*
X97729355Y-49773465D01*
X97814939Y-49745259D01*
X97916339Y-49729741D01*
X98023974Y-49727287D01*
X98128263Y-49738271D01*
X98128263Y-49738271D01*
G37*
X98128263Y-49738271D02*
X98197208Y-49755130D01*
X98310413Y-49805516D01*
X98407343Y-49878836D01*
X98487927Y-49974500D01*
X98549193Y-50087601D01*
X98592054Y-50217713D01*
X98615445Y-50359581D01*
X98618304Y-50507951D01*
X98611466Y-50584805D01*
X98594699Y-50691915D01*
X98572939Y-50778986D01*
X98543488Y-50854111D01*
X98503644Y-50925380D01*
X98491727Y-50943566D01*
X98413654Y-51039427D01*
X98323439Y-51111429D01*
X98219077Y-51160560D01*
X98098563Y-51187808D01*
X97982541Y-51194504D01*
X97885142Y-51189844D01*
X97804786Y-51175970D01*
X97767353Y-51164980D01*
X97660446Y-51114702D01*
X97567525Y-51041688D01*
X97489846Y-50948391D01*
X97428667Y-50837262D01*
X97385244Y-50710755D01*
X97360833Y-50571321D01*
X97357911Y-50465538D01*
X97620213Y-50465538D01*
X97625834Y-50577018D01*
X97642477Y-50681057D01*
X97670361Y-50770882D01*
X97680402Y-50792944D01*
X97736591Y-50878522D01*
X97807653Y-50940684D01*
X97891801Y-50978432D01*
X97987250Y-50990768D01*
X98029889Y-50988176D01*
X98080646Y-50978809D01*
X98127702Y-50964467D01*
X98137240Y-50960403D01*
X98190345Y-50926282D01*
X98243175Y-50877664D01*
X98284301Y-50825503D01*
X98291963Y-50812140D01*
X98323169Y-50729610D01*
X98343431Y-50628841D01*
X98352895Y-50517003D01*
X98351709Y-50401266D01*
X98340018Y-50288797D01*
X98317970Y-50186765D01*
X98285712Y-50102341D01*
X98277111Y-50086589D01*
X98221791Y-50017789D01*
X98151485Y-49969031D01*
X98071130Y-49940368D01*
X97985661Y-49931849D01*
X97900014Y-49943527D01*
X97819123Y-49975452D01*
X97747924Y-50027676D01*
X97703547Y-50080651D01*
X97667281Y-50154173D01*
X97641157Y-50247343D01*
X97625394Y-50353389D01*
X97620213Y-50465538D01*
X97357911Y-50465538D01*
X97356692Y-50421414D01*
X97359994Y-50369985D01*
X97384254Y-50216353D01*
X97428643Y-50082140D01*
X97493030Y-49967558D01*
X97577282Y-49872819D01*
X97681269Y-49798136D01*
X97729355Y-49773465D01*
X97814939Y-49745259D01*
X97916339Y-49729741D01*
X98023974Y-49727287D01*
X98128263Y-49738271D01*
G36*
X95209679Y-49277505D02*
G01*
X95353908Y-49311393D01*
X95488956Y-49361892D01*
X95500472Y-49367251D01*
X95602778Y-49415720D01*
X95602778Y-49564582D01*
X95602374Y-49631018D01*
X95600578Y-49674179D01*
X95596508Y-49699005D01*
X95589286Y-49710438D01*
X95578032Y-49713420D01*
X95576283Y-49713444D01*
X95545159Y-49703195D01*
X95532102Y-49692133D01*
X95502932Y-49665737D01*
X95455493Y-49631917D01*
X95397115Y-49595134D01*
X95335127Y-49559846D01*
X95276858Y-49530515D01*
X95242945Y-49516188D01*
X95147501Y-49491009D01*
X95043980Y-49481382D01*
X94941874Y-49487229D01*
X94850674Y-49508477D01*
X94823110Y-49519527D01*
X94721682Y-49576414D01*
X94639945Y-49646834D01*
X94574342Y-49734884D01*
X94521316Y-49844659D01*
X94506920Y-49883611D01*
X94485280Y-49966978D01*
X94470101Y-50069062D01*
X94461807Y-50181013D01*
X94460819Y-50293978D01*
X94467562Y-50399107D01*
X94478838Y-50471774D01*
X94519617Y-50609298D01*
X94579030Y-50727027D01*
X94656421Y-50824042D01*
X94751132Y-50899428D01*
X94807498Y-50930006D01*
X94861907Y-50953349D01*
X94908565Y-50966653D01*
X94960183Y-50972602D01*
X95015281Y-50973873D01*
X95151799Y-50962967D01*
X95277230Y-50928338D01*
X95395869Y-50868403D01*
X95492421Y-50798172D01*
X95536847Y-50763094D01*
X95567448Y-50745627D01*
X95586782Y-50747908D01*
X95597409Y-50772075D01*
X95601888Y-50820268D01*
X95602778Y-50890392D01*
X95602778Y-51037228D01*
X95507528Y-51081894D01*
X95369565Y-51138596D01*
X95238625Y-51174521D01*
X95105292Y-51191834D01*
X95019116Y-51194182D01*
X94941273Y-51191740D01*
X94867139Y-51185912D01*
X94806510Y-51177591D01*
X94784333Y-51172778D01*
X94645973Y-51122490D01*
X94523600Y-51049249D01*
X94417942Y-50953838D01*
X94329724Y-50837045D01*
X94259674Y-50699653D01*
X94211203Y-50553055D01*
X94196887Y-50474551D01*
X94187943Y-50376510D01*
X94184299Y-50267087D01*
X94185881Y-50154438D01*
X94192617Y-50046716D01*
X94204433Y-49952078D01*
X94217112Y-49892648D01*
X94271143Y-49741787D01*
X94344915Y-49608288D01*
X94436849Y-49493817D01*
X94545362Y-49400041D01*
X94668875Y-49328626D01*
X94794554Y-49284063D01*
X94922738Y-49262984D01*
X95063534Y-49261083D01*
X95209679Y-49277505D01*
X95209679Y-49277505D01*
G37*
X95209679Y-49277505D02*
X95353908Y-49311393D01*
X95488956Y-49361892D01*
X95500472Y-49367251D01*
X95602778Y-49415720D01*
X95602778Y-49564582D01*
X95602374Y-49631018D01*
X95600578Y-49674179D01*
X95596508Y-49699005D01*
X95589286Y-49710438D01*
X95578032Y-49713420D01*
X95576283Y-49713444D01*
X95545159Y-49703195D01*
X95532102Y-49692133D01*
X95502932Y-49665737D01*
X95455493Y-49631917D01*
X95397115Y-49595134D01*
X95335127Y-49559846D01*
X95276858Y-49530515D01*
X95242945Y-49516188D01*
X95147501Y-49491009D01*
X95043980Y-49481382D01*
X94941874Y-49487229D01*
X94850674Y-49508477D01*
X94823110Y-49519527D01*
X94721682Y-49576414D01*
X94639945Y-49646834D01*
X94574342Y-49734884D01*
X94521316Y-49844659D01*
X94506920Y-49883611D01*
X94485280Y-49966978D01*
X94470101Y-50069062D01*
X94461807Y-50181013D01*
X94460819Y-50293978D01*
X94467562Y-50399107D01*
X94478838Y-50471774D01*
X94519617Y-50609298D01*
X94579030Y-50727027D01*
X94656421Y-50824042D01*
X94751132Y-50899428D01*
X94807498Y-50930006D01*
X94861907Y-50953349D01*
X94908565Y-50966653D01*
X94960183Y-50972602D01*
X95015281Y-50973873D01*
X95151799Y-50962967D01*
X95277230Y-50928338D01*
X95395869Y-50868403D01*
X95492421Y-50798172D01*
X95536847Y-50763094D01*
X95567448Y-50745627D01*
X95586782Y-50747908D01*
X95597409Y-50772075D01*
X95601888Y-50820268D01*
X95602778Y-50890392D01*
X95602778Y-51037228D01*
X95507528Y-51081894D01*
X95369565Y-51138596D01*
X95238625Y-51174521D01*
X95105292Y-51191834D01*
X95019116Y-51194182D01*
X94941273Y-51191740D01*
X94867139Y-51185912D01*
X94806510Y-51177591D01*
X94784333Y-51172778D01*
X94645973Y-51122490D01*
X94523600Y-51049249D01*
X94417942Y-50953838D01*
X94329724Y-50837045D01*
X94259674Y-50699653D01*
X94211203Y-50553055D01*
X94196887Y-50474551D01*
X94187943Y-50376510D01*
X94184299Y-50267087D01*
X94185881Y-50154438D01*
X94192617Y-50046716D01*
X94204433Y-49952078D01*
X94217112Y-49892648D01*
X94271143Y-49741787D01*
X94344915Y-49608288D01*
X94436849Y-49493817D01*
X94545362Y-49400041D01*
X94668875Y-49328626D01*
X94794554Y-49284063D01*
X94922738Y-49262984D01*
X95063534Y-49261083D01*
X95209679Y-49277505D01*
D10*
X101338748Y-57860000D02*
X101861252Y-57860000D01*
X101338748Y-56440000D02*
X101861252Y-56440000D01*
X101861252Y-52630000D02*
X101338748Y-52630000D01*
X101861252Y-54050000D02*
X101338748Y-54050000D01*
X111050000Y-69588748D02*
X111050000Y-70111252D01*
X112470000Y-69588748D02*
X112470000Y-70111252D01*
X107390000Y-70111252D02*
X107390000Y-69588748D01*
X105970000Y-70111252D02*
X105970000Y-69588748D01*
X88900000Y-67370000D02*
X87570000Y-67370000D01*
X87570000Y-67370000D02*
X87570000Y-66040000D01*
X87570000Y-64770000D02*
X87570000Y-57090000D01*
X90230000Y-57090000D02*
X87570000Y-57090000D01*
X90230000Y-64770000D02*
X90230000Y-57090000D01*
X90230000Y-64770000D02*
X87570000Y-64770000D01*
X115980000Y-65360000D02*
X110880000Y-65360000D01*
X115980000Y-56560000D02*
X115980000Y-65360000D01*
X110080000Y-56560000D02*
X115980000Y-56560000D01*
X110080000Y-64560000D02*
X110080000Y-56560000D01*
X110880000Y-65360000D02*
X110080000Y-64560000D01*
X99315000Y-59255000D02*
X101815000Y-59255000D01*
X99315000Y-65205000D02*
X99315000Y-59255000D01*
X102615000Y-65205000D02*
X99315000Y-65205000D01*
X102615000Y-60055000D02*
X102615000Y-65205000D01*
X101815000Y-59255000D02*
X102615000Y-60055000D01*
X104435000Y-63870000D02*
X104435000Y-66320000D01*
X107655000Y-65670000D02*
X107655000Y-63870000D01*
X91910000Y-57880000D02*
X96520000Y-57880000D01*
X91910000Y-66580000D02*
X91910000Y-57880000D01*
X97320000Y-66580000D02*
X91910000Y-66580000D01*
X97320000Y-58680000D02*
X97320000Y-66580000D01*
X96520000Y-57880000D02*
X97320000Y-58680000D01*
X97230000Y-70111252D02*
X97230000Y-69588748D01*
X95810000Y-70111252D02*
X95810000Y-69588748D01*
X89610000Y-70111252D02*
X89610000Y-69588748D01*
X88190000Y-70111252D02*
X88190000Y-69588748D01*
X102310000Y-70111252D02*
X102310000Y-69588748D01*
X100890000Y-70111252D02*
X100890000Y-69588748D01*
X92150000Y-70111252D02*
X92150000Y-69588748D01*
X90730000Y-70111252D02*
X90730000Y-69588748D01*
X92448748Y-55955000D02*
X92971252Y-55955000D01*
X92448748Y-54535000D02*
X92971252Y-54535000D01*
X99770000Y-70111252D02*
X99770000Y-69588748D01*
X98350000Y-70111252D02*
X98350000Y-69588748D01*
X106306252Y-56440000D02*
X105783748Y-56440000D01*
X106306252Y-57860000D02*
X105783748Y-57860000D01*
X108285000Y-54120000D02*
G75*
G02X107585000Y-53420000I0J700000D01*
G01*
X109585000Y-53420000D02*
G75*
G02X108885000Y-54120000I-700000J0D01*
G01*
X108885000Y-50020000D02*
G75*
G02X109585000Y-50720000I0J-700000D01*
G01*
X107585000Y-50720000D02*
G75*
G02X108285000Y-50020000I700000J0D01*
G01*
X107585000Y-53470000D02*
X107585000Y-50670000D01*
X108285000Y-50020000D02*
X108885000Y-50020000D01*
X109585000Y-50670000D02*
X109585000Y-53470000D01*
X108885000Y-54120000D02*
X108285000Y-54120000D01*
X109785000Y-53270000D02*
X110085000Y-53570000D01*
X110085000Y-53570000D02*
X110085000Y-52970000D01*
X109785000Y-53270000D02*
X110085000Y-52970000D01*
X111460000Y-54120000D02*
G75*
G02X110760000Y-53420000I0J700000D01*
G01*
X112760000Y-53420000D02*
G75*
G02X112060000Y-54120000I-700000J0D01*
G01*
X112060000Y-50020000D02*
G75*
G02X112760000Y-50720000I0J-700000D01*
G01*
X110760000Y-50720000D02*
G75*
G02X111460000Y-50020000I700000J0D01*
G01*
X110760000Y-53470000D02*
X110760000Y-50670000D01*
X111460000Y-50020000D02*
X112060000Y-50020000D01*
X112760000Y-50670000D02*
X112760000Y-53470000D01*
X112060000Y-54120000D02*
X111460000Y-54120000D01*
X112960000Y-53270000D02*
X113260000Y-53570000D01*
X113260000Y-53570000D02*
X113260000Y-52970000D01*
X112960000Y-53270000D02*
X113260000Y-52970000D01*
X114634999Y-54120001D02*
G75*
G02X113934999Y-53420001I0J700000D01*
G01*
X115934999Y-53420001D02*
G75*
G02X115234999Y-54120001I-700000J0D01*
G01*
X115234999Y-50020001D02*
G75*
G02X115934999Y-50720001I0J-700000D01*
G01*
X113934999Y-50720001D02*
G75*
G02X114634999Y-50020001I700000J0D01*
G01*
X113934999Y-53470001D02*
X113934999Y-50670001D01*
X114634999Y-50020001D02*
X115234999Y-50020001D01*
X115934999Y-50670001D02*
X115934999Y-53470001D01*
X115234999Y-54120001D02*
X114634999Y-54120001D01*
X116134999Y-53270001D02*
X116434999Y-53570001D01*
X116434999Y-53570001D02*
X116434999Y-52970001D01*
X116134999Y-53270001D02*
X116434999Y-52970001D01*
X118050000Y-51375000D02*
X119380000Y-51375000D01*
X118050000Y-52705000D02*
X118050000Y-51375000D01*
X118050000Y-53975000D02*
X120710000Y-53975000D01*
X120710000Y-53975000D02*
X120710000Y-71815000D01*
X118050000Y-53975000D02*
X118050000Y-71815000D01*
X118050000Y-71815000D02*
X120710000Y-71815000D01*
X93270000Y-69588748D02*
X93270000Y-70111252D01*
X94690000Y-69588748D02*
X94690000Y-70111252D01*
X96893748Y-55955000D02*
X97416252Y-55955000D01*
X96893748Y-54535000D02*
X97416252Y-54535000D01*
X105783748Y-61670000D02*
X106306252Y-61670000D01*
X105783748Y-60250000D02*
X106306252Y-60250000D01*
X108510000Y-69588748D02*
X108510000Y-70111252D01*
X109930000Y-69588748D02*
X109930000Y-70111252D01*
X103430000Y-69588748D02*
X103430000Y-70111252D01*
X104850000Y-69588748D02*
X104850000Y-70111252D01*
D11*
X101433333Y-55824380D02*
X101100000Y-55348190D01*
X100861904Y-55824380D02*
X100861904Y-54824380D01*
X101242857Y-54824380D01*
X101338095Y-54872000D01*
X101385714Y-54919619D01*
X101433333Y-55014857D01*
X101433333Y-55157714D01*
X101385714Y-55252952D01*
X101338095Y-55300571D01*
X101242857Y-55348190D01*
X100861904Y-55348190D01*
X102385714Y-55824380D02*
X101814285Y-55824380D01*
X102100000Y-55824380D02*
X102100000Y-54824380D01*
X102004761Y-54967238D01*
X101909523Y-55062476D01*
X101814285Y-55110095D01*
X104412023Y-53792380D02*
X104078690Y-53316190D01*
X103840595Y-53792380D02*
X103840595Y-52792380D01*
X104221547Y-52792380D01*
X104316785Y-52840000D01*
X104364404Y-52887619D01*
X104412023Y-52982857D01*
X104412023Y-53125714D01*
X104364404Y-53220952D01*
X104316785Y-53268571D01*
X104221547Y-53316190D01*
X103840595Y-53316190D01*
X105364404Y-53792380D02*
X104792976Y-53792380D01*
X105078690Y-53792380D02*
X105078690Y-52792380D01*
X104983452Y-52935238D01*
X104888214Y-53030476D01*
X104792976Y-53078095D01*
X106316785Y-53792380D02*
X105745357Y-53792380D01*
X106031071Y-53792380D02*
X106031071Y-52792380D01*
X105935833Y-52935238D01*
X105840595Y-53030476D01*
X105745357Y-53078095D01*
X111117142Y-72842380D02*
X110783809Y-72366190D01*
X110545714Y-72842380D02*
X110545714Y-71842380D01*
X110926666Y-71842380D01*
X111021904Y-71890000D01*
X111069523Y-71937619D01*
X111117142Y-72032857D01*
X111117142Y-72175714D01*
X111069523Y-72270952D01*
X111021904Y-72318571D01*
X110926666Y-72366190D01*
X110545714Y-72366190D01*
X112069523Y-72842380D02*
X111498095Y-72842380D01*
X111783809Y-72842380D02*
X111783809Y-71842380D01*
X111688571Y-71985238D01*
X111593333Y-72080476D01*
X111498095Y-72128095D01*
X112688571Y-71842380D02*
X112783809Y-71842380D01*
X112879047Y-71890000D01*
X112926666Y-71937619D01*
X112974285Y-72032857D01*
X113021904Y-72223333D01*
X113021904Y-72461428D01*
X112974285Y-72651904D01*
X112926666Y-72747142D01*
X112879047Y-72794761D01*
X112783809Y-72842380D01*
X112688571Y-72842380D01*
X112593333Y-72794761D01*
X112545714Y-72747142D01*
X112498095Y-72651904D01*
X112450476Y-72461428D01*
X112450476Y-72223333D01*
X112498095Y-72032857D01*
X112545714Y-71937619D01*
X112593333Y-71890000D01*
X112688571Y-71842380D01*
X106513333Y-72842380D02*
X106180000Y-72366190D01*
X105941904Y-72842380D02*
X105941904Y-71842380D01*
X106322857Y-71842380D01*
X106418095Y-71890000D01*
X106465714Y-71937619D01*
X106513333Y-72032857D01*
X106513333Y-72175714D01*
X106465714Y-72270952D01*
X106418095Y-72318571D01*
X106322857Y-72366190D01*
X105941904Y-72366190D01*
X107418095Y-71842380D02*
X106941904Y-71842380D01*
X106894285Y-72318571D01*
X106941904Y-72270952D01*
X107037142Y-72223333D01*
X107275238Y-72223333D01*
X107370476Y-72270952D01*
X107418095Y-72318571D01*
X107465714Y-72413809D01*
X107465714Y-72651904D01*
X107418095Y-72747142D01*
X107370476Y-72794761D01*
X107275238Y-72842380D01*
X107037142Y-72842380D01*
X106941904Y-72794761D01*
X106894285Y-72747142D01*
X116292380Y-61721904D02*
X117101904Y-61721904D01*
X117197142Y-61674285D01*
X117244761Y-61626666D01*
X117292380Y-61531428D01*
X117292380Y-61340952D01*
X117244761Y-61245714D01*
X117197142Y-61198095D01*
X117101904Y-61150476D01*
X116292380Y-61150476D01*
X116625714Y-60245714D02*
X117292380Y-60245714D01*
X116244761Y-60483809D02*
X116959047Y-60721904D01*
X116959047Y-60102857D01*
X102957380Y-62991904D02*
X103766904Y-62991904D01*
X103862142Y-62944285D01*
X103909761Y-62896666D01*
X103957380Y-62801428D01*
X103957380Y-62610952D01*
X103909761Y-62515714D01*
X103862142Y-62468095D01*
X103766904Y-62420476D01*
X102957380Y-62420476D01*
X102957380Y-62039523D02*
X102957380Y-61420476D01*
X103338333Y-61753809D01*
X103338333Y-61610952D01*
X103385952Y-61515714D01*
X103433571Y-61468095D01*
X103528809Y-61420476D01*
X103766904Y-61420476D01*
X103862142Y-61468095D01*
X103909761Y-61515714D01*
X103957380Y-61610952D01*
X103957380Y-61896666D01*
X103909761Y-61991904D01*
X103862142Y-62039523D01*
X108037380Y-65531904D02*
X108846904Y-65531904D01*
X108942142Y-65484285D01*
X108989761Y-65436666D01*
X109037380Y-65341428D01*
X109037380Y-65150952D01*
X108989761Y-65055714D01*
X108942142Y-65008095D01*
X108846904Y-64960476D01*
X108037380Y-64960476D01*
X108132619Y-64531904D02*
X108085000Y-64484285D01*
X108037380Y-64389047D01*
X108037380Y-64150952D01*
X108085000Y-64055714D01*
X108132619Y-64008095D01*
X108227857Y-63960476D01*
X108323095Y-63960476D01*
X108465952Y-64008095D01*
X109037380Y-64579523D01*
X109037380Y-63960476D01*
X97877380Y-62991904D02*
X98686904Y-62991904D01*
X98782142Y-62944285D01*
X98829761Y-62896666D01*
X98877380Y-62801428D01*
X98877380Y-62610952D01*
X98829761Y-62515714D01*
X98782142Y-62468095D01*
X98686904Y-62420476D01*
X97877380Y-62420476D01*
X98877380Y-61420476D02*
X98877380Y-61991904D01*
X98877380Y-61706190D02*
X97877380Y-61706190D01*
X98020238Y-61801428D01*
X98115476Y-61896666D01*
X98163095Y-61991904D01*
X96353333Y-72842380D02*
X96020000Y-72366190D01*
X95781904Y-72842380D02*
X95781904Y-71842380D01*
X96162857Y-71842380D01*
X96258095Y-71890000D01*
X96305714Y-71937619D01*
X96353333Y-72032857D01*
X96353333Y-72175714D01*
X96305714Y-72270952D01*
X96258095Y-72318571D01*
X96162857Y-72366190D01*
X95781904Y-72366190D01*
X96829523Y-72842380D02*
X97020000Y-72842380D01*
X97115238Y-72794761D01*
X97162857Y-72747142D01*
X97258095Y-72604285D01*
X97305714Y-72413809D01*
X97305714Y-72032857D01*
X97258095Y-71937619D01*
X97210476Y-71890000D01*
X97115238Y-71842380D01*
X96924761Y-71842380D01*
X96829523Y-71890000D01*
X96781904Y-71937619D01*
X96734285Y-72032857D01*
X96734285Y-72270952D01*
X96781904Y-72366190D01*
X96829523Y-72413809D01*
X96924761Y-72461428D01*
X97115238Y-72461428D01*
X97210476Y-72413809D01*
X97258095Y-72366190D01*
X97305714Y-72270952D01*
X88733333Y-72842380D02*
X88400000Y-72366190D01*
X88161904Y-72842380D02*
X88161904Y-71842380D01*
X88542857Y-71842380D01*
X88638095Y-71890000D01*
X88685714Y-71937619D01*
X88733333Y-72032857D01*
X88733333Y-72175714D01*
X88685714Y-72270952D01*
X88638095Y-72318571D01*
X88542857Y-72366190D01*
X88161904Y-72366190D01*
X89304761Y-72270952D02*
X89209523Y-72223333D01*
X89161904Y-72175714D01*
X89114285Y-72080476D01*
X89114285Y-72032857D01*
X89161904Y-71937619D01*
X89209523Y-71890000D01*
X89304761Y-71842380D01*
X89495238Y-71842380D01*
X89590476Y-71890000D01*
X89638095Y-71937619D01*
X89685714Y-72032857D01*
X89685714Y-72080476D01*
X89638095Y-72175714D01*
X89590476Y-72223333D01*
X89495238Y-72270952D01*
X89304761Y-72270952D01*
X89209523Y-72318571D01*
X89161904Y-72366190D01*
X89114285Y-72461428D01*
X89114285Y-72651904D01*
X89161904Y-72747142D01*
X89209523Y-72794761D01*
X89304761Y-72842380D01*
X89495238Y-72842380D01*
X89590476Y-72794761D01*
X89638095Y-72747142D01*
X89685714Y-72651904D01*
X89685714Y-72461428D01*
X89638095Y-72366190D01*
X89590476Y-72318571D01*
X89495238Y-72270952D01*
X101433333Y-72842380D02*
X101100000Y-72366190D01*
X100861904Y-72842380D02*
X100861904Y-71842380D01*
X101242857Y-71842380D01*
X101338095Y-71890000D01*
X101385714Y-71937619D01*
X101433333Y-72032857D01*
X101433333Y-72175714D01*
X101385714Y-72270952D01*
X101338095Y-72318571D01*
X101242857Y-72366190D01*
X100861904Y-72366190D01*
X101766666Y-71842380D02*
X102433333Y-71842380D01*
X102004761Y-72842380D01*
X91273333Y-72842380D02*
X90940000Y-72366190D01*
X90701904Y-72842380D02*
X90701904Y-71842380D01*
X91082857Y-71842380D01*
X91178095Y-71890000D01*
X91225714Y-71937619D01*
X91273333Y-72032857D01*
X91273333Y-72175714D01*
X91225714Y-72270952D01*
X91178095Y-72318571D01*
X91082857Y-72366190D01*
X90701904Y-72366190D01*
X92130476Y-71842380D02*
X91940000Y-71842380D01*
X91844761Y-71890000D01*
X91797142Y-71937619D01*
X91701904Y-72080476D01*
X91654285Y-72270952D01*
X91654285Y-72651904D01*
X91701904Y-72747142D01*
X91749523Y-72794761D01*
X91844761Y-72842380D01*
X92035238Y-72842380D01*
X92130476Y-72794761D01*
X92178095Y-72747142D01*
X92225714Y-72651904D01*
X92225714Y-72413809D01*
X92178095Y-72318571D01*
X92130476Y-72270952D01*
X92035238Y-72223333D01*
X91844761Y-72223333D01*
X91749523Y-72270952D01*
X91701904Y-72318571D01*
X91654285Y-72413809D01*
X92543333Y-54047380D02*
X92210000Y-53571190D01*
X91971904Y-54047380D02*
X91971904Y-53047380D01*
X92352857Y-53047380D01*
X92448095Y-53095000D01*
X92495714Y-53142619D01*
X92543333Y-53237857D01*
X92543333Y-53380714D01*
X92495714Y-53475952D01*
X92448095Y-53523571D01*
X92352857Y-53571190D01*
X91971904Y-53571190D01*
X93400476Y-53380714D02*
X93400476Y-54047380D01*
X93162380Y-52999761D02*
X92924285Y-53714047D01*
X93543333Y-53714047D01*
X98893333Y-72842380D02*
X98560000Y-72366190D01*
X98321904Y-72842380D02*
X98321904Y-71842380D01*
X98702857Y-71842380D01*
X98798095Y-71890000D01*
X98845714Y-71937619D01*
X98893333Y-72032857D01*
X98893333Y-72175714D01*
X98845714Y-72270952D01*
X98798095Y-72318571D01*
X98702857Y-72366190D01*
X98321904Y-72366190D01*
X99226666Y-71842380D02*
X99845714Y-71842380D01*
X99512380Y-72223333D01*
X99655238Y-72223333D01*
X99750476Y-72270952D01*
X99798095Y-72318571D01*
X99845714Y-72413809D01*
X99845714Y-72651904D01*
X99798095Y-72747142D01*
X99750476Y-72794761D01*
X99655238Y-72842380D01*
X99369523Y-72842380D01*
X99274285Y-72794761D01*
X99226666Y-72747142D01*
X105878333Y-55697380D02*
X105545000Y-55221190D01*
X105306904Y-55697380D02*
X105306904Y-54697380D01*
X105687857Y-54697380D01*
X105783095Y-54745000D01*
X105830714Y-54792619D01*
X105878333Y-54887857D01*
X105878333Y-55030714D01*
X105830714Y-55125952D01*
X105783095Y-55173571D01*
X105687857Y-55221190D01*
X105306904Y-55221190D01*
X106259285Y-54792619D02*
X106306904Y-54745000D01*
X106402142Y-54697380D01*
X106640238Y-54697380D01*
X106735476Y-54745000D01*
X106783095Y-54792619D01*
X106830714Y-54887857D01*
X106830714Y-54983095D01*
X106783095Y-55125952D01*
X106211666Y-55697380D01*
X106830714Y-55697380D01*
X93813333Y-72747142D02*
X93765714Y-72794761D01*
X93622857Y-72842380D01*
X93527619Y-72842380D01*
X93384761Y-72794761D01*
X93289523Y-72699523D01*
X93241904Y-72604285D01*
X93194285Y-72413809D01*
X93194285Y-72270952D01*
X93241904Y-72080476D01*
X93289523Y-71985238D01*
X93384761Y-71890000D01*
X93527619Y-71842380D01*
X93622857Y-71842380D01*
X93765714Y-71890000D01*
X93813333Y-71937619D01*
X94718095Y-71842380D02*
X94241904Y-71842380D01*
X94194285Y-72318571D01*
X94241904Y-72270952D01*
X94337142Y-72223333D01*
X94575238Y-72223333D01*
X94670476Y-72270952D01*
X94718095Y-72318571D01*
X94765714Y-72413809D01*
X94765714Y-72651904D01*
X94718095Y-72747142D01*
X94670476Y-72794761D01*
X94575238Y-72842380D01*
X94337142Y-72842380D01*
X94241904Y-72794761D01*
X94194285Y-72747142D01*
X96988333Y-53952142D02*
X96940714Y-53999761D01*
X96797857Y-54047380D01*
X96702619Y-54047380D01*
X96559761Y-53999761D01*
X96464523Y-53904523D01*
X96416904Y-53809285D01*
X96369285Y-53618809D01*
X96369285Y-53475952D01*
X96416904Y-53285476D01*
X96464523Y-53190238D01*
X96559761Y-53095000D01*
X96702619Y-53047380D01*
X96797857Y-53047380D01*
X96940714Y-53095000D01*
X96988333Y-53142619D01*
X97845476Y-53380714D02*
X97845476Y-54047380D01*
X97607380Y-52999761D02*
X97369285Y-53714047D01*
X97988333Y-53714047D01*
X105878333Y-59667142D02*
X105830714Y-59714761D01*
X105687857Y-59762380D01*
X105592619Y-59762380D01*
X105449761Y-59714761D01*
X105354523Y-59619523D01*
X105306904Y-59524285D01*
X105259285Y-59333809D01*
X105259285Y-59190952D01*
X105306904Y-59000476D01*
X105354523Y-58905238D01*
X105449761Y-58810000D01*
X105592619Y-58762380D01*
X105687857Y-58762380D01*
X105830714Y-58810000D01*
X105878333Y-58857619D01*
X106211666Y-58762380D02*
X106830714Y-58762380D01*
X106497380Y-59143333D01*
X106640238Y-59143333D01*
X106735476Y-59190952D01*
X106783095Y-59238571D01*
X106830714Y-59333809D01*
X106830714Y-59571904D01*
X106783095Y-59667142D01*
X106735476Y-59714761D01*
X106640238Y-59762380D01*
X106354523Y-59762380D01*
X106259285Y-59714761D01*
X106211666Y-59667142D01*
X109053333Y-72747142D02*
X109005714Y-72794761D01*
X108862857Y-72842380D01*
X108767619Y-72842380D01*
X108624761Y-72794761D01*
X108529523Y-72699523D01*
X108481904Y-72604285D01*
X108434285Y-72413809D01*
X108434285Y-72270952D01*
X108481904Y-72080476D01*
X108529523Y-71985238D01*
X108624761Y-71890000D01*
X108767619Y-71842380D01*
X108862857Y-71842380D01*
X109005714Y-71890000D01*
X109053333Y-71937619D01*
X109434285Y-71937619D02*
X109481904Y-71890000D01*
X109577142Y-71842380D01*
X109815238Y-71842380D01*
X109910476Y-71890000D01*
X109958095Y-71937619D01*
X110005714Y-72032857D01*
X110005714Y-72128095D01*
X109958095Y-72270952D01*
X109386666Y-72842380D01*
X110005714Y-72842380D01*
X103973333Y-72747142D02*
X103925714Y-72794761D01*
X103782857Y-72842380D01*
X103687619Y-72842380D01*
X103544761Y-72794761D01*
X103449523Y-72699523D01*
X103401904Y-72604285D01*
X103354285Y-72413809D01*
X103354285Y-72270952D01*
X103401904Y-72080476D01*
X103449523Y-71985238D01*
X103544761Y-71890000D01*
X103687619Y-71842380D01*
X103782857Y-71842380D01*
X103925714Y-71890000D01*
X103973333Y-71937619D01*
X104925714Y-72842380D02*
X104354285Y-72842380D01*
X104640000Y-72842380D02*
X104640000Y-71842380D01*
X104544761Y-71985238D01*
X104449523Y-72080476D01*
X104354285Y-72128095D01*
M02*
