M48
; DRILL file {KiCad (5.1.4)-1} date 5/30/2020 10:43:18 PM
; FORMAT={-:-/ absolute / metric / decimal}
; #@! TF.CreationDate,2020-05-30T22:43:18-05:00
; #@! TF.GenerationSoftware,Kicad,Pcbnew,(5.1.4)-1
; #@! TF.FileFunction,Plated,1,2,PTH
FMAT,2
METRIC
T1C0.400
T2C1.000
%
G90
G05
T1
X92.71Y-57.15
X95.25Y-53.34
X95.25Y-72.39
X98.425Y-61.595
X98.425Y-63.63
X102.87Y-69.85
X103.505Y-60.96
X106.045Y-64.77
X108.585Y-54.61
X108.585Y-60.96
X108.585Y-62.23
X110.49Y-60.96
X110.49Y-72.39
X111.76Y-54.61
X111.76Y-67.33
X111.768Y-65.43
X112.395Y-60.96
X112.395Y-62.23
X113.665Y-60.96
X114.3Y-59.69
X114.935Y-54.61
X115.57Y-62.23
T2
X88.9Y-58.42
X88.9Y-60.96
X88.9Y-63.5
X88.9Y-66.04
X119.38Y-52.705
X119.38Y-55.245
X119.38Y-57.785
X119.38Y-60.325
X119.38Y-62.865
X119.38Y-65.405
X119.38Y-67.945
X119.38Y-70.485
T0
M30
